<?xml version="1.0" encoding="UTF-8" standalone="no"?>
<!-- Created with Inkscape (http://www.inkscape.org/) -->

<svg
   xmlns:dc="http://purl.org/dc/elements/1.1/"
   xmlns:cc="http://creativecommons.org/ns#"
   xmlns:rdf="http://www.w3.org/1999/02/22-rdf-syntax-ns#"
   xmlns:svg="http://www.w3.org/2000/svg"
   xmlns="http://www.w3.org/2000/svg"
   xmlns:sodipodi="http://sodipodi.sourceforge.net/DTD/sodipodi-0.dtd"
   xmlns:inkscape="http://www.inkscape.org/namespaces/inkscape"
   width="210mm"
   height="297mm"
   viewBox="0 0 210 297"
   version="1.1"
   id="svg539"
   inkscape:export-filename="/home/edward/Desktop/CAT125Project/resources/assembly.png"
   inkscape:export-xdpi="96"
   inkscape:export-ydpi="96"
   inkscape:version="0.92.4 (5da689c313, 2019-01-14)"
   sodipodi:docname="assembly.svg">
  <defs
     id="defs533" />
  <sodipodi:namedview
     id="base"
     pagecolor="#ffffff"
     bordercolor="#666666"
     borderopacity="1.0"
     inkscape:pageopacity="0.0"
     inkscape:pageshadow="2"
     inkscape:zoom="1.4"
     inkscape:cx="393.772"
     inkscape:cy="831.22804"
     inkscape:document-units="mm"
     inkscape:current-layer="layer1"
     showgrid="false"
     inkscape:window-width="1850"
     inkscape:window-height="1016"
     inkscape:window-x="70"
     inkscape:window-y="27"
     inkscape:window-maximized="1" />
  <metadata
     id="metadata536">
    <rdf:RDF>
      <cc:Work
         rdf:about="">
        <dc:format>image/svg+xml</dc:format>
        <dc:type
           rdf:resource="http://purl.org/dc/dcmitype/StillImage" />
        <dc:title></dc:title>
      </cc:Work>
    </rdf:RDF>
  </metadata>
  <g
     inkscape:label="Layer 1"
     inkscape:groupmode="layer"
     id="layer1">
    <path
       id="path555"
       d="m 58.70073,11.361747 c -0.121549,1.547246 -0.322088,3.08656 -0.532384,4.623765 -0.541187,3.693309 -0.877266,7.410444 -1.142566,11.132313 -0.109069,1.663632 -0.240877,3.330523 -0.251719,4.998929 -0.0037,0.574744 0.0087,1.414399 0.127886,2.003849 0.04047,0.200149 0.12659,0.388284 0.189884,0.582424 0.08901,0.103942 0.14969,0.241409 0.267028,0.311822 0.376769,0.226092 1.005162,-0.169545 1.307438,-0.326024 0.383313,-0.198435 0.906743,-0.508413 1.274779,-0.721853 1.580544,-0.990412 3.365817,-1.424077 5.177956,-1.751004 1.768174,-0.264978 3.551148,-0.40104 5.325557,-0.613452 0.37497,-0.128625 1.02598,-0.02471 1.379763,-0.21707 0,0 -2.243262,1.71509 -2.243262,1.71509 v 0 c -0.439476,-0.01259 -0.87943,0.121002 -1.318371,0.123986 -1.754257,0.175126 -3.515201,0.297839 -5.256117,0.587005 -1.876994,0.367001 -3.520255,0.826995 -5.160024,1.850694 -0.655441,0.372568 -2.101503,1.409274 -2.853375,0.759116 -0.127193,-0.109987 -0.191436,-0.2765 -0.287157,-0.41475 -0.0584,-0.216294 -0.140428,-0.427559 -0.175213,-0.64888 -0.09517,-0.605502 -0.07709,-1.498536 -0.05573,-2.082186 0.06173,-1.686748 0.222522,-3.369874 0.342765,-5.052753 0.27251,-3.699728 0.574167,-7.397492 1.012185,-11.081943 0.166219,-1.498175 0.329282,-2.999223 0.37398,-4.506945 0,0 2.496701,-1.272133 2.496701,-1.272133 z"
       inkscape:connector-curvature="0"
       style="stroke-width:0.26458332" />
    <path
       id="path557"
       d="m 78.826975,17.083347 c -0.155024,-0.214788 -0.398973,-0.783916 -0.764457,-0.663812 -0.05537,0.01819 -0.09705,0.06458 -0.145577,0.09687 -0.905613,0.616905 0.09769,-0.07386 1.983007,-1.108122 0.09087,-0.04985 -0.169963,0.118841 -0.251431,0.182908 -0.351933,0.276763 -0.661511,0.589754 -0.970555,0.912445 -0.943287,1.096559 -1.420643,2.464586 -1.545156,3.896009 -0.03576,0.411094 -0.02688,0.824854 -0.04033,1.237281 0.08687,1.913223 0.510609,3.811758 1.396662,5.520768 0.586176,1.130609 0.80396,1.297606 1.594048,2.264759 0.316458,0.278611 0.608478,0.587716 0.949373,0.835834 0.852418,0.620424 1.904314,1.045147 2.976821,0.906196 0.855419,-0.110826 1.073592,-0.354486 1.790441,-0.798719 -0.484719,0.18365 -1.022027,0.83721 -1.454158,0.550952 -0.350882,-0.232439 0.511302,-0.671864 0.719177,-1.037831 0.227936,-0.40128 0.421556,-0.82338 0.583499,-1.255532 0.34938,-0.932336 0.585121,-2.009497 0.676315,-2.998457 0.04932,-0.534815 0.0281,-1.0738 0.04215,-1.610699 -0.05202,-0.54149 -0.07345,-1.086797 -0.156064,-1.624471 -0.276159,-1.797367 -0.868022,-3.776769 -2.251237,-5.048977 -0.259355,-0.238539 -0.57649,-0.405367 -0.864735,-0.608051 -0.303496,-0.104851 -0.59604,-0.249537 -0.910484,-0.314553 -0.885076,-0.183001 -1.792462,0.01211 -2.604646,0.368843 -0.247793,0.108837 -0.95191,0.515402 -0.716663,0.381593 0.563816,-0.320696 1.135017,-0.628232 1.702525,-0.942348 -1.146689,0.917034 -2.380774,1.488449 -3.700487,2.208579 0,0 2.212705,-1.710812 2.212705,-1.710812 v 0 c -4.355091,2.56502 -1.899472,1.207855 -1.03279,0.482606 1.465845,-0.862877 3.472071,-2.436598 5.39818,-2.396223 0.913596,0.01915 1.039516,0.163929 1.881005,0.509617 0.2921,0.224911 0.614037,0.415647 0.876297,0.674734 1.373137,1.356519 1.966611,3.368335 2.259357,5.220499 0.08633,0.546183 0.115588,1.099869 0.173381,1.649803 -0.0072,0.545797 0.01974,1.093116 -0.02164,1.637391 -0.113067,1.487687 -0.473181,2.999074 -1.159949,4.33051 -0.194082,0.37627 -0.352235,0.800793 -0.672915,1.077217 -0.93594,0.806762 -2.02611,1.415018 -3.039163,2.12253 -0.775284,0.407762 -0.991052,0.628541 -1.886307,0.681289 -1.600319,0.09429 -2.922005,-0.895229 -3.989893,-1.963537 -0.800862,-1.005554 -1.010435,-1.169786 -1.610997,-2.333596 -0.896591,-1.737471 -1.348722,-3.658541 -1.487258,-5.599623 0.0024,-0.417556 -0.01558,-0.835734 0.0073,-1.252671 0.0793,-1.444956 0.48532,-2.846695 1.378844,-4.000583 1.070655,-1.23456 2.403734,-2.215279 3.990827,-2.748308 0.627578,0.01647 0.776462,0.408755 1.112075,0.867841 0,0 -2.427102,1.399849 -2.427102,1.399849 z"
       inkscape:connector-curvature="0"
       style="stroke-width:0.26458332" />
    <path
       id="path559"
       d="m 89.90913,32.651536 c 0.528553,-0.485043 1.006335,-1.014662 1.420556,-1.599777 0.5031,-0.809035 0.762961,-1.740009 1.079722,-2.631477 0.689954,-2.014751 1.388192,-4.025967 2.132822,-6.02124 0.657331,-1.661199 1.273668,-3.348695 2.119509,-4.926033 0.796501,-1.2921 1.466765,-1.494454 3.199876,-2.249259 0.07306,-0.03182 0.08898,0.132214 0.133474,0.198321 0.167361,0.705899 0.315301,1.420475 0.469461,2.130869 0.42511,1.863906 0.87659,3.721424 1.32886,5.578869 0.48249,1.876962 0.86764,3.774977 1.22988,5.677971 0.21138,1.096791 0.4691,2.185168 0.97076,3.187796 0.12378,0.16229 0.26779,0.428333 0.5015,0.461592 0.1396,0.01987 0.16843,-0.135486 0.16571,-0.134009 -0.78769,0.427963 -1.55405,0.89409 -2.33107,1.341136 0,0 2.55775,-1.168342 2.55775,-1.168342 v 0 c -1.69836,1.095462 -2.29558,2.430518 -3.29565,0.863393 -0.48985,-1.039463 -0.74565,-2.159052 -0.94296,-3.287516 -0.33309,-1.908432 -0.685941,-3.813425 -1.173414,-5.689924 -0.459052,-1.848837 -0.924306,-3.696201 -1.411724,-5.537758 -0.166034,-0.663751 -0.358196,-1.322634 -0.496094,-1.992591 0.458338,0.837805 0.01836,0.06831 2.383975,-1.300299 0.04238,-0.02452 -0.09521,0.02907 -0.135339,0.05713 -0.27177,0.19001 -0.452451,0.50135 -0.658797,0.749586 -0.936681,1.550841 -1.568844,3.260604 -2.243746,4.935529 -0.738762,1.972241 -1.419424,3.96401 -2.04792,5.974267 -0.302699,0.901213 -0.541824,1.837052 -0.99726,2.676734 -0.40215,0.589836 -0.845558,1.140939 -1.367557,1.631259 0,0 -2.592324,1.073778 -2.592324,1.073778 z"
       inkscape:connector-curvature="0"
       style="stroke-width:0.26458332" />
    <path
       id="path561"
       d="m 89.125231,23.03226 c 0.723828,-1.269869 2.347327,-1.797998 3.51111,-2.455153 0.497198,-0.170254 0.972879,0.01699 1.434336,0.20427 0.696089,0.353632 1.453084,0.49825 2.226627,0.527305 0.866939,0.03969 1.704782,-0.191894 2.535561,-0.404392 0.414628,-0.149423 0.845274,-0.242217 1.263275,-0.379953 0,0 -2.200461,1.701343 -2.200461,1.701343 v 0 c -0.419574,0.120053 -0.840068,0.236572 -1.259092,0.358584 -0.843457,0.208922 -1.700633,0.388941 -2.575657,0.329298 -0.798428,-0.06295 -1.568289,-0.23598 -2.296885,-0.578672 -0.446911,-0.15065 -0.871234,-0.248891 -1.31244,-0.02005 0.725218,-0.423766 1.452341,-0.844286 2.175648,-1.271298 0.0735,-0.04339 -0.153405,0.07547 -0.22602,0.120319 -0.289497,0.178823 -0.539467,0.42165 -0.718209,0.71117 0,0 -2.557793,1.157225 -2.557793,1.157225 z"
       inkscape:connector-curvature="0"
       style="stroke-width:0.26458332" />
    <path
       id="path563"
       d="m 109.22761,13.904505 c 0.94167,0.51974 1.18418,1.681489 1.45128,2.637093 0.54904,2.195763 0.78682,4.449204 0.90152,6.704535 0.0655,1.886042 -0.14848,3.763888 -0.42325,5.62598 -0.10586,0.694286 -0.0564,0.368523 -0.1486,0.977273 0,0 -2.47699,1.208464 -2.47699,1.208464 v 0 c 0.12295,-0.620181 0.0588,-0.288716 0.1911,-0.994649 0.33293,-1.852935 0.57237,-3.728984 0.52763,-5.615974 -0.0965,-2.230068 -0.33328,-4.459352 -0.93104,-6.617223 -0.25742,-0.835793 -0.49002,-1.988645 -1.40598,-2.340514 0,0 2.31433,-1.584985 2.31433,-1.584985 z"
       inkscape:connector-curvature="0"
       style="stroke-width:0.26458332" />
    <path
       id="path565"
       d="m 107.67373,14.25436 c -0.70492,0.401992 -1.40379,0.814794 -2.11477,1.205976 -0.12003,0.06604 0.22811,-0.151801 0.34069,-0.229873 0.1907,-0.132254 0.58172,-0.422374 0.7773,-0.535445 2.82633,-1.63394 1.82125,-1.263935 3.36042,-1.770778 1.62077,-0.416612 3.28808,-0.140555 4.90117,0.166208 1.23156,0.281097 2.47244,0.621244 3.53837,1.327209 0.64944,0.430124 0.83992,0.674708 1.39015,1.222538 1.19437,1.411641 1.99749,3.103642 2.46468,4.887764 0.0965,0.368664 0.16045,0.745111 0.24067,1.117666 0.27228,1.741189 0.18494,3.55895 -0.49962,5.203016 -0.11729,0.281686 -0.27359,0.545497 -0.41038,0.818243 -0.16705,0.23908 -0.31709,0.490992 -0.50114,0.717235 -0.28717,0.35298 -0.81497,0.866886 -1.20946,1.106948 -1.99641,1.214876 -2.60675,1.689555 -4.46531,2.160484 -0.60436,0.149847 -1.21413,0.265059 -1.83528,0.311676 -0.23322,0.01749 -0.56415,0.0409 -0.80237,-0.0075 -0.10727,-0.0218 -0.20678,-0.07189 -0.31017,-0.107839 -0.475,-0.266711 -0.71205,-0.763667 -0.99742,-1.203767 -0.32481,-0.50093 -0.32926,-0.49267 -0.6929,-0.994103 -0.56667,-0.687898 -0.27398,-0.355574 -0.87734,-0.99763 0,0 2.31968,-1.410153 2.31968,-1.410153 v 0 c 0.61111,0.662229 0.31217,0.321665 0.8962,1.022231 0.41082,0.54587 0.35204,0.456587 0.72496,0.993156 0.26212,0.377143 0.48453,0.823447 0.92191,1.020792 0.92663,0.213098 1.89052,-0.07963 2.79563,-0.271629 0.23395,-0.06686 0.47179,-0.121338 0.70184,-0.200573 0.58536,-0.20161 2.63014,-1.184929 -0.87806,0.67899 -0.23637,0.125581 0.44692,-0.296514 0.65282,-0.467524 0.5937,-0.493104 0.65029,-0.640006 1.12089,-1.255025 0.14503,-0.26266 0.31036,-0.515099 0.4351,-0.787977 0.72646,-1.589106 0.84221,-3.378641 0.59232,-5.086756 -0.0752,-0.366246 -0.13285,-0.73651 -0.22545,-1.098738 -0.44621,-1.745483 -1.24646,-3.394247 -2.4357,-4.752936 -0.53564,-0.520018 -0.7242,-0.755561 -1.3531,-1.160406 -1.05208,-0.677265 -2.27356,-0.996513 -3.48126,-1.260932 -1.61294,-0.280387 -3.27912,-0.517531 -4.87447,-0.0091 -1.17076,0.463621 -0.82516,0.359159 1.35149,-0.909522 0.1388,-0.0809 -0.27298,0.16961 -0.40595,0.259765 -0.12296,0.08337 -0.24174,0.172763 -0.36154,0.260617 -1.24763,0.914935 0.60847,-0.300534 -2.97977,1.785592 0,0 2.18517,-1.747928 2.18517,-1.747928 z"
       inkscape:connector-curvature="0"
       style="stroke-width:0.26458332" />
    <path
       id="path573"
       d="m 137.38067,11.574929 c 0.32327,0.320079 0.72677,0.530333 1.15248,0.677953 0.5427,0.08976 0.76109,0.602286 0.97118,1.052376 0.57112,1.495084 0.69639,3.121341 0.85549,4.701432 0.23758,2.69916 0.16564,5.411687 0.14196,8.11752 -0.0225,1.930058 -0.0247,3.864144 -0.17705,5.789392 -0.14221,1.57117 -0.022,0.737235 -2.62293,1.871218 0,0 2.47379,-1.325242 2.47379,-1.325242 v 0 c -3.07355,1.756306 -2.54669,2.217959 -2.3004,0.669435 0.25973,-1.932974 0.29181,-3.889007 0.32769,-5.836491 0.0328,-2.687374 0.0922,-5.383095 -0.1849,-8.060944 -0.17463,-1.535608 -0.31931,-3.121217 -0.91513,-4.561585 -0.24059,-0.466801 -0.37948,-0.725685 -0.8972,-0.855738 -0.44322,-0.194198 -0.85857,-0.445891 -1.21741,-0.773242 0,0 2.39243,-1.466084 2.39243,-1.466084 z"
       inkscape:connector-curvature="0"
       style="stroke-width:0.26458332" />
    <path
       id="path575"
       d="m 138.13565,9.9793016 c 0.54005,0.3119584 1.04893,0.6709294 1.61558,0.9336344 0.79778,0.273074 1.62228,0.440039 2.42646,0.695894 1.3921,0.472663 2.73397,1.07219 3.9733,1.863593 0.68688,0.496874 1.38437,1.118592 1.47839,2.017419 0.0161,0.154204 -0.004,0.310068 -0.005,0.465102 -0.14156,1.132529 -0.76203,2.098527 -1.35268,3.045799 -0.5709,0.931796 -1.37253,1.646602 -2.27988,2.235904 -0.92217,0.531191 -1.83937,1.071105 -2.76651,1.593572 -0.12734,0.07176 -0.26529,0.122926 -0.39591,0.188529 -0.11125,0.05588 -0.43737,0.238044 -0.32953,0.175824 3.80555,-2.195633 2.53439,-1.547057 1.81514,-0.99243 -0.0582,0.04469 -0.0677,-0.06283 -0.0424,-0.07842 0.1057,-0.06515 0.81378,0.08017 0.94252,0.09674 0.95281,0.110607 1.64223,0.730869 2.32247,1.349315 0.99413,0.945877 1.84368,2.022398 2.69334,3.095244 0.51359,0.631209 1.00331,1.288169 1.6262,1.817365 0.17942,0.147682 0.21773,0.09179 0.31728,0.274103 0.0427,0.152199 -0.0249,0.24575 -0.0753,0.388175 0,0 -2.54752,1.179397 -2.54752,1.179397 v 0 c 0.0563,-0.126355 0.0376,-0.29463 0.14022,-0.20814 0.15851,0.233259 -0.17243,-0.152088 -0.21584,-0.161602 -0.58201,-0.58419 -1.06293,-1.254409 -1.57298,-1.900264 -0.8354,-1.065557 -1.68075,-2.127843 -2.68399,-3.04374 -0.67335,-0.578154 -1.34766,-1.121662 -2.27027,-1.185883 -0.35874,-0.04349 -1.02914,-0.0042 -1.21381,-0.388054 -0.0238,-0.04958 -0.01,-0.109613 -0.0144,-0.164419 0.66997,-0.783755 2.86138,-1.765878 2.93826,-1.80995 0.22859,-0.131023 0.93033,-0.49412 0.70445,-0.358491 -0.6386,0.383444 -1.28706,0.750215 -1.9306,1.125323 0.92144,-0.549916 1.75063,-1.216531 2.34222,-2.127852 0.57722,-0.908428 1.2005,-1.824275 1.38803,-2.90594 0.0114,-0.134555 0.0398,-0.268749 0.0342,-0.403667 -0.0348,-0.829271 -0.71604,-1.397102 -1.32865,-1.851322 -1.2217,-0.785028 -2.55168,-1.367388 -3.93955,-1.795303 -0.83216,-0.23521 -1.69551,-0.366871 -2.49569,-0.703029 -0.55974,-0.285877 -1.07362,-0.649903 -1.64245,-0.919313 0,0 2.34527,-1.5431044 2.34527,-1.5431044 z"
       inkscape:connector-curvature="0"
       style="stroke-width:0.26458332" />
    <path
       id="path577"
       d="m 152.24044,13.942086 c 0.19116,-0.619207 0.36826,-1.278136 0.84442,-1.740845 0.89056,-0.468032 1.75514,-0.989215 2.67167,-1.404095 0.0602,-0.02724 0.69561,0.137254 0.70968,0.140498 0.50219,0.115802 0.98742,0.192764 1.50089,0.239373 0.98249,0.07417 2.0039,-0.197744 2.97065,0.07647 0.18828,0.0534 0.36318,0.145941 0.54477,0.218911 0.98071,0.540729 1.67825,1.453283 2.04688,2.505929 0.0798,0.227905 0.12706,0.465938 0.19059,0.698908 0.33438,1.641816 -0.17757,3.060842 -0.80973,4.549563 -0.60324,1.267605 -1.34262,2.462381 -2.20249,3.570449 -0.24953,0.395186 -0.69908,0.658899 -0.93339,1.063026 0.26747,0.36771 0.81619,0.517182 1.21711,0.691425 0.73562,0.307798 1.44317,0.671199 2.10239,1.119553 0.84509,0.575 1.38542,1.434209 1.82589,2.335221 0.38776,0.894739 0.50994,1.514838 0.2563,2.461057 -0.17344,0.422679 -0.43973,0.749389 -0.84487,0.971155 -2.65816,1.455029 -2.15875,1.489927 -4.22113,1.684094 -1.58547,0.08083 -3.15247,0.345493 -4.59516,1.034513 -0.28325,0.135284 -0.55133,0.300286 -0.827,0.450427 0.51892,-0.292153 1.0243,-0.609799 1.55676,-0.876459 0.21799,-0.10917 -0.4072,0.268187 -0.61059,0.402614 -0.17427,0.115186 -0.3426,0.239816 -0.52236,0.34622 -0.92157,0.545484 -1.83764,1.101715 -2.7808,1.608953 -0.12805,0.06887 -0.27673,0.09728 -0.42126,0.113141 -0.13208,0.0145 -0.2653,-0.01548 -0.39796,-0.02323 -0.13339,-0.04428 -0.26679,-0.08856 -0.40019,-0.13284 0,0 2.27719,-1.566182 2.27719,-1.566182 v 0 c 0.11976,0.02265 0.23952,0.0453 0.35928,0.06795 0.11396,-0.0123 0.2308,-0.0086 0.34187,-0.03691 0.55791,-0.14211 3.18264,-1.669193 -1.51172,0.958236 -0.18765,0.105026 0.3619,-0.232426 0.54114,-0.351245 1.82474,-1.20964 -0.67768,0.33587 3.64636,-2.179058 0.77004,-0.389726 0.92938,-0.505124 1.76435,-0.782254 1.21258,-0.402463 2.48172,-0.532984 3.74729,-0.646554 0.24468,-0.03306 0.49106,-0.05532 0.73404,-0.09918 0.20596,-0.03718 0.77337,-0.275956 0.61121,-0.143648 -0.5664,0.462129 -1.24932,0.760021 -1.8597,1.162288 -0.1239,0.08166 0.27434,-0.117343 0.39819,-0.199086 0.29754,-0.196379 0.3243,-0.296582 0.51535,-0.58217 0.30124,-0.84995 0.20429,-1.460095 -0.14348,-2.286839 -0.41418,-0.864844 -0.93771,-1.673627 -1.7605,-2.202733 -0.65903,-0.424222 -1.36116,-0.77302 -2.08575,-1.071876 -0.5262,-0.225547 -1.15222,-0.426296 -1.42863,-0.968819 -0.005,-0.0594 -0.025,-0.119174 -0.0164,-0.178209 0.0392,-0.269799 0.78875,-0.829663 0.94515,-1.065779 0.89666,-1.083818 1.66342,-2.261614 2.28343,-3.526448 0.62258,-1.42614 1.16847,-2.791342 0.87045,-4.378716 -0.0577,-0.220995 -0.0989,-0.446973 -0.17316,-0.662985 -0.34049,-0.990916 -1.00731,-1.839371 -1.95109,-2.306368 -0.17165,-0.05731 -0.33865,-0.131122 -0.51495,-0.171932 -0.97023,-0.224581 -1.9797,0.04111 -2.95936,-0.06732 -0.52335,-0.05602 -1.02531,-0.151459 -1.54289,-0.240274 -1.19349,-0.2048 -1.85185,0.547318 1.48381,-1.336842 -0.0746,0.03214 -0.15847,0.04817 -0.22383,0.09641 -0.40431,0.298421 -0.54627,1.002945 -0.69251,1.452362 0,0 -2.52621,1.210158 -2.52621,1.210158 z"
       inkscape:connector-curvature="0"
       style="stroke-width:0.26458332" />
    <path
       id="path579"
       d="m 55.852721,66.122041 c 0.130069,-0.39892 0.183221,-0.833575 0.4617,-1.160952 1.509755,-0.833705 1.668132,-1.381392 2.760374,-1.436325 0.166066,-0.0084 0.287931,0.0065 0.452885,-0.03841 0.222001,-0.06042 0.285798,-0.127751 0.476126,-0.256715 -0.708883,0.397706 -1.39776,0.833388 -2.126647,1.193118 -0.109622,0.0541 0.177588,-0.169641 0.250973,-0.267409 0.08269,-0.110162 0.153064,-0.229886 0.214741,-0.353047 0.275246,-0.549616 0.379373,-1.137751 0.492982,-1.735384 0.204092,-2.004298 0.457939,-3.998904 0.799651,-5.984687 0.407085,-2.105146 0.730668,-4.224819 1.097364,-6.33695 0.156356,-0.605909 0.129606,-1.32006 0.49893,-1.853674 3.358261,-2.325947 1.525045,-1.347568 2.874286,-1.414185 0.21527,-0.01064 0.437075,-0.05393 0.652155,-0.07495 0.616336,-0.08709 1.149588,0.110572 1.677908,0.406382 1.052399,0.658143 1.664335,1.76607 2.281328,2.80444 1.192474,2.232015 2.187643,4.56233 3.177111,6.889319 0.753851,1.743792 1.491043,3.496529 2.134211,5.284674 -0.03353,-0.136216 0.406315,1.27641 0.411956,0.972801 -2.439648,1.304594 -2.657361,2.173396 -2.395849,1.216472 0,0 2.503162,-1.283615 2.503162,-1.283615 v 0 c 0.182665,1.114816 0.07463,0.135961 -2.454288,1.644655 -0.31047,-0.328073 -0.312828,-0.826537 -0.458198,-1.232442 -0.556263,-1.817587 -1.24964,-3.589732 -1.996985,-5.33658 -0.980093,-2.314652 -1.983168,-4.627761 -3.23515,-6.811314 -0.620697,-0.983943 -1.242531,-2.03952 -2.285725,-2.628009 -0.51652,-0.2462 -1.026882,-0.362579 -1.600695,-0.262871 -0.275119,0.03005 -0.57277,0.02783 -0.843367,0.08445 -0.04235,0.0089 -0.08189,0.02797 -0.12283,0.04195 0.764159,-0.447169 1.528318,-0.894342 2.292477,-1.341511 -0.04165,0.01244 -0.08817,0.0141 -0.124945,0.03727 -0.349194,0.219998 -0.442322,1.342432 -0.563578,1.679572 -0.437232,2.112005 -0.772358,4.244216 -1.166191,6.364505 -0.328956,1.971524 -0.575159,3.951705 -0.719127,5.945793 -0.09327,0.612534 -0.180371,1.21443 -0.410559,1.794163 -0.04323,0.108884 -0.279728,0.631357 -0.404003,0.714968 -0.846738,0.569677 -1.745085,1.058609 -2.617628,1.587913 -0.274955,0.118795 -0.502259,0.169436 -0.797465,0.207158 -0.06768,0.0087 -0.135774,0.01558 -0.202502,0.02981 -0.05573,0.01188 -0.212714,0.07785 -0.163967,0.04834 0.745143,-0.45102 1.505114,-0.877076 2.257671,-1.315612 -0.05005,0.0113 -0.104413,0.01064 -0.150164,0.03388 -0.27036,0.1373 -0.305427,0.689017 -0.394335,0.939588 0,0 -2.533793,1.203428 -2.533793,1.203428 z"
       inkscape:connector-curvature="0"
       style="stroke-width:0.26458332" />
    <path
       id="path581"
       d="m 62.347998,54.120406 c 0.891773,0.146201 1.779617,0.117494 2.663537,-0.05289 1.217406,-0.268605 2.336202,-0.831311 3.458305,-1.354694 0.829339,-0.357015 0.417364,-0.180628 1.23589,-0.52923 0,0 -2.130684,1.683414 -2.130684,1.683414 v 0 c -0.814126,0.348316 -0.404244,0.169924 -1.229519,0.535477 -1.135108,0.528413 -2.277285,1.075148 -3.517397,1.308741 -0.922793,0.139345 -1.846263,0.144862 -2.773334,0.02609 0,0 2.293202,-1.616898 2.293202,-1.616898 z"
       inkscape:connector-curvature="0"
       style="stroke-width:0.26458332" />
    <path
       id="path583"
       d="m 76.66847,48.151316 c 0.855528,-1.29419 1.28047,-1.192709 3.108185,-2.262706 0.05301,0.05703 0.118348,0.104709 0.15902,0.171106 0.191302,0.312304 0.21069,0.797359 0.244798,1.141693 0.05765,0.581991 0.06483,0.920597 0.09316,1.521767 0.101991,2.290104 0.01384,4.580972 -0.132339,6.866779 -0.07012,1.504275 -0.368121,2.968432 -0.796791,4.406112 -0.04803,0.144481 -0.09606,0.288962 -0.144084,0.433443 0,0 -2.493065,1.16568 -2.493065,1.16568 v 0 c 0.05326,-0.143034 0.106518,-0.28607 0.159776,-0.429104 0.4596,-1.433251 0.835936,-2.885353 0.920986,-4.397838 0.173426,-2.266365 0.268454,-4.541353 0.10084,-6.81183 -0.04277,-0.577183 -0.05807,-0.917372 -0.133246,-1.474991 -0.02559,-0.189802 -0.06521,-0.715259 -0.196401,-0.907228 -0.01214,-0.01778 0.004,0.04287 0.006,0.06431 4.147304,-2.468004 2.328648,-1.678749 1.67332,-0.611698 0,0 -2.570099,1.124505 -2.570099,1.124505 z"
       inkscape:connector-curvature="0"
       style="stroke-width:0.26458332" />
    <path
       id="path585"
       d="m 78.062912,45.273798 c 0.731472,0.209127 1.484632,0.171358 2.231551,0.096 0.786662,-0.16742 1.577782,-0.277466 2.382375,-0.271489 1.187452,0.01659 2.364115,0.22244 3.49764,0.568304 1.471401,0.539189 1.885863,1.341202 2.373562,2.760011 0.385863,1.407205 0.628544,2.875421 0.542517,4.339199 -0.01714,0.291674 -0.06197,0.581062 -0.09295,0.871593 -0.331814,1.931262 -1.311434,3.144197 -2.648876,4.493326 -1.79151,1.596538 -3.872164,2.915129 -6.114931,3.777062 -0.615963,0.208955 -1.284679,0.449463 -1.94931,0.40064 -0.309449,-0.02273 -0.442423,-0.09345 -0.724844,-0.197906 -0.70502,-0.43612 -1.013019,-1.184267 -1.213332,-1.954009 -0.0199,-0.09879 -0.03981,-0.197575 -0.05972,-0.296362 0,0 2.455949,-1.305536 2.455949,-1.305536 v 0 c 0.0141,0.09521 0.02821,0.190428 0.04231,0.285644 0.15222,0.68557 0.40681,1.373854 1.069353,1.712608 0.899247,0.258331 1.667428,-0.0093 2.519183,-0.327911 0.792411,-0.331677 2.987159,-1.426578 -0.499431,0.437449 -0.234841,0.125552 0.447242,-0.289529 0.664023,-0.444191 0.573751,-0.40935 0.795231,-0.611828 1.339029,-1.065466 1.288455,-1.245886 2.381205,-2.507073 2.720391,-4.32771 0.03682,-0.283705 0.08851,-0.565875 0.110466,-0.851115 0.110074,-1.430218 -0.138406,-2.868763 -0.524941,-4.240755 -0.472956,-1.34354 -0.858777,-2.044189 -2.258685,-2.528538 -1.128543,-0.322858 -2.294533,-0.508812 -3.471619,-0.485116 -0.80273,0.031 -1.587585,0.172053 -2.380223,0.293894 -0.777677,0.0549 -1.554128,0.0424 -2.315282,-0.14918 0,0 2.305794,-1.590445 2.305794,-1.590445 z"
       inkscape:connector-curvature="0"
       style="stroke-width:0.26458332" />
    <path
       id="path587"
       d="m 97.159179,44.553962 c 0.750607,0.306094 1.136724,0.853959 1.445017,1.574991 0.32086,1.161841 0.375557,2.385597 0.466865,3.583122 0.182742,2.148549 0.305924,4.30149 0.462955,6.45188 0.103483,1.476878 0.200504,2.956074 0.436443,4.418973 0.01471,0.06961 0.02942,0.139224 0.04413,0.208836 0,0 -2.470128,1.307293 -2.470128,1.307293 v 0 c -0.0081,-0.07638 -0.0163,-0.152763 -0.02442,-0.229142 -0.13344,-1.496627 -0.238189,-2.994946 -0.321313,-4.495221 -0.146635,-2.142501 -0.283125,-4.28598 -0.51163,-6.42185 -0.112892,-1.16073 -0.197874,-2.340647 -0.493107,-3.47145 -0.282699,-0.672714 -0.637807,-1.135107 -1.357537,-1.364006 0,0 2.322732,-1.563426 2.322732,-1.563426 z"
       inkscape:connector-curvature="0"
       style="stroke-width:0.26458332" />
    <path
       id="path589"
       d="m 93.093981,46.466783 c 0.758719,-1.425273 1.930365,-1.636538 3.486134,-2.495986 0.911632,-0.07618 1.800563,0.177162 2.688209,0.342757 1.323816,0.253973 2.672576,0.225554 4.013316,0.206123 1.07699,-0.02074 2.13011,0.201174 3.01865,0.838187 0.19788,0.141865 0.37197,0.314275 0.55796,0.471411 0.75254,0.793882 1.37585,1.708682 1.80196,2.71858 0.2589,0.613612 0.31194,0.884555 0.48676,1.518677 0.33464,1.557978 0.22101,2.891814 -0.13081,4.427283 -0.48986,1.801342 -1.45551,3.391707 -2.53278,4.894988 -0.65391,0.783299 -1.32178,1.647081 -2.21508,2.179651 -2.77781,1.656064 -1.85981,1.342453 -3.43551,1.798918 -1.026227,0.205067 -2.07716,0.160348 -3.117099,0.141483 -0.49701,-0.06145 -1.195473,0.128066 -1.613057,-0.243782 -0.05061,-0.04507 -0.08402,-0.106357 -0.126031,-0.159533 0,0 2.407978,-1.443294 2.407978,-1.443294 v 0 c 0.313881,0.354227 1.142786,0.16927 1.559915,0.234193 1.017754,0.02291 2.051834,0.05631 3.045584,-0.203023 1.09786,-0.402113 0.992,-0.400941 -1.24646,0.869749 -0.19528,0.110847 0.38193,-0.237487 0.56061,-0.37347 0.65366,-0.497453 1.2185,-1.106807 1.73306,-1.743035 1.08649,-1.461048 2.0499,-3.017676 2.55062,-4.785492 0.35562,-1.470348 0.48686,-2.808023 0.19,-4.308375 -0.16228,-0.624654 -0.20501,-0.87617 -0.45501,-1.479529 -0.40528,-0.978135 -1.01067,-1.859758 -1.75812,-2.607167 -0.18023,-0.142986 -0.34948,-0.301043 -0.54071,-0.428955 -0.87615,-0.586044 -1.90715,-0.737852 -2.94021,-0.717058 -1.353672,0.0096 -2.712561,0.007 -4.048604,-0.244507 -0.86515,-0.152323 -1.774378,-0.411435 -2.647455,-0.184483 0.715846,-0.422632 1.435365,-0.83911 2.147541,-1.267899 0.07411,-0.04462 -0.160094,0.06789 -0.232656,0.114982 -0.286507,0.185963 -0.495319,0.473808 -0.650912,0.771382 0,0 -2.557793,1.157224 -2.557793,1.157224 z"
       inkscape:connector-curvature="0"
       style="stroke-width:0.26458332" />
    <path
       id="path591"
       d="m 172.22154,29.537758 c -0.28519,0.131532 -0.77706,0.117353 -1.00175,0.339743 0.78136,-0.461756 1.5562,-0.934728 2.34408,-1.385274 0.0226,-0.01291 -0.0359,0.04157 -0.0394,0.06735 -0.008,0.05695 -8e-4,0.115316 0.007,0.172254 0.0509,0.372296 0.16499,0.744718 0.24666,1.1107 0.18485,0.925012 0.42434,1.864183 0.38147,2.815974 -0.008,0.167282 -0.0375,0.332798 -0.0563,0.4992 -0.20149,1.014163 -0.87815,1.524045 -1.6777,2.078426 0,0 -2.56782,1.006949 -2.56782,1.006949 v 0 c 0.74235,-0.491591 1.53385,-0.955228 1.78092,-1.87347 0.0275,-0.156038 0.0683,-0.310311 0.0824,-0.468117 0.0832,-0.929476 -0.16466,-1.856308 -0.36481,-2.753833 -0.53775,-2.182162 -0.88583,-1.192215 2.05775,-3.035239 0.34795,-0.07643 0.68677,-0.191278 1.02993,-0.285943 0,0 -2.22258,1.71128 -2.22258,1.71128 z"
       inkscape:connector-curvature="0"
       style="stroke-width:0.26458332" />
    <path
       id="path603"
       d="m 174.73684,12.259939 c 0.16777,-0.314544 0.28756,-0.650835 0.42448,-0.979066 0.85055,-0.397054 1.67205,-0.863473 2.55167,-1.191161 0.0719,-0.0268 0.0296,0.151108 0.0345,0.22773 0.008,0.122591 0.004,0.245657 0.003,0.368491 -0.004,0.749209 -0.026,1.498831 -0.0399,2.247867 -0.0354,3.017164 0.0318,6.033985 0.0197,9.05146 -0.0329,2.195329 -0.10833,4.389674 -0.14549,6.584911 0.0532,0.272516 -0.14892,1.191525 0.11456,1.395881 0.0722,0.01339 0.10203,-0.04474 0.0984,-0.10767 0,0 -2.21911,1.759847 -2.21911,1.759847 v 0 c -0.10735,-0.05288 -0.21527,-0.10279 -0.29387,-0.197861 -0.33508,-0.461541 -0.11518,-1.102661 -0.12584,-1.625774 0.1302,-2.218111 0.25968,-4.436927 0.30983,-6.658598 0.0206,-2.999439 -0.0562,-5.995425 -0.13031,-8.993665 -0.0132,-0.729991 -0.0207,-1.460781 -0.053,-2.190296 -0.005,-0.111612 -0.0133,-0.223047 -0.0196,-0.334589 -0.003,-0.04632 -0.047,-0.115189 -0.007,-0.138985 0.80713,-0.482313 1.65479,-0.893312 2.48218,-1.339968 -0.22969,0.270087 -0.28726,0.654225 -0.44624,0.964221 0,0 -2.55779,1.157225 -2.55779,1.157225 z"
       inkscape:connector-curvature="0"
       style="stroke-width:0.26458332" />
    <path
       id="path605"
       d="m 177.83966,9.5954777 c 0.77411,0.3187102 1.59172,0.4979113 2.40625,0.6777883 1.09566,0.231422 2.20074,0.538792 3.14144,1.169839 0.21384,0.143449 0.40903,0.312921 0.61354,0.469382 1.22038,1.099851 1.728,2.353662 2.02325,3.931775 0.10704,0.905581 0.0336,1.871905 -0.65945,2.543347 -0.14039,0.136 -0.30755,0.241312 -0.46132,0.361968 -0.97271,0.548021 -1.92907,1.126106 -2.91811,1.644062 -0.21737,0.113834 -0.4616,0.166618 -0.69334,0.247243 -1.02426,0.356345 -2.0622,0.63499 -3.11051,0.909607 -0.67927,0.197425 -1.37974,0.346522 -2.02401,0.64828 -0.0708,0.03317 -0.1368,0.07581 -0.2052,0.113707 0.76442,-0.437262 1.52885,-0.874525 2.29328,-1.311787 -0.0132,-0.01293 -0.0411,-0.0204 -0.0395,-0.03877 10e-4,-0.01465 0.0277,0.0097 0.0416,0.0146 0.0444,0.01562 0.0897,0.029 0.13317,0.0469 0.22415,0.09217 0.43323,0.210677 0.64247,0.331858 0.6717,0.357162 1.13157,0.958812 1.54046,1.581346 0.77374,1.170293 1.34058,2.450641 1.81992,3.764023 0.44416,1.418855 0.87595,2.840469 1.55083,4.169436 0.19925,0.286936 0.72573,1.284105 1.19265,1.152139 0.78286,-0.612314 0.10912,-0.07928 -2.28515,1.261057 -0.0209,0.01172 0.0444,-0.01929 0.0636,-0.03376 0.04,-0.03026 0.0624,-0.07855 0.0827,-0.122586 0.0272,-0.129337 0.0544,-0.251384 0.0962,-0.379818 0.0486,-0.206226 0.0321,-0.100142 0.0478,-0.318508 0,0 2.49546,-1.272265 2.49546,-1.272265 v 0 c 0.0164,0.264033 0.0202,0.138174 -0.005,0.377714 -0.0297,0.148479 -0.0945,0.230476 -0.0855,0.371372 -0.13645,1.110515 -1.61142,1.936107 -2.7032,1.742893 -0.61616,-0.237829 -0.94281,-0.900134 -1.26446,-1.432415 -0.65481,-1.350454 -1.09167,-2.780649 -1.53699,-4.210687 -0.47902,-1.290421 -1.0449,-2.545072 -1.83813,-3.677458 -0.40711,-0.580531 -0.85546,-1.132504 -1.50679,-1.450229 -0.39321,-0.209796 -0.92197,-0.317164 -1.03869,-0.803379 0.82935,-0.50123 1.6533,-1.011497 2.48804,-1.503691 0.0679,-0.04005 0.50196,-0.189625 0.52021,-0.195638 0.54725,-0.180251 1.10835,-0.311019 1.6636,-0.463306 1.04658,-0.271589 2.08511,-0.553597 3.09777,-0.936672 0.23132,-0.08751 0.88704,-0.424618 0.68796,-0.277873 -0.54677,0.403037 -1.16204,0.703739 -1.74306,1.055608 0.15741,-0.100936 0.32533,-0.187116 0.47224,-0.30281 0.72986,-0.574784 0.87416,-1.454356 0.79262,-2.332381 -0.24608,-1.553457 -0.70959,-2.690944 -1.90704,-3.76256 -0.1993,-0.14596 -0.38949,-0.305264 -0.59791,-0.437879 -0.9421,-0.599437 -2.04359,-0.863509 -3.1239,-1.083448 -0.84346,-0.179751 -1.68407,-0.377432 -2.49244,-0.683218 0,0 2.33307,-1.5548003 2.33307,-1.5548003 z"
       inkscape:connector-curvature="0"
       style="stroke-width:0.26458332" />
    <path
       id="path607"
       d="m 191.90039,13.701542 c -0.29019,1.370535 -0.64094,2.726387 -0.98653,4.083682 -0.20006,0.799982 -0.44246,1.596536 -0.91627,2.278923 -0.48939,0.60252 -0.36731,1.130165 -0.0975,1.80452 0.54762,0.985349 1.5445,1.36507 2.57483,1.649668 1.66441,0.453563 3.38123,0.456593 5.08868,0.358029 1.72483,-0.103633 3.41128,-0.461728 5.03057,-1.056548 0.97749,-0.365967 2.77684,-1.484348 -1.36906,0.877671 -0.0293,0.01671 0.0548,-0.04978 0.0886,-0.04909 0.0577,0.0012 0.0408,0.114313 0.0407,0.130346 -0.27592,0.04781 -0.47594,-0.03574 -0.68989,-0.202699 0,0 2.37433,-1.512612 2.37433,-1.512612 v 0 c 0.20892,0.124269 0.46449,0.05136 0.67783,0.175205 0.0863,0.09529 0.32805,0.325093 0.11451,0.45381 -1.19446,0.719998 -2.14296,1.367491 -3.38156,1.798558 -1.62769,0.540561 -3.31121,0.863114 -5.02606,0.957817 -1.74191,0.08659 -3.49373,0.07078 -5.18929,-0.395856 -1.14693,-0.337415 -2.11674,-0.753913 -2.73681,-1.838454 -0.28584,-0.665784 -0.52712,-1.401777 -0.0637,-2.049072 0.54113,-0.635831 0.8289,-1.415238 1.04197,-2.215696 0.35916,-1.329902 0.72394,-2.661999 0.91147,-4.029515 0,0 2.51324,-1.218683 2.51324,-1.218683 z"
       inkscape:connector-curvature="0"
       style="stroke-width:0.26458332" />
    <path
       id="path609"
       d="m 198.29771,14.416917 c -0.36386,0.339782 -0.60441,0.764069 -0.75958,1.231958 -0.13439,0.631348 -0.17693,1.280987 -0.25571,1.921734 -0.20507,1.824565 -0.41373,3.648441 -0.58836,5.476255 -0.15084,1.969662 -0.2867,3.940998 -0.37684,5.914493 -0.061,1.487708 -0.0762,2.976883 -0.0682,4.465678 0.007,0.653065 0.003,0.340521 0.012,0.937638 0,0 -2.45658,1.251402 -2.45658,1.251402 v 0 c 0.01,-0.607158 0.005,-0.289486 0.0156,-0.953013 0.0234,-1.500177 0.0384,-3.000825 0.10958,-4.499747 0.10228,-1.982042 0.25414,-3.961015 0.40133,-5.940077 0.16657,-1.811659 0.35793,-3.621247 0.49697,-5.435263 0.0608,-0.647657 0.0863,-1.300601 0.18585,-1.942981 0.13158,-0.499924 0.34647,-0.962952 0.69161,-1.354302 0,0 2.59233,-1.073775 2.59233,-1.073775 z"
       inkscape:connector-curvature="0"
       style="stroke-width:0.26458332" />
    <path
       id="path619"
       d="m 128.85461,42.063111 c 0.48823,1.194803 0.63719,2.48271 0.76987,3.755477 0.20029,3.004947 0.28941,6.015813 0.4408,9.023443 0.11399,2.434788 0.29318,4.871508 0.25084,7.310448 -0.0148,0.351345 -0.0285,0.703474 -0.0697,1.052981 -0.005,0.04143 0.0203,0.105664 -0.0172,0.123981 -2.61252,1.276599 -2.10179,1.952442 -2.71995,0.967314 -0.17169,-0.36522 -0.3585,-0.727165 -0.50119,-1.105495 -0.0574,-0.169855 -0.0322,-0.08401 -0.0758,-0.257533 0,0 2.47747,-1.331401 2.47747,-1.331401 v 0 c 0.0284,0.150878 0.0107,0.07432 0.054,0.229457 0.12197,0.362675 0.29488,0.7084 0.46011,1.052192 0.63588,0.917369 0.14331,0.09626 -2.28412,1.559875 -0.0256,0.01543 0.0712,0.0093 0.0883,-0.01524 0.0442,-0.06348 0.10975,-0.516308 0.11212,-0.533932 0.0234,-0.17408 0.0389,-0.349133 0.0584,-0.523698 0.17119,-2.454391 0.0447,-4.918008 -0.0759,-7.371794 -0.15588,-2.98383 -0.27962,-5.970852 -0.55238,-8.94702 -0.15348,-1.22233 -0.30634,-2.480141 -0.85539,-3.59995 0,0 2.43965,-1.389097 2.43965,-1.389097 z"
       inkscape:connector-curvature="0"
       style="stroke-width:0.26458332" />
    <path
       id="path621"
       d="m 125.81569,43.206889 c 0.20867,-0.373713 0.37226,-0.770826 0.57632,-1.146699 3.25239,-1.876962 1.58649,-1.39469 3.42189,-1.248576 0.85739,0.106164 1.70226,0.296264 2.48534,0.67198 0.23187,0.111247 0.45245,0.244631 0.67867,0.366946 1.09999,0.727567 2.18257,1.561261 2.96351,2.640811 0.12333,0.170487 0.2239,0.356333 0.33586,0.534498 0.54842,1.108993 0.44103,1.854319 -0.15115,2.900834 -0.55584,0.82936 -1.34035,1.451252 -2.14071,2.02952 -0.6057,0.401522 -1.21596,0.795698 -1.81185,1.2118 -0.11546,0.191291 -0.2421,0.0016 -0.17431,0.0024 0.10151,0.0011 0.17973,0.09461 0.26709,0.146307 0.67006,0.366027 1.21751,0.898199 1.7124,1.470718 0.97973,1.306251 1.99388,2.584215 3.03197,3.844541 1.05836,1.32184 2.17291,2.596531 3.33207,3.830487 0.22173,0.200903 0.97336,0.974868 1.30246,0.987354 -0.18386,-0.999808 0.0297,0.04458 -2.42253,1.429176 -0.014,0.0079 -0.34159,-0.346734 -0.39277,-0.403495 -0.093,-0.143423 -0.0514,-0.07345 -0.12612,-0.209037 0,0 2.44514,-1.399289 2.44514,-1.399289 v 0 c 0.0516,0.103585 0.0223,0.05213 0.0886,0.153879 0.0881,0.10259 0.17717,0.201287 0.2761,0.293714 0.0382,0.03566 0.15663,0.07191 0.11627,0.105072 -2.16778,1.781336 -1.56581,2.27475 -2.32948,1.599599 -0.47239,-0.329673 -0.90712,-0.709493 -1.28536,-1.14563 -1.1193,-1.27023 -2.21398,-2.561725 -3.28317,-3.874492 -1.04581,-1.253876 -2.07965,-2.516865 -3.09719,-3.793598 -0.49977,-0.540751 -1.04746,-1.035185 -1.71652,-1.359379 -0.25681,-0.135044 -0.69373,-0.348507 -0.34865,-0.653997 0.61323,-0.421722 1.23205,-0.835176 1.86339,-1.229442 0.7999,-0.551834 1.58493,-1.146374 2.17932,-1.925336 0.5996,-0.89507 0.79178,-1.627812 0.31005,-2.642984 -0.10285,-0.170408 -0.19471,-0.347956 -0.30855,-0.511223 -0.74284,-1.065294 -1.79659,-1.880182 -2.89106,-2.553681 -0.22509,-0.111755 -0.44485,-0.234977 -0.67528,-0.335267 -0.79162,-0.344527 -1.64445,-0.493588 -2.49969,-0.564785 -0.26346,-0.02273 -0.26549,-0.01831 -0.50576,-0.05435 -0.0259,-0.0039 -0.24787,-0.04551 -0.29637,-0.04326 -0.0296,0.0013 -0.1111,0.03891 -0.0857,0.02371 0.77432,-0.463373 1.55668,-0.913178 2.33502,-1.369764 -0.28929,0.126201 -0.4553,0.804328 -0.62985,1.067588 0,0 -2.54946,1.153457 -2.54946,1.153457 z"
       inkscape:connector-curvature="0"
       style="stroke-width:0.26458332" />
    <path
       id="path623"
       d="m 142.16529,47.670754 c -0.0744,-0.396767 -0.17317,-0.786924 -0.0273,-1.175009 0.68545,-0.843466 2.09871,-1.297099 2.85695,-1.696805 0.0845,-0.04453 0.18194,-0.06026 0.27601,-0.07665 0.18507,-0.03223 0.63904,-0.05118 0.81164,-0.06073 1.36197,-0.0199 2.61673,0.519671 3.83044,1.075203 1.21554,0.629569 2.4899,1.211792 3.51544,2.134942 0.0848,0.117827 0.18972,0.223562 0.25456,0.353486 0.37322,0.747826 -0.11174,1.516102 -0.46995,2.155383 -0.31934,0.65686 -0.88597,1.253916 -1.00252,1.998668 -0.0146,0.09317 -0.004,0.188571 -0.005,0.282858 0.0263,0.08154 0.0376,0.169529 0.0788,0.24461 0.28972,0.527373 1.09059,0.882988 1.58591,1.169633 0.57471,0.331946 1.17992,0.614547 1.70829,1.021408 0.28116,0.2165 0.44651,0.387445 0.70223,0.631769 0.54848,0.548016 0.97689,1.188792 1.26082,1.908482 0.0938,0.323107 0.108,0.755552 -0.22806,0.9627 -2.37387,1.463275 -1.78433,1.212323 -3.09769,1.71636 -0.51062,0.205528 -1.01559,0.428884 -1.50154,0.688165 -0.17895,0.09549 -0.70624,0.39941 -0.52908,0.300614 1.91786,-1.069541 2.37801,-1.396767 1.27471,-0.658989 -1.50097,1.149207 -3.0188,2.317789 -4.82039,2.975792 -1.00309,0.228807 -1.9378,-0.137258 -2.84673,-0.524952 -0.64007,-0.189957 -1.42178,-0.85962 -2.07116,-0.94158 -0.0721,-0.0091 -0.14443,0.01561 -0.21665,0.02339 0,0 2.26851,-1.62891 2.26851,-1.62891 v 0 c 0.82918,0.165066 1.5034,0.747596 2.29379,1.027597 0.88292,0.356327 1.79828,0.661291 2.74222,0.337219 1.03028,-0.456004 0.67341,-0.314867 -1.603,0.996781 -0.13713,0.07901 0.2707,-0.164436 0.40056,-0.254905 0.45548,-0.31732 0.86998,-0.69069 1.31861,-1.01713 1.71861,-1.1718 3.52767,-2.235695 5.4529,-3.030122 1.12745,-0.517258 0.52345,-0.257405 -1.64815,1.034637 -0.12635,0.07517 0.27485,-0.139292 0.35385,-0.263279 0.0935,-0.146806 0.0476,-0.226547 0.0243,-0.391721 -0.24444,-0.691226 -0.64733,-1.300019 -1.16956,-1.816269 -0.2452,-0.229894 -0.40854,-0.39551 -0.67731,-0.598054 -0.52584,-0.396274 -1.12769,-0.670999 -1.69272,-1.003646 -0.59866,-0.340516 -1.36789,-0.685938 -1.7189,-1.32111 -0.0553,-0.09998 -0.0777,-0.214847 -0.11657,-0.32227 -0.006,-0.117118 -0.0291,-0.234495 -0.019,-0.351348 0.0674,-0.781521 0.65422,-1.409555 0.99449,-2.079141 0.29102,-0.505746 0.87462,-1.243195 0.59519,-1.870816 -0.0508,-0.114062 -0.14049,-0.206441 -0.21074,-0.30966 -0.98608,-0.916178 -2.23089,-1.490975 -3.42171,-2.091883 -1.20764,-0.528884 -2.45896,-1.024038 -3.8046,-0.925949 -0.34691,0.03806 -0.47014,0.03597 -0.79559,0.126695 -0.0936,0.02609 -0.35734,0.149074 -0.27462,0.09804 3.57747,-2.20722 2.80912,-1.532371 1.91206,-1.160314 -0.28283,0.253886 -0.13355,0.633839 -0.0803,0.964285 0,0 -2.46292,1.342522 -2.46292,1.342522 z"
       inkscape:connector-curvature="0"
       style="stroke-width:0.26458332" />
    <path
       id="path625"
       d="m 159.66442,61.427835 c 0.31502,1.463966 0.14745,2.979976 -0.007,4.453475 -0.18675,1.292077 -0.33947,2.678311 -1.05366,3.80928 -0.10036,0.158922 -0.22645,0.300056 -0.33968,0.450083 -0.11184,0.105508 -0.22368,0.211016 -0.33552,0.316526 0,0 -2.55104,1.030682 -2.55104,1.030682 v 0 c 0.12378,-0.09219 0.24756,-0.184388 0.37134,-0.276579 0.12371,-0.138163 0.26088,-0.265359 0.37113,-0.414486 0.78897,-1.067208 0.95637,-2.458609 1.14785,-3.729744 0.15317,-1.415391 0.332,-2.897013 -0.0524,-4.290377 0,0 2.44916,-1.34886 2.44916,-1.34886 z"
       inkscape:connector-curvature="0"
       style="stroke-width:0.26458332" />
    <path
       id="path627"
       d="m 171.8141,42.788842 c -0.52461,0.486857 -0.85181,1.106456 -1.06617,1.779778 -0.22531,0.718638 0.0172,1.40915 0.21372,2.103202 0.4793,1.815476 1.00894,3.616605 1.55297,5.413536 0.41143,1.433063 0.9618,2.852127 1.08946,4.347848 0.03,0.707178 -0.41082,1.238877 -0.70456,1.841968 -0.27575,0.716868 -0.14733,0.33814 -0.37715,1.138899 0,0 -2.45175,1.170707 -2.45175,1.170707 v 0 c 0.19599,-0.815715 0.0855,-0.429188 0.32375,-1.16178 0.12873,-0.32318 0.15195,-0.42432 0.3202,-0.705903 0.19818,-0.331684 0.44027,-0.605822 0.4397,-1.021035 -0.0118,-1.492348 -0.56777,-2.921368 -0.95271,-4.34526 -0.54051,-1.789737 -1.09551,-3.575097 -1.64237,-5.362913 -0.24179,-0.724469 -0.52484,-1.461866 -0.3168,-2.230996 0.18703,-0.699884 0.49067,-1.356514 0.98473,-1.896486 0,0 2.58698,-1.071565 2.58698,-1.071565 z"
       inkscape:connector-curvature="0"
       style="stroke-width:0.26458332" />
    <path
       id="path629"
       d="m 168.31284,45.052236 c 0.79175,-0.403185 1.67045,-0.585541 2.52761,-0.794665 0.87691,-0.245274 1.73443,-0.618877 2.64604,-0.727618 0.17226,-0.02056 0.34665,-0.01495 0.51997,-0.02241 1.16412,0.104132 1.94326,0.653751 2.7165,1.487146 0.46172,0.55349 0.96245,1.196158 0.99942,1.951027 0.006,0.119856 -0.0163,0.239443 -0.0245,0.359164 -0.128,0.512374 -0.46439,0.897308 -0.91853,1.160214 -2.579,1.493001 -1.88414,1.164664 -3.2926,1.793221 -0.17677,0.08334 -0.35303,0.167807 -0.53033,0.250029 -0.49103,0.227714 -0.62427,0.271933 -1.10035,0.530251 -0.17542,0.09518 -0.693,0.396248 -0.51816,0.300009 1.94811,-1.072282 2.42994,-1.500648 1.47519,-0.725096 -0.1218,0.101187 -0.83265,0.858284 -0.59226,1.064842 0.0313,0.02693 0.0763,0.03163 0.11453,0.04745 0.508,0.03418 1.01334,-0.05231 1.52044,-0.02228 0.74486,0.106796 1.21522,0.716296 1.66209,1.264417 0.98638,1.288658 1.73529,2.740594 2.48436,4.174593 0.72926,1.414537 1.40148,2.856958 2.15157,4.260787 0.11674,0.279169 0.29845,0.514511 0.46405,0.759515 -3.2297,1.850342 -2.27681,2.180783 -2.50676,1.177634 -0.0238,-0.227714 -0.0178,-0.455853 -0.0525,-0.685263 -0.0421,-0.263594 -0.0219,-0.130799 -0.0607,-0.398394 0,0 2.4753,-1.30539 2.4753,-1.30539 v 0 c 0.0361,0.261617 0.0163,0.131331 0.0593,0.390861 0.0376,0.203959 0.10198,0.446156 0.0653,0.64126 0.29639,1.027263 -1.12368,0.989258 -2.43088,1.59444 -0.14388,-0.264853 -0.29482,-0.528855 -0.40346,-0.814279 -0.66693,-1.444316 -1.32385,-2.894634 -2.05986,-4.305459 -0.75428,-1.410311 -1.52654,-2.831306 -2.54333,-4.073268 -0.42697,-0.491244 -0.86332,-1.027586 -1.56426,-1.0491 -0.5412,0.0033 -1.11104,0.111435 -1.62358,-0.106179 -0.0639,-0.0563 -0.13994,-0.101196 -0.19155,-0.168892 -0.36207,-0.47494 0.19484,-1.088625 0.49056,-1.416926 1.17975,-1.069562 0.3059,-0.323614 3.18718,-2.018942 0.69633,-0.409721 1.44383,-0.718995 2.17069,-1.068131 1.1862,-0.554231 0.60507,-0.302948 -1.42031,0.909896 -0.11825,0.07081 0.24255,-0.131704 0.35747,-0.207793 0.28357,-0.187759 0.50701,-0.41085 0.64282,-0.726366 0.0203,-0.09915 0.0562,-0.196355 0.061,-0.297455 0.0337,-0.70036 -0.47763,-1.309941 -0.88702,-1.816378 -0.72699,-0.760777 -1.49716,-1.269719 -2.58457,-1.283485 -1.08269,0.10618 -2.09851,0.479636 -3.13639,0.787172 -0.86726,0.218268 -1.75195,0.428974 -2.52772,0.892146 0,0 2.17823,-1.762297 2.17823,-1.762297 z"
       inkscape:connector-curvature="0"
       style="stroke-width:0.26458332" />
    <path
       id="path631"
       d="m 188.50888,46.903256 c -0.19143,0.553244 -0.42067,1.093311 -0.68365,1.616236 -0.32152,0.492302 -0.68976,0.949053 -1.00618,1.446181 -0.47857,0.870717 -0.84817,1.800987 -1.1301,2.752833 -0.0229,0.221618 -0.24403,0.676971 -0.0466,0.891699 0.0728,0.07921 0.24628,0.111432 0.32968,0.136623 1.06147,0.314449 2.16504,0.451493 3.26267,0.568928 1.62209,0.159766 3.20886,-0.141888 4.75892,-0.590793 0.93976,-0.332026 1.85632,-0.722395 2.73708,-1.188736 -0.16901,0.106418 0.3403,-0.196432 0.25516,-0.147442 -3.24672,1.868136 -3.06429,1.656308 0.27038,0.262134 -0.002,0.06693 0.003,0.126878 0.0267,0.188946 0,0 -2.59562,1.137989 -2.59562,1.137989 v 0 c 0.047,0.08178 0.043,-5.29e-4 0.0548,-0.05091 3.73391,-1.806496 3.10352,-1.52355 0.0541,0.230177 -0.0788,0.0453 -0.1646,0.07762 -0.24313,0.123216 -0.87291,0.423638 -1.77145,0.793253 -2.69662,1.08767 -1.57653,0.420021 -3.18626,0.685385 -4.82313,0.5114 -1.13455,-0.122282 -2.28287,-0.246028 -3.37771,-0.581684 -0.0901,-0.04355 -0.18752,-0.07452 -0.27041,-0.130664 -0.43377,-0.293812 -0.29859,-0.844455 -0.18826,-1.267934 0.28633,-0.96661 0.66393,-1.905156 1.09694,-2.815203 0.28854,-0.503722 0.61088,-0.981274 0.9846,-1.425718 0.29706,-0.483486 0.50548,-1.018617 0.69659,-1.551522 0,0 2.53379,-1.203428 2.53379,-1.203428 z"
       inkscape:connector-curvature="0"
       style="stroke-width:0.26458332" />
    <path
       id="path633"
       d="m 193.31818,48.347193 c 0.46112,1.237946 0.41636,2.570313 0.36538,3.868052 -0.16713,2.236888 -0.44888,4.463354 -0.69583,6.692381 -0.1525,1.645201 -0.31599,3.297865 -0.28477,4.952114 0.0346,0.377343 0.0326,0.771398 0.14589,1.137409 -0.35263,-0.789482 -1.83555,2.325471 -2.5715,1.365621 -0.0465,-0.06561 -0.0742,-0.140285 -0.0983,-0.216117 -0.091,-0.189206 0.20054,0.156186 0.0652,0.171556 0,0 2.29095,-1.660256 2.29095,-1.660256 v 0 c 0.11641,0.01304 0.26574,0.344946 0.16575,0.197544 -0.009,0.01117 -0.0248,0.01791 -0.004,0.04678 0.71649,-0.413993 -1.9693,2.519633 -2.32964,1.44562 -0.10415,-0.40364 -0.077,-0.832054 -0.10283,-1.243711 0.0104,-1.681485 0.21747,-3.35752 0.36965,-5.030076 0.25032,-2.215229 0.52604,-4.429373 0.66764,-6.655006 0.0324,-1.234175 0.0847,-2.529319 -0.41506,-3.687342 0,0 2.4317,-1.384572 2.4317,-1.384572 z"
       inkscape:connector-curvature="0"
       style="stroke-width:0.26458332" />
    <path
       id="path635"
       d="m 64.178804,75.192974 c 0.155593,-0.332272 0.398922,-0.581695 0.03787,-0.844847 -0.769141,-0.393612 -1.602822,-0.646747 -2.428224,-0.892849 -1.12327,-0.291838 -2.302436,-0.649732 -3.478898,-0.521587 -0.216937,0.02363 -0.427744,0.08669 -0.641617,0.13004 -0.19486,0.07145 -0.396348,0.126932 -0.584584,0.214363 -0.183681,0.08532 -0.706702,0.395804 -0.52719,0.302033 0.623054,-0.32547 1.206804,-0.732843 1.858113,-0.997273 0.172024,-0.06984 -0.274238,0.252994 -0.387408,0.400174 -0.293063,0.38114 -0.30008,0.532024 -0.445741,0.979572 -0.01021,0.185836 -0.04313,0.371806 -0.03067,0.557504 0.09256,1.37926 1.166818,2.434791 2.057347,3.374329 1.548368,1.532853 3.262217,2.906739 4.678555,4.570352 0.286086,0.336031 0.546508,0.693092 0.819762,1.039637 0.860811,1.23149 1.585094,2.588763 1.710912,4.113581 0.06816,0.826071 -0.02619,1.059542 -0.169164,1.860155 -0.426794,1.590231 -1.426155,2.860538 -2.585601,3.985856 -1.11683,0.991319 -2.449777,1.6246 -3.763193,2.348354 -0.428754,0.236265 -0.879488,0.300231 -1.356823,0.334862 -0.752972,-0.01823 -1.434634,-0.289317 -2.009449,-0.765979 -0.250357,-0.249198 -0.133226,-0.126805 -0.35278,-0.365853 0,0 2.389913,-1.447951 2.389913,-1.447951 v 0 c 0.198022,0.22307 0.09137,0.110985 0.321786,0.334494 0.536853,0.425469 1.173549,0.638453 1.8634,0.59907 0.394334,-0.06201 0.446756,-0.04891 0.829487,-0.199705 0.152334,-0.06002 0.584369,-0.293534 0.445656,-0.206549 -0.610515,0.382852 -1.240054,0.734533 -1.863617,1.095745 -0.167602,0.09709 0.337339,-0.191693 0.495637,-0.30331 0.171815,-0.121151 0.328522,-0.262419 0.492781,-0.393629 1.178435,-1.074425 2.209188,-2.298033 2.689915,-3.849161 0.162428,-0.756502 0.265475,-0.997281 0.224661,-1.784622 -0.0772,-1.489173 -0.769221,-2.818318 -1.594057,-4.024871 -0.267867,-0.342188 -0.522652,-0.695034 -0.8036,-1.026568 -1.415084,-1.669888 -3.14443,-3.029344 -4.72091,-4.536641 -1.134753,-1.157486 -2.332493,-2.397326 -2.238973,-4.136802 0.118176,-0.468567 0.130479,-0.677715 0.396769,-1.09242 0.6697,-1.042956 2.466758,-1.751235 3.171505,-2.168443 0.175818,-0.104084 0.361897,-0.19196 0.552725,-0.264969 0.19618,-0.07506 0.403029,-0.118529 0.604544,-0.177793 0.220768,-0.02996 0.439875,-0.07721 0.66231,-0.08988 1.200735,-0.06841 2.386597,0.285401 3.535862,0.57693 0.869691,0.250142 1.766396,0.494445 2.555195,0.947946 0.418021,0.389766 0.393748,0.675974 0.145582,1.16948 0,0 -2.55779,1.157224 -2.55779,1.157224 z"
       inkscape:connector-curvature="0"
       style="stroke-width:0.26458332" />
    <path
       id="path637"
       d="m 75.737981,72.536089 c 0.299937,0.980157 0.447146,1.99313 0.573762,3.007362 0.262472,2.545681 0.50468,5.09329 0.784154,7.637219 0.264234,2.469547 0.526134,4.938874 0.73102,7.414147 0.06016,0.77003 0.130654,1.548513 -0.0024,2.31404 0,0 -2.516793,1.208852 -2.516793,1.208852 v 0 c 0.229087,-0.740883 0.17303,-1.5275 0.143581,-2.29289 -0.119575,-2.49261 -0.353814,-4.976309 -0.622495,-7.45699 -0.287793,-2.524254 -0.566214,-5.049935 -0.902245,-7.568348 -0.144312,-0.986856 -0.301546,-1.982224 -0.651492,-2.92087 0,0 2.462919,-1.342522 2.462919,-1.342522 z"
       inkscape:connector-curvature="0"
       style="stroke-width:0.26458332" />
    <path
       id="path639"
       d="m 67.975016,74.609649 c 0.243311,-0.333845 0.575546,-0.574749 0.931791,-0.777348 2.033847,-1.15665 2.406767,-1.48299 4.139197,-2.054148 1.721485,-0.469435 3.503539,-0.618117 5.27997,-0.675257 1.59681,-0.03341 3.203059,-0.0011 4.772832,0.312857 0,0 -2.2391,1.559973 -2.2391,1.559973 v 0 c -1.539595,-0.31029 -3.115882,-0.34003 -4.682197,-0.299802 -1.775375,0.07327 -3.55954,0.240588 -5.266425,0.764217 -0.225351,0.08089 -0.453054,0.155493 -0.67605,0.242663 -0.200895,0.07853 -0.773398,0.375573 -0.595074,0.254216 0.586988,-0.399467 1.221795,-0.723773 1.828067,-1.093316 0.102774,-0.06265 -0.403183,0.189995 -0.731888,0.455808 -0.06904,0.05583 -0.127349,0.123754 -0.191021,0.185632 0,0 -2.570102,1.124505 -2.570102,1.124505 z"
       inkscape:connector-curvature="0"
       style="stroke-width:0.26458332" />
    <path
       id="path641"
       d="m 87.90175,78.158326 c -0.260363,-0.297638 -0.635185,-0.255958 -0.981049,-0.126495 -0.133625,0.05002 -0.508439,0.258776 -0.384484,0.188119 0.633568,-0.361156 1.275948,-0.706633 1.913921,-1.059947 -1.049443,0.832199 -1.636336,2.07074 -1.908534,3.364521 -0.07148,0.339719 -0.100378,0.687017 -0.150564,1.030528 -0.09011,1.594575 0.19181,3.183903 0.990724,4.583173 0.590106,1.033547 0.829503,1.172194 1.657779,2.029833 0.383799,0.274789 0.74254,0.588471 1.151395,0.824362 1.291505,0.745147 2.797249,1.104874 4.28612,1.029349 1.311823,-0.06654 1.574684,-0.261639 2.77245,-0.699723 -0.374293,0.192172 -0.824058,0.872707 -1.122876,0.576512 -0.28408,-0.281589 0.606161,-0.529535 0.851757,-0.845249 0.235556,-0.302805 0.428914,-0.641546 0.579366,-0.99445 0.294947,-0.691845 0.401037,-1.474618 0.374621,-2.220661 -0.01381,-0.389707 -0.09934,-0.773551 -0.149005,-1.16033 -0.457483,-1.752775 -1.316141,-3.505906 -2.842072,-4.576294 -0.24506,-0.171903 -0.524224,-0.289145 -0.786339,-0.433716 -0.796153,-0.310501 -1.560267,-0.329366 -2.365095,-0.03266 -0.261323,0.09634 -0.992081,0.505632 -0.751263,0.365707 2.230398,-1.295935 1.83642,-1.049759 0.89544,-0.316024 -0.540057,0.442965 -1.020448,0.95005 -1.521478,1.434716 -0.05974,0.05778 -0.382659,0.376434 -0.505034,0.440918 -0.851887,0.448903 -1.717567,0.871125 -2.576349,1.306687 -0.207735,-0.298688 -0.12813,-0.572624 -0.07032,-0.904753 0,0 2.495508,-1.216885 2.495508,-1.216885 v 0 c -0.0024,0.01259 -0.04807,0.498006 -0.135766,0.491138 -0.770244,0.443963 -1.543359,0.882986 -2.310735,1.331889 -0.08012,0.04687 0.172693,-0.07208 0.248565,-0.125553 0.702837,-0.495369 1.201558,-1.24473 1.888643,-1.759794 1.457429,-1.201137 0.884151,-0.785355 3.69319,-2.348812 0.46184,-0.257053 1.081621,-0.443527 1.611503,-0.469326 0.75435,-0.03673 0.938556,0.104775 1.641866,0.349594 0.266724,0.162203 0.550537,0.29917 0.800169,0.486614 1.536411,1.153652 2.421784,2.942976 2.906906,4.755623 0.0586,0.400241 0.15315,0.796854 0.17584,1.200727 0.0668,1.188553 -0.1854,2.406824 -0.884789,3.390818 -1.040032,1.46327 -2.590517,1.932053 -4.17998,2.859849 -1.219385,0.393758 -1.492237,0.576138 -2.81436,0.60578 -1.531202,0.03433 -3.059832,-0.364385 -4.379423,-1.141167 -0.420505,-0.247533 -0.791334,-0.571121 -1.187,-0.856684 -0.859123,-0.888531 -1.100108,-1.026411 -1.716333,-2.094073 -0.826448,-1.431888 -1.144876,-3.058158 -1.095468,-4.697233 0.04073,-0.351486 0.06036,-0.706062 0.122193,-1.054457 0.233582,-1.316117 0.776806,-2.587898 1.757235,-3.514863 0.934014,-0.546769 1.85461,-1.117134 2.802043,-1.64031 0.543039,-0.299869 1.208403,-0.238215 1.621489,0.224718 0,0 -2.420411,1.418286 -2.420411,1.418286 z"
       inkscape:connector-curvature="0"
       style="stroke-width:0.26458332" />
    <path
       id="path643"
       d="m 100.74995,75.359021 c 0.65611,0.343038 1.17958,0.873069 1.47311,1.559962 0.0854,0.199808 0.13917,0.411686 0.20875,0.61753 0.38717,2.156341 0.18767,4.371321 0.0857,6.546241 -0.11264,1.543291 -0.0884,3.092683 -0.15482,4.637299 -0.854,0.324221 -1.65885,0.835761 -2.562002,0.972664 -0.190394,0.02886 -0.06138,-0.380251 -0.08766,-0.571018 -0.03669,-0.266386 -0.0685,-0.533424 -0.101211,-0.800325 -0.140361,-1.145241 -0.296214,-2.286127 -0.463539,-3.427823 -0.341715,-2.341083 -0.90492,-4.636341 -1.454044,-6.934197 -0.297715,-1.287098 -0.66466,-2.588683 -0.639133,-3.922578 0.0042,-0.218673 0.03334,-0.436155 0.05001,-0.65423 0.147302,-1.012978 0.657561,-1.87779 1.562214,-2.390401 0.954243,-0.540711 1.925775,-1.050314 2.888665,-1.575473 1.01817,-0.28127 1.92849,-0.171566 2.73404,0.556451 0.15863,0.143362 0.28969,0.314553 0.43454,0.471826 1.03205,1.387483 1.46293,3.06846 1.78619,4.737386 0.24428,1.425469 0.13734,2.861609 -0.46922,4.186028 -0.10409,0.227291 -0.23671,0.440399 -0.35507,0.660601 -0.31981,0.46213 -0.40322,0.631815 -0.79486,1.018231 -0.23714,0.233971 -0.50162,0.429284 -0.7884,0.596892 -2.58236,1.509278 -1.77013,1.134171 -2.99038,1.679786 -0.92427,0.58991 -0.44999,0.282795 2.06485,-1.175488 0.0205,-0.01188 -0.0841,0.01299 -0.0655,0.02767 0.0339,0.02675 0.067,0.05484 0.10356,0.07785 0.0678,0.04271 0.13934,0.07929 0.20901,0.118941 0.76992,0.427749 1.48252,0.932029 2.13793,1.519314 0.82437,0.844045 1.42707,1.865696 2.1111,2.819027 0.51841,0.744085 1.07632,1.464167 1.54545,2.24105 0.24793,0.359547 0.31315,0.805818 0.4784,1.1938 0,0 -2.45292,1.405226 -2.45292,1.405226 v 0 c -0.1641,-0.390742 -0.15508,-0.85575 -0.42032,-1.212051 -0.45517,-0.77569 -0.99757,-1.497537 -1.50293,-2.240648 -0.66061,-0.944226 -1.26265,-1.942883 -2.08687,-2.758659 -0.66076,-0.56636 -1.37527,-1.051912 -2.14898,-1.452902 -1.652373,-1.025519 0.97105,-1.62751 2.19994,-2.293368 1.0018,-0.501745 0.16531,-0.09004 -1.74958,1.040958 -0.13316,0.07865 0.27655,-0.13969 0.40682,-0.223044 0.51918,-0.332221 0.93565,-0.770345 1.27762,-1.281938 0.12526,-0.210767 0.2649,-0.413628 0.37579,-0.632301 0.64381,-1.269603 0.78472,-2.664021 0.56037,-4.059111 -0.30331,-1.620863 -0.72438,-3.251472 -1.7581,-4.57664 -0.13721,-0.140796 -0.26091,-0.296156 -0.41162,-0.422392 -0.75278,-0.630523 -1.67925,-0.65296 -2.569991,-0.331131 0.597921,-0.367771 1.200721,-0.727729 1.793771,-1.103307 0.16432,-0.104069 -0.3483,0.176345 -0.50721,0.288523 -0.64681,0.456618 -1.019377,1.109175 -1.164752,1.878478 -0.02437,0.209992 -0.0626,0.418835 -0.07308,0.629975 -0.06558,1.321388 0.300419,2.619217 0.565382,3.899437 0.51612,2.316375 1.05427,4.627669 1.41952,6.974758 0.2233,1.385565 0.41186,2.782126 0.67553,4.160705 0.0338,0.176483 0.24532,0.40481 0.11354,0.52695 -0.70036,0.64911 -1.59237,1.054399 -2.388556,1.5816 0.142714,-0.452245 0.128487,-0.964864 0.158406,-1.432949 0.0694,-1.085699 0.12562,-2.172132 0.1829,-3.258524 0.10163,-2.127747 0.26495,-4.296577 -0.14285,-6.401768 -0.06697,-0.18954 -0.119282,-0.384911 -0.200903,-0.568619 -0.279945,-0.630092 -0.781929,-1.110991 -1.421374,-1.360845 0,0 2.322727,-1.563425 2.322727,-1.563425 z"
       inkscape:connector-curvature="0"
       style="stroke-width:0.26458332" />
    <path
       id="path645"
       d="m 115.38225,73.554459 c -0.14616,1.041432 -0.16564,2.096247 -0.18975,3.146118 0.004,1.371735 -0.32185,2.700171 -0.68947,4.011198 -0.17703,0.848412 -0.59075,1.750454 -0.43004,2.637935 0.0203,0.112421 0.0742,0.216104 0.11135,0.324154 0.0676,0.07744 0.12253,0.168042 0.20273,0.23232 0.54933,0.440278 1.72808,0.499677 2.39702,0.586894 1.60454,0.162636 3.20807,0.335862 4.81606,0.461317 1.22147,0.07783 2.47127,0.136996 3.67336,-0.1362 -0.13978,0.201803 0.88995,-0.412255 0.67662,-0.290798 -3.99047,2.271895 -2.94544,1.732193 -2.16755,1.240054 0.0643,-0.05665 0.0919,0.07317 0.0864,-0.02627 0,0 2.50878,-1.30675 2.50878,-1.30675 v 0 c 0.0108,0.08834 0.0655,0.164705 0.0129,0.251333 -0.70765,1.020259 -2.12496,1.51294 -3.32445,1.799394 -1.2079,0.17717 -2.43341,0.125341 -3.64661,0.02719 -1.61875,-0.132035 -3.23485,-0.294492 -4.8513,-0.451694 -0.79015,-0.09762 -1.94138,-0.148201 -2.55777,-0.730769 -0.0979,-0.09249 -0.16507,-0.212778 -0.24761,-0.319167 -0.0455,-0.131686 -0.10975,-0.258334 -0.13658,-0.39506 -0.18113,-0.923001 0.22978,-1.858129 0.42511,-2.739522 0.37568,-1.288788 0.71828,-2.593642 0.7183,-3.947118 0.0175,-1.044972 0.0338,-2.090414 0.1005,-3.13369 0,0 2.51209,-1.240875 2.51209,-1.240875 z"
       inkscape:connector-curvature="0"
       style="stroke-width:0.26458332" />
    <path
       id="path647"
       d="m 115.08516,78.084216 c 0.40498,-0.01865 0.81028,-0.112228 1.19128,-0.249698 0.84944,-0.306493 2.87635,-1.518827 -0.61231,0.470591 1.8467,-1.14958 3.59588,-2.50883 5.64841,-3.286022 0.39209,-0.136081 0.79634,-0.227817 1.20595,-0.290732 0.21875,-0.0336 0.43087,-0.036 0.64021,-0.10726 0,0 -2.23453,1.69911 -2.23453,1.69911 v 0 c -0.60128,0.06692 -1.19887,0.163824 -1.76422,0.391787 -1.12125,0.474919 -0.67775,0.312946 1.33316,-0.877435 0.18067,-0.106953 -0.36214,0.212785 -0.539,0.32594 -0.10863,0.0695 -1.06979,0.722929 -1.16528,0.786262 -0.19706,0.130691 -0.39654,0.257715 -0.59481,0.386572 -1.64761,0.946304 -3.38143,2.28019 -5.37582,2.397927 0,0 2.26696,-1.647042 2.26696,-1.647042 z"
       inkscape:connector-curvature="0"
       style="stroke-width:0.26458332" />
    <path
       id="path649"
       d="m 113.56377,70.373382 c 0.76833,0.218395 1.55065,0.318553 2.34496,0.17708 0.24877,-0.04431 0.49154,-0.117451 0.73731,-0.176175 1.84321,-0.563369 3.54589,-1.490882 5.23385,-2.40434 0.82779,-0.419304 1.63396,-0.907918 2.51674,-1.206569 0.11234,-0.04619 0.22947,-0.04943 0.34838,-0.0529 0,0 -2.26078,1.684549 -2.26078,1.684549 v 0 c -0.10032,0.02342 -0.19765,0.05522 -0.29441,0.09079 -0.82837,0.315497 -1.60463,0.754089 -2.39097,1.15866 -1.70637,0.908016 -3.42878,1.83306 -5.298,2.361176 -0.25726,0.05299 -0.51179,0.121666 -0.77179,0.158975 -0.83295,0.119526 -1.64224,-0.0249 -2.45849,-0.174344 0,0 2.2932,-1.616898 2.2932,-1.616898 z"
       inkscape:connector-curvature="0"
       style="stroke-width:0.26458332" />
    <path
       id="path651"
       d="m 133.68733,74.28381 c 0.0266,-0.34803 0.0826,-0.693021 0.13733,-1.037511 0.17084,-1.023315 -3.49693,0.674571 2.51312,-1.129662 0.0906,-0.02719 -0.0371,0.185565 -0.0494,0.279307 -0.0544,0.414901 -0.0656,0.739236 -0.0929,1.170284 -0.0799,3.056065 0.16145,6.110161 0.42245,9.152578 0.196,2.430169 0.5,4.856236 0.51298,7.297113 -0.10132,1.489218 -0.22705,0.719219 -2.59698,1.993905 0,0 2.32438,-1.592112 2.32438,-1.592112 v 0 c -0.77972,0.470289 -1.55944,0.940578 -2.33916,1.410867 0.0351,-0.05477 0.0853,-0.102417 0.10545,-0.164303 0.0445,-0.137004 0.0571,-0.282409 0.0857,-0.423612 0.15122,-2.457264 -0.14943,-4.914696 -0.31907,-7.363288 -0.25756,-3.02555 -0.51756,-6.054169 -0.61278,-9.08995 0.002,-0.376865 -0.002,-0.779111 0.0151,-1.158891 0.004,-0.09762 -0.0607,-0.239731 0.0216,-0.292338 0.82294,-0.525759 1.72811,-0.91014 2.58724,-1.374429 0.0201,-0.0109 -0.17947,-0.03116 -0.0426,0.05389 -0.0761,0.32775 -0.13739,0.659318 -0.17214,0.994161 0,0 -2.50035,1.27399 -2.50035,1.27399 z"
       inkscape:connector-curvature="0"
       style="stroke-width:0.26458332" />
    <path
       id="path653"
       d="m 133.93918,71.959265 c 0.64489,-0.165219 1.27954,-0.372692 1.91317,-0.578294 1.08494,-0.338064 2.19295,-0.49489 3.32641,-0.478481 1.13146,0.05769 2.20685,0.41855 3.16639,1.009238 0.76764,0.510614 1.29932,1.250587 1.38488,2.189191 0.0197,0.215551 -0.004,0.432869 -0.006,0.649304 -0.29994,1.674256 -1.38285,2.886604 -2.61182,3.981058 -1.27722,0.934434 -2.70772,1.67331 -4.10122,2.402771 -0.39818,0.208442 -0.90348,0.304575 -1.33803,0.414777 -1.25163,0.241943 -1.56688,0.772795 1.83593,-1.604484 0.0188,-0.01318 0.37926,-0.05162 0.39134,-0.05301 0.71208,-0.02098 1.39378,0.113654 2.06166,0.348419 1.10685,0.480473 1.91822,1.394423 2.70544,2.276007 0.95016,1.156477 1.78786,2.397873 2.70546,3.579682 0.35411,0.524103 0.78,0.982229 1.23847,1.412156 0.93872,0.89699 0.38822,0.233135 -2.17666,1.634053 -0.0788,-0.221967 -0.0384,-0.09481 -0.11319,-0.383908 0,0 2.45397,-1.33401 2.45397,-1.33401 v 0 c 0.0732,0.251769 0.0306,0.140023 0.11909,0.338407 -2.65001,1.647902 -1.77411,2.142374 -2.66994,1.214136 -0.45402,-0.450025 -0.84441,-0.95436 -1.19669,-1.488353 -0.87839,-1.198814 -1.70268,-2.440305 -2.66572,-3.574354 -0.77992,-0.840152 -1.58877,-1.707091 -2.68637,-2.121567 -0.65173,-0.20012 -1.32788,-0.311261 -2.01075,-0.226351 -0.0772,0.01368 -0.15446,0.02659 -0.23148,0.04107 -0.0579,0.0109 -0.2186,0.07283 -0.17336,0.03503 1.955,-1.633051 1.35559,-1.51505 2.61209,-1.777895 0.29943,-0.07989 0.45361,-0.115162 0.75854,-0.225231 0.17157,-0.06194 0.65927,-0.304359 0.50898,-0.200991 -0.56644,0.38958 -1.18303,0.700926 -1.76591,1.065464 -0.19805,0.12387 0.41164,-0.221496 0.61104,-0.343189 0.21686,-0.132344 0.42467,-0.278979 0.637,-0.418467 1.21983,-1.019752 2.30949,-2.161646 2.67311,-3.761608 0.009,-0.197414 0.0392,-0.395057 0.0263,-0.592238 -0.0573,-0.871953 -0.5693,-1.527895 -1.2821,-1.984314 -0.93412,-0.551077 -1.97262,-0.878763 -3.06385,-0.899348 -1.12722,0.01823 -2.22891,0.208153 -3.30021,0.566515 -0.64889,0.212318 -1.30043,0.416346 -1.95807,0.600096 0,0 2.22258,-1.71128 2.22258,-1.71128 z"
       inkscape:connector-curvature="0"
       style="stroke-width:0.26458332" />
    <path
       id="path655"
       d="m 151.16093,71.846407 c 0.49891,-0.06479 0.84046,-0.188169 1.30899,0.05354 0.63411,0.525415 0.80042,1.376043 0.98198,2.137903 0.34227,1.820547 0.48903,3.671292 0.61965,5.516916 0.11807,1.955208 0.0707,3.911915 -0.21291,5.84993 -0.0749,0.818946 -0.45121,1.649304 -0.28773,2.476593 0.0791,0.295637 0.27965,0.529391 0.37761,0.81862 0.2809,1.053576 -1.9512,2.289511 -2.60952,1.287553 0,0 2.42195,-1.429565 2.42195,-1.429565 v 0 c 0.68633,0.798322 -3.29723,1.184878 -2.29189,1.488458 -0.0551,-0.309856 -0.29745,-0.535664 -0.35678,-0.846145 -0.20036,-0.877559 0.19645,-1.74766 0.32652,-2.611038 0.34095,-1.922751 0.40993,-3.870973 0.29224,-5.82028 -0.13716,-1.820357 -0.30594,-3.644334 -0.6765,-5.434407 -0.17114,-0.649454 -0.31383,-1.476999 -0.91533,-1.877647 -0.41133,-0.119555 -0.82934,0.03795 -1.24854,0.03901 0,0 2.27026,-1.649445 2.27026,-1.649445 z"
       inkscape:connector-curvature="0"
       style="stroke-width:0.26458332" />
    <path
       id="path657"
       d="m 171.65457,72.060077 c -0.74277,0.179919 -1.4924,0.326678 -2.24642,0.453279 -0.90251,0.112609 -1.80364,0.237347 -2.70886,0.328387 -0.2766,0.07282 -0.57576,0.08149 -0.848,0.173649 -0.13587,0.046 -0.25023,0.14351 -0.37647,0.209156 -0.0282,0.01482 -0.11206,0.06073 -0.0846,0.04449 0.78416,-0.464461 1.57138,-0.923735 2.35494,-1.389208 0.007,-0.004 -0.0167,0.0085 -0.023,0.0039 -0.0123,-0.0088 -0.0172,-0.02495 -0.0245,-0.03817 -0.016,-0.02887 -0.0295,-0.0591 -0.0455,-0.08799 -0.0135,-0.02434 0.0253,0.04957 0.0379,0.07436 0.0566,-0.08342 0.35793,0.184401 0.41897,0.231859 0.45592,0.480259 0.47497,1.141527 0.51536,1.766674 0.0862,1.430848 0.20609,2.85909 0.28703,4.290303 0.10053,1.570567 -0.14702,3.120361 -0.44693,4.655103 -0.37138,1.738886 -0.25948,3.493055 -0.005,5.23613 0.15035,1.087459 0.51221,2.123729 0.7844,3.181268 0.37482,1.183 -1.31451,2.454233 -2.60208,1.86581 -0.15965,-0.05295 -0.27962,-0.193259 -0.38039,-0.324223 -0.0251,-0.08033 -0.13179,-0.215662 -0.0223,-0.279299 0.8293,-0.48214 1.66012,-0.961729 2.49453,-1.434963 0.0272,-0.01545 0.0593,-0.02016 0.0889,-0.03024 0.0304,-0.02048 0.0607,-0.04096 0.0911,-0.06145 -4.03764,2.249784 -2.89741,1.690502 -2.06106,1.1801 1.13819,-0.582943 2.0836,-1.403001 3.29706,-1.750198 0.72581,-0.146507 1.46602,-0.0043 2.1916,0.07501 0.61714,0.06758 1.23711,0.10469 1.85761,0.12015 0.14596,-5.29e-4 0.29289,0.0091 0.43844,-0.0046 -4.34161,2.423427 -2.4118,1.43768 -1.58034,0.653127 0.0279,-0.03935 0.0558,-0.0787 0.0837,-0.118052 0,0 2.55541,-1.15647 2.55541,-1.15647 v 0 c -0.0213,0.0593 -0.0426,0.118589 -0.0639,0.177885 -0.64488,0.996992 -3.10453,1.350377 -3.28442,2.109954 -0.13965,-0.01339 -0.28021,-0.01617 -0.42011,-0.02678 -0.61328,-0.03836 -1.2261,-0.08657 -1.83662,-0.157003 -0.71298,-0.07576 -1.44694,-0.188892 -2.14528,0.03597 -0.26753,0.09717 -0.2012,0.06602 -0.45269,0.184407 -0.059,0.02778 -0.11679,0.0581 -0.17575,0.08599 -0.0422,0.01995 -0.16769,0.0814 -0.12761,0.05751 2.36167,-1.407933 2.79583,-2.13628 2.29723,-1.319742 -0.84751,0.627044 -2.2046,0.864058 -2.7667,1.61598 -0.86396,0.355026 -2.26115,1.298247 2.14654,-1.271424 0.0158,-0.0092 -0.032,0.03118 -0.0491,0.02463 -0.062,-0.02381 -0.0648,-0.133347 -0.12547,-0.154831 0.073,0.09851 0.15935,0.159459 0.28164,0.185023 0.96823,0.146505 0.0439,-0.0084 -2.27319,1.395412 -0.0173,0.0105 0.0419,0.0055 0.0608,-0.0019 0.0785,-0.03117 0.0523,-0.09418 0.0481,-0.167336 -0.004,-0.06446 -0.012,-0.128582 -0.0181,-0.192873 -0.18587,-1.089938 -0.57515,-2.143244 -0.69972,-3.247374 -0.25161,-1.765168 -0.39489,-3.543184 -0.0496,-5.309492 0.29609,-1.515655 0.56867,-3.045124 0.48181,-4.597497 -0.0806,-1.421612 -0.20972,-2.838792 -0.34318,-4.256241 -0.0428,-0.522865 -0.0321,-1.141442 -0.43892,-1.53021 -0.17704,-0.116234 -0.39383,-0.174776 -0.52037,-0.352497 0.0591,0.08679 -0.12517,-0.170259 -0.0642,-0.20929 2.03628,-1.304502 1.59397,-1.079767 2.51386,-1.54091 0.38384,-0.191198 0.83051,-0.200665 1.24637,-0.269139 0.89857,-0.09008 1.79484,-0.207767 2.6882,-0.338651 0.76339,-0.141414 1.5263,-0.288668 2.27176,-0.508733 0,0 -2.22258,1.71128 -2.22258,1.71128 z"
       inkscape:connector-curvature="0"
       style="stroke-width:0.26458332" />
    <path
       id="path659"
       d="m 175.86135,74.100128 c -0.25273,1.063017 -0.37802,2.14603 -0.47108,3.232724 -0.14346,1.755302 -0.24863,3.513572 -0.36157,5.271103 -0.0736,0.622012 -0.003,1.263304 -0.1536,1.875349 -0.0489,0.27691 -0.15213,-0.04067 -0.0434,0.307345 0.0221,0.0406 0.0375,0.08563 0.0663,0.121801 0.0169,0.02122 0.0439,0.05983 0.0672,0.04595 0.0281,-0.01675 0.047,-0.111315 0.0178,-0.09654 -2.38691,1.207879 -2.63584,2.135923 -2.27959,1.054349 0,0 2.50884,-1.216914 2.50884,-1.216914 v 0 c -0.009,0.0931 0.0494,0.224285 -0.0262,0.279315 -1.19704,0.871241 -2.13678,2.368439 -2.81065,1.175605 -0.0333,-0.07897 -0.18554,-0.351893 -0.1348,-0.435065 0.0165,-0.02707 0.0919,0.02193 0.0801,-0.05125 0.31136,-0.549077 0.15969,-1.255853 0.28692,-1.849895 0.15967,-1.757402 0.27617,-3.516953 0.37947,-5.278522 0.0637,-1.071497 0.14981,-2.142218 0.35631,-3.197098 0,0 2.51791,-1.238253 2.51791,-1.238253 z"
       inkscape:connector-curvature="0"
       style="stroke-width:0.26458332" />
    <path
       id="path661"
       d="m 171.70242,75.760434 c 0.50306,-1.483228 1.23776,-1.331894 3.01877,-2.303749 0.39503,0.174985 0.65714,-0.02 0.99074,-0.234323 0.59584,-0.331872 1.19085,-0.723926 1.89195,-0.773504 0.15388,-0.01087 0.30839,0.0092 0.46259,0.01376 0.91858,0.146203 1.62873,0.693861 2.22113,1.378103 0.41513,0.535419 0.42188,0.97381 0.20114,1.590455 -0.38338,0.84785 -0.96902,1.575306 -1.56948,2.277034 -0.71015,0.822142 -1.57899,1.471726 -2.45334,2.105326 -0.33607,0.148527 -0.74779,0.633138 -1.0961,0.730047 -0.008,-0.01032 -0.0377,-0.02582 -0.0254,-0.03094 0.0125,-0.0052 0.5057,0.295992 0.55086,0.325792 0.50385,0.210044 0.91604,0.584668 1.32446,0.938003 0.76719,0.640977 1.51664,1.303181 2.22249,2.01132 0.67662,0.590839 1.10164,1.359535 1.5573,2.114762 0.33725,0.544666 0.68277,1.089853 1.09919,1.57812 0.80268,1.071256 -1.34901,1.337776 -2.33089,1.859304 -0.0314,0.01667 -0.33479,-0.09846 -0.34114,-0.100703 -0.26239,-0.06723 -0.45763,-0.231217 -0.65081,-0.410699 0,0 2.37889,-1.478743 2.37889,-1.478743 v 0 c 0.17407,0.143597 0.35164,0.25559 0.57863,0.297076 0.0529,0.0065 0.10548,0.01934 0.15881,0.01937 0.0429,2.4e-5 0.16348,-0.04238 0.12733,-0.01924 -0.76149,0.487696 -1.5532,0.927298 -2.31235,1.418619 -0.0225,0.01458 0.05,0.03928 0.0749,0.02943 0.0611,-0.02408 -0.16489,-0.245449 -0.0813,-0.179409 -0.39855,-0.51798 -0.7498,-1.07133 -1.09212,-1.627566 -0.43973,-0.738082 -0.84938,-1.487553 -1.5033,-2.068653 -0.70319,-0.703566 -1.45323,-1.358156 -2.23245,-1.976469 -0.41711,-0.338706 -0.84119,-0.668022 -1.3357,-0.886976 -0.28683,-0.173863 -0.62461,-0.303977 -0.73527,-0.649197 0.006,-0.04672 -0.005,-0.09877 0.0171,-0.140161 0.0773,-0.142822 0.94754,-0.597638 1.08363,-0.739767 0.87862,-0.626763 1.77433,-1.241314 2.49715,-2.053595 0.58923,-0.674963 1.16753,-1.368306 1.56417,-2.178616 0.22811,-0.470657 0.29322,-0.886965 -0.0515,-1.324896 -0.53619,-0.643898 -1.20964,-1.124291 -2.0714,-1.184391 -0.14325,0.0098 -0.28813,0.0059 -0.42978,0.02954 -0.68684,0.114456 -1.26458,0.537085 -1.86658,0.854921 -0.23626,0.110893 -0.42417,0.199724 -0.68848,0.195382 -0.0946,-0.0016 -0.18815,-0.03292 -0.28265,-0.02741 -0.0299,0.0019 -0.0572,0.01773 -0.0858,0.02657 0.76709,-0.443383 1.54182,-0.873797 2.30127,-1.330153 0.039,-0.02344 -0.0944,0.0048 -0.13374,0.02768 -0.23988,0.139404 -0.31074,0.466979 -0.41922,0.695103 0,0 -2.5338,1.203428 -2.5338,1.203428 z"
       inkscape:connector-curvature="0"
       style="stroke-width:0.26458332" />
    <path
       id="path663"
       d="m 184.14715,76.173689 c 0.0177,-0.47943 0.0118,-0.959496 -2.7e-4,-1.439005 -0.003,-0.09812 -0.005,-0.196385 -0.0117,-0.294365 3.18376,-1.698808 1.80509,-1.605116 3.71518,-0.66044 1.04783,0.487722 2.17216,0.774687 3.26617,1.136483 1.18871,0.409491 2.308,0.997895 3.29641,1.774103 0.35587,0.345242 0.90303,0.808993 0.74413,1.378762 -0.0303,0.108657 -0.0961,0.204126 -0.14411,0.306189 -0.0951,0.112171 -0.18386,0.230109 -0.2854,0.336511 -0.46623,0.48855 -1.00569,0.911082 -1.5047,1.364649 -0.67365,0.612307 -0.6031,0.555062 -1.26811,1.203161 -0.99216,0.972428 -1.98317,1.950773 -2.88152,3.011805 -0.0474,0.125143 -0.44685,0.441095 -0.35801,0.631431 0.0278,0.05961 0.10242,0.08267 0.15592,0.120943 0.37766,0.182174 0.76193,0.145262 1.13681,-0.01574 0.87811,-0.438915 1.09171,-0.550318 -1.94214,1.113004 -0.0844,0.04627 0.15847,-0.109334 0.23561,-0.166881 0.25184,-0.18787 0.49508,-0.380177 0.75465,-0.557829 0.90181,-0.480883 2.17143,-1.675939 3.45106,-1.67595 0.11393,-3e-6 0.41618,0.0428 0.52784,0.05724 0.42451,0.06178 0.85097,0.108091 1.27917,0.133589 0.19127,0.02109 0.2845,-0.04957 0.41518,0.09174 0.27836,0.09869 0.4899,0.232661 0.79281,0.134974 0.78807,-0.669623 0.0246,-0.0092 -2.18636,1.214062 -0.0375,0.02077 0.0682,-0.05389 0.0933,-0.08863 0.0776,-0.107112 0.085,-0.190863 0.11759,-0.317958 0,0 2.51734,-1.223904 2.51734,-1.223904 v 0 c -0.17317,1.317109 -1.08929,1.867471 -2.79323,2.090343 -0.32439,-0.01857 -0.62591,-0.130807 -0.91562,-0.274495 0.003,0.0835 -0.2646,-0.0043 -0.3253,0.0058 -0.42291,-0.04247 -0.84388,-0.100449 -1.26607,-0.149207 -0.34319,-0.02262 -0.66717,-0.01344 -0.99395,0.110784 -0.0819,0.03115 -0.31349,0.156353 -0.23822,0.111416 0.69953,-0.417632 1.40802,-0.820071 2.11203,-1.230109 -0.20399,0.128133 -0.32271,0.196834 -0.51514,0.340744 -0.16155,0.120822 -0.29425,0.280892 -0.46726,0.384656 -2.44935,1.469007 -1.69762,1.175414 -2.86385,1.607087 -0.45696,0.09583 -0.90459,0.06177 -1.30363,-0.203192 -0.47773,-0.419645 -0.32297,-0.711747 0.0414,-1.169405 0.92674,-1.074042 1.93735,-2.072135 2.94932,-3.065201 0.96743,-0.965205 1.98607,-1.871503 2.9858,-2.801987 0.0979,-0.118743 0.2276,-0.232273 0.2491,-0.397624 0.0494,-0.380045 -0.42558,-0.708377 -0.63209,-0.949023 -0.95338,-0.767271 -2.05064,-1.32868 -3.21218,-1.712445 -1.11871,-0.355264 -2.26363,-0.648295 -3.33399,-1.138121 -0.29935,-0.145809 -0.58623,-0.299929 -0.8738,-0.467108 -1.11605,-0.648804 -0.62082,-0.214252 1.99213,-1.680483 -0.006,0.101979 -0.008,0.2042 -0.0117,0.306311 -0.0118,0.479602 -0.0182,0.959779 -2.6e-4,1.439294 0,0 -2.50035,1.273987 -2.50035,1.273987 z"
       inkscape:connector-curvature="0"
       style="stroke-width:0.26458332" />
    <path
       id="path665"
       d="m 195.73159,65.585916 c 0.0554,0.59921 0.0983,1.199457 0.14578,1.799315 0.007,0.16995 0.0357,0.338952 0.0405,0.50896 -0.005,-0.02024 -0.0338,-0.05496 -0.0138,-0.06073 0.0194,-0.0056 0.97438,0.5579 1.04587,0.596551 0.89454,0.431689 1.66368,0.473821 2.63396,0.404876 0.55664,0.01789 1.09043,-0.319 1.64307,-0.192405 0.3244,0.195244 0.31669,0.531849 0.24497,0.85961 -0.0616,0.24725 -0.19263,0.457359 -0.32204,0.671504 -0.0406,0.03549 -0.0593,0.187402 -0.12093,0.185899 -0.002,0.0097 0.002,0.03316 -0.007,0.02907 -0.0488,-0.02201 -0.0274,-0.04583 -0.007,-0.04226 0.0696,0.01236 0.13913,0.07214 0.19207,0.108162 0.52743,0.506658 0.78094,1.224925 1.02773,1.895507 0.55408,1.55395 0.7151,3.19891 0.7994,4.834855 0.0623,2.136497 -0.18284,4.259998 -0.50876,6.366687 -0.12166,1.065038 -0.53194,2.048415 -0.87793,3.05085 -0.41696,1.29133 -0.36558,2.655559 -0.30816,3.992835 0.0724,0.894826 0.19482,1.785604 0.35904,2.668111 0.269,1.084972 0.43071,0.17381 -2.50133,1.403818 -0.0406,0.01704 -0.0421,-0.07734 -0.0646,-0.115231 -0.0619,-0.104693 -0.0844,-0.134509 -0.15224,-0.234397 -0.0945,-0.161031 -0.17842,-0.328134 -0.25321,-0.499163 -0.0123,-0.03548 -0.083,-0.181205 -0.008,-0.02318 -0.11975,-0.09602 -0.32959,-0.134924 -0.50222,-0.171222 -0.60617,-0.108331 -1.21692,-0.0842 -1.82723,-0.04178 -1.04536,0.112308 -2.07909,0.303372 -3.1124,0.494279 -0.77422,0.129178 -1.54533,0.273391 -2.32143,0.391216 0,0 2.18937,-1.641975 2.18937,-1.641975 v 0 c 0.77104,-0.118685 1.53854,-0.25694 2.30709,-0.390623 1.04986,-0.191395 2.0993,-0.395185 3.16331,-0.4918 0.63702,-0.03666 1.28021,-0.04499 1.90776,0.09023 0.21648,0.06232 0.44951,0.114231 0.60881,0.284067 0.22027,0.330142 0.0205,-0.0039 0.0662,0.126042 0.0504,0.158393 0.12154,0.309941 0.20554,0.453184 0.0169,0.02564 0.23844,0.355195 0.2279,0.362037 -0.78731,0.510942 -1.62456,0.940644 -2.42887,1.42439 -0.0329,0.01979 0.38372,0.041 0.0227,-0.112967 -0.10685,-0.912241 -0.21362,-1.824916 -0.28198,-2.741004 -0.0615,-1.353513 -0.15065,-2.735805 0.21423,-4.057512 0.32522,-1.014045 0.80087,-1.97861 0.95927,-3.043082 0.37691,-2.089335 0.65567,-4.200517 0.56742,-6.329984 -0.0971,-1.598816 -0.27967,-3.206046 -0.84355,-4.717243 -0.23556,-0.598649 -0.4713,-1.290322 -0.99574,-1.70112 -0.14619,-0.07857 -0.34091,-0.176813 -0.35246,-0.368239 -0.0218,-0.10904 0.0361,-0.19018 0.0852,-0.288316 0.11125,-0.216924 0.27695,-0.389186 0.35358,-0.624396 0.0511,-0.111998 0.2017,-0.409927 0.004,-0.431451 -0.52837,0.02204 -1.03811,0.208857 -1.57112,0.196821 -0.96796,0.03081 -1.8524,-0.07506 -2.72904,-0.520361 -0.85196,-0.446429 0.11042,0.0617 -0.62567,-0.337397 -0.15071,-0.08171 -0.38265,-0.155487 -0.50529,-0.284644 -0.0404,-0.04256 -0.0696,-0.09449 -0.10442,-0.141729 0.001,-0.171008 0.003,-0.342032 -0.005,-0.51299 -0.0208,-0.594561 -0.0537,-1.190165 -0.14445,-1.778736 0,0 2.48046,-1.302961 2.48046,-1.302961 z"
       inkscape:connector-curvature="0"
       style="stroke-width:0.26458332" />
  </g>
</svg>
