<?xml version="1.0" encoding="UTF-8" standalone="no"?>
<!-- Created with Inkscape (http://www.inkscape.org/) -->

<svg
   xmlns:dc="http://purl.org/dc/elements/1.1/"
   xmlns:cc="http://creativecommons.org/ns#"
   xmlns:rdf="http://www.w3.org/1999/02/22-rdf-syntax-ns#"
   xmlns:svg="http://www.w3.org/2000/svg"
   xmlns="http://www.w3.org/2000/svg"
   xmlns:sodipodi="http://sodipodi.sourceforge.net/DTD/sodipodi-0.dtd"
   xmlns:inkscape="http://www.inkscape.org/namespaces/inkscape"
   width="210mm"
   height="297mm"
   viewBox="0 0 210 297"
   version="1.1"
   id="svg8"
   inkscape:export-filename="/home/edward/Desktop/CAT125Project/resources/atom.png"
   inkscape:export-xdpi="96"
   inkscape:export-ydpi="96"
   inkscape:version="0.92.4 (5da689c313, 2019-01-14)"
   sodipodi:docname="atom.svg">
  <defs
     id="defs2" />
  <sodipodi:namedview
     id="base"
     pagecolor="#ffffff"
     bordercolor="#666666"
     borderopacity="1.0"
     inkscape:pageopacity="0.0"
     inkscape:pageshadow="2"
     inkscape:zoom="1.4"
     inkscape:cx="385.5905"
     inkscape:cy="960.35132"
     inkscape:document-units="mm"
     inkscape:current-layer="layer1"
     showgrid="false"
     inkscape:window-width="1850"
     inkscape:window-height="1016"
     inkscape:window-x="70"
     inkscape:window-y="27"
     inkscape:window-maximized="1" />
  <metadata
     id="metadata5">
    <rdf:RDF>
      <cc:Work
         rdf:about="">
        <dc:format>image/svg+xml</dc:format>
        <dc:type
           rdf:resource="http://purl.org/dc/dcmitype/StillImage" />
        <dc:title></dc:title>
      </cc:Work>
    </rdf:RDF>
  </metadata>
  <g
     inkscape:label="Layer 1"
     inkscape:groupmode="layer"
     id="layer1">
    <path
       id="path10"
       d="m 99.645926,33.882689 c -0.478385,0.395341 -0.901647,0.841267 -1.275416,1.3359 -0.05013,0.02013 -0.228361,0.406056 -0.224176,0.390208 0.01207,-0.04571 0.02754,-0.03051 0.07867,-0.03975 0.293857,0.09965 0.614778,0.179716 0.924057,0.127762 0.899099,-0.179906 2.766469,-1.506321 -1.960205,1.196467 -0.03362,0.01921 0.07823,-0.02673 0.115179,-0.01513 0.0056,-0.0062 0.0099,-0.01405 0.01693,-0.01873 0.01246,-0.0084 -0.02841,0.0141 -0.04331,0.01233 -0.100513,-0.01196 -0.183574,-0.0363 -0.278059,-0.07496 -0.256347,-0.07936 -0.43588,-0.273791 -0.639987,-0.434671 -0.177523,-0.173127 -0.176398,-0.388792 -0.150771,-0.616728 0.03103,-0.169823 0.03616,-0.144446 -0.12242,-0.197143 -0.27541,-0.04294 -0.548327,0.05797 -0.825941,0.08637 -0.714846,0.03204 -1.357617,0.352502 -1.973393,0.688952 0.606775,-0.341522 1.193163,-0.722104 1.820323,-1.024565 0.199491,-0.09621 -0.363492,0.254839 -0.529132,0.401865 -0.556276,0.493765 -1.022406,1.128226 -1.340937,1.79946 -0.113515,0.239202 -0.191059,0.493874 -0.286587,0.740813 -0.29361,1.013846 -0.318611,2.11121 0.361641,2.9905 0.477234,0.616866 0.792729,0.698011 1.471946,1.080291 0.353002,0.107093 0.697291,0.248889 1.059005,0.321281 1.240486,0.248267 2.569303,0.144492 3.763021,-0.273592 0.409476,-0.143418 0.781076,-0.378965 1.180976,-0.54727 0.39873,-0.167817 -0.785,0.363869 -1.177489,0.545801 0.294904,-0.296423 0.621069,-0.564726 0.884709,-0.889269 0.77394,-0.952725 1.21162,-2.108431 1.31503,-3.326739 0.0873,-1.028925 -0.0245,-1.274741 -0.20684,-2.264886 -0.3701,-1.105882 -0.9301,-2.318988 -2.136674,-2.711778 -0.623766,-0.203063 -0.889569,-0.09162 -1.523989,-0.0059 0.39134,-0.36073 -2.18195,1.03052 -1.629728,0.787482 0.495515,-0.21808 0.910355,-0.647959 1.442839,-0.745694 0.325258,-0.0597 -0.522179,0.406374 -0.772355,0.622634 -0.588897,0.509058 -0.759876,0.714343 -1.284036,1.265407 -0.390581,0.397647 -0.692449,0.844481 -0.936922,1.340111 0,0 -2.514497,1.143919 -2.514497,1.143919 v 0 c 0.247476,-0.540502 0.558724,-1.023938 0.980414,-1.451901 0.576598,-0.617509 1.360276,-1.489634 2.059114,-1.948882 1.011899,-0.664977 2.056403,-1.279326 3.098287,-1.896268 0.828971,-0.490871 0.823069,-0.434573 1.715507,-0.716651 0.69958,-0.04031 0.95575,-0.135361 1.62085,0.135991 1.23265,0.502904 1.81639,1.76471 2.20194,2.944847 0.19155,1.024575 0.30591,1.288224 0.23492,2.352 -0.084,1.258731 -0.4936,2.463128 -1.2584,3.474154 -0.25703,0.33977 -0.57925,0.624898 -0.86888,0.93735 -1.19443,0.735999 -2.93262,2.040416 -4.490037,2.52853 -1.238692,0.388223 -2.602344,0.459436 -3.870963,0.180906 -0.378989,-0.08321 -0.738621,-0.238038 -1.107932,-0.357055 -0.738875,-0.427675 -1.056304,-0.508889 -1.577779,-1.185632 -0.71987,-0.934207 -0.755772,-2.099294 -0.470638,-3.193622 0.08907,-0.258783 0.159115,-0.52492 0.267205,-0.776351 0.295095,-0.686421 0.745593,-1.36298 1.277763,-1.889228 0.848122,-0.838689 2.838722,-1.793626 3.363008,-2.101215 0.66177,-0.327684 1.334587,-0.609939 2.082149,-0.649668 0.315899,-0.04826 0.631975,-0.120515 0.932201,0.03338 0.189539,0.109902 0.371176,0.269851 0.302109,0.506224 -0.02093,0.124651 -0.09823,0.27345 0.0069,0.366499 0.177861,0.149981 0.349189,0.295685 0.582412,0.352062 0.244239,0.06416 0.478499,0.169207 0.525827,0.446778 0.0099,0.0882 0.05228,0.154784 -0.03821,0.207889 -1.357913,0.796919 -1.752277,1.425927 -2.929263,1.480563 -0.338582,-0.02543 -0.671108,-0.08991 -0.991701,-0.203978 -0.387307,-0.231434 -0.302911,-0.490357 -0.08038,-0.823314 0.347818,-0.510117 0.756436,-0.984401 1.239803,-1.370415 0,0 2.592324,-1.073777 2.592324,-1.073777 z"
       inkscape:connector-curvature="0"
       style="stroke-width:0.26458332" />
    <path
       id="path12"
       d="m 105.49509,36.938219 c -1.16923,0.657731 1.0777,-0.654333 1.64687,-0.92262 0.19453,-0.09169 -0.34158,0.262234 -0.50052,0.407106 -0.642,0.585147 -1.16804,1.278364 -1.70692,1.955057 -1.02911,1.417373 -2.06878,2.891657 -2.64002,4.565412 -0.10343,0.303035 -0.17155,0.616992 -0.25733,0.925488 -0.1847,1.159976 0.0123,2.284302 0.86756,3.146198 0.5709,0.57532 0.92679,0.679947 1.64752,1.046199 0.35044,0.108442 0.69259,0.248666 1.05133,0.325327 1.12557,0.240532 2.36045,0.223456 3.46343,-0.121412 0.36162,-0.113067 1.34691,-0.67608 1.04495,-0.447226 -0.40151,0.304311 -0.90029,0.452499 -1.35043,0.678749 0.24543,-0.254926 0.52118,-0.483796 0.73629,-0.764778 0.85593,-1.118031 1.13832,-2.608088 0.96649,-3.985315 -0.0414,-0.331788 -0.1424,-0.653384 -0.21359,-0.980075 -0.11475,-0.291521 -0.19802,-0.597488 -0.34424,-0.874565 -0.3524,-0.66776 -0.93816,-1.264351 -1.70755,-1.407287 -0.5927,-0.110109 -0.87917,0.0378 -1.44601,0.189643 -0.25233,0.121706 -0.99727,0.509196 -0.757,0.365123 0.49903,-0.299244 0.98953,-0.628523 1.53484,-0.831552 0.28284,-0.105304 -0.49114,0.351018 -0.73214,0.532691 -0.57214,0.43129 -1.12462,0.887752 -1.69684,1.319107 -0.34728,0.257773 -0.19627,0.147045 -0.45212,0.333433 0,0 -2.60504,1.018747 -2.60504,1.018747 v 0 c 0.30462,-0.186135 0.12932,-0.07371 0.5199,-0.346443 0.60008,-0.427678 1.16954,-0.887878 1.75201,-1.338969 0.23969,-0.185624 0.46691,-0.389866 0.7243,-0.55004 1.00399,-0.624792 2.02087,-1.22996 3.05568,-1.802257 0.25249,-0.139634 0.53342,-0.220109 0.80013,-0.330165 0.64193,-0.115393 0.90361,-0.239205 1.54954,-0.05943 1.18354,0.329412 1.78133,1.451465 2.13838,2.528282 0.0761,0.341283 0.18154,0.677325 0.22828,1.023853 0.1923,1.42567 -0.0491,2.974713 -0.88037,4.174003 -0.20734,0.299127 -0.4777,0.54924 -0.71655,0.823862 -1.05663,0.636146 -2.0869,1.318286 -3.16989,1.908434 -1.35713,0.739535 -3.14813,0.768422 -4.61838,0.424249 -0.37105,-0.08686 -0.72444,-0.236813 -1.08665,-0.355216 -0.76164,-0.399463 -1.13002,-0.513519 -1.7348,-1.130864 -0.935257,-0.95468 -1.13411,-2.089092 -0.968931,-3.368712 0.08482,-0.31886 0.151858,-0.642993 0.254463,-0.956585 0.553828,-1.692643 1.584748,-3.18479 2.596278,-4.629735 1.64912,-2.139952 2.38339,-2.993657 5.21175,-4.213643 0,0 -2.20467,1.725922 -2.20467,1.725922 z"
       inkscape:connector-curvature="0"
       style="stroke-width:0.26458332" />
    <path
       id="path14"
       d="m 95.619386,44.255348 c 0.487667,-0.0086 0.940705,-0.196114 1.423551,-0.227526 0.344591,0.130144 0.280077,0.510225 0.176922,0.786085 -1.069602,2.005867 -2.20073,1.697247 -3.613113,1.46684 -0.436332,-0.02826 -0.890707,-0.04167 -1.32212,0.04868 -0.165016,0.03456 -0.329401,0.07966 -0.48391,0.147124 -0.164359,0.07176 -0.62607,0.349925 -0.466598,0.267875 0.633513,-0.32594 1.259398,-0.666499 1.889096,-0.999747 -0.874834,0.86936 -1.282658,2.038245 -1.367534,3.25419 -0.02061,0.295209 -0.0055,0.591831 -0.0082,0.887743 0.121865,1.249188 0.503653,2.483705 1.418564,3.389427 0.598815,0.592796 0.801719,0.61001 1.547019,0.957098 0.754218,0.145841 0.983525,0.265197 1.752533,0.119724 0.284623,-0.05384 1.052513,-0.450921 0.825797,-0.270621 -0.45706,0.36349 -0.972389,0.695164 -1.538727,0.837597 -0.296209,0.07449 0.473946,-0.389848 0.674468,-0.620239 0.207092,-0.237943 0.360717,-0.517589 0.541076,-0.776386 0.756867,-1.441225 1.045948,-3.089814 0.60998,-4.680558 -0.07388,-0.269589 -0.192389,-0.524912 -0.288583,-0.787368 -0.683533,-1.235544 -1.2924,-1.672537 -2.690011,-1.658046 -0.289573,0.0596 -0.548415,0.04885 -0.824643,-0.04141 0,0 2.307529,-1.590275 2.307529,-1.590275 v 0 c 0.250391,0.03959 0.500859,0.02516 0.753999,0.01818 1.454743,0.112659 2.121191,0.677687 2.796614,1.972966 0.09922,0.276743 0.220732,0.546483 0.297655,0.830233 0.44505,1.641451 0.20355,3.349728 -0.52499,4.868034 -0.171114,0.275342 -0.315365,0.569318 -0.513342,0.826027 -0.926399,1.201219 -2.39726,1.771473 -3.72088,2.433936 -0.465318,0.232889 -1.271201,0.272942 -1.770314,0.210005 -0.311356,-0.03926 -0.609592,-0.14946 -0.914387,-0.224192 -0.768045,-0.392858 -0.987962,-0.428077 -1.605872,-1.058859 -0.93829,-0.957834 -1.355844,-2.239648 -1.513891,-3.541414 -0.0047,-0.304138 -0.02638,-0.608494 -0.01405,-0.912418 0.05079,-1.250021 0.416118,-2.463207 1.237282,-3.423171 2.178047,-1.356209 2.851626,-2.297467 5.182541,-2.080398 0.249825,0.03299 0.566008,0.113054 0.82055,0.05081 0.04732,-0.01156 0.172519,-0.09029 0.130802,-0.06515 -2.180497,1.314207 -3.070553,1.750483 -2.163397,1.302152 0.03224,-0.04811 0.268385,-0.388138 0.12714,-0.271899 -0.478607,0.0656 -0.947068,0.209648 -1.435513,0.202002 0,0 2.266956,-1.64704 2.266956,-1.64704 z"
       inkscape:connector-curvature="0"
       style="stroke-width:0.26458332" />
    <path
       id="path16"
       d="m 105.29591,31.91847 c -0.0857,0.02885 -0.17227,0.05504 -0.25699,0.08655 -0.12301,0.04573 -0.24803,0.08757 -0.36599,0.145081 -0.14295,0.06969 -0.55379,0.312968 -0.41486,0.235591 0.62451,-0.347822 1.22916,-0.73346 1.8716,-1.046925 0.18437,-0.08996 -0.33316,0.240154 -0.48975,0.372684 -0.15943,0.13494 -0.30471,0.285774 -0.45706,0.428662 -0.61882,0.694849 -1.20463,1.629585 -0.80994,2.59162 0.0717,0.174837 0.19829,0.321765 0.29743,0.482648 0.58259,0.632738 1.33131,1.070782 2.21725,1.050197 0.63449,-0.01474 0.85574,-0.160657 1.45262,-0.386683 -0.51663,0.28742 -0.98295,0.694642 -1.54989,0.862259 -0.29585,0.08747 0.48891,-0.381347 0.69618,-0.60986 0.21128,-0.232933 0.398,-0.491008 0.55136,-0.765558 0.53629,-0.960083 0.56113,-1.813772 0.59594,-2.876201 -0.11982,-1.260885 -0.4464,-3.007524 -1.44243,-3.907168 -0.11832,-0.106868 -0.26899,-0.171244 -0.40348,-0.256863 -0.12971,-0.01302 -0.2606,-0.06083 -0.38913,-0.03907 -0.13364,0.02262 -0.24696,0.111776 -0.37044,0.167661 0.65597,-0.357029 1.31194,-0.714055 1.96791,-1.071084 0,0 -2.55801,1.001035 -2.55801,1.001035 v 0 c 0.92551,-0.536934 1.82641,-1.118732 2.77654,-1.610799 0.13426,-0.06953 0.29903,-0.07367 0.4496,-0.06001 0.15284,0.01386 0.29228,0.0937 0.43841,0.14056 0.14063,0.11089 0.29789,0.20346 0.4219,0.332669 0.99433,1.036021 1.31666,2.741398 1.47091,4.106121 -0.012,1.09478 -0.0188,1.995983 -0.51833,3.008255 -0.84867,1.719622 -2.62114,2.360557 -4.25675,3.227617 -0.66189,0.204153 -0.86265,0.332492 -1.55049,0.300972 -0.94917,-0.0435 -1.73743,-0.559946 -2.35524,-1.244952 -0.11421,-0.185113 -0.25661,-0.355563 -0.34265,-0.555337 -0.444,-1.030914 0.0371,-2.05246 0.69595,-2.84947 1.20546,-1.231751 1.86553,-1.436692 3.73188,-2.51248 0.35879,-0.206809 0.75354,-0.354298 1.16621,-0.397169 0,0 -2.27026,1.649444 -2.27026,1.649444 z"
       inkscape:connector-curvature="0"
       style="stroke-width:0.26458332" />
    <path
       id="path18"
       d="m 104.23367,48.924125 c 0.18617,-0.581568 0.47408,-1.134954 0.52523,-1.750365 0.0258,0.05549 -0.0242,-0.342161 -0.0819,-0.27972 -0.0201,0.02172 -0.005,0.06146 -0.0217,0.08605 -0.0284,0.04239 -0.18529,0.121978 -0.20886,0.135289 -0.57419,0.321334 -1.22372,0.492112 -1.83312,0.739399 -0.16048,0.07426 -0.32433,0.141627 -0.48143,0.222788 -0.17282,0.08929 -0.67804,0.381653 -0.50748,0.288115 0.60603,-0.332356 1.18255,-0.723392 1.81394,-1.004599 0.19356,-0.08621 -0.33323,0.263242 -0.48389,0.412229 -0.42284,0.418107 -0.48263,0.572931 -0.80747,1.076356 -0.68642,1.322208 -0.91493,2.835273 -0.84288,4.315013 0.0159,0.326977 0.0623,0.651764 0.0934,0.977646 0.22016,1.210257 0.5549,2.465229 1.38442,3.41684 0.50883,0.583713 0.7106,0.625763 1.36818,0.999482 0.84256,0.321016 1.68024,0.381439 2.55073,0.119777 0.30647,-0.09213 1.15253,-0.545666 0.8873,-0.366607 -2.73682,1.847633 -1.17236,0.482727 -0.66538,-0.006 1.2621,-1.563237 1.85143,-3.490483 1.81439,-5.492689 -0.007,-0.385773 -0.0652,-0.768916 -0.0978,-1.153377 -0.2361,-1.207351 -0.6518,-2.490435 -1.78716,-3.14816 -0.5987,-0.346827 -0.83665,-0.297093 -1.50695,-0.363159 -1.09369,0.02429 -2.13528,0.351501 -3.16813,0.676886 0,0 2.14042,-1.653434 2.14042,-1.653434 v 0 c 1.05174,-0.30579 2.11411,-0.60833 3.22227,-0.574048 0.72003,0.118956 0.95849,0.08187 1.58746,0.489164 1.1558,0.748456 1.59094,2.08221 1.8383,3.361968 0.0352,0.395422 0.0948,0.789429 0.10559,1.186267 0.0553,2.037652 -0.48917,4.016182 -1.70986,5.658673 -1.46264,1.556192 -0.80125,0.99664 -3.86579,2.658343 -0.49838,0.27024 -1.29443,0.440804 -1.85983,0.447707 -0.78255,0.0096 -1.00971,-0.137332 -1.73261,-0.385485 -0.68543,-0.420952 -0.8921,-0.473755 -1.42342,-1.101193 -0.843717,-0.996339 -1.198771,-2.288392 -1.435664,-3.541734 -0.03553,-0.332758 -0.08597,-0.664263 -0.106603,-0.998278 -0.09295,-1.5044 0.10441,-3.051598 0.73361,-4.428136 0.304853,-0.530793 0.359337,-0.693147 0.766227,-1.144068 1.14278,-1.266415 2.82547,-1.907374 4.33585,-2.644175 0.63101,-0.246943 1.27432,-0.46537 1.87699,-0.77815 0.4465,-0.129633 0.57072,0.131405 0.60325,0.541237 -0.0201,0.634786 -0.29487,1.204243 -0.4858,1.800691 0,0 -2.5338,1.203428 -2.5338,1.203428 z"
       inkscape:connector-curvature="0"
       style="stroke-width:0.26458332" />
    <path
       id="path20"
       d="m 88.664917,40.683148 c -0.886228,0.260535 -1.755064,0.573336 -2.618097,0.901642 -0.947217,0.372649 -1.992914,0.548221 -2.875331,1.067871 3.97936,-2.21742 2.085724,-1.607 1.777254,-0.636061 -0.143393,0.451345 -0.05715,0.870662 0.02931,1.321557 0.305491,0.86497 0.873212,1.747459 1.74869,2.132422 0.165626,0.07283 0.347887,0.09958 0.521832,0.149371 0.520599,-0.0075 0.624673,0.03358 1.134618,-0.157041 0.208836,-0.07806 0.794668,-0.404064 0.600636,-0.294259 -0.567325,0.321053 -1.114227,0.690629 -1.721189,0.928391 -0.23092,0.09046 0.388094,-0.309565 0.570474,-0.477626 0.183684,-0.169259 0.350991,-0.35547 0.526486,-0.533204 0.310639,-0.397232 1.280448,-1.46145 1.115055,-2.040834 -0.01831,-0.06416 -0.074,-0.111041 -0.111006,-0.166561 -0.474192,-0.267594 -0.987322,-0.460115 -1.416455,-0.805492 -0.374176,-0.301149 -0.487884,-0.47752 -0.793488,-0.84719 -0.30579,-0.435417 -0.489045,-0.922002 -0.648756,-1.423329 0,0 2.419956,-1.320419 2.419956,-1.320419 v 0 c 0.124016,0.476303 0.27967,0.93014 0.569704,1.336974 0.300505,0.351515 0.389958,0.496411 0.759764,0.773348 0.380349,0.284832 0.826505,0.417187 1.225791,0.66254 0.103849,0.06381 0.193984,0.14764 0.290978,0.221459 0.05875,0.09675 0.140523,0.182838 0.176239,0.290243 0.250296,0.752671 -0.717196,1.745117 -1.096833,2.281333 -1.375942,1.477465 -1.677625,1.5074 -3.992473,2.804054 -0.579569,0.324641 -1.223571,0.406929 -1.869741,0.302143 -0.186201,-0.06907 -0.381818,-0.116713 -0.558596,-0.207208 -0.911289,-0.4665 -1.515261,-1.386332 -1.865395,-2.314467 -0.57064,-2.42947 0.392324,-2.286984 2.765078,-3.712651 0.921258,-0.422961 1.919171,-0.652392 2.863834,-1.016948 0.888596,-0.335737 1.783488,-0.658939 2.696795,-0.921525 0,0 -2.225132,1.701467 -2.225132,1.701467 z"
       inkscape:connector-curvature="0"
       style="stroke-width:0.26458332" />
    <path
       id="path22"
       d="m 99.217288,24.887872 c -0.624186,-0.119166 -1.092515,-0.621007 -1.691264,-0.795597 -0.112384,-0.03277 -0.231426,-0.03547 -0.347139,-0.05321 -0.120814,0.0248 -0.24789,0.02869 -0.362439,0.0744 -0.133109,0.05312 -0.498425,0.282762 -0.370531,0.218088 0.643031,-0.325173 1.229845,-0.781646 1.916571,-0.9999 0.223602,-0.07106 -0.320207,0.344794 -0.456409,0.535834 -0.402461,0.564506 -0.518295,0.902847 -0.810369,1.540516 -0.396017,1.239434 -0.941392,2.858629 -0.121433,4.062549 0.128588,0.188799 0.314151,0.331703 0.471226,0.497554 0.226674,0.117361 0.440772,0.263118 0.680019,0.352081 1.249838,0.464751 2.82808,0.363792 4.10717,0.09337 0.35611,-0.07529 0.70195,-0.192876 1.05292,-0.289316 0.30292,-0.136478 1.19275,-0.581851 0.90875,-0.409438 -0.49791,0.302274 -0.98258,0.68379 -1.55321,0.800682 -0.25542,0.05232 0.37421,-0.369099 0.51563,-0.588134 0.50288,-0.77888 0.40772,-1.43756 0.31774,-2.301661 -0.3469,-1.243809 -1.00513,-2.776613 -2.37014,-3.188387 -0.24056,-0.07257 -0.49827,-0.06539 -0.7474,-0.09808 -1.105489,0.192393 -0.549144,0.04985 -1.665215,0.44226 0,0 2.107555,-1.635185 2.107555,-1.635185 v 0 c 1.17685,-0.355424 0.58819,-0.242662 1.76317,-0.352746 0.2653,0.05583 0.54199,0.07245 0.79589,0.167494 1.41938,0.531317 2.07945,2.088476 2.48784,3.420096 0.0928,0.68056 0.20413,1.04949 0.0612,1.733326 -0.42953,2.055548 -2.98296,2.899405 -4.71535,3.61351 -0.35421,0.08648 -0.70416,0.192844 -1.06265,0.259432 -1.335053,0.247978 -2.971307,0.331068 -4.255092,-0.196987 -0.262036,-0.107781 -0.493017,-0.279374 -0.739526,-0.419061 -0.171503,-0.190193 -0.374121,-0.356388 -0.514507,-0.570582 -0.841181,-1.283443 -0.343042,-2.946042 0.05066,-4.280476 0.274251,-0.660662 0.376729,-0.986607 0.746585,-1.586596 0.790853,-1.282946 1.413722,-1.269572 3.185149,-2.315992 0.131702,-0.0778 0.282681,-0.12386 0.433086,-0.15173 0.136515,-0.0253 0.277651,-0.0038 0.416478,-0.0057 0.125627,0.03453 0.254789,0.05811 0.376878,0.103582 0.568099,0.211604 1.047829,0.655832 1.675169,0.705419 0,0 -2.28705,1.618576 -2.28705,1.618576 z"
       inkscape:connector-curvature="0"
       style="stroke-width:0.26458332" />
    <path
       id="path24"
       d="m 88.593942,28.529592 c 0.90768,-0.160623 1.814356,-0.316709 2.731312,-0.416237 0.374269,-0.06502 0.766038,-0.02029 1.13542,-0.120394 0.07264,-0.01969 0.272878,-0.126195 0.207613,-0.08872 -2.289609,1.314768 -3.067619,0.865167 -2.239078,1.321007 -0.562346,-0.373664 -1.236517,-0.461537 -1.892306,-0.559478 -0.938382,-0.08861 -1.901642,-0.01265 -2.788674,0.327179 -0.240006,0.09195 -0.917659,0.461282 -0.697489,0.328684 0.535998,-0.322813 1.097989,-0.600353 1.646984,-0.900528 -1.161627,0.877231 -1.875983,2.157148 -1.935464,3.62558 -0.0123,0.303652 0.03012,0.607055 0.04518,0.910579 0.24125,1.210083 0.822479,2.360123 1.96809,2.948871 0.758288,0.3897 1.065387,0.327182 1.901436,0.391486 0.355142,-0.05467 0.717968,-0.07242 1.06543,-0.163994 0.372004,-0.09804 0.734253,-0.237117 1.081873,-0.401916 0.365979,-0.173497 1.443416,-0.508134 1.05124,-0.609324 -0.438682,-0.113189 -0.885696,0.846153 -1.237883,0.561168 -0.31742,-0.256853 0.607026,-0.547743 0.886003,-0.845905 0.264652,-0.282847 0.494768,-0.596135 0.742153,-0.894202 0.570519,-0.824883 1.675699,-2.634205 1.006047,-3.67325 -0.08884,-0.13785 -0.239522,-0.224081 -0.359283,-0.336124 -0.166508,-0.06738 -0.325769,-0.156607 -0.499526,-0.202149 -0.974561,-0.255437 -2.537769,-0.02371 -3.553851,0.06724 -0.210643,0.02006 -0.421286,0.04011 -0.631928,0.06016 0,0 2.187336,-1.618753 2.187336,-1.618753 v 0 c 0.206645,-0.01672 0.413293,-0.03343 0.61994,-0.05014 1.071269,-0.08549 2.635242,-0.316489 3.653756,0.0333 0.196813,0.06759 0.371382,0.187864 0.557075,0.281797 0.138435,0.147769 0.311052,0.269724 0.415311,0.443304 0.714682,1.189855 -0.339656,2.995295 -0.982263,3.966427 -0.398978,0.498488 -1.089091,1.428776 -1.614644,1.803863 -1.035367,0.738946 -2.135647,1.383024 -3.221976,2.044779 -1.030126,0.627515 -2.103951,1.045811 -3.323058,1.069065 -0.890413,-0.109143 -1.194047,-0.05749 -1.991665,-0.500785 -1.18904,-0.660839 -1.809654,-1.869601 -2.087808,-3.15023 -0.02238,-0.317185 -0.07142,-0.633611 -0.06717,-0.951555 0.02014,-1.507644 0.666409,-2.867687 1.816447,-3.833122 2.629371,-1.545881 3.648662,-2.570282 6.576944,-2.299803 0.743759,0.115104 1.729829,0.207647 2.192408,0.881599 0.263806,1.532946 -2.697019,1.671617 -3.837498,1.774447 -0.931658,0.109506 -1.852609,0.276622 -2.772828,0.457388 0,0 2.2464,-1.681316 2.2464,-1.681316 z"
       inkscape:connector-curvature="0"
       style="stroke-width:0.26458332" />
    <path
       id="path26"
       d="m 99.925498,54.007189 c 0.08539,-0.04746 0.505932,-0.561057 0.552812,-0.55339 0.008,0.01535 0.0308,0.06266 0.0252,0.04608 -0.36885,-1.093145 -0.837988,0.126963 2.45497,-1.525537 0.0332,-0.01664 0.56735,0.02262 0.60234,0.02347 0.57904,0.05479 1.14529,0.193384 1.70496,0.346647 0,0 -2.29011,1.571865 -2.29011,1.571865 v 0 c -0.5452,-0.150132 -1.10252,-0.272248 -1.67026,-0.284429 -0.0999,-2.41e-4 -0.38403,-0.0016 -0.49826,2.64e-4 -0.0435,7.94e-4 -0.16781,0.0268 -0.13034,0.0048 1.67451,-0.984824 2.89877,-0.565859 2.30308,-1.510152 -0.0157,-0.0249 0.025,0.0533 0.0375,0.07995 0.0413,0.307764 -0.33144,0.521185 -0.49954,0.726639 0,0 -2.592321,1.073774 -2.592321,1.073774 z"
       inkscape:connector-curvature="0"
       style="stroke-width:0.26458332" />
    <path
       id="path28"
       d="m 95.853638,47.870996 c -0.474324,0.291978 -0.624592,0.7377 -0.691023,1.261724 -0.05154,0.657246 -0.131421,1.30035 6.1e-5,1.951722 0,0 -2.447071,1.311868 -2.447071,1.311868 v 0 c -0.149426,-0.676979 -0.09534,-1.338919 -0.04422,-2.024772 0.0403,-0.563761 0.12382,-1.084175 0.56977,-1.478354 0,0 2.61248,-1.022188 2.61248,-1.022188 z"
       inkscape:connector-curvature="0"
       style="stroke-width:0.26458332" />
    <path
       id="path30"
       d="m 92.596662,48.678314 c 0.602258,0.147719 1.170683,0.401526 1.724028,0.676581 0.66336,0.31713 1.39275,0.194612 2.0833,0.0475 0,0 -2.197669,1.660654 -2.197669,1.660654 v 0 c -0.749888,0.126008 -1.509882,0.190045 -2.207377,-0.17789 -0.55046,-0.265813 -1.11289,-0.50556 -1.716622,-0.621863 0,0 2.31434,-1.584986 2.31434,-1.584986 z"
       inkscape:connector-curvature="0"
       style="stroke-width:0.26458332" />
    <path
       id="path32"
       d="m 106.61144,42.584745 c 0.40918,0.439923 0.845,0.860462 1.38517,1.13724 0.42563,0.218094 0.64521,0.263541 1.10273,0.404765 0,0 -2.25275,1.531633 -2.25275,1.531633 v 0 c -0.48582,-0.163367 -0.69592,-0.211045 -1.14819,-0.45362 -0.55084,-0.295447 -0.99966,-0.72658 -1.46061,-1.140259 0,0 2.37365,-1.479759 2.37365,-1.479759 z"
       inkscape:connector-curvature="0"
       style="stroke-width:0.26458332" />
    <path
       id="path34"
       d="m 98.728934,36.509404 c -0.43496,0.796123 -0.560692,1.701607 -0.626076,2.593075 -0.01696,0.772338 -0.02141,0.389726 0.01201,1.147855 0,0 -2.427629,1.251614 -2.427629,1.251614 v 0 c -0.04017,-0.777901 -0.03158,-0.386527 -0.025,-1.174141 0.04178,-0.90501 0.145849,-1.821228 0.508905,-2.661176 0,0 2.557791,-1.157227 2.55779,-1.157227 z"
       inkscape:connector-curvature="0"
       style="stroke-width:0.26458332" />
    <path
       id="path36"
       d="m 96.159665,38.094361 c 0.160171,0.335815 0.302247,1.018948 0.646108,1.217147 0.05484,0.03161 0.124743,0.02162 0.187113,0.03244 0.672685,-0.212747 1.291201,-0.568415 1.972027,-0.764355 0.187415,-0.05394 0.379963,-0.0881 0.569944,-0.132154 0.581853,-0.115089 1.163763,-0.06894 1.747663,-0.01527 0,0 -2.223193,1.589712 -2.223193,1.589712 v 0 c -0.568479,-0.03351 -1.132891,-0.05571 -1.692249,0.08466 -0.612727,0.170355 -0.500216,0.121592 -1.089956,0.354994 -0.406718,0.160968 -0.852593,0.427683 -1.298557,0.467643 -0.101806,0.0091 -0.203356,-0.02093 -0.305035,-0.03139 -0.08505,-0.04815 -0.179991,-0.08198 -0.255151,-0.144455 -0.371994,-0.309216 -0.476229,-0.864568 -0.69836,-1.269884 0,0 2.439646,-1.389096 2.439646,-1.389096 z"
       inkscape:connector-curvature="0"
       style="stroke-width:0.26458332" />
    <path
       id="path38"
       d="m 107.2334,30.461786 c -0.294,0.526915 -0.57035,1.061355 -0.64882,1.665422 0.0271,0.331835 0.3608,0.272423 0.61378,0.263697 0.27,-0.04915 0.5323,0.03241 0.79949,0.04577 0.0633,0.0032 0.49836,-0.01344 0.54614,-0.01511 0.0984,-0.0045 0.19683,-0.009 0.29525,-0.01355 0,0 -2.24341,1.643716 -2.24341,1.643716 v 0 c -0.0994,0.0034 -0.19871,0.0069 -0.29806,0.01026 -0.45965,0.0068 -0.91579,-0.04346 -1.37548,-0.0287 -0.42131,-0.03911 -0.7625,-0.205637 -0.83559,-0.665038 0.0488,-0.631187 0.2985,-1.192808 0.58891,-1.74925 0,0 2.55779,-1.157227 2.55779,-1.157227 z"
       inkscape:connector-curvature="0"
       style="stroke-width:0.26458332" />
    <path
       id="path40"
       d="m 102.54415,24.803436 c 0.0258,0.850098 0.12387,1.693399 0.0662,2.543751 -0.0987,0.805641 -0.2768,1.59629 -0.36797,2.403547 0,0 -2.472908,1.226772 -2.472908,1.226772 v 0 c 0.08286,-0.80772 0.239368,-1.59929 0.372018,-2.398974 0.0882,-0.836793 0.01,-1.671394 -0.0904,-2.504819 0,0 2.49306,-1.270277 2.49306,-1.270277 z"
       inkscape:connector-curvature="0"
       style="stroke-width:0.26458332" />
    <path
       id="path42"
       d="m 98.632765,27.776823 c 1.192258,-0.103232 2.338825,-0.496019 3.493495,-0.789733 1.47615,-0.373751 2.97518,-0.655403 4.49677,-0.735784 0,0 -2.21111,1.623265 -2.21111,1.623265 v 0 c -1.49585,0.06912 -2.96757,0.365773 -4.414365,0.743619 -1.192969,0.318331 -2.378586,0.697402 -3.610885,0.833583 0,0 2.246095,-1.67495 2.246095,-1.67495 z"
       inkscape:connector-curvature="0"
       style="stroke-width:0.26458332" />
    <path
       id="path44"
       d="m 85.830134,33.430376 c -0.193911,-0.0037 -0.416528,-0.0058 -0.599882,0.07262 -0.04292,0.01836 -0.155168,0.103625 -0.114528,0.08064 2.375342,-1.343573 2.78238,-0.558142 2.28881,-1.427311 0.01019,-0.01974 0.01058,-0.0495 0.03056,-0.05919 0.109757,-0.05322 0.240445,-0.04198 0.359269,-0.06954 0.365689,-0.08481 0.724004,-0.195881 1.083051,-0.304623 0.754613,-0.215275 1.529323,-0.341608 2.307743,-0.429752 0,0 -2.212982,1.648627 -2.212982,1.648627 v 0 c -0.768747,0.09787 -1.533248,0.231476 -2.274443,0.463685 -0.366792,0.108429 -1.232901,0.448593 -1.609741,0.245795 -0.06634,-0.0357 -0.111959,-0.10084 -0.167939,-0.151262 -0.0259,-0.06607 -0.13615,-0.157919 -0.07773,-0.198205 1.477722,-1.018998 1.898587,-1.52505 3.258074,-1.520928 0,0 -2.270265,1.649444 -2.270265,1.649444 z"
       inkscape:connector-curvature="0"
       style="stroke-width:0.26458332" />
    <path
       id="path46"
       d="m 88.053808,41.162337 c 0.553033,0.476904 0.837629,1.13719 1.098191,1.800855 0.112487,0.314338 0.182734,0.640593 0.253756,0.965957 0,0 -2.455227,1.311558 -2.455227,1.311558 v 0 c -0.05467,-0.314278 -0.11153,-0.628748 -0.217215,-0.931011 -0.225526,-0.5984 -0.470133,-1.235218 -1.024776,-1.604253 0,0 2.345271,-1.543106 2.345271,-1.543106 z"
       inkscape:connector-curvature="0"
       style="stroke-width:0.26458332" />
    <path
       id="path48"
       d="m 86.916452,41.458205 c 0.532421,0.06359 1.055952,0.171151 1.591937,0.198467 0,0 -2.249969,1.61018 -2.249969,1.61018 v 0 c -0.546735,-0.05024 -1.088281,-0.141116 -1.635173,-0.191749 0,0 2.293205,-1.616898 2.293205,-1.616898 z"
       inkscape:connector-curvature="0"
       style="stroke-width:0.26458332" />
    <path
       id="path50"
       d="m 87.849923,33.481824 c 0.655844,0.05885 1.291585,0.218721 1.916658,0.420521 0.477869,0.181359 0.950711,0.45479 1.473345,0.451372 0.322623,-0.05722 0.609479,-0.222563 0.888566,-0.385927 0.08723,-0.05105 0.348914,-0.204174 0.261152,-0.154054 -0.704091,0.402098 -1.406768,0.806665 -2.11015,1.209998 0.300485,-0.194773 0.15413,-0.100409 0.438991,-0.283205 0,0 2.602082,-1.006356 2.602082,-1.006356 v 0 c -0.297899,0.173453 -0.147124,0.07931 -0.451173,0.284277 -0.880234,0.51444 -1.759296,1.030888 -2.6407,1.543322 -0.389755,0.226597 -0.803595,0.439389 -1.26674,0.415322 -0.521407,-0.09345 -0.994622,-0.326954 -1.48744,-0.512815 -0.616911,-0.184304 -1.245957,-0.340969 -1.894856,-0.33301 0,0 2.270265,-1.649445 2.270265,-1.649445 z"
       inkscape:connector-curvature="0"
       style="stroke-width:0.26458332" />
    <path
       id="path52"
       d="m 106.26651,29.547685 c -0.239,0.401722 -0.41607,0.836308 -0.57975,1.273032 -0.36106,0.928288 -0.0636,0.213307 -2.56979,1.178396 -0.0406,0.01564 -0.002,-0.08742 0.005,-0.130345 0.005,-0.03102 0.003,-0.07427 0.0303,-0.08928 2.54623,-1.383792 1.72471,-1.780519 2.71521,-1.235909 0.43958,0.317627 0.82398,0.494395 1.37225,0.479044 0.61444,-0.126116 1.17197,-0.416909 1.71201,-0.724614 0,0 -2.15375,1.734793 -2.15375,1.734793 v 0 c -0.57096,0.295178 -1.1605,0.585418 -1.81501,0.614969 -0.55236,-0.05801 -0.96718,-0.268748 -1.44533,-0.534821 -0.038,-0.005 -0.14696,0.0047 -0.11408,-0.01503 0.77553,-0.465646 1.58523,-0.872564 2.36265,-1.335048 0.0454,-0.02703 -0.10773,-0.05661 -0.1551,-0.03314 -2.50496,1.2407 -3.15625,2.05168 -2.50497,1.255533 0.23907,-0.407723 0.34916,-0.884045 0.58121,-1.296813 0,0 2.55911,-1.140759 2.55911,-1.140759 z"
       inkscape:connector-curvature="0"
       style="stroke-width:0.26458332" />
    <path
       id="path54"
       d="m 103.28536,53.772622 c 0.45905,-0.1857 0.86427,-0.383421 1.36591,-0.296132 0.0719,0.02769 0.14804,0.0463 0.21578,0.08306 0.0923,0.05007 0.35248,0.25813 0.43171,0.318595 0.24974,0.190595 0.49364,0.377148 0.75956,0.544684 0.60207,0.316593 1.24807,0.227264 1.86682,0.01275 0.28232,-0.122952 0.15162,-0.06008 0.39363,-0.185401 0,0 -2.19388,1.741032 -2.19388,1.741032 v 0 c -0.24853,0.09659 -0.11426,0.04861 -0.404,0.140616 -0.69511,0.15454 -1.36682,0.173085 -1.99871,-0.208862 -0.43127,-0.286706 -0.83229,-0.704578 -1.34621,-0.81846 -0.45536,0.0223 -0.87626,0.229672 -1.28292,0.421749 0,0 2.19231,-1.75364 2.19231,-1.75364 z"
       inkscape:connector-curvature="0"
       style="stroke-width:0.26458332" />
    <path
       id="path56"
       d="m 94.258814,50.235492 c 0.166899,0.583081 0.559909,0.617612 1.091586,0.593704 0.319035,-0.04876 0.589704,-0.287782 0.916692,-0.227883 0.215026,0.140605 0.477623,0.151866 0.725135,0.185235 0,0 -2.27657,1.604579 -2.27657,1.604579 v 0 c -0.243819,-0.03751 -0.489389,-0.105752 -0.729787,-0.130183 -0.293785,0.08783 -0.576159,0.222136 -0.893265,0.20234 -0.63423,-0.04844 -1.066387,-0.257863 -1.29671,-0.885267 0,0 2.462919,-1.342525 2.462919,-1.342525 z"
       inkscape:connector-curvature="0"
       style="stroke-width:0.26458332" />
    <path
       id="path58"
       d="m 123.21399,23.209379 c 1.37461,-0.285668 2.77086,-0.392314 4.17075,-0.448555 1.2095,0.0079 0.61335,-0.01015 1.78851,0.05178 0,0 -2.17514,1.563699 -2.17514,1.563699 v 0 c -1.15777,-0.05532 -0.56851,-0.04251 -1.76786,-0.03518 -1.42747,0.07215 -2.8531,0.209759 -4.24269,0.561451 0,0 2.22643,-1.693196 2.22643,-1.693195 z"
       inkscape:connector-curvature="0"
       style="stroke-width:0.26458332" />
    <path
       id="path60"
       d="m 123.93646,61.534992 c 1.29752,-0.475549 2.65042,-0.790091 3.99914,-1.082239 0.26985,-0.05132 0.53969,-0.102629 0.80953,-0.153942 0,0 -2.14344,1.620213 -2.14344,1.620213 v 0 c -0.26566,0.05136 -0.53131,0.102724 -0.79697,0.154085 -1.37905,0.312727 -2.76177,0.64892 -4.07293,1.187807 0,0 2.20467,-1.725924 2.20467,-1.725924 z"
       inkscape:connector-curvature="0"
       style="stroke-width:0.26458332" />
    <path
       id="path62"
       d="m 89.732669,79.517395 c 1.589754,-0.91382 3.10474,-2.040271 4.866452,-2.600415 0.255453,-0.08122 0.517827,-0.138816 0.776737,-0.208227 1.600523,-0.353105 3.246501,-0.391223 4.877962,-0.444018 0,0 -2.132409,1.560753 -2.132409,1.560753 v 0 c -1.63384,0.06189 -3.283178,0.120086 -4.876163,0.52411 -0.70775,0.216493 -0.795493,0.217591 -1.453983,0.515448 -0.21009,0.09503 -0.81453,0.431099 -0.618784,0.30923 3.358505,-2.090973 1.966902,-1.108158 1.172668,-0.679072 0,0 -2.61248,1.022191 -2.61248,1.022191 z"
       inkscape:connector-curvature="0"
       style="stroke-width:0.26458332" />
    <path
       id="path64"
       d="m 61.192409,53.408505 c 1.342213,-0.324919 2.722587,-0.3453 4.094874,-0.303077 0.292963,0.02307 0.585925,0.04612 0.878888,0.06918 0,0 -2.176457,1.557208 -2.176457,1.557208 v 0 c -0.290304,-0.01947 -0.580607,-0.03895 -0.870908,-0.05843 -1.387396,-0.0204 -2.802882,0.01222 -4.131064,0.461036 0,0 2.204667,-1.725922 2.204667,-1.725922 z"
       inkscape:connector-curvature="0"
       style="stroke-width:0.26458332" />
    <path
       id="path66"
       d="m 57.642328,21.01432 c 0.415438,0.335483 0.182951,0.1572 0.703252,0.527214 0,0 -2.308291,1.47475 -2.308291,1.47475 v 0 c -0.560372,-0.365919 -0.303961,-0.192873 -0.771441,-0.515853 0,0 2.37648,-1.486111 2.37648,-1.486111 z"
       inkscape:connector-curvature="0"
       style="stroke-width:0.26458332" />
    <path
       id="path74"
       d="m 89.372349,3.9643227 c 1.010674,-0.1132552 2.011243,-0.06887 3.012313,0.094911 1.096132,0.2378022 2.195925,0.4419071 3.305643,0.6043149 0,0 -2.180325,1.5360036 -2.180325,1.5360036 v 0 C 92.389771,6.0343001 91.278611,5.8274587 90.165051,5.623339 89.152631,5.4942485 88.137679,5.476862 87.126253,5.639275 c 0,0 2.246096,-1.6749512 2.246096,-1.6749512 z"
       inkscape:connector-curvature="0"
       style="stroke-width:0.26458332" />
  </g>
</svg>
