<?xml version="1.0" encoding="UTF-8" standalone="no"?>
<!-- Created with Inkscape (http://www.inkscape.org/) -->

<svg
   xmlns:dc="http://purl.org/dc/elements/1.1/"
   xmlns:cc="http://creativecommons.org/ns#"
   xmlns:rdf="http://www.w3.org/1999/02/22-rdf-syntax-ns#"
   xmlns:svg="http://www.w3.org/2000/svg"
   xmlns="http://www.w3.org/2000/svg"
   xmlns:sodipodi="http://sodipodi.sourceforge.net/DTD/sodipodi-0.dtd"
   xmlns:inkscape="http://www.inkscape.org/namespaces/inkscape"
   width="210mm"
   height="297mm"
   viewBox="0 0 210 297"
   version="1.1"
   id="svg423"
   inkscape:export-filename="/home/edward/Desktop/CAT125Project/resources/binary.png"
   inkscape:export-xdpi="96"
   inkscape:export-ydpi="96"
   inkscape:version="0.92.4 (5da689c313, 2019-01-14)"
   sodipodi:docname="binary.svg">
  <defs
     id="defs417" />
  <sodipodi:namedview
     id="base"
     pagecolor="#ffffff"
     bordercolor="#666666"
     borderopacity="1.0"
     inkscape:pageopacity="0.0"
     inkscape:pageshadow="2"
     inkscape:zoom="0.98994949"
     inkscape:cx="425.29288"
     inkscape:cy="851.97016"
     inkscape:document-units="mm"
     inkscape:current-layer="layer1"
     showgrid="false"
     inkscape:window-width="1850"
     inkscape:window-height="1016"
     inkscape:window-x="70"
     inkscape:window-y="27"
     inkscape:window-maximized="1" />
  <metadata
     id="metadata420">
    <rdf:RDF>
      <cc:Work
         rdf:about="">
        <dc:format>image/svg+xml</dc:format>
        <dc:type
           rdf:resource="http://purl.org/dc/dcmitype/StillImage" />
        <dc:title></dc:title>
      </cc:Work>
    </rdf:RDF>
  </metadata>
  <g
     inkscape:label="Layer 1"
     inkscape:groupmode="layer"
     id="layer1">
    <path
       id="path425"
       d="m 68.441709,28.320275 c -0.798012,-0.293053 -1.622081,-0.207793 -2.429261,-0.0072 -0.213418,0.0731 -0.43212,0.132281 -0.640255,0.219295 -0.755038,0.315658 -2.176949,1.153308 -1.65659,0.887206 0.746506,-0.381749 1.407033,-0.965391 2.213509,-1.194742 0.45592,-0.129659 -0.756563,0.572357 -1.115123,0.882372 -0.393825,0.340511 -0.760061,0.711682 -1.14009,1.067522 -1.698426,1.726941 -3.093257,3.74632 -3.941887,6.026552 -0.604792,1.625045 -0.593542,2.043782 -0.882028,3.743749 -0.283025,3.423094 0.442373,6.845067 2.24231,9.792425 0.364802,0.597355 0.812254,1.140126 1.218382,1.71019 0.485518,0.49685 0.93163,1.035531 1.456555,1.490546 2.062935,1.788191 4.697399,2.844673 7.419634,3.021438 0.631751,0.04102 1.265954,-0.02302 1.89893,-0.03454 1.68243,-0.345485 2.182125,-0.343302 3.771334,-1.111388 0.677251,-0.327324 1.399997,-0.622467 1.950138,-1.135454 0.278892,-0.260056 -1.272935,0.672931 -1.093359,0.336534 0.393007,-0.736211 1.253617,-1.105368 1.827315,-1.711444 0.55648,-0.58788 1.037929,-1.242496 1.556896,-1.863743 1.745898,-2.446655 2.74088,-5.052566 2.743459,-8.078968 0.0013,-1.641819 -0.195349,-2.245071 -0.506526,-3.831762 -0.569907,-2.081852 -1.361207,-4.198469 -2.916274,-5.762132 -0.835094,-0.839711 -1.140987,-0.908939 -2.162242,-1.459304 -2.630085,-0.939843 -5.324451,-0.253731 -7.911369,0.478168 -1.125913,0.344207 -2.21437,0.795147 -3.314867,1.211029 0,0 3.076162,-2.405221 3.076162,-2.405221 v 0 c 1.073013,-0.384159 2.135804,-0.80101 3.234966,-1.10695 2.663393,-0.698061 5.417309,-1.315665 8.073479,-0.234344 1.06503,0.616042 1.354905,0.682286 2.216918,1.593289 1.555649,1.64406 2.351775,3.8184 2.933115,5.960326 0.31609,1.618031 0.517184,2.254364 0.527119,3.927899 0.01839,3.097096 -0.952421,5.783238 -2.711617,8.311266 -0.952995,1.172088 -2.111915,2.749412 -3.350742,3.655777 -1.607285,1.175941 -3.325783,2.192798 -5.019283,3.240778 -1.826839,1.130493 -3.728495,1.946045 -5.887558,2.140029 -1.769362,-0.01865 -2.138048,0.07872 -3.886335,-0.355502 -2.800871,-0.695663 -5.185278,-2.242293 -7.047609,-4.434348 -0.415112,-0.584472 -0.871757,-1.141566 -1.24534,-1.75342 -1.833984,-3.003677 -2.615301,-6.489202 -2.378385,-9.983618 0.267727,-1.721485 0.256741,-2.171319 0.836226,-3.822538 0.808231,-2.303024 2.160887,-4.364937 3.825518,-6.13596 0.511371,-0.502468 1.549837,-1.578854 2.179098,-1.988931 1.396299,-0.909942 2.84649,-1.734519 4.279437,-2.585583 0.766088,-0.454998 1.565851,-0.860008 2.437892,-1.065934 0.893633,-0.153373 1.785911,-0.190486 2.635059,0.184403 0,0 -3.316711,2.182278 -3.316711,2.182278 z"
       inkscape:connector-curvature="0"
       style="stroke-width:0.26458332" />
    <path
       id="path427"
       d="m 141.508,26.373217 c 0.091,-0.626953 0.21776,-1.259135 0.15264,-1.893916 0.04,-0.405631 -0.2114,0.03904 -0.15887,0.01241 1.10392,-0.559659 2.15806,-1.213332 3.25537,-1.785847 0.0841,-0.0439 -0.15043,0.119244 -0.20705,0.195399 -0.0849,0.114152 -0.14207,0.246476 -0.21311,0.369715 -0.57661,1.584157 -0.64458,3.311876 -0.82626,4.975907 -0.31379,3.225562 -0.49849,6.461493 -0.62412,9.699284 -0.156,4.138673 -0.10854,8.280749 -0.17002,12.420919 -0.0282,2.742187 -0.20897,5.47927 -0.31062,8.219038 -0.094,0.699196 -0.0368,1.455933 -0.28602,2.128581 -0.55853,1.28678 -2.47095,2.67716 -3.7071,2.025579 0,0 3.25461,-2.331305 3.25461,-2.331305 v 0 c 1.03667,-0.907418 -4.70249,2.057011 -3.21256,1.876864 0.43605,-0.239559 0.40418,-1.552517 0.50956,-1.971138 0.21549,-2.760657 0.42845,-5.523962 0.48955,-8.293113 0.097,-4.14192 0.067,-8.285834 0.17184,-12.427791 0.092,-3.221011 0.22274,-6.44162 0.47867,-9.654291 0.15571,-1.682967 0.22165,-3.40106 0.65654,-5.039714 0.034,-0.09051 0.24042,-0.681484 0.31046,-0.72535 0.20633,-0.129223 3.4438,-3.395442 4.10297,-1.533408 0.0751,0.666372 -0.0322,1.317934 -0.10562,1.981018 0,0 -3.56086,1.751157 -3.56086,1.751157 z"
       inkscape:connector-curvature="0"
       style="stroke-width:0.26458332" />
    <path
       id="path429"
       d="m 26.261996,88.197612 c -0.807421,0.824841 -1.762176,1.482392 -2.67859,2.177518 -1.527295,1.107705 -2.820256,2.475466 -3.940034,3.9853 -1.139583,1.658813 -1.765281,3.596203 -1.76943,5.616511 -0.0011,0.535329 0.06891,1.068439 0.10337,1.602659 0.429622,2.46808 1.47179,4.78169 3.269065,6.56374 1.233832,1.22338 1.655092,1.33065 3.144384,2.17036 2.109736,0.87526 4.399379,1.19496 6.62007,0.52428 0.484838,-0.14642 1.78668,-0.90902 1.406763,-0.5741 -0.542777,0.47848 -1.276665,0.68142 -1.914999,1.02214 1.725456,-1.35859 2.919315,-3.20258 3.439181,-5.34447 0.379362,-1.56299 0.272534,-2.02706 0.257307,-3.63874 -0.357565,-3.192284 -1.636715,-6.140279 -3.799239,-8.525691 -0.358942,-0.395938 -0.765728,-0.745715 -1.148591,-1.118571 -1.47775,-1.187572 -3.151009,-2.331297 -5.086298,-2.560339 -0.234656,-0.02777 -0.472327,-0.01569 -0.708491,-0.02352 -0.834719,0.05334 -1.609628,0.387824 -2.376957,0.694661 0,0 3.105235,-2.433175 3.105235,-2.433175 v 0 c 0.785012,-0.282564 1.577695,-0.561488 2.42724,-0.518181 0.240271,0.02792 0.483253,0.03819 0.720809,0.08376 1.945421,0.373168 3.608303,1.559525 5.086475,2.814661 0.38246,0.389755 0.788334,0.757841 1.147384,1.169265 2.163246,2.478807 3.474982,5.488826 3.894775,8.74645 0.05157,1.64844 0.168905,2.1251 -0.17471,3.73383 -0.467685,2.18962 -1.61699,4.11036 -3.302979,5.57093 -1.501394,0.87667 -2.967254,1.81725 -4.504184,2.63002 -1.859349,0.98326 -4.42633,0.96405 -6.399847,0.40455 -0.602801,-0.17089 -1.172326,-0.44266 -1.75849,-0.66399 -1.510206,-0.88846 -1.951723,-1.01944 -3.207657,-2.28108 -1.833351,-1.84167 -2.925381,-4.21079 -3.433122,-6.7337 -0.05177,-0.5448 -0.13885,-1.08739 -0.155321,-1.6344 -0.06182,-2.053224 0.491371,-4.05189 1.601939,-5.774348 1.078517,-1.543855 2.355504,-2.939952 3.864137,-4.077362 0.883558,-0.674375 1.812194,-1.309282 2.604705,-2.090417 0,0 3.6661,-1.518549 3.6661,-1.518549 z"
       inkscape:connector-curvature="0"
       style="stroke-width:0.26458332" />
    <path
       id="path449"
       d="m 44.151338,89.805736 c -0.272518,0.189487 -10.028132,5.698496 -2.17651,1.244852 -1.176764,0.94084 -1.269709,2.517579 -1.372283,3.912727 -0.05597,2.31961 0.371912,4.60847 0.851376,6.866795 0.416476,1.78697 0.836475,3.60208 1.650537,5.25924 0.150535,0.30644 0.330296,0.59764 0.495443,0.89646 0.682199,0.9233 1.577935,1.81107 2.815262,1.80258 0.740079,-0.005 1.118407,-0.23939 1.795984,-0.51417 -0.759979,0.42343 -1.463241,0.97052 -2.279941,1.27029 -0.406855,0.14934 0.698965,-0.51529 1.019061,-0.80748 1.065477,-0.97258 1.930485,-2.16787 2.596195,-3.44326 0.241861,-0.46336 0.435316,-0.95043 0.652973,-1.42564 1.010862,-2.70388 1.524987,-5.576901 1.562002,-8.462746 0.0077,-0.603089 -0.02899,-1.205931 -0.04349,-1.808895 -0.154064,-2.111357 -0.481142,-4.277998 -1.563467,-6.139559 -0.575691,-0.990166 -0.870662,-1.184637 -1.660737,-1.971508 -1.672206,-1.273609 -3.500144,-1.638758 -5.546027,-1.151049 -0.396721,0.09457 -0.778256,0.244232 -1.167384,0.366348 0.672209,-0.496255 -2.916853,1.468599 -2.177033,1.12304 0.770723,-0.359993 1.449469,-0.931842 2.263624,-1.178341 0.369347,-0.111826 -0.593646,0.493938 -0.875112,0.757944 -0.689944,0.647147 -0.767652,0.788898 -1.342144,1.496372 -0.517261,0.723366 -0.977395,1.550736 -0.763932,2.469677 0.04102,0.17658 0.122854,0.341116 0.184283,0.511675 0,0 -3.413292,1.893432 -3.413292,1.893432 v 0 c -0.538782,-1.440497 -0.377201,-2.068377 0.466802,-3.366677 0.564832,-0.727546 1.462503,-1.860431 2.218616,-2.365867 1.370372,-0.916049 2.795156,-1.748266 4.207607,-2.598 0.978173,-0.588467 1.173128,-0.621268 2.228834,-1.054407 0.401463,-0.108505 0.796071,-0.246655 1.204394,-0.325511 2.148737,-0.414973 4.038354,0.08378 5.733434,1.45084 0.812027,0.846995 1.10423,1.049152 1.696537,2.098119 1.085136,1.921762 1.419582,4.13756 1.579041,6.304198 0.01805,0.611029 0.05751,1.221801 0.05413,1.833089 -0.01609,2.912806 -0.492662,5.819006 -1.460934,8.567196 -0.208579,0.48536 -0.392893,0.98188 -0.62574,1.45608 -0.64063,1.30466 -1.478259,2.52273 -2.509351,3.55039 -1.60003,1.59471 -2.907646,1.96204 -5.253778,3.30325 -0.788961,0.24808 -1.111578,0.44106 -1.944219,0.36211 -1.312013,-0.12439 -2.247625,-1.08854 -2.965119,-2.10048 -0.168889,-0.3102 -0.352147,-0.61299 -0.506669,-0.93059 -0.818841,-1.68303 -1.259811,-3.51834 -1.676665,-5.33226 -0.480827,-2.28606 -0.90832,-4.598884 -0.922655,-6.943187 0.05489,-1.442175 0.0987,-3.077758 1.142196,-4.19036 1.242274,-0.740854 2.482323,-1.485453 3.72682,-2.222563 0.171762,-0.101735 0.606885,-0.332153 0.784199,-0.426175 0.120927,-0.06413 0.481208,-0.260914 0.363257,-0.191471 -2.27652,1.340286 -4.13157,2.380175 -2.740734,1.599088 0,0 3.694607,-1.445596 3.694607,-1.445596 z"
       inkscape:connector-curvature="0"
       style="stroke-width:0.26458332" />
    <path
       id="path451"
       d="m 76.748131,89.42883 c -0.110471,0.04236 -0.226761,0.07189 -0.331412,0.127092 -0.140152,0.07392 -0.538583,0.333412 -0.399108,0.258218 0.960168,-0.51765 1.874353,-1.123823 2.862326,-1.586196 0.217824,-0.101941 -0.364093,0.315894 -0.526677,0.493109 -0.443529,0.483447 -0.650192,0.850374 -1.013566,1.403578 -0.833604,1.454017 -1.664549,2.973268 -2.066739,4.615682 -0.07058,0.288245 -0.102317,0.58464 -0.153477,0.876962 -0.128826,1.687576 0.481896,3.219696 1.538914,4.521735 0.247137,0.30442 0.534104,0.57421 0.801156,0.86132 1.139968,1.05498 2.474076,1.9944 4.026937,2.31276 0.966878,0.19822 1.249355,0.0944 2.21619,-0.006 -0.52478,0.53355 3.018237,-1.31847 2.262021,-0.99266 -0.715524,0.30827 -1.317655,1.03391 -2.096757,1.03278 -0.498203,-8e-4 0.741825,-0.66746 1.078957,-1.03426 0.934284,-1.01652 1.09446,-1.38491 1.833013,-2.549647 1.25826,-2.287262 1.837353,-4.823923 1.555408,-7.430698 -0.05697,-0.526743 -0.180623,-1.044123 -0.270933,-1.566183 -0.647978,-2.440006 -1.669418,-4.942417 -3.567316,-6.693702 -0.314399,-0.29011 -0.680236,-0.518959 -1.020355,-0.778438 -0.370552,-0.160737 -0.723564,-0.370271 -1.111655,-0.482211 -1.259975,-0.363421 -2.562979,-0.131691 -3.751411,0.35597 -0.461243,0.189267 -1.772938,0.912392 -1.336934,0.670592 0.619109,-0.343347 1.257726,-0.65028 1.886588,-0.975418 -1.839328,1.400812 -3.423672,3.173534 -4.380302,5.297837 -0.127516,0.283165 -0.218141,0.581538 -0.32721,0.87231 -0.195061,0.767461 -0.537681,1.736441 -0.0042,2.440019 0.348453,0.240996 0.821145,0.186161 1.226322,0.190275 0.09953,-2.62e-4 0.199051,-5.29e-4 0.298577,-7.94e-4 0,0 -3.200852,2.322198 -3.200852,2.322198 v 0 c -0.101521,-0.0016 -0.203039,-0.0033 -0.304559,-0.0049 -0.534837,-0.02355 -1.064295,-0.05887 -1.437601,-0.49384 -0.611973,-0.932034 -0.320098,-1.812859 -0.05461,-2.833288 0.111897,-0.309039 0.203475,-0.626208 0.335692,-0.927116 0.956382,-2.176563 2.548673,-4.019981 4.379272,-5.506363 2.231023,-1.342009 5.57025,-4.003854 8.592913,-3.757212 1.126389,0.09191 1.388306,0.336478 2.383033,0.823542 0.344922,0.281643 0.715021,0.535003 1.034767,0.844933 1.900732,1.842379 2.960804,4.382604 3.641714,6.889192 0.09977,0.535096 0.233609,1.064948 0.299302,1.605285 0.323678,2.662328 -0.217249,5.271418 -1.462637,7.634851 -0.723165,1.20386 -0.866585,1.559655 -1.7818,2.623206 -1.63908,1.90473 -2.640523,2.16043 -5.380328,3.79088 -0.378436,0.2252 -0.777587,0.41938 -1.189958,0.57391 -0.384112,0.14394 -0.792607,0.21169 -1.188908,0.31754 -1.034307,0.0478 -1.279533,0.13421 -2.298986,-0.11954 -1.590172,-0.3958 -2.945895,-1.37766 -4.123423,-2.47688 -0.278886,-0.2998 -0.577326,-0.58254 -0.836663,-0.8994 -1.12155,-1.37035 -1.79865,-2.977403 -1.71583,-4.763552 0.04677,-0.309409 0.07135,-0.622996 0.140311,-0.928227 0.376886,-1.668198 1.22179,-3.208906 2.015739,-4.704302 0.305199,-0.506312 0.930275,-1.669458 1.433332,-2.002571 1.240473,-0.821414 2.53374,-1.560642 3.817623,-2.312397 0.370572,-0.216985 0.490056,-0.201459 0.884711,-0.263118 0,0 -3.21064,2.332665 -3.21064,2.332665 z"
       inkscape:connector-curvature="0"
       style="stroke-width:0.26458332" />
    <path
       id="path453"
       d="m 96.642464,84.345377 c 0.754732,-1.328764 2.944508,-4.330338 4.325216,-2.818511 0.0338,0.114239 0.084,0.224869 0.10139,0.34272 0.0636,0.42985 -0.0466,0.950896 -0.0936,1.373447 -0.13064,1.17629 -0.0318,0.201599 -0.15789,1.510098 -0.21673,2.545157 -0.22205,5.099622 -0.18795,7.651512 0.0174,3.385987 0.14685,6.768484 0.40809,10.144147 0.0565,1.02773 0.19202,2.04767 0.333,3.06627 0,0 -3.416731,1.79229 -3.416731,1.79229 v 0 c -0.104902,-1.04305 -0.208865,-2.08678 -0.243131,-3.13524 -0.193434,-3.38894 -0.326975,-6.779828 -0.388292,-10.173943 -0.06961,-2.540177 -0.118285,-5.081992 0.04148,-7.620423 0.04489,-0.683228 0.121817,-1.364456 0.165862,-2.047277 0.01529,-0.2369 -0.02434,-0.478965 0.02172,-0.711851 0.0044,-0.02217 0.03461,-0.02909 0.05192,-0.04364 0.434001,1.316831 -0.01421,0.06961 3.321062,-1.861667 0.0615,-0.03558 -0.10667,0.09459 -0.15197,0.149278 -0.19216,0.231997 -0.33403,0.504619 -0.51292,0.746228 0,0 -3.617266,1.636562 -3.617266,1.636562 z"
       inkscape:connector-curvature="0"
       style="stroke-width:0.26458332" />
    <path
       id="path455"
       d="m 125.76152,83.067127 c -0.21493,1.578184 -0.0482,3.185993 0.0159,4.770781 0.0607,2.99094 -0.12192,5.979105 -0.22325,8.967243 -0.0917,2.428478 0.13493,4.849119 0.5484,7.239189 0.22629,1.01355 0.45976,2.02452 0.6561,3.04449 0.0134,0.0714 0.0268,0.14282 0.0403,0.21423 0,0 -3.50952,1.85493 -3.50952,1.85493 v 0 c -0.008,-0.0725 -0.0166,-0.14496 -0.0249,-0.21744 -0.13764,-1.04074 -0.36538,-2.06403 -0.56682,-3.09368 -0.34827,-2.437 -0.56174,-4.89535 -0.47295,-7.360009 0.10822,-2.967953 0.28453,-5.937914 0.17906,-8.90855 -0.0958,-1.583674 -0.27783,-3.172767 -0.2031,-4.760026 0,0 3.56086,-1.751158 3.56086,-1.751158 z"
       inkscape:connector-curvature="0"
       style="stroke-width:0.26458332" />
    <path
       id="path457"
       d="m 135.77156,88.618948 c -0.77752,-0.676452 -1.40659,-1.498555 -2.03419,-2.310164 -0.18237,-0.221155 -0.77769,-1.270723 -1.15739,-1.150366 -0.0494,0.01566 -0.0799,0.0661 -0.11979,0.09915 6.20249,-3.35144 3.54615,-2.513915 2.85196,-1.282933 -0.28152,0.499198 -0.48572,1.046856 -0.70411,1.574851 -0.56769,1.369366 -1.18186,2.743512 -1.42691,4.217392 -0.0634,0.381124 -0.084,0.768135 -0.12594,1.152205 -0.0802,2.515729 0.6085,4.983456 1.77544,7.203233 0.26896,0.51162 0.58876,0.994849 0.88314,1.492274 1.49156,2.10716 3.37349,3.969 5.75493,5.04034 0.39898,0.17949 0.81888,0.30826 1.22833,0.46239 1.51549,0.41023 3.12756,0.61168 4.66317,0.16339 0.35352,-0.1032 1.3355,-0.60868 1.02683,-0.4078 -0.74808,0.48685 -1.57057,0.84848 -2.35585,1.27272 0.26634,-0.25871 0.56951,-0.48426 0.79903,-0.77613 1.19575,-1.52055 1.27038,-3.60893 0.98096,-5.438125 -0.097,-0.613092 -0.27781,-1.209952 -0.41671,-1.81493 -1.10188,-3.920456 -3.28282,-7.364492 -5.71425,-10.582836 -1.30974,-1.603764 -2.7203,-3.394977 -4.80026,-4.001497 -0.29338,-0.08555 -0.60014,-0.115703 -0.90021,-0.173554 -1.76483,-0.09868 -3.38125,0.517634 -4.87499,1.397524 2.92231,-1.625899 3.5838,-2.19107 2.32384,-1.188564 0,0 -3.62251,1.46032 -3.62251,1.46032 v 0 c 1.58749,-1.358418 0.27722,-0.279746 4.313,-2.705758 1.55773,-0.824283 3.22972,-1.373153 5.01601,-1.15129 0.30937,0.07887 0.62707,0.130268 0.92811,0.236596 2.08421,0.73615 3.47698,2.573089 4.78104,4.250227 2.40856,3.288495 4.5885,6.78452 5.77851,10.716498 0.15546,0.615452 0.35041,1.222256 0.46638,1.846355 0.34992,1.883154 0.36569,4.030634 -0.74717,5.684604 -0.21318,0.31684 -0.50605,0.57206 -0.75908,0.85809 -1.39888,0.81787 -2.76658,1.69154 -4.19662,2.45361 -0.33038,0.17605 -0.70217,0.26621 -1.06675,0.35122 -1.58597,0.36977 -3.21997,0.11964 -4.75215,-0.35081 -0.41488,-0.16896 -0.84112,-0.31233 -1.24463,-0.50689 -2.39859,-1.15652 -4.29258,-3.0896 -5.80422,-5.24577 -0.30184,-0.50707 -0.62779,-1.00054 -0.9055,-1.521217 -1.20501,-2.259187 -1.96555,-4.760164 -1.95648,-7.331482 0.0294,-0.39473 0.0364,-0.791787 0.0883,-1.184191 0.19605,-1.480957 0.77391,-2.871028 1.32952,-4.244107 0.20781,-0.535961 0.41568,-1.07351 0.6445,-1.601009 0.0253,-0.05831 0.27914,-0.621353 0.32421,-0.649309 1.17543,-0.72916 2.40349,-1.369859 3.60524,-2.054789 0.70813,0.177567 1.05593,0.872165 1.45031,1.429936 0.60894,0.794715 1.22529,1.604179 2.0338,2.208916 0,0 -3.36085,2.101678 -3.36085,2.101678 z"
       inkscape:connector-curvature="0"
       style="stroke-width:0.26458332" />
    <path
       id="path459"
       d="m 178.13846,81.791711 c -0.18906,1.917967 -0.11343,3.858279 -0.11224,5.784231 0.0414,3.508973 -0.0845,7.01616 -0.15425,10.523889 -0.0634,3.232549 -0.0764,6.465929 -0.0552,9.698959 -0.006,1.15975 -0.0597,2.31838 -0.10727,3.47693 0,0 -3.4832,1.74654 -3.4832,1.74654 v 0 c 0.10264,-1.16842 0.1856,-2.33868 0.22633,-3.5111 0.0478,-3.25037 0.0832,-6.50093 0.14468,-9.751098 0.0711,-3.491454 0.17718,-6.984007 0.0852,-10.476121 -0.0379,-1.910842 -0.12859,-3.824825 -0.0891,-5.735055 0,0 3.54509,-1.757175 3.54509,-1.757175 z"
       inkscape:connector-curvature="0"
       style="stroke-width:0.26458332" />
    <path
       id="path461"
       d="m 198.7261,77.187199 c -0.16337,1.010923 -0.22636,2.036853 -0.21788,3.059965 0.0812,1.951746 0.20646,3.900177 0.27106,5.852842 0.14758,3.176032 0.25581,6.353564 0.34902,9.531591 0.0468,1.551821 0.0833,3.104017 0.14582,4.655323 0,0 -3.51763,1.79375 -3.51763,1.79375 v 0 c 0.0515,-1.57984 0.0504,-3.160887 0.038,-4.741355 -0.0438,-3.174867 -0.14266,-6.348838 -0.36018,-9.517107 -0.1,-1.935144 -0.27613,-3.862819 -0.3977,-5.796211 -0.0378,-1.031298 0.0425,-2.059932 0.12864,-3.087643 0,0 3.56086,-1.751155 3.56086,-1.751155 z"
       inkscape:connector-curvature="0"
       style="stroke-width:0.26458332" />
    <path
       id="path463"
       d="m 25.376597,123.4249 c -0.947388,-0.45351 -1.645757,-0.1441 -2.490703,0.35361 0.926507,-0.5181 1.825319,-1.08918 2.77952,-1.55431 0.239741,-0.11687 -0.424724,0.32376 -0.622399,0.50281 -0.223055,0.20204 -0.435156,0.41651 -0.63801,0.63883 -0.8246,0.9037 -1.363704,1.77257 -1.963747,2.8327 -1.191202,2.5395 -1.680382,5.34577 -1.739969,8.138 -0.01295,0.60667 0.0203,1.21344 0.03044,1.82016 0.09448,1.59702 0.34365,3.19118 0.875242,4.70546 0.349166,0.99462 0.561833,1.30133 1.053318,2.19914 0,0 -3.294949,1.88764 -3.294949,1.88764 v 0 c -0.488874,-0.93986 -0.70024,-1.26093 -1.044981,-2.29619 -0.517983,-1.55552 -0.76611,-3.18819 -0.862058,-4.82012 -0.01364,-0.61512 -0.04954,-1.23014 -0.04093,-1.84535 0.03939,-2.81194 0.47411,-5.64357 1.576391,-8.24258 0.196115,-0.37867 0.372233,-0.76839 0.588346,-1.13602 0.512047,-0.87104 1.166725,-1.7123 1.878748,-2.42998 0.185942,-0.18742 0.363134,-0.39122 0.585848,-0.53299 1.271116,-0.80913 2.589439,-1.5416 3.884159,-2.31239 1.027342,-0.47706 1.725371,-0.57847 2.767935,-0.068 0,0 -3.322209,2.15957 -3.322209,2.15957 z"
       inkscape:connector-curvature="0"
       style="stroke-width:0.26458332" />
    <path
       id="path465"
       d="m 31.813568,130.0965 c -0.349482,-0.10607 -0.684276,-0.17438 -1.02526,0.0118 -0.130487,0.0712 -0.485791,0.33936 -0.352978,0.27258 3.080374,-1.54893 3.567644,-2.59596 2.677504,-1.06941 -0.425873,1.33085 -0.462415,2.87344 0.05589,4.19318 0.107294,0.2732 0.271481,0.52048 0.407223,0.78072 0.892834,1.29107 2.288215,1.91798 3.846571,1.90977 0.338021,-0.002 0.673732,-0.0559 1.010597,-0.0839 0.902668,-0.19524 1.139005,-0.19743 1.9901,-0.57872 0.314344,-0.14083 1.21733,-0.64523 0.911345,-0.48707 -4.000519,2.06782 -2.714022,1.78943 -1.863532,0.61766 0.176606,-0.24331 0.294428,-0.52429 0.441642,-0.78644 0.07877,-0.28862 0.194969,-0.56956 0.2363,-0.86586 0.188886,-1.35419 -0.438661,-2.68601 -1.284074,-3.7067 -0.243205,-0.29363 -0.53472,-0.54363 -0.802081,-0.81545 -1.456698,-1.11813 -3.278989,-1.92415 -5.136912,-1.36448 -0.312492,0.0941 -0.596432,0.26517 -0.894649,0.39775 4.095152,-2.22304 2.775556,-1.77502 1.849908,-0.7536 -0.515937,0.56931 -0.913619,1.26772 -1.003159,2.03475 0,0 -3.534066,1.75691 -3.534066,1.75691 v 0 c 0.05031,-0.58781 0.21164,-1.08257 0.50951,-1.601 1.151568,-2.00424 3.059436,-2.67876 5.190715,-3.80228 0.315201,-0.10695 0.619948,-0.252 0.945603,-0.32084 1.957662,-0.41381 3.817881,0.48861 5.312388,1.67294 0.280197,0.28875 0.583986,0.55634 0.840592,0.86624 0.91113,1.10036 1.589688,2.51221 1.467811,3.97291 -0.02688,0.32213 -0.131173,0.63305 -0.19676,0.94957 -0.136578,0.28937 -0.241089,0.59618 -0.409734,0.86811 -1.026578,1.65531 -3.063912,2.3289 -4.653248,3.26754 -0.91367,0.53961 -1.954708,0.80603 -2.996531,0.9429 -0.350893,0.0127 -0.701897,0.0536 -1.052684,0.0382 -1.67005,-0.0734 -3.128733,-0.83073 -4.062072,-2.22227 -0.146904,-0.28352 -0.322262,-0.55404 -0.440719,-0.85058 -0.554254,-1.38751 -0.546933,-2.985 -0.232865,-4.42149 0.7928,-1.94288 0.124251,-0.6359 3.924266,-3.00624 0.526664,-0.32852 1.140079,-0.19797 1.664509,0.0436 0,0 -3.341145,2.1393 -3.341145,2.1393 z"
       inkscape:connector-curvature="0"
       style="stroke-width:0.26458332" />
    <path
       id="path467"
       d="m 45.61904,116.42565 c 0.160165,0.75397 0.877247,0.90294 1.518168,1.09345 1.586881,0.38944 2.51805,1.51769 3.420676,2.79613 1.435209,2.23125 1.889123,4.81037 2.194833,7.39586 0.284633,2.75494 0.182139,5.52489 0.114607,8.28729 -0.06575,1.54777 -0.117192,3.16452 -0.852548,4.56912 -0.108644,0.20751 -0.247225,0.39793 -0.370835,0.5969 -1.170022,1.49957 -2.587294,1.87501 -4.454253,2.96579 0,0 3.062158,-2.47533 3.062158,-2.47533 v 0 c -1.002223,0.58975 -2.004446,1.17951 -3.006667,1.76926 0.139399,-0.0916 0.290468,-0.16756 0.418196,-0.27485 0.153715,-0.12913 0.280881,-0.2869 0.421319,-0.43035 0.134745,-0.18314 0.284483,-0.35615 0.404233,-0.54942 0.826202,-1.33347 0.909733,-2.9415 0.999808,-4.46272 0.102026,-2.74959 0.225846,-5.50828 -0.06186,-8.25193 -0.292455,-2.51976 -0.725943,-5.03789 -2.161548,-7.19273 -0.971301,-1.30183 -1.749211,-2.14474 -3.375268,-2.52864 -0.798875,-0.25314 -1.514642,-0.5925 -1.780757,-1.45634 0,0 3.509735,-1.85149 3.509735,-1.85149 z"
       inkscape:connector-curvature="0"
       style="stroke-width:0.26458332" />
    <path
       id="path469"
       d="m 77.956864,118.80001 c 0.354306,-0.6373 0.840534,-1.17364 1.298829,-1.73357 0.04298,-0.0518 0.408453,-0.53868 0.419045,-0.51864 0.109685,0.20754 0.06408,0.18804 -0.06169,0.3207 -0.08431,0.0376 -0.16986,0.0726 -0.252947,0.1128 -0.430665,0.20858 -0.902319,0.48665 -0.841047,0.45119 4.907169,-2.8401 3.179467,-1.89958 2.12371,-1.1662 -0.226367,0.15725 -0.44604,0.32392 -0.66906,0.48588 -1.634587,1.16621 -2.669947,2.8328 -3.519437,4.61198 -0.768347,1.93626 -1.108599,4.02137 -0.842724,6.09799 0.05525,0.43153 0.161721,0.85495 0.24258,1.28243 0.637009,2.63271 1.979954,4.67516 3.783061,6.64412 0.73792,0.64302 1.567508,1.49839 2.610098,1.60254 0.150487,0.015 0.301244,-0.0272 0.451866,-0.0408 0,0 -3.178704,2.29873 -3.178704,2.29873 v 0 c -0.167227,-0.0206 -0.338561,-0.0197 -0.501679,-0.062 -1.056367,-0.27349 -1.876266,-1.10173 -2.632599,-1.83075 -1.794534,-2.04771 -3.183662,-4.15758 -3.856955,-6.8365 -0.08785,-0.44035 -0.200846,-0.87642 -0.263531,-1.32105 -0.298611,-2.11806 2.49e-4,-4.24927 0.721366,-6.25259 0.804426,-1.81231 1.795145,-3.54303 3.398654,-4.76996 1.866853,-1.40655 2.519866,-1.67951 5.178701,-3.19331 0.247856,-0.14112 0.636367,-0.33339 0.917572,-0.43119 0.09875,-0.0344 0.202552,-0.0519 0.303829,-0.0779 0.785797,0.15692 0.462759,0.64705 0.100163,1.03084 -0.41325,0.58396 -0.994444,1.04011 -1.294431,1.70498 0,0 -3.634669,1.59029 -3.634669,1.59029 z"
       inkscape:connector-curvature="0"
       style="stroke-width:0.26458332" />
    <path
       id="path471"
       d="m 86.000131,123.85801 c 1.515975,-1.8493 1.074978,-1.16576 4.42304,-3.08188 0.341257,0.36355 0.201147,0.73419 0.143065,1.16974 -0.09359,1.17346 -0.0959,2.35183 -0.149907,3.52748 -0.1537,1.98527 -0.122312,3.97375 -0.03959,5.96089 0.03898,0.44873 0.04562,0.89786 0.02604,1.34729 0,0 -3.544445,1.75848 -3.544445,1.75848 v 0 c 0.07742,-0.44414 0.11694,-0.88836 0.07793,-1.34074 -0.0279,-1.99905 -0.06524,-3.99896 0.05404,-5.99611 0.03193,-1.16356 -0.0068,-2.32609 0.02506,-3.4895 0.0092,-0.16576 -0.02442,-0.99915 0.262287,-0.48057 1.108408,-0.64719 2.216817,-1.29437 3.325225,-1.94156 -0.121647,0.0828 -0.207206,0.13375 -0.314568,0.24451 -0.232074,0.2394 -0.417695,0.52387 -0.639916,0.77192 0,0 -3.648247,1.55005 -3.648247,1.55005 z"
       inkscape:connector-curvature="0"
       style="stroke-width:0.26458332" />
    <path
       id="path473"
       d="m 88.948886,115.3171 c 3.768077,-2.24421 3.228329,-2.31632 6.520106,-2.14454 1.326028,0.0816 2.707388,0.0118 3.971271,0.50033 0.272947,0.10549 0.525875,0.25686 0.788817,0.38528 1.90024,1.13039 2.85692,3.1003 3.62965,5.08594 0.48066,1.56084 0.82177,3.18348 0.80798,4.82449 -0.009,1.10643 -0.10682,1.48554 -0.27246,2.5817 -0.45592,2.51247 -1.48835,4.85105 -2.58319,7.1391 -0.50549,1.0131 -1.03292,2.01872 -1.66822,2.95752 -0.815549,1.14167 -2.365232,2.59367 -3.694226,2.05251 0,0 3.239754,-2.3455 3.239754,-2.3455 v 0 c 0.842362,-1.14062 -4.607544,2.62673 -3.199741,1.84115 0.794218,-0.75038 1.279933,-2.02491 1.852647,-2.93224 1.126535,-2.2527 2.189236,-4.56022 2.664186,-7.05171 0.17128,-1.05417 0.2738,-1.44592 0.29484,-2.51094 0.0316,-1.59972 -0.29574,-3.18524 -0.75846,-4.70819 -0.750313,-1.93503 -1.644708,-3.75058 -3.526459,-4.80466 -0.252672,-0.10919 -0.497528,-0.23863 -0.758016,-0.32758 -1.264073,-0.43166 -2.627405,-0.33712 -3.938621,-0.41846 -0.61608,-0.0194 -1.24469,-0.0662 -1.859304,0.009 -1.440831,0.17717 -3.416491,1.6838 2.184051,-1.57919 0,0 -3.694605,1.44559 -3.694605,1.44559 z"
       inkscape:connector-curvature="0"
       style="stroke-width:0.26458332" />
    <path
       id="path475"
       d="m 135.30796,113.32095 c -1.37052,1.34087 -3.11107,2.49087 -5.01925,2.78691 -0.0971,0.009 -0.19481,0.0139 -0.29129,0.0283 -0.36114,0.054 -0.69798,0.16054 -1.01885,0.33668 -0.14175,0.0778 -0.55373,0.33411 -0.41298,0.2545 0.96475,-0.54567 1.92349,-1.10189 2.88523,-1.65284 -1.13928,0.70907 -2.0028,1.72655 -2.77849,2.80285 -1.27596,1.993 -1.61535,4.33615 -1.89422,6.63748 -0.17838,2.22523 -0.18582,4.48029 0.1861,6.68835 0.2155,1.27943 0.37855,1.67737 0.75005,2.89161 0.61115,1.52505 1.4131,3.09785 2.79368,4.07228 0.17794,0.1256 0.37555,0.22072 0.56333,0.33108 0.4497,0.26463 0.93763,0.43032 1.43385,0.57874 0,0 -3.25011,2.20433 -3.25011,2.20433 v 0 c -0.50251,-0.18635 -0.9973,-0.38817 -1.45149,-0.67856 -0.19366,-0.12963 -0.39782,-0.24481 -0.58101,-0.38887 -1.38154,-1.0864 -2.18419,-2.71692 -2.79574,-4.32146 -0.36892,-1.25551 -0.52356,-1.64749 -0.74301,-2.96637 -0.37089,-2.22894 -0.38753,-4.50325 -0.25114,-6.75271 0.23287,-2.32287 0.50807,-4.68621 1.68938,-6.75051 0.74275,-1.11028 1.58095,-2.15879 2.6812,-2.93789 0.0534,-0.0311 3.26751,-2.18152 4.68077,-2.5861 0.31358,-0.0898 0.63895,-0.11559 0.95729,-0.18128 0.23329,-0.0614 0.32485,-0.076 0.54802,-0.1738 0.0921,-0.0404 0.35571,-0.18781 0.26923,-0.13642 -5.93296,3.52538 -3.54092,2.33089 -2.61665,1.43221 0,0 3.6661,-1.51855 3.6661,-1.51855 z"
       inkscape:connector-curvature="0"
       style="stroke-width:0.26458332" />
    <path
       id="path477"
       d="m 132.73107,123.87881 c 0.43578,-1.05958 1.08914,-1.97052 1.9484,-2.72118 2.71283,-1.91029 4.02252,-2.74541 6.91097,-2.72124 1.17125,0.038 2.44986,0.14494 3.41643,0.89132 0.19794,0.15284 0.35741,0.34989 0.53611,0.52484 1.05732,1.40618 1.38024,3.15191 1.50571,4.86749 0.007,0.65582 -0.027,1.33058 -0.3685,1.91318 -0.79887,1.36292 -4.72616,3.14932 -4.8568,3.22556 -0.23788,0.12173 -0.47613,0.24274 -0.71364,0.36518 -0.2525,0.13018 -0.50681,0.25699 -0.75639,0.39268 -0.25314,0.13762 -1.00302,0.5677 -0.7515,0.42713 0.86801,-0.48511 1.71799,-1.0035 2.60099,-1.46077 0.22134,-0.11463 -0.41251,0.28031 -0.61148,0.43046 -0.18253,0.13774 -0.3549,0.28845 -0.53234,0.43267 -0.041,10e-4 -1.30109,1.2772 -0.65809,1.15764 0.72147,-0.0396 1.44902,0.0419 2.16519,0.13175 1.4873,0.19948 2.97567,0.36764 4.47363,0.46398 0.88489,0.005 1.77263,-0.0371 2.64795,-0.17191 0.14957,-0.0287 0.0833,-0.0134 0.19953,-0.0431 0,0 -3.19328,2.40103 -3.19328,2.40103 v 0 c -0.11508,0.009 -0.0501,0.004 -0.19502,0.0155 -0.86638,0.066 -1.73679,0.0943 -2.60512,0.0507 -1.50957,-0.11391 -3.01108,-0.29504 -4.51663,-0.44929 -0.75942,-0.0621 -1.53858,-0.0408 -2.28202,-0.19901 -0.0877,-0.0642 -0.1906,-0.11166 -0.26304,-0.19269 -0.53164,-0.59475 0.23831,-1.32127 0.62682,-1.7091 2.17639,-1.90228 4.86133,-3.09163 7.37586,-4.48149 -5.89552,3.45903 -2.3576,1.60375 -1.71332,0.81948 0.41221,-0.50178 0.47121,-1.12164 0.49238,-1.74526 -0.0622,-1.62515 -0.34946,-3.28988 -1.37498,-4.60473 -0.16232,-0.14798 -0.30745,-0.31733 -0.48694,-0.44393 -0.95284,-0.67205 -2.1882,-0.70033 -3.30388,-0.72022 -0.65116,0.0224 -1.28854,0.0613 -1.9229,0.22588 -0.18631,0.0483 -0.71012,0.28319 -0.5497,0.17683 1.55055,-1.02803 4.06303,-2.3381 2.32433,-1.4234 -0.89811,0.65481 -1.56905,1.46936 -1.96591,2.51835 0,0 -3.60282,1.6556 -3.60282,1.6556 z"
       inkscape:connector-curvature="0"
       style="stroke-width:0.26458332" />
    <path
       id="path487"
       d="m 149.87955,112.69953 c 0.83088,-0.19008 1.65074,-0.38377 2.50283,-0.27094 0.13541,0.0377 0.2782,0.0551 0.40624,0.11315 0.91951,0.41666 1.51758,1.58621 2.00068,2.40504 0.79911,1.52866 1.58474,3.06729 2.2494,4.65998 0.83011,1.84553 1.03388,3.84994 1.17734,5.84335 0.1069,1.9933 -0.0846,3.93135 -0.70949,5.82671 -0.45664,1.35222 -1.38716,2.41425 -2.35315,3.4295 -1.17037,1.19864 -2.43244,2.31538 -3.85645,3.20229 -1.38327,0.71444 -3.56389,2.73511 -5.57036,2.26512 -0.24467,-0.0573 -0.56203,-0.19988 -0.79605,-0.29755 -0.27294,-0.13697 -0.57164,-0.24299 -0.79372,-0.45787 0,0 3.39309,-2.10011 3.39309,-2.10011 v 0 c 0.19946,0.15936 0.4471,0.25182 0.67351,0.36357 0.39131,0.14568 0.7432,0.25716 1.16962,0.23225 1.34679,-0.0787 3.3981,-1.65624 -1.69209,1.38437 1.46651,-0.79888 2.72185,-1.92488 3.89625,-3.10353 0.9571,-0.97546 1.91515,-1.9899 2.42605,-3.28118 0.24965,-0.6538 0.35756,-0.87016 0.51554,-1.57322 0.30407,-1.35315 0.35369,-2.75567 0.31464,-4.13618 -0.13961,-1.94967 -0.34242,-3.90972 -1.15353,-5.7146 -0.6625,-1.5725 -1.42631,-3.10151 -2.23454,-4.60366 -0.54984,-0.89077 -1.12098,-2.01631 -2.26548,-2.16978 -0.84338,-0.0205 -1.65381,0.20182 -2.47722,0.36103 0,0 3.17689,-2.37774 3.17689,-2.37774 z"
       inkscape:connector-curvature="0"
       style="stroke-width:0.26458332" />
    <path
       id="path489"
       d="m 179.46672,119.26534 c -1.15277,0.64443 -3.11421,1.59563 2.13643,-1.22606 0.18966,-0.10192 -0.35492,0.24405 -0.52731,0.37303 -0.58317,0.43633 -0.6254,0.49559 -1.18372,0.99148 -1.44549,1.39422 -2.86664,2.81645 -4.18027,4.33627 -1.30844,1.58692 -2.19469,3.43748 -2.35506,5.50708 -0.0361,0.46636 -0.0121,0.93544 -0.0181,1.40316 0.0965,2.77619 1.10993,5.32954 2.52448,7.67985 0.5922,0.86372 1.28788,1.71764 2.28037,2.13623 0.16372,0.0691 0.34068,0.10113 0.51102,0.15169 0,0 -3.23876,2.18789 -3.23876,2.18789 v 0 c -1.34369,-0.55412 -2.06855,-1.34524 -2.84419,-2.57241 -1.39108,-2.4328 -2.42117,-5.05048 -2.57603,-7.88028 -0.005,-0.48024 -0.0396,-0.96107 -0.0152,-1.44072 0.10741,-2.11205 0.91672,-4.03416 2.21919,-5.68423 1.28357,-1.53547 2.70566,-2.94355 4.11678,-4.36115 1.82138,-1.72993 3.99216,-2.97468 6.2508,-4.08186 0,0 -3.10039,2.48003 -3.10039,2.48003 z"
       inkscape:connector-curvature="0"
       style="stroke-width:0.26458332" />
    <path
       id="path491"
       d="m 184.39664,120.79436 c 0.44083,0.55622 0.91784,1.0851 1.44876,1.55664 0.0562,0.0466 0.10465,0.10481 0.16872,0.13991 0.15684,0.0859 0.41578,-0.22872 0.28181,-0.15488 -2.95024,1.62614 -4.35693,2.62685 -3.18313,1.7968 0.13822,-0.20075 0.27349,-0.39883 0.43698,-0.5808 2.18095,-2.65457 2.94524,-1.95308 4.87822,-1.6018 0.92987,0.0559 1.71299,0.43745 2.43259,1.00504 0.81557,0.68738 1.46617,1.5291 2.06395,2.40549 0.45198,0.72836 0.68917,1.11844 0.36871,1.95212 -0.67075,1.06302 -1.79177,1.78076 -2.76012,2.55652 -0.94432,0.71277 -1.8511,1.4742 -2.78858,2.19545 -0.22962,0.16099 -0.27858,0.26025 -0.33925,-0.40143 -0.0134,-0.14612 1.27373,-0.27174 1.35743,-0.28316 0.98552,-0.13936 1.97659,-0.0227 2.93601,0.21582 0.87214,0.26774 1.45249,0.69427 2.02227,1.39062 0.51999,0.74959 0.77399,1.58432 0.85801,2.48367 -0.0385,1.0309 -0.20625,2.05111 -0.29945,3.07799 -0.18655,1.84822 -1.62186,3.47904 -4.05135,3.15899 -0.6926,-0.1582 -1.40044,-0.16282 -2.10895,-0.17499 -0.94444,0.0583 -1.87292,0.23227 -2.8091,0.35739 -0.74582,0.0369 -1.49252,-0.006 -2.23781,-0.0359 0,0 3.19792,-2.30218 3.19792,-2.30218 v 0 c 0.72459,0.0339 1.45309,0.0754 2.17609,-0.008 0.94746,-0.13919 1.89518,-0.30573 2.85574,-0.31458 0.70921,0.0148 1.41321,0.096 2.11831,0.1102 1.30405,-0.56886 0.23857,-0.11198 -3.07649,1.87324 -0.0516,0.0309 0.11065,-0.0534 0.15211,-0.0969 0.2025,-0.21258 0.18669,-0.55686 0.26625,-0.817 0.10035,-1.00837 0.25422,-2.01046 0.33362,-3.02067 -0.0446,-0.82324 -0.27797,-1.58174 -0.75333,-2.26385 -0.49858,-0.59174 -1.10987,-0.99839 -1.87246,-1.1813 -0.9386,-0.19433 -1.89356,-0.2753 -2.84374,-0.0972 -0.41461,0.0758 -0.79708,0.17186 -1.19818,0.29559 -0.0678,0.0209 -0.15112,0.097 -0.20638,0.0525 -0.51234,-0.41307 -0.41577,-0.40282 -0.15814,-0.57525 1.03586,-0.62031 1.8833,-1.53277 2.8885,-2.2009 0.93469,-0.75505 1.934,-1.46511 2.74519,-2.35367 0.41304,-0.74583 0.26986,-0.86187 -0.1552,-1.60941 -0.56265,-0.84963 -1.19599,-1.65492 -1.99922,-2.29231 -0.70895,-0.50948 -1.4727,-0.77559 -2.34642,-0.84611 -0.81008,-0.16201 0.0326,0.0104 -0.70954,-0.15234 -0.0989,-0.0217 -0.19856,-0.0402 -0.29763,-0.0613 -0.0797,-0.017 -0.30735,-0.009 -0.2386,-0.0529 1.07104,-0.68053 4.47243,-2.58011 3.30158,-1.89518 -0.19374,0.13559 -0.39384,0.29487 -0.48396,0.51729 -0.67197,1.49578 -3.00816,3.11182 -4.29005,1.86875 -0.51099,-0.4997 -0.97953,-1.03891 -1.4651,-1.56275 0,0 3.38341,-2.07336 3.38341,-2.07336 z"
       inkscape:connector-curvature="0"
       style="stroke-width:0.26458332" />
    <path
       id="path493"
       d="m 194.09058,114.50985 c 1.38848,0.58627 2.63417,1.44293 3.89426,2.25724 1.04093,0.81794 2.36411,1.28841 3.31958,2.21957 0.18379,0.17911 0.33257,0.39094 0.49886,0.5864 1.04764,1.64855 1.0118,3.61454 1.01784,5.49731 -0.0772,2.36479 0.0686,4.72669 0.18523,7.08729 0.13145,2.39356 -0.0818,4.55908 -0.79543,6.84352 -0.3638,1.0892 -0.84559,2.13029 -1.19427,3.22454 -0.15701,0.56563 -0.0782,0.283 -0.23639,0.8479 0,0 -3.5508,1.68449 -3.5508,1.68449 v 0 c 0.16873,-0.55981 0.0906,-0.2745 0.23342,-0.85622 0.34918,-1.12104 0.84425,-2.17425 1.26965,-3.26775 0.27964,-0.78115 0.39705,-1.03408 0.57825,-1.87105 0.34637,-1.59988 0.40301,-3.24188 0.33642,-4.87217 -0.12482,-2.36009 -0.29504,-4.72079 -0.22789,-7.08602 -0.004,-1.78494 0.0572,-3.66538 -0.93593,-5.23087 -0.15336,-0.17506 -0.29094,-0.36531 -0.46007,-0.5252 -0.95677,-0.90455 -2.2505,-1.39404 -3.28267,-2.19823 -1.24668,-0.80755 -2.4965,-1.66014 -3.92218,-2.12065 0,0 3.27212,-2.2201 3.27212,-2.2201 z"
       inkscape:connector-curvature="0"
       style="stroke-width:0.26458332" />
  </g>
</svg>
