<?xml version="1.0" encoding="UTF-8" standalone="no"?>
<!-- Created with Inkscape (http://www.inkscape.org/) -->

<svg
   xmlns:dc="http://purl.org/dc/elements/1.1/"
   xmlns:cc="http://creativecommons.org/ns#"
   xmlns:rdf="http://www.w3.org/1999/02/22-rdf-syntax-ns#"
   xmlns:svg="http://www.w3.org/2000/svg"
   xmlns="http://www.w3.org/2000/svg"
   xmlns:sodipodi="http://sodipodi.sourceforge.net/DTD/sodipodi-0.dtd"
   xmlns:inkscape="http://www.inkscape.org/namespaces/inkscape"
   width="210mm"
   height="297mm"
   viewBox="0 0 210 297"
   version="1.1"
   id="svg59"
   inkscape:version="0.92.4 (5da689c313, 2019-01-14)"
   sodipodi:docname="computer.svg">
  <defs
     id="defs53" />
  <sodipodi:namedview
     id="base"
     pagecolor="#ffffff"
     bordercolor="#666666"
     borderopacity="1.0"
     inkscape:pageopacity="0.0"
     inkscape:pageshadow="2"
     inkscape:zoom="0.98994949"
     inkscape:cx="440.88611"
     inkscape:cy="732.66342"
     inkscape:document-units="mm"
     inkscape:current-layer="layer1"
     showgrid="false"
     inkscape:window-width="1850"
     inkscape:window-height="1016"
     inkscape:window-x="70"
     inkscape:window-y="27"
     inkscape:window-maximized="1" />
  <metadata
     id="metadata56">
    <rdf:RDF>
      <cc:Work
         rdf:about="">
        <dc:format>image/svg+xml</dc:format>
        <dc:type
           rdf:resource="http://purl.org/dc/dcmitype/StillImage" />
        <dc:title></dc:title>
      </cc:Work>
    </rdf:RDF>
  </metadata>
  <g
     inkscape:label="Layer 1"
     inkscape:groupmode="layer"
     id="layer1">
    <path
       id="path63"
       d="m 68.606992,25.088958 c 0.120684,2.40978 -0.204679,4.819637 -0.456385,7.211804 -0.534376,4.253248 -1.110557,8.502525 -1.370391,12.784171 -0.0704,1.160037 -0.107588,2.321849 -0.161383,3.482772 -0.192476,8.887303 0.167307,17.775758 0.334571,26.661323 0.189257,10.66496 0.04953,21.33182 0.06766,31.997662 0.05559,10.15984 0.480843,20.31215 0.769339,30.46686 0.138629,6.38306 0.429853,12.7676 0.182933,19.15096 -0.09005,1.9477 -0.319799,3.89733 -0.94938,5.75095 -0.238006,0.70075 -0.525894,1.33987 -0.81606,2.01861 -0.396295,0.83897 -0.729673,1.70486 -1.064397,2.56946 0,0 -3.525542,1.63456 -3.525542,1.63456 v 0 c 0.341228,-0.87276 0.669346,-1.75224 1.081977,-2.59486 0.454358,-1.01961 0.918247,-2.03461 1.225436,-3.11149 0.42789,-1.50002 0.616921,-3.05195 0.739468,-4.60281 0.411123,-6.42065 0.229301,-12.85454 0.136578,-19.28317 -0.2105,-10.17687 -0.597247,-20.35005 -0.662869,-30.52956 -0.02806,-10.654056 0.113652,-21.309821 -0.123227,-31.96238 -0.20456,-8.860142 -0.613936,-17.719328 -0.534318,-26.582989 0.03839,-1.157097 0.06069,-2.31484 0.115168,-3.471291 0.200379,-4.253831 0.706104,-8.480197 1.194827,-12.707877 0.209105,-2.33413 0.516223,-4.699161 0.300714,-7.042303 0,0 3.515281,-1.840402 3.515281,-1.840402 z"
       inkscape:connector-curvature="0"
       style="stroke-width:0.26458332" />
    <path
       id="path67"
       d="m 61.700568,24.151174 c 0.647647,-0.659689 1.221549,-1.386303 1.882775,-2.032839 1.124095,-0.96845 2.716527,-2.949551 4.026273,-2.026308 0.269999,0.190322 0.490596,0.494431 0.703829,0.740788 0.782325,0.934936 1.916483,1.083912 3.06529,1.166999 3.107971,0.02838 6.21715,-0.153409 9.322885,-0.271724 5.865177,-0.115711 11.730947,0.009 17.596426,0.03257 7.215094,-0.02023 14.422504,-0.371179 21.636914,-0.427158 4.53449,0.005 9.08573,0.134898 13.57838,0.801629 2.55175,0.378692 3.1966,0.583535 5.64747,1.163091 2.08622,0.555543 4.12141,1.292992 6.07575,2.210169 1.23198,0.578171 2.43333,1.240099 3.64206,1.865749 0.95793,0.452848 1.98865,0.781037 3.06061,0.629401 0.47587,-0.06732 0.84748,-0.21985 1.29804,-0.375301 0.82448,-0.346818 0.41759,-0.16561 1.22083,-0.543237 0,0 -3.06631,2.433516 -3.06631,2.433516 v 0 c -0.81844,0.356793 -0.40237,0.18886 -1.2485,0.503044 -0.54097,0.149744 -0.79893,0.251857 -1.36587,0.284517 -1.10788,0.06382 -2.14915,-0.329946 -3.11867,-0.824907 -1.17306,-0.640665 -2.33943,-1.315963 -3.54189,-1.899822 -1.90422,-0.924605 -3.89404,-1.662588 -5.93484,-2.224059 -2.46373,-0.596946 -2.99578,-0.781148 -5.57032,-1.166912 -4.46732,-0.669372 -8.99346,-0.795025 -13.50307,-0.799953 -7.22392,0.06026 -14.44087,0.406991 -21.665308,0.443286 -5.908701,-0.004 -11.81921,-0.106714 -17.726176,0.08232 -3.166305,0.150662 -6.337453,0.385766 -9.507733,0.343942 -1.251175,-0.13001 -2.427652,-0.373381 -3.279312,-1.378104 -0.07406,-0.07893 -0.334264,-0.36782 -0.445966,-0.450378 -0.211629,-0.156413 -0.308448,-0.01763 -0.27424,-0.03798 2.42049,-1.440095 4.411128,-2.529254 3.038133,-1.776384 -0.693592,0.606942 -1.286226,1.310707 -1.8792,2.0146 0,0 -3.66826,1.519443 -3.66826,1.519443 z"
       inkscape:connector-curvature="0"
       style="stroke-width:0.26458332" />
    <path
       id="path71"
       d="m 149.07877,26.821979 c 0.43197,-0.584201 0.76074,-1.233217 1.03778,-1.902351 0.49504,-1.339967 0.17495,-0.564145 3.67535,-1.66589 0.12647,-0.03981 0.0162,0.264974 0.0135,0.397534 -0.0128,0.62233 -0.12695,1.23953 -0.22576,1.851836 -0.46154,2.305068 -1.14053,4.558061 -1.66256,6.850345 -1.0545,4.846844 -1.17646,9.820468 -1.2682,14.759252 -0.0893,7.278127 0.068,14.55597 0.14997,21.833432 0.16659,8.7171 0.0126,17.431885 -0.29018,26.143699 -0.46986,9.375704 -1.01333,18.747534 -1.44372,28.125294 -0.3172,8.05723 -0.83834,16.10417 -1.54827,24.13583 -0.39546,4.78444 -1.01114,9.54476 -1.58389,14.3097 -0.13369,1.22434 -0.28156,2.44863 -0.35881,3.67831 -0.068,1.41372 -0.472,0.46485 -3.56403,1.76254 -0.0405,0.017 8e-4,-0.0881 -0.005,-0.13174 -0.007,-0.0568 -0.0223,-0.11228 -0.0335,-0.16841 -0.12023,-0.19919 -0.1735,-0.57589 -0.42996,-0.6347 -0.13889,-0.032 -0.0664,-0.0214 -0.21771,-0.0294 0,0 3.28113,-2.26896 3.28113,-2.26896 v 0 c 0.20182,0.0761 0.10635,0.0315 0.2872,0.13213 0.29273,0.23882 0.42733,0.57667 0.58615,0.91339 0.003,0.0123 0.10506,0.40078 0.0956,0.40663 -2.42819,1.50017 -3.75984,3.33003 -3.56752,1.79205 0.16849,-1.26032 0.35406,-2.5183 0.53008,-3.77756 0.69841,-4.79467 1.39715,-9.58988 1.83398,-14.41764 0.79147,-8.04731 1.35987,-16.11463 1.70003,-24.19415 0.45288,-9.37411 0.98688,-18.74407 1.43943,-28.118125 0.2852,-8.694936 0.42807,-17.392846 0.22359,-26.091952 -0.10947,-7.260944 -0.30408,-14.521325 -0.26857,-21.78364 0.0449,-4.923086 0.095,-9.879377 1.04204,-14.730021 0.4769,-2.271508 1.10508,-4.505187 1.56687,-6.778508 0.0912,-0.593524 0.16934,-1.174362 0.20263,-1.773629 0.006,-0.09941 -0.0673,-0.244823 0.0167,-0.29823 1.13373,-0.720577 2.34635,-1.308866 3.52523,-1.952943 0.0322,-0.01758 -0.0553,0.04817 -0.083,0.07226 -0.33482,0.658998 -0.58927,1.361444 -1.01452,1.974028 0,0 -3.64219,1.579602 -3.64219,1.579602 z"
       inkscape:connector-curvature="0"
       style="stroke-width:0.26458332" />
    <path
       id="path73"
       d="m 63.290857,162.84746 c 1.258477,-0.31511 2.519103,-0.11967 3.773876,0.0985 2.496878,0.48965 5.027917,0.48058 7.554219,0.31163 4.614712,-0.46243 9.227561,-0.94772 13.838859,-1.44384 6.380832,-0.73719 12.781089,-1.26706 19.191209,-1.66487 6.24573,-0.39573 12.50242,-0.42577 18.75756,-0.38648 4.39912,0.088 8.79736,0.008 13.19537,-0.0889 2.1094,-0.0472 4.21886,-0.0933 6.32848,-0.13037 0.36117,0.006 0.71619,0.0588 1.06864,0.13182 0,0 -3.26041,2.2754 -3.26041,2.2754 v 0 c -0.32398,-0.057 -0.64973,-0.0989 -0.97976,-0.099 -2.06646,-0.003 -4.13285,0.0126 -6.19914,0.0404 -4.35788,0.0542 -8.71575,0.0954 -13.0734,-0.0113 -6.22933,-0.0606 -12.46047,-0.0401 -18.68041,0.36146 -6.428785,0.41105 -12.847008,0.95688 -19.243985,1.72455 -4.658921,0.52262 -9.317894,1.04975 -13.981329,1.52911 -2.593795,0.16706 -5.133427,0.16113 -7.699404,-0.31276 -1.242057,-0.18018 -2.507917,-0.33137 -3.716586,0.11199 0,0 3.126211,-2.44735 3.126211,-2.44735 z"
       inkscape:connector-curvature="0"
       style="stroke-width:0.26458332" />
    <path
       id="path91"
       d="m 80.65572,30.950132 c 0.17548,1.041871 0.370999,2.081179 0.520957,3.127119 0.191926,1.634418 0.313703,3.275541 0.448399,4.915363 0.181939,1.94795 0.370653,3.89414 0.607905,5.836176 0.06371,0.504195 0.115601,1.009939 0.181136,1.513914 0.01587,0.122092 0.0621,0.3853 0.04336,0.397262 -1.147834,0.733059 -2.347791,1.381114 -3.521689,2.071671 -0.03617,7.94e-4 -0.07776,-0.01638 -0.108503,0.0027 -0.02837,0.01762 -0.07145,0.106963 -0.04221,0.09085 3.358801,-1.851144 3.382629,-3.166811 3.303725,-1.722424 0,0 -3.524091,1.840598 -3.524091,1.840598 v 0 c -0.323122,-1.685558 2.027283,-2.70169 3.588404,-2.57374 -1.090647,0.686422 -2.170589,1.390153 -3.271941,2.059263 -0.03027,0.01839 0.03986,-0.06202 0.0426,-0.09733 0.0062,-0.07966 -0.01085,-0.159433 -0.01656,-0.239128 -0.03672,-0.51227 -0.07813,-1.024204 -0.128498,-1.535337 -0.194272,-1.953591 -0.383034,-3.90743 -0.582144,-5.860489 -0.144941,-1.624338 -0.294365,-3.248136 -0.493358,-4.866788 -0.147859,-1.032079 -0.331425,-2.061099 -0.54203,-3.081766 0,0 3.49454,-1.877912 3.49454,-1.877912 z"
       inkscape:connector-curvature="0"
       style="stroke-width:0.26458332" />
    <path
       id="path95"
       d="m 80.191813,32.651805 c -0.279358,0.236959 -0.567865,0.46744 -0.808387,0.745707 -0.08328,0.09635 -0.151056,0.214797 -0.158197,0.204769 -0.03587,-0.05036 -0.03489,-0.118631 -0.05234,-0.177948 -0.166346,-0.0598 0.378947,-0.364651 0.263139,-0.299479 -1.051486,0.59173 -4.178798,2.414214 -3.142562,1.796166 1.596747,-0.95236 2.767729,-1.844209 4.377483,-2.382718 0.833089,-0.25073 1.713744,-0.09549 2.567091,-0.04864 1.982205,0.09106 3.967027,0.102079 5.950924,0.118465 3.458072,0.0533 6.912218,-0.132858 10.358662,-0.395883 4.201274,-0.382294 8.397974,-0.81407 12.598964,-1.1997 3.56077,-0.243888 7.11183,-0.584116 10.64185,-1.112065 2.3089,-0.316545 4.52823,-1.067554 6.82379,-1.445107 1.26387,-0.167714 2.31183,0.04276 3.38359,0.707771 0.49839,0.33373 0.9992,0.65237 1.61428,0.600872 0.2856,-0.13825 0.59287,-0.392356 0.9196,-0.307475 0.0465,0.01582 0.0968,0.02302 0.1394,0.04745 0.33385,0.19151 0.31353,0.231923 0.7208,0.333401 0.23068,0.03244 0.46344,0.07298 0.69718,0.06277 0.23096,0.149048 0.3009,0.376111 0.26807,0.634961 -0.1713,1.498954 -2.52759,1.413753 -3.6603,2.333082 1.09639,-0.623689 2.18343,-1.264113 3.28917,-1.87107 0.0593,-0.03256 -0.1045,0.08845 -0.143,0.144095 -0.0571,0.08259 -0.0996,0.174765 -0.14091,0.266293 -0.1601,0.354525 -0.24308,0.725032 -0.32513,1.102966 -0.14344,0.711229 -0.10781,1.440217 -0.25917,2.148697 -0.2033,0.738761 -0.59873,1.401024 -0.88992,2.106641 -0.47866,1.335866 -0.62826,2.749979 -0.8235,4.14592 -0.10029,0.734153 -0.18728,1.518068 -0.66619,2.114196 -0.52721,0.385768 -0.37029,1.083249 -0.38019,1.665041 0.007,0.609055 -0.0623,1.210503 -0.15042,1.811383 0,0 -3.52878,1.725065 -3.52878,1.725065 v 0 c 0.10937,-0.580896 0.19898,-1.162061 0.17325,-1.756516 0.002,-0.177784 0.0101,-0.355592 0.006,-0.533353 -0.009,-0.448148 -0.17528,-1.060534 0.18967,-1.412123 0.65386,-0.381318 0.7369,-1.20491 0.84426,-1.889384 0.22418,-1.409703 0.35414,-2.839133 0.76181,-4.213945 0.26021,-0.705041 0.61185,-1.359929 0.88554,-2.056527 0.22874,-0.688311 0.15074,-1.41995 0.2845,-2.129263 0.44528,-2.626625 0.69911,-1.894586 4.01323,-3.831114 1.61263,-0.158041 -3.68303,3.345069 -3.07783,1.87634 0.0609,-0.218318 0.13092,-0.102428 0.12251,-0.07277 -0.004,0.01466 -0.0256,0.01654 -0.0384,0.02479 -0.25,-0.03245 -0.49951,-0.07561 -0.74148,-0.147513 -0.26153,-0.08851 -0.51456,-0.297868 -0.78824,-0.264689 -0.26384,0.179509 -0.61295,0.27519 -0.92828,0.269073 -0.63655,-0.08863 -1.17388,-0.432522 -1.70189,-0.782092 -0.98678,-0.564094 -2.04564,-0.703739 -3.17181,-0.51752 -2.26289,0.405479 -4.47095,1.089774 -6.75627,1.381795 -3.51594,0.492058 -7.05003,0.80696 -10.5916,1.050141 -4.20471,0.384638 -8.40507,0.815528 -12.609682,1.200703 -3.480255,0.267372 -6.96754,0.462061 -10.459706,0.431761 -2.014136,-0.0036 -4.029046,-0.0013 -6.042187,-0.07293 -0.841158,-0.03422 -1.697767,-0.137845 -2.496518,0.196519 -0.218289,0.09171 -0.848564,0.418624 -0.644652,0.298286 1.023059,-0.603755 4.113083,-2.379273 3.081031,-1.791023 -1.224497,0.697942 -2.430648,1.427888 -3.658391,2.120107 -0.07662,0.0432 -0.162314,0.08195 -0.250251,0.08364 -0.08801,0.0016 -0.169019,-0.04929 -0.253527,-0.07394 -0.06085,-0.08205 -0.141255,-0.152725 -0.182554,-0.24616 -0.178433,-0.403667 0.636362,-1.012804 0.869288,-1.227926 0,0 3.676727,-1.489983 3.676727,-1.489983 z"
       inkscape:connector-curvature="0"
       style="stroke-width:0.26458332" />
    <path
       id="path97"
       d="m 82.570218,45.615981 c 0.707819,1.59095 2.047608,1.904161 3.632648,2.15791 1.883634,0.135903 3.772362,0.02016 5.657556,0.0011 1.035566,-0.01042 2.757011,0.0068 3.773876,0.01421 4.707932,0.05177 9.412062,0.247389 14.120612,0.259274 4.61697,-0.0042 9.23319,-0.13642 13.85009,-0.104527 3.23061,0.06277 6.45955,0.151392 9.68801,-0.01659 1.85408,-0.06723 3.63034,-0.539062 5.39205,-1.073518 0.63678,-0.215561 1.2411,-0.387091 1.65978,0.245208 0.53866,1.642028 -3.13231,2.417384 -3.5948,2.684248 0,0 3.12367,-2.46671 3.12367,-2.46671 v 0 c -1.07281,0.638101 -2.14561,1.276199 -3.21842,1.9143 0.0943,-0.01281 0.22812,0.0024 0.25241,-0.111943 -0.2561,-0.336711 -1.04214,0.10028 -1.33,0.131549 -1.75362,0.501433 -3.53424,0.884099 -5.3665,0.937323 -3.20634,0.123698 -6.41081,0.0097 -9.6174,-0.05996 -4.59876,-0.04533 -9.19716,0.063 -13.796,0.06756 -4.72806,-0.01963 -9.453042,-0.202591 -14.181085,-0.215368 -1.404178,7.94e-4 -2.4105,-0.0053 -3.804039,0.02053 -1.923127,0.0357 -3.853201,0.168285 -5.773235,-0.0113 -0.347244,-0.06597 -0.70009,-0.107312 -1.041736,-0.197922 -1.241872,-0.329366 -2.304121,-1.06576 -2.881368,-2.229612 0,0 3.453881,-1.945864 3.453881,-1.945864 z"
       inkscape:connector-curvature="0"
       style="stroke-width:0.26458332" />
    <path
       id="path99"
       d="m 83.913738,57.673221 c -0.836499,0.08165 -1.580793,0.430112 -2.34307,0.749077 -1.701946,1.090063 4.403375,-2.6818 2.620483,-1.455382 -0.76033,1.757299 -4.738306,3.021126 -3.537542,0.697103 1.218215,-0.612405 2.382718,-1.346013 3.654649,-1.837219 0.09889,-0.03819 0.25028,0.426008 0.335786,0.81421 0.166666,0.756679 0.215095,1.532747 0.278172,2.302565 0.14255,2.260674 0.172487,4.525542 0.110707,6.789248 0.0013,1.203648 -0.155265,2.457736 0.125288,3.643194 0.0827,0.403227 0.157911,-0.05921 0.11751,-0.03866 -1.104268,0.619734 -2.208533,1.239464 -3.312801,1.859195 0.07704,-0.102528 0.05333,-0.0482 0.07913,-0.159234 -0.0063,-0.08168 0.0013,-0.04425 -0.01987,-0.112913 0,0 3.495627,-1.939849 3.495627,-1.939849 v 0 c 0.05693,0.14306 0.03038,0.06576 0.07664,0.232916 0.238297,1.719005 -3.181554,3.798924 -3.931238,2.035153 -0.251701,-1.23962 -0.110156,-2.526437 -0.07502,-3.779559 0.09369,-2.246458 0.07139,-4.495247 -0.10582,-6.737935 -0.07257,-0.745702 -0.145399,-1.479238 -0.308981,-2.211276 -0.02663,-0.119198 -0.04927,-0.24003 -0.08989,-0.355211 -0.01461,-0.04136 -0.110805,-0.08535 -0.07382,-0.108935 1.081069,-0.689213 2.208014,-1.303678 3.312019,-1.955516 -0.172508,0.12284 -0.199429,0.222652 -0.297079,0.399711 -0.65223,1.182635 -10.575211,-4.250796 -3.527015,2.000872 0.08403,-0.120825 0.207214,-0.254209 0.333592,-0.32892 3.427711,-2.02633 2.345732,-1.525164 3.849925,-2.207194 0.777174,-0.324241 1.575047,-0.571357 2.416726,-0.663098 0,0 -3.184099,2.367653 -3.184099,2.367653 z"
       inkscape:connector-curvature="0"
       style="stroke-width:0.26458332" />
    <path
       id="path103"
       d="m 85.034169,54.960133 c 1.350301,0.584729 2.789611,0.889587 4.236834,1.113155 2.800906,0.379235 5.618199,0.630007 8.43216,0.891892 3.573647,0.352835 7.161067,0.4363 10.748207,0.331102 3.19908,-0.152643 6.39658,-0.265054 9.59925,-0.2282 2.65104,0.09952 5.29462,0.349731 7.93372,0.613002 1.2045,0.05542 2.50114,0.393258 3.68717,0.0024 0.15806,-0.05208 0.30391,-0.13571 0.45586,-0.203565 1.60175,-0.968033 -0.97071,0.592707 -2.57029,1.424427 -0.12908,0.06712 0.22165,-0.188973 0.32478,-0.291605 0.25229,-0.251095 0.46427,-0.537178 0.6734,-0.823706 0.19743,-0.41156 0.20948,-0.093 0.0503,0.02638 -0.14961,0.112209 -0.32877,0.178363 -0.49155,0.270422 -0.4559,0.244623 -0.93441,0.436124 -1.42479,0.598641 -1.38114,0.395706 -1.3666,0.538954 3.13637,-1.893842 0.0471,-0.02543 -0.0258,0.104325 -0.0299,0.15766 -0.004,0.05894 0.003,0.118173 0.004,0.17726 0.0476,0.432988 0.2077,0.878612 0.6855,0.941681 0.67106,0.0195 1.23871,-0.384598 1.80575,-0.688335 -1.03302,0.590505 -2.06291,1.186524 -3.09907,1.77151 -0.16462,0.09295 0.31184,-0.214572 0.47587,-0.308578 1.19131,-0.682802 2.37402,-1.381321 3.58092,-2.036183 0.1213,-0.06582 0.26407,0.0291 0.36297,0.07311 0.0804,-0.114221 0.33584,0.401989 0.35691,0.310446 0.0104,-0.04489 0.007,-0.154538 -0.0341,-0.133914 -1.14121,0.571434 -2.2407,1.222645 -3.36105,1.833967 0.10584,-0.09854 0.22881,-0.574661 0.0248,-0.615852 -0.14382,1.402705 -0.0521,0.155472 3.35856,-1.703615 0.0353,-0.01921 -0.0755,0.03009 -0.10749,0.05436 -0.12376,0.09388 -0.2203,0.239437 -0.31644,0.359391 -0.13749,0.171797 -0.10034,0.381397 -0.29514,0.483725 -0.0579,0.140234 -0.2304,0.387432 -0.17919,0.545613 0.22459,0.715714 0.13409,1.49276 0.0919,2.228252 -0.0979,1.445384 -0.29762,2.871919 -0.73627,4.254063 -0.36047,0.95186 -0.9361,1.792608 -1.32952,2.730273 -0.30756,0.926025 -0.51595,1.880147 -0.80767,2.810864 -0.13561,0.396031 -0.37892,0.726652 -0.62512,1.058077 0,0 -3.63504,1.553302 -3.63504,1.553302 v 0 c 0.25233,-0.293211 0.50766,-0.585197 0.68414,-0.933275 0.33405,-0.925359 0.54042,-1.889189 0.8146,-2.832989 0.34208,-0.965951 0.90201,-1.804874 1.34799,-2.721554 0.48872,-1.34038 0.7076,-2.733816 0.78726,-4.157028 0.0268,-0.670793 0.10251,-1.370732 -0.0752,-2.027983 -0.13804,-0.29291 -0.077,-0.567249 0.0215,-0.870027 0.0537,-0.343808 0.21052,-0.0868 0.29309,-0.505555 0.61818,-1.379022 2.95631,-3.38676 4.11224,-2.416189 0.24557,0.311365 0.31926,0.722861 0.22276,1.107882 -3.48272,2.067796 -2.5524,3.052001 -3.68423,1.961907 -0.0553,-0.05327 -0.11114,-0.08534 -0.19201,-0.07756 -1.18316,0.538435 -2.8975,1.636496 3.02021,-1.774714 0.0762,-0.04391 -0.14832,0.09446 -0.22238,0.141838 -0.0884,0.05652 -0.17444,0.116729 -0.26488,0.169849 -1.22276,0.718244 -2.44968,1.429407 -3.67452,2.14411 -0.63,0.326966 -1.29639,0.655301 -2.01834,0.435472 -0.52541,-0.276947 -0.83035,-0.72458 -0.91278,-1.31844 -0.30936,-1.670788 2.07883,-2.204908 3.55871,-2.740861 0.47294,-0.175199 0.92671,-0.39257 1.37899,-0.615191 0.15753,-0.06133 0.41202,-0.184438 0.59605,-0.169846 0.40109,0.0318 0.5671,0.442455 0.38434,0.762503 -0.21523,0.309088 -0.6906,1.05397 -0.97638,1.236945 -3.02126,1.934398 -2.52368,1.684719 -4.19259,2.457895 -1.37287,0.406087 -2.7822,0.164213 -4.18126,0.0082 -2.6154,-0.281352 -5.23761,-0.539276 -7.86807,-0.616841 -3.19081,-0.03547 -6.37668,0.08659 -9.56448,0.220302 -3.59588,0.08085 -7.190045,-0.02647 -10.772326,-0.367495 -2.84816,-0.249233 -5.700836,-0.477261 -8.536019,-0.849543 -1.496039,-0.241451 -2.981999,-0.568669 -4.384669,-1.158121 0,0 3.315173,-2.181265 3.315173,-2.181265 z"
       inkscape:connector-curvature="0"
       style="stroke-width:0.26458332" />
    <path
       id="path105"
       d="m 83.944628,68.38742 c 0.8791,0.04046 1.736021,0.278899 2.611054,0.328054 1.313005,0.02806 2.614896,-0.139843 3.92824,-0.14523 2.341075,0.02455 4.607213,0.637437 6.846294,1.260012 1.812187,0.5296 3.634854,1.017257 5.523944,1.166249 1.24645,0.09831 1.74475,0.05788 2.99834,0.03416 2.89475,-0.223089 5.73792,-0.841076 8.62559,-1.122397 2.39565,-0.21032 4.74784,0.362342 7.09676,0.73747 1.76735,0.316553 3.43037,0.283533 5.19135,0.0013 0.8691,-0.113135 1.76522,-0.416279 2.63453,-0.171516 0.16085,-0.047 0.52402,0.286271 0.66815,0.278321 0.0699,-0.0039 0.0736,-0.194353 0.0745,-0.200607 -3.73458,2.286108 -3.76348,2.790515 -2.7912,1.114639 0.0713,-0.07927 0.10363,-0.301173 0.2023,-0.2057 0.0232,-0.03924 0.0222,-0.08556 0.0242,-0.12972 0,0 3.56716,-1.819828 3.56716,-1.819828 v 0 c 0.003,0.06745 0.003,0.135046 0.0103,0.202268 0.0468,0.177906 -0.0411,0.19888 -0.15213,0.34724 -0.14778,0.209404 -0.2495,0.398354 -0.34875,0.633005 -0.55334,1.308306 -3.44509,2.259629 -3.61986,2.367618 -0.30714,-0.07715 -0.57375,-0.275143 -0.89477,-0.31732 -0.84261,-0.09219 -1.6734,0.149966 -2.50567,0.246004 -1.73932,0.224087 -3.48543,0.196602 -5.21397,-0.131566 -2.31715,-0.388575 -4.64358,-0.916374 -7.00853,-0.676426 -2.88222,0.306131 -5.72821,0.906277 -8.62495,1.080357 -1.28331,0.01024 -1.76092,0.04635 -3.035835,-0.07068 -1.902897,-0.174691 -3.738812,-0.6852 -5.57176,-1.199862 -2.235616,-0.598548 -4.4996,-1.174845 -6.832986,-1.135054 -1.335943,0.04353 -2.668091,0.228705 -4.005649,0.149365 -0.867677,-0.104325 -1.728219,-0.292616 -2.60695,-0.287737 0,0 3.210308,-2.332424 3.210308,-2.332424 z"
       inkscape:connector-curvature="0"
       style="stroke-width:0.26458332" />
    <path
       id="path111"
       d="m 98.906948,89.574975 c -0.54596,0.182615 -1.074878,0.427826 -1.584468,0.695031 -0.205899,0.107963 -0.810911,0.455202 -0.607272,0.343032 2.930237,-1.614056 3.566232,-2.211742 2.223056,-1.075346 -0.89344,0.865299 -1.429359,1.9704 -1.47048,3.223287 -0.0094,0.286946 0.02424,0.573688 0.03636,0.860533 0.241493,1.589723 1.082435,2.929901 2.431227,3.817625 0.273319,0.179893 0.573709,0.314831 0.860569,0.472245 1.44707,0.591383 3.00048,0.769633 4.53009,0.411382 0.2702,-0.06329 0.53081,-0.162155 0.79622,-0.243232 2.20155,-1.101719 -1.32198,0.846535 -2.03095,1.177952 -0.2078,0.09713 0.35555,-0.293632 0.50407,-0.468429 0.54077,-0.636429 0.68762,-1.372434 0.8447,-2.165493 0.098,-1.364538 0.0747,-2.880013 -0.65244,-4.094731 -0.10904,-0.182166 -0.25579,-0.338921 -0.38369,-0.508381 -0.15323,-0.109964 -0.29117,-0.245219 -0.4597,-0.329888 -0.98971,-0.497232 -2.20357,0.06044 -3.1392,0.410056 -1.263123,0.513901 -2.532162,1.027505 -3.725372,1.690828 -1.206214,0.720577 -2.042496,1.217983 2.913359,-1.671021 0.02453,-0.01429 -0.06287,0.04593 -0.08153,0.02455 -0.163936,-0.187893 -0.08404,-0.18547 0.02914,-0.235434 0,0 -3.28222,2.262601 -3.28222,2.262601 v 0 c -0.07078,-0.0399 -0.156636,-0.06053 -0.212328,-0.119687 -0.112868,-0.119888 -0.292394,-0.382429 -0.152797,-0.469752 2.065041,-1.29176 2.482461,-1.514211 3.859858,-2.262921 1.20648,-0.615196 2.46416,-1.12895 3.72658,-1.616591 1.43543,-0.478218 2.67588,-0.832027 3.89197,0.324102 0.13714,0.192831 0.29318,0.373531 0.41141,0.578498 0.74483,1.291191 0.80644,2.866234 0.74599,4.313764 -0.12169,0.838197 -0.2342,1.647883 -0.72519,2.367381 -1.11646,1.636029 -3.34161,2.440164 -5.16617,3.162584 -0.27377,0.0671 -0.54396,0.15109 -0.82133,0.20132 -1.59107,0.28813 -3.1952,0.0319 -4.660875,-0.63149 -0.298096,-0.174227 -0.610296,-0.326304 -0.894287,-0.522681 -1.411867,-0.976299 -2.304642,-2.409118 -2.606185,-4.091207 -0.02384,-0.302836 -0.06895,-0.604747 -0.07153,-0.90851 -0.01114,-1.313013 0.451276,-2.516463 1.335524,-3.483435 1.608688,-1.522214 0.437327,-0.484058 4.440266,-2.853248 0.716407,-0.424011 1.498267,-0.738413 2.279497,-1.018421 0,0 -3.131865,2.433134 -3.131865,2.433134 z"
       inkscape:connector-curvature="0"
       style="stroke-width:0.26458332" />
  </g>
</svg>
