<?xml version="1.0" encoding="UTF-8" standalone="no"?>
<!-- Created with Inkscape (http://www.inkscape.org/) -->

<svg
   xmlns:dc="http://purl.org/dc/elements/1.1/"
   xmlns:cc="http://creativecommons.org/ns#"
   xmlns:rdf="http://www.w3.org/1999/02/22-rdf-syntax-ns#"
   xmlns:svg="http://www.w3.org/2000/svg"
   xmlns="http://www.w3.org/2000/svg"
   xmlns:sodipodi="http://sodipodi.sourceforge.net/DTD/sodipodi-0.dtd"
   xmlns:inkscape="http://www.inkscape.org/namespaces/inkscape"
   width="210mm"
   height="297mm"
   viewBox="0 0 210 297"
   version="1.1"
   id="svg8"
   inkscape:export-filename="/home/edward/Desktop/CAT125Project/resources/compiler.png"
   inkscape:export-xdpi="96"
   inkscape:export-ydpi="96"
   inkscape:version="0.92.4 (5da689c313, 2019-01-14)"
   sodipodi:docname="compiler.svg">
  <defs
     id="defs2" />
  <sodipodi:namedview
     id="base"
     pagecolor="#ffffff"
     bordercolor="#666666"
     borderopacity="1.0"
     inkscape:pageopacity="0.0"
     inkscape:pageshadow="2"
     inkscape:zoom="1.4"
     inkscape:cx="364.61853"
     inkscape:cy="901.0185"
     inkscape:document-units="mm"
     inkscape:current-layer="layer1"
     showgrid="false"
     inkscape:window-width="1850"
     inkscape:window-height="1016"
     inkscape:window-x="70"
     inkscape:window-y="27"
     inkscape:window-maximized="1" />
  <metadata
     id="metadata5">
    <rdf:RDF>
      <cc:Work
         rdf:about="">
        <dc:format>image/svg+xml</dc:format>
        <dc:type
           rdf:resource="http://purl.org/dc/dcmitype/StillImage" />
        <dc:title></dc:title>
      </cc:Work>
    </rdf:RDF>
  </metadata>
  <g
     inkscape:label="Layer 1"
     inkscape:groupmode="layer"
     id="layer1">
    <path
       id="path26"
       d="m 21.354127,10.349577 c 0.523547,1.00958 0.716435,2.119826 0.852175,3.236012 0.142949,1.976682 -0.186951,3.946531 -0.407068,5.905447 -0.298739,2.565419 -0.335405,5.145533 -0.299739,7.724381 0.05737,1.331788 0.02286,0.689314 0.100804,1.927566 0,0 -2.374113,1.224974 -2.374113,1.224974 v 0 c -0.04962,-1.259253 -0.02761,-0.606182 -0.06431,-1.959277 -0.0028,-2.588074 0.03236,-5.177243 0.294242,-7.754765 0.192038,-1.928731 0.492809,-3.867329 0.354223,-5.809757 -0.137307,-1.069 -0.308883,-2.14788 -0.872931,-3.087989 0,0 2.416716,-1.406592 2.416717,-1.406592 z"
       inkscape:connector-curvature="0"
       style="stroke-width:0.26458332" />
    <path
       id="path28"
       d="m 26.818238,25.772193 c 0.256923,0.026 0.521165,0.104488 0.781629,0.06125 0.08195,-0.0136 0.307848,-0.121766 0.235985,-0.0801 -2.527929,1.465597 -2.836039,1.731575 -2.027744,1.078263 0.388188,-0.59894 -0.034,-1.214325 -0.444188,-1.668998 -0.29029,-0.245656 -0.635202,-0.477499 -1.032779,-0.490871 -0.697463,-0.02346 -3.341692,1.647999 1.304584,-0.894685 -0.644146,0.610015 -1.018097,1.479536 -1.028219,2.371384 -0.0019,0.166306 0.0278,0.33147 0.0417,0.497202 0.09549,0.307528 0.121666,0.519319 0.348014,0.763606 0.450117,0.485791 1.251623,0.506424 1.854684,0.551106 0.875474,0.0127 0.434269,0.01299 1.323612,-0.0016 0,0 -2.192584,1.597017 -2.192584,1.597017 v 0 c -0.903293,0.0069 -0.453335,0.01183 -1.34988,-0.0145 -1.223545,-0.13521 -2.067849,-0.310224 -2.413175,-1.627833 -0.02007,-0.181182 -0.05664,-0.361289 -0.0602,-0.543542 -0.01832,-0.938551 0.34062,-1.853592 0.912021,-2.583622 0.911162,-0.534428 1.805069,-1.099426 2.733486,-1.603283 0.117821,-0.06394 0.257891,-0.08007 0.39136,-0.09259 0.594383,-0.05573 1.106611,0.261283 1.527576,0.644328 0.515964,0.584499 0.905712,1.209067 0.653778,2.009475 -0.952034,1.532781 -2.377318,1.857451 -3.852866,1.644858 0,0 2.293203,-1.616896 2.293203,-1.616896 z"
       inkscape:connector-curvature="0"
       style="stroke-width:0.26458332" />
    <path
       id="path30"
       d="m 35.2513,10.432436 c -0.164264,0.981112 -0.380633,1.951313 -0.607354,2.919556 -0.373785,1.570963 -0.722043,3.147827 -1.079392,4.72257 -0.290076,1.287982 -0.495707,2.606409 -0.383735,3.930083 0.02077,0.245394 0.06504,0.488227 0.09756,0.732341 0.221001,1.371422 0.640027,2.690166 1.286232,3.918128 0.476263,0.767231 1.202148,1.306563 2.137743,1.284359 0.180229,-0.0043 0.357775,-0.04471 0.536663,-0.06707 0.17627,-0.05331 0.358939,-0.08883 0.528814,-0.159938 0.168072,-0.07035 0.640035,-0.348594 0.479626,-0.262181 -0.635605,0.342403 -1.270153,0.686771 -1.90523,1.030156 0,0 2.542117,-1.012177 2.542117,-1.012177 v 0 c -0.924962,0.562671 -1.838415,1.144714 -2.774889,1.68801 -0.160319,0.09301 -0.334732,0.16216 -0.51131,0.218487 -0.181446,0.05788 -0.372031,0.08175 -0.558046,0.122632 -0.190818,0.0077 -0.381855,0.03495 -0.572453,0.02299 -1.00068,-0.0628 -1.766212,-0.683127 -2.268201,-1.51367 -0.64757,-1.261333 -1.070176,-2.613491 -1.309002,-4.011934 -0.03519,-0.252176 -0.08215,-0.502986 -0.105558,-0.756526 -0.124267,-1.346056 0.06603,-2.689099 0.363746,-4.000054 0.357749,-1.567101 0.699397,-3.137764 1.046533,-4.707235 0.212394,-0.946326 0.423791,-1.894235 0.544039,-2.857644 0,0 2.5121,-1.240875 2.5121,-1.240875 z"
       inkscape:connector-curvature="0"
       style="stroke-width:0.26458332" />
    <path
       id="path32"
       d="m 29.068892,18.817577 c 0.394375,0.714279 1.069747,0.80572 1.818177,0.846983 1.468072,-0.03094 2.861215,-0.571511 4.238657,-1.029119 0,0 -2.122403,1.647761 -2.122403,1.647761 v 0 c -1.410594,0.461405 -2.841054,1.00374 -4.346893,0.974562 -0.910399,-0.09605 -1.502603,-0.254838 -2.027184,-1.051091 0,0 2.439646,-1.389096 2.439646,-1.389096 z"
       inkscape:connector-curvature="0"
       style="stroke-width:0.26458332" />
    <path
       id="path34"
       d="m 48.805173,21.212422 c -0.259146,-0.699263 -0.993791,-0.708632 -1.632722,-0.663475 -0.169757,0.02901 -0.34121,0.04942 -0.509273,0.08702 -0.468757,0.104888 -0.696867,0.189439 -1.139902,0.390487 -0.201525,0.09145 -0.783841,0.410063 -0.594693,0.295172 3.263389,-1.982247 1.784149,-1.021148 1.116777,-0.578619 -0.966642,0.710821 -1.855671,1.590773 -2.266193,2.746131 -0.07461,0.209974 -0.114231,0.430783 -0.171344,0.646174 -0.108958,1.078038 0.181234,2.009825 1.204859,2.52398 0.182018,0.09143 0.38262,0.139859 0.573929,0.209788 0.204804,0.02619 0.407945,0.07691 0.61441,0.0786 0.44677,0.0037 0.842659,-0.09724 1.24278,-0.294658 0.207118,-0.10219 0.797401,-0.463221 0.58679,-0.368441 -1.791012,0.806001 -2.247408,1.450774 -1.234395,0.32248 0.932352,-1.229869 1.335813,-2.700373 1.573281,-4.198936 0.03715,-0.430478 0.08019,-0.865118 0.0114,-1.294893 -0.0323,-0.201818 -0.06872,-0.283447 -0.103598,-0.261321 -0.02728,0.01731 -0.01064,0.06373 -0.01595,0.09559 0.791192,-0.427575 1.569254,-0.880395 2.37358,-1.282726 0.04451,-0.02226 -0.06069,0.08253 -0.07137,0.131135 -0.01733,0.0789 -0.01455,0.161421 -0.01061,0.242104 0.01892,0.388043 0.135403,0.749225 0.253193,1.115609 0.451496,1.103554 1.236654,2.019077 1.981901,2.933278 0.855237,1.006663 1.684642,2.037776 2.615848,2.9762 0.215043,0.261408 0.476845,0.464756 0.75284,0.654955 0,0 -2.358858,1.489916 -2.358858,1.489916 v 0 C 53.333924,28.98866 53.08025,28.758663 52.8643,28.489918 51.963452,27.516481 51.129572,26.48431 50.264768,25.479221 49.493185,24.543024 48.678787,23.609529 48.194663,22.48357 c -0.170098,-0.475804 -0.322011,-0.953844 -0.348472,-1.462674 -0.0044,-0.08385 -0.0697,-0.2047 -2.51e-4,-0.251888 0.801047,-0.544287 1.67608,-0.970804 2.514121,-1.456206 0.04647,0.03714 0.100586,0.06635 0.139398,0.111428 0.316304,0.3674 0.119417,1.365052 0.107582,1.789912 -0.244255,1.531961 -0.63438,3.045098 -1.528873,4.340577 -1.168226,1.464282 -0.367086,0.594799 -3.353025,2.43349 -0.810998,0.499399 -1.674469,0.656482 -2.597481,0.395198 -0.203594,-0.0867 -0.417981,-0.151487 -0.610782,-0.260091 -1.080469,-0.6086 -1.429314,-1.632865 -1.353119,-2.815669 0.05161,-0.229078 0.08453,-0.463185 0.154823,-0.687234 0.375476,-1.196661 1.237179,-2.13756 2.210155,-2.889453 1.424297,-1.001858 0.803029,-0.591821 3.522096,-2.100751 0.717923,-0.398407 1.52586,-0.628422 2.34007,-0.702783 0.858623,0.0087 1.474648,0.111281 1.87719,0.942473 0,0 -2.462919,1.342523 -2.462919,1.342523 z"
       inkscape:connector-curvature="0"
       style="stroke-width:0.26458332" />
    <path
       id="path36"
       d="m 60.468687,19.952124 c 0.776956,0.246 1.574352,0.190976 2.372746,0.129662 0.626835,-0.06345 1.240956,-0.190493 1.854091,-0.330324 0,0 -2.198883,1.670258 -2.198883,1.670258 v 0 c -0.615762,0.125769 -1.234615,0.233725 -1.861558,0.287415 -0.83598,0.05618 -1.666888,0.06174 -2.480736,-0.172026 0,0 2.31434,-1.584985 2.31434,-1.584985 z"
       inkscape:connector-curvature="0"
       style="stroke-width:0.26458332" />
    <path
       id="path38"
       d="m 58.602874,24.724862 c 1.000636,-0.132749 1.992368,-0.309921 2.965381,-0.579767 0.15925,-0.05191 0.320149,-0.09901 0.477753,-0.155726 0.37959,-0.136593 0.471315,-0.184349 0.821682,-0.375139 0.127312,-0.06933 0.503812,-0.287068 0.377963,-0.215122 -2.131018,1.218259 -2.653253,1.571858 -1.69639,0.941462 0,0 2.574875,-1.010432 2.574875,-1.010432 v 0 c -1.151041,0.809683 -0.35269,0.261527 -3.024203,1.798714 -0.534271,0.307418 -1.110343,0.527024 -1.705698,0.683426 -0.996153,0.251485 -2.009282,0.408124 -3.018202,0.598625 0,0 2.226839,-1.686041 2.226839,-1.686041 z"
       inkscape:connector-curvature="0"
       style="stroke-width:0.26458332" />
    <path
       id="path40"
       d="m 69.109563,12.291273 c 0.07391,0.542652 0.261823,0.966744 0.706932,1.293169 0.696164,0.270929 1.491509,0.291394 2.229866,0.388482 1.1162,0.124026 2.23335,0.285289 3.317438,0.583338 0.807612,0.283368 1.1303,0.533583 1.089086,1.419682 -0.251878,0.958261 -0.786008,1.820451 -1.254035,2.686863 -0.219281,0.538762 -0.772525,1.287162 -0.604187,1.898605 0.41914,0.438137 1.036995,0.659015 1.586125,0.89002 0.936196,0.365899 1.917657,0.586728 2.853555,0.955362 0.755703,0.386796 1.145886,0.717903 1.240798,1.586145 -0.04785,0.927389 -0.635072,1.680853 -1.193324,2.37724 -0.480478,0.528159 -0.986211,1.066348 -1.610442,1.429126 -2.744581,1.59504 -1.732849,1.32361 -3.155405,1.646364 -0.139573,0.0061 -0.279294,0.02729 -0.418716,0.01839 -0.278757,-0.01781 -0.686959,-0.126733 -0.950288,-0.199517 -0.56482,-0.156118 -1.120619,-0.344406 -1.676956,-0.527714 -0.187613,-0.0566 -0.37523,-0.113189 -0.562846,-0.169786 0,0 2.254089,-1.537274 2.254089,-1.537274 v 0 c 0.187428,0.05851 0.374856,0.117028 0.562285,0.175543 0.766823,0.245531 1.781217,0.64775 2.59253,0.614495 0.13027,-0.0053 0.257897,-0.03855 0.386847,-0.05782 1.09533,-0.382058 0.539708,-0.216389 -1.592963,1.035513 -0.137269,0.08058 0.2756,-0.159829 0.407519,-0.248898 0.463709,-0.31309 0.871757,-0.692944 1.247084,-1.106647 0.536102,-0.637905 1.10613,-1.320453 1.239396,-2.16964 -0.0073,-0.748389 -0.423757,-1.022501 -1.056233,-1.331565 -0.938011,-0.36757 -1.922264,-0.587323 -2.858473,-0.959382 -0.625973,-0.260757 -1.332939,-0.510046 -1.747205,-1.075814 -0.02743,-0.08257 -0.07036,-0.161528 -0.08229,-0.247715 -0.08555,-0.618229 0.430102,-1.331122 0.641991,-1.875295 0.455538,-0.836069 0.941848,-1.668082 1.261522,-2.567455 0.119243,-0.776302 -0.183657,-0.84762 -0.866809,-1.101798 -1.073888,-0.288977 -2.176703,-0.450053 -3.282516,-0.55934 -0.788694,-0.08831 -1.655744,-0.08103 -2.358845,-0.485885 -0.46953,-0.401851 -0.700678,-0.870057 -0.825995,-1.47382 0,0 2.480464,-1.302963 2.480464,-1.302963 z"
       inkscape:connector-curvature="0"
       style="stroke-width:0.26458332" />
    <path
       id="path42"
       d="m 20.918247,37.022987 c 0.114416,1.237832 0.07472,2.480976 0.03648,3.721179 -0.08653,2.49323 -0.113561,4.987803 -0.127077,7.482313 -0.0059,1.753172 -0.12515,3.502367 -0.277178,5.247942 0,0 -2.401975,1.19408 -2.401975,1.19408 v 0 c 0.194664,-1.748126 0.343329,-3.502302 0.360333,-5.262464 0.01957,-2.486327 0.04238,-4.97263 0.07379,-7.45884 0.008,-1.205613 0.03148,-2.418728 -0.146133,-3.615007 0,0 2.481758,-1.309203 2.481758,-1.309203 z"
       inkscape:connector-curvature="0"
       style="stroke-width:0.26458332" />
    <path
       id="path44"
       d="m 26.071769,50.302966 c 0.847979,0.06319 1.689396,0.108233 2.538619,0.03609 0.29433,-0.04921 0.556937,-0.07878 0.839073,-0.180427 0.121047,-0.04361 0.460999,-0.227915 0.349774,-0.163238 -3.519571,2.046589 -2.233422,1.488639 -1.58422,0.679315 0.343602,-0.61192 0.183433,-1.226473 -0.214786,-1.761053 -0.64258,-0.56765 -1.103569,-0.466802 -1.787544,-0.03879 0.667648,-0.363632 1.305447,-0.788445 2.002947,-1.090901 0.152924,-0.06631 -0.238062,0.235175 -0.337701,0.368803 -0.467868,0.62747 -0.642054,1.379993 -0.767604,2.134688 -0.06465,0.813125 -0.0093,1.753285 0.675415,2.315032 0.111324,0.09133 0.246573,0.148802 0.369861,0.223203 1.11079,0.372731 2.182207,-0.14854 3.151974,-0.666705 -0.610222,0.347183 -1.220444,0.69437 -1.830668,1.041553 0,0 2.546217,-0.981117 2.546217,-0.981117 v 0 c -0.94647,0.547063 -1.89294,1.094126 -2.83941,1.641189 -1.0585,0.514527 -2.194055,0.967513 -3.343607,0.450279 -0.135529,-0.09517 -0.283767,-0.174416 -0.406587,-0.285502 -0.714472,-0.64621 -0.825163,-1.63018 -0.771006,-2.536407 0.106609,-0.788074 0.269215,-1.572736 0.691347,-2.262296 0.08986,-0.146782 0.166566,-0.316447 0.30818,-0.414252 0.870826,-0.601427 1.802064,-1.110303 2.703097,-1.665457 0.129802,-0.05589 0.254,-0.127196 0.389406,-0.167659 0.621466,-0.185706 1.205182,0.0746 1.633601,0.522558 0.441769,0.624411 0.65986,1.322157 0.368382,2.066017 -0.87639,1.460736 -2.715649,2.202931 -4.361143,2.403568 -0.865636,0.04453 -1.725392,-0.02035 -2.590575,-0.02146 0,0 2.266958,-1.647042 2.266958,-1.647042 z"
       inkscape:connector-curvature="0"
       style="stroke-width:0.26458332" />
    <path
       id="path46"
       d="m 36.353321,38.621689 c -0.401669,1.111528 -0.574612,2.288156 -0.723363,3.455278 -0.164827,1.515282 -0.181396,3.05869 0.09908,4.562586 0.05402,0.289656 0.133773,0.573916 0.20066,0.860875 0.367765,1.220796 1.00616,2.348749 2.01867,3.147386 0.159885,0.126113 0.336135,0.229962 0.504201,0.344942 0.795726,0.371279 1.60206,0.62651 2.414791,0.17421 0,0 -2.186546,1.725295 -2.186546,1.725295 v 0 c -0.876461,0.259807 -1.748483,0.0064 -2.525091,-0.438862 -0.170825,-0.126423 -0.349723,-0.242612 -0.512476,-0.37927 -1.026306,-0.861753 -1.684949,-2.033357 -2.066446,-3.305817 -0.06937,-0.294667 -0.152385,-0.586449 -0.208111,-0.883997 -0.284673,-1.519944 -0.28716,-3.08047 -0.146513,-4.615169 0.120719,-1.167575 0.284811,-2.331559 0.592431,-3.466637 0,0 2.538709,-1.18082 2.538709,-1.18082 z"
       inkscape:connector-curvature="0"
       style="stroke-width:0.26458332" />
    <path
       id="path48"
       d="m 30.626902,43.19493 c 1.081923,0.237649 2.197825,0.190714 3.292654,0.08861 1.201106,-0.125735 2.324767,-0.561221 3.393268,-1.101873 0,0 -2.140029,1.708986 -2.140029,1.708986 v 0 c -1.086286,0.514914 -2.228437,0.906092 -3.435003,1.006084 -1.138394,0.08486 -2.290763,0.111839 -3.416684,-0.111358 0,0 2.305794,-1.590445 2.305794,-1.590445 z"
       inkscape:connector-curvature="0"
       style="stroke-width:0.26458332" />
    <path
       id="path50"
       d="m 47.359625,38.599567 c -0.05695,1.197806 0.02566,2.39644 0.06853,3.59347 0.01868,1.397998 0.0806,2.79281 0.248655,4.181079 0.112081,0.454186 0.125114,1.217646 0.513387,1.553511 0.0245,0.0024 0.05079,0.0168 0.0735,0.0073 0.05997,-0.02508 0.168806,-0.190834 0.111648,-0.159877 -0.769897,0.416959 -1.508627,0.890074 -2.280681,1.303027 -0.06307,0.03374 0.09953,-0.103155 0.14325,-0.159766 0.0556,-0.07199 0.102712,-0.150153 0.154065,-0.225229 0.383661,-0.678458 0.790643,-1.331791 1.349168,-1.879253 1.051081,-0.725932 1.09715,-0.776002 3.057115,-1.656482 0.26964,-0.121132 1.421522,0.306311 1.705589,0.41239 0.643149,0.296812 1.290434,0.588698 1.912112,0.929 0.487751,0.327652 0.363931,0.620829 0.02604,1.013576 -1.233935,1.019815 -2.681187,1.865223 -4.234585,2.279668 -0.84505,0.23807 -1.719154,0.334601 -2.583339,0.475854 -0.466505,0.06697 -0.91776,0.213936 -1.391531,0.151749 0,0 2.274366,-1.631905 2.274366,-1.631905 v 0 c 0.448469,-0.01101 0.882997,-0.120986 1.326568,-0.179163 0.85969,-0.134064 1.727748,-0.239861 2.560424,-0.50392 0.362394,-0.119451 0.383423,-0.116234 0.723587,-0.266457 0.103217,-0.04558 0.402357,-0.203575 0.305726,-0.145317 -3.743899,2.257222 -2.349608,1.414518 -1.558485,0.887921 0.05979,-0.05125 0.119575,-0.10251 0.179363,-0.153763 0.04124,-0.04396 0.07828,-0.09228 0.123727,-0.131873 0.182044,-0.158578 0.137978,-0.0925 -0.09261,-0.272521 -0.595741,-0.344615 -1.220055,-0.641795 -1.852285,-0.912448 -0.406006,-0.138538 -0.818414,-0.291142 -1.254016,-0.298817 -0.121473,-0.0021 -0.461317,0.105174 -0.36289,0.03396 1.109584,-0.802841 2.896405,-1.66221 1.693445,-1.074962 -0.604163,0.494715 -1.00466,1.107916 -1.359228,1.798669 -0.66833,1.176938 -0.594014,0.711584 -2.761589,1.965973 -0.128114,0.07414 -0.305255,-0.08525 -0.391392,-0.149127 -0.388065,-0.491471 -0.433438,-1.149024 -0.529622,-1.74543 -0.139647,-1.400439 -0.211125,-2.804226 -0.231931,-4.211621 -0.04865,-1.186656 -0.129236,-2.37168 -0.159142,-3.558942 0,0 2.49306,-1.270275 2.49306,-1.270275 z"
       inkscape:connector-curvature="0"
       style="stroke-width:0.26458332" />
    <path
       id="path52"
       d="m 58.955696,42.17648 c 0.825058,-0.04422 1.638136,-0.190699 2.451968,-0.324898 0.67115,-0.114117 1.3488,-0.185449 2.027563,-0.23414 0,0 -2.251848,1.659077 -2.251848,1.659077 v 0 c -0.661228,0.04056 -1.319818,0.115981 -1.97303,0.227121 -0.835967,0.138277 -1.674032,0.277419 -2.521608,0.319879 0,0 2.266955,-1.647039 2.266955,-1.647039 z"
       inkscape:connector-curvature="0"
       style="stroke-width:0.26458332" />
    <path
       id="path54"
       d="m 59.89458,47.209955 c 0.644356,0.293654 1.346804,0.342083 2.04393,0.343072 0.305091,-0.03426 0.395489,-0.031 0.689552,-0.116392 0.788011,-0.228836 3.337431,-1.798008 -1.230773,0.787529 0,0 2.583625,-1.013293 2.583625,-1.013293 v 0 c -1.36973,0.806942 -2.641156,1.925452 -4.281504,1.962213 -0.735142,-0.02778 -1.47094,-0.117805 -2.150099,-0.420023 0,0 2.345269,-1.543106 2.345269,-1.543106 z"
       inkscape:connector-curvature="0"
       style="stroke-width:0.26458332" />
    <path
       id="path56"
       d="m 70.783965,35.16858 c -0.199927,1.102471 -0.790289,2.077315 -1.34353,3.033636 -0.602142,1.113721 -1.3472,2.211059 -1.577983,3.480731 -0.03423,0.188333 -0.03633,0.381111 -0.05449,0.571667 0.02363,0.161666 0.02384,0.328528 0.07085,0.484994 0.180928,0.602004 0.803034,0.896343 1.385621,0.960441 0.185877,0.02045 0.373977,0.0036 0.560966,0.0054 1.716641,-0.108178 3.322439,-0.760508 4.914795,-1.357117 1.152839,-0.453956 2.305513,-0.909492 3.416868,-1.458428 0,0 -2.1502,1.713576 -2.1502,1.713576 v 0 c -1.100894,0.507021 -2.232533,0.942774 -3.361073,1.383771 -1.627185,0.603229 -3.278804,1.257329 -5.035828,1.312534 -0.200901,-0.01577 -0.404447,-0.01117 -0.602702,-0.04729 -0.684789,-0.124765 -1.338199,-0.537922 -1.550628,-1.231612 -0.0543,-0.1773 -0.05925,-0.366091 -0.08887,-0.549137 0.01585,-0.205769 0.01389,-0.41369 0.04752,-0.617313 0.213992,-1.29604 0.957019,-2.419786 1.562902,-3.556249 0.524928,-0.907047 1.112234,-1.842328 1.287875,-2.891366 0,0 2.517907,-1.238255 2.517907,-1.238255 z"
       inkscape:connector-curvature="0"
       style="stroke-width:0.26458332" />
    <path
       id="path58"
       d="m 74.764719,38.198057 c -0.09085,1.293272 -0.290825,2.57452 -0.458435,3.859085 -0.272439,1.935893 -0.441042,3.885269 -0.467191,5.840024 -0.02074,0.697137 0.03818,1.387496 0.134033,2.076368 0,0 -2.416244,1.269283 -2.416244,1.269283 v 0 c -0.07946,-0.710206 -0.130572,-1.421501 -0.09903,-2.13731 0.0386,-1.961692 0.204087,-3.917984 0.452658,-5.864169 0.143219,-1.254469 0.332449,-2.506546 0.357507,-3.771149 0,0 2.496701,-1.272132 2.496702,-1.272132 z"
       inkscape:connector-curvature="0"
       style="stroke-width:0.26458332" />
    <path
       id="path60"
       d="m 86.213846,15.210696 c -0.241504,-0.498313 -0.5743,-0.974008 -1.088438,-1.209129 -0.05517,0.0062 -0.116864,-0.008 -0.16551,0.01871 -0.05002,0.02751 -0.159443,0.158655 -0.10886,0.132199 0.770837,-0.403168 1.495623,-0.893829 2.280846,-1.268208 0.06509,-0.03103 -0.05105,0.136638 -0.05803,0.208413 -0.0236,0.242556 0.02678,0.40608 0.0724,0.643748 0.125669,0.354622 0.404588,1.114271 0.856136,1.171622 0.05916,0.0075 0.11834,-0.01481 0.177512,-0.02222 0.816477,-0.701248 -0.138526,0.135483 -2.104687,1.127523 -0.06691,0.03376 0.09684,-0.115905 0.131604,-0.182305 0.12936,-0.247116 0.157813,-0.523536 0.180679,-0.79544 -0.01603,-1.545694 -0.874964,-0.245918 2.381334,-1.842659 0,0 -2.620004,1.05222 -2.620004,1.05222 v 0 c 2.260658,-1.135711 2.647685,-2.172561 2.724822,-0.46052 -0.03318,1.570638 -0.917925,2.607859 -2.97484,2.720608 -0.07763,-0.02246 -0.15983,-0.03285 -0.232908,-0.06736 -0.526034,-0.248444 -0.759912,-0.895798 -0.960543,-1.392143 -0.02537,-0.10802 -0.216763,-0.946331 -0.127003,-1.015868 0.847447,-0.656532 1.770814,-1.938827 2.883879,-1.552668 0.518636,0.328613 0.891696,0.812612 1.191255,1.344388 0,0 -2.439646,1.389097 -2.439646,1.389097 z"
       inkscape:connector-curvature="0"
       style="stroke-width:0.26458332" />
    <path
       id="path62"
       d="m 88.415089,24.358098 c 0.236837,0.738772 0.42957,1.487325 0.571151,2.249992 0.08754,0.69818 -0.203153,1.253151 -0.630767,1.774804 -0.06821,0.074 -0.136424,0.148008 -0.204637,0.222014 0,0 -2.566786,1.069306 -2.566786,1.069306 v 0 c 0.07018,-0.07013 0.140367,-0.140253 0.21055,-0.210378 0.438846,-0.470289 0.765281,-0.876152 0.746448,-1.556732 -0.119306,-0.748051 -0.293637,-1.483175 -0.573479,-2.189218 0,0 2.44752,-1.359788 2.44752,-1.359788 z"
       inkscape:connector-curvature="0"
       style="stroke-width:0.26458332" />
    <path
       id="path64"
       d="m 87.318505,38.563253 c -0.312552,-0.276783 -0.66181,-0.50904 -1.011955,-0.735158 -0.786389,-0.926356 1.706875,-1.261938 2.438326,-1.62882 0.0589,-0.02954 0.129876,0.0249 0.195702,0.02797 0.24679,0.01156 0.235114,-0.0088 0.474168,-0.08492 0.866044,-0.448024 2.272175,-1.183822 -1.676548,0.968142 -0.07488,0.04081 0.135895,-0.103198 0.200961,-0.158324 0.115181,-0.09759 0.184309,-0.171643 0.287721,-0.276399 0.111319,-0.120753 0.06449,-0.06285 0.144246,-0.170619 0,0 2.613657,-1.057175 2.613657,-1.057175 v 0 c -0.120811,0.0603 -0.0586,0.01677 -0.172336,0.14891 -0.963885,1.053669 -2.265003,1.790833 -3.618246,2.228977 -0.311526,0.03437 -0.236717,0.04153 -0.538496,0.01714 -0.068,-0.0055 -0.258783,0.0163 -0.203322,-0.02344 3.453548,-2.47379 2.810966,-0.739664 2.193296,-1.534633 -0.009,-0.01162 0.02133,0.02024 0.03198,0.03035 0.333793,0.245999 0.667062,0.49276 1.00339,0.735275 0,0 -2.362547,1.512713 -2.362547,1.512713 z"
       inkscape:connector-curvature="0"
       style="stroke-width:0.26458332" />
    <path
       id="path66"
       d="m 89.393232,44.936251 c 0.468792,0.184742 0.850512,0.476594 1.050013,0.944044 0.113683,0.452927 0.05182,0.926234 0.02814,1.38681 -0.03824,1.170253 -0.14882,2.335525 -0.36848,3.485539 -0.05256,0.209188 -0.105127,0.418375 -0.157689,0.62756 0,0 -2.45327,1.171363 -2.45327,1.171363 v 0 c 0.05668,-0.205179 0.113356,-0.41036 0.170035,-0.615539 0.236797,-1.122866 0.334327,-2.268064 0.331486,-3.415787 0.0038,-0.425236 0.04372,-0.853416 0.0031,-1.276927 -0.138554,-0.41629 -0.550508,-0.606409 -0.936448,-0.752263 0,0 2.333075,-1.5548 2.333075,-1.5548 z"
       inkscape:connector-curvature="0"
       style="stroke-width:0.26458332" />
    <path
       id="path68"
       d="m 35.764993,70.916291 c -0.165317,-0.708448 -0.506436,-1.326716 -0.990031,-1.863429 -0.833157,-0.803859 -1.478015,-0.966774 -2.609773,-0.953992 -0.562144,0.116316 -0.572235,0.08226 -1.097656,0.339119 -0.178265,0.08715 -0.69289,0.38703 -0.517702,0.293847 3.005693,-1.598766 2.098043,-1.365753 1.458862,-0.615638 -0.116184,0.136348 -0.206348,0.29288 -0.309523,0.439319 -0.412107,0.822545 -0.43771,1.596586 0.268132,2.26913 0.138197,0.131678 0.301802,0.233807 0.452702,0.350711 0.897088,0.510617 1.889106,0.596323 2.823697,0.123224 0.184253,-0.09327 0.350959,-0.217762 0.526439,-0.326646 -0.604505,0.316166 -1.167964,0.727924 -1.813513,0.948494 -0.217329,0.07426 0.331846,-0.318659 0.481079,-0.493231 0.592534,-0.693132 1.017468,-1.523728 1.497557,-2.294054 0.887818,-1.318578 1.433275,-1.479571 3.394163,-2.141403 0.111053,-0.03748 0.153275,0.178756 0.213989,0.279014 0.07238,0.119518 0.122182,0.251323 0.183275,0.376984 0.274746,0.664503 0.472387,1.359207 0.809061,1.997771 0.225459,0.427627 0.287316,0.481009 0.569894,0.8607 0.439862,0.546026 1.030134,0.913228 1.644991,1.229881 0.116107,0.08838 0.241329,0.163118 0.366149,0.238151 0,0 -2.367026,1.521849 -2.367026,1.521849 v 0 c -0.114173,-0.07759 -0.227319,-0.156667 -0.342148,-0.233296 -0.619234,-0.371684 -1.21647,-0.778759 -1.661518,-1.360162 -0.295452,-0.410816 -0.347953,-0.45421 -0.587517,-0.910635 -0.333211,-0.634841 -0.541711,-1.320591 -0.832927,-1.973503 -0.651912,-1.188517 -0.853554,-0.03012 1.949503,-1.780776 0.07642,-0.04772 -0.177967,0.04696 -0.251495,0.09903 -0.217956,0.154352 -0.450228,0.505714 -0.596352,0.700127 -0.504198,0.771657 -0.925174,1.613916 -1.490477,2.343692 -0.921213,1.189233 -1.565521,1.220875 -3.283337,2.302812 -0.186232,0.0964 -0.364344,0.210444 -0.558691,0.289213 -1.017736,0.412488 -2.068647,0.217691 -2.982497,-0.346009 -0.163394,-0.131823 -0.340865,-0.247896 -0.490183,-0.395475 -0.761643,-0.752774 -0.826262,-1.625044 -0.427453,-2.576621 0.928328,-1.538478 1.352381,-1.374709 3.480493,-2.630562 0.523396,-0.308869 1.098151,-0.491167 1.704472,-0.529354 0.189114,0.0071 0.379151,0.0013 0.567344,0.02117 0.8539,0.0905 1.586574,0.508486 2.186212,1.109932 0.51662,0.581128 0.861428,1.205145 1.094724,1.948085 0,0 -2.462919,1.342522 -2.462919,1.342522 z"
       inkscape:connector-curvature="0"
       style="stroke-width:0.26458332" />
    <path
       id="path70"
       d="m 51.156343,66.694118 c 0.05402,0.9153 0.130847,1.828578 0.202837,2.742628 0.06872,1.018252 0.157671,2.036303 0.317601,3.044582 0.0671,0.390409 0.147079,0.789196 0.0541,1.180476 0,0 -2.58835,1.108355 -2.58835,1.108355 v 0 c 0.03242,-0.0083 0.07449,-2.54e-4 0.09726,-0.02477 0.156175,-0.168151 0.0031,-0.787651 -0.0034,-0.975082 -0.140727,-1.019786 -0.23232,-2.045859 -0.303292,-3.072749 -0.07418,-0.898999 -0.154199,-1.798601 -0.258567,-2.694239 0,0 2.48176,-1.309203 2.48176,-1.309203 z"
       inkscape:connector-curvature="0"
       style="stroke-width:0.26458332" />
    <path
       id="path72"
       d="m 47.995472,72.112837 c 1.117621,0.130792 2.231741,-0.114593 3.316919,-0.354713 1.091666,-0.214696 2.121115,-0.607264 3.127312,-1.070608 0,0 -2.148959,1.703102 -2.148959,1.703102 v 0 c -1.010063,0.433012 -2.046005,0.785786 -3.12692,0.999707 -1.137264,0.24138 -2.318131,0.490524 -3.482692,0.307499 0,0 2.31434,-1.584987 2.31434,-1.584987 z"
       inkscape:connector-curvature="0"
       style="stroke-width:0.26458332" />
    <path
       id="path74"
       d="m 64.370373,59.364723 c -0.05376,1.069372 -0.01199,2.138762 0.06042,3.205988 0.144693,1.639657 0.455094,3.259 0.740934,4.878422 0.207611,1.159462 0.370157,2.326561 0.47384,3.499871 0.130913,1.658657 0.307522,0.731576 -2.483274,1.97893 0.0019,-0.499464 0.195287,-0.961316 0.439764,-1.386766 0.419658,-0.616982 1.008811,-1.086686 1.561576,-1.577972 1.001919,-0.88741 2.140522,-1.439413 3.358685,-2.0876 0.184729,-0.0983 0.574257,-0.0927 0.766998,-0.04426 0.131074,0.03295 0.248779,0.105699 0.373171,0.158549 0.77539,0.501455 1.196784,1.345269 1.529855,2.177926 0.229536,0.5872 0.315354,1.203346 0.23808,1.827702 -0.282202,1.244859 -1.863519,1.862111 -3.089286,1.883743 -0.736634,-0.02833 -1.442212,0.203613 -2.13927,0.409509 -0.556143,0.218599 -1.100484,0.44531 -1.705168,0.355161 -0.301458,0.02873 -0.535437,-0.327612 -0.822021,-0.312507 -0.0044,0.01193 -0.0088,0.02387 -0.01323,0.03579 0,0 2.286564,-1.665073 2.286564,-1.665073 v 0 c 0.01863,0.0117 0.03725,0.02336 0.05587,0.03504 0.240379,0.132168 0.487206,0.263398 0.766484,0.280382 0.569339,-0.007 1.082665,-0.246893 1.619139,-0.414094 0.720553,-0.203002 1.446432,-0.379696 2.200079,-0.387572 0.06788,-0.01077 0.137036,-0.01537 0.20365,-0.03233 0.05077,-0.01291 0.191439,-0.08371 0.146547,-0.05672 -0.758362,0.455941 -1.525889,0.896464 -2.288831,1.344695 0.09379,-0.02874 0.142661,-0.02603 0.202293,-0.1147 0.02836,-0.04216 0.03989,-0.09346 0.05983,-0.140184 0.162218,-0.565184 0.05401,-1.159311 -0.128744,-1.706692 -0.290875,-0.763392 -0.668004,-1.561341 -1.414772,-1.968934 -0.303943,-0.07901 -0.342614,-0.126963 -0.662183,-0.05495 -0.11643,0.02625 -0.436817,0.187667 -0.335905,0.123944 3.741738,-2.36275 2.093812,-1.29518 1.348137,-0.688829 -0.538551,0.484108 -1.115645,0.935101 -1.571424,1.501809 -0.258564,0.353322 -0.471233,0.770811 -0.473249,1.219478 -0.850792,0.426506 -1.707769,0.840888 -2.552372,1.27952 -0.0093,0.0048 0.05701,0.07391 0.07769,-0.02117 0.04715,-0.216874 -0.04431,-0.462449 -0.01013,-0.679344 -0.05853,-1.177523 -0.186483,-2.35032 -0.389432,-3.512108 -0.281554,-1.626426 -0.593992,-3.250102 -0.77107,-4.892109 -0.08958,-1.058617 -0.145685,-2.118003 -0.155956,-3.180421 0,0 2.496701,-1.272133 2.496701,-1.272133 z"
       inkscape:connector-curvature="0"
       style="stroke-width:0.26458332" />
    <path
       id="path76"
       d="m 102.81943,42.326901 c 0.83509,0.441486 1.76173,0.635603 2.68551,0.786315 1.93325,0.242274 3.89047,0.174255 5.83292,0.10926 2.26099,-0.09811 4.52289,-0.169932 6.78533,-0.223835 0.9968,-0.02127 1.99361,-0.04182 2.9903,-0.06804 0.0271,-0.08484 0.15838,0.04617 0.20148,-0.0054 0.0177,-0.02119 0.0193,-0.0965 -0.005,-0.08275 -2.78631,1.59767 -2.67038,2.284145 -2.33914,1.395441 0.003,0.0029 0.005,0.0057 0.008,0.0086 0.005,0.0089 0.009,0.01786 0.0138,0.02679 0,0 2.44828,-1.425353 2.44828,-1.425353 v 0 c 0.0321,0.05738 0.0184,0.02851 0.0417,0.08631 0.23175,1.086472 -1.62864,1.818894 -2.63424,1.642996 -0.95875,-0.02204 -1.91788,-0.01881 -2.87678,-0.0092 -2.25016,0.03049 -4.49941,0.09732 -6.74744,0.201244 -1.97888,0.06953 -3.97272,0.154025 -5.94267,-0.0957 -0.96627,-0.162134 -1.92943,-0.375846 -2.81109,-0.819717 0,0 2.34916,-1.527048 2.34916,-1.527048 z"
       inkscape:connector-curvature="0"
       style="stroke-width:0.26458332" />
    <path
       id="path78"
       d="m 117.69811,39.67989 c 0.57814,-0.07375 1.15928,-0.10641 1.74142,-0.124367 0.84199,0.01209 1.65642,0.183025 2.45038,0.452993 0.65856,0.231693 1.25462,0.59372 1.80423,1.018939 0.48959,0.493615 0.49212,0.932985 0.25616,1.556361 -0.34569,0.712447 -1.01581,1.140796 -1.63187,1.596946 -1.40242,1.019561 -2.94313,1.836947 -4.44028,2.701676 -0.52506,0.290952 -1.07452,0.533226 -1.65996,0.669999 -0.89263,0.185484 -2.70523,1.544334 2.06226,-1.235948 0.0293,-0.01712 -0.0807,0.02685 -0.1019,2.65e-4 0.0812,0.01326 0.17731,0.01146 0.26441,0.01601 0,0 -2.30387,1.625285 -2.30387,1.625285 v 0 c -0.17179,-0.03751 -0.32585,-0.09783 -0.42133,-0.256296 -0.5403,-1.112406 1.68283,-1.607574 2.71953,-1.851877 0.55735,-0.16899 1.08485,-0.412774 1.58816,-0.70603 -4.19455,2.424652 -1.17923,0.730022 -0.27289,0.05558 0.59264,-0.439631 1.25877,-0.826314 1.6722,-1.454914 0.24107,-0.497203 0.35429,-0.808773 -0.0896,-1.23009 -0.52484,-0.406451 -1.09145,-0.750645 -1.72751,-0.956014 -0.78065,-0.247142 -1.58437,-0.389155 -2.40661,-0.363127 -0.58531,0.02785 -1.17069,0.06943 -1.74932,0.165872 0,0 2.2464,-1.681316 2.2464,-1.681316 z"
       inkscape:connector-curvature="0"
       style="stroke-width:0.26458332" />
    <path
       id="path82"
       d="m 126.04041,16.782873 c 0.31869,0.174576 0.66115,0.302094 1.0035,0.421997 0.1742,0.0504 0.17321,0.03319 0.26589,0.206947 0.0164,0.383405 -0.007,0.771375 -0.0149,1.155935 -0.0188,0.998422 -0.1032,1.995147 -0.20309,2.988431 -0.006,0.587511 -0.20136,1.194456 -0.10595,1.781799 -0.14181,-0.948107 0.0182,0.03152 -2.46409,1.183023 -0.0425,0.01973 0.0575,-0.07555 0.0748,-0.119146 0.11913,-0.300779 0.12655,-0.658488 0.15862,-0.974098 0.14067,-1.259699 0.20258,-2.525975 0.29642,-3.789615 0.0951,-1.060493 0.19811,-2.041702 0.74853,-2.971475 0.99399,-1.12965 2.49665,-2.172591 4.03078,-2.185082 0.69488,0.153857 1.04655,0.756551 1.338,1.353312 0.32951,0.778662 0.40047,1.621728 0.44965,2.455949 0.008,0.600893 0.02,1.197879 0.1848,1.778486 0.0227,0.04902 0.0404,0.100695 0.0681,0.147058 0.0174,0.02905 0.0347,0.0642 0.066,0.07719 0.054,0.02243 0.1378,-0.186874 0.092,-0.163363 -2.17671,1.117902 -2.84253,1.970694 -2.10965,1.084539 0.46815,-0.86503 0.65037,-1.844467 0.7939,-2.806938 0.16829,-0.892395 0.14159,-1.84577 0.51867,-2.685451 0.70507,-0.918472 0.34984,-0.503758 2.74742,-1.520945 0.11487,-0.04873 0.96055,0.664022 1.07025,0.759006 0.4845,0.452184 1.01826,0.842636 1.50126,1.296259 0.76723,0.722771 1.17347,1.668438 1.47329,2.658193 0.24299,1.037273 0.20931,2.106323 0.076,3.155254 -0.10386,0.642782 -0.16927,1.289947 -0.20084,1.940032 -0.0258,0.35501 -0.002,0.711169 -0.0136,1.066259 1.5e-4,0.03139 2.6e-4,0.06277 5.3e-4,0.09415 0,0 -2.6083,1.089415 -2.6083,1.089415 v 0 c 0.0208,0.0095 0.0415,0.01903 0.0623,0.02855 0.13042,-0.157582 0.016,-0.809814 0.0718,-1.026934 0.0352,-0.661007 0.0928,-1.320729 0.20959,-1.973021 0.16408,-1.014429 0.23687,-2.05329 0.0125,-3.065895 -0.28772,-0.948149 -0.68598,-1.834636 -1.43983,-2.50803 -0.48964,-0.439421 -1.0164,-0.834425 -1.49461,-1.287223 -0.18962,-0.156788 -0.32598,-0.28123 -0.53523,-0.409882 -0.0755,-0.0464 -0.15283,-0.092 -0.23633,-0.121603 -0.0648,-0.02296 -0.26042,0.0041 -0.20336,-0.03425 1.79625,-1.206875 3.1014,-1.608351 2.05122,-1.272879 -0.052,0.07179 -0.11553,0.136511 -0.15605,0.215357 -0.13458,0.261833 -0.15402,0.470597 -0.20877,0.76142 -0.10239,0.543865 -0.17313,1.091351 -0.25267,1.638924 -0.12945,0.986005 -0.30847,1.965099 -0.68645,2.890818 -0.5675,1.100413 -0.15229,0.399329 -2.65178,1.777753 -0.18952,0.104514 -0.4379,-0.351179 -0.47295,-0.467297 -0.16579,-0.604962 -0.19171,-1.221959 -0.18469,-1.847738 -0.0358,-0.798576 -0.0875,-1.608584 -0.39721,-2.356379 -0.25083,-0.500765 -0.55587,-1.051492 -1.18119,-1.068351 -0.21844,0.02436 -0.29052,0.02008 -0.50302,0.09582 -0.0944,0.03365 -0.36046,0.173741 -0.27507,0.121296 3.84616,-2.362305 2.23876,-1.448307 1.5266,-0.790362 -0.0775,0.100707 -0.16669,0.193438 -0.23256,0.302121 -0.45919,0.757616 -0.4992,1.713445 -0.6236,2.563123 -0.0971,1.25581 -0.1529,2.513568 -0.2548,3.769008 -0.0176,0.341217 -0.0371,0.678485 -0.0851,1.016914 -0.009,0.06178 0.0242,0.152837 -0.0294,0.184859 -2.51388,1.503307 -2.08471,2.194719 -2.60678,1.258689 -0.10079,-0.622416 0.11507,-1.258164 0.13601,-1.880075 0.10741,-0.978775 0.19437,-1.962539 0.18478,-2.94807 -0.004,-0.358656 -0.0182,-0.721406 -0.007,-1.078602 0.13613,0.199181 0.005,0.05108 -0.1077,0.02663 -0.33988,-0.143596 -0.67975,-0.287728 -1.01185,-0.44872 0,0 2.34527,-1.543105 2.34527,-1.543105 z"
       inkscape:connector-curvature="0"
       style="stroke-width:0.26458332" />
    <path
       id="path84"
       d="m 140.50928,19.187197 c 4.18697,-2.326442 2.32818,-1.466046 1.53867,-0.777385 -0.23743,0.207102 -0.24658,0.239035 -0.45284,0.487026 -0.5963,0.928253 -0.57727,1.758908 -0.34351,2.802379 0.28869,0.816627 0.79615,1.565942 1.67304,1.810223 0.15609,0.04348 0.31959,0.05366 0.47938,0.08049 0.45661,-0.02573 0.51811,0.0029 0.95538,-0.150807 0.15621,-0.05492 0.59583,-0.287116 0.45389,-0.201844 -4.54826,2.732476 -2.00401,1.255973 -1.59557,0.804927 0.0937,-0.103517 0.15635,-0.231446 0.23452,-0.347169 0.0443,-0.135159 0.11062,-0.264992 0.13278,-0.405476 0.15217,-0.964573 -0.58406,-2.011236 -1.07472,-2.774 -0.56674,-0.793803 -1.17965,-1.635771 -2.11919,-1.994651 -0.20066,-0.01725 -0.26045,-0.04706 -0.44998,0.02845 -0.062,0.0247 -0.2296,0.136177 -0.17137,0.103567 4.11464,-2.304026 2.67275,-1.663336 1.97237,-1.057633 -0.0242,0.02551 -0.0484,0.05101 -0.0726,0.07652 0,0 -2.61103,1.053993 -2.61103,1.053993 v 0 c 0.0298,-0.01955 0.0597,-0.0391 0.0895,-0.05865 0.86471,-0.954875 2.2467,-2.074885 3.55839,-1.68373 0.92699,0.473873 1.55651,1.330642 2.14294,2.166759 0.54972,0.855709 1.28643,1.878101 1.22025,2.953984 -0.01,0.159944 -0.0672,0.31336 -0.10087,0.47004 -0.0689,0.139845 -0.11858,0.290951 -0.20674,0.419536 -0.6115,0.891922 -3.09781,1.933421 -3.10666,1.938173 -0.45588,0.2446 -1.00366,0.262656 -1.50345,0.224193 -0.17081,-0.04251 -0.34689,-0.0677 -0.51243,-0.12754 -0.92359,-0.333891 -1.46605,-1.149447 -1.79205,-2.033795 -0.26335,-1.078836 -0.32078,-1.989549 0.20132,-3.00461 0.12549,-0.175535 0.26483,-0.386098 0.418,-0.541441 0.89057,-0.903252 2.36914,-1.200701 3.23486,-2.015159 0,0 -2.19231,1.753639 -2.19231,1.753639 z"
       inkscape:connector-curvature="0"
       style="stroke-width:0.26458332" />
    <path
       id="path86"
       d="m 149.44382,14.949164 c 0.17986,1.099556 0.4451,2.168007 0.83545,3.211417 0.38102,1.136474 1.03521,2.113999 1.8013,3.020982 0.57661,0.577686 1.13155,1.198857 1.8119,1.657317 0.0709,0.02968 0.13592,0.08521 0.21269,0.08905 0.0572,0.0029 0.20718,-0.09779 0.15675,-0.07058 -0.74494,0.402015 -1.46764,0.850198 -2.24064,1.195177 -0.10183,0.04544 0.13872,-0.177095 0.18585,-0.278159 0.14225,-0.305054 0.24722,-0.804684 0.32406,-1.111557 0.31085,-1.547464 0.63763,-3.092323 0.92597,-4.644236 0.16269,-0.854457 1.06427,-4.927128 2.97458,-2.454594 0.0927,0.151433 0.15815,0.316143 0.22398,0.480202 0,0 -2.45392,1.365215 -2.45392,1.365215 v 0 c -0.0476,-0.132144 -0.0927,-0.266612 -0.17281,-0.383685 -0.93274,-0.169241 -0.0559,-0.0024 2.33232,-1.384584 0.0384,-0.02222 -0.0859,0.03659 -0.11134,0.07294 -0.0707,0.100996 -0.19857,0.534893 -0.21643,0.598221 -0.0486,0.172437 -0.089,0.347105 -0.13343,0.520657 -0.32032,1.547747 -0.66399,3.090646 -0.9225,4.650534 -0.0233,0.117513 -0.26279,1.44385 -0.37029,1.518345 -1.29246,0.895631 -1.94678,2.003764 -3.05888,1.32537 -0.66444,-0.512337 -1.24795,-1.121991 -1.82022,-1.733316 -0.77211,-0.93923 -1.41968,-1.958034 -1.81809,-3.115882 -0.4017,-1.04505 -0.6805,-2.115195 -0.93019,-3.204775 0,0 2.46389,-1.324059 2.46389,-1.324059 z"
       inkscape:connector-curvature="0"
       style="stroke-width:0.26458332" />
    <path
       id="path88"
       d="m 163.46006,15.648945 c 0.34458,0.124169 0.67707,0.152998 0.90528,0.462062 0.25593,0.68727 0.24948,1.44915 0.28368,2.173631 0.0581,0.96054 0.0348,1.919641 -0.0963,2.872656 -0.21527,1.335544 -0.10073,0.874053 -2.65215,1.604273 -0.10011,0.02865 -0.007,-0.208255 -0.005,-0.312365 0.003,-0.117843 0.0129,-0.235387 0.0194,-0.35308 0.052,-0.774342 0.0587,-1.546378 0.26211,-2.298992 0.18529,-0.653562 0.64895,-1.113939 1.14006,-1.551804 1.10916,-0.87812 2.33023,-2.162502 3.80796,-2.003726 0.79844,0.138234 1.56431,0.376121 2.37532,0.446908 0.48433,0.0175 0.95786,-0.03376 1.4191,-0.185126 0.14103,-0.04628 0.54189,-0.238723 0.4146,-0.162397 -2.55392,1.531367 -2.5553,1.559081 -1.74405,0.900496 0.32528,-0.328299 0.46882,-0.745889 0.55372,-1.188377 0,0 2.51716,-1.225393 2.51716,-1.225393 v 0 c -0.0858,0.485101 -0.2114,0.961488 -0.50947,1.36498 -0.9257,0.959661 -2.4843,1.886859 -3.89348,2.067873 -0.39506,0.05075 -0.59681,0.02951 -0.99473,0.01857 -0.80808,-0.09516 -1.5859,-0.33887 -2.39637,-0.400534 -0.0782,0.0079 -0.15767,0.0071 -0.23444,0.0237 -0.0743,0.01606 -0.28054,0.113425 -0.21577,0.07366 5.39818,-3.314704 2.20891,-1.369463 1.70775,-0.974958 -0.0804,0.0633 -0.15581,0.132719 -0.23371,0.199078 -0.47666,0.405165 -0.98349,0.802001 -1.20642,1.409797 -0.2391,0.72829 -0.27124,1.477662 -0.29253,2.240397 -0.005,0.111739 -0.0124,0.223414 -0.0164,0.335216 -0.003,0.08598 0.0667,0.209885 -0.005,0.258054 -0.79147,0.534842 -1.65692,0.951083 -2.48624,1.425129 -0.0208,0.01187 0.0491,-0.01754 0.0605,-0.03856 0.0433,-0.07966 0.10872,-0.40413 0.12044,-0.455596 0.1755,-0.935038 0.21115,-1.882661 0.14576,-2.832097 -0.0367,-0.666177 -0.0534,-1.349556 -0.26043,-1.989595 -0.20976,-0.222269 -0.58313,-0.206417 -0.83615,-0.360772 0,0 2.34527,-1.543104 2.34527,-1.543104 z"
       inkscape:connector-curvature="0"
       style="stroke-width:0.26458332" />
    <path
       id="path90"
       d="m 176.29306,8.8319016 c 0.18941,0.6232459 0.1447,1.2823614 0.22109,1.9240504 0.19663,1.03989 0.41084,2.07585 0.60125,3.116944 0.27339,1.513091 0.33204,3.052125 0.37972,4.585443 0.0229,1.216237 0.0246,2.431015 0.14744,3.642149 0.0235,0.206705 0.0498,0.413185 0.0842,0.618386 0.008,0.04477 0.0614,0.161319 0.0253,0.133822 -0.0187,-0.01423 -0.0197,-0.04267 -0.0296,-0.06401 -0.81974,0.597195 -2.21117,2.292672 -2.62837,1.157075 0,0 2.48054,-1.354897 2.48054,-1.354897 v 0 c 0.01,0.05775 0.0225,0.09164 0.0714,0.129936 -0.78328,0.510351 -1.56657,1.020701 -2.34985,1.531052 -0.13662,-0.25791 -0.0404,-0.600815 -0.10643,-0.87661 -0.0747,-1.22907 -0.0755,-2.458015 -0.0867,-3.689037 -0.0441,-1.516868 -0.10496,-3.039468 -0.38544,-4.534671 -0.20254,-1.038909 -0.42956,-2.071943 -0.65007,-3.107134 -0.0931,-0.612913 -0.0522,-1.242294 -0.21907,-1.83958 0,0 2.44453,-1.3729214 2.44453,-1.3729214 z"
       inkscape:connector-curvature="0"
       style="stroke-width:0.26458332" />
    <path
       id="path92"
       d="m 186.58045,23.488345 c -0.49227,0.461108 -0.91257,0.99015 -1.31867,1.526562 -0.35386,0.445311 -0.63017,0.943306 -0.94594,1.414369 0,0 -2.56852,1.113031 -2.56852,1.113031 v 0 c 0.35225,-0.457951 0.61427,-0.975947 0.97322,-1.430197 0.39061,-0.541121 0.80328,-1.06984 1.26759,-1.549989 0,0 2.59232,-1.073776 2.59232,-1.073776 z"
       inkscape:connector-curvature="0"
       style="stroke-width:0.26458332" />
    <path
       id="path94"
       d="m 189.73546,11.37142 c 0.77026,0.05921 1.47746,-0.224407 2.15679,-0.552671 0.64957,-0.284569 1.26437,-0.648948 1.91584,-0.9287474 0.32662,-0.1402829 0.8033,-0.2977907 1.1378,-0.413235 0.83613,-0.2472256 1.8168,-0.4836684 2.63914,-0.050105 0.12723,0.067078 0.2358,0.1647529 0.3537,0.2471296 0.72862,0.8380398 0.72849,1.4570768 0.36503,2.4647178 -0.4456,1.001358 -1.18384,1.806835 -1.94246,2.578684 -0.34629,0.398005 -1.0354,0.884674 -1.12387,1.449433 -0.009,0.05953 0.0119,0.119911 0.0179,0.179867 0.28389,0.333202 0.74296,0.422369 1.14348,0.544079 0.0314,0.0095 0.92824,0.277548 0.9426,0.281842 0.96398,0.243473 1.79838,0.742882 2.58222,1.335942 0.49693,0.440212 0.93748,0.94407 0.95536,1.642569 0.004,0.139458 -0.0195,0.278321 -0.0293,0.417482 -0.19524,0.926241 -0.71123,1.739318 -1.29468,2.469509 -0.92892,0.993502 -2.15831,1.501467 -3.39169,2.128899 -0.30795,0.156656 -1.25599,0.146214 -1.60266,0.158241 -0.63237,-0.0046 -1.26083,-0.05471 -1.88903,-0.121266 0,0 2.22095,-1.579854 2.22095,-1.579854 v 0 c 0.62063,0.05897 1.24202,0.109667 1.86645,0.08617 0.39486,-0.02792 0.72731,-0.03519 1.1132,-0.122347 0.15195,-0.03432 0.57502,-0.226274 0.44638,-0.138415 -0.63085,0.430856 -1.30906,0.787927 -1.96666,1.17673 -0.12057,0.07128 0.24436,-0.13878 0.35543,-0.224098 0.11219,-0.08618 0.20769,-0.192138 0.31153,-0.288207 0.5987,-0.673182 1.10213,-1.442983 1.35644,-2.314692 0.11999,-0.937854 -0.10082,-1.188308 -0.77949,-1.81926 -0.76213,-0.572631 -1.58527,-1.028461 -2.51886,-1.259516 -0.5862,-0.170925 -1.6365,-0.383233 -2.08228,-0.800346 -0.0803,-0.07511 -0.13483,-0.173674 -0.20225,-0.260511 -0.0238,-0.09888 -0.0702,-0.194945 -0.0714,-0.296645 -0.008,-0.607632 0.7371,-1.207518 1.10968,-1.596996 0.75395,-0.745137 1.50428,-1.507738 1.976,-2.472137 0.35445,-0.803563 0.46252,-1.445594 -0.19441,-2.129597 -0.10326,-0.06438 -0.19861,-0.143643 -0.30977,-0.19314 -0.79902,-0.355787 -1.72352,-0.0571 -2.50468,0.181394 -1.05429,0.385327 -2.05126,0.88759 -3.0604,1.376836 -0.72877,0.310444 -1.4664,0.532224 -2.26896,0.489299 0,0 2.26695,-1.64704 2.26695,-1.64704 z"
       inkscape:connector-curvature="0"
       style="stroke-width:0.26458332" />
    <path
       id="path96"
       d="m 125.95264,47.051655 c 0.036,-0.35738 0.12209,-0.699987 0.22851,-1.041302 3.16746,-1.649976 2.26358,-1.75546 2.88758,-0.233841 0.0265,0.04043 0.0948,0.171463 0.16152,0.190238 0.0525,0.01479 0.16952,-0.135496 0.12136,-0.109855 -2.25082,1.198327 -2.94364,1.930982 -2.18095,1.153054 0.44961,-0.65895 0.78768,-1.385668 1.13884,-2.099686 0.37591,-0.741251 0.80351,-1.455605 1.40585,-2.032944 1.37381,-1.106702 2.93365,-1.942047 4.64986,-2.279417 0.93398,-0.03844 1.2542,0.504325 1.54075,1.299093 0.21967,0.553432 0.13146,1.299858 0.54205,1.764909 0.0371,-0.0099 0.0788,-0.0092 0.11133,-0.02956 0.0505,-0.03171 0.18316,-0.150376 0.13054,-0.122325 -0.73674,0.39275 -1.4493,0.829961 -2.18796,1.21911 -0.0994,0.05236 0.18061,-0.133937 0.26623,-0.206674 0.19885,-0.168937 0.43099,-0.403273 0.61527,-0.583742 0.56393,-0.544439 1.18435,-1.026999 1.86772,-1.412989 2.9271,-1.653328 1.88876,-1.238245 3.46411,-1.81819 0.69139,-0.175001 1.53975,-0.353529 2.1486,0.146187 0.0904,0.07416 0.15857,0.171792 0.23786,0.257686 0.4522,0.722897 0.55826,1.597099 0.72684,2.419268 0.19375,0.725596 0.28145,1.473798 0.4415,2.205741 0.0665,0.23458 0.0324,0.126714 0.0998,0.324414 0,0 -2.46164,1.3501 -2.46164,1.3501 v 0 c -0.0637,-0.219829 -0.0313,-0.100619 -0.095,-0.358196 -0.14806,-0.738381 -0.20376,-1.495922 -0.41052,-2.223847 -0.15604,-0.767521 -0.25942,-1.594474 -0.67323,-2.270654 -0.0641,-0.06366 -0.11871,-0.138549 -0.19227,-0.190976 -0.56831,-0.405006 -1.37171,-0.141507 -1.96768,0.02344 -1.21393,0.491588 -0.60871,0.279794 1.21994,-0.843441 0.17875,-0.109794 -0.36689,0.203835 -0.54507,0.314547 -0.47478,0.295013 -0.90724,0.642869 -1.31629,1.02299 -1.23204,1.256115 -1.17211,1.137293 -3.45274,2.33948 -0.0684,0.03604 -0.15769,0.01368 -0.23172,-0.0085 -0.0754,-0.0226 -0.13481,-0.08111 -0.20222,-0.121655 -0.37916,-0.542949 -0.36931,-1.238964 -0.55365,-1.858579 -0.25273,-0.715121 -0.50338,-1.084249 -1.32472,-0.966343 -0.40034,0.0911 -0.78789,0.192268 -1.16771,0.351999 -0.13116,0.05515 -0.50796,0.25491 -0.38718,0.179703 3.63986,-2.266437 2.37969,-1.436675 1.66991,-0.964722 -0.64798,0.512131 -1.07773,1.215345 -1.46335,1.938333 -0.34863,0.713073 -0.68831,1.431149 -1.07585,2.124157 -0.57883,1.069504 -2.39208,2.492994 -3.11406,1.247619 -0.0287,-0.06747 -0.29585,-0.869829 -0.29106,-0.872961 0.78265,-0.510744 1.61745,-0.936697 2.42618,-1.405044 -0.24528,0.218702 -0.2379,0.649362 -0.2894,0.945158 0,0 -2.51791,1.238253 -2.51791,1.238253 z"
       inkscape:connector-curvature="0"
       style="stroke-width:0.26458332" />
    <path
       id="path98"
       d="m 150.09802,42.729335 c -0.69798,0.04588 -1.39184,0.108339 -2.07829,0.245903 -0.20141,0.05984 -0.47757,0.133713 -0.66922,0.223221 -0.10529,0.04918 -0.4044,0.229156 -0.30264,0.173043 0.69365,-0.382479 1.36767,-0.802312 2.07834,-1.152168 0.11337,-0.05581 -0.19015,0.167664 -0.27276,0.263287 -0.0861,0.09959 -0.15414,0.213371 -0.23122,0.320056 -0.35124,0.74172 -0.35525,1.633667 0.0419,2.366833 0.0843,0.155604 0.20423,0.289073 0.30635,0.433612 0.6628,0.621052 1.56572,0.992318 2.48552,0.835266 0.1516,-0.02588 0.29476,-0.0879 0.44214,-0.13185 1.20951,-0.790942 -0.52017,0.355066 -1.69987,0.871792 -0.10567,0.04629 0.14242,-0.184224 0.18984,-0.289393 0.16998,-0.376971 0.086,-0.733015 0.004,-1.116389 -0.20165,-0.588041 -0.51007,-1.357968 -1.09389,-1.662498 -0.0372,0.0049 -0.0839,-0.01074 -0.11154,0.01458 -0.0286,0.02617 -0.0618,0.13145 -0.0278,0.112911 4.56307,-2.485549 3.1355,-1.770766 2.31893,-1.362451 0,0 -2.50421,1.291593 -2.50421,1.291593 v 0 c -0.28258,-1.119775 1.73098,-2.126057 2.68081,-1.565849 0.58301,0.461388 0.92795,1.175062 1.16549,1.864082 0.10805,0.432218 0.21798,0.845061 0.0923,1.290217 -0.37067,1.31259 -2.0444,1.672159 -3.20225,2.218243 -0.15595,0.0263 -0.31003,0.0687 -0.46785,0.07891 -0.99948,0.06466 -1.93215,-0.364987 -2.62704,-1.061911 -0.11287,-0.162329 -0.24397,-0.313398 -0.33861,-0.486989 -0.43289,-0.794044 -0.46868,-1.746726 -0.18248,-2.589369 0.0693,-0.121576 0.12804,-0.249819 0.20791,-0.364728 0.7972,-1.146852 2.52052,-1.882902 3.92612,-2.240552 0.70236,-0.115837 1.41114,-0.164465 2.1159,-0.260715 0,0 -2.2464,1.681316 -2.2464,1.681316 z"
       inkscape:connector-curvature="0"
       style="stroke-width:0.26458332" />
    <path
       id="path100"
       d="m 157.03017,39.245521 c 0.34506,0.702358 0.59667,1.440984 0.82007,2.18944 0.2952,1.017278 0.74812,1.963227 1.35346,2.82979 0.27281,0.288957 0.56966,0.69404 0.99513,0.771335 0.10165,0.01847 0.2108,0.0069 0.30889,-0.02553 0.10454,-0.03457 0.38066,-0.221248 0.2831,-0.170186 -0.6946,0.363572 -1.38313,0.73863 -2.07469,1.107946 0.78921,-0.942015 0.98086,-2.191655 1.19952,-3.363728 0.14728,-0.615772 0.0898,-1.294804 0.35191,-1.88169 1.98562,-1.37101 1.61773,-1.681996 2.75265,-1.412565 0,0 -2.30052,1.632341 -2.30052,1.632341 v 0 c -0.0762,0.0029 -0.12021,0.0089 -0.17503,0.06759 0.77093,-0.463351 1.54187,-0.9267 2.31281,-1.390049 -0.41078,0.258826 -0.36674,1.370674 -0.49496,1.794158 -0.22635,1.204502 -0.41708,2.456765 -1.08973,3.507687 -0.88806,0.549741 -1.75712,1.131427 -2.66419,1.649219 -0.10518,0.06005 -0.23449,0.07394 -0.35561,0.07462 -0.61352,0.0035 -1.04938,-0.56017 -1.4079,-0.973687 -0.61211,-0.894139 -1.0915,-1.857121 -1.41085,-2.895484 -0.22195,-0.724667 -0.45307,-1.449755 -0.83117,-2.111343 0,0 2.42711,-1.39985 2.42711,-1.39985 z"
       inkscape:connector-curvature="0"
       style="stroke-width:0.26458332" />
    <path
       id="path102"
       d="m 170.77067,44.056688 c -0.0329,0.57657 -0.0126,1.148771 0.0725,1.719512 0.20174,1.152821 0.56354,0.325641 -2.40622,1.450572 -0.0729,0.02761 0.0187,-0.154961 0.0212,-0.232865 0.003,-0.103063 -0.003,-0.206216 -0.004,-0.309324 -0.0721,-0.765035 -0.094,-1.527781 0.0352,-2.286794 0.1338,-0.632523 0.40883,-1.051009 0.91861,-1.433639 1.2039,-0.979808 2.5641,-1.441135 3.90609,-2.088367 2.76947,-1.532903 -7.21654,4.081939 0.93369,-0.503021 0,0 -2.21303,1.739837 -2.21303,1.739837 v 0 c 4.96744,-2.865898 0.76953,-0.406773 -0.89676,0.49612 -1.02304,0.474827 -3.4368,1.612691 0.86458,-0.665501 -0.52017,0.333407 -0.85418,0.615781 -1.0197,1.245081 -0.16797,0.732912 -0.15575,1.478471 -0.0607,2.222617 0.0134,0.149817 0.056,0.55073 0.0291,0.569129 -2.23414,1.529297 -2.40127,2.38669 -2.5787,1.097537 -0.0726,-0.581742 -0.10555,-1.162214 -0.0986,-1.748761 0,0 2.4967,-1.272133 2.4967,-1.272133 z"
       inkscape:connector-curvature="0"
       style="stroke-width:0.26458332" />
    <path
       id="path104"
       d="m 172.83635,36.828886 c 0.23492,-0.695833 0.71973,-1.212538 1.27273,-1.671633 1.16196,-0.834905 0.36324,-0.277614 3.04535,-1.807786 0.48307,-0.275601 0.8623,-0.386729 1.41482,-0.404231 1.06443,0.161076 1.43563,1.165577 1.72102,2.073926 0.36389,1.626844 0.37724,3.305736 0.49413,4.962779 -0.01,0.720662 0.23186,1.777772 -0.0244,2.474405 -0.0341,0.09269 -0.0913,0.175154 -0.13699,0.262731 -1.00161,1.077433 -2.4869,1.574593 -3.81053,2.183434 0.74293,-0.422386 1.48585,-0.84477 2.22877,-1.267153 -0.0806,0.06078 -0.24027,0.141393 -0.22153,0.272521 0.0121,0.08493 0.10871,0.11372 0.16714,0.147211 0.54878,0.30924 1.16997,0.283483 1.77826,0.274228 0.76207,-0.03535 1.52395,0.05569 2.26825,0.214294 0.58001,0.142872 1.2018,0.187108 1.75145,0.432154 0.27021,0.131014 0.34075,0.373941 0.28418,0.650277 -0.26758,1.061593 -1.82756,1.895118 -2.81597,1.424482 -0.17642,-0.09002 -0.32229,-0.216349 -0.46622,-0.349678 0,0 2.37758,-1.478846 2.37758,-1.478846 v 0 c 0.12941,0.105616 0.25923,0.205933 0.42058,0.259201 0.0732,0.01913 0.2849,0.0122 0.22087,0.05255 -4.52013,2.84838 -2.76555,2.100413 -2.29039,1.291511 0.0907,-0.176451 0.16589,-0.187026 -0.0588,-0.292786 -0.54652,-0.201242 -1.12844,-0.281077 -1.69491,-0.405947 -0.73749,-0.137435 -1.48487,-0.205521 -2.23573,-0.168818 -0.66269,-0.0039 -1.33133,-0.03612 -1.90643,-0.407027 -0.0613,-0.05397 -0.13193,-0.09896 -0.18399,-0.161917 -0.14124,-0.17081 -0.24719,-0.585195 -0.002,-0.73583 0.84174,-0.516104 1.7084,-0.990438 2.5626,-1.485656 0.24984,-0.114422 0.21435,-0.100738 0.47786,-0.210328 0.0914,-0.03802 0.35926,-0.164269 0.275,-0.112274 -3.75735,2.318687 -2.50221,1.485337 -1.6791,0.98805 0.0579,-0.06429 0.12759,-0.119653 0.1737,-0.192858 0.34428,-0.546594 0.13374,-1.809599 0.14976,-2.42095 -0.0903,-1.634064 -0.11043,-3.290533 -0.48757,-4.890096 -0.2608,-0.790987 -0.58777,-1.721736 -1.56484,-1.735232 -0.32899,0.0486 -0.3516,0.03296 -0.66565,0.156707 -0.78384,0.308843 -2.79494,1.518687 1.3364,-0.842404 0.11714,-0.06694 -0.22543,0.148302 -0.33814,0.222454 -0.54512,0.40541 -1.04439,0.848706 -1.30397,1.495104 0,0 -2.53379,1.203429 -2.53379,1.203429 z"
       inkscape:connector-curvature="0"
       style="stroke-width:0.26458332" />
    <path
       id="path106"
       d="m 77.798252,60.205823 c 0.839869,-0.511376 2.19362,-1.186066 -1.780657,1.007237 -0.09194,0.05074 0.190492,-0.130556 0.211572,-0.233431 -0.279017,-0.140333 -0.752211,0.09172 -1.000141,0.223065 3.954528,-2.21728 2.235647,-1.475955 1.599364,-0.716656 -0.256329,0.305885 -0.385072,0.619186 -0.500039,0.995661 -0.114795,0.773248 -0.01378,1.21425 0.662075,1.632972 0.213132,0.03191 0.303144,0.06929 0.517988,0.0045 0.08797,-0.02652 0.165462,-0.07992 0.248192,-0.119886 -0.712322,0.397195 -1.414666,0.812837 -2.136963,1.191586 -0.09643,0.05057 0.176774,-0.128482 0.254665,-0.204566 0.07987,-0.07802 0.144293,-0.170415 0.216439,-0.255622 0.301488,-0.483266 0.550236,-1.104923 0.253386,-1.642848 -0.214976,-0.177395 -0.446465,-0.170399 -0.683167,-0.03182 -0.0674,0.03946 -0.258418,0.174718 -0.18991,0.137221 0.732076,-0.400682 1.454708,-0.818383 2.182064,-1.227574 -0.320172,0.299503 -0.555638,0.708581 -0.52583,1.156793 0.04155,0.237447 0.155598,0.145902 0.287144,0.04289 0,0 -2.233605,1.717723 -2.233605,1.717723 v 0 c -0.281601,-0.0098 -0.472559,-0.18151 -0.533651,-0.457714 -0.08608,-0.515797 0.105905,-1.005006 0.422286,-1.412983 0.859549,-0.522264 1.711258,-1.057659 2.578653,-1.566791 0.392625,-0.23046 0.844745,-0.06611 1.117716,0.254137 0.04416,0.08394 0.101391,0.162209 0.132474,0.251815 0.194231,0.559919 -0.02238,1.176353 -0.262366,1.680334 -0.74794,1.153102 -1.503778,1.232152 -3.079493,2.071542 -0.279414,0.148847 -0.648774,0.01418 -0.908362,-0.09241 -0.717513,-0.52958 -0.902732,-1.05101 -0.812732,-1.938224 0.02999,-0.13544 0.04885,-0.273833 0.08996,-0.40632 0.470797,-1.517039 2.285534,-2.113876 3.486182,-2.787809 0.442036,-0.148024 1.002072,-0.291211 1.299715,0.176308 0.05605,0.19005 0.107529,0.388463 -0.09993,0.518287 -0.961091,0.601427 -1.968965,1.263078 -3.012696,1.771009 0,0 2.199661,-1.738429 2.199661,-1.738429 z"
       inkscape:connector-curvature="0"
       style="stroke-width:0.26458332" />
    <path
       id="path108"
       d="m 75.954823,71.735081 c 0.442955,-0.487566 0.856885,-0.999638 1.30365,-1.483738 0.134628,-0.151469 0.282659,-0.290587 0.418573,-0.440809 0.856128,-0.372282 1.693172,-0.791959 2.568385,-1.116843 0.05011,-0.0186 0.0084,0.106645 0.009,0.160091 0.0011,0.08543 4e-5,0.170929 -0.0041,0.25626 -0.02146,0.44051 -0.07579,0.879295 -0.126685,1.317005 -0.147841,1.337371 -0.295643,2.67388 -0.552008,3.995375 -0.09831,0.523357 -0.264962,1.026364 -0.446992,1.524945 0,0 -2.496355,1.156547 -2.496355,1.156547 v 0 c 0.204216,-0.485908 0.391269,-0.977093 0.496512,-1.49615 0.279509,-1.306243 0.436428,-2.632014 0.543989,-3.963019 0.04183,-0.419624 0.08764,-0.843812 0.09664,-1.265979 0.0024,-0.110196 -0.01807,-0.360362 -0.01167,-0.363897 0.830146,-0.458039 1.694831,-0.850479 2.542244,-1.275718 -0.169386,0.129646 -0.30938,0.294757 -0.46532,0.439087 -0.457877,0.46808 -0.878372,0.96601 -1.299959,1.46662 0,0 -2.575914,1.090223 -2.575914,1.090223 z"
       inkscape:connector-curvature="0"
       style="stroke-width:0.26458332" />
    <path
       id="path110"
       d="m 192.28864,46.903256 c -0.1238,0.352684 -0.27792,0.693788 -0.42967,1.035113 -0.43093,1.033725 -0.61756,-0.810683 -2.52449,1.639033 -0.5574,0.716061 1.57038,-0.909751 2.35557,-1.364628 0,0 -2.62246,1.043961 -2.62246,1.043961 v 0 c 0.82109,-0.481991 1.52155,-1.305729 2.46327,-1.445977 0.48232,-0.07183 -2.88278,2.266635 -2.23629,1.292484 0.1683,-0.325051 0.32367,-0.656881 0.46028,-0.996558 0,0 2.53379,-1.203428 2.53379,-1.203428 z"
       inkscape:connector-curvature="0"
       style="stroke-width:0.26458332" />
    <path
       id="path112"
       d="m 195.49426,35.981335 c -0.33874,1.057061 -0.81513,2.064785 -1.25862,3.08083 -0.15997,0.473059 -0.80063,1.540856 -0.73785,2.036601 0.006,0.04937 0.0459,0.08831 0.0688,0.132461 0.51095,0.277241 1.13128,0.282874 1.69704,0.334804 0.93694,0.086 0.51636,0.0505 1.48009,0.12198 1.486,0.152385 2.97677,0.24057 4.46944,0.288574 0.78427,0.0028 1.57298,0.08213 2.3493,-0.05229 0.96759,-0.43433 0.1722,-0.08327 -2.11814,1.206836 -0.027,0.01524 0.0578,-0.02397 0.0834,-0.04154 0.0806,-0.05533 0.0643,-0.08959 0.0403,-0.173598 0,0 2.46348,-1.361676 2.46348,-1.361676 v 0 c 0.0292,0.07412 0.0841,0.201525 0.0931,0.278995 0.006,0.04788 -0.005,0.24628 -0.0636,0.28207 -2.36906,1.436582 -1.60141,1.278218 -2.73614,1.480315 -0.77089,0.07189 -1.54659,-0.01966 -2.31854,-0.02908 -1.48724,-0.0709 -2.97246,-0.172922 -4.45517,-0.309814 -0.60742,-0.04359 -0.89838,-0.06201 -1.49983,-0.114642 -0.52821,-0.04622 -1.1529,-0.05395 -1.63705,-0.310189 -0.10375,-0.05491 -0.18425,-0.145481 -0.27637,-0.218223 -0.043,-0.0882 -0.10893,-0.168566 -0.12909,-0.264618 -0.11314,-0.539173 0.56907,-1.650688 0.75459,-2.15266 0.42965,-0.988283 0.89353,-1.968702 1.21147,-3.000063 0,0 2.51943,-1.215073 2.51943,-1.215073 z"
       inkscape:connector-curvature="0"
       style="stroke-width:0.26458332" />
    <path
       id="path114"
       d="m 200.58841,37.092247 c -0.44584,0.916776 -0.66158,1.919689 -0.86914,2.910943 -0.33828,1.629952 -0.33471,3.296404 -0.32212,4.952545 0.006,1.011152 0.0165,2.020929 0.16081,3.022827 0.0171,0.06615 0.0296,0.133665 0.0514,0.198448 0.0369,0.110117 0.0911,0.160137 0.0935,0.15888 0.0225,-0.01175 0.0323,-0.08704 0.01,-0.07569 -2.68807,1.341099 -3.29277,1.464977 -2.33555,1.257584 0.009,-0.03497 0.018,-0.06995 0.027,-0.104924 0,0 2.51858,-1.249396 2.51858,-1.249396 v 0 c -2.5e-4,0.05071 -5.3e-4,0.101425 -8e-4,0.152138 0.0691,1.424463 -2.71796,2.476029 -2.82706,0.95736 -0.11254,-1.029115 -0.095,-2.060742 -0.0941,-3.094932 2e-5,-1.668243 -0.0159,-3.346188 0.28523,-4.994134 0.18378,-0.988055 0.3685,-1.98814 0.75511,-2.920966 0,0 2.54757,-1.170683 2.54757,-1.170683 z"
       inkscape:connector-curvature="0"
       style="stroke-width:0.26458332" />
    <path
       id="path116"
       d="m 127.78549,65.180376 c -0.49538,0.02896 -0.96379,0.192291 -1.44746,0.288586 -0.45792,0.123034 -0.91322,0.01251 -1.37478,0.01566 -0.60314,0.0439 -1.1981,0.174865 -1.75596,0.412204 -0.5927,0.252162 -2.68641,1.459347 1.28363,-0.750405 -0.53617,0.390104 -1.39501,1.123378 -1.16741,1.902155 0.0285,0.09738 0.10145,0.175718 0.15218,0.263576 0.0881,0.06598 0.1663,0.147962 0.26441,0.197926 0.71059,0.361908 1.69197,0.0038 2.37287,-0.252708 0.18143,-0.08551 0.36716,-0.162439 0.54429,-0.25654 0.18744,-0.09957 0.73425,-0.426001 0.54821,-0.323856 -0.58997,0.323914 -1.15592,0.692854 -1.76017,0.989267 -0.20148,0.09884 0.36923,-0.255614 0.54612,-0.393721 0.49849,-0.389187 0.5387,-0.458505 0.9783,-0.904352 0.63773,-0.718679 1.11757,-1.566926 1.32182,-2.509226 0.11228,-1.06667 -0.13829,-0.248904 2.52453,-1.354476 0.054,-0.02241 -0.0281,0.113922 -0.0338,0.172101 -0.0197,0.199681 -0.006,0.423452 -0.001,0.621345 0.0566,0.770879 0.23486,1.526093 0.51622,2.244592 0.30516,0.598305 0.76523,1.089848 1.29081,1.499725 0.42847,0.305959 0.89816,0.566769 1.43551,0.553177 0,0 -2.28055,1.631466 -2.28055,1.631466 v 0 c -0.55927,-0.09243 -1.05438,-0.372316 -1.50351,-0.710596 -0.55005,-0.456886 -1.04337,-0.976697 -1.36039,-1.626177 -0.28981,-0.746125 -0.47383,-1.526233 -0.562,-2.322357 -0.004,-0.05875 -0.0548,-0.826952 -0.0421,-0.834556 1.92664,-1.157277 2.66807,-2.28218 2.52448,-1.08607 -0.2104,0.987965 -0.68237,1.899007 -1.32442,2.676213 -0.15161,0.164391 -0.29547,0.336277 -0.45482,0.493173 -1.12581,1.108456 -2.57911,1.78308 -3.92931,2.569591 -0.18635,0.108548 -0.37485,0.213997 -0.56888,0.308112 -0.18365,0.08908 -0.37531,0.1606 -0.56297,0.240901 -0.79578,0.254934 -1.79258,0.541628 -2.56391,0.04295 -0.1196,-0.07732 -0.21306,-0.189047 -0.31959,-0.283572 -0.0674,-0.121648 -0.15911,-0.232712 -0.20217,-0.364943 -0.28895,-0.88723 0.44701,-1.698802 1.0785,-2.195962 1.69671,-0.993463 3.24708,-2.222974 5.26341,-2.280341 0.45394,0.01558 0.90382,0.05007 1.34867,-0.07374 0.49244,-0.110709 0.98288,-0.242064 1.49159,-0.248568 0,0 -2.27026,1.649445 -2.27026,1.649445 z"
       inkscape:connector-curvature="0"
       style="stroke-width:0.26458332" />
    <path
       id="path118"
       d="m 141.00319,65.89745 c -0.75534,-0.231101 -1.52201,-0.384316 -2.3111,-0.422434 -0.30869,0.03393 -0.63981,0.05361 -0.93779,0.153186 -0.14577,0.04871 -0.5506,0.272147 -0.41834,0.19386 4.52056,-2.675853 2.07723,-1.263393 1.60607,-0.838761 -0.11034,0.09944 -0.20313,0.216773 -0.30469,0.32516 -0.48488,0.626575 -0.81353,1.271669 -0.74453,2.07545 0.0353,0.07212 0.0575,0.152317 0.106,0.216363 0.37963,0.501729 1.3904,0.327196 1.90304,0.259259 0.20973,-0.04979 0.42265,-0.0877 0.6292,-0.149373 0.22794,-0.06806 0.45212,-0.149352 0.67237,-0.239254 0.23902,-0.09756 0.92158,-0.461706 0.70411,-0.322596 -4.04209,2.585537 -1.14749,0.584409 -0.94959,0.421113 0.2106,-0.17377 0.39884,-0.372988 0.59826,-0.559483 0.92449,-1.003313 1.51497,-2.225333 1.66375,-3.585739 0.0288,-0.263464 0.0274,-0.529362 0.0412,-0.794043 -0.0274,-1.313543 -0.38893,-2.572375 -1.04838,-3.703267 -0.35192,-0.538605 -0.79229,-1.019876 -1.3426,-1.358175 -0.046,-0.01238 -0.0915,-0.04782 -0.13789,-0.03717 -0.0367,0.0084 -0.10667,0.103444 -0.0735,0.08571 0.78396,-0.418695 1.54082,-0.887799 2.3323,-1.292093 0.0463,-0.02365 -0.0609,0.08738 -0.0729,0.137988 -0.0456,0.191741 -0.0186,0.480645 -0.0119,0.663001 0.14244,1.368055 0.59163,2.683177 1.04792,3.973161 0.74064,2.007468 1.71456,3.915113 2.72777,5.795706 0.60284,1.158819 1.37156,2.200851 2.22325,3.183564 0.82341,0.809511 1.04053,-0.0441 -2.28755,1.556663 -0.0128,0.0062 -0.44358,-0.470503 -0.48453,-0.515797 0,0 2.38026,-1.446038 2.38026,-1.446038 v 0 c 0.14109,0.148833 0.21091,0.227036 0.35689,0.364617 0.0478,0.045 0.19839,0.09068 0.14676,0.131178 -2.25617,1.769586 -1.7578,2.260608 -2.49464,1.334301 -0.78217,-1.052076 -1.55154,-2.112864 -2.13681,-3.293308 -0.9981,-1.901042 -1.98192,-3.814408 -2.76944,-5.814584 -0.48871,-1.298096 -0.9539,-2.6206 -1.16276,-3.997036 -0.006,-0.05265 -0.0904,-0.945127 -0.049,-0.974183 1.34058,-0.941734 1.78016,-1.949889 2.82123,-1.361858 0.55033,0.403381 1.00961,0.909995 1.36318,1.49484 0.65801,1.188577 1.02661,2.500739 1.07324,3.862538 -0.01,0.273693 -0.004,0.548296 -0.0288,0.821074 -0.12487,1.401408 -0.67657,2.679673 -1.59438,3.744923 -0.19551,0.196906 -0.37912,0.406387 -0.58653,0.590714 -0.20732,0.184248 -0.41885,0.367771 -0.65523,0.512863 -1.63862,1.005769 -3.18423,2.068206 -5.08501,2.397757 -0.90169,0.07884 -1.86481,0.156578 -2.28061,-0.815681 -0.11426,-0.90003 0.16693,-1.550233 0.67141,-2.289598 0.93882,-1.207315 1.67843,-1.335836 3.39565,-2.259531 0.42939,-0.230968 0.95731,-0.223274 1.4267,-0.247875 0.80468,0.065 1.58232,0.245544 2.37122,0.405982 0,0 -2.29321,1.616898 -2.29321,1.616898 z"
       inkscape:connector-curvature="0"
       style="stroke-width:0.26458332" />
    <path
       id="path120"
       d="m 156.32449,67.122555 c -0.23226,-0.677243 -0.68217,-1.224314 -1.2481,-1.648904 -0.69863,-0.484873 -1.53614,-0.60673 -2.367,-0.625142 -0.46545,0.024 -0.9328,0.07363 -1.36501,0.261686 -0.13178,0.05733 -0.5039,0.276635 -0.37852,0.206415 2.14987,-1.203992 2.57235,-1.655461 1.73007,-0.848421 -0.36714,0.510715 -0.60055,1.232329 -0.34238,1.850244 0.0401,0.09589 0.11298,0.174464 0.16947,0.261695 0.0789,0.05567 0.14803,0.128889 0.23676,0.167026 0.70783,0.304215 1.69476,-0.282128 2.28853,-0.605626 -0.58792,0.330321 -1.158,0.694624 -1.76377,0.990962 -0.19981,0.09774 0.36714,-0.252092 0.53987,-0.392239 0.17753,-0.144032 0.34774,-0.297556 0.50948,-0.459119 0.65045,-0.649732 1.03963,-1.28393 1.49491,-2.075666 0.85671,-1.725316 1.16808,-3.65039 1.0876,-5.566487 -0.0161,-0.38427 -0.0674,-0.76626 -0.10106,-1.14939 -0.22682,-1.34747 -0.4424,-2.999131 -1.37538,-4.071643 -0.0693,-0.02867 -0.13311,-0.09195 -0.20786,-0.08599 -0.0607,0.0048 -0.19706,0.141981 -0.14295,0.113948 0.75578,-0.391599 1.47202,-0.86261 2.25084,-1.206121 0.0907,-0.04 -0.0988,0.17394 -0.12645,0.26911 -0.0886,0.30488 -0.0757,0.589957 -0.0864,0.904873 0.0302,1.371094 0.41358,2.692717 0.89767,3.964794 0.68081,1.719334 1.59905,3.329054 2.51549,4.930518 0.7415,1.293135 1.48742,2.583408 2.21556,3.884086 0.20016,0.345533 0.3941,0.695307 0.60933,1.031867 10e-4,0.0034 0.0213,0.02908 0.024,0.03272 0,0 -2.44939,1.425667 -2.44939,1.425667 v 0 c -0.008,-0.01662 -0.0154,-0.03321 -0.0233,-0.04977 -0.17382,-0.361844 -0.35823,-0.718518 -0.53977,-1.07651 -0.68248,-1.3233 -1.40042,-2.626728 -2.13742,-3.920622 -0.92411,-1.611562 -1.85769,-3.226666 -2.56925,-4.946396 -0.50945,-1.293337 -0.90277,-2.637211 -0.98698,-4.032634 -0.003,-0.12614 -0.0224,-1.25227 0.0847,-1.331235 0.80443,-0.593154 1.6797,-1.087699 2.5598,-1.561378 0.0733,-0.03946 0.16926,0.01606 0.24426,0.05221 0.0914,0.04404 0.16216,0.121857 0.24323,0.182785 0.89221,1.224695 1.09993,2.820665 1.32767,4.277892 0.0347,0.390969 0.0856,0.780838 0.10421,1.172908 0.092,1.938224 -0.17737,3.894878 -0.98947,5.667534 -0.14961,0.284199 -0.28407,0.576911 -0.44884,0.852601 -1.16652,1.951818 -2.86508,2.786073 -4.8809,3.871301 -0.73571,0.358873 -1.71315,0.867614 -2.51786,0.380648 -0.10701,-0.06476 -0.18746,-0.165652 -0.28119,-0.248478 -0.0693,-0.113175 -0.15607,-0.217336 -0.2078,-0.339529 -0.28762,-0.679325 -0.10716,-1.480902 0.22994,-2.098225 0.90778,-1.136536 0.23825,-0.378905 2.97035,-1.938229 0.54697,-0.312182 1.21053,-0.338849 1.82123,-0.356748 0.87997,0.05964 1.75006,0.217736 2.474,0.75837 0.58883,0.476366 1.06082,1.058613 1.3556,1.76286 0,0 -2.44752,1.359789 -2.44752,1.359789 z"
       inkscape:connector-curvature="0"
       style="stroke-width:0.26458332" />
    <path
       id="path122"
       d="m 14.381167,66.842388 c -0.395471,-0.04305 -0.777055,-0.172834 -1.173389,-0.211635 -0.182857,-0.01791 -0.582094,-0.01442 -0.756573,-0.01498 -0.473008,0.01974 -0.939205,0.08394 -1.390285,0.231852 -0.899137,0.294823 -2.7951013,1.457788 0.928661,-0.643874 -0.826885,0.55957 -1.309505,1.137391 -1.646229,2.072354 -0.14855,0.581666 -0.289024,1.310553 0.103712,1.83678 0.07029,0.09418 0.167783,0.164611 0.251674,0.246915 0.821808,0.520022 1.813085,0.349816 2.701325,0.113596 0.322313,-0.107461 0.618138,-0.269013 0.908561,-0.441577 0,0 -2.172015,1.749023 -2.172015,1.749023 v 0 c -0.297334,0.145291 -0.598452,0.28103 -0.922211,0.358934 C 10.235081,72.340326 9.1868457,72.43529 8.3397835,71.800587 8.2422107,71.695989 8.1302854,71.603136 8.0470657,71.486794 7.6226365,70.893434 7.6946505,70.11749 7.84804,69.448753 c 0.1014299,-0.334534 0.1419024,-0.524938 0.3066101,-0.837356 0.3005301,-0.570045 0.7797106,-1.026456 1.2798964,-1.419563 1.9250345,-1.115325 3.1068915,-2.147943 5.2522975,-2.196246 0.67299,0.01384 1.323338,0.131837 1.987526,0.22991 0,0 -2.293203,1.616895 -2.293203,1.616895 z"
       inkscape:connector-curvature="0"
       style="stroke-width:0.26458332" />
    <path
       id="path124"
       d="m 17.167908,68.735921 c 1.087059,-0.956498 2.33543,-1.551514 3.607027,-2.28499 0.359345,-0.09442 0.729298,-0.131574 1.092117,-0.219821 0.547755,-0.148973 1.06853,-0.373991 1.619205,-0.512347 0.18567,-0.07259 0.368083,-0.04445 0.558474,-0.02114 0,0 -2.280437,1.63848 -2.280437,1.63848 v 0 c -0.168301,0.0049 -0.330247,0.03001 -0.49142,0.0827 -0.543262,0.160681 -1.070717,0.372708 -1.623876,0.500528 -0.356471,0.07504 -0.735805,0.107913 -1.056526,0.291806 4.342627,-2.519667 2.033478,-1.303864 1.174585,-0.524319 0,0 -2.599149,1.049096 -2.599149,1.049096 z"
       inkscape:connector-curvature="0"
       style="stroke-width:0.26458332" />
    <path
       id="path126"
       d="m 20.369241,71.2409 c 0.483747,-0.06405 0.956397,-0.215762 1.402406,-0.411776 0.272337,-0.107545 0.544123,-0.216479 0.815466,-0.326504 0.08941,-0.05758 0.138078,0.0085 0.237591,0.01336 0,0 -2.281084,1.657109 -2.281084,1.657109 v 0 c -0.103428,0.0047 -0.08765,0.04894 -0.177532,0.0739 -0.2636,0.100076 -0.526356,0.202374 -0.78839,0.306482 -0.472544,0.168484 -0.955219,0.307994 -1.454857,0.368753 0,0 2.2464,-1.681319 2.2464,-1.681319 z"
       inkscape:connector-curvature="0"
       style="stroke-width:0.26458332" />
    <path
       id="path128"
       d="m 166.38227,64.078452 c -0.03,-0.308131 0.058,-0.644779 -0.008,-0.949846 0.47008,1.038461 -0.0163,0.148601 2.43522,-1.144024 0.0565,-0.02978 -0.0634,0.11093 -0.0925,0.167757 -0.14007,0.273328 -0.26388,0.553855 -0.3838,0.836401 -0.21439,0.528304 -0.45379,1.04572 -0.64652,1.582599 -0.31917,0.923558 -0.77479,0.601216 -2.57305,1.313067 -0.0571,0.02259 0.0404,-0.11598 0.0594,-0.174358 0.0212,-0.0651 0.0409,-0.130694 0.0614,-0.196038 0.19177,-0.682786 0.45714,-1.340424 0.75109,-1.984711 0.27789,-0.574394 0.53138,-1.158115 0.93964,-1.653413 0.93248,-0.900234 2.10181,-1.684673 3.38226,-1.929815 0.10904,-0.02268 0.17922,0.0145 0.22948,-0.09014 0,0 -2.20431,1.76394 -2.20431,1.76394 v 0 c -0.0921,-0.0081 -0.16855,0.0029 -0.25748,0.03301 -0.12944,0.04076 -0.68387,0.334428 -0.42158,0.179491 4.01751,-2.373143 2.59359,-1.635347 1.84711,-1.031875 -0.47279,0.434877 -0.72059,1.014995 -0.99898,1.58351 -0.30244,0.619818 -0.56836,1.260901 -0.74017,1.930326 -0.0156,0.05948 -0.0937,0.364604 -0.10446,0.370967 -0.72449,0.428432 -2.98748,2.344558 -2.51106,1.068668 0.20765,-0.540726 0.44593,-1.067491 0.6708,-1.601131 0.36828,-0.983692 1.67593,-3.972947 3.02955,-2.384994 0.1155,0.322675 -0.0214,0.700519 0.0368,1.036614 0,0 -2.50034,1.273989 -2.50034,1.273989 z"
       inkscape:connector-curvature="0"
       style="stroke-width:0.26458332" />
    <path
       id="path130"
       d="m 173.88834,55.326285 c 0.7144,0.303114 1.3856,0.667292 1.9878,1.157983 0.48776,0.401193 0.88184,0.855139 0.94928,1.497131 -0.008,0.486297 -0.34272,0.788692 -0.68279,1.087105 -0.11663,0.04165 -0.33529,0.394388 -0.44673,0.362264 0.2789,0.06133 0.57851,0.08597 0.86204,0.149546 0.62311,0.167613 0.87018,0.698804 1.04511,1.267528 0.15708,0.598297 0.0841,1.205685 -0.0657,1.795749 -0.16214,0.531796 -0.54048,0.940617 -0.96523,1.281369 -1.1039,0.670435 -2.18611,1.648436 -3.50995,1.809363 -0.0486,0.0048 -0.0973,0.0095 -0.1459,0.01429 0,0 2.25077,-1.681022 2.25077,-1.681022 v 0 c 0.0449,-0.0076 0.0897,-0.01524 0.13458,-0.02286 0.16258,-0.04047 0.31963,-0.08723 0.47297,-0.156253 0.0638,-0.02873 0.24857,-0.128537 0.1883,-0.09295 -3.45125,2.037979 -2.80093,1.645346 -1.9873,1.152054 0.43774,-0.264422 0.8318,-0.638688 1.04417,-1.109903 0.17759,-0.533728 0.26926,-1.100011 0.1422,-1.656358 -0.14074,-0.498594 -0.33608,-0.910606 -0.89608,-1.001654 -0.36184,-0.05814 -0.77079,-0.07043 -1.03166,-0.361408 -0.15986,-0.33143 0.0497,-0.502486 0.31785,-0.691028 0.28313,-0.266785 0.67329,-0.473861 0.78626,-0.866537 0.028,-0.569952 -0.39799,-0.95971 -0.80199,-1.306812 -0.59443,-0.466542 -1.25555,-0.816763 -1.97077,-1.064178 0,0 2.32273,-1.563422 2.32273,-1.563422 z"
       inkscape:connector-curvature="0"
       style="stroke-width:0.26458332" />
    <path
       id="path132"
       d="m 179.65493,67.278688 c -0.0358,0.590849 -0.20849,1.155989 -0.43957,1.696813 -0.27915,0.591505 -0.64626,1.134081 -0.96248,1.705483 -0.11633,0.20221 -0.21927,0.411139 -0.31633,0.623051 0,0 -2.54608,1.163535 -2.54608,1.163535 v 0 c 0.0998,-0.222068 0.19724,-0.44595 0.32741,-0.652627 0.31483,-0.567076 0.66122,-1.113721 0.96889,-1.684716 0.24244,-0.496303 0.42714,-1.022577 0.46782,-1.577549 0,0 2.50034,-1.27399 2.50034,-1.27399 z"
       inkscape:connector-curvature="0"
       style="stroke-width:0.26458332" />
    <path
       id="path134"
       d="m 181.50131,64.267439 c -0.006,-0.576845 0.10308,-1.140762 0.24175,-1.697538 0.16068,-0.574116 0.4164,-1.114316 0.87001,-1.509532 1.95777,-1.14431 2.30831,-1.94958 3.95524,-1.107898 0.13392,0.09686 0.32329,0.154803 0.42262,0.297156 0.56812,0.814258 -1.56786,1.23049 -2.43114,1.720917 0,0 2.22919,-1.724348 2.22919,-1.724348 v 0 c -0.77793,0.456967 -1.57994,0.875231 -2.3338,1.370899 -0.0485,0.03185 0.1673,0.156736 0.1368,0.107428 -0.0723,-0.116821 -0.25399,-0.153315 -0.35204,-0.234503 -0.30059,-0.133521 -0.62832,-0.265321 -0.96538,-0.224067 -0.0766,0.0094 -0.28983,0.09795 -0.22455,0.05673 0.70776,-0.446905 1.44054,-0.852902 2.16082,-1.279353 -0.0739,0.03656 -0.15393,0.06278 -0.22176,0.109686 -0.39521,0.273272 -0.57022,0.794634 -0.73887,1.218396 -0.1421,0.528357 -0.27613,1.070864 -0.24854,1.622036 0,0 -2.50035,1.273987 -2.50035,1.273987 z"
       inkscape:connector-curvature="0"
       style="stroke-width:0.26458332" />
    <path
       id="path136"
       d="m 189.65748,56.713222 c -0.0825,0.659046 0.0322,1.318382 0.13936,1.967323 0.19831,0.942396 0.38458,1.888101 0.59548,2.827843 0.12515,0.639776 0.31845,1.263057 0.50691,1.88627 0.0472,0.153651 0.0287,0.07688 0.0562,0.2301 0,0 -2.51509,1.276125 -2.51509,1.276125 v 0 c 0.041,-0.0846 0.0269,-0.03026 -0.005,-0.168375 -0.1518,-0.642311 -0.33809,-1.276464 -0.46048,-1.925503 -0.20595,-0.943755 -0.40185,-1.889635 -0.62052,-2.830523 -0.1144,-0.670054 -0.2326,-1.342154 -0.21517,-2.025004 0,0 2.51791,-1.238256 2.51791,-1.238256 z"
       inkscape:connector-curvature="0"
       style="stroke-width:0.26458332" />
    <path
       id="path138"
       d="m 193.46373,65.396927 c 0.0453,0.762857 -0.12395,1.503561 -0.40387,2.207553 -0.16337,0.433861 -0.41749,0.816274 -0.71445,1.168265 0,0 -2.59442,1.08476 -2.59442,1.08476 v 0 c 0.32704,-0.316105 0.61755,-0.672216 0.79132,-1.097129 0.30362,-0.64666 0.50186,-1.338244 0.44095,-2.060487 0,0 2.48047,-1.302962 2.48047,-1.302962 z"
       inkscape:connector-curvature="0"
       style="stroke-width:0.26458332" />
    <path
       id="path140"
       d="m 197.98678,60.853094 c -0.0479,0.638297 -0.13551,1.270802 -0.24037,1.90182 -0.0399,0.252547 -0.0799,0.505169 -0.11213,0.758833 -2.98613,5.112567 -2.52128,1.111525 -2.51722,0.366347 0.001,-0.538464 -0.0245,-1.076415 0.0868,-1.606042 0.0764,-0.391906 0.33477,-0.635979 0.62196,-0.886489 0.31894,-0.248946 0.61916,-0.519668 0.94321,-0.762082 0.85532,-0.492725 1.70401,-0.997151 2.56597,-1.478177 0.29957,-0.167182 0.81415,0.02196 1.11223,0.115242 0.3649,0.14215 0.18263,0.07297 0.54677,0.207611 0,0 -2.3072,1.555443 -2.3072,1.555443 v 0 c -0.35867,-0.130368 -0.17941,-0.06887 -0.53769,-0.184743 -0.28009,-0.06382 -0.5524,-0.134686 -0.82932,-0.02148 -0.0574,0.02347 -0.22036,0.113321 -0.167,0.08179 0.73829,-0.436255 1.48149,-0.864153 2.22223,-1.296231 -0.34914,0.208675 -0.62792,0.496486 -0.95703,0.730616 -0.2576,0.221474 -0.57097,0.401023 -0.68854,0.735475 -0.17322,0.49856 -0.13453,1.025155 -0.13226,1.545693 0.006,1.610024 0.18035,0.681432 -2.51202,2.177039 -0.0117,0.0065 0.0329,-0.06209 0.009,-0.03928 0.055,-0.258847 0.10378,-0.518967 0.15227,-0.779087 0.1101,-0.612915 0.22103,-1.223774 0.24027,-1.848305 0,0 2.50035,-1.273987 2.50035,-1.273987 z"
       inkscape:connector-curvature="0"
       style="stroke-width:0.26458332" />
    <path
       id="path144"
       d="m 198.8749,56.725523 c -0.0442,-0.38558 -0.0951,-0.770329 -0.15059,-1.154438 -0.0315,-0.180298 -0.0196,-0.38485 0.12508,-0.508164 2.07398,-1.232815 1.99421,-1.720257 3.61096,-1.251635 0.64212,0.181044 1.3093,0.225023 1.97216,0.258556 0.77769,-0.04577 1.55982,-0.07183 2.33523,0.01699 0.69316,0.122656 1.03694,0.416774 1.27261,1.068385 0.20512,0.91368 0.0768,1.857946 -0.0517,2.773098 -0.22927,1.352341 -0.70159,2.632649 -1.33429,3.84398 -0.47623,0.865865 -1.09242,1.630323 -1.83037,2.28354 -1.21469,0.879215 -2.52966,1.628415 -3.93466,2.151737 -0.48025,0.166401 -0.96161,0.324929 -1.45746,0.437787 -1.09822,0.217721 -1.50333,0.786948 2.05949,-1.595673 0.0392,-0.02619 0.0945,0.0046 0.1413,-5.29e-4 0.0599,-0.0065 0.1184,-0.02275 0.17761,-0.03412 0.50823,-0.08218 1.02023,-0.0047 1.52287,0.0754 0.7941,0.121073 1.59328,0.131733 2.39287,0.08185 0.35122,0.0047 1.0558,-0.171381 1.37312,0.03262 0.0486,0.03124 0.0803,0.08309 0.12045,0.12463 0.14162,0.241726 0.10406,0.501859 0.0764,0.765884 -0.0243,0.163028 -0.093,0.356865 -0.2097,0.476501 -0.69264,0.834316 -1.7361,1.488572 -2.81665,1.646992 0,0 2.24003,-1.719083 2.24003,-1.719083 v 0 c 1.14691,-0.480883 -3.28242,1.887104 -2.01527,1.182775 0.17092,-0.270034 -0.0676,0.07184 0.11035,-0.09386 0.0661,-0.06153 0.0634,-0.206269 0.16719,-0.244467 0.0232,-0.175765 0.056,-0.353211 0.0557,-0.53045 -0.33458,-0.166899 -0.96755,0.02252 -1.32635,-0.0083 -0.81665,0.03004 -1.63404,0.0019 -2.44437,-0.111522 -0.4966,-0.06674 -0.99708,-0.0963 -1.49402,-0.0088 -0.0687,0.0024 -0.13742,0.0078 -0.2062,0.0074 -0.0547,-2.65e-4 -0.20578,0.02574 -0.16383,-0.0094 2.07776,-1.739257 1.33273,-1.493959 2.46657,-1.737431 0.48297,-0.120714 0.95322,-0.284808 1.42077,-0.454824 0.19033,-0.07358 0.32877,-0.124026 0.51397,-0.207333 0.0855,-0.03846 0.33426,-0.16923 0.25377,-0.121179 -3.88153,2.317242 -2.4514,1.41587 -1.59278,0.932635 0.76774,-0.622887 1.4259,-1.3491 1.92153,-2.211263 0.65475,-1.173141 1.13383,-2.421215 1.36341,-3.750527 0.12088,-0.867963 0.23983,-1.761847 0.0613,-2.630297 -0.191,-0.570608 -0.50434,-0.729358 -1.09335,-0.808239 -0.7736,-0.0636 -1.54633,-0.02697 -2.32103,-0.01212 -0.6813,-0.03955 -1.36204,-0.106595 -2.02226,-0.289247 -0.22234,-0.04818 -0.44336,-0.101193 -0.67279,-0.09472 -0.25769,0.0073 -0.34104,0.08777 -0.30897,0.06867 0.75886,-0.451873 1.52706,-0.887862 2.29058,-1.331793 -0.11974,0.0594 -0.27592,0.02654 -0.25664,0.22959 0.0324,0.385185 0.0714,0.770445 0.13965,1.151143 0,0 -2.48176,1.309204 -2.48176,1.309204 z"
       inkscape:connector-curvature="0"
       style="stroke-width:0.26458332" />
  </g>
</svg>
