<?xml version="1.0" encoding="UTF-8" standalone="no"?>
<!-- Created with Inkscape (http://www.inkscape.org/) -->

<svg
   xmlns:dc="http://purl.org/dc/elements/1.1/"
   xmlns:cc="http://creativecommons.org/ns#"
   xmlns:rdf="http://www.w3.org/1999/02/22-rdf-syntax-ns#"
   xmlns:svg="http://www.w3.org/2000/svg"
   xmlns="http://www.w3.org/2000/svg"
   xmlns:sodipodi="http://sodipodi.sourceforge.net/DTD/sodipodi-0.dtd"
   xmlns:inkscape="http://www.inkscape.org/namespaces/inkscape"
   width="210mm"
   height="297mm"
   viewBox="0 0 210 297"
   version="1.1"
   id="svg276"
   inkscape:export-filename="/home/edward/Desktop/CAT125Project/resources/datastructures.png"
   inkscape:export-xdpi="96"
   inkscape:export-ydpi="96"
   inkscape:version="0.92.4 (5da689c313, 2019-01-14)"
   sodipodi:docname="datastructures.svg">
  <defs
     id="defs270" />
  <sodipodi:namedview
     id="base"
     pagecolor="#ffffff"
     bordercolor="#666666"
     borderopacity="1.0"
     inkscape:pageopacity="0.0"
     inkscape:pageshadow="2"
     inkscape:zoom="1.4"
     inkscape:cx="401.57153"
     inkscape:cy="870.4952"
     inkscape:document-units="mm"
     inkscape:current-layer="layer1"
     showgrid="false"
     inkscape:window-width="1850"
     inkscape:window-height="1016"
     inkscape:window-x="70"
     inkscape:window-y="27"
     inkscape:window-maximized="1" />
  <metadata
     id="metadata273">
    <rdf:RDF>
      <cc:Work
         rdf:about="">
        <dc:format>image/svg+xml</dc:format>
        <dc:type
           rdf:resource="http://purl.org/dc/dcmitype/StillImage" />
        <dc:title></dc:title>
      </cc:Work>
    </rdf:RDF>
  </metadata>
  <g
     inkscape:label="Layer 1"
     inkscape:groupmode="layer"
     id="layer1">
    <path
       id="path278"
       d="m 93.557475,28.466703 c -0.391835,-0.513278 -0.902012,-0.781442 -1.512144,-0.947782 -0.392306,-0.0885 -0.787712,-0.107442 -1.181603,-0.01304 -0.644612,0.154482 -3.270895,1.690502 1.096516,-0.674947 -1.187606,1.061167 -1.693614,2.519685 -2.112756,4.010258 -0.405173,1.983255 -0.445469,4.071069 0.248465,6.000628 0.154659,0.430048 0.373679,0.834154 0.560517,1.251233 1.026493,1.800323 2.52785,3.222326 4.36686,4.180128 1.339255,0.697519 1.724134,0.725424 3.166761,1.130615 1.57045,0.283252 3.157279,0.287745 4.688559,-0.21218 0.46597,-0.152127 0.9,-0.388742 1.34748,-0.588817 0.33486,-0.149722 -1.03498,0.803675 -1.00961,0.437748 0.0349,-0.503312 0.70303,-0.723818 1.05454,-1.085726 0.29912,-0.441759 0.63408,-0.861261 0.89736,-1.325276 1.03122,-1.817516 1.67215,-4.149344 1.58424,-6.247035 -0.0196,-0.467159 -0.12624,-0.926576 -0.18937,-1.389864 -0.14312,-0.39855 -0.23874,-0.817518 -0.42937,-1.19565 -0.53018,-1.051639 -1.42582,-1.743466 -2.54835,-2.065922 -0.98061,-0.281691 -1.47837,-0.209283 -2.49963,-0.21323 -2.779879,0.222985 -5.481413,0.980485 -8.157186,1.728623 -0.787771,0.248227 -1.293876,0.377452 -2.034509,0.721342 -0.26612,0.123568 -1.033729,0.555685 -0.77384,0.419496 0.561015,-0.293986 1.082837,-0.674224 1.677263,-0.89291 0.203933,-0.07503 -0.326903,0.287875 -0.472104,0.44954 -0.127024,0.141425 -0.22782,0.304374 -0.341728,0.45656 0,0 -2.502649,1.086816 -2.502649,1.086816 v 0 c 1.059633,-1.582553 1.532475,-1.495166 3.727551,-2.775358 0.863219,-0.503438 1.836314,-0.77493 2.787009,-1.053825 2.687418,-0.728683 5.399823,-1.478687 8.189903,-1.661562 1.06169,0.02373 1.57288,-0.04498 2.58585,0.279257 1.17598,0.376413 2.09663,1.146795 2.63769,2.262984 0.19288,0.397904 0.28936,0.835703 0.43404,1.253554 0.0635,0.480113 0.17092,0.956437 0.19063,1.440333 0.0866,2.126893 -0.53616,4.506161 -1.53513,6.375337 -0.25322,0.473802 -0.57714,0.906285 -0.86571,1.359426 -0.34107,0.377235 -0.6123,0.832043 -1.0232,1.131702 -1.11709,0.814674 -3.16016,2.169414 -4.76945,2.639013 -1.557843,0.454586 -3.159734,0.41081 -4.736476,0.09364 -1.447665,-0.427887 -1.864477,-0.473443 -3.211063,-1.183799 -1.879491,-0.991473 -3.423417,-2.44561 -4.486262,-4.285382 -0.195349,-0.427265 -0.422375,-0.841425 -0.586049,-1.281798 -0.72553,-1.952064 -0.726241,-4.068395 -0.372208,-6.094727 0.383559,-1.529424 0.849794,-2.977478 1.967833,-4.140031 0.9217,-0.562557 1.833269,-1.142055 2.765097,-1.687671 0.654077,-0.382983 1.440725,-0.379699 2.15347,-0.20204 0.64379,0.21349 1.183598,0.544096 1.625796,1.067561 0,0 -2.403033,1.442778 -2.403033,1.442778 z"
       inkscape:connector-curvature="0"
       style="stroke-width:0.26458332" />
    <path
       id="path280"
       d="m 93.651527,43.295067 c -0.152287,0.746506 -0.542103,1.416074 -0.906929,2.075579 -0.695645,1.167334 -1.300162,2.383531 -1.889992,3.60661 -0.712391,1.579358 -1.344843,3.192655 -2.010794,4.791667 -0.574149,1.348137 -1.26719,2.641579 -1.952146,3.93573 -0.286404,0.533464 -0.15952,0.279128 -0.385882,0.760373 0,0 -2.516216,1.146789 -2.516216,1.146789 v 0 c 0.236371,-0.511739 0.100825,-0.246549 0.41438,-0.791559 0.713496,-1.285571 1.407805,-2.586067 2.005266,-3.930007 0.671732,-1.598573 1.309238,-3.211341 2.000814,-4.801653 0.574227,-1.214364 1.143351,-2.433458 1.82368,-3.593309 0.341842,-0.629859 0.735123,-1.257411 0.899909,-1.961965 0,0 2.51791,-1.238255 2.51791,-1.238255 z"
       inkscape:connector-curvature="0"
       style="stroke-width:0.26458332" />
    <path
       id="path282"
       d="m 85.699361,52.950874 c -0.261321,0.875506 -0.382273,1.7805 -0.468596,2.687246 -0.01278,0.77198 -0.216733,1.603819 0.06044,2.349238 -0.205147,0.321186 0.837915,-0.273645 0.680204,-0.182388 -3.032662,1.754801 -2.446543,1.405371 -1.532562,0.850659 1.743165,-1.179113 3.566735,-2.216642 5.389259,-3.267892 0.546235,-0.292989 1.115192,-0.456631 1.732198,-0.462653 0,0 -2.247961,1.649671 -2.247961,1.649671 v 0 c -0.577882,0.05163 -1.111716,0.253619 -1.617398,0.537369 4.330697,-2.51973 0.163819,-0.09958 -0.703575,0.55413 -1.20332,0.766554 -1.097968,0.709607 -3.199598,1.855698 -0.350988,0.191405 -0.733182,0.180168 -0.941885,-0.182145 -0.281175,-0.797237 -0.0946,-1.656371 -0.07011,-2.481095 0.08108,-0.908797 0.194398,-1.811653 0.385792,-2.70441 0,0 2.533793,-1.203428 2.533792,-1.203428 z"
       inkscape:connector-curvature="0"
       style="stroke-width:0.26458332" />
    <path
       id="path284"
       d="m 105.20694,42.314653 c 0.0806,0.619578 0.0844,1.242518 0.10729,1.865635 0.0407,0.83642 0.4023,1.575102 0.78089,2.30364 0.72215,1.333132 1.7395,2.451066 2.74891,3.567168 1.06007,1.088504 2.10751,2.189091 3.19989,3.245411 0.71268,0.680252 1.42751,1.358514 2.15436,2.02365 0.1419,0.15603 0.35075,0.256802 0.44451,0.448524 0.0216,0.05509 0.028,0.11303 0.0313,0.171458 0,0 -2.53875,1.252887 -2.53875,1.252887 v 0 c 0.009,-0.01984 0.0159,-0.04229 0.0309,-0.05815 0.007,0.0079 0.0112,0.02617 0.0215,0.02355 0.0284,-0.0073 -0.0393,-0.0435 -0.0593,-0.06494 -0.099,-0.106264 -0.19991,-0.210738 -0.301,-0.315021 -0.68485,-0.699904 -1.38869,-1.380868 -2.08876,-2.065464 -1.08578,-1.068858 -2.13911,-2.169668 -3.1935,-3.269313 -1.0227,-1.134565 -2.05865,-2.265897 -2.81834,-3.602453 -0.41529,-0.752078 -0.82196,-1.515205 -0.88241,-2.390399 -0.0253,-0.610508 -0.004,-1.223532 -0.1194,-1.826956 0,0 2.48176,-1.309204 2.48176,-1.309204 z"
       inkscape:connector-curvature="0"
       style="stroke-width:0.26458332" />
    <path
       id="path286"
       d="m 116.15493,51.970654 c -0.0273,0.833217 -0.027,1.66706 -0.0262,2.500632 -0.0458,0.580814 -0.006,1.184815 -0.15772,1.752537 -0.88275,2.32679 -2.12533,1.620361 -3.39781,1.353248 -0.52143,-0.115956 -1.03524,-0.0047 -1.50395,0.232079 -0.0683,0.04413 -0.13572,0.08978 -0.20502,0.132379 -1.25897,0.773923 2.99108,-1.789588 1.80981,-1.027091 0,0 -2.60522,1.018842 -2.60522,1.018842 v 0 c 1.01584,-0.693494 2.09362,-1.29889 3.19087,-1.852867 0.52346,-0.179774 1.05873,-0.229399 1.60204,-0.09478 0.20936,0.04394 0.45854,0.133958 0.67601,0.116218 0.0396,-0.0032 0.14714,-0.05804 0.11325,-0.03729 -2.01955,1.2363 -3.12966,1.80286 -2.22955,1.341525 0.27218,-0.505061 0.17887,-1.137603 0.25937,-1.687516 7.9e-4,-0.824666 0.001,-1.649624 -0.0262,-2.473925 0,0 2.50034,-1.273987 2.50034,-1.273987 z"
       inkscape:connector-curvature="0"
       style="stroke-width:0.26458332" />
    <path
       id="path288"
       d="m 80.406509,62.926655 c 0.02733,-0.350782 0.214434,-0.838748 -0.01109,-1.163743 -0.03391,-0.04887 -0.08688,-0.08125 -0.130326,-0.121881 -0.732856,-0.32054 -1.552805,-0.141263 -2.307542,-0.0034 -0.207129,0.06237 -0.417693,0.114306 -0.62139,0.187106 -0.225319,0.08053 -0.447315,0.17119 -0.664155,0.272351 -0.229819,0.107217 -0.894773,0.477626 -0.674407,0.352121 2.874016,-1.636845 1.664346,-1.006039 0.964549,-0.371076 -0.213791,0.193988 -0.400446,0.415928 -0.60067,0.623893 -1.013828,1.242237 -1.595416,2.760274 -1.764318,4.351689 -0.035,0.329735 -0.03199,0.662403 -0.04798,0.993603 0.0745,1.394958 0.470768,2.75135 1.429264,3.806267 0.722981,0.795711 1.037113,0.885936 1.963277,1.436455 0.429,0.150331 0.845886,0.341199 1.287007,0.450995 2.01367,0.501211 4.193865,0.260919 6.132962,-0.425958 0.491202,-0.173995 0.956715,-0.413414 1.435074,-0.620122 -0.312132,0.170855 -1.071851,0.8416 -0.93639,0.512561 0.17186,-0.417457 0.735402,-0.527552 1.06816,-0.832638 0.868326,-0.796118 1.536594,-1.802752 1.854219,-2.943244 0.09491,-0.340804 0.119882,-0.69732 0.179821,-1.045982 0.05902,-1.53507 -0.359111,-3.029686 -1.548709,-4.066067 -0.187135,-0.163031 -0.402318,-0.29075 -0.603478,-0.436125 -0.729829,-0.431478 -1.559629,-0.630479 -2.402872,-0.664906 -0.314526,-0.01283 -0.629467,0.01185 -0.944221,0.01654 -0.683149,0.02638 -1.364808,-0.05338 -2.04556,-0.101547 -0.159784,-0.01119 -0.319801,-0.01828 -0.479739,-0.02677 0,0 2.291278,-1.637667 2.291278,-1.637667 v 0 c 0.15339,0.01617 0.307126,0.02825 0.460737,0.04211 0.664724,0.06359 1.331389,0.127791 2.000097,0.104169 1.196694,0.0051 2.375019,0.145449 3.399271,0.826508 0.542851,0.421013 0.762506,0.537093 1.191062,1.098724 0.813946,1.066689 1.083543,2.366614 1.051975,3.68481 -0.150325,0.997776 -0.115493,1.245172 -0.553336,2.180815 -1.159161,2.477071 -3.702574,3.639365 -5.985669,4.869386 -0.483581,0.196496 -0.955151,0.425633 -1.450745,0.589489 -1.989595,0.657815 -4.211362,0.858258 -6.254927,0.321874 -0.456239,-0.119751 -0.886529,-0.322559 -1.329793,-0.483841 -0.958567,-0.578805 -1.291333,-0.682141 -2.044605,-1.508699 -0.998683,-1.095851 -1.43271,-2.500635 -1.53249,-3.952494 0.01125,-0.340008 0.0037,-0.681157 0.03373,-1.020024 0.143613,-1.621351 0.696735,-3.183613 1.677574,-4.485725 0.19431,-0.218816 0.374171,-0.451374 0.582936,-0.65645 1.005427,-0.987655 2.520682,-1.682763 3.627532,-2.315231 0.631929,-0.361093 1.328521,-0.602652 2.034315,-0.76831 0.837081,-0.138065 1.763094,-0.309655 2.514603,0.191532 0.05967,0.06843 0.130067,0.128817 0.178999,0.205295 0.247361,0.386596 0.127351,0.871426 0.09387,1.295305 0,0 -2.517907,1.238252 -2.517907,1.238252 z"
       inkscape:connector-curvature="0"
       style="stroke-width:0.26458332" />
    <path
       id="path290"
       d="m 73.215541,73.740059 c -0.305228,0.590302 -0.65913,1.151705 -0.964837,1.741739 -0.293468,0.67391 -0.611831,1.33486 -0.943991,1.990394 -0.557705,1.095272 -1.165646,2.16375 -1.794928,3.219173 -0.573945,0.940326 -1.17057,1.867929 -1.7863,2.781564 -0.26094,0.36861 -0.494713,0.755259 -0.729612,1.140659 0,0 -2.548594,1.124368 -2.548594,1.124368 v 0 c 0.248253,-0.38961 0.484497,-0.78717 0.751462,-1.164426 0.641588,-0.907008 1.242239,-1.843942 1.833999,-2.783787 0.629486,-1.036667 1.220771,-2.096487 1.764048,-3.181051 0.31949,-0.657937 0.655743,-1.30837 0.92764,-1.988384 0.301418,-0.581006 0.636251,-1.140544 0.93332,-1.723025 0,0 2.557793,-1.157224 2.557793,-1.157224 z"
       inkscape:connector-curvature="0"
       style="stroke-width:0.26458332" />
    <path
       id="path292"
       d="m 65.141461,82.002153 c 0.05282,0.605694 0.14029,1.208836 0.265374,1.803852 0.127252,0.502669 0.216117,1.039421 0.537234,1.458876 0.222171,0.224686 0.498433,0.256444 0.777322,0.106939 0.08281,-0.04439 0.315563,-0.20356 0.233133,-0.158462 -0.704342,0.38535 -1.399916,0.786514 -2.099871,1.179769 0.546851,-0.403873 1.008665,-0.933931 1.601425,-1.276821 0.895614,-0.518083 1.802201,-1.016963 2.703303,-1.525444 0.51403,-0.169471 1.105477,-0.295889 1.586751,0.01511 0.03763,0.03816 0.07526,0.07632 0.112882,0.114474 0,0 -2.393646,1.47629 -2.393646,1.47629 v 0 c -0.02275,-0.01886 -0.04552,-0.03772 -0.06828,-0.05658 -0.459137,-0.179133 -0.970933,0.0011 -1.402464,0.175496 4.171561,-2.47473 1.232067,-0.829916 0.438539,0.05663 -0.883613,0.526642 -1.758418,1.068353 -2.650842,1.579925 -0.438089,0.251131 -0.923549,0.08603 -1.238416,-0.265825 -0.330764,-0.463552 -0.464601,-1.016484 -0.586449,-1.567055 -0.128148,-0.597247 -0.208309,-1.204074 -0.297754,-1.807962 0,0 2.481757,-1.309203 2.481757,-1.309203 z"
       inkscape:connector-curvature="0"
       style="stroke-width:0.26458332" />
    <path
       id="path294"
       d="m 86.69929,73.103051 c 0.252547,1.075135 0.449884,2.162255 0.698214,3.238624 0.403527,1.759556 0.806056,3.519374 1.20337,5.280343 0.278617,1.069223 0.384985,2.159116 0.385337,3.259992 -0.004,0.336185 -0.01476,0.672227 -0.02275,1.00833 0,0 -2.504147,1.260014 -2.504147,1.260014 v 0 c 0.02606,-0.338367 0.04587,-0.677119 0.05966,-1.016225 0.03562,-1.091811 -0.02365,-2.176494 -0.281356,-3.243685 -0.367249,-1.764141 -0.776303,-3.519898 -1.212612,-5.268198 -0.26702,-1.057556 -0.468323,-2.134233 -0.788633,-3.17667 0,0 2.462919,-1.342525 2.462919,-1.342525 z"
       inkscape:connector-curvature="0"
       style="stroke-width:0.26458332" />
    <path
       id="path296"
       d="m 84.647727,80.444926 c 0.44274,0.692791 0.998275,1.300449 1.561237,1.895795 0.652164,0.607857 1.265174,1.259637 1.955583,1.824834 0.219612,0.158062 0.466193,0.400254 0.746001,0.457954 0.05541,0.01143 0.117112,0.0063 0.168934,-0.01643 0.05605,-0.02455 0.193791,-0.147839 0.139882,-0.118888 -0.747411,0.401397 -1.482487,0.825344 -2.22373,1.238017 0.443635,-0.434946 0.711083,-1.013613 0.94229,-1.582026 0.02341,-0.06686 0.04682,-0.133723 0.07023,-0.200586 0,0 2.531459,-1.185002 2.531459,-1.185002 v 0 c -0.02463,0.07149 -0.04928,0.142983 -0.07391,0.214476 -0.227004,0.599372 -0.516987,1.176822 -0.880401,1.705684 -0.857593,0.511067 -1.699217,1.049944 -2.572784,1.533205 -0.318651,0.176279 -0.98257,-0.415941 -1.192186,-0.582448 -0.679683,-0.590389 -1.306499,-1.238062 -1.957538,-1.859373 -0.582909,-0.611232 -1.142696,-1.243147 -1.642171,-1.925365 0,0 2.427105,-1.399847 2.427104,-1.399847 z"
       inkscape:connector-curvature="0"
       style="stroke-width:0.26458332" />
    <path
       id="path298"
       d="m 63.942816,85.514412 c -0.822586,0.453295 -2.194258,1.205883 1.512137,-0.876885 0.126309,-0.07098 -0.245574,0.153858 -0.366716,0.233333 -0.135453,0.08886 -0.268668,0.181089 -0.403002,0.271635 -0.14599,0.09495 -0.291976,0.189897 -0.437965,0.284845 -1.137158,0.694806 -2.262092,1.404549 -3.356951,2.164546 -1.284595,0.907523 -2.445923,2.009304 -3.281059,3.352477 -0.186417,0.29982 -0.341415,0.618072 -0.512122,0.927108 -0.736515,1.706287 -1.043109,3.646866 -0.447725,5.452007 0.118827,0.360269 0.307388,0.693663 0.461081,1.040492 0.937763,1.521484 2.209221,2.47832 3.933849,2.97397 1.269855,0.36495 1.793499,0.3209 3.120848,0.40185 1.730033,-0.0163 3.433066,-0.32398 5.05995,-0.91361 0.510611,-0.18506 0.971663,-0.50613 1.49748,-0.64209 0.330298,-0.0854 -1.013118,0.80939 -0.89989,0.48756 0.14927,-0.42426 0.689017,-0.57826 1.033526,-0.867392 0.261961,-0.328244 0.560774,-0.630205 0.785889,-0.984736 0.641104,-1.009677 0.913959,-2.212213 0.805826,-3.400066 -0.09092,-0.998738 -0.289282,-1.306515 -0.653547,-2.225296 -0.862127,-1.54931 -2.196095,-2.713826 -3.944948,-3.123383 -0.275106,-0.06443 -0.558501,-0.08612 -0.837751,-0.129177 -1.032062,-0.125037 -2.088478,0.243017 -3.099482,-0.05229 -0.291291,-0.142163 -0.45275,-0.393803 -0.533159,-0.697148 0,0 2.481117,-1.328359 2.481117,-1.328359 v 0 c 0.0259,0.218935 0.130405,0.370988 0.347202,0.444897 0.985427,0.214736 2.006224,-0.0884 2.999597,0.09583 0.283154,0.05625 0.57136,0.09131 0.849463,0.168765 1.786432,0.497546 3.139419,1.742252 4.025392,3.343696 0.382564,0.951899 0.590354,1.278972 0.700416,2.313889 0.130855,1.230482 -0.113488,2.493619 -0.747708,3.561975 -0.22112,0.37248 -0.520422,0.692607 -0.780632,1.038912 -0.346212,0.306499 -0.650319,0.66847 -1.03864,0.919494 -2.732109,1.766109 -5.145429,3.022899 -8.367876,3.375999 -0.578358,0.0634 -1.162111,0.0596 -1.743168,0.0894 -1.355489,-0.0947 -1.90509,-0.0556 -3.20149,-0.44126 -1.784943,-0.53101 -3.103851,-1.54688 -4.078459,-3.122779 -0.162873,-0.361392 -0.361276,-0.70879 -0.48862,-1.084175 -0.625612,-1.84417 -0.354496,-3.844214 0.351057,-5.614975 0.165553,-0.31669 0.315434,-0.64208 0.496655,-0.950073 0.80127,-1.361776 1.928506,-2.500001 3.200977,-3.424336 1.076492,-0.761013 2.177706,-1.479566 3.308495,-2.157521 0.399426,-0.252346 0.777523,-0.549201 1.183389,-0.789649 1.051835,-0.623141 2.139564,-1.320432 3.266228,-1.855903 0,0 -2.199664,1.738426 -2.199664,1.738426 z"
       inkscape:connector-curvature="0"
       style="stroke-width:0.26458332" />
    <path
       id="path302"
       d="m 88.54429,88.168455 c 1.048856,-0.607658 -1.142833,0.662628 -1.961739,1.119629 -0.07182,0.04008 0.136136,-0.09245 0.20193,-0.141806 0.144449,-0.108357 0.268716,-0.225644 0.385691,-0.362159 0.105214,-0.218141 -0.202923,-0.432191 -0.340128,-0.563083 -0.440213,-0.355111 -0.666014,-0.465958 -1.241372,-0.368986 -0.12152,0.04029 -0.246123,0.07226 -0.364556,0.120878 -0.487032,0.199924 -1.118013,0.601369 -0.930883,0.505725 0.592105,-0.302639 1.135136,-0.709727 1.7576,-0.943645 0.245878,-0.0924 -0.408524,0.330872 -0.601421,0.509156 -0.211866,0.195816 -0.407879,0.408115 -0.61182,0.612175 -1.091658,1.18211 -1.976832,2.569432 -2.3738,4.144139 -0.08255,0.32748 -0.121372,0.664456 -0.182059,0.996686 -0.123616,1.423469 0.141213,2.827663 0.924472,4.040936 0.539883,0.836276 0.816809,1.002594 1.548368,1.673627 1.658059,1.218283 3.650758,1.910913 5.726253,1.706703 0.407739,-0.0401 0.80582,-0.14865 1.20873,-0.22298 -0.688093,0.10961 3.021881,-0.88102 2.219431,-1.012799 -0.458073,-0.07523 -0.876114,0.805119 -1.27309,0.564499 -0.333777,-0.20232 0.562845,-0.54334 0.81103,-0.844579 0.661289,-0.802664 0.702379,-1.028486 1.145447,-1.950318 0.09786,-0.343812 0.226468,-0.680325 0.293579,-1.031438 0.24061,-1.258795 0.02069,-2.599153 -0.570182,-3.731993 -0.137411,-0.263446 -0.316619,-0.502888 -0.474927,-0.754332 -1.028647,-1.359207 -2.403068,-2.159945 -3.966882,-2.757377 -1.176097,-0.361958 -2.372291,-0.307451 -3.523917,0.09265 -0.435446,0.187502 -0.233913,0.09236 -0.606782,0.280739 0,0 2.178397,-1.731995 2.178397,-1.731995 v 0 c 0.371864,-0.156834 0.170643,-0.07779 0.605467,-0.232492 1.193006,-0.324186 2.410111,-0.320722 3.588919,0.08819 1.59194,0.655661 2.991475,1.507236 4.032375,2.917401 0.163615,0.264348 0.348077,0.51688 0.490847,0.793044 0.61437,1.188394 0.85545,2.57924 0.627687,3.901916 -0.06286,0.365048 -0.187934,0.716608 -0.281901,1.074912 -0.432443,0.961959 -0.464306,1.183905 -1.120264,2.029352 -1.157981,1.49249 -2.012156,1.72606 -3.991203,2.92963 -0.35121,0.21359 -0.716793,0.40674 -1.096316,0.56464 -0.379717,0.15798 -0.782585,0.25325 -1.173877,0.37988 -0.411943,0.0629 -0.820105,0.15989 -1.235824,0.18871 -2.127308,0.14744 -4.155125,-0.60608 -5.841344,-1.86381 -0.756489,-0.69955 -1.043702,-0.87659 -1.607148,-1.743171 -0.815575,-1.254347 -1.11193,-2.708751 -1.017767,-4.186957 0.05454,-0.342389 0.08653,-0.689134 0.163605,-1.027163 0.365032,-1.601065 1.223224,-3.026431 2.299427,-4.247422 1.487073,-1.579068 1.587127,-1.43646 4.050581,-2.923016 0.436388,-0.263335 0.897503,-0.484796 1.406096,-0.559128 0.650431,-0.0013 0.911143,0.13829 1.393561,0.548455 0.254595,0.241249 0.52202,0.509047 0.517218,0.884467 -0.09531,0.263269 -0.312447,0.490125 -0.554726,0.635818 -2.19693,1.32112 -1.754656,1.08227 -2.825091,1.650328 0,0 2.192308,-1.75364 2.192308,-1.75364 z"
       inkscape:connector-curvature="0"
       style="stroke-width:0.26458332" />
    <path
       id="path304"
       d="m 118.13563,58.526912 c -0.66869,-0.01852 -1.33832,0.05878 -1.99745,0.167272 -0.85788,0.08671 -1.53127,0.24878 -2.31741,0.605248 -0.15188,0.07937 -0.30375,0.158742 -0.45562,0.238114 0.60921,-0.348906 1.21037,-0.712271 1.82763,-1.046718 0.19336,-0.104767 -0.3747,0.230825 -0.55478,0.357063 -0.63054,0.442024 -1.14494,0.955646 -1.66455,1.519545 -0.86361,1.048596 -1.45436,2.315644 -1.42112,3.70001 0.007,0.299159 0.0658,0.594865 0.0987,0.892299 0.0924,0.308039 0.15814,0.625356 0.27717,0.924113 0.57443,1.441802 1.69955,2.698954 2.95282,3.592351 0.35514,0.253159 0.74575,0.452451 1.11862,0.678675 1.76755,0.828484 3.55799,1.064747 5.4649,0.569941 1.33669,-0.346842 1.58943,-0.59469 2.78123,-1.271643 -0.32013,0.103429 -0.99923,0.644449 -0.96038,0.31028 0.0593,-0.509918 0.73597,-0.719791 1.05476,-1.122159 0.31663,-0.399637 0.59474,-0.830823 0.84468,-1.275228 0.48657,-0.865135 0.82385,-1.768541 1.06857,-2.72774 0.11105,-0.435285 0.16988,-0.882248 0.25482,-1.323372 0.0928,-1.25208 0.26506,-2.780435 -0.55277,-3.863975 -0.36845,-0.488148 -0.5982,-0.505635 -1.13581,-0.741146 -0.26259,-0.0379 -0.52305,-0.09594 -0.78777,-0.113688 -0.68646,-0.04603 -1.27638,0.01556 -1.95938,0.103073 -1.10832,0.142005 -2.19761,0.369901 -3.28696,0.613249 -1.33403,0.337476 -0.68675,0.162893 -1.94266,0.520724 0,0 2.11203,-1.62341 2.11203,-1.62341 v 0 c 1.24354,-0.334216 0.60166,-0.169928 1.92634,-0.490087 1.09874,-0.23586 2.19915,-0.464368 3.31665,-0.595397 0.66518,-0.07799 1.36203,-0.138811 2.03277,-0.0694 0.28501,0.0295 0.56234,0.110363 0.84351,0.165547 0.59396,0.304829 0.82102,0.329144 1.21754,0.896729 0.81583,1.167767 0.64846,2.739707 0.54429,4.066503 -0.0856,0.452122 -0.1459,0.909761 -0.25671,1.356367 -0.36393,1.466681 -0.96752,2.901136 -1.88312,4.11357 -1.33271,1.764742 -2.21188,1.932961 -4.43873,3.402719 -1.21944,0.647912 -1.48765,0.892458 -2.84516,1.207945 -1.92417,0.447175 -3.83234,0.163136 -5.59265,-0.701853 -0.38101,-0.235966 -0.77943,-0.445886 -1.14302,-0.7079 -1.29172,-0.930863 -2.45615,-2.214047 -3.0777,-3.693719 -0.13024,-0.310036 -0.20697,-0.639918 -0.31045,-0.959879 -0.0434,-0.309919 -0.11353,-0.617259 -0.13007,-0.929759 -0.0752,-1.421466 0.47511,-2.754077 1.3332,-3.859503 0.44103,-0.507823 0.56171,-0.680337 1.06097,-1.124858 1.2681,-1.129085 2.94967,-1.927918 4.42569,-2.692114 0.76531,-0.308144 1.55377,-0.471681 2.37394,-0.559835 0.68717,-0.09268 1.38241,-0.179006 2.07667,-0.124851 0,0 -2.2932,1.616895 -2.2932,1.616895 z"
       inkscape:connector-curvature="0"
       style="stroke-width:0.26458332" />
  </g>
</svg>
