<?xml version="1.0" encoding="UTF-8" standalone="no"?>
<!-- Created with Inkscape (http://www.inkscape.org/) -->

<svg
   xmlns:dc="http://purl.org/dc/elements/1.1/"
   xmlns:cc="http://creativecommons.org/ns#"
   xmlns:rdf="http://www.w3.org/1999/02/22-rdf-syntax-ns#"
   xmlns:svg="http://www.w3.org/2000/svg"
   xmlns="http://www.w3.org/2000/svg"
   xmlns:sodipodi="http://sodipodi.sourceforge.net/DTD/sodipodi-0.dtd"
   xmlns:inkscape="http://www.inkscape.org/namespaces/inkscape"
   width="210mm"
   height="297mm"
   viewBox="0 0 210 297"
   version="1.1"
   id="svg8"
   inkscape:version="0.92.4 (5da689c313, 2019-01-14)"
   sodipodi:docname="drawing.svg">
  <defs
     id="defs2" />
  <sodipodi:namedview
     id="base"
     pagecolor="#ffffff"
     bordercolor="#666666"
     borderopacity="1.0"
     inkscape:pageopacity="0.0"
     inkscape:pageshadow="2"
     inkscape:zoom="0.98994949"
     inkscape:cx="437.66193"
     inkscape:cy="687.35946"
     inkscape:document-units="mm"
     inkscape:current-layer="layer1"
     showgrid="false"
     inkscape:window-width="1850"
     inkscape:window-height="1016"
     inkscape:window-x="70"
     inkscape:window-y="27"
     inkscape:window-maximized="1" />
  <metadata
     id="metadata5">
    <rdf:RDF>
      <cc:Work
         rdf:about="">
        <dc:format>image/svg+xml</dc:format>
        <dc:type
           rdf:resource="http://purl.org/dc/dcmitype/StillImage" />
        <dc:title></dc:title>
      </cc:Work>
    </rdf:RDF>
  </metadata>
  <g
     inkscape:label="Layer 1"
     inkscape:groupmode="layer"
     id="layer1">
    <path
       id="path12"
       d="m 36.390675,132.40472 c -0.618911,-6.20844 -0.661644,-12.44627 -0.606383,-18.67839 0.0599,-1.71512 0.104347,-3.43085 0.179687,-5.14536 0.140782,-3.20372 0.459158,-8.45319 0.641921,-11.604271 0.361275,-6.228813 0.706779,-12.458245 1.042189,-18.6885 0.534035,-9.082389 0.837006,-18.176102 0.864928,-27.273829 -0.0375,-3.378914 -0.144471,-6.758464 -0.409655,-10.127546 -0.137427,-1.658887 -0.213616,-3.321772 -0.274754,-4.984933 -0.0214,-0.609885 -0.03797,-1.219864 -0.0529,-1.829927 0.02733,-0.283472 -0.07702,-0.544597 -0.136067,-0.817385 -0.118449,-0.565137 -0.281906,-1.117976 -0.430916,-1.675259 -0.138375,-0.341816 -0.242097,-0.705435 -0.426831,-1.026592 -0.08535,-0.166391 -0.120304,-0.337336 -0.107249,-0.521269 0.01426,-0.167126 0.0059,-0.323752 0.08867,-0.474702 0.102529,-0.118152 0.192416,-0.259498 0.31583,-0.375645 1.987439,-2.046869 2.691768,-2.003046 4.514633,-1.957075 3.567335,0.140422 7.13344,0.315831 10.702065,0.434229 9.778564,0.287988 19.547703,-0.335412 29.29695,-1.012423 8.944147,-0.636793 17.873358,-1.467162 26.816567,-2.115459 4.57805,-0.331865 8.72945,-0.577895 13.30502,-0.861844 7.53472,-0.417398 15.08187,-0.75605 22.63019,-0.747424 4.36376,0.005 5.32009,0.0802 9.6437,0.2437 7.31689,0.374022 14.60455,1.223037 21.78282,2.689447 2.03804,0.548871 4.33957,0.817938 6.03282,2.18998 0.33819,0.388297 0.3734,0.831858 0.2637,1.308857 -0.0352,0.105502 -0.0782,0.342365 -0.20087,0.401195 -0.29133,0.139684 0.11497,-0.126555 -0.11262,0.02969 -0.1228,0.129159 -0.10687,0.309541 -0.16621,0.473864 -0.39196,2.166461 -0.59289,4.361439 -0.80173,6.551374 -0.51708,5.722096 -0.8392,11.459514 -1.27932,17.187804 -0.60081,7.869319 -1.27536,15.732659 -1.9138,23.598968 -0.54675,7.691773 -1.29809,15.365613 -2.01364,23.042785 -0.66588,6.56499 -1.32057,13.13056 -1.84127,19.70886 -0.22746,3.33422 -0.48056,6.66671 -0.61578,10.00628 -0.0232,1.17261 -0.0382,2.34059 -0.1607,3.50734 -0.0483,0.54307 -0.0885,1.08229 -0.22711,1.61079 -0.0375,0.20074 -0.11412,0.39468 -0.15116,0.59479 -0.0165,0.11308 -0.018,0.22723 -0.02,0.34123 0.007,0.32357 -0.12412,0.62551 -0.18292,0.94162 -0.0476,0.27713 -0.0718,0.55802 -0.0796,0.83895 -0.001,0.0917 -7.9e-4,0.0493 -0.001,0.12716 0,0 -3.56722,1.81221 -3.56722,1.81221 v 0 c 0.002,-0.084 5.3e-4,-0.0385 0.003,-0.13666 0.01,-0.29931 0.0261,-0.59779 0.0662,-0.89495 0.0368,-0.22876 0.0438,-0.5067 0.14741,-0.71838 0.0122,-0.0249 0.0451,-0.037 0.0542,-0.0632 0.01,-0.0287 -5.2e-4,-0.0608 -5.2e-4,-0.0912 -0.003,-0.12689 -0.0105,-0.25377 -0.002,-0.3806 0.0115,-0.22769 0.073,-0.43827 0.14134,-0.65691 0.13986,-0.51864 0.25924,-1.02854 0.27837,-1.57095 0.14327,-1.17303 0.2122,-2.34611 0.25448,-3.52756 0.2154,-3.3778 0.53985,-6.74685 0.8149,-10.12007 0.61168,-6.60025 1.31621,-13.191 1.98835,-19.78526 0.72568,-7.678013 1.45726,-15.355242 2.03039,-23.046598 0.65075,-7.853021 1.33233,-15.703785 1.85633,-23.566656 0.39083,-5.695191 0.6649,-11.397393 1.07576,-17.091123 0.1626,-2.167753 0.33455,-4.333846 0.55834,-6.496047 0.01,-0.07031 0.0193,-0.140626 0.0289,-0.210942 0.0189,-0.0149 0.0468,-0.02275 0.0567,-0.04466 0.0393,-0.08659 -0.0469,-0.220429 0.0186,-0.308139 0.0751,-0.322254 0.087,-0.178922 0.35977,-0.353655 0.11414,-0.325242 0.24224,-0.622647 -0.007,-0.924846 -1.57831,-1.332211 -3.79093,-1.608047 -5.69883,-2.191993 -7.0722,-1.600156 -14.23358,-2.469891 -21.4758,-2.832306 -4.32851,-0.169953 -5.2239,-0.24204 -9.59156,-0.262382 -7.49011,-0.03488 -14.9806,0.245504 -22.45867,0.642551 -5.20774,0.307761 -8.02532,0.4572 -13.2628,0.837227 -8.969586,0.650829 -17.924102,1.49536 -26.89195,2.168828 -9.877505,0.73316 -19.772273,1.427202 -29.684417,1.254649 -3.664222,-0.07048 -7.328201,-0.214455 -10.993098,-0.211733 -0.152154,0.0033 -0.472596,0.0066 -0.657953,0.01998 -0.181634,0.01307 -0.261501,0.04977 -0.2374,0.03562 2.913481,-1.71045 4.484706,-2.468475 3.29528,-1.893909 -0.13484,0.07526 -0.327544,0.144171 -0.350338,0.298273 -0.17622,0.112347 -0.182843,0.0019 -0.194244,0.242998 -0.01169,0.107101 -0.0554,0.202663 -0.01738,0.310018 0.204322,0.352002 0.297315,0.759195 0.458666,1.131374 0.14369,0.564224 0.312219,1.121119 0.453334,1.68597 0.0594,0.299665 0.203407,0.579281 0.180912,0.886743 -0.01662,0.617001 -0.01744,1.234445 -0.01244,1.851599 0.02212,1.66801 0.08725,3.334951 0.209219,4.998868 0.213415,3.425923 0.202644,6.859458 0.16016,10.290861 -0.234558,9.166621 -0.665398,18.325994 -1.238462,27.477791 -0.3518,6.225627 -0.70458,12.451162 -1.023366,18.678593 -0.146468,2.861186 -0.436657,8.606996 -0.533947,11.540816 -0.05639,1.70054 -0.0776,3.40206 -0.116409,5.10308 0.03534,6.1318 0.08409,12.29943 1.081685,18.36669 0,0 -3.465914,1.83489 -3.465914,1.83489 z"
       inkscape:connector-curvature="0"
       style="stroke-width:0.26458332" />
    <path
       id="path16"
       d="m 36.650625,127.77113 c 2.323452,0.4092 4.678844,0.60283 7.027341,0.80618 6.981974,0.46799 13.976297,0.7341 20.968235,1.00456 10.091184,0.42596 20.190787,0.59196 30.288515,0.77874 11.599794,0.22469 23.199874,0.43561 34.797914,0.7399 8.78626,0.27988 17.57254,0.58637 26.35332,1.00764 3.31007,0.13226 6.61431,0.35816 9.90366,0.75024 0.56383,0.0192 1.14256,0.12335 1.69521,-0.049 0.58878,-0.18357 1.33818,-0.71588 1.13995,-0.60927 -0.88213,0.4744 -1.74864,0.97731 -2.62296,1.46597 1.15717,-0.80058 2.2251,-1.72077 3.2584,-2.67344 1.17931,-1.13167 2.45332,-2.29191 4.19406,-2.54532 0.0662,0.004 0.12382,0.0353 0.18814,0.0502 0,0 -3.25019,2.33408 -3.25019,2.33408 v 0 c -0.049,0.009 -0.0678,0.0262 -0.1021,0.0615 -1.1938,0.63279 0.43485,-0.22972 3.27372,-1.87804 0.0353,-0.0205 -0.0781,0.0246 -0.11531,0.0414 -0.21818,0.0981 -0.35244,0.29012 -0.53369,0.44101 -1.05699,0.96377 -2.13802,1.90466 -3.29162,2.75213 -1.34481,0.80166 -2.68239,1.61556 -4.03442,2.40498 -0.44266,0.25846 -0.76198,0.41798 -1.25888,0.50953 -0.56892,0.10481 -1.15134,-0.0173 -1.71779,-0.0603 -3.19095,-0.46474 -6.40464,-0.72671 -9.62323,-0.91518 -8.67605,-0.54616 -17.36269,-0.92306 -26.05079,-1.21382 -11.59784,-0.32658 -23.19862,-0.52799 -34.79912,-0.73478 -10.150719,-0.14682 -20.302731,-0.28252 -30.447774,-0.67171 -7.079829,-0.23935 -14.160912,-0.4721 -21.23582,-0.8306 -2.41862,-0.16748 -4.836139,-0.35125 -7.240485,-0.66994 0,0 3.235714,-2.29661 3.235714,-2.29661 z"
       inkscape:connector-curvature="0"
       style="stroke-width:0.26458332" />
    <path
       id="path18"
       d="m 89.184571,134.47174 c 0.156451,1.42878 0.307409,2.85734 0.404831,4.29154 0.0633,0.90685 0.09018,1.81538 0.11166,2.72396 0.0045,0.31716 0.01098,0.63423 0.01246,0.95139 0.0033,0.10364 0.0016,0.20713 7.94e-4,0.31074 -2.2e-4,0.0508 7.93e-4,0.10154 0.0019,0.1523 0,0 -3.568907,1.81843 -3.568907,1.81843 v 0 c 0.0011,-0.0516 0.0021,-0.10312 0.0019,-0.15469 -5.29e-4,-0.10504 -0.0011,-0.20989 0.0036,-0.31492 0.005,-0.31991 0.01492,-0.63974 0.0154,-0.95973 0.0076,-0.9105 -0.0078,-1.82127 -0.05113,-2.73083 -0.08099,-1.42544 -0.195644,-2.85142 -0.443296,-4.259 0,0 3.510936,-1.82919 3.510936,-1.82919 z"
       inkscape:connector-curvature="0"
       style="stroke-width:0.26458332" />
    <path
       id="path20"
       d="m 114.33077,135.02639 c 0.19669,1.62912 0.42987,3.25273 0.58628,4.88668 0.11869,1.03177 0.066,2.07011 -0.0117,3.10229 -0.033,0.25276 -0.0211,0.51169 -0.0604,0.76364 -0.005,0.0751 -0.003,0.0388 -0.006,0.10876 0,0 -3.56939,1.80865 -3.56939,1.80865 v 0 c 8e-4,-0.0783 2.7e-4,-0.0374 0.001,-0.12263 -0.004,-0.26408 0.0835,-0.52601 0.0874,-0.79035 0.10442,-1.01934 0.21194,-2.04582 0.10211,-3.07016 -0.13297,-1.62068 -0.33407,-3.23302 -0.62202,-4.83397 0,0 3.49272,-1.85291 3.49272,-1.85291 z"
       inkscape:connector-curvature="0"
       style="stroke-width:0.26458332" />
    <path
       id="path30"
       d="m 66.452934,140.15373 c -1.553599,0.47647 -7.022277,3.64951 -0.88365,0.12872 -0.681175,0.40928 -1.315839,0.88331 -1.652635,1.61803 -0.176107,0.52544 -0.178467,1.08763 -0.142843,1.6348 0.07087,1.00987 0.427321,1.96119 0.738695,2.91442 0.291248,0.969 0.709139,1.88725 1.304716,2.7052 0.397346,0.48829 0.857327,0.93696 1.391039,1.27448 0.496218,0.29885 1.040771,0.40801 1.596086,0.53429 2.088018,0.62848 4.159041,1.31132 6.25199,1.92613 2.841858,0.8041 5.759236,1.31946 8.699929,1.58565 2.237219,0.20251 3.931944,0.23551 6.196478,0.3221 7.186263,0.20302 14.374181,0.13722 21.556541,-0.14805 5.44331,-0.27043 10.85804,-0.89253 16.25716,-1.61302 1.99091,-0.31619 4.0335,-0.44974 5.97864,-1.00716 1.24631,-0.52015 3.34811,-1.78589 -2.81764,1.65982 -0.0512,0.0286 0.0986,-0.0736 0.12084,-0.1279 0.0541,-0.13189 0.0615,-0.49833 0.0686,-0.62445 0.0754,-0.91719 0.17484,-1.83137 0.16511,-2.75253 -0.0147,-0.96012 -0.2773,-1.88589 -0.47008,-2.81909 -0.15445,-0.69229 -0.3341,-1.37371 -0.58357,-2.03766 -0.071,-0.22974 -0.25069,-0.38684 -0.38052,-0.58452 -0.12767,-0.15272 -0.21054,-0.33059 -0.30688,-0.50368 -0.10252,-0.18239 -0.26103,-0.31371 -0.43232,-0.43007 -0.13273,-0.11101 -0.28673,-0.1212 -0.45229,-0.13528 -0.2303,0.006 -0.43697,-0.14125 -0.67232,-0.19043 -0.40512,-0.0267 -0.79524,-0.0966 -1.19414,-0.16643 -1.04495,-0.0908 -2.08782,-0.19854 -3.13212,-0.30034 -0.77939,-0.0734 -1.56128,-0.11657 -2.3439,-0.13108 -0.24482,0.0254 -0.36992,-0.008 -0.54061,-0.18054 0,0 3.38101,-2.13487 3.38101,-2.13487 v 0 c 0.12533,-0.0409 0.25176,-0.0116 0.38336,-0.01 0.77475,0.0403 1.54847,0.0988 2.3201,0.17955 1.0593,0.10876 2.12084,0.18564 3.17918,0.29867 0.41102,0.0651 0.83012,0.0771 1.2334,0.18642 0.226,0.0729 0.43422,0.14224 0.66786,0.16213 0.20365,0.0617 0.38891,0.15424 0.54985,0.29628 0.19271,0.16847 0.39724,0.31994 0.50819,0.56014 0.0985,0.16521 0.18113,0.33606 0.30505,0.48479 0.13814,0.22421 0.34544,0.40575 0.40389,0.6732 0.23801,0.69031 0.42527,1.39 0.58197,2.10367 0.19201,0.956 0.47103,1.9014 0.49747,2.88297 0.0359,0.92306 -0.0491,1.84261 -0.13406,2.76157 -5.3e-4,0.0755 -0.0175,1.0472 -0.0231,1.05105 -1.65158,1.1408 -2.4722,1.83656 -4.01544,2.22678 -1.91605,0.43085 -3.88802,0.56623 -5.82962,0.8349 -5.35475,0.64756 -10.72058,1.22669 -16.11191,1.46564 -7.19378,0.25673 -14.391677,0.30007 -21.588761,0.13981 -2.381385,-0.0751 -3.944401,-0.0904 -6.290001,-0.28967 -2.988082,-0.25387 -5.953341,-0.76351 -8.845253,-1.55931 -2.131991,-0.59595 -4.24235,-1.26892 -6.391529,-1.80087 -0.599892,-0.12837 -1.172776,-0.31149 -1.691439,-0.65061 -0.548719,-0.3937 -1.035926,-0.86877 -1.446125,-1.4059 -0.603708,-0.8606 -1.040363,-1.81376 -1.344721,-2.82054 -0.318265,-0.97633 -0.704136,-1.94392 -0.809517,-2.97388 -0.07609,-0.59577 -0.06782,-1.20379 0.05619,-1.79364 0.260559,-0.85134 0.849304,-1.41851 1.596376,-1.88855 2.499871,-1.43741 4.943899,-2.93154 7.642233,-3.96647 0,0 -3.104906,2.43488 -3.104906,2.43488 z"
       inkscape:connector-curvature="0"
       style="stroke-width:0.26458332" />
    <path
       id="path32"
       d="m 75.010075,141.76427 c -1.660877,-0.25609 -3.340052,-0.36709 -5.012385,-0.52448 -1.50766,-0.19794 -3.019518,-0.35927 -4.537157,-0.45488 -0.623613,-0.0351 -1.248328,-0.05 -1.872854,-0.0406 0,0 3.22698,-2.34088 3.22698,-2.34088 v 0 c 0.615374,0.0189 1.230863,0.0417 1.844485,0.0939 1.502569,0.13035 2.999227,0.31501 4.496692,0.49334 1.692489,0.16191 3.387463,0.29398 5.077994,0.47584 0,0 -3.223755,2.29783 -3.223755,2.29783 z"
       inkscape:connector-curvature="0"
       style="stroke-width:0.26458332" />
  </g>
</svg>
