<?xml version="1.0" encoding="UTF-8" standalone="no"?>
<!-- Created with Inkscape (http://www.inkscape.org/) -->

<svg
   xmlns:dc="http://purl.org/dc/elements/1.1/"
   xmlns:cc="http://creativecommons.org/ns#"
   xmlns:rdf="http://www.w3.org/1999/02/22-rdf-syntax-ns#"
   xmlns:svg="http://www.w3.org/2000/svg"
   xmlns="http://www.w3.org/2000/svg"
   xmlns:sodipodi="http://sodipodi.sourceforge.net/DTD/sodipodi-0.dtd"
   xmlns:inkscape="http://www.inkscape.org/namespaces/inkscape"
   width="210mm"
   height="297mm"
   viewBox="0 0 210 297"
   version="1.1"
   id="svg8"
   inkscape:export-filename="/home/edward/Desktop/CAT125Project/resources/electricity.png"
   inkscape:export-xdpi="96"
   inkscape:export-ydpi="96"
   inkscape:version="0.92.4 (5da689c313, 2019-01-14)"
   sodipodi:docname="electricity.svg">
  <defs
     id="defs2" />
  <sodipodi:namedview
     id="base"
     pagecolor="#ffffff"
     bordercolor="#666666"
     borderopacity="1.0"
     inkscape:pageopacity="0.0"
     inkscape:pageshadow="2"
     inkscape:zoom="0.98994949"
     inkscape:cx="251.40518"
     inkscape:cy="819.09516"
     inkscape:document-units="mm"
     inkscape:current-layer="layer1"
     showgrid="false"
     inkscape:window-width="1850"
     inkscape:window-height="1016"
     inkscape:window-x="70"
     inkscape:window-y="27"
     inkscape:window-maximized="1" />
  <metadata
     id="metadata5">
    <rdf:RDF>
      <cc:Work
         rdf:about="">
        <dc:format>image/svg+xml</dc:format>
        <dc:type
           rdf:resource="http://purl.org/dc/dcmitype/StillImage" />
        <dc:title></dc:title>
      </cc:Work>
    </rdf:RDF>
  </metadata>
  <g
     inkscape:label="Layer 1"
     inkscape:groupmode="layer"
     id="layer1">
    <path
       id="path10"
       d="m 33.366913,56.627439 c 0.774163,-0.02885 1.566188,-0.09166 2.328426,-0.242271 0.843997,-0.05474 1.694537,-0.07156 2.536394,0.01423 1.375987,0.1402 2.747166,0.306141 4.12746,0.402164 2.11827,0.148812 4.239977,0.243715 6.359104,0.378582 2.702949,0.152968 5.396939,0.425246 8.097663,0.609848 2.944244,0.225036 5.893877,0.180086 8.842349,0.108755 2.885207,-0.103839 5.772978,-0.05889 8.656293,0.07337 2.98709,0.201491 5.976681,0.248875 8.967705,0.13525 2.970348,-0.113245 5.937573,-0.285084 8.906217,-0.432991 2.799619,-0.17136 5.596704,-0.380955 8.385816,-0.678786 2.85091,-0.353322 5.70316,-0.698468 8.56037,-0.997328 2.68672,-0.316056 5.37396,-0.628886 8.05984,-0.952471 2.4621,-0.283411 4.92025,-0.584494 7.39995,-0.638792 2.37191,-0.05171 4.73483,0.153271 7.0955,0.349668 2.425,0.245012 4.85714,0.230511 7.28975,0.172961 2.22206,0.01077 4.44335,0.07561 6.66522,0.104714 2.09595,0.06862 4.18878,-0.0097 6.28272,-0.09144 2.20807,-0.104124 4.39119,0.172215 6.57235,0.466796 2.32713,0.365485 4.6661,0.487265 7.01791,0.515126 2.58889,-0.03025 5.17001,-0.227338 7.75336,-0.377304 2.30051,-0.151509 4.60744,-0.135366 6.90932,-0.244491 1.97197,-0.105011 3.93815,-0.317288 5.89535,-0.577181 1.75559,-0.193915 3.505,-0.436298 5.26209,-0.617191 0.92976,-0.132619 1.81823,-0.183208 2.65384,-0.6366 -7.734,4.114458 -3.17928,2.256729 -2.61397,1.302065 0.004,-0.131099 0.0165,-0.07237 -0.0275,-0.178107 0,0 3.46551,-1.963373 3.46551,-1.963373 v 0 c 0.11944,0.240903 0.0783,0.118462 0.12949,0.365213 0.13501,1.693209 -4.98168,2.380183 -4.05144,2.937012 -0.85251,0.329822 -1.77474,0.362151 -2.67257,0.485762 -1.74125,0.167066 -3.47582,0.397153 -5.21368,0.59505 -1.96365,0.244925 -3.93307,0.470099 -5.91151,0.54805 -2.2883,0.08265 -4.58015,0.06925 -6.86618,0.220883 -2.58973,0.154815 -5.17897,0.339092 -7.77454,0.35928 -2.36883,-0.03233 -4.72435,-0.176451 -7.06894,-0.53516 -2.16763,-0.290975 -4.34086,-0.527796 -6.53314,-0.413498 -2.10019,0.08504 -4.19973,0.150066 -6.30183,0.07923 -2.21215,-0.0401 -4.42412,-0.107053 -6.63673,-0.108024 -2.43867,0.0466 -4.87634,0.0345 -7.30655,-0.208891 -2.3552,-0.188447 -4.7142,-0.372306 -7.07938,-0.310819 -2.46516,0.077 -4.91141,0.372203 -7.3603,0.652862 -2.68247,0.316275 -5.36506,0.632362 -8.04875,0.937741 -2.85544,0.302107 -5.70635,0.644245 -8.556234,0.994543 -2.792823,0.292872 -5.593294,0.503888 -8.397023,0.661011 -2.96499,0.146304 -5.928982,0.30865 -8.895702,0.418441 -3.00251,0.09493 -6.003009,0.04602 -9.001482,-0.147222 -2.876981,-0.122066 -5.757441,-0.16152 -8.635867,-0.05722 -2.956949,0.06294 -5.914861,0.08865 -8.867106,-0.133287 C 51.056889,59.78422 48.352,59.528339 45.638989,59.390033 43.501677,59.27603 41.363765,59.175596 39.22741,59.044255 c -1.39855,-0.09504 -2.790536,-0.253276 -4.187917,-0.362498 -0.829443,-0.04147 -1.666738,-0.04158 -2.491132,0.06931 -0.792932,0.10555 -1.591582,0.199144 -2.392087,0.209034 0,0 3.210639,-2.332664 3.210639,-2.332664 z"
       inkscape:connector-curvature="0"
       style="stroke-width:0.26458332" />
    <path
       id="path12"
       d="m 32.767301,74.861358 c 1.076484,-0.563962 2.243646,-0.876556 3.415647,-1.16705 1.462706,-0.357662 2.946529,-0.542534 4.446185,-0.645412 1.681623,-0.148973 3.359655,0.0021 5.033076,0.162965 1.846564,0.279516 3.699301,0.420074 5.56541,0.41085 1.917295,-0.0098 3.821753,0.133088 5.726028,0.337029 2.018448,0.319948 4.054623,0.466654 6.094452,0.552683 2.21647,0.04263 4.421962,-0.188785 6.625106,-0.3938 2.318403,-0.240877 4.644247,-0.378736 6.968079,-0.550585 2.310612,-0.161899 4.615887,-0.395685 6.917219,-0.65722 2.245876,-0.286933 4.501827,-0.390178 6.763502,-0.354311 2.040977,0.08899 4.07212,0.319661 6.089022,0.638254 2.122369,0.3516 4.257143,0.606526 6.396983,0.82346 2.63854,0.237051 5.24681,0.680408 7.84007,1.209868 2.99705,0.771689 6.03162,1.344335 9.08487,1.837465 3.33902,0.502428 6.71794,0.630643 10.08592,0.799844 3.44721,0.123991 6.88844,0.364744 10.33316,0.538353 3.25923,0.119901 6.51968,-0.0094 9.76641,-0.296667 2.91,-0.247113 5.80912,-0.602985 8.71949,-0.845286 2.61596,-0.184427 5.23827,-0.227065 7.85749,-0.346424 2.70454,-0.130855 5.38294,-0.547026 8.04989,-0.994055 2.55047,-0.463839 5.09234,-0.972082 7.63972,-1.453153 2.37145,-0.465471 4.73923,-0.944504 7.12737,-1.317781 1.86272,-0.289578 3.719,-0.624554 5.59155,-0.845807 0.98959,-0.108714 1.98393,-0.153178 2.97859,-0.177379 0.26267,-0.0083 0.52536,-0.009 0.78809,-0.0068 0.12512,0.09998 0.19189,0.208393 0.26062,0.349139 0,0 -3.48204,1.955982 -3.48204,1.955982 v 0 c -0.005,0.01304 -0.0166,0.02529 -0.0147,0.03912 -0.24834,-0.0049 -0.49671,-0.01027 -0.74513,-0.0091 -0.96635,0.0093 -1.93247,0.05813 -2.8934,0.163465 -1.84748,0.218345 -3.68214,0.530125 -5.52069,0.811705 -2.38281,0.382172 -4.74697,0.859954 -7.11514,1.322469 -2.53812,0.477457 -5.07268,0.973844 -7.61561,1.42475 -2.68374,0.441957 -5.37825,0.852239 -8.09911,0.974333 -2.60987,0.114837 -5.22368,0.142992 -7.82923,0.34398 -2.9015,0.246954 -5.79395,0.588166 -8.69615,0.828201 -3.24928,0.261922 -6.51086,0.377606 -9.76986,0.236734 -3.44595,-0.18205 -6.88976,-0.406951 -10.33846,-0.534348 -3.37905,-0.175974 -6.76836,-0.310591 -10.11721,-0.827106 -3.06615,-0.493964 -6.10985,-1.082344 -9.12637,-1.826122 -2.59908,-0.516229 -5.21564,-0.9324 -7.858416,-1.151808 -2.149962,-0.217953 -4.294484,-0.475081 -6.427304,-0.825982 -2.004149,-0.298749 -4.020579,-0.529494 -6.04685,-0.603006 -2.248951,-0.02291 -4.491805,0.102835 -6.724455,0.384754 -2.30375,0.257326 -4.611203,0.488754 -6.924344,0.64353 -2.324624,0.163717 -4.648351,0.327941 -6.967479,0.560457 -2.216179,0.21118 -4.438155,0.425619 -6.667645,0.35978 -2.04859,-0.09452 -4.092091,-0.254267 -6.121064,-0.562245 -1.899089,-0.19677 -3.800309,-0.30626 -5.710767,-0.298349 -1.874724,-0.0088 -3.733228,-0.192694 -5.59159,-0.435777 -1.665883,-0.148264 -3.336827,-0.25994 -5.007679,-0.101468 -1.492234,0.12346 -2.968839,0.342207 -4.422002,0.711738 -1.180997,0.310078 -2.353043,0.673271 -3.411697,1.298379 0,0 3.080494,-2.492264 3.080494,-2.492264 z"
       inkscape:connector-curvature="0"
       style="stroke-width:0.26458332" />
    <path
       id="path22"
       d="m 43.340101,63.091726 c -0.243813,0.23949 -0.628975,0.423817 -0.760028,0.761606 -0.01871,0.04825 0.103438,-0.0045 0.154979,-0.0092 0.948873,-0.0074 1.892065,-0.131054 2.844631,-0.116999 1.63735,-0.01831 3.232332,0.349221 4.818412,0.706623 0.699468,0.06665 1.414608,0.428519 2.129181,0.36337 0.08347,-0.0076 0.161245,-0.04581 0.241866,-0.06872 -1.09937,0.603536 -2.198737,1.207071 -3.298108,1.810604 0.03431,-0.01005 0.08721,0.0019 0.102918,-0.03013 0.130514,-0.26684 -0.198284,-0.980369 -0.292505,-1.230855 0,0 3.44156,-1.913953 3.44156,-1.913953 v 0 c 0.215746,0.562731 0.456803,1.12309 0.457263,1.737563 -1.196602,0.663869 -2.372037,1.367407 -3.5898,1.991606 -0.0725,0.03716 -0.616852,-0.06329 -0.638109,-0.06738 -0.581163,-0.111577 -1.154515,-0.263861 -1.732394,-0.390205 -1.572201,-0.362825 -3.160241,-0.677989 -4.784061,-0.620916 -0.989255,0.02917 -2.042271,0.248695 -3.003497,0.03028 -0.09104,-0.06255 -0.198199,-0.106487 -0.273124,-0.187645 -0.453398,-0.491115 0.138663,-0.992569 0.505063,-1.282018 0,0 3.675753,-1.483651 3.675753,-1.483651 z"
       inkscape:connector-curvature="0"
       style="stroke-width:0.26458332" />
    <path
       id="path24"
       d="m 64.158695,63.790874 c 0.841849,0.628626 1.583436,1.37469 2.388701,2.047806 0.666282,0.623816 1.454131,0.987883 2.340803,1.153351 0.700918,0.04337 1.366226,-0.144 2.040776,-0.295963 0.423058,-0.09365 0.85693,-0.119623 1.288079,-0.147984 0,0 -3.177521,2.347746 -3.177521,2.347746 v 0 c -0.421807,0.04017 -0.842696,0.08984 -1.254943,0.191902 -0.701177,0.154752 -1.416206,0.283115 -2.133462,0.149064 -0.915326,-0.237057 -1.723668,-0.678091 -2.418895,-1.327444 -0.785945,-0.667012 -1.511237,-1.419937 -2.395749,-1.958906 0,0 3.322211,-2.159572 3.322211,-2.159572 z"
       inkscape:connector-curvature="0"
       style="stroke-width:0.26458332" />
    <path
       id="path26"
       d="m 81.757577,66.466404 c 1.054285,-0.07713 2.110433,-0.180237 3.167761,-0.134395 0.920049,0.05828 1.830941,0.208722 2.743634,0.03275 0.355809,-0.120433 0.407524,-0.120484 0.736835,-0.300898 0.114216,-0.06257 0.446167,-0.268724 0.332481,-0.205195 -4.894148,2.734877 -3.533682,2.23279 -2.428504,1.167675 0,0 3.634181,-1.506458 3.634181,-1.506458 v 0 c -1.457256,1.527085 -3.383012,2.683984 -5.424424,3.201022 -0.923803,0.08495 -1.840523,-0.05794 -2.764255,-0.09788 -1.061045,-0.0067 -2.122567,0.07071 -3.174169,0.212125 0,0 3.17646,-2.368741 3.17646,-2.368741 z"
       inkscape:connector-curvature="0"
       style="stroke-width:0.26458332" />
    <path
       id="path28"
       d="m 101.50377,65.125557 c 0.93559,-0.133144 1.87009,-0.09518 2.80898,-0.03914 1.0212,0.142769 1.98671,-0.028 2.95833,-0.333581 0.90074,-0.314349 1.74191,-0.768787 2.60136,-1.177645 0.23365,-0.109474 0.46596,-0.221954 0.70172,-0.326853 0,0 -3.13302,2.484662 -3.13302,2.484662 v 0 c -0.21913,0.09924 -0.43827,0.198507 -0.65586,0.301104 -0.85436,0.403847 -1.7011,0.835721 -2.61095,1.10445 -1.00607,0.265507 -2.00865,0.364562 -3.04695,0.23549 -0.93748,-0.04731 -1.873592,-0.04591 -2.800502,0.129254 0,0 3.176892,-2.377741 3.176892,-2.377741 z"
       inkscape:connector-curvature="0"
       style="stroke-width:0.26458332" />
    <path
       id="path30"
       d="m 118.90938,65.769587 c 0.81192,0.05285 1.55238,0.270706 2.2641,0.658408 0.68851,0.42886 1.27118,1.040484 2.02526,1.363115 0.15485,0.06625 0.32047,0.103756 0.4807,0.155633 1.26718,0.326379 2.49113,-0.124458 3.66572,-0.574847 0.97386,-0.377579 1.8882,-0.892898 2.88459,-1.210379 0.376,-0.114578 0.76781,-0.192024 1.16141,-0.207783 0.0841,-0.0049 0.12905,0.01 0.17922,0.07473 0,0 -3.33154,2.228675 -3.33154,2.228675 v 0 c 0.0425,0.06827 0.009,0.06074 -0.0594,0.07149 -0.36119,0.04913 -0.7167,0.129918 -1.0601,0.254281 -0.96063,0.357026 -1.8726,0.832249 -2.83674,1.182081 -1.25121,0.433679 -2.53848,0.797846 -3.84777,0.369721 -0.93927,-0.379585 -1.71316,-0.993852 -2.55421,-1.546244 -0.70117,-0.340696 -1.43688,-0.485939 -2.21434,-0.532243 0,0 3.24308,-2.286638 3.24308,-2.286638 z"
       inkscape:connector-curvature="0"
       style="stroke-width:0.26458332" />
    <path
       id="path32"
       d="m 143.52637,65.075627 c 0.72946,0.375481 1.45754,0.760389 2.24879,0.987256 0.98001,0.182229 1.98133,0.207394 2.97321,0.299151 1.07491,0.09974 2.15389,0.138338 3.23284,0.156416 0.45827,0.05576 0.91636,0.13099 1.36131,0.256128 0.1228,0.01167 0.21515,0.194175 0.13539,0.0081 0.0119,-0.0016 0.0238,-0.0031 0.0357,-0.0047 0,0 -3.24041,2.347958 -3.24041,2.347958 v 0 c -0.0154,-0.0019 -0.0307,-0.0038 -0.0461,-0.0058 -0.18593,-0.19377 0.007,-0.0176 -0.17664,-0.08741 -0.41019,-0.112149 -0.83038,-0.188413 -1.25548,-0.212299 -1.07566,-0.03914 -2.15096,-0.09482 -3.22299,-0.19358 -1.0191,-0.08748 -2.05843,-0.08083 -3.05152,-0.348681 -0.79137,-0.273473 -1.52238,-0.680299 -2.29359,-1.003774 0,0 3.29946,-2.198819 3.29946,-2.198819 z"
       inkscape:connector-curvature="0"
       style="stroke-width:0.26458332" />
    <path
       id="path34"
       d="m 163.75217,62.704477 c 0.0758,0.5912 0.11773,1.186418 0.26899,1.764093 0.0932,0.475226 0.40736,0.655873 0.84189,0.797277 0.97496,0.22997 1.97082,0.127217 2.95827,0.07171 1.38035,-0.05275 2.75388,-0.198131 4.13196,-0.289635 1.12121,-0.116223 2.2312,-0.315161 3.3605,-0.262056 0.47473,-0.02357 0.88452,0.168923 1.31877,0.320826 0.14849,0.05095 0.0747,0.03343 0.22065,0.05508 0,0 -3.28523,2.259626 -3.28523,2.259626 v 0 c -0.16341,-0.059 -0.0846,-0.02951 -0.23644,-0.08811 -0.39466,-0.149336 -0.78681,-0.25109 -1.21516,-0.242226 -1.10114,-0.02815 -2.18806,0.181753 -3.28425,0.257119 -1.38404,0.09668 -2.76423,0.243525 -4.15108,0.298299 -1.03696,0.05967 -2.09454,0.136568 -3.10181,-0.178548 -0.50666,-0.230151 -0.9305,-0.530482 -1.04313,-1.109464 -0.15592,-0.592982 -0.19156,-1.198708 -0.29367,-1.802498 0,0 3.50974,-1.851493 3.50974,-1.851493 z"
       inkscape:connector-curvature="0"
       style="stroke-width:0.26458332" />
    <path
       id="path36"
       d="m 186.27471,65.716303 c 1.05097,0.06642 2.09471,-0.02925 3.14041,-0.118883 0.92029,-0.07835 1.84318,-0.114739 2.7663,-0.136771 0.4239,-0.0374 0.81497,-0.01614 1.20362,0.160123 0,0 -3.30819,2.224069 -3.30819,2.224069 v 0 c -0.35143,-0.100827 -0.71727,-0.06132 -1.07863,-0.0605 -0.91049,0.01926 -1.8205,0.05854 -2.72795,0.138041 -1.06617,0.08587 -2.13164,0.129284 -3.20152,0.123185 0,0 3.20596,-2.329267 3.20596,-2.329267 z"
       inkscape:connector-curvature="0"
       style="stroke-width:0.26458332" />
    <path
       id="path38"
       d="m 189.50624,61.096561 c -1.02509,-0.0035 -2.02986,-0.146177 -3.05414,-0.06068 -0.19482,0.0336 -0.39421,0.04704 -0.58445,0.100796 -0.62698,0.177183 -1.45612,0.729469 -1.16499,0.574132 0.91262,-0.48696 1.77537,-1.074443 2.72465,-1.485397 0.24721,-0.107016 -0.40372,0.358431 -0.58393,0.558652 -0.19416,0.215739 -0.35751,0.457332 -0.53627,0.685998 -0.94759,1.425237 -1.19882,2.922487 -1.02614,4.594784 0.23676,1.378714 1.16519,2.311384 2.19406,3.170523 1.17675,0.827741 2.54865,1.461839 4.02628,1.321549 0.33026,-0.03135 0.65012,-0.132504 0.97518,-0.198758 0.31223,-0.149434 1.24242,-0.610661 0.9367,-0.448307 -0.78285,0.415742 -1.5005,1.029589 -2.36861,1.208733 -0.39213,0.08092 0.57059,-0.566058 0.80989,-0.887074 0.90775,-1.217761 1.24094,-2.426899 1.62533,-3.863197 0.27526,-1.844964 0.59866,-4.473803 -0.15933,-6.25247 -0.0885,-0.207682 -0.24197,-0.381198 -0.36296,-0.571799 -0.14851,-0.07537 -0.2802,-0.205988 -0.44552,-0.226107 -0.5173,-0.06295 -1.46617,0.636857 -1.16806,0.495834 0.84781,-0.401063 1.59622,-1.053618 2.50705,-1.277265 0.3855,-0.09466 -0.55965,0.563853 -0.82042,0.863129 -0.28572,0.327919 -0.5451,0.677894 -0.81765,1.016841 -1.162,1.537732 -1.982,3.293571 -3.06244,4.883619 -1.12869,1.211368 -0.11237,0.170815 -3.85777,2.039241 0,0 3.25771,-2.277189 3.25771,-2.277189 v 0 c -3.37155,1.943891 -4.46746,2.338694 -3.00268,1.787713 1.26863,-1.503426 2.01407,-3.379529 3.19653,-4.947351 0.14223,-0.186222 1.31717,-1.762729 1.55816,-1.935549 1.30273,-0.934233 2.68647,-1.752031 4.06762,-2.565868 0.7962,-0.469162 1.28931,-0.374317 1.94343,0.200686 0.1259,0.226819 0.28451,0.438354 0.37769,0.680461 0.72402,1.881163 0.40522,4.529476 0.16135,6.471623 -0.35011,1.464853 -0.66508,2.719126 -1.50828,3.999783 -1.33311,2.024721 -3.69886,3.094178 -5.92431,3.904231 -0.34358,0.04651 -0.68424,0.127051 -1.03073,0.139542 -1.54514,0.05571 -2.97498,-0.634151 -4.20175,-1.507588 -1.10321,-0.928823 -2.07223,-1.953422 -2.34363,-3.426405 -0.19886,-1.738741 0.0158,-3.338404 0.92902,-4.866227 1.4735,-2.132848 1.85331,-1.883256 4.95599,-3.718703 0.57419,-0.33968 1.20533,-0.51077 1.86682,-0.55636 1.04126,-0.04294 2.07459,0.09605 3.11656,0.04516 0,0 -3.20596,2.329267 -3.20596,2.329267 z"
       inkscape:connector-curvature="0"
       style="stroke-width:0.26458332" />
    <path
       id="path40"
       d="m 169.72798,61.027576 c -0.61413,-0.786677 -1.39365,-1.439021 -2.23729,-1.965703 -0.40353,-0.201237 -0.83524,-0.447998 -1.30283,-0.451924 -0.13669,-0.0011 -0.27704,0.01527 -0.40529,0.0626 -0.13645,0.05035 -0.50171,0.294315 -0.37389,0.224914 0.9827,-0.533577 1.95925,-1.078412 2.93887,-1.61762 -1.37802,1.376122 -2.31192,3.137974 -3.28176,4.810591 -0.69468,1.392798 -1.65012,2.746269 -1.91318,4.313327 -0.0329,0.196009 -0.0346,0.395997 -0.0518,0.593995 0.0309,0.176617 0.0347,0.360191 0.0927,0.529849 0.41177,1.204661 1.84051,1.636041 2.91501,1.962171 1.98971,0.341546 4.02475,-0.0051 5.82929,-0.909407 0.36882,-0.184832 0.7095,-0.421161 1.06425,-0.631743 -0.76894,0.396473 -1.47337,0.957429 -2.30682,1.189419 -0.35128,0.09778 0.54262,-0.489887 0.78197,-0.764977 0.94027,-1.080677 1.27089,-2.050235 1.50601,-3.425079 0.0857,-1.06028 -0.13206,-2.265299 -1.21928,-2.732333 -0.19215,-0.08254 -0.40045,-0.120703 -0.60068,-0.181055 -0.73652,-0.139454 -1.48067,-0.05151 -2.21974,0.0042 0,0 3.11225,-2.291675 3.11225,-2.291675 v 0 c 0.78048,-0.04122 1.56167,-0.102365 2.32738,0.108067 0.22094,0.08525 0.45388,0.144272 0.66282,0.25574 1.15623,0.616834 1.47165,1.931305 1.39558,3.142822 -0.0435,0.297114 -0.065,0.598265 -0.13039,0.891344 -0.24949,1.11878 -1.1303,2.925815 -2.08702,3.588004 -1.34517,0.931055 -2.77714,1.729981 -4.16572,2.594972 -0.36392,0.195916 -0.71557,0.416595 -1.09177,0.587748 -1.89116,0.860375 -3.98833,1.143749 -6.0259,0.731256 -1.23638,-0.401362 -2.69503,-0.933246 -3.18939,-2.280531 -0.0735,-0.200232 -0.0897,-0.417036 -0.13453,-0.625555 0.0133,-0.218395 0.008,-0.438721 0.0398,-0.655182 0.23905,-1.623539 1.23372,-3.013959 1.94407,-4.451556 0.95596,-1.681062 1.89291,-3.396737 3.11245,-4.90429 1.26015,-0.754521 2.5,-1.544043 3.78045,-2.263561 0.73351,-0.412176 1.65978,0.14224 2.28717,0.482473 0.86362,0.576945 1.65946,1.256453 2.34573,2.038342 0,0 -3.39841,2.040398 -3.39841,2.040398 z"
       inkscape:connector-curvature="0"
       style="stroke-width:0.26458332" />
    <path
       id="path42"
       d="m 148.62119,63.481452 c -0.54741,-0.568738 -1.26558,-0.800777 -2.02001,-0.941758 -1.21533,-0.217329 -2.41353,0.02204 -3.60077,0.27881 -0.26908,0.07681 -0.54292,0.138575 -0.80724,0.230436 -0.28331,0.09846 -0.56178,0.212074 -0.83321,0.339685 -0.28785,0.135335 -1.1194,0.60461 -0.84247,0.448133 4.30443,-2.432224 2.61555,-1.649193 1.70351,-0.711213 -0.22954,0.236064 -0.41528,0.511072 -0.62292,0.766606 -0.15241,0.295344 -0.33774,0.575903 -0.45723,0.886029 -0.49256,1.278464 -0.417,2.725362 0.23212,3.933063 0.15236,0.28348 0.36566,0.529717 0.54849,0.794576 0.76905,0.792339 1.77379,1.386152 2.91619,1.069197 0.25536,-0.07085 0.95762,-0.452189 0.72719,-0.32131 -0.84516,0.480041 -1.71596,0.913487 -2.57393,1.370229 1.78503,-1.580647 3.07103,-3.635772 4.30752,-5.652698 0.45002,-0.769141 0.9233,-1.52993 1.30182,-2.338475 0.10031,-0.214278 0.26659,-0.56886 0.27423,-0.83339 0.002,-0.07683 -0.0345,-0.149812 -0.0518,-0.224721 -0.0568,-0.063 -0.10317,-0.137353 -0.1705,-0.188995 -0.16901,-0.129643 -0.49989,-0.247097 -0.67998,-0.320225 -0.46895,-0.190429 -0.93655,-0.379595 -1.41205,-0.553093 -0.57464,-0.18053 -0.29231,-0.100266 -0.84634,-0.243059 0,0 3.24369,-2.223641 3.24369,-2.223641 v 0 c 0.55826,0.169492 0.27395,0.07705 0.85238,0.279035 0.63875,0.2451 1.74284,0.561324 2.22899,1.031111 0.0998,0.09642 0.16983,0.219485 0.25475,0.329228 0.0395,0.127659 0.10837,0.24973 0.11844,0.382974 0.0655,0.867622 -1.26746,2.614054 -1.6457,3.36944 -1.23556,2.031016 -2.52353,4.073072 -4.19867,5.774177 -0.1329,0.07946 -3.32686,2.441958 -4.84994,2.653027 -1.25102,0.173368 -2.29222,-0.552926 -3.09711,-1.421165 -0.19275,-0.289038 -0.41486,-0.560527 -0.57826,-0.867116 -0.88393,-1.658435 -0.8043,-3.523477 0.0393,-5.172726 0.19895,-0.276262 0.37466,-0.570849 0.59685,-0.828788 1.24251,-1.442403 3.3663,-2.296081 4.83216,-3.135429 0.79892,-0.457454 1.68026,-0.750512 2.57253,-0.958914 1.23975,-0.248428 2.48842,-0.450305 3.74568,-0.182938 0.81479,0.197173 1.5641,0.518012 2.17565,1.110541 0,0 -3.38341,2.073357 -3.38341,2.073357 z"
       inkscape:connector-curvature="0"
       style="stroke-width:0.26458332" />
    <path
       id="path44"
       d="m 128.44754,63.498353 c 0.36159,-0.71488 0.50882,-1.096226 -0.0726,-1.709634 -1.13144,-0.726855 -2.48106,-0.56932 -3.73244,-0.322029 -0.29045,0.08967 -0.58614,0.163853 -0.87133,0.269028 -0.30569,0.112736 -0.60602,0.241154 -0.89894,0.383823 -0.30815,0.150085 -1.20239,0.658802 -0.90217,0.493408 0.79849,-0.439904 1.56243,-0.950071 2.39701,-1.31694 0.32335,-0.142139 -0.57264,0.414227 -0.84766,0.635866 -0.2604,0.209857 -0.50506,0.438533 -0.75759,0.657799 -1.12699,0.98589 -2.02424,2.180606 -2.72486,3.496791 -0.44383,0.955503 -0.66736,2.028127 -0.34938,3.062833 0.0724,0.235418 0.19475,0.452432 0.29213,0.678651 0.16432,0.205999 0.30239,0.436017 0.49297,0.618 1.01578,0.969957 2.43795,1.159013 3.77753,0.956112 0.43297,-0.06558 0.85232,-0.201499 1.27849,-0.30225 -0.70648,0.58696 3.31391,-1.582375 2.47794,-1.202719 -0.72031,0.327131 -1.33318,0.923309 -2.10529,1.095714 -0.40348,0.09009 0.63376,-0.533382 0.92053,-0.831167 0.64209,-0.666769 0.7673,-0.951643 1.23904,-1.710643 0.48474,-1.049819 0.69313,-2.254628 -0.0636,-3.233483 -0.12128,-0.156888 -0.2724,-0.288256 -0.4086,-0.432385 -1.05781,-0.780883 -2.37436,-1.017878 -3.64883,-1.191569 0,0 3.1853,-2.241381 3.1853,-2.241381 v 0 c 1.34268,0.226541 2.71958,0.517522 3.79278,1.411674 0.14899,0.16569 0.31422,0.318103 0.44697,0.497064 0.81977,1.105123 0.70657,2.429891 0.19326,3.640929 -0.46442,0.79325 -0.60417,1.118185 -1.23787,1.824196 -1.49492,1.665507 -3.06838,2.244762 -5.23874,3.528335 -0.40199,0.237739 -0.81371,0.461868 -1.24113,0.650068 -0.42551,0.187357 -0.87452,0.316011 -1.31178,0.474015 -0.44503,0.08738 -0.88428,0.212661 -1.3351,0.262128 -1.46349,0.160573 -2.95769,-0.157451 -4.03249,-1.216994 -0.21108,-0.208081 -0.36773,-0.464949 -0.5516,-0.697423 -0.11324,-0.249084 -0.25179,-0.488146 -0.33971,-0.747252 -0.3705,-1.091901 -0.2186,-2.243627 0.20943,-3.288948 0.69172,-1.371653 1.59378,-2.623283 2.73916,-3.657203 1.9746,-1.790594 2.88904,-2.168205 5.73135,-3.812913 0.8611,-0.498279 1.79757,-0.852916 2.76719,-1.069097 1.37836,-0.210211 2.85639,-0.303434 4.02616,0.594752 0.64381,0.724961 0.70348,1.221033 0.32175,2.116283 0,0 -3.61726,1.636561 -3.61726,1.636561 z"
       inkscape:connector-curvature="0"
       style="stroke-width:0.26458332" />
    <path
       id="path46"
       d="m 101.55978,59.59908 c -1.08981,-0.425233 -2.262045,-0.549727 -3.422248,-0.512143 -0.645375,0.108469 -0.940748,0.123031 -1.555475,0.36803 -0.251905,0.100399 -0.964959,0.494768 -0.728798,0.361492 0.860523,-0.485621 1.691228,-1.037208 2.602601,-1.418947 0.270502,-0.113302 -0.449575,0.379781 -0.644594,0.598816 -0.198916,0.223414 -0.354679,0.481796 -0.532022,0.722693 -0.72309,1.363806 -0.921091,2.96158 -0.34414,4.423183 0.104494,0.264718 0.261392,0.505624 0.392091,0.758436 1.351042,1.728867 2.952215,2.13777 5.036675,2.428041 0.39297,0.0039 0.78667,0.03583 1.17892,0.01177 0.87253,-0.05352 1.64161,-0.211071 2.46228,-0.51757 0.40676,-0.151913 1.55161,-0.774467 1.18338,-0.544393 -0.68595,0.428588 -1.35143,0.965687 -2.1407,1.142534 -0.43204,0.09681 0.6604,-0.589891 0.9906,-0.884838 1.47213,-1.608233 2.26868,-3.628242 2.1338,-5.820153 -0.023,-0.374626 -0.1017,-0.743752 -0.15254,-1.115626 -0.30091,-1.094597 -0.79023,-2.279529 -1.93328,-2.731265 -0.55318,-0.218617 -0.8207,-0.137761 -1.39683,-0.102949 -0.2413,0.05282 -0.4826,0.105643 -0.7239,0.158464 0,0 3.09242,-2.330622 3.09242,-2.330622 v 0 c 0.25496,-0.03502 0.50992,-0.07004 0.76488,-0.105058 0.6664,0.03522 0.90551,-0.02183 1.51888,0.28829 1.18107,0.597164 1.71791,1.843693 2.03975,3.050818 0.0558,0.38949 0.13925,0.776007 0.16728,1.168466 0.16147,2.260026 -0.56673,4.385765 -2.02542,6.109258 -2.04118,2.006285 -1.01194,1.145275 -5.29299,3.513264 -1.50936,0.834875 -3.28937,1.014606 -4.976218,0.898724 -0.381508,-0.06156 -0.76712,-0.101592 -1.144524,-0.184674 -1.637194,-0.360421 -3.135733,-1.14282 -4.124405,-2.5249 -0.140366,-0.275138 -0.306689,-0.538509 -0.421097,-0.825413 -0.615223,-1.54282 -0.482299,-3.23438 0.191833,-4.727278 0.166762,-0.262062 0.310955,-0.53993 0.50028,-0.786186 1.133176,-1.473909 3.133966,-2.209858 4.621154,-3.052662 0.72372,-0.410139 1.576947,-0.52814 2.388017,-0.607774 1.22264,0.0105 2.44393,0.149682 3.59381,0.591357 0,0 -3.29947,2.198819 -3.29947,2.198819 z"
       inkscape:connector-curvature="0"
       style="stroke-width:0.26458332" />
    <path
       id="path48"
       d="m 82.823427,63.98498 c -0.601514,-0.04725 -1.181616,0.05088 -1.741527,0.276757 -0.243562,0.09826 -0.934558,0.478213 -0.709025,0.343633 3.576447,-2.134153 3.091855,-1.830104 1.750354,-0.870392 -1.19466,1.069433 -2.467573,2.18635 -3.27356,3.598484 -0.122486,0.214607 -0.211193,0.4468 -0.316788,0.670201 -0.04907,0.217373 -0.134269,0.429656 -0.147204,0.652123 -0.05788,0.995545 0.83003,1.686074 1.653397,2.031598 0.296968,0.124622 0.615008,0.191439 0.922512,0.28716 1.625148,0.286703 3.240027,0.05027 4.759518,-0.580358 0.406072,-0.168529 1.560828,-0.808514 1.181666,-0.585949 -0.698867,0.410237 -1.428059,0.76648 -2.14209,1.149718 1.455272,-1.08939 2.794479,-2.472158 3.397766,-4.227592 0.09079,-0.264178 0.137853,-0.541414 0.20678,-0.81212 0.102327,-0.830828 -0.0091,-1.915551 -0.990674,-2.144855 -0.140732,-0.03287 -0.288018,-0.02431 -0.432025,-0.03647 -0.682594,0.01561 -0.338963,-7.94e-4 -1.030854,0.04982 0,0 3.153772,-2.31602 3.153772,-2.31602 v 0 c 0.723861,-0.02154 0.359953,-0.02661 1.091708,0.0164 0.165656,0.04318 0.33891,0.06378 0.496967,0.12954 1.066663,0.443773 1.28523,1.601634 1.183839,2.633949 -0.06579,0.290798 -0.108982,0.587652 -0.197382,0.872394 -0.56692,1.826099 -1.898076,3.296375 -3.364108,4.463672 -2.979817,1.771565 -5.709672,3.96172 -9.336855,3.707437 -0.384863,-0.02698 -0.763291,-0.113012 -1.144937,-0.169516 -0.326924,-0.113737 -0.666062,-0.19708 -0.980773,-0.341209 -0.967089,-0.4429 -1.912274,-1.282486 -1.91893,-2.43127 -0.0013,-0.249192 0.07907,-0.492083 0.11861,-0.738124 0.103573,-0.243631 0.187502,-0.49658 0.310716,-0.73089 0.769691,-1.463688 2.073023,-2.596071 3.23806,-3.731765 1.89619,-1.493978 0.967097,-0.821966 4.838954,-2.945736 0.807146,-0.44273 1.744385,-0.562962 2.648675,-0.510728 0,0 -3.226562,2.290117 -3.226562,2.290117 z"
       inkscape:connector-curvature="0"
       style="stroke-width:0.26458332" />
    <path
       id="path50"
       d="m 66.625607,63.611352 c -0.874168,0.134387 -1.709195,-0.188045 -2.549112,-0.377151 -1.251337,-0.185512 -2.152386,0.04964 -3.320968,0.461532 -0.220083,0.09541 -0.44173,0.187285 -0.66025,0.286218 -0.224231,0.101515 -0.448881,0.202615 -0.66784,0.315053 -0.220419,0.113186 -0.864383,0.484901 -0.649554,0.361436 0.904076,-0.519586 1.79575,-1.061982 2.717339,-1.549826 0.198144,-0.104886 -0.370774,0.253527 -0.541962,0.398288 -0.158469,0.134009 -0.296354,0.290616 -0.444529,0.435925 -0.695804,0.863865 -0.91245,1.970349 -0.430525,3.003706 0.114263,0.245007 0.285846,0.458944 0.428766,0.688417 0.223308,0.198456 0.421039,0.43012 0.669927,0.595365 1.396807,0.927386 3.241374,0.867164 4.809406,0.524322 0.512572,-0.112069 1.007874,-0.292139 1.511813,-0.43821 -0.932826,0.581128 3.759636,-1.731055 2.769851,-1.419932 -0.73371,0.230632 -1.304425,0.930328 -2.067859,1.023546 -0.414689,0.05063 0.619673,-0.563536 0.892387,-0.880017 0.630314,-0.731475 0.659612,-0.943639 1.043543,-1.783895 0.283655,-0.931638 0.475377,-2.249183 -0.490802,-2.882117 -0.122108,-0.07999 -0.268465,-0.114734 -0.402698,-0.172101 -0.151421,-0.03067 -0.302845,-0.06135 -0.454266,-0.09202 0,0 3.229647,-2.220701 3.229647,-2.220701 v 0 c 0.16774,0.05411 0.335484,0.10822 0.503224,0.162333 0.154244,0.09215 0.323189,0.163264 0.46273,0.276447 1.010587,0.819716 0.951698,2.200148 0.629745,3.331626 -0.131921,0.321246 -0.23209,0.657449 -0.395766,0.963739 -1.244166,2.328225 -3.647885,3.276642 -5.850467,4.621898 -1.330703,0.812741 -1.355873,0.750818 -2.819987,1.338588 -0.518779,0.13553 -1.029491,0.30693 -1.556337,0.40659 -1.692603,0.320178 -3.611372,0.288494 -5.075958,-0.738484 -0.273211,-0.191577 -0.491868,-0.451053 -0.737803,-0.676582 -0.163,-0.254084 -0.354844,-0.491826 -0.488995,-0.762254 -0.551207,-1.111146 -0.44259,-2.348073 0.22752,-3.369548 1.370973,-1.568765 2.813857,-2.033214 4.880473,-3.213745 0.64563,-0.368811 1.336286,-0.653299 2.028877,-0.919263 1.137108,-0.360008 2.288662,-0.566404 3.476176,-0.310314 0.814326,0.189087 1.636275,0.455686 2.467456,0.191013 0,0 -3.143202,2.420115 -3.143202,2.420115 z"
       inkscape:connector-curvature="0"
       style="stroke-width:0.26458332" />
    <path
       id="path52"
       d="m 48.6552,62.967449 c -1.264886,0.01204 -2.520979,-0.137563 -3.775314,-0.28107 -1.477192,-0.265589 -2.951199,-0.447892 -4.451519,-0.365318 -0.266258,0.04607 -0.536892,0.07164 -0.798779,0.138208 -0.536168,0.136289 -1.097032,0.377319 -1.585005,0.633513 -0.252492,0.132564 -0.988955,0.568203 -0.737881,0.432972 2.712572,-1.461016 3.433773,-2.114624 2.044123,-0.970442 -0.371604,0.416936 -1.080079,1.08462 -0.784627,1.736892 0.172985,0.381902 0.54515,0.580668 0.86029,0.819163 2.57655,1.515531 5.444937,2.467491 8.30798,3.278958 1.383422,0.340079 2.808769,0.712324 4.249566,0.563237 0.338103,-0.03499 0.680082,-0.09323 0.996013,-0.218626 0.273407,-0.108521 1.016227,-0.587089 0.745289,-0.47254 -0.933614,0.394727 -1.827459,0.877596 -2.741189,1.316392 0.106251,-0.260345 0.25445,-0.507299 0.318756,-0.781039 0.35315,-1.50326 -0.19192,-3.196373 -0.839676,-4.537144 -0.187727,-0.388573 -0.420865,-0.75352 -0.631298,-1.130282 -0.931564,-1.276064 -2.193846,-2.975319 -3.968287,-2.973631 -0.225788,2.15e-4 -0.445776,0.07216 -0.668661,0.108236 0,0 3.122253,-2.308778 3.122253,-2.308778 v 0 c 0.239506,-0.0029 0.48105,-0.03988 0.718524,-0.0086 1.827519,0.240784 3.079308,1.920391 4.064931,3.302164 0.986345,1.773989 1.98733,3.808945 1.686123,5.914044 -0.04436,0.310062 -0.168621,0.603318 -0.252933,0.904978 -1.269283,0.869307 -2.51451,1.774822 -3.807849,2.607921 -0.245975,0.158443 -0.51824,0.282855 -0.800357,0.360431 -1.725914,0.474583 -3.573534,-0.181517 -5.237956,-0.561009 -2.923842,-0.853535 -5.866839,-1.80276 -8.532934,-3.299002 -0.454086,-0.348374 -0.7922,-0.512017 -1.049184,-1.031801 -0.391422,-0.791702 0.175218,-1.555647 0.658476,-2.135293 1.696591,-1.528612 0.511218,-0.527003 4.541285,-2.905176 0.994547,-0.586888 2.083882,-0.986028 3.241251,-1.069181 1.514235,-0.04339 2.999338,0.16755 4.492112,0.409427 1.269344,0.140806 2.543744,0.256098 3.822438,0.193117 0,0 -3.205961,2.329267 -3.205961,2.329267 z"
       inkscape:connector-curvature="0"
       style="stroke-width:0.26458332" />
  </g>
</svg>
