<?xml version="1.0" encoding="UTF-8" standalone="no"?>
<!-- Created with Inkscape (http://www.inkscape.org/) -->

<svg
   xmlns:dc="http://purl.org/dc/elements/1.1/"
   xmlns:cc="http://creativecommons.org/ns#"
   xmlns:rdf="http://www.w3.org/1999/02/22-rdf-syntax-ns#"
   xmlns:svg="http://www.w3.org/2000/svg"
   xmlns="http://www.w3.org/2000/svg"
   xmlns:sodipodi="http://sodipodi.sourceforge.net/DTD/sodipodi-0.dtd"
   xmlns:inkscape="http://www.inkscape.org/namespaces/inkscape"
   width="210mm"
   height="297mm"
   viewBox="0 0 210 297"
   version="1.1"
   id="svg171"
   inkscape:export-filename="/home/edward/Desktop/CAT125Project/resources/language.png"
   inkscape:export-xdpi="96"
   inkscape:export-ydpi="96"
   inkscape:version="0.92.4 (5da689c313, 2019-01-14)"
   sodipodi:docname="language.svg">
  <defs
     id="defs165" />
  <sodipodi:namedview
     id="base"
     pagecolor="#ffffff"
     bordercolor="#666666"
     borderopacity="1.0"
     inkscape:pageopacity="0.0"
     inkscape:pageshadow="2"
     inkscape:zoom="1.4"
     inkscape:cx="388.76216"
     inkscape:cy="848.4734"
     inkscape:document-units="mm"
     inkscape:current-layer="layer1"
     showgrid="false"
     inkscape:window-width="1850"
     inkscape:window-height="1016"
     inkscape:window-x="70"
     inkscape:window-y="27"
     inkscape:window-maximized="1" />
  <metadata
     id="metadata168">
    <rdf:RDF>
      <cc:Work
         rdf:about="">
        <dc:format>image/svg+xml</dc:format>
        <dc:type
           rdf:resource="http://purl.org/dc/dcmitype/StillImage" />
        <dc:title></dc:title>
      </cc:Work>
    </rdf:RDF>
  </metadata>
  <g
     inkscape:label="Layer 1"
     inkscape:groupmode="layer"
     id="layer1">
    <path
       id="path173"
       d="m 44.237859,17.434388 c -0.955405,-0.245989 -1.959075,0.07756 -2.865115,0.370429 -0.256553,0.103908 -0.516731,0.199282 -0.769659,0.311723 -0.269984,0.120023 -0.535742,0.249719 -0.798256,0.385304 -0.272854,0.140926 -1.072576,0.598625 -0.807281,0.443937 2.888456,-1.684203 1.302086,-0.740343 0.66657,-0.318079 -0.260204,0.172893 -0.513662,0.355736 -0.770493,0.533604 -1.115563,0.804637 -2.25606,1.617555 -3.121543,2.702357 -0.152009,0.190528 -0.284576,0.395785 -0.426866,0.593678 -0.843648,1.287347 -0.98379,2.335001 -0.904216,3.835113 0.131516,1.493757 0.524872,2.933135 1.050592,4.331061 0.523774,1.234919 1.17838,2.407237 1.748162,3.620873 0.0486,0.13009 0.0972,0.260181 0.145796,0.390271 0,0 -2.417582,1.334373 -2.417582,1.334373 v 0 c -0.03936,-0.125912 -0.07872,-0.251822 -0.118086,-0.377732 -0.525645,-1.241539 -1.189257,-2.416165 -1.714027,-3.658039 -0.540472,-1.418829 -0.944731,-2.8803 -1.100857,-4.395825 -0.111204,-1.539275 -0.0057,-2.658273 0.833491,-4.002615 0.139967,-0.206868 0.269099,-0.421493 0.419896,-0.620603 0.849847,-1.122132 1.99449,-1.961651 3.125779,-2.776281 2.213502,-1.565644 4.558353,-3.004845 7.092543,-3.98352 0.980339,-0.289902 2.069147,-0.619158 3.076421,-0.263134 0,0 -2.345269,1.543105 -2.345269,1.543105 z"
       inkscape:connector-curvature="0"
       style="stroke-width:0.26458332" />
    <path
       id="path175"
       d="m 29.284567,26.301479 c 0.970651,0.164593 1.833989,0.643391 2.730167,1.020822 0.74246,0.347062 1.51947,0.526142 2.329524,0.604197 0,0 -2.231634,1.580166 -2.231634,1.580166 v 0 c -0.817385,-0.121285 -1.607571,-0.326882 -2.362337,-0.673169 -0.88137,-0.370734 -1.757479,-0.841608 -2.732678,-0.884976 0,0 2.266958,-1.64704 2.266958,-1.64704 z"
       inkscape:connector-curvature="0"
       style="stroke-width:0.26458332" />
    <path
       id="path177"
       d="m 42.311047,29.197326 c 0.450215,0.757981 0.915852,1.509451 1.44359,2.216139 0.363593,0.377444 0.905489,1.19956 1.550887,0.993746 0.09649,-0.03077 0.174662,-0.102584 0.261996,-0.153876 -3.220307,1.80309 -2.147652,1.524444 -1.569159,0.297871 0.264798,-0.561444 0.4563,-1.160447 0.673142,-1.741155 0.251876,-0.605842 0.462476,-1.249108 0.848344,-1.788503 0.05676,-0.07934 0.105945,-0.172006 0.188651,-0.223732 0.843719,-0.527688 1.718373,-1.004226 2.57756,-1.506337 0.08042,0.01974 0.16695,0.02273 0.241274,0.05925 0.52873,0.259855 0.568028,1.008488 0.629671,1.506503 0.07906,0.869744 0.196305,1.732468 0.397063,2.582529 0.02373,0.09096 0.04749,0.181928 0.07124,0.272891 0,0 -2.449234,1.321896 -2.449234,1.321896 v 0 c -0.0209,-0.09404 -0.04179,-0.188071 -0.06268,-0.28211 -0.186237,-0.862742 -0.302426,-1.734902 -0.398838,-2.612035 -0.02827,-0.221734 -0.08573,-1.156258 -0.456353,-1.150689 -0.05349,7.94e-4 -0.102031,0.03218 -0.153048,0.04827 0.725072,-0.434128 1.450144,-0.868254 2.175216,-1.302379 -0.07463,0.06015 -0.158348,0.110522 -0.223904,0.180459 -0.453681,0.48401 -0.650777,1.159769 -0.920363,1.747295 -0.218379,0.584012 -0.410216,1.179682 -0.646444,1.756812 -0.03049,0.07449 -0.349273,0.838293 -0.45875,0.915506 -0.847685,0.597866 -1.768192,1.085154 -2.652289,1.62773 -0.110548,0.02066 -0.219181,0.06202 -0.331647,0.06202 -0.723183,1.6e-5 -1.221052,-0.744804 -1.649482,-1.214511 -0.528029,-0.713978 -0.997622,-1.467887 -1.506852,-2.195291 0,0 2.420411,-1.418288 2.420411,-1.418288 z"
       inkscape:connector-curvature="0"
       style="stroke-width:0.26458332" />
    <path
       id="path179"
       d="m 51.547992,30.068213 c 0.153101,0.905555 0.138954,1.827731 0.04932,2.738583 -0.193405,1.42848 -0.52446,1.157271 -2.721166,1.91703 -0.09669,0.03344 -0.06909,-0.193746 -0.08586,-0.294671 -0.02011,-0.121026 -0.01609,-0.244843 -0.02413,-0.367263 -0.02611,-1.046406 0.185746,-2.074876 0.466424,-3.076932 0.257066,-0.718426 0.583737,-1.441331 1.174252,-1.944826 2.509734,-1.389999 2.614073,-2.206643 3.753604,-0.176588 0.459984,0.844635 0.94107,1.679194 1.321806,2.5634 0.141782,0.341728 0.249637,0.693711 0.293002,1.061101 0,0 -2.494394,1.285121 -2.494394,1.285121 v 0 c 0.01368,-0.348113 -0.08216,-0.673132 -0.206552,-0.997127 -0.354687,-0.882693 -0.82853,-1.71013 -1.299163,-2.535272 -0.178546,-0.299958 -0.35043,-0.638294 -0.643712,-0.847365 -0.05049,-0.03599 -0.108069,-0.06602 -0.168931,-0.07785 -0.05316,-0.01032 -0.207672,0.04247 -0.161883,0.01355 0.722027,-0.455846 1.470115,-0.869043 2.205172,-1.303563 -0.07459,0.03635 -0.155868,0.06135 -0.223766,0.109046 -0.548298,0.385156 -0.801113,1.100312 -1.072065,1.676881 -0.302493,0.962544 -0.518239,1.961243 -0.480422,2.976272 0.0058,0.103642 0.0072,0.207613 0.0173,0.310925 0.0048,0.04921 0.0693,0.119756 0.02727,0.145812 -0.786564,0.487701 -1.624925,0.886618 -2.429642,1.343747 -0.03364,0.0191 0.08607,5.29e-4 0.11275,-0.02761 0.114876,-0.120711 0.141036,-0.40082 0.167759,-0.531699 0.127629,-0.871392 0.152868,-1.77274 -0.04086,-2.636658 0,0 2.463895,-1.324057 2.463895,-1.324057 z"
       inkscape:connector-curvature="0"
       style="stroke-width:0.26458332" />
    <path
       id="path181"
       d="m 59.431734,29.454467 c 0.01781,-0.378873 0.122849,-0.966097 -0.219985,-1.250067 -0.05648,-0.04678 -0.129905,-0.06813 -0.19486,-0.102198 -0.33519,-0.07726 -0.66783,-0.01532 -0.982107,0.119936 -0.140605,0.06051 -0.538181,0.291986 -0.404135,0.218072 2.110295,-1.163637 2.484125,-1.565463 1.560771,-0.713586 -0.465881,0.569867 -0.93658,1.402051 -0.622786,2.160294 0.04908,0.118588 0.134882,0.218395 0.202321,0.327591 0.622374,0.633616 1.467911,0.629809 2.296475,0.595762 0,0 -2.203715,1.607712 -2.203715,1.607712 v 0 c -0.924435,-7.94e-4 -1.826003,-0.08053 -2.477521,-0.818605 -0.08085,-0.133316 -0.181337,-0.256543 -0.242535,-0.399945 -0.352616,-0.826254 0.03895,-1.746067 0.516948,-2.424337 1.064199,-1.153917 0.361608,-0.466164 3.121596,-2.047481 0.487178,-0.279123 1.062234,-0.345573 1.579835,-0.130601 0.08392,0.06285 0.178798,0.11325 0.251751,0.188545 0.362723,0.374364 0.321202,0.95214 0.330047,1.428033 0,0 -2.5121,1.240875 -2.5121,1.240875 z"
       inkscape:connector-curvature="0"
       style="stroke-width:0.26458332" />
    <path
       id="path183"
       d="m 67.199731,18.42491 c -0.04486,1.351759 -0.02953,2.704355 -0.06925,4.056228 -0.11465,1.97918 -0.10268,3.959472 0.0222,5.937236 0.145132,1.526458 0.345401,3.055078 0.702448,4.547886 0.0598,0.17853 0.100097,0.362932 0.164261,0.53997 0,0 -2.489041,1.330438 -2.489041,1.330438 v 0 c -0.0092,-0.193534 -0.05203,-0.382428 -0.09932,-0.569997 -0.292487,-1.531006 -0.473848,-3.082822 -0.624954,-4.633367 -0.13257,-1.978128 -0.171553,-3.960126 -0.06807,-5.941165 0.03191,-1.33326 0.01585,-2.667649 -0.02405,-4.000665 0,0 2.485774,-1.266564 2.485774,-1.266564 z"
       inkscape:connector-curvature="0"
       style="stroke-width:0.26458332" />
    <path
       id="path185"
       d="m 64.814327,27.624397 c 0.675162,-0.0417 1.331111,-0.189196 2.007415,-0.213993 0.439846,0.0031 0.8484,0.171434 1.279076,0.21698 0.03831,-0.0122 0.07662,-0.02439 0.114932,-0.03661 0,0 -2.261703,1.668743 -2.261703,1.668743 v 0 c -0.05039,-0.0057 -0.100775,-0.01135 -0.151162,-0.01704 -0.404323,-0.08459 -0.802921,-0.20963 -1.222566,-0.186582 -0.681058,0.04285 -1.349642,0.193082 -2.032949,0.215538 0,0 2.266957,-1.64704 2.266957,-1.64704 z"
       inkscape:connector-curvature="0"
       style="stroke-width:0.26458332" />
    <path
       id="path187"
       d="m 70.313475,28.152793 c 0.708464,0.367959 1.217568,0.947963 1.649127,1.603931 0.245644,0.430263 0.393869,0.901324 0.496263,1.383086 0,0 -2.471071,1.315119 -2.471071,1.315119 v 0 c -0.06667,-0.454493 -0.186724,-0.898745 -0.412766,-1.302618 -0.40809,-0.6336 -0.907521,-1.164294 -1.610709,-1.47247 0,0 2.349156,-1.527048 2.349156,-1.527048 z"
       inkscape:connector-curvature="0"
       style="stroke-width:0.26458332" />
    <path
       id="path189"
       d="m 77.320054,28.803724 c -0.447915,0.403225 -0.708646,0.893752 -0.826166,1.477092 -0.06405,0.448572 0.195008,0.672671 0.547311,0.889278 0.877867,0.443434 1.870851,0.489524 2.834918,0.456189 0.175313,-0.02582 0.596726,-0.07364 0.784138,-0.148003 0.0674,-0.02675 0.242779,-0.158432 0.17976,-0.122547 -2.129178,1.212398 -1.606899,1.845453 -2.51383,1.220732 -0.713925,-0.479404 -1.494647,-0.843145 -2.303229,-1.129501 -0.615127,-0.18238 -1.209083,-0.06404 -1.80285,0.120992 -1.129453,0.48447 0.295987,-0.311918 2.088258,-1.678813 0,0 -2.220076,1.737717 -2.220076,1.737717 v 0 c 1.22197,-0.967513 1.354286,-1.498309 2.347939,-1.761667 0.628155,-0.14976 1.252244,-0.182071 1.87226,0.04241 0.825037,0.32103 1.629283,0.699706 2.375911,1.178303 0.07614,0.06118 0.163814,0.110279 0.22842,0.183534 1.04715,1.187347 -2.226019,1.929942 -3.250046,1.969944 -1.014053,-0.0047 -2.050375,-0.0798 -2.963881,-0.563676 -0.430046,-0.285673 -0.748117,-0.620781 -0.709917,-1.17334 0.09555,-0.618212 0.296431,-1.170596 0.744098,-1.627087 0,0 2.586982,-1.071562 2.586982,-1.071562 z"
       inkscape:connector-curvature="0"
       style="stroke-width:0.26458332" />
    <path
       id="path191"
       d="m 83.473305,29.463463 c 0.05722,0.528912 0.09464,1.058891 0.189397,1.582705 0.0647,0.253207 0.117128,0.722908 0.42043,0.800913 0.03225,-0.01413 0.06918,-0.02045 0.09674,-0.04236 0.636151,-0.505444 -1.427472,0.776788 -2.149579,1.149242 -0.07098,0.03661 0.109961,-0.116941 0.153882,-0.183645 0.122616,-0.186227 0.186542,-0.380556 0.268846,-0.586624 0.248129,-0.763503 0.316259,-1.46721 0.784471,-2.140108 0.918662,-0.883442 0.40286,-0.421061 2.857211,-1.714749 0.144799,-0.07632 0.659554,-0.05847 0.818941,-0.0047 0.08308,0.028 0.155525,0.081 0.233286,0.121502 0.555554,0.427106 0.689801,1.163145 0.894257,1.797899 0.240478,0.827408 0.474234,1.657017 0.727464,2.480646 0,0 -2.430491,1.328743 -2.430491,1.328743 v 0 c -0.240311,-0.825754 -0.459732,-1.657604 -0.710951,-2.480442 -0.180658,-0.529868 -0.309338,-1.253861 -0.803754,-1.575409 -0.226502,-0.06525 -0.418529,-0.07658 -0.652767,-0.01976 -0.08613,0.0209 -0.326882,0.132469 -0.251852,0.08529 0.614749,-0.386551 2.998346,-1.794095 1.875023,-1.109192 -0.183023,0.193196 -0.267015,0.254614 -0.389784,0.503325 -0.239271,0.484735 -0.266557,1.050488 -0.439002,1.557639 -0.550527,1.597925 -0.454237,1.025491 -2.880262,2.41354 -0.115062,0.06583 -0.259167,-0.01373 -0.359871,-0.05126 -0.31474,-0.250029 -0.466748,-0.627446 -0.524928,-1.019921 -0.09409,-0.525815 -0.127751,-1.056198 -0.208467,-1.584032 0,0 2.481757,-1.309203 2.481757,-1.309203 z"
       inkscape:connector-curvature="0"
       style="stroke-width:0.26458332" />
    <path
       id="path193"
       d="m 101.11613,14.454125 c -0.0797,6.88e-4 -0.16035,-0.01 -0.23917,0.002 -0.29184,0.04453 -0.53592,0.152703 -0.79674,0.293569 -0.185204,0.100025 -0.728341,0.421132 -0.539508,0.32814 1.769138,-0.871239 2.238508,-1.390691 1.015258,-0.291256 -1.604509,1.596865 -2.678143,3.600869 -3.618287,5.635623 -0.52329,1.269433 -0.930156,2.601004 -0.959532,3.984508 -0.01693,0.797069 0.05445,1.051035 0.17123,1.829699 0.317833,1.458285 0.831757,2.650574 1.852943,3.742536 0.621144,0.542139 1.211136,0.713221 2.005046,0.506079 1.18285,-0.664284 -1.24544,0.718436 -1.879517,1.056936 -0.07417,0.0396 0.132879,-0.103724 0.192426,-0.163084 0.110895,-0.110542 0.180708,-0.234444 0.217655,-0.38419 -2.65e-4,-0.0071 -0.0037,-0.02775 -7.94e-4,-0.02125 0.423796,0.962866 -1.09174,0.767476 2.46442,-1.232623 0,0 -2.533476,1.24306 -2.533476,1.24306 v 0 c 0.386188,-0.237503 2.204986,-2.433881 2.584626,-1.246613 0.004,0.263144 -0.0905,0.632788 -0.33552,0.785918 -2.361388,1.475986 -1.695204,1.236094 -2.926289,1.634805 -0.863375,0.09832 -1.508167,-0.14863 -2.132531,-0.760299 -1.012537,-1.177993 -1.538711,-2.393833 -1.868038,-3.914023 -0.12446,-0.805916 -0.19763,-1.062923 -0.187767,-1.888585 0.01691,-1.415795 0.415142,-2.780034 0.945341,-4.081923 0.929963,-2.04377 1.983443,-4.062388 3.534965,-5.711562 1.4296,-1.397188 0.49471,-0.574289 3.570779,-2.433425 0.53948,-0.326055 1.13148,-0.621007 1.77683,-0.499054 0,0 -2.31434,1.584985 -2.31434,1.584985 z"
       inkscape:connector-curvature="0"
       style="stroke-width:0.26458332" />
    <path
       id="path195"
       d="m 107.09682,25.305725 c 0.13236,1.173499 0.30981,2.341003 0.45353,3.513109 0.0729,0.617014 0.1328,1.235388 0.18994,1.854012 0,0 -2.43054,1.261822 -2.43054,1.261822 v 0 c -0.0375,-0.621281 -0.0778,-1.242541 -0.14966,-1.86105 -0.14142,-1.15843 -0.31955,-2.313882 -0.54503,-3.458691 0,0 2.48176,-1.309202 2.48176,-1.309202 z"
       inkscape:connector-curvature="0"
       style="stroke-width:0.26458332" />
    <path
       id="path197"
       d="m 102.82319,23.587272 c -0.23067,-0.208589 -0.10708,-0.106906 -0.37257,-0.302863 0,0 2.35496,-1.490131 2.35496,-1.490131 v 0 c 0.28655,0.216405 0.15019,0.10703 0.41005,0.32691 0,0 -2.39244,1.466084 -2.39244,1.466084 z"
       inkscape:connector-curvature="0"
       style="stroke-width:0.26458332" />
    <path
       id="path199"
       d="m 112.18254,27.638258 c -0.0423,0.787488 -0.0755,1.574935 -0.0282,2.363026 0.28096,0.916146 0.1375,0.355137 -2.41551,1.126998 -0.10972,0.03317 0.0572,-0.22215 0.0795,-0.334584 0.0292,-0.146646 0.0511,-0.294648 0.0749,-0.442249 0.30695,-1.899589 -0.16378,0.95426 0.18518,-1.151715 0.16911,-1.09832 0.33747,-2.203448 0.6584,-3.269424 0.40228,-1.096497 1.97639,-2.822683 3.1297,-2.075904 0.0673,0.04357 0.1222,0.103766 0.1833,0.155649 0.47724,0.595652 0.60209,1.370679 0.76352,2.096036 0.18762,0.994335 0.48336,1.973289 0.54614,2.986291 0.0149,0.302945 -0.0675,0.567544 -0.18439,0.839851 0,0 -2.54999,1.138814 -2.54999,1.138814 v 0 c 0.16239,-0.221173 0.26132,-0.432972 0.27573,-0.715682 -0.002,-1.002673 -0.30493,-1.971537 -0.50639,-2.947241 -0.15295,-0.646616 -0.25767,-1.372927 -0.70565,-1.891235 -0.0419,-0.01901 -0.0801,-0.05086 -0.12573,-0.05702 -0.0363,-0.0049 -0.0713,0.01704 -0.1069,0.02557 0.75554,-0.4483 1.51107,-0.896601 2.26661,-1.344901 0.0547,-0.03234 -0.11499,0.05786 -0.16182,0.100827 -0.18404,0.168888 -0.21209,0.287082 -0.32516,0.515938 -0.38601,1.040101 -0.54588,2.151902 -0.71148,3.244305 -0.0799,0.526796 -0.14108,1.053971 -0.2115,1.581804 -0.0152,0.113919 0.0401,0.274436 -0.0539,0.340542 -2.54056,1.786433 -2.34883,2.445322 -2.58744,1.348801 0.0134,-0.787921 0.0175,-1.576922 0.018,-2.364213 0,0 2.49306,-1.270275 2.49306,-1.270275 z"
       inkscape:connector-curvature="0"
       style="stroke-width:0.26458332" />
    <path
       id="path201"
       d="m 118.96785,16.901953 c -0.17223,1.540299 -0.19884,3.094314 -0.19056,4.64283 0.0222,1.847209 0.1554,3.69097 0.42422,5.518382 0.0413,0.252074 0.0825,0.504151 0.1238,0.756227 0,0 -2.38264,1.260546 -2.38264,1.260546 v 0 c -0.0374,-0.255243 -0.0748,-0.510489 -0.11214,-0.765733 -0.25899,-1.842913 -0.39791,-3.699708 -0.41889,-5.561155 -0.0217,-1.536028 0.006,-3.072236 0.0545,-4.607642 0,0 2.50175,-1.243455 2.50175,-1.243455 z"
       inkscape:connector-curvature="0"
       style="stroke-width:0.26458332" />
    <path
       id="path203"
       d="m 116.99353,21.916186 c 0.53614,0.35317 1.04528,0.852948 1.70839,0.944664 0.13838,0.01914 0.27938,0.0033 0.41907,0.0049 0.59406,-0.123351 0.29961,-0.03677 0.88203,-0.264217 0,0 -2.16879,1.686079 -2.16879,1.686079 v 0 c -0.62986,0.180885 -0.31165,0.121167 -0.95411,0.181883 -0.15147,-0.01921 -0.30586,-0.02236 -0.45441,-0.05763 -0.67199,-0.159568 -1.18883,-0.646791 -1.78133,-0.968627 0,0 2.34915,-1.527048 2.34915,-1.527048 z"
       inkscape:connector-curvature="0"
       style="stroke-width:0.26458332" />
    <path
       id="path205"
       d="m 126.75031,25.094769 c 0.36263,-0.461117 0.45197,-0.950013 0.41246,-1.520278 -0.10266,-0.564041 -0.27571,-1.203856 -0.76539,-1.550031 -0.0679,-0.0031 -0.13755,-0.02464 -0.20379,-0.0093 -0.21579,0.05009 -0.77526,0.428945 -0.57865,0.326868 0.65894,-0.342111 1.27742,-0.765619 1.95925,-1.059473 0.18296,-0.07885 -0.30099,0.261799 -0.43986,0.404647 -0.15111,0.155438 -0.2859,0.325954 -0.42884,0.48893 -0.47716,0.68177 -1.2297,1.50901 -1.22998,2.400498 -4e-5,0.123097 0.0399,0.242942 0.0598,0.364412 0.06,0.117053 0.10291,0.244542 0.17993,0.351157 0.49183,0.680859 1.36156,0.990405 2.14166,1.163488 0.39075,0.02637 0.52828,0.0692 0.90657,-0.03073 0.13047,-0.03446 0.49225,-0.218674 0.37592,-0.150276 -4.38811,2.580114 -2.23872,1.386187 -1.727,0.864423 0.10085,-0.102825 0.18323,-0.222253 0.27485,-0.333378 0.50049,-0.766232 0.62333,-1.674897 0.6995,-2.56696 0.009,-1.077331 0.69852,-4.059018 2.68838,-2.232204 0.32377,0.518738 0.4972,1.122741 0.67939,1.702802 0.27265,0.754812 0.63254,1.471409 0.95523,2.20444 0.14718,0.342527 0.22801,0.705489 0.30845,1.067571 0,0 -2.44372,1.309344 -2.44372,1.309344 v 0 c -0.0679,-0.346612 -0.13795,-0.693325 -0.27567,-1.020874 -0.32105,-0.743701 -0.68112,-1.470478 -0.96359,-2.231083 -0.16442,-0.495834 -0.31299,-1.038649 -0.60952,-1.472812 -0.0554,0.976617 -0.0218,0.05933 2.32463,-1.361026 0.0292,-0.01768 -0.0627,0.03566 -0.0783,0.06604 -0.1099,0.214422 -0.072,0.508873 -0.1111,0.734443 -0.0845,0.928177 -0.19926,1.874398 -0.64381,2.709417 -0.84452,1.247732 -1.50902,1.318212 -3.26011,2.250321 -0.19694,0.10483 -0.65713,0.125441 -0.86284,0.114294 -0.16614,-0.009 -0.32972,-0.04488 -0.49459,-0.06732 -0.84448,-0.236958 -1.74463,-0.608975 -2.27709,-1.35193 -0.0922,-0.128696 -0.14843,-0.279732 -0.22264,-0.419598 -0.0316,-0.147685 -0.0868,-0.292237 -0.0949,-0.443057 -0.0516,-0.974096 0.70014,-1.808326 1.19978,-2.559365 1.12928,-1.417924 1.45587,-1.372774 3.5631,-2.626113 0.33288,-0.197989 0.6485,-0.253354 0.99235,-0.0684 0.50938,0.463408 0.72877,1.083423 0.86459,1.746345 0.0766,0.63206 0.0529,1.13134 -0.30445,1.680225 0,0 -2.5701,1.124505 -2.5701,1.124505 z"
       inkscape:connector-curvature="0"
       style="stroke-width:0.26458332" />
    <path
       id="path207"
       d="m 138.09087,28.518522 c 0.0518,0.535881 0.13038,1.070311 0.12721,1.609442 -0.0215,0.674467 -0.28529,1.300551 -0.52821,1.919509 -0.0536,0.124317 -0.1072,0.248635 -0.1608,0.372949 0,0 -2.51132,1.149794 -2.51132,1.149794 v 0 c 0.0555,-0.120829 0.11106,-0.241662 0.16658,-0.362495 0.23311,-0.588107 0.49525,-1.18482 0.54259,-1.822698 0.0395,-0.520179 -0.0454,-1.042861 -0.11781,-1.557298 0,0 2.48176,-1.309203 2.48176,-1.309203 z"
       inkscape:connector-curvature="0"
       style="stroke-width:0.26458332" />
    <path
       id="path209"
       d="m 144.70389,23.844794 c 0.0864,1.179711 0.18635,2.358754 0.29518,3.536747 0,0 -2.39723,1.249587 -2.39723,1.249587 v 0 c -0.10905,-1.164658 -0.21284,-2.330194 -0.37659,-3.488654 0,0 2.47864,-1.29768 2.47864,-1.29768 z"
       inkscape:connector-curvature="0"
       style="stroke-width:0.26458332" />
    <path
       id="path211"
       d="m 148.4984,24.533113 c 0.12514,0.488961 0.18053,0.997616 0.0822,1.495247 -0.0491,0.221408 -0.17471,0.350263 -0.36226,0.457495 -0.0977,0.107344 -0.1227,0.250208 -0.0627,0.380119 0.017,-1.113954 -1.35039,0.621929 -2.37127,1.190702 -0.0333,0.01855 0.0507,-0.05708 0.0729,-0.08802 0.0697,-0.0971 0.0793,-0.128479 0.13096,-0.235328 0.38699,-1.007398 2.03908,-2.538324 2.89291,-1.608455 0.0384,0.04554 0.28983,0.289464 0.36851,0.216125 0.0272,-0.0254 0.0582,-0.12625 0.0253,-0.108837 -0.78828,0.416907 -1.54949,0.883127 -2.32423,1.32469 0.34967,-0.357336 0.53288,-0.843227 0.74031,-1.290313 0.50901,-1.125043 1.86772,-2.618376 3.19444,-2.139702 0.33562,0.145563 0.62313,0.368149 0.87745,0.628052 0.41499,0.483888 0.43925,1.129029 0.46907,1.735174 -0.006,0.774811 0.0846,1.542126 0.22829,2.301893 0.0581,0.277823 0.0278,0.15417 0.0863,0.372099 0,0 -2.47198,1.32963 -2.47198,1.32963 v 0 c -0.0449,-0.238078 -0.0212,-0.105776 -0.0691,-0.397243 -0.12336,-0.775113 -0.23404,-1.552618 -0.22743,-2.33998 -0.0291,-0.5324 -0.0266,-1.115304 -0.40175,-1.536938 -0.2199,-0.208906 -0.47599,-0.416524 -0.7827,-0.469412 -0.9639,0.256336 -0.11745,0.04183 2.16962,-1.31207 0.0452,-0.02676 -0.0976,0.04186 -0.13914,0.07402 -0.19313,0.149515 -0.2976,0.387412 -0.40277,0.598535 -0.20814,0.466181 -0.4126,0.935172 -0.66842,1.376408 -1.7152,1.022028 -2.00293,2.114151 -3.06428,1.115756 -0.8294,-0.559189 -0.095,-0.03365 2.31118,-1.419829 0.0198,-0.01141 -0.0438,0.01792 -0.0589,0.03505 -0.0864,0.09784 -0.12124,0.240646 -0.19842,0.344749 -0.0332,0.08273 -0.0864,0.335452 -0.1648,0.385246 -1.01432,0.644242 -1.89422,2.174055 -2.67894,1.306719 -0.0983,-0.21346 -0.12382,-0.408464 -0.0648,-0.638688 0.0787,-0.257318 0.27134,-0.199242 0.40953,-0.392875 0.20269,-0.415089 0.11362,-0.920447 -0.008,-1.347489 0,0 2.46292,-1.342522 2.46292,-1.342522 z"
       inkscape:connector-curvature="0"
       style="stroke-width:0.26458332" />
    <path
       id="path213"
       d="m 158.3676,14.098432 c 0.57623,1.049413 0.47899,2.274403 0.44268,3.428574 -0.087,1.635996 -0.27937,3.263256 -0.41117,4.895705 -0.0345,0.602412 -0.0302,1.20602 0.0289,1.806279 0,0 -2.45413,1.28035 -2.45413,1.28035 v 0 c -0.0592,-0.624276 -0.0497,-1.250487 -0.006,-1.876171 0.17067,-1.628575 0.36863,-3.255565 0.44443,-4.892266 0.0219,-1.074607 0.13252,-2.263508 -0.45582,-3.219278 0,0 2.41093,-1.423193 2.41093,-1.423193 z"
       inkscape:connector-curvature="0"
       style="stroke-width:0.26458332" />
    <path
       id="path215"
       d="m 155.14115,21.236479 c 1.08073,0.24657 2.1901,0.292013 3.29128,0.207524 0.89455,-0.133201 1.77081,-0.360164 2.57197,-0.787831 0.16229,-0.08663 0.63612,-0.369781 0.47478,-0.281385 -0.65808,0.360559 -1.31015,0.731993 -1.96522,1.097989 0,0 2.55955,-1.008689 2.55955,-1.008689 v 0 c -0.88804,0.531673 -2.52374,1.673521 -3.76814,2.124494 -0.66112,0.239589 -1.35455,0.37435 -2.05081,0.458936 -1.14167,0.05771 -2.2774,-0.01026 -3.40661,-0.194141 0,0 2.2932,-1.616897 2.2932,-1.616897 z"
       inkscape:connector-curvature="0"
       style="stroke-width:0.26458332" />
    <path
       id="path217"
       d="m 167.01209,13.750933 c 0.501,-0.08226 1.06622,-0.179182 1.56401,-0.01793 0.0978,0.0317 0.18639,0.08704 0.27959,0.130561 0.0795,0.07683 0.17093,0.142933 0.23839,0.23049 0.5267,0.683616 0.41985,2.081154 0.43378,2.887224 -0.006,2.156469 0.0347,4.311111 0.12747,6.465496 0.0206,0.708227 0.0769,1.415072 0.10521,2.122898 0.009,0.233008 -0.006,0.468654 0.0106,0.701114 -0.84835,0.396548 -1.67039,0.85514 -2.54507,1.18965 -0.0647,0.02476 -0.0204,-0.137176 -0.0264,-0.206219 -0.0241,-0.277466 -0.0403,-0.567843 -0.0178,-0.845763 0.008,-0.09773 0.0264,-0.194318 0.0396,-0.291477 0.0953,-0.586436 0.51857,-0.897855 0.95505,-1.241564 0.46478,-0.279263 0.80986,-0.806627 1.27772,-1.070163 0.87539,-0.493081 1.76515,-0.96019 2.64772,-1.440286 0.0992,0.02112 0.20345,0.02563 0.29759,0.06336 0.66313,0.265738 1.09945,0.9487 1.5041,1.495689 0.28093,0.461907 0.76735,0.934665 0.6246,1.513022 -1.22862,1.626882 -2.45965,1.47645 -3.96937,1.824211 -0.11875,0.03458 -0.23987,0.06186 -0.35625,0.103737 -0.12303,0.04427 -0.24346,0.09626 -0.36065,0.154229 -0.12516,0.0619 -0.48684,0.27373 -0.36537,0.204867 3.4859,-1.976277 2.12569,-1.260139 1.29229,-0.615593 -0.66104,0.592174 -3.12373,3.184596 -3.32965,1.621067 0.0129,-0.06011 0.0258,-0.120226 0.0386,-0.18034 0,0 2.55076,-1.173945 2.55076,-1.173945 v 0 c -0.0256,0.03119 -0.0513,0.06238 -0.0769,0.09358 -0.58044,0.825346 -0.0142,0.03989 -2.52375,1.365332 -0.0411,0.02172 0.0881,-0.03329 0.12575,-0.06056 0.24747,-0.179036 0.40834,-0.456777 0.65396,-0.63848 1.35071,-1.098981 2.86906,-2.093105 4.55742,-2.549536 0.32288,-0.06504 0.6578,-0.102275 0.97678,-0.184364 0.0843,-0.0217 0.3222,-0.127318 0.24829,-0.08126 -1.99521,1.243244 -3.02213,1.561649 -2.0363,1.243583 0.0359,-0.0167 0.0804,-0.02146 0.10783,-0.05008 0.18981,-0.198179 -0.43066,-1.011986 -0.52664,-1.186046 -0.31973,-0.432807 -0.81391,-1.196868 -1.40236,-1.27845 -0.0776,-0.01076 -0.156,0.01512 -0.234,0.02268 0.71445,-0.426688 1.42966,-0.852092 2.14334,-1.280064 0.0874,-0.05243 -0.1827,0.09267 -0.26457,0.153423 -0.36134,0.268141 -0.64867,0.638285 -1.0198,0.896751 -0.20712,0.163337 -0.65989,0.455491 -0.81968,0.639437 -0.10089,0.116136 -0.15596,0.276551 -0.21464,0.414358 -0.0601,0.281376 -0.0795,0.526175 -0.0613,0.813998 0.0821,1.297016 0.36121,0.332463 -2.4603,1.73221 0.12138,-0.04087 0.0746,-0.0062 0.10025,-0.23209 0.0958,-0.844781 -0.0346,-1.7028 -0.009,-2.549198 -0.0545,-2.151421 -0.10197,-4.302736 -0.15173,-6.454185 -0.0279,-0.64099 0.0391,-2.115546 -0.41229,-2.644643 -0.0518,-0.06071 -0.12469,-0.09962 -0.18704,-0.149437 -0.57282,-0.190084 -1.18058,-0.120783 -1.75267,0.04998 0,0 2.22258,-1.71128 2.22258,-1.71128 z"
       inkscape:connector-curvature="0"
       style="stroke-width:0.26458332" />
    <path
       id="path219"
       d="m 173.21096,10.116373 c 0.80693,-0.1723332 1.59816,0.205367 2.30512,0.552266 1.40695,0.870203 1.93895,1.987727 2.49509,3.488195 0.68563,2.152032 0.84164,4.418337 0.91063,6.661507 0.0279,1.459274 -0.1055,2.918821 -0.45263,4.337992 -0.19517,0.797912 -0.28564,0.993902 -0.55521,1.753001 -0.4159,0.982488 -0.85825,2.003176 -1.68896,2.706166 -0.86081,0.500904 -1.72161,1.001808 -2.58242,1.502712 0,0 2.17284,-1.754381 2.17284,-1.754381 v 0 c -0.72518,0.42517 -1.45036,0.850336 -2.17553,1.275503 0.93699,-0.583528 1.40093,-1.633048 1.84936,-2.600552 0.2822,-0.738143 0.3855,-0.95227 0.59244,-1.730324 0.37232,-1.399847 0.5259,-2.847534 0.50986,-4.294281 -0.06,-2.209819 -0.21459,-4.445443 -0.91925,-6.557301 -0.54054,-1.406938 -1.07237,-2.514871 -2.44074,-3.276868 -0.68527,-0.306203 -1.47695,-0.651673 -2.21291,-0.309996 0,0 2.19231,-1.753639 2.19231,-1.753639 z"
       inkscape:connector-curvature="0"
       style="stroke-width:0.26458332" />
    <path
       id="path221"
       d="m 190.41052,14.212198 c -0.20964,1.079861 -0.7217,2.047388 -1.26956,2.988073 -0.70581,1.179905 -1.55173,2.257745 -2.42973,3.311225 -0.17299,0.210607 -0.27564,0.326084 -0.42553,0.537843 -0.0294,0.0415 -0.0525,0.08719 -0.0818,0.128738 -0.007,0.01031 -0.0226,0.03777 -0.0274,0.02611 -0.078,-0.188605 -0.0322,-0.15181 0.11698,-0.202028 0.68858,-0.184087 1.40336,-0.246295 2.1115,-0.306449 0.27738,0.02131 0.98734,-0.194815 1.19288,0.06468 0.0409,0.05167 0.0562,0.119271 0.0842,0.178907 0.0487,0.460681 -0.31864,0.812163 -0.58974,1.140595 -0.57223,0.693414 -1.13765,1.392155 -1.75135,2.049596 -0.28318,0.270717 -0.28065,0.277148 -0.5605,0.514132 -0.0661,0.05597 -0.25461,0.206272 -0.33704,0.274631 -0.0187,0.01551 -0.0408,0.0673 -0.0551,0.0477 -0.0682,-0.09296 -0.0942,-0.210417 -0.1413,-0.315625 0.52973,-0.212371 1.14332,-0.08999 1.69199,-0.03064 0.5786,0.115075 1.22896,0.203943 1.68786,0.607983 0.20738,0.324964 -0.0433,0.512848 -0.29746,0.683371 -0.55356,0.588563 -0.43812,1.485302 -0.34382,2.220102 0.1018,0.371018 0.19287,0.881118 0.63782,1.001665 0.51311,0.13901 1.0382,-0.284046 1.43499,-0.522769 -2.13203,1.109194 -2.02104,1.215523 -0.97385,0.268576 0.22671,-0.205004 0.44563,-0.418449 0.66845,-0.627674 0,0 2.46863,-1.014687 2.46863,-1.014687 v 0 c -1.40043,1.337736 -2.25385,2.142868 -4.27524,3.075617 -0.41578,0.205613 -0.70704,0.418573 -1.18527,0.415782 -0.75386,-0.0044 -1.05451,-0.698997 -1.19682,-1.32013 -0.12115,-0.803265 -0.24278,-1.688434 0.16944,-2.431 0.11874,-0.149976 0.31626,-0.308488 0.50712,-0.262745 -0.42054,-0.353195 -1.03392,-0.397941 -1.55024,-0.492785 -0.58419,-0.04755 -1.14651,-0.05058 -1.712,0.120523 -0.0668,-0.102771 -0.15916,-0.192875 -0.20035,-0.308312 -2.6e-4,-0.001 0.13181,-0.127148 0.21046,-0.189365 0.2731,-0.216062 0.56508,-0.409685 0.81326,-0.656678 0.62443,-0.631672 1.17874,-1.323708 1.73366,-2.016194 0.22842,-0.28986 0.48769,-0.55792 0.67287,-0.879457 0.0114,0.0039 0.0461,0.0098 0.0342,0.01158 -0.0696,0.01018 -0.1404,-0.01168 -0.21072,-0.01055 -0.10038,0.0016 -0.4251,0.01864 -0.50541,0.02372 -0.11487,0.0073 -0.22962,0.0165 -0.34443,0.02476 -0.72122,0.06719 -1.43326,0.1803 -2.14222,0.327448 -0.0706,-0.0061 -0.14955,0.01559 -0.21185,-0.0182 -0.51426,-0.27899 0.18912,-0.840137 0.36058,-1.068945 0.89268,-1.04371 1.77695,-2.092376 2.47646,-3.281585 0.53426,-0.893026 1.04077,-1.811421 1.23328,-2.846657 0,0 2.51209,-1.240875 2.51209,-1.240875 z"
       inkscape:connector-curvature="0"
       style="stroke-width:0.26458332" />
    <path
       id="path223"
       d="m 36.634189,79.334708 c 1.296879,0.06745 2.588025,0.216252 3.883052,0.313733 1.099867,0.0965 2.21344,0.101536 3.308321,0.254444 0.567827,0.0793 0.721442,0.135988 1.256805,0.277723 1.12907,0.462491 1.434846,1.092446 1.592818,2.249905 0.05859,1.02121 -0.202115,1.985203 -0.692243,2.872139 -0.975233,1.364705 -2.644047,1.962021 -4.094898,2.726524 -1.114732,0.65763 0.803932,-0.475988 1.894102,-1.07541 0.06679,-0.03673 -0.12247,0.09121 -0.178692,0.142685 -0.119366,0.109275 -0.206004,0.233598 -0.281622,0.374631 -0.0449,0.233032 0.363024,0.134162 0.484889,0.139811 0.09377,0.0043 0.186983,0.01696 0.280476,0.02545 0.772795,0.0089 1.514634,0.145997 2.242474,0.399188 0.659455,0.280217 1.046609,0.551116 1.17747,1.279572 7.94e-4,0.566328 -0.254439,1.081879 -0.512826,1.571601 -0.159621,0.275778 -0.340667,0.536946 -0.485437,0.821016 0.04552,0.141695 0.53807,0.40155 0.668936,0.484682 0.625385,0.381352 0.919247,0.876959 1.088004,1.575692 0.111537,1.136345 -0.275291,2.225831 -0.67827,3.26854 -0.581359,1.307876 -1.312162,2.562866 -2.331585,3.581246 -0.237141,0.2369 -0.499155,0.44751 -0.748734,0.67126 -0.274331,0.19634 -0.548664,0.39268 -0.822995,0.58902 0,0 -2.468345,0.97128 -2.468345,0.97128 v 0 c 0.277376,-0.18702 0.554749,-0.37403 0.832122,-0.56104 0.251106,-0.21354 0.514731,-0.41318 0.753314,-0.64062 1.023046,-0.97527 1.746528,-2.193608 2.325423,-3.47126 0.394518,-0.98688 0.765022,-2.01523 0.699074,-3.095881 -0.136358,-0.651156 -0.412901,-1.041792 -0.991142,-1.37821 -0.323469,-0.198966 -0.72403,-0.375052 -0.857285,-0.756634 0.0049,-0.350948 0.293823,-0.636159 0.47406,-0.916577 0.242607,-0.450705 0.508648,-0.899142 0.584985,-1.414809 -0.03847,-0.609664 -0.47431,-0.816518 -0.994915,-1.025861 -0.723103,-0.227595 -1.459899,-0.324173 -2.218367,-0.332653 -0.449972,-0.02574 -0.962493,-0.03763 -1.043937,-0.585856 0.04436,-0.237969 0.194915,-0.561393 0.410747,-0.695474 1.656162,-1.028845 1.817753,-1.113028 2.863564,-1.683885 0.85231,-0.441317 2.329201,-1.257509 -1.47347,0.900142 -0.108162,0.06137 0.20605,-0.139472 0.305491,-0.214151 0.361944,-0.271817 0.275283,-0.209722 0.578334,-0.557453 0.530767,-0.815936 0.809178,-1.730455 0.779042,-2.711175 -0.113451,-1.01564 -0.398087,-1.615242 -1.408613,-1.980893 -1.468138,-0.383739 -2.98691,-0.418005 -4.494593,-0.521158 -2.254121,-0.164851 0.481613,0.0367 -1.713884,-0.129619 -0.618971,-0.04689 -1.259454,-0.120677 -1.881814,-0.08744 -0.112602,0.006 -0.223311,0.03149 -0.334968,0.04724 0,0 2.225132,-1.701466 2.225132,-1.701466 z"
       inkscape:connector-curvature="0"
       style="stroke-width:0.26458332" />
    <path
       id="path225"
       d="m 51.547998,62.736359 c 0.149262,0.957619 0.0168,1.923745 -0.07176,2.880063 -0.04876,0.437222 -0.112956,0.872512 -0.179258,1.307346 -0.02434,0.15961 -0.07304,0.327277 -0.0551,0.489136 -0.855281,0.36962 -1.680313,0.819099 -2.565844,1.10886 -0.0843,0.02759 -0.0068,-0.177265 -0.01032,-0.26589 -0.0053,-0.133953 -0.01016,-0.267933 -0.01635,-0.401849 -0.0288,-0.62221 -0.0555,-1.244055 -0.07696,-1.866596 -0.02172,-1.295752 -0.110057,-2.605796 0.110532,-3.890949 0.04153,-0.24194 0.104624,-0.479679 0.156935,-0.719521 0.314745,-1.324118 1.162505,-2.309535 2.153269,-3.18974 0.418513,-0.316796 0.829985,-0.653103 1.284682,-0.918782 0.874715,-0.511093 2.07546,-1.575527 3.291869,-1.678807 0,0 -2.230017,1.676286 -2.230017,1.676286 v 0 c -0.886526,0.229513 -2.202752,1.15125 1.502394,-0.993122 0.135588,-0.07847 -0.270161,0.158877 -0.401661,0.244023 -0.300056,0.194286 -0.63463,0.440441 -0.923343,0.647943 -0.999943,0.822431 -1.883532,1.760231 -2.241405,3.040132 -0.159371,0.649443 -0.210367,0.763286 -0.280937,1.436544 -0.108199,1.032264 -0.04967,2.072537 -0.01466,3.106566 0.02995,0.612005 0.06095,1.223131 0.121103,1.833089 0.01299,0.131807 0.0318,0.263003 0.04458,0.394832 0.0071,0.07305 0.07769,0.181539 0.01497,0.21967 -0.810545,0.492887 -1.684972,0.872099 -2.527456,1.308148 0.02175,0.01003 0.04805,0.04671 0.06528,0.03006 0.03279,-0.03169 0.10737,-0.379899 0.110468,-0.394679 0.09049,-0.431448 0.154107,-0.868275 0.218983,-1.304065 0.08775,-0.918017 0.227444,-1.849364 0.05608,-2.766269 0,0 2.463906,-1.332431 2.463906,-1.332431 z"
       inkscape:connector-curvature="0"
       style="stroke-width:0.26458332" />
    <path
       id="path227"
       d="m 61.001682,59.901616 c 0.710549,-0.142542 1.428736,-0.232053 2.13352,-0.40494 0.888185,-0.418825 2.494103,-1.2354 -1.498997,0.891434 -0.07947,0.04233 0.142116,-0.111926 0.202811,-0.17844 0.139788,-0.153183 0.131837,-0.190177 0.19171,-0.373869 0.03338,-0.458513 -0.304316,-0.775989 -0.737955,-0.873533 -0.111921,-0.02519 -0.228767,-0.01746 -0.343151,-0.02619 -0.1254,0.02114 -0.253476,0.03011 -0.376201,0.06345 -0.134596,0.03656 -0.267144,0.08391 -0.392374,0.145317 -0.138211,0.06777 -0.531143,0.310888 -0.394282,0.240421 0.65641,-0.33796 1.269563,-0.765968 1.953784,-1.04335 0.166478,-0.06749 -0.252958,0.256353 -0.362908,0.398415 -0.111922,0.144608 -0.200409,0.305927 -0.300612,0.458888 -0.37098,0.728912 -0.63002,1.590718 -0.325411,2.393411 0.04706,0.12401 0.121161,0.235992 0.181742,0.353988 0.252273,0.356854 0.587029,0.448421 0.985084,0.561555 0,0 -2.279759,1.548132 -2.279759,1.548132 v 0 c -0.448961,-0.165954 -0.82695,-0.323032 -1.10078,-0.743423 -0.06842,-0.135345 -0.150953,-0.264438 -0.205264,-0.406038 -0.330959,-0.862859 -0.122507,-1.78998 0.244388,-2.601759 0.891516,-1.56918 1.145206,-1.308872 3.352427,-2.643484 0.393364,-0.237852 0.827669,-0.337177 1.283478,-0.318487 0.772149,0.167863 1.232632,0.437388 1.331348,1.274183 -0.02814,0.250262 -0.07927,0.600097 -0.321122,0.753597 -1.037346,0.658411 -2.0917,1.431171 -3.288297,1.800903 -0.723826,0.151945 -1.455179,0.262162 -2.179579,0.411154 0,0 2.2464,-1.681316 2.2464,-1.681316 z"
       inkscape:connector-curvature="0"
       style="stroke-width:0.26458332" />
    <path
       id="path229"
       d="m 68.5426,46.687104 c 0.204984,1.582195 0.500949,3.1535 0.77366,4.725649 0.35029,1.933329 0.64584,3.876101 0.946053,5.817703 0.123142,0.779503 0.182276,1.566731 0.296407,2.347204 0,0 -2.43835,1.281861 -2.43835,1.281861 v 0 c -0.08788,-0.790496 -0.124039,-1.585968 -0.23632,-2.374098 -0.260535,-1.950173 -0.538247,-3.899234 -0.896361,-5.834176 -0.283348,-1.558849 -0.579914,-3.114919 -0.925552,-4.661178 0,0 2.480463,-1.302965 2.480463,-1.302965 z"
       inkscape:connector-curvature="0"
       style="stroke-width:0.26458332" />
    <path
       id="path231"
       d="m 67.490051,55.064117 c 1.279443,0.08971 2.465125,-0.398412 3.631917,-0.853258 1.004839,-0.455101 2.015201,-0.891595 3.046494,-1.283104 0,0 -2.130322,1.669542 -2.130322,1.669542 v 0 c -1.020376,0.3903 -2.017418,0.832257 -3.020681,1.264139 -1.224664,0.466482 -2.473958,0.926396 -3.808931,0.822039 0,0 2.281523,-1.619358 2.281523,-1.619358 z"
       inkscape:connector-curvature="0"
       style="stroke-width:0.26458332" />
    <path
       id="path233"
       d="m 78.021565,55.191228 c 0.308121,0.995595 0.580578,2.001721 0.842439,3.010411 0.220702,0.587364 0.234072,1.574151 0.792541,1.966243 0.04331,0.08466 0.260535,-0.228558 0.182507,-0.188863 -0.759339,0.386308 -1.464861,0.874655 -2.231943,1.245349 -0.08938,0.0432 0.115109,-0.162015 0.166253,-0.247102 0.157359,-0.261811 0.195017,-0.368922 0.321189,-0.650166 0.221879,-0.498978 0.392094,-1.018786 0.525446,-1.547836 0.131382,-1.039022 0.0122,-0.344236 2.615989,-1.256451 0.06902,-0.02418 0.400849,1.020276 0.429561,1.107231 0.164735,0.440682 0.312989,0.88441 0.52075,1.306997 0,0 -2.415685,1.3702 -2.415685,1.3702 v 0 c -0.204364,-0.436189 -0.356931,-0.89004 -0.529445,-1.339405 -0.02244,-0.06321 -0.193759,-0.548315 -0.226475,-0.632606 -0.02793,-0.07197 -0.05535,-0.144441 -0.09041,-0.213217 -0.02723,-0.05341 -0.146013,-0.119359 -0.09585,-0.152188 2.202487,-1.44136 3.323746,-1.141233 2.336297,-1.387978 -0.207949,0.520266 -0.307951,1.082561 -0.557419,1.588116 -0.630563,1.612752 -0.659143,1.207122 -2.954409,2.568681 -0.121888,0.07231 -0.280712,-0.0447 -0.372641,-0.09271 -0.558176,-0.566333 -0.596062,-1.416857 -0.817407,-2.144117 -0.251724,-0.999358 -0.516837,-2.00002 -0.890452,-2.961725 0,0 2.44916,-1.348859 2.44916,-1.348859 z"
       inkscape:connector-curvature="0"
       style="stroke-width:0.26458332" />
    <path
       id="path235"
       d="m 83.627385,61.538521 c 0.133689,-1.228378 0.270232,-2.45482 0.478412,-3.673107 0.172402,-0.739939 0.349453,-1.50391 0.738272,-2.166744 0.175048,-0.298413 0.287726,-0.410792 0.505835,-0.669301 0.363358,-0.353306 0.178697,-0.185666 0.552953,-0.504058 0,0 2.56903,-1.03397 2.56903,-1.03397 v 0 c -0.384413,0.301204 -0.192651,0.145539 -0.574902,0.467463 -0.200975,0.208714 -0.376748,0.375362 -0.543552,0.616008 -0.432644,0.624174 -0.626841,1.379649 -0.814557,2.103546 -0.214405,1.19552 -0.364593,2.40207 -0.409739,3.616709 0,0 -2.501752,1.243454 -2.501752,1.243454 z"
       inkscape:connector-curvature="0"
       style="stroke-width:0.26458332" />
    <path
       id="path237"
       d="m 91.849174,56.166106 c 0.64166,0.691492 0.900385,1.600851 1.07846,2.503493 0.11933,0.592349 0.114703,1.19607 0.07062,1.795357 -0.841595,0.359341 -1.652984,0.79987 -2.524789,1.078023 -0.09047,0.02886 0.01685,-0.189383 0.03291,-0.282977 0.02043,-0.119022 0.04798,-0.23677 0.0764,-0.354142 0.117663,-0.485928 0.287171,-0.939427 0.474808,-1.402051 0.436213,-0.949677 0.973235,-1.851525 1.703874,-2.602579 0.972079,-0.715716 0.951106,-0.721037 2.928348,-1.54074 0.275389,-0.114168 1.066839,0.932431 1.188643,1.097248 0.759664,1.169625 1.194244,2.494934 1.472544,3.851183 0.197241,1.304472 0.105751,2.608228 -0.193511,3.886199 -0.181036,0.570056 -0.08696,0.299765 -0.278588,0.812134 0,0 -2.508681,1.160235 -2.508681,1.160235 v 0 c 0.214035,-0.502034 0.10696,-0.238869 0.318963,-0.790417 0.334875,-1.242303 0.457113,-2.512097 0.278027,-3.794175 -0.252153,-1.318982 -0.684477,-2.603463 -1.446279,-3.722084 -0.228981,-0.284964 -0.477538,-0.664012 -0.838986,-0.804331 -0.07139,-0.02772 -0.290271,0.01069 -0.227359,-0.03296 1.447263,-1.004321 3.009591,-1.680416 1.86282,-1.173546 -0.782693,0.689269 -1.325393,1.572276 -1.774584,2.507729 -0.23023,0.548092 -0.42156,1.086252 -0.535638,1.670841 -0.01519,0.07782 0.0283,0.191754 -0.03831,0.234759 -0.808286,0.521843 -1.67735,0.942909 -2.516026,1.414365 0.219083,-0.399619 0.09712,-1.290624 0.05584,-1.717768 -0.153059,-0.838366 -0.3775,-1.716071 -1.035992,-2.307688 0,0 2.376479,-1.486109 2.376479,-1.486109 z"
       inkscape:connector-curvature="0"
       style="stroke-width:0.26458332" />
    <path
       id="path239"
       d="m 114.00607,59.954982 c -0.31015,-0.7616 -0.96025,-1.309291 -1.62251,-1.762109 -0.27978,-0.125577 -0.43932,-0.239236 -0.75599,-0.224398 -0.1182,0.0055 -0.22937,0.05832 -0.34406,0.08747 0.68749,-0.375292 1.34895,-0.802769 2.06245,-1.125876 0.1441,-0.06526 -0.23748,0.212784 -0.32979,0.341239 -0.1169,0.162666 -0.1951,0.349916 -0.29265,0.524875 -0.46831,1.154538 -0.793,2.413799 -0.76447,3.670112 0.004,0.186457 0.0365,0.371218 0.0548,0.556829 0.0367,0.141348 0.0551,0.28879 0.11022,0.424045 0.0569,0.139599 0.16552,0.323305 0.35355,0.296873 0.0814,-0.01143 0.29072,-0.153101 0.21876,-0.11348 -2.26264,1.245793 -2.7289,1.624767 -1.75123,0.885862 0.83466,-0.770231 1.47814,-1.713635 2.13879,-2.629895 0.23783,-0.322238 0.44719,-0.663223 0.64366,-1.011695 0.036,-0.06384 0.0708,-0.128357 0.10642,-0.192389 0.0212,-0.03811 0.0247,-0.09543 0.0642,-0.114033 0.84012,-0.396213 1.70116,-0.746455 2.55174,-1.119682 -0.0246,0.589198 0.0166,1.162603 0.20415,1.723247 0.22302,0.658088 0.68139,1.140349 1.16819,1.610574 0.15326,0.13779 0.29905,0.280517 0.43321,0.436706 0,0 -2.40583,1.444545 -2.40583,1.444545 v 0 c -0.12262,-0.152453 -0.26328,-0.285612 -0.39977,-0.425749 -0.50265,-0.509651 -0.97187,-1.040608 -1.21987,-1.727136 -0.19949,-0.556585 -0.30489,-1.147953 -0.26837,-1.74126 0.83971,-0.437401 1.67941,-0.874802 2.51911,-1.312204 -0.0309,0.03078 -0.0663,0.05756 -0.0927,0.09233 -0.29729,0.392766 -0.46391,0.878964 -0.79436,1.250857 -0.67134,0.914453 -1.30611,1.861169 -2.0934,2.683045 -1.01343,0.946946 -0.64088,0.64639 -3.03254,1.817367 -0.18445,0.09031 -0.47877,-0.09819 -0.58351,-0.220546 -0.20647,-0.241207 -0.22107,-0.496411 -0.2913,-0.795753 -0.0172,-0.199618 -0.0484,-0.398518 -0.0517,-0.59885 -0.0209,-1.28161 0.28891,-2.562744 0.7002,-3.766113 0.053,-0.119978 0.358,-0.888492 0.52481,-0.996704 0.93333,-0.605478 2.25177,-1.93366 3.53842,-1.417897 0.13961,0.05597 0.26602,0.140464 0.39904,0.210695 0.70448,0.511644 1.37135,1.104493 1.76525,1.896568 0,0 -2.46291,1.342525 -2.46291,1.342525 z"
       inkscape:connector-curvature="0"
       style="stroke-width:0.26458332" />
    <path
       id="path241"
       d="m 125.06387,56.283113 c 0.28778,0.859475 0.36548,1.757807 0.4218,2.65624 0.0725,1.393904 0.0816,2.789935 -0.0169,4.182424 0,0 -2.43892,1.216224 -2.43892,1.216224 v 0 c 0.1418,-1.378392 0.12864,-2.763785 0.0393,-4.145907 -0.0678,-0.868527 -0.13616,-1.750708 -0.46816,-2.566459 0,0 2.46292,-1.342522 2.46292,-1.342522 z"
       inkscape:connector-curvature="0"
       style="stroke-width:0.26458332" />
    <path
       id="path243"
       d="m 120.72672,62.319479 c 2.51412,-1.514377 2.23479,-1.630273 4.43164,-1.633379 0.63012,-7.94e-4 1.29049,0.02697 1.89201,-0.197811 0.13155,-0.04916 0.25276,-0.122465 0.37913,-0.1837 -0.68464,0.385654 -1.36929,0.771308 -2.05394,1.156962 0,0 2.5803,-0.999297 2.5803,-0.999297 v 0 c -1.01906,0.587164 -1.95976,1.385803 -3.09446,1.695146 -0.62655,0.17081 -1.28595,0.135782 -1.92775,0.149463 -0.40634,0.01 -0.82175,0.0061 -1.22307,0.08214 -0.95182,0.180395 -2.51224,1.42335 1.62862,-1.091711 0,0 -2.61248,1.022192 -2.61248,1.022192 z"
       inkscape:connector-curvature="0"
       style="stroke-width:0.26458332" />
    <path
       id="path245"
       d="m 134.19818,46.141774 c 1.17382,1.312762 1.51904,3.139779 1.92218,4.799928 0.5498,2.510377 0.81819,5.062149 0.95409,7.624207 0.0111,0.274653 0.0235,0.549257 0.0333,0.823958 0.0153,0.431321 0.0209,0.735753 0.0316,1.155834 0.003,0.111049 0.006,0.222097 0.009,0.333145 0.008,0.05006 0.0192,0.09969 0.0229,0.150196 0.002,0.02692 -0.0118,-0.05268 -0.0177,-0.07902 -0.8169,0.419881 -1.60509,0.90107 -2.4507,1.259642 -0.0684,0.029 0.008,-0.148522 0.005,-0.222764 -0.003,-0.104616 -0.0126,-0.208978 -0.0219,-0.313237 -0.0329,-0.371277 -0.0983,-0.731388 -0.17016,-1.096664 -0.1419,-0.585615 -0.18724,-1.019286 0.1811,-1.520782 1.14526,-0.928381 2.45761,-2.107859 3.98344,-1.867109 0.78149,0.259461 1.25664,0.900996 1.6797,1.567246 0.37539,0.677532 0.61506,1.450956 0.57321,2.233731 -0.008,0.154983 -0.0408,0.307724 -0.0611,0.461584 -0.1819,0.690936 -0.58749,1.32896 -1.22523,1.684132 -0.91313,0.508542 -1.8387,0.994423 -2.75805,1.491636 -0.78163,0.148542 -1.54537,-0.04065 -2.29006,-0.267015 0,0 2.27021,-1.553697 2.27021,-1.553697 v 0 c 0.72166,0.197718 1.45759,0.351682 2.19315,0.118221 -0.66398,0.400513 -1.33552,0.788739 -1.99193,1.201537 -0.11496,0.07229 0.25249,-0.104426 0.36598,-0.179015 0.45747,-0.300675 0.77928,-0.780177 0.96223,-1.285332 0.0276,-0.140269 0.068,-0.278609 0.0827,-0.420804 0.0758,-0.732946 -0.15316,-1.460881 -0.50135,-2.095775 -0.38636,-0.595173 -0.82428,-1.196928 -1.5646,-1.342052 -0.24209,-0.0044 -0.30915,-0.02384 -0.54341,0.04316 -0.0917,0.02625 -0.34808,0.153639 -0.2667,0.103839 3.7653,-2.304497 2.50364,-1.456283 1.66919,-0.972595 -0.48211,0.399071 -0.43515,0.706823 -0.31571,1.294889 0.0914,0.477684 0.17709,0.954926 0.23465,1.438106 0.009,0.07653 0.0821,0.185697 0.0193,0.230401 -0.78309,0.557618 -1.63936,1.00456 -2.45904,1.506842 -0.12171,-0.216773 -0.0701,-0.408379 -0.0601,-0.657479 0.0269,-0.670039 0.0274,-1.340903 0.0216,-2.01133 -0.0625,-2.557182 -0.29819,-5.104072 -0.8809,-7.601186 -0.40034,-1.539044 -0.77466,-3.414427 -1.99911,-4.534336 0,0 2.36261,-1.502035 2.36261,-1.502035 z"
       inkscape:connector-curvature="0"
       style="stroke-width:0.26458332" />
    <path
       id="path247"
       d="m 148.14773,50.962782 c 0.14736,0.310779 0.30338,0.617333 0.45972,0.923652 0,0 -2.43176,1.381109 -2.43176,1.381109 v 0 c -0.14184,-0.306393 -0.28438,-0.613193 -0.45507,-0.904912 0,0 2.42711,-1.399849 2.42711,-1.399849 z"
       inkscape:connector-curvature="0"
       style="stroke-width:0.26458332" />
    <path
       id="path249"
       d="m 151.85428,62.23696 c -0.14223,0.897602 -0.3462,1.784297 -0.54755,2.670046 0,0 -2.40841,1.162026 -2.40841,1.162026 v 0 c 0.1827,-0.855906 0.37123,-1.716619 0.4492,-2.589559 0,0 2.50676,-1.242513 2.50676,-1.242513 z"
       inkscape:connector-curvature="0"
       style="stroke-width:0.26458332" />
  </g>
</svg>
