<?xml version="1.0" encoding="UTF-8" standalone="no"?>
<!-- Created with Inkscape (http://www.inkscape.org/) -->

<svg
   xmlns:dc="http://purl.org/dc/elements/1.1/"
   xmlns:cc="http://creativecommons.org/ns#"
   xmlns:rdf="http://www.w3.org/1999/02/22-rdf-syntax-ns#"
   xmlns:svg="http://www.w3.org/2000/svg"
   xmlns="http://www.w3.org/2000/svg"
   xmlns:sodipodi="http://sodipodi.sourceforge.net/DTD/sodipodi-0.dtd"
   xmlns:inkscape="http://www.inkscape.org/namespaces/inkscape"
   width="210mm"
   height="297mm"
   viewBox="0 0 210 297"
   version="1.1"
   id="svg58"
   inkscape:version="0.92.4 (5da689c313, 2019-01-14)"
   sodipodi:docname="logicgates.svg">
  <defs
     id="defs52" />
  <sodipodi:namedview
     id="base"
     pagecolor="#ffffff"
     bordercolor="#666666"
     borderopacity="1.0"
     inkscape:pageopacity="0.0"
     inkscape:pageshadow="2"
     inkscape:zoom="1.4"
     inkscape:cx="423.72521"
     inkscape:cy="888.39709"
     inkscape:document-units="mm"
     inkscape:current-layer="layer1"
     showgrid="false"
     inkscape:window-width="1850"
     inkscape:window-height="1016"
     inkscape:window-x="70"
     inkscape:window-y="27"
     inkscape:window-maximized="1" />
  <metadata
     id="metadata55">
    <rdf:RDF>
      <cc:Work
         rdf:about="">
        <dc:format>image/svg+xml</dc:format>
        <dc:type
           rdf:resource="http://purl.org/dc/dcmitype/StillImage" />
        <dc:title></dc:title>
      </cc:Work>
    </rdf:RDF>
  </metadata>
  <g
     inkscape:label="Layer 1"
     inkscape:groupmode="layer"
     id="layer1">
    <path
       id="path89"
       d="m 34.349589,83.686384 c 0.276413,1.47097 -0.516504,1.24428 -2.551012,2.024706 -0.08364,0.03208 -0.115274,-0.13716 -0.17291,-0.20574 -0.640268,-1.047626 -1.058225,-2.209459 -1.498754,-3.349884 -0.745368,-1.961661 -1.170405,-4.016288 -1.539774,-6.075252 -0.557811,-3.118641 -0.646057,-6.290606 -0.719193,-9.449633 -0.04073,-2.795987 -0.07191,-5.593755 0.03015,-8.388964 0.07553,-2.068687 0.130561,-2.550972 0.283527,-4.63382 0.291111,-3.46438 0.849953,-6.902981 1.669158,-10.281647 0.576247,-2.37663 0.83093,-3.10111 1.540286,-5.449446 1.511596,-4.604347 3.407192,-9.10473 5.894622,-13.273021 0.480732,-0.805579 1.009,-1.58182 1.513499,-2.372731 1.908217,-2.826803 4.106291,-5.475981 6.795579,-7.595694 2.010381,-1.584596 3.36544,-2.190446 5.816508,-3.599385 2.370997,-1.1173102 4.928777,-1.8990052 7.578637,-1.7786426 1.544974,0.070176 1.972377,0.2783494 3.441801,0.6884392 0.530712,0.2403864 1.080926,0.4416794 1.59213,0.7211584 1.611074,0.880783 3.036718,2.139584 4.217392,3.53668 1.077855,1.27543 1.449179,1.980483 2.342018,3.401338 1.980742,3.511818 3.106018,7.414223 3.846144,11.358004 0.165889,0.883933 0.292876,1.774724 0.439315,2.662086 0.795287,5.616028 1.244877,11.272528 1.700138,16.923867 0.42872,4.859501 0.753729,9.725297 0.94575,14.599708 0.151276,3.337462 0.115991,6.677824 0.07755,10.017101 -0.02764,1.856695 0.07042,3.708548 0.338343,5.545711 0.124794,0.891845 0.348904,1.814105 0.08581,2.697779 -0.04536,0.08911 -0.08221,0.183084 -0.13608,0.267314 -0.07597,0.118774 -0.268727,0.343276 -0.39274,0.418748 -1.628214,0.990886 -1.922655,1.253535 -3.145036,1.729082 -0.219048,0.139842 -0.509095,0.124026 -0.737018,0.233627 -0.0321,0.01542 -0.112696,0.08641 -0.08168,0.06888 0.784915,-0.443524 1.563301,-0.898509 2.344951,-1.347764 -0.124743,0.0362 -0.120994,0.08448 -0.193892,0.184579 -0.118766,0.131619 -0.0575,0.06446 -0.183906,0.201377 0,0 -2.580254,1.108167 -2.580254,1.108167 v 0 c 0.104209,-0.161938 0.04717,-0.09201 0.165875,-0.213965 0.02709,-0.02458 0.06822,-0.03233 0.09156,-0.0605 0.0319,-0.03851 0.0039,-0.164545 0.07637,-0.187336 0.826553,-0.480388 1.647682,-0.97024 2.479662,-1.44117 0.03268,-0.01849 0.07357,-0.01521 0.109924,-0.02463 0.238863,-0.06186 0.468892,-0.153443 0.698317,-0.242893 0.902862,-0.368581 2.205633,-1.175769 -1.628873,1.029602 -0.292341,0.168135 0.281075,-0.165523 0.432517,-0.32798 0.0624,-0.06693 0.105601,-0.149474 0.158398,-0.224211 0.04109,-0.08461 0.09443,-0.1643 0.123256,-0.253833 0.233366,-0.724879 -0.03207,-1.623036 -0.08261,-2.352913 -0.240614,-1.86908 -0.32077,-3.749918 -0.25745,-5.634141 0.09446,-3.356914 0.180618,-6.715074 0.06186,-10.072933 -0.143097,-4.888934 -0.431443,-9.769927 -0.8362,-14.644407 -0.434562,-5.6443 -0.888381,-11.292109 -1.708861,-16.896193 -0.150038,-0.881468 -0.280882,-1.76642 -0.450117,-2.644402 -0.753182,-3.90747 -1.889147,-7.772821 -3.880692,-11.240651 -0.893029,-1.39193 -1.272516,-2.095538 -2.347896,-3.340599 -1.176899,-1.362598 -2.595978,-2.589849 -4.192186,-3.437775 -0.505087,-0.268309 -1.047681,-0.459103 -1.571521,-0.688654 -1.456376,-0.389119 -1.857103,-0.583919 -3.384466,-0.635715 -2.613527,-0.08863 -5.127371,0.706282 -7.453902,1.831919 0.05887,-0.04578 0.238051,-0.179594 0.176607,-0.137335 -0.625232,0.430005 -1.266804,0.838086 -1.868255,1.300772 -2.725574,2.096745 -4.960509,4.734473 -6.893772,7.561961 -0.510122,0.78834 -1.04476,1.561345 -1.530368,2.365019 -2.504189,4.144411 -4.400283,8.632691 -5.909945,13.224498 -0.273794,0.907071 -0.564512,1.809205 -0.821383,2.721213 -1.189062,4.221737 -1.994157,8.549018 -2.330987,12.923729 -0.140378,2.025208 -0.199105,2.598343 -0.264568,4.610883 -0.09051,2.782596 -0.04769,5.567399 0.01945,8.349871 0.102598,3.130413 0.219297,6.274353 0.806564,9.359382 0.385252,2.03286 0.815885,4.065418 1.573723,5.998091 0.443407,1.095033 0.859107,2.224172 1.540118,3.198981 0.848985,0.671714 0.102865,0.01619 -2.248217,1.451118 -0.03346,0.02043 0.07742,0.05187 0.11248,0.03433 0.07086,-0.03544 0.0519,-0.274281 0.04948,-0.299466 -0.0066,-0.06881 -0.02524,-0.135927 -0.03787,-0.203888 0,0 2.462919,-1.342525 2.462919,-1.342525 z"
       inkscape:connector-curvature="0"
       style="stroke-width:0.26458332"
       inkscape:export-xdpi="96"
       inkscape:export-ydpi="96" />
    <path
       id="path91"
       d="m 33.303265,81.333387 c 1.403972,0.199157 2.815453,0.247044 4.231394,0.258516 2.500654,-0.0053 5.000117,-0.120557 7.498405,-0.22197 3.287993,-0.13586 6.561715,-0.4773 9.847922,-0.639352 2.263245,-0.08245 4.533651,-0.04215 6.777204,0.292383 1.370383,0.20433 1.644393,0.303811 2.968508,0.630037 2.181474,0.613148 4.293828,1.435441 6.4603,2.097108 1.186418,0.355137 2.40021,0.596956 3.61238,0.84282 0.955304,0.154141 1.911659,0.309372 2.873938,0.414718 0.107588,0.0099 0.214765,0.02658 0.322763,0.02979 0.04051,0.0013 0.410009,-0.01474 0.472329,-0.03895 0.0525,-0.0204 0.181125,-0.132916 0.13181,-0.105709 -2.215595,1.222325 -2.92077,1.868363 -2.148174,1.177245 0.261115,-0.402616 0.338979,-0.893215 0.448371,-1.353172 0.06367,-0.307935 0.185561,-0.640746 0.03991,-0.941247 0,0 2.448211,-1.387387 2.448211,-1.387387 v 0 c 0.17304,0.369532 0.138668,0.735406 0.02162,1.121571 -0.112223,0.489334 -0.211529,0.981779 -0.381817,1.454833 -0.734751,1.319236 -2.262264,1.852903 -3.610708,1.640527 -0.957913,-0.128323 -1.912699,-0.283898 -2.864935,-0.447897 -1.206312,-0.246761 -2.408886,-0.516654 -3.580852,-0.899115 -2.12733,-0.695328 -4.201909,-1.545844 -6.36011,-2.145321 -0.470458,-0.116157 -0.937252,-0.248322 -1.411377,-0.348472 -2.709757,-0.572392 -5.488998,-0.656823 -8.247928,-0.543991 -3.302905,0.175744 -6.593316,0.52537 -9.898147,0.673515 -2.521294,0.113064 -5.043453,0.239824 -7.567615,0.257043 -1.457298,-0.0026 -2.908509,-0.06417 -4.35983,-0.198012 0,0 2.276429,-1.619506 2.276429,-1.619506 z"
       inkscape:connector-curvature="0"
       style="stroke-width:0.26458332"
       inkscape:export-xdpi="96"
       inkscape:export-ydpi="96" />
    <path
       id="path93"
       d="m 40.622672,81.387835 c 1.027615,-0.687969 0.836041,-0.568473 2.904778,-1.673944 0.09,-0.04809 0.196858,-0.05603 0.297831,-0.07074 0.322945,-0.04704 0.474115,0.03952 0.704744,0.248896 0.04778,0.08966 0.109387,0.173228 0.143341,0.268983 0.235789,0.664964 0.02719,1.882296 -0.04447,2.567646 -0.244713,2.080284 -0.387596,4.168045 -0.473898,6.26027 -0.05958,2.347751 0.05617,4.694835 0.252185,7.033664 0.153273,2.038273 0.53947,4.04379 1.073523,6.01371 0,0 -2.359578,1.27909 -2.359578,1.27909 v 0 c -0.5007,-1.99846 -0.883348,-4.024296 -1.043125,-6.081236 -0.199308,-2.349187 -0.312272,-4.706471 -0.262099,-7.064819 0.07592,-2.081927 0.196501,-4.160599 0.390869,-6.235131 0.04784,-0.56928 0.217787,-1.834367 0.04612,-2.385396 -0.01881,-0.06038 -0.06064,-0.110998 -0.09096,-0.166497 -0.185222,-0.110546 -0.324864,-0.101772 -0.536739,-0.03782 -0.09203,0.02778 -0.35074,0.154627 -0.268907,0.104187 0.614177,-0.378552 2.975086,-1.770237 1.870263,-1.089382 0,0 -2.603881,1.02852 -2.603881,1.02852 z"
       inkscape:connector-curvature="0"
       style="stroke-width:0.26458332"
       inkscape:export-xdpi="96"
       inkscape:export-ydpi="96" />
    <path
       id="path95"
       d="m 64.297424,81.660883 c -1.207047,0.06475 -3.354355,1.526926 0.856036,-0.868837 -0.545158,0.306557 -0.470165,0.752843 -0.481095,1.316075 0.0089,1.824485 -0.02283,3.647681 -0.07581,5.471308 -0.10581,3.30118 -0.133451,6.604011 -0.151186,9.906609 -0.0088,2.183082 -0.0053,4.366162 0.0062,6.549222 0,0 -2.28201,1.16251 -2.28201,1.16251 v 0 c 0.01482,-2.18995 0.02246,-4.37993 0.03214,-6.56991 0.01508,-3.290729 0.03448,-6.581473 0.0745,-9.872011 0.02,-1.798281 0.02064,-3.596074 -0.06386,-5.393047 -0.0093,-0.341869 -0.08248,-0.912911 0.05496,-1.238018 0.05661,-0.133908 0.18003,-0.234251 0.279609,-0.331721 1.665623,-0.950457 2.346946,-1.620107 3.996946,-1.813496 0,0 -2.246399,1.681316 -2.246399,1.681316 z"
       inkscape:connector-curvature="0"
       style="stroke-width:0.26458332"
       inkscape:export-xdpi="96"
       inkscape:export-ydpi="96" />
    <path
       id="path97"
       d="m 54.918387,2.6215463 c 0.296992,-0.5245551 0.539602,-1.0744137 0.740526,-1.64198833 0.385393,-1.14255662 -0.498935,-0.24532256 2.627406,-1.51363125 0.08695,-0.0352726 0.230243,0.65497079 0.241307,0.70722462 0.158698,0.91518836 0.08084,1.83994646 -0.04238,2.75323476 -0.22933,1.109663 -0.397214,2.2270479 -0.490495,3.3560464 -0.02846,0.8556402 0.04308,1.710351 0.081,2.5646959 0.01278,0.6834314 0.05655,1.3668386 0.172771,2.0409066 0,0 -2.454532,1.304829 -2.454532,1.304829 v 0 c -0.122375,-0.686331 -0.168492,-1.384135 -0.175802,-2.080728 -0.03325,-0.8684054 -0.09755,-1.7368634 -0.07536,-2.6062914 0.09767,-1.1327847 0.248894,-2.2585796 0.488241,-3.3710075 0.12318,-0.8761471 0.204822,-1.767706 0.04362,-2.6453119 -0.03298,-0.1489791 -0.05552,-0.2947751 -0.116639,-0.4352326 -0.0087,-0.020081 -0.05893,-0.041315 -0.03992,-0.052186 0.80233,-0.45877929 1.637723,-0.85821049 2.438651,-1.31943129 0.03014,-0.0173564 -0.07232,-0.0467219 -0.100835,-0.0268156 -0.04317,0.0301325 -0.04413,0.0956002 -0.0662,0.14340022 -0.211051,0.56664486 -0.438322,1.12598979 -0.713576,1.66506137 0,0 -2.557791,1.1572252 -2.557791,1.1572252 z"
       inkscape:connector-curvature="0"
       style="stroke-width:0.26458332" />
    <path
       id="path99"
       d="m 36.764923,59.507458 c 0.235614,-0.829133 0.428945,-1.669669 0.628774,-2.507954 0.501825,-1.799047 0.874702,-3.628533 1.226344,-5.461627 0.320013,-1.866447 0.497186,-3.752037 0.849696,-5.613217 0.203496,-0.907209 0.536794,-1.78426 1.031446,-2.572586 0.618416,-0.901512 2.258441,-2.513103 2.984762,-1.493607 0.212384,0.403449 0.276961,0.885592 0.364143,1.329346 0.282623,1.780735 0.647904,3.54567 1.051584,5.302472 0.368747,1.527408 0.79256,3.046896 1.355037,4.51576 0.218618,0.570902 0.485117,1.155007 0.732859,1.714574 0.423278,0.876369 0.834409,1.758511 1.310341,2.607971 0.01728,0.05431 0.169177,0.271362 0.170863,0.272865 -2.516288,1.388274 -2.104091,2.233216 -2.530012,1.246418 0,0 2.455344,-1.377207 2.455344,-1.377207 v 0 c 0.387527,0.951241 0.05623,0.06379 -2.350066,1.597869 -0.06697,-0.11335 -0.111996,-0.238601 -0.172795,-0.355092 -0.415276,-0.889674 -0.815385,-1.78603 -1.214958,-2.682832 -0.85711,-2.04161 -1.561756,-4.138295 -2.059268,-6.298727 -0.425085,-1.739368 -0.821137,-3.485388 -1.184397,-5.238683 -0.08933,-0.395002 -0.16936,-0.827405 -0.353208,-1.188443 -0.01622,0.02723 -0.09016,0.08738 -0.06279,0.0714 4.606647,-2.689593 2.670723,-1.827975 2.058133,-1.137116 -0.562118,0.741246 -0.919136,1.61413 -1.159055,2.50893 -0.400759,1.863585 -0.599279,3.757507 -0.907248,5.637191 -0.336286,1.819474 -0.676371,3.640011 -1.142119,5.431803 -0.178343,0.830123 -0.365832,1.658533 -0.549617,2.487068 0,0 -2.533792,1.203428 -2.533792,1.203428 z"
       inkscape:connector-curvature="0"
       style="stroke-width:0.26458332"
       inkscape:export-xdpi="96"
       inkscape:export-ydpi="96" />
    <path
       id="path103"
       d="m 38.518295,51.512517 c 0.251161,0.590285 0.580332,0.733451 1.17942,0.841846 0.720013,0.04425 1.438952,0.09482 2.158868,0.147971 0.572862,0.02848 1.158594,0.09526 1.727287,-0.0217 0.310981,-0.06395 0.46405,-0.14832 0.749461,-0.273447 1.310543,-0.747996 -1.585293,0.905023 -1.774835,1.008735 -0.08536,0.0467 0.159054,-0.112361 0.234778,-0.173464 0.145497,-0.117409 0.272235,-0.25259 0.395081,-0.392581 0.690533,-0.870934 1.763974,-1.620647 2.881823,-1.611182 0.02379,5.29e-4 0.04757,0.0011 0.07135,0.0013 0,0 -2.27557,1.670254 -2.27557,1.670254 v 0 c -0.02064,0.0026 -0.04126,0.0053 -0.06189,0.0079 -0.07253,0.01582 -0.07396,0.01072 -0.140512,0.04769 -0.02024,0.01124 -0.0778,0.05013 -0.05782,0.03844 4.15036,-2.430171 2.934774,-1.818751 2.167022,-1.25536 -0.891566,1.162518 -2.310005,1.751943 -3.614518,2.364366 -0.856879,0.288156 -1.653561,0.280229 -2.546543,0.195289 -0.733655,-0.05212 -1.471932,-0.06998 -2.200216,-0.169158 -0.676167,-0.179213 -1.002038,-0.411488 -1.332831,-1.037895 0,0 2.439646,-1.389096 2.439646,-1.389096 z"
       inkscape:connector-curvature="0"
       style="stroke-width:0.26458332"
       inkscape:export-xdpi="96"
       inkscape:export-ydpi="96" />
    <path
       id="path105"
       d="m 50.589378,41.747688 c 0.08182,0.608187 0.312205,1.178187 0.476459,1.765538 0.190203,0.871159 0.241543,1.768756 0.309052,2.656467 0.04433,1.424017 -0.04623,2.847729 -0.165471,4.266028 -0.112596,1.234758 -0.24979,2.471351 -0.146838,3.710882 0.08448,0.542999 0.179001,1.074899 0.153831,1.625502 -0.01413,0.218876 -0.0067,0.11567 -0.02167,0.309644 0,0 -2.517405,1.248953 -2.517405,1.248953 v 0 c 0.02641,-0.190961 0.01349,-0.08955 0.03791,-0.30435 0.04553,-0.544563 -0.01201,-1.070571 -0.09723,-1.610575 -0.08891,-1.263332 0.06354,-2.521257 0.182332,-3.778239 0.12051,-1.398506 0.194908,-2.802059 0.146182,-4.206171 -0.072,-0.866786 -0.146031,-1.739509 -0.31683,-2.592761 -0.163889,-0.597328 -0.394063,-1.174072 -0.5221,-1.781715 0,0 2.481757,-1.309203 2.481757,-1.309203 z"
       inkscape:connector-curvature="0"
       style="stroke-width:0.26458332"
       inkscape:export-xdpi="96"
       inkscape:export-ydpi="96" />
    <path
       id="path107"
       d="m 48.683375,42.595389 c 0.545161,-0.24072 1.069753,-0.466926 1.646841,-0.208221 0.511725,0.384304 0.648851,1.135755 0.846685,1.713888 0.547701,1.412299 1.280208,2.741401 1.981642,4.080852 0.661307,1.252315 1.346218,2.491806 2.078172,3.704336 0.347094,0.497805 0.630095,1.054232 1.035458,1.509688 0.16783,0.231053 0.344522,0.43475 0.649168,0.416108 0.761029,-0.70307 -0.192527,0.193106 -2.17687,1.169117 -0.07521,0.03699 0.101423,-0.134948 0.137102,-0.210794 0.184658,-0.392541 0.22371,-0.842179 0.283363,-1.264592 0.09416,-1.068572 0.141735,-2.140862 0.251524,-3.208205 0.165796,-1.153692 0.298966,-2.30814 0.374179,-3.471492 0.07211,-1.269113 -0.102312,-2.527093 -0.435914,-3.748818 -0.16056,-0.613238 -0.362215,-0.960813 0.0072,-1.525521 0.06114,-0.06983 0.122288,-0.139655 0.183431,-0.209481 0,0 2.573363,-1.068681 2.573363,-1.068681 v 0 c -0.06379,0.05741 -0.127579,0.114826 -0.19137,0.172238 -0.0831,0.09622 -0.192005,0.173379 -0.254468,0.284112 -0.171874,0.304692 0.0757,0.733325 0.09771,1.037495 0.314454,1.256168 0.484735,2.545244 0.439925,3.842634 -0.05496,1.161788 -0.160266,2.317207 -0.332131,3.467846 -0.132027,1.066514 -0.187111,2.140572 -0.256093,3.212528 -0.159727,1.607513 -0.428821,3.255375 -2.997039,3.136091 -0.32835,-0.104619 -0.568367,-0.300033 -0.758362,-0.588645 -0.379804,-0.494369 -0.663641,-1.057984 -0.99891,-1.581907 -0.70331,-1.234321 -1.372765,-2.486999 -2.03539,-3.743478 -0.710694,-1.347206 -1.452597,-2.681068 -2.058394,-4.080127 -0.115068,-0.300924 -0.370986,-1.195043 -0.63055,-1.403723 -0.03934,-0.03163 -0.0888,-0.048 -0.133199,-0.072 -0.532289,-0.114382 -1.046718,0.159152 -1.505368,0.401052 0,0 2.178237,-1.762297 2.178237,-1.762297 z"
       inkscape:connector-curvature="0"
       style="stroke-width:0.26458332"
       inkscape:export-xdpi="96"
       inkscape:export-ydpi="96" />
    <path
       id="path109"
       d="m 63.776743,40.855635 c -0.232529,0.526404 -0.369644,1.077187 -0.48672,1.638099 -0.193902,1.130937 -0.31243,2.274475 -0.43352,3.415226 -0.189208,1.651923 -0.343265,3.311054 -0.346781,4.974791 0.01513,0.641752 0.04495,1.284745 0.133183,1.92111 0.0038,0.02384 0.0075,0.04772 0.01151,0.07153 0.02215,0.130945 0.0011,-0.0127 -0.02183,-7.93e-4 -0.835068,0.437851 -1.650479,0.912209 -2.475717,1.368314 -0.07339,-0.214093 -0.042,-0.09908 -0.08892,-0.346425 0,0 2.47356,-1.317188 2.47356,-1.317188 v 0 c 0.03291,0.189037 0.01246,0.106511 0.05425,0.249229 -0.889529,0.564505 -2.353593,2.466555 -2.446086,1.277366 -0.04383,-0.663945 -0.05673,-1.329854 -0.05724,-1.995085 0.03458,-1.671669 0.193138,-3.338454 0.34993,-5.002355 0.101386,-1.136536 0.201843,-2.274605 0.352161,-3.405614 0.106532,-0.559723 0.199033,-1.126032 0.448447,-1.64489 0,0 2.533793,-1.203429 2.533793,-1.203429 z"
       inkscape:connector-curvature="0"
       style="stroke-width:0.26458332"
       inkscape:export-xdpi="96"
       inkscape:export-ydpi="96" />
    <path
       id="path115"
       d="m 62.924446,39.530647 c 0.659863,-0.03583 1.261184,-0.322012 1.882444,-0.517869 0.732716,-0.173361 1.3047,0.181073 1.86355,0.610981 0.676307,0.573931 1.203328,1.271873 1.633961,2.041313 0.466389,0.993346 0.551151,2.100006 0.674524,3.175079 0.114162,1.450975 0.332861,2.891584 0.443306,4.342472 0.122312,1.219665 -0.111971,2.397331 -0.540898,3.532121 -0.196204,0.409048 -0.628285,1.430324 -1.025078,1.675455 -0.855429,0.528461 -1.737299,1.012873 -2.605947,1.519309 -0.660387,0.04375 -1.287211,-0.232092 -1.904606,-0.429429 -0.560099,-0.172617 -1.087715,-0.414353 -1.6104,-0.674444 -0.345336,-0.24103 -0.743693,-0.319376 -1.152271,-0.374163 -0.210253,-0.05602 -0.417766,-0.122317 -0.619722,-0.203351 0,0 2.344883,-1.571265 2.344883,-1.571265 v 0 c 0.183438,0.07268 0.371818,0.134106 0.567081,0.1661 0.424802,0.08376 0.830556,0.208843 1.196845,0.447818 0.501822,0.262276 1.020943,0.482158 1.561907,0.652417 0.566211,0.180454 1.200634,0.462939 1.789234,0.240549 -0.713898,0.424892 -1.427797,0.849783 -2.141693,1.274672 0.07998,-0.0598 0.167497,-0.110664 0.239942,-0.179398 0.39941,-0.378944 0.622216,-0.918456 0.874845,-1.39392 0.470178,-1.13501 0.71754,-2.194446 0.620027,-3.435734 -0.08891,-1.447434 -0.311454,-2.882939 -0.443087,-4.326948 -0.130542,-1.035455 -0.219522,-2.100873 -0.659455,-3.061933 -0.409906,-0.738266 -0.913233,-1.4063 -1.579996,-1.935628 -0.572625,-0.400354 -1.018025,-0.614362 -1.720284,-0.391528 -0.638294,0.210551 -1.27285,0.461048 -1.956067,0.464363 0,0 2.266955,-1.647039 2.266955,-1.647039 z"
       inkscape:connector-curvature="0"
       style="stroke-width:0.26458332"
       inkscape:export-xdpi="96"
       inkscape:export-ydpi="96" />
    <path
       id="path117"
       d="M 92.636998,85.483572 C 92.392266,84.880176 91.932529,84.403119 91.529886,83.902906 90.84389,83.022497 90.694109,81.926937 90.535,80.855576 c -0.237411,-1.667381 -0.374862,-3.348078 -0.488292,-5.027933 -0.114207,-2.072836 -0.116112,-4.149458 -0.171212,-6.224344 -0.07055,-2.961039 -0.102872,-5.922978 -0.06864,-8.884669 0.07241,-3.894963 0.515128,-7.770148 0.975386,-11.634581 0.545981,-4.524308 1.28202,-9.019976 2.155807,-13.491545 0.788699,-3.844145 1.86255,-7.637238 3.308956,-11.287976 0.274404,-0.692598 0.579302,-1.372723 0.868952,-2.059085 1.305587,-2.906964 2.865432,-5.736364 5.014183,-8.113327 0.36231,-0.400783 0.75943,-0.768658 1.13914,-1.152987 0.38671,-0.33313 0.75748,-0.685698 1.16012,-0.999388 0.38101,-0.296842 0.77348,-0.581619 1.1878,-0.829861 1.61144,-0.965515 2.9473,-1.8787478 4.67837,-2.4057407 1.13954,-0.3469105 1.33885,-0.3011387 2.5086,-0.396907 2.20332,-0.00225 4.00228,0.8605885 5.70988,2.1948487 0.36154,0.282496 0.70063,0.592611 1.05094,0.888917 2.30792,2.067029 4.28063,4.468037 6.16585,6.916494 2.22609,2.927684 3.91945,6.194494 5.47088,9.514469 1.10681,2.510306 2.11876,5.065355 2.94657,7.682161 0.54355,1.718217 0.6827,2.323229 1.14588,4.065217 1.06816,4.076258 1.42336,8.210828 1.57268,12.405447 0.13097,3.777517 -0.083,7.549748 -0.46917,11.305709 -0.32776,2.950718 -0.93842,5.85638 -1.61051,8.744429 -0.54358,2.186617 -1.13666,4.361741 -1.77584,6.522402 -0.42063,1.321065 -0.90172,2.623204 -1.47476,3.885856 -0.20968,0.493536 -0.46053,0.966603 -0.78873,1.391103 -0.0415,0.05591 -0.0903,0.106058 -0.1325,0.16138 -0.01,0.01294 -0.009,0.04941 -0.0236,0.0427 -0.0162,-0.0074 -0.0245,-0.02596 -0.0367,-0.03891 -0.0441,-0.03809 -0.0399,0.01437 -0.0408,0.04507 0,0 -2.50795,1.314638 -2.50795,1.314638 v 0 c -0.0126,-0.06989 -0.018,-0.14102 -0.0378,-0.209542 -0.005,-0.02606 -0.0152,-0.05175 -0.0138,-0.07816 5.3e-4,-0.0084 0.2132,-0.0876 0.20502,-0.142558 0.37512,-0.392229 0.66355,-0.85226 0.88072,-1.349806 0.61684,-1.254125 1.11511,-2.562289 1.56592,-3.884361 0.67199,-2.161088 1.27569,-4.343863 1.84063,-6.535169 0.69488,-2.889213 1.33812,-5.794086 1.6923,-8.748434 0.1447,-1.312741 0.25378,-2.195399 0.35114,-3.518152 0.19053,-2.588535 0.23747,-5.187772 0.18484,-7.782107 -0.13679,-4.15803 -0.47885,-8.322276 -1.53716,-12.361518 -0.45906,-1.728574 -0.601,-2.345534 -1.14104,-4.049985 -0.82591,-2.606707 -1.84348,-5.148123 -2.95171,-7.646475 -1.5611,-3.295444 -3.26294,-6.536737 -5.4961,-9.436438 -1.88646,-2.42872 -3.85794,-4.812 -6.17837,-6.843932 -0.34934,-0.288593 -0.68715,-0.591756 -1.04804,-0.865778 -1.68995,-1.283167 -3.46127,-2.0816016 -5.61598,-2.0357122 -1.1456,0.1208472 -1.34126,0.081331 -2.45389,0.4454212 -0.41483,0.135746 -0.83644,0.699129 -1.2165,0.484499 -0.33545,-0.189439 1.27534,-0.8619329 0.97469,-0.621056 -0.37921,0.303815 -0.80764,0.540499 -1.21146,0.810749 -0.39423,0.328865 -0.78846,0.657731 -1.18269,0.986597 -0.38775,0.379685 -0.79322,0.74208 -1.16325,1.139057 -2.19344,2.35317 -3.79183,5.178586 -5.12963,8.083819 -0.294584,0.684713 -0.604737,1.362934 -0.883751,2.054138 -1.467212,3.634763 -2.545572,7.419948 -3.335345,11.256255 -0.872067,4.458176 -1.596104,8.941758 -2.123014,13.454845 -0.445154,3.844685 -0.871628,7.700775 -0.916969,11.575024 -0.01588,2.946193 0.03737,5.892511 0.139499,8.836998 0.07386,2.063533 0.107963,4.128313 0.215561,6.190427 0.115443,1.668645 0.254611,3.338926 0.50491,4.993318 0.16416,1.01718 0.317434,2.061381 0.983832,2.888241 0.421669,0.519563 0.87513,1.026163 1.172577,1.631284 0,0 -2.44453,1.37292 -2.44453,1.37292 z"
       inkscape:connector-curvature="0"
       style="stroke-width:0.26458332"
       inkscape:export-xdpi="96"
       inkscape:export-ydpi="96" />
    <path
       id="path119"
       d="m 92.894387,82.752993 c 0.286343,-0.939369 0.664112,-1.846596 1.004364,-2.766963 0.523134,-1.503471 1.109016,-2.984044 1.727848,-4.450373 1.003903,-2.345801 2.269299,-4.557594 3.673583,-6.682957 1.028698,-1.440775 2.199358,-2.775273 3.530288,-3.944186 0.78571,-0.690057 1.23611,-1.011857 2.06686,-1.646844 1.78149,-1.283403 3.70197,-2.350172 5.62526,-3.404033 0.5709,-0.312823 1.76756,-0.854118 2.38318,-1.080524 0.39071,-0.143685 0.79398,-0.250563 1.19096,-0.375844 1.91363,-0.496361 3.89515,-0.454456 5.76009,0.224936 0.35545,0.12949 0.69445,0.300321 1.04168,0.45048 1.73111,0.917593 3.18853,2.251511 4.2612,3.891851 0.22206,0.339569 0.41094,0.699709 0.6164,1.049565 1.23398,2.36106 1.5245,5.005176 1.72708,7.618889 0.11308,1.927603 0.18391,3.857543 0.34482,5.781958 0.0464,0.871923 0.1061,1.753042 -0.0538,2.616454 -0.0304,0.215765 -0.14434,0.403211 -0.21376,0.605194 -10e-4,0.0105 -0.002,0.02103 -0.003,0.03155 0,0 -2.63572,1.03552 -2.63572,1.03552 v 0 c 0.008,0.0043 0.0158,0.0086 0.0237,0.01291 0.18368,-0.02904 0.24508,-0.355872 0.31734,-0.479197 0.25109,-0.831821 0.16476,-1.719361 0.16264,-2.57614 -0.11814,-1.942078 -0.15619,-3.887464 -0.24931,-5.830895 -0.1825,-2.576198 -0.45776,-5.183328 -1.68468,-7.505644 -0.2025,-0.341805 -0.38896,-0.693637 -0.6075,-1.025412 -1.05472,-1.601168 -2.48901,-2.891438 -4.19474,-3.766248 -0.34069,-0.14197 -0.67334,-0.305001 -1.02206,-0.42591 -1.84063,-0.638189 -3.78539,-0.626298 -5.65272,-0.110107 -1.19988,0.398735 -1.1844,0.356309 -2.34921,0.89721 -0.39856,0.185079 -0.76743,0.737878 -1.18027,0.587291 -0.38351,-0.139891 1.37157,-0.883103 1.04657,-0.636061 -0.70889,0.538861 -1.57167,0.853993 -2.24245,1.451734 -0.82757,0.623295 -1.28804,0.949457 -2.07435,1.623936 -1.33938,1.148887 -2.51884,2.463048 -3.55852,3.887917 -0.59657,0.890669 -0.90393,1.320662 -1.44657,2.246561 -0.823747,1.405525 -1.536905,2.875198 -2.191892,4.36562 -0.60075,1.452641 -1.157356,2.923161 -1.670211,4.409217 -0.319313,0.902695 -0.701567,1.78594 -0.938856,2.715117 0,0 -2.533793,1.203429 -2.533793,1.203429 z"
       inkscape:connector-curvature="0"
       style="stroke-width:0.26458332"
       inkscape:export-xdpi="96"
       inkscape:export-ydpi="96" />
    <path
       id="path121"
       d="m 102.20728,63.229778 c 0.17445,0.401836 0.37391,0.79153 0.61226,1.159324 0.45616,0.673611 0.63859,1.478003 0.80925,2.26073 0.37109,1.881666 0.62336,3.781901 0.83744,5.686782 0.33096,3.154556 0.32798,6.328519 0.35249,9.496063 -0.008,2.894417 0.071,5.785725 0.32315,8.66939 0.13489,1.283845 0.26837,2.567651 0.37923,3.853799 0,0 -2.45808,1.271341 -2.45808,1.271341 v 0 c -0.0471,-1.306015 -0.16022,-2.608093 -0.25914,-3.910917 -0.19877,-2.909411 -0.22921,-5.824064 -0.22527,-8.739576 -0.0345,-3.145129 -0.0552,-6.296883 -0.42904,-9.42485 -0.23743,-1.881291 -0.51302,-3.757591 -0.91974,-5.610984 -0.17837,-0.74426 -0.37862,-1.505913 -0.82322,-2.141982 -0.24436,-0.376555 -0.439889,-0.778577 -0.638973,-1.180024 0,0 2.439643,-1.389096 2.439643,-1.389096 z"
       inkscape:connector-curvature="0"
       style="stroke-width:0.26458332"
       inkscape:export-xdpi="96"
       inkscape:export-ydpi="96" />
    <path
       id="path123"
       d="m 120.22643,59.408422 c -0.70674,0.606925 -0.96802,1.507037 -1.14732,2.386393 -0.24003,1.829472 0.002,3.681503 0.16162,5.50844 0.23438,2.79704 0.35532,5.601621 0.49596,8.404405 0.12361,3.013654 0.584,5.993593 1.0915,8.961636 0.5128,2.794881 1.07952,5.579755 1.48877,8.392276 0.14052,0.975736 0.23083,1.957237 0.31708,2.938843 0,0 -2.3796,1.234414 -2.3796,1.234414 v 0 c -0.0577,-0.987489 -0.12236,-1.974797 -0.24593,-2.956804 -0.36977,-2.821098 -0.91631,-5.61259 -1.4406,-8.408262 -0.51221,-2.976422 -0.98597,-5.964147 -1.1078,-8.987345 -0.14721,-2.790492 -0.27983,-5.58273 -0.54813,-8.365017 -0.18448,-1.833694 -0.45758,-3.686307 -0.27867,-5.530143 0.13913,-0.90978 0.37213,-1.820124 0.99398,-2.529737 0,0 2.59914,-1.049099 2.59914,-1.049099 z"
       inkscape:connector-curvature="0"
       style="stroke-width:0.26458332"
       inkscape:export-xdpi="96"
       inkscape:export-ydpi="96" />
    <path
       id="path125"
       d="m 111.23341,9.1972343 c 0.24544,-1.0489319 0.29018,-2.1311626 0.33625,-3.2033934 0.0236,-0.5887337 0.0279,-1.1778838 0.0306,-1.7669833 0,0 2.44116,-1.2395478 2.44116,-1.2395478 v 0 c -0.0137,0.5940436 -0.0261,1.1881279 -0.0444,1.7820542 -0.0409,1.0732424 -0.0811,2.1496372 -0.24424,3.2127984 0,0 -2.51943,1.2150719 -2.51943,1.2150719 z"
       inkscape:connector-curvature="0"
       style="stroke-width:0.26458332"
       inkscape:export-xdpi="96"
       inkscape:export-ydpi="96" />
    <path
       id="path127"
       d="m 103.47891,36.113521 c -0.10967,0.399743 -0.0466,0.81276 -0.10437,1.21653 -0.11593,0.443148 -0.39348,0.818015 -0.61666,1.210657 -0.29696,0.522428 -0.33098,0.611791 -0.61244,1.176978 -0.68974,1.52605 -1.1171,3.16272 -1.204,4.838292 -0.0191,0.367372 -0.005,0.735717 -0.007,1.103575 0.0886,1.19167 0.31131,2.486567 1.28362,3.302936 0.53523,0.449392 0.79006,0.445969 1.4479,0.634678 0.28757,0.004 0.57645,0.03988 0.8627,0.01212 0.63965,-0.06203 1.27489,-0.274103 1.84729,-0.558014 0.31521,-0.156339 1.2518,-0.609063 0.90672,-0.540385 -1.24036,0.246856 -2.10763,1.399199 -0.68109,-0.154186 1.19425,-1.669227 1.48073,-3.166385 1.12561,-5.182076 -0.0685,-0.388911 -0.18147,-0.768665 -0.27221,-1.152998 -0.54123,-1.755114 -1.2916,-3.531529 -2.58921,-4.873131 -0.19869,-0.205417 -0.42842,-0.378338 -0.64263,-0.567507 -0.92214,-0.659122 -1.96444,-0.793311 -3.06218,-0.698987 0,0 2.20911,-1.622544 2.20911,-1.622544 v 0 c 1.14181,-0.02082 2.2065,0.186724 3.12907,0.912432 0.21584,0.203218 0.44722,0.391104 0.64752,0.609655 1.28537,1.402501 2.04409,3.208986 2.6123,4.996664 0.0964,0.392298 0.21362,0.780063 0.28925,1.176891 0.39381,2.066295 0.16118,3.618857 -1.0156,5.377291 -1.46578,1.716619 -0.55564,0.811035 -3.80461,2.840506 -1.15214,0.719679 -2.4133,1.140131 -3.77868,0.933804 -0.70784,-0.240922 -0.96354,-0.246549 -1.530852,-0.757113 -0.990092,-0.891053 -1.237626,-2.234121 -1.330585,-3.495003 -7.93e-4,-0.37484 -0.01775,-0.749983 -0.0027,-1.124519 0.06791,-1.684851 0.45733,-3.336417 1.097471,-4.893421 0.361106,-0.779891 0.763716,-1.532826 1.167436,-2.28922 0.12586,-0.386942 0.004,-0.800005 0.11104,-1.195655 0,0 2.5179,-1.238252 2.5179,-1.238252 z"
       inkscape:connector-curvature="0"
       style="stroke-width:0.26458332"
       inkscape:export-xdpi="96"
       inkscape:export-ydpi="96" />
    <path
       id="path129"
       d="m 115.58797,35.528689 c -0.009,0.561342 -0.002,1.119558 -0.0588,1.678546 -0.11824,1.149635 -0.16421,2.306391 -0.20196,3.46108 -0.0311,1.703065 -0.007,3.406492 0.0142,5.10952 0.0269,0.974894 0.0388,1.946748 -0.0348,2.919462 -0.0254,0.01037 -0.0362,0.642573 -0.0392,0.64406 -2.60518,1.329235 -2.33577,2.089925 -2.62143,0.96946 -0.0103,-0.09508 -0.0206,-0.190149 -0.0309,-0.285224 0,0 2.4671,-1.294204 2.4671,-1.294204 v 0 c 0.011,0.08376 0.0221,0.167526 0.0331,0.251288 0.18085,1.044382 0.0396,0.0057 -2.46535,1.424681 -0.0286,0.01619 0.0534,0.07209 0.0816,0.05523 0.0255,-0.01521 0.0752,-0.508772 0.0877,-0.528833 0.12002,-0.97292 0.12719,-1.948894 0.11633,-2.928493 0.003,-1.707742 -0.004,-3.41545 -0.003,-5.123196 0.0113,-1.146111 0.0292,-2.294739 0.10636,-3.438361 0.058,-0.54625 0.0793,-1.09149 0.0488,-1.641027 0,0 2.50035,-1.27399 2.50035,-1.27399 z"
       inkscape:connector-curvature="0"
       style="stroke-width:0.26458332"
       inkscape:export-xdpi="96"
       inkscape:export-ydpi="96" />
    <path
       id="path133"
       d="m 114.43566,36.19673 c 0.0775,-0.02641 0.157,-0.04747 0.23246,-0.0792 0.23055,-0.09693 0.74339,-0.408075 0.496,-0.266637 -3.80509,2.175515 -2.50679,1.516851 -1.74041,0.951243 0.33228,-0.300619 0.52561,-0.713189 0.79599,-1.06594 0.9038,-0.887968 2.25069,-1.461862 3.27668,-2.01205 0.19323,-0.103622 0.66339,-0.192125 0.87211,-0.204592 0.1584,-0.0095 0.31719,0.01066 0.47578,0.01601 1.28198,0.262501 1.69906,0.978564 2.13238,2.133378 0.41658,1.425303 0.39561,2.913534 0.32349,4.381482 -0.12005,1.097631 -0.17576,2.261896 -0.67043,3.27276 -0.0724,0.148029 -0.16613,0.284671 -0.2492,0.427006 -0.0942,0.113819 -0.17613,0.238974 -0.28254,0.34145 -0.0991,0.09543 -0.20959,0.181213 -0.32975,0.248216 -0.91545,0.510487 -1.82581,1.033876 -2.77329,1.482138 -0.2033,0.09619 -1.10636,0.02598 -1.35327,0.01582 -0.66203,-0.07458 -1.32062,-0.176879 -1.97911,-0.2775 -0.33212,-0.151532 -0.266,-0.440116 -0.11619,-0.703273 0.6891,-1.032825 2.11889,-1.487787 3.08033,-2.034363 0.37389,-0.09155 0.73354,-0.103484 1.09673,0.02503 0.68253,0.405082 1.23084,1.001188 1.78926,1.556882 0.88473,0.861875 1.75025,1.738461 2.53033,2.696842 0.50731,0.67708 1.02585,1.342123 1.67504,1.889692 0.22917,0.235328 0.56584,0.282199 0.80424,0.495556 0.0583,0.05486 0.10221,0.119981 0.13682,0.191461 0,0 -2.4846,1.360588 -2.4846,1.360588 v 0 c -0.0109,-0.02135 -0.0257,-0.04142 -0.0441,-0.05675 -0.2476,-0.185517 -0.56468,-0.279455 -0.77186,-0.524642 -0.63285,-0.582784 -1.15477,-1.258395 -1.65687,-1.954696 -0.76867,-0.954816 -1.62749,-1.824517 -2.51839,-2.665691 -0.54016,-0.510513 -1.07612,-1.101614 -1.76715,-1.402844 -0.3346,-0.05476 -0.67846,-0.01154 -0.98676,0.134389 0.75444,-0.439258 1.51097,-0.874966 2.26333,-1.317773 0.0436,-0.02564 -0.0934,0.03972 -0.13652,0.06603 -0.1686,0.102791 -0.29619,0.274291 -0.43662,0.408668 -0.0218,0.03017 -0.14395,0.240988 -0.18795,0.244623 -0.041,0.0034 -0.11974,-0.08776 0.0267,-0.01844 0.63297,0.12257 1.27061,0.231428 1.91453,0.274571 0.30884,0.0043 0.5868,0.01884 0.89452,-0.01921 0.13648,-0.01688 0.51653,-0.159573 0.40485,-0.07934 -0.62784,0.451051 -1.3264,0.794832 -1.97857,1.209927 -0.11396,0.07254 0.25258,-0.102704 0.36245,-0.181293 0.117,-0.08368 0.20685,-0.19993 0.31028,-0.299897 0.0914,-0.131387 0.19383,-0.255784 0.2743,-0.394158 0.56017,-0.963247 0.62337,-2.123355 0.75399,-3.2018 0.0784,-1.428728 0.1008,-2.878777 -0.30047,-4.267334 -0.39687,-1.049171 -0.78084,-1.697922 -1.97417,-1.837849 -0.42746,0.02474 -0.47043,-2.1e-5 -0.8825,0.133514 -0.13592,0.04405 -0.51732,0.23895 -0.39668,0.162398 3.63443,-2.306193 2.21842,-1.343998 1.44198,-0.803473 -0.30961,0.338257 -0.50144,0.739696 -0.76826,1.108633 -1.06353,0.992098 -2.46006,1.579224 -3.77118,2.194089 0,0 2.19231,-1.753639 2.19231,-1.753639 z"
       inkscape:connector-curvature="0"
       style="stroke-width:0.26458332"
       inkscape:export-xdpi="96"
       inkscape:export-ydpi="96" />
    <path
       id="path135"
       d="m 148.44222,76.911776 c 0.0716,-0.691243 0.31877,-1.324819 0.63609,-1.936118 0.75024,-1.258464 1.61775,-2.443977 2.4451,-3.652504 1.63918,-2.300645 2.99064,-4.781801 4.28043,-7.289316 1.91882,-3.839247 3.72975,-7.731368 5.57866,-11.604635 2.01946,-4.09216 4.0228,-8.191587 5.99195,-12.308155 1.59431,-3.378848 2.98245,-6.848874 4.40194,-10.303248 0.81078,-2.011007 1.76347,-3.952846 2.87189,-5.814963 0.57867,-0.930362 1.12925,-1.877453 1.68618,-2.820817 0.30439,-0.505086 0.61994,-1.004136 0.96753,-1.480774 0.69775,-0.864644 1.40479,-0.9634 2.71229,-1.659736 0.0496,-0.02642 0.32359,0.05975 0.38362,0.069 0.23554,0.03189 0.47267,0.04842 0.71001,0.05909 0.38038,0.01893 0.13977,0.37883 0.057,0.519554 -0.1823,0.378013 -0.11278,0.719107 0.0782,1.07259 0.5191,0.741219 0.98064,1.513739 1.40942,2.310615 0.93004,1.900892 1.74205,3.855215 2.51028,5.825989 1.30101,3.380275 2.19083,6.896172 3.03913,10.411243 0.66074,2.780546 1.31704,5.565524 2.13185,8.306065 0.52181,1.755034 0.69174,2.196055 1.2801,3.917161 1.14734,3.340584 2.72093,6.502964 4.36098,9.62242 1.30484,2.350349 2.41051,4.80237 3.43312,7.286204 0.64997,1.520714 1.1645,3.097892 1.90237,4.579689 0.26112,0.587994 0.75318,0.993309 1.154,1.473766 0.18215,0.198821 0.21929,0.423021 0.1666,0.67804 -0.0476,0.03357 -0.0321,0.03114 -0.0573,-0.101532 -0.009,-0.04825 0.0843,-0.165065 0.0413,-0.141446 -0.72043,0.395124 -3.1662,1.825845 -2.27082,1.302168 0.10397,-0.03578 0.15595,-0.127085 0.20688,-0.217247 2.5416,-1.258197 2.95271,-1.867064 2.24502,-0.475562 -0.11274,0.216657 -0.16955,0.451753 -0.21589,0.689462 0,0 -2.51582,1.230225 -2.51582,1.230225 v 0 c 0.036,-0.258812 0.0791,-0.517361 0.18082,-0.760126 0.57564,-1.282383 0.72053,-0.988592 2.86897,-1.883122 -0.0295,0.133916 -0.0933,0.256207 -0.14688,0.381524 -0.79262,0.665268 -0.27739,0.239276 -2.556,1.492723 -0.15263,0.08396 -0.33029,-0.200924 -0.33215,-0.313962 0.0823,-0.178562 0.12916,-0.275815 -0.0195,-0.441018 -0.4004,-0.505209 -0.86812,-0.959488 -1.12106,-1.568241 -0.70152,-1.510358 -1.19251,-3.104076 -1.82362,-4.644062 -0.98305,-2.493555 -2.07127,-4.946528 -3.35317,-7.302661 -1.61996,-3.147267 -3.17783,-6.333173 -4.30741,-9.696302 -0.59283,-1.757431 -0.74277,-2.145916 -1.27004,-3.937429 -0.80761,-2.744041 -1.47364,-5.527902 -2.1487,-8.306572 -0.86701,-3.489825 -1.78251,-6.979907 -3.12982,-10.32111 -0.79599,-1.943206 -1.63853,-3.868281 -2.61097,-5.730864 -0.4472,-0.787029 -0.93533,-1.543199 -1.46761,-2.274988 -0.24014,-0.414201 -0.3514,-0.817847 -0.21892,-1.291906 0.0803,-0.247452 0.0738,-0.348541 0.2658,-0.04883 0.0108,0.01687 -0.21664,0.0017 -0.0601,-2.91e-4 -0.23641,-0.02278 -0.47256,-0.04764 -0.70858,-0.07412 -0.0661,-0.0044 -0.16263,-0.01751 -0.23043,0.0011 -0.0279,0.0077 -0.10199,0.05461 -0.077,0.03996 4.66378,-2.737107 2.74832,-1.782052 2.07848,-1.174114 -0.40155,0.437879 -0.68792,0.970453 -1.02158,1.459146 -0.57245,0.956092 -1.14425,1.912673 -1.74661,2.850418 -1.15639,1.866078 -2.17061,3.807409 -3.01506,5.83639 -1.47041,3.466393 -2.88903,6.956597 -4.49871,10.361829 -1.9846,4.116176 -3.98942,8.222038 -6.01555,12.317987 -1.82954,3.852637 -3.61455,7.726201 -5.47441,11.564241 -1.24924,2.495145 -2.55132,4.971037 -4.14803,7.265834 -0.79426,1.190704 -1.61658,2.364806 -2.36377,3.585565 -0.31301,0.570923 -0.59419,1.165907 -0.63258,1.827514 0,0 -2.5179,1.238255 -2.5179,1.238255 z"
       inkscape:connector-curvature="0"
       style="stroke-width:0.26458332"
       inkscape:export-xdpi="96"
       inkscape:export-ydpi="96" />
    <path
       id="path137"
       d="m 150.01681,75.52011 c 0.7858,-0.344345 1.63122,-0.466058 2.47783,-0.544343 1.80117,0.03215 3.60154,0.0291 5.40313,0.01188 2.7945,-0.03929 5.58782,-0.133582 8.38237,-0.178347 3.15599,-0.0437 6.31234,-0.04948 9.46858,-0.05146 3.2173,-0.0013 6.43377,-0.09255 9.65064,-0.139726 2.87792,-0.03519 5.75546,-0.04006 8.63255,-0.120724 2.05262,-0.06315 4.10399,-0.142716 6.15744,-0.09199 1.13402,0.03139 2.24147,0.277275 3.35111,0.486415 0.46259,0.111419 0.92158,0.236646 1.38513,0.344231 0.054,0.01286 0.10824,0.02429 0.16272,0.03465 0,0 -2.33163,1.607548 -2.33163,1.607548 v 0 c -0.0499,-0.01625 -0.1001,-0.03176 -0.15055,-0.04639 -0.44032,-0.129953 -0.88105,-0.260657 -1.32889,-0.362408 -1.07984,-0.224467 -2.16227,-0.454485 -3.26954,-0.488365 -2.02465,-0.06431 -4.04882,-0.0013 -6.07335,0.04843 -2.86416,0.06519 -5.72864,0.05753 -8.59329,0.08856 -3.21675,0.04507 -6.43304,0.136779 -9.65022,0.135332 -3.15948,0.0065 -6.31912,0.01066 -9.47825,0.06371 -2.8117,0.05541 -5.62186,0.159652 -8.43345,0.214346 -1.82797,0.03361 -3.65674,0.02911 -5.48357,0.07874 -0.85458,0.106979 -1.69486,0.274768 -2.48343,0.635847 0,0 2.20467,-1.725925 2.20467,-1.725925 z"
       inkscape:connector-curvature="0"
       style="stroke-width:0.26458332"
       inkscape:export-xdpi="96"
       inkscape:export-ydpi="96" />
    <path
       id="path139"
       d="m 175.62937,10.801417 c -0.10256,-0.705095 -0.47246,-0.526363 -1.00651,-0.338896 -1.37188,0.738039 0.98461,-0.5990659 1.49549,-0.8647528 0.16837,-0.087564 -0.31598,0.2111748 -0.46391,0.3300614 -0.48371,0.3887434 -0.79132,0.7852764 -1.11946,1.3038584 -0.47468,1.056595 -0.31454,2.053761 0.4228,2.955662 0.17705,0.216569 0.39303,0.39815 0.58955,0.597225 0.25452,0.17706 0.49376,0.378402 0.76356,0.531179 1.18531,0.671206 2.58406,0.913247 3.92835,0.722066 0.3161,-0.04495 0.62265,-0.141674 0.93397,-0.21251 0.2666,-0.119107 1.05065,-0.506756 0.79979,-0.357322 -0.53587,0.319211 -1.05972,0.690415 -1.65756,0.868289 -0.2233,0.06644 0.33771,-0.325109 0.47193,-0.515529 0.46805,-0.664006 0.45464,-1.149777 0.4336,-1.917229 -0.1893,-1.01578 -0.57408,-2.142113 -1.49387,-2.733895 -0.13156,-0.08465 -0.285,-0.129115 -0.4275,-0.193672 -0.14768,-0.01493 -0.29496,-0.05495 -0.44306,-0.0448 -0.7413,0.05078 -3.18547,1.612165 1.04039,-0.769012 0,0 -2.55887,0.985109 -2.55887,0.985109 v 0 c 0.29975,-0.171449 2.57805,-1.8935055 3.77026,-1.7939237 0.166,0.013867 0.32408,0.077234 0.48612,0.1158515 0.15123,0.085842 0.31377,0.1542862 0.4537,0.2575266 0.93408,0.6891296 1.35245,1.8459836 1.57781,2.9363626 0.044,0.627988 0.11561,0.832997 -0.0645,1.445644 -0.55175,1.877086 -2.83526,2.688379 -4.50914,3.323756 -0.31637,0.05735 -0.6292,0.139821 -0.94911,0.172046 -1.75422,0.176711 -3.45686,-0.341751 -4.8401,-1.421717 -0.2098,-0.211241 -0.43931,-0.404593 -0.62942,-0.633722 -0.79467,-0.957767 -1.028,-2.043823 -0.59482,-3.209052 0.0948,-0.171683 0.17527,-0.352137 0.28448,-0.51505 0.97325,-1.451865 3.04187,-2.3997823 4.49328,-3.0471089 0.7742,-0.157125 1.08396,-0.079123 1.29448,0.7143519 0,0 -2.48176,1.309203 -2.48176,1.309203 z"
       inkscape:connector-curvature="0"
       style="stroke-width:0.26458332"
       inkscape:export-xdpi="96"
       inkscape:export-ydpi="96" />
    <path
       id="path141"
       d="m 166.42576,51.025713 c -0.0298,0.991304 -0.0425,1.983417 -0.0226,2.974961 0.065,2.171259 0.15266,4.34139 0.20236,6.513137 0.0159,2.748659 0.11899,5.49519 0.17879,8.242787 -0.0337,1.322276 0.12752,2.70751 -0.25574,3.993962 0,0 -2.51496,1.171173 -2.51496,1.171173 v 0 c 0.55001,-1.226161 0.34485,-2.667569 0.43273,-3.970473 -0.004,-2.752952 -0.0954,-5.506132 -0.13748,-8.258709 -0.0777,-2.152999 -0.20911,-4.302516 -0.31555,-6.454103 -0.0441,-0.979289 -0.0371,-1.959065 -0.0679,-2.938745 0,0 2.50035,-1.27399 2.50035,-1.27399 z"
       inkscape:connector-curvature="0"
       style="stroke-width:0.26458332"
       inkscape:export-xdpi="96"
       inkscape:export-ydpi="96" />
    <path
       id="path143"
       d="m 166.0611,49.874177 c 0.12882,0.648698 0.39031,1.264889 0.59379,1.893581 0.44928,1.745713 0.9156,3.485517 1.42311,5.215271 0.68824,2.275567 1.62463,4.46442 2.60929,6.624637 0.63767,1.37005 1.24303,2.757734 1.98149,4.077565 0.18778,0.251143 0.35276,0.598543 0.62853,0.777015 0.0421,0.02724 0.0976,0.05075 0.14581,0.03701 0.0438,-0.01246 0.12924,-0.124706 0.0888,-0.103814 -0.77249,0.398886 -1.52893,0.828124 -2.2934,1.242187 0.0434,-0.101172 0.0987,-0.198004 0.13005,-0.303514 0.19187,-0.645698 0.2217,-1.364398 0.26445,-2.029926 0.0496,-0.77262 0.0621,-1.364737 0.0875,-2.14611 0.0848,-2.528678 0.18427,-5.05696 0.38232,-7.579545 0.20452,-1.910776 0.43163,-3.81948 0.38574,-5.743818 -0.0304,-0.478536 -0.0453,-0.959337 -0.14011,-1.430795 -0.0412,-0.204796 -0.10177,-0.391573 -0.11927,-0.599977 0,0 2.51381,-1.260957 2.51381,-1.260957 v 0 c -0.0561,0.193471 0.0195,0.373113 0.0513,0.568106 0.0806,0.49408 0.0852,0.993653 0.10144,1.4929 0.008,1.94617 -0.22209,3.875696 -0.45165,5.805948 -0.21998,2.514476 -0.33101,5.036188 -0.37829,7.559752 -0.0182,1.512488 0.0202,3.050061 -0.26547,4.541237 -2.32861,1.465754 -2.38851,2.406163 -3.50782,0.536892 -0.69972,-1.349888 -1.28554,-2.755122 -1.90985,-4.140623 -0.96503,-2.182643 -1.8767,-4.393057 -2.59786,-6.669908 -0.52818,-1.709094 -1.03446,-3.42428 -1.54509,-5.138647 -0.22223,-0.637657 -0.47577,-1.265902 -0.66036,-1.915263 0,0 2.48176,-1.309204 2.48176,-1.309204 z"
       inkscape:connector-curvature="0"
       style="stroke-width:0.26458332"
       inkscape:export-xdpi="96"
       inkscape:export-ydpi="96" />
    <path
       id="path145"
       d="m 175.64268,56.518928 c -0.006,-0.637048 -0.37202,-0.753678 -0.93651,-0.773792 -0.12704,0.03142 -0.25995,0.0448 -0.3811,0.09427 -0.14428,0.0589 -0.54602,0.300648 -0.40817,0.227967 0.62752,-0.330851 1.21106,-0.758788 1.87727,-1.00253 0.2103,-0.07694 -0.32357,0.311343 -0.46426,0.485564 -0.44427,0.550156 -0.52561,0.797028 -0.85498,1.440537 -0.58746,1.492546 -0.97424,3.190406 -0.54576,4.782904 0.0719,0.267073 0.19671,0.51698 0.29507,0.77547 0.14022,0.207426 0.25515,0.434401 0.42065,0.622276 0.88836,1.008478 2.1509,1.104742 3.39765,1.11238 0.6166,-0.07361 0.90296,-0.06976 1.489,-0.289986 0.23095,-0.08679 0.8798,-0.44623 0.66531,-0.324321 -2.91105,1.654524 -1.76885,1.132983 -1.18095,0.38031 0.15812,-0.202438 0.27129,-0.436274 0.40694,-0.65441 0.0948,-0.264052 0.21588,-0.52011 0.2845,-0.792157 0.40729,-1.61489 0.0256,-3.29623 -0.41133,-4.856541 -0.39099,-1.063271 -0.80083,-2.283002 -1.71834,-3.026908 -0.0987,-0.08004 -0.21491,-0.13572 -0.32236,-0.20358 -0.2798,-0.258977 -0.73994,-0.07629 -1.03072,-0.289756 -0.0538,-0.03948 -0.0914,-0.09722 -0.1371,-0.145831 -0.12513,-0.193355 -0.16456,-0.411273 -0.20614,-0.63269 0,0 2.47048,-1.311809 2.47048,-1.311809 v 0 c 0.0242,0.160652 0.0394,0.325657 0.12493,0.468294 0.28126,0.19314 0.85312,0.134919 1.10834,0.427881 0.11156,0.08583 0.23172,0.161499 0.33467,0.257477 0.89594,0.835258 1.31386,2.067348 1.70904,3.187464 0.52494,1.900733 0.939,3.905293 0.25422,5.823215 -0.12664,0.234714 -0.23077,0.483052 -0.37992,0.704146 -0.81598,1.20954 -2.07682,1.58627 -3.422,2.3427 -0.67607,0.380175 -1.46195,0.475451 -2.22047,0.514308 -0.26557,-0.01013 -0.53229,-0.0036 -0.7967,-0.03039 -1.0329,-0.104621 -2.06058,-0.478628 -2.74383,-1.299167 -0.17272,-0.207428 -0.29224,-0.453898 -0.43837,-0.680847 -0.10303,-0.275294 -0.23323,-0.541896 -0.30911,-0.825876 -0.43624,-1.632609 -0.0802,-3.376393 0.46926,-4.929992 0.31299,-0.685003 0.36671,-0.892175 0.78841,-1.49139 0.84112,-1.195197 1.59834,-1.297035 3.23748,-2.246984 0.14297,-0.08286 0.30266,-0.137592 0.46328,-0.176435 0.14155,-0.03423 0.28999,-0.0272 0.43499,-0.0408 0.12312,0.0209 0.24974,0.02689 0.36937,0.06275 0.47955,0.143738 0.76271,0.559903 0.80761,1.042294 0,0 -2.50035,1.27399 -2.50035,1.27399 z"
       inkscape:connector-curvature="0"
       style="stroke-width:0.26458332"
       inkscape:export-xdpi="96"
       inkscape:export-ydpi="96" />
    <path
       id="path147"
       d="m 184.98882,54.057301 c 0.39681,1.260062 0.69041,2.547088 0.95343,3.840572 0.45217,2.26083 0.65091,4.559887 0.87404,6.851325 0.18194,1.512162 0.20921,3.039475 0.37662,4.552357 -0.001,-0.175805 0.0573,0.683935 0.1675,0.523089 0.0259,-0.03779 0.0503,-0.157657 0.009,-0.137123 -0.79904,0.400656 -1.56115,0.871085 -2.34172,1.306626 0,0 2.58979,-1.098253 2.58979,-1.098253 v 0 c -0.86849,0.51843 -2.35303,2.155782 -2.77165,1.235024 -0.0732,-0.160991 -0.0792,-0.392424 -0.0964,-0.55677 -0.10806,-1.534636 -0.0896,-3.078589 -0.26512,-4.609595 -0.20164,-2.279745 -0.39892,-4.56665 -0.89264,-6.806303 -0.28315,-1.267804 -0.57914,-2.538997 -1.05236,-3.75209 0,0 2.44916,-1.348859 2.44916,-1.348859 z"
       inkscape:connector-curvature="0"
       style="stroke-width:0.26458332"
       inkscape:export-xdpi="96"
       inkscape:export-ydpi="96" />
    <path
       id="path149"
       d="m 178.35138,52.115516 c 0.78268,-0.279617 1.61606,-0.346562 2.43878,-0.402821 1.30088,-0.05416 2.60165,-0.05685 3.90226,-0.121896 0.96364,-0.06992 1.96053,-0.322096 2.896,0.01961 0.26383,0.156943 0.36241,0.393229 0.46863,0.664292 0,0 -2.44089,1.355143 -2.44089,1.355143 v 0 c -0.0704,-0.203745 -0.12245,-0.358 -0.3315,-0.455602 -0.90604,-0.26347 -1.85498,-0.01259 -2.77647,0.01955 -1.30635,0.06007 -2.61434,0.06085 -3.91948,0.145872 -0.8361,0.07911 -1.66844,0.190532 -2.45991,0.487133 0,0 2.22258,-1.71128 2.22258,-1.711281 z"
       inkscape:connector-curvature="0"
       style="stroke-width:0.26458332"
       inkscape:export-xdpi="96"
       inkscape:export-ydpi="96" />
    <path
       id="path151"
       d="m 179.46412,0.96740222 c -0.0335,1.09740658 0.0827,2.19464378 0.19577,3.28488238 0.13515,1.2624387 0.3011,2.5259609 0.24328,3.7972671 -0.0145,0.1609397 -0.0289,0.3218794 -0.0434,0.4828191 0,0 -2.46075,1.2223671 -2.46075,1.2223671 v 0 c 0.0183,-0.1588014 0.0365,-0.317603 0.0548,-0.4764043 0.10129,-1.260697 -0.0538,-2.5177657 -0.19184,-3.7709826 -0.12612,-1.0861503 -0.24343,-2.1753573 -0.29452,-3.2678161 0,0 2.4967,-1.27213268 2.4967,-1.27213268 z"
       inkscape:connector-curvature="0"
       style="stroke-width:0.26458332"
       inkscape:export-xdpi="96"
       inkscape:export-ydpi="96" />
    <path
       id="path155"
       d="m 177.3075,75.27427 c -0.72041,0.459155 -0.94037,0.909481 -1.2104,1.701834 -0.41613,1.515081 -0.37983,3.095699 -0.37319,4.652198 0.002,2.106131 0.10654,4.209899 0.17705,6.314368 0.11171,1.95526 0.16138,3.914153 0.28152,5.868787 0.0939,0.976971 0.10278,1.964533 0.27397,2.932485 0.28067,1.306227 0.46956,0.225102 -2.35228,1.716987 0.0193,-0.06675 0.0249,-0.03162 0.0552,0.02598 0,0 2.4655,-1.398016 2.4655,-1.398016 v 0 c 0.0328,0.06284 0.0521,0.095 0.0309,0.1641 -2.3329,1.330965 -2.39767,2.296652 -2.6592,0.794393 -0.14658,-0.994074 -0.11976,-2.003536 -0.20024,-3.003947 -0.0909,-1.964415 -0.12299,-3.931547 -0.24322,-5.89485 -0.0668,-2.103046 -0.18226,-4.204401 -0.20074,-6.308791 -0.0265,-1.567403 -0.082,-3.152204 0.26477,-4.692957 0.22454,-0.794681 0.3933,-1.341729 1.07783,-1.850382 0,0 2.61247,-1.022189 2.61247,-1.022189 z"
       inkscape:connector-curvature="0"
       style="stroke-width:0.26458332"
       inkscape:export-xdpi="96"
       inkscape:export-ydpi="96" />
  </g>
</svg>
