<?xml version="1.0" encoding="UTF-8" standalone="no"?>
<!-- Created with Inkscape (http://www.inkscape.org/) -->

<svg
   xmlns:dc="http://purl.org/dc/elements/1.1/"
   xmlns:cc="http://creativecommons.org/ns#"
   xmlns:rdf="http://www.w3.org/1999/02/22-rdf-syntax-ns#"
   xmlns:svg="http://www.w3.org/2000/svg"
   xmlns="http://www.w3.org/2000/svg"
   xmlns:sodipodi="http://sodipodi.sourceforge.net/DTD/sodipodi-0.dtd"
   xmlns:inkscape="http://www.inkscape.org/namespaces/inkscape"
   width="210mm"
   height="297mm"
   viewBox="0 0 210 297"
   version="1.1"
   id="svg8"
   inkscape:export-filename="/home/edward/Desktop/CAT125Project/resources/NAND_cmos.png"
   inkscape:export-xdpi="96"
   inkscape:export-ydpi="96"
   inkscape:version="0.92.4 (5da689c313, 2019-01-14)"
   sodipodi:docname="nand_cmos.svg">
  <defs
     id="defs2" />
  <sodipodi:namedview
     id="base"
     pagecolor="#ffffff"
     bordercolor="#666666"
     borderopacity="1.0"
     inkscape:pageopacity="0.0"
     inkscape:pageshadow="2"
     inkscape:zoom="0.98994949"
     inkscape:cx="371.35241"
     inkscape:cy="875.75072"
     inkscape:document-units="mm"
     inkscape:current-layer="layer1"
     showgrid="false"
     inkscape:window-width="1529"
     inkscape:window-height="857"
     inkscape:window-x="120"
     inkscape:window-y="77"
     inkscape:window-maximized="0" />
  <metadata
     id="metadata5">
    <rdf:RDF>
      <cc:Work
         rdf:about="">
        <dc:format>image/svg+xml</dc:format>
        <dc:type
           rdf:resource="http://purl.org/dc/dcmitype/StillImage" />
        <dc:title></dc:title>
      </cc:Work>
    </rdf:RDF>
  </metadata>
  <g
     inkscape:label="Layer 1"
     inkscape:groupmode="layer"
     id="layer1">
    <path
       id="path3715"
       d="m 53.367947,12.173734 c 1.217507,-0.677538 2.425706,-1.372075 3.652518,-2.032612 0.288165,-0.1551537 0.742267,-0.1586194 0.981334,0.09032 0.06866,0.0715 0.110612,0.164529 0.165917,0.246794 0.328589,1.248552 0.194189,2.7031 0.179216,3.989845 -0.145629,2.718577 -0.167881,5.440121 -0.07022,8.160495 0.114845,2.130433 0.44754,4.242427 0.862325,6.332977 0.305659,1.462717 0.545197,2.937565 0.678251,4.425947 0.104915,1.402739 0.141216,2.809147 0.177223,4.214942 0.03769,0.478539 0.0096,0.956082 -0.103161,1.422027 -0.147497,1.392378 -2.474767,2.692643 -3.625673,2.05877 -0.08191,-0.04511 -0.146566,-0.116231 -0.221837,-0.171714 -0.06818,0.0057 -0.167301,-0.191934 -0.228621,-0.182608 -0.0136,0.0021 -0.0088,0.02609 -0.0132,0.03912 -0.01476,0.0021 -0.02953,0.0041 -0.0443,0.0061 -0.01564,5.29e-4 -0.03126,0.0011 -0.04689,0.0016 0,0 3.272218,-2.293689 3.272218,-2.293689 v 0 c 0.02016,0.0067 0.04031,0.01339 0.06047,0.02008 0.129291,0.06054 0.217861,0.175442 0.345345,0.24076 0.05179,0.01945 0.213026,-0.04337 0.165245,-0.01548 -1.102108,0.64326 -4.564197,2.106025 -3.298552,1.943031 0.304691,-0.331338 0.261689,-0.897083 0.284617,-1.304179 0.01064,-1.404715 -0.0013,-2.811134 -0.112384,-4.212293 -0.141404,-1.477995 -0.384281,-2.940503 -0.648274,-4.401201 -0.380654,-2.129846 -0.664596,-4.280069 -0.778224,-6.441755 -0.08202,-2.710424 -0.07066,-5.422617 -0.006,-8.13333 -0.02627,-1.22435 0.01423,-2.482467 -0.238326,-3.685162 -0.206145,-0.239949 -0.600636,0.0142 -0.837462,0.08585 1.049089,-0.610589 2.098178,-1.221178 3.147269,-1.831767 0,0 -3.698851,1.426999 -3.698851,1.426999 z"
       inkscape:connector-curvature="0"
       style="stroke-width:0.26458332" />
    <path
       id="path3721"
       d="m 53.189846,39.817238 c -1.478931,-0.526304 -3.095488,-0.405829 -4.63845,-0.37192 -2.434527,0.09218 -4.850956,0.421495 -7.283416,0.536411 -1.221211,-0.01458 -2.525281,0.167611 -3.710524,-0.216463 -1.995155,-0.953511 1.643716,-1.854555 2.899354,-2.57284 0.418306,0.354999 0.897305,0.616246 1.326822,0.956408 0.690398,0.616526 0.739764,1.573276 0.851072,2.434822 0.156051,2.287763 0.239128,4.581192 0.307528,6.873349 0.120459,3.15283 0.01024,6.306545 -0.06006,9.458973 -0.07902,3.09273 -0.173233,6.18613 -0.299307,9.277419 -0.06991,1.587971 -0.158369,3.175473 -0.180766,4.765061 -0.04676,0.385106 0.01553,0.678016 0.179456,1.016569 0.264613,0.506661 0.501309,0.595352 0.99154,0.294923 1.267782,-0.90373 -0.272524,0.208079 -2.751244,1.521785 -0.136612,0.0724 0.2402,-0.195072 0.353859,-0.299889 0.372187,-0.343231 0.715322,-0.716926 1.087496,-1.061088 1.616191,-1.238295 3.412437,-2.452748 5.437,-2.846385 0.60843,-0.118298 0.960376,-0.138819 1.585034,-0.202255 1.991719,-0.170799 3.979148,-0.372637 5.962467,-0.622853 1.433632,-0.199409 2.863104,-0.506727 4.314804,-0.520623 0.599474,0.01225 1.104717,-0.03019 1.45569,0.515038 0.05318,0.09278 0.08373,0.193365 0.110257,0.295923 0,0 -3.538276,1.855528 -3.538276,1.855528 v 0 c 0.009,-0.05163 0.0086,-0.09804 -0.01156,-0.148143 -0.19708,-0.331163 -0.857261,-0.168656 -1.152729,-0.228991 -1.415423,0.04937 -2.810814,0.31198 -4.213127,0.492588 -1.992101,0.230407 -3.988623,0.415038 -5.981583,0.63651 -0.642176,0.0885 -0.96379,0.113128 -1.582809,0.271508 -0.218033,0.05579 -0.433488,0.1227 -0.644943,0.199752 -0.186688,0.06803 -0.715785,0.341093 -0.547854,0.234889 0.928886,-0.587459 1.890619,-1.121298 2.835931,-1.681948 -0.143764,0.09442 -0.287531,0.188836 -0.431298,0.283252 -0.370215,0.31904 -0.41198,0.340278 -0.749009,0.688317 -0.03258,0.03364 -0.603808,0.664027 -0.653888,0.695777 -3.135717,1.987995 -2.412595,1.664888 -3.996936,2.334408 -0.694238,0.07854 -0.984446,-0.164219 -1.323933,-0.746781 -0.208661,-0.405813 -0.337936,-0.751943 -0.230153,-1.219793 0.14595,-1.621681 0.26802,-3.245482 0.389155,-4.869166 0.190174,-3.093625 0.274883,-6.194571 0.353142,-9.292667 0.06776,-3.140173 0.18298,-6.282473 0.03445,-9.422304 -0.0939,-2.252245 -0.220829,-4.504651 -0.464547,-6.746158 -0.118193,-0.743376 -0.156589,-1.613292 -0.762069,-2.138471 -0.367284,-0.273495 -0.811967,-0.638604 -1.252898,-0.740778 1.122194,-0.67269 2.276139,-1.295035 3.366577,-2.018064 0.04973,-0.03298 -0.0742,-0.09351 -0.109844,-0.141362 -0.0042,-0.0056 0.364384,0.239488 0.349792,0.195019 1.132528,0.298588 2.324666,0.229142 3.483388,0.219871 2.429856,-0.107481 4.844994,-0.420848 7.275846,-0.521456 1.638495,-0.04725 3.331363,-0.150276 4.908333,0.385273 0,0 -3.287774,2.191025 -3.287774,2.191025 z"
       inkscape:connector-curvature="0"
       style="stroke-width:0.26458332" />
    <path
       id="path3723"
       d="m 34.349348,37.052855 c 0.507556,0.0048 0.97363,0.05497 1.327854,0.443323 0.302903,0.38255 0.288928,0.868699 0.293225,1.331979 -0.0053,1.580671 0.133479,3.15832 0.210573,4.736594 0.116909,2.947668 0.15411,5.897967 0.183976,8.847603 0.02201,2.695972 0.01376,5.390841 0.101468,8.085656 0.03787,2.326945 0.466804,4.609521 0.897659,6.887051 0.128561,0.841857 0.517113,1.696432 0.387051,2.560995 -0.02432,0.05758 -0.0365,0.12197 -0.07296,0.172747 -0.02904,0.04044 -0.07424,0.0675 -0.117369,0.09236 -1.180095,0.680289 -2.357731,1.365256 -3.550925,2.022298 -1.053899,0.58034 4.188743,-2.369114 3.132714,-1.792653 0,0 -3.669895,1.513224 -3.669895,1.513224 v 0 c 0.837263,-1.28121 0.265517,-0.457785 3.646625,-2.190647 1.11833,-0.573156 -2.176013,1.257641 -3.262045,1.889863 -0.08224,0.04788 0.350409,-0.210537 0.278863,-0.06119 0.03401,-0.02737 0.08211,-0.04326 0.102039,-0.0821 0.264668,-0.515792 -0.196213,-1.818037 -0.222547,-2.345876 -0.363635,-2.315292 -0.774099,-4.628858 -0.834241,-6.978597 -0.09034,-2.702901 -0.08759,-5.405506 -0.07469,-8.109804 -0.0155,-2.934817 -0.03328,-5.871959 -0.229238,-8.80151 -0.119673,-1.552485 -0.319595,-3.098263 -0.410128,-4.651939 -0.01132,-0.343696 0.03228,-0.754755 -0.171434,-1.050821 -0.3033,-0.241015 -0.756062,-0.185002 -1.111816,-0.12201 0,0 3.165234,-2.396541 3.165234,-2.396541 z"
       inkscape:connector-curvature="0"
       style="stroke-width:0.26458332" />
    <path
       id="path3725"
       d="m 28.939291,50.23518 c -0.924623,0.710303 -1.497573,1.703467 -1.96062,2.750521 -0.326351,0.929981 -0.633488,2.047169 -0.155766,2.988987 0.07781,0.153395 0.195339,0.283155 0.29301,0.424733 0.723987,0.66007 1.741644,0.855411 2.686669,0.604219 0.180502,-0.04798 0.347298,-0.137525 0.520946,-0.206288 -0.955656,0.529484 -1.885484,1.10853 -2.866964,1.58845 -0.156051,0.07631 0.267584,-0.226767 0.369652,-0.367324 0.114737,-0.158001 0.206997,-0.334468 0.273339,-0.518117 0.281503,-0.779283 0.244919,-1.641502 0.245795,-2.452934 -0.04257,-0.971002 -0.161486,-1.938674 -0.388956,-2.884411 -0.109527,-0.455377 -0.236165,-0.950597 -0.490593,-1.35546 -0.08505,-0.135327 -0.21123,-0.23993 -0.316844,-0.359897 -0.337436,-0.07882 -0.356931,-0.148796 -0.681487,0.04241 -0.133281,0.07852 -0.499423,0.361188 -0.361698,0.290753 0.980881,-0.501636 1.899173,-1.124481 2.898565,-1.58814 0.179366,-0.08322 -0.277024,0.282567 -0.40653,0.43198 -0.129765,0.149712 -0.247091,0.309766 -0.370639,0.464648 -0.103383,0.148836 -0.206769,0.297672 -0.310155,0.446508 0,0 -3.552366,1.552189 -3.552366,1.552189 v 0 c 0.103314,-0.157917 0.206628,-0.315836 0.309942,-0.473755 1.410695,-1.885122 1.110018,-1.286042 4.461561,-3.280005 0.48963,-0.291301 0.912177,-0.199806 1.346925,0.121888 0.112593,0.154302 0.246374,0.295182 0.33778,0.462907 0.240948,0.442124 0.367062,0.976299 0.474424,1.459362 0.215342,0.968883 0.344723,1.955739 0.420415,2.944688 0.03469,1.022422 0.150395,2.223487 -0.321497,3.175694 -0.71891,1.450657 -3.37256,2.23362 -4.133234,2.670894 -1.348668,0.329825 -2.457369,0.194083 -3.485971,-0.808818 -0.114054,-0.170309 -0.24981,-0.327943 -0.342162,-0.510934 -0.516012,-1.022445 -0.272494,-2.222331 0.0529,-3.256415 0.427198,-1.066038 0.938801,-2.07668 1.778264,-2.883405 0,0 3.675299,-1.474928 3.675299,-1.474928 z"
       inkscape:connector-curvature="0"
       style="stroke-width:0.26458332" />
    <path
       id="path3727"
       d="m 6.3674677,51.553115 c 1.0858283,-2.65e-4 2.1653145,0.05372 3.241386,0.200882 1.3278133,0.264231 2.6574423,0.520906 4.0007333,0.69219 1.730436,0.139327 3.464138,0.243906 5.197331,0.349059 1.530061,0.04115 3.052965,0.191961 4.579687,0.290433 0.814821,0.0029 1.649307,0.158647 2.459119,0.02916 0.514509,-0.10269 1.035188,-0.170292 1.558341,-0.207505 1.722975,-0.102328 1.416521,-0.714235 -2.77375,2.315162 0,0 3.231278,-2.343856 3.231278,-2.343856 v 0 c -3.622599,2.740395 -1.843457,2.265452 -3.638383,2.381469 -0.515845,0.05188 -1.026506,0.136914 -1.541292,0.19658 -0.812468,0.01876 -1.623122,-0.06841 -2.432575,-0.127277 C 18.741314,55.200533 17.233782,55.07098 15.721184,55.007853 13.975389,54.895389 12.227397,54.80964 10.484836,54.656129 9.1350326,54.482129 7.8003415,54.221382 6.4608677,53.983318 5.3657682,53.866234 4.268313,53.818953 3.1672768,53.878193 c 0,0 3.2001909,-2.325073 3.2001909,-2.325073 z"
       inkscape:connector-curvature="0"
       style="stroke-width:0.26458332" />
    <path
       id="path3729"
       d="m 61.567488,69.219825 c -0.556903,1.194345 -0.749678,2.494299 -0.902563,3.789804 -0.149587,2.293036 -0.223308,4.585208 -0.449029,6.873283 -0.31904,2.964079 -0.83393,5.90129 -1.287791,8.846253 -0.119049,1.449655 -0.524655,3.019518 -0.453625,4.481399 0.276894,-1.318067 0.01738,-0.01278 -3.46986,1.647444 -0.05462,0.02601 0.102632,-0.06668 0.143021,-0.111715 0.05237,-0.0584 0.09133,-0.127757 0.131929,-0.194879 0.105897,-0.175064 0.198996,-0.357574 0.30077,-0.535067 0.782275,-1.265097 3.132852,-3.676824 4.244962,-2.447557 0.205605,0.282768 0.175744,0.615339 -0.02455,0.886325 -5.104665,2.99276 -4.182327,2.440551 -0.18424,0.140446 0.02983,-0.01717 -0.05916,0.03526 -0.08776,0.0544 -0.07066,0.04729 -0.10092,0.0888 -0.185164,0.102817 0,0 -3.641166,1.632225 -3.641166,1.632225 v 0 c 0.01206,-0.134173 0.0842,-0.256905 0.20955,-0.331158 1.162484,-0.688623 2.274567,-1.476179 3.501673,-2.04167 1.160904,-0.534982 -2.201392,1.299797 -3.302088,1.949696 0.125759,-0.07115 0.305531,-0.155832 0.347689,-0.254654 0.26982,1.329391 -0.0021,0.106305 3.36736,-1.823736 0.04321,-0.02474 -0.09422,0.03289 -0.139067,0.05452 -0.228836,0.110363 -0.400839,0.245473 -0.511771,0.482492 -0.126089,0.205557 -0.190529,0.297518 -0.29234,0.512535 -0.03672,0.07755 -0.06673,0.158107 -0.09952,0.2374 -0.02772,0.06701 -0.01834,0.166774 -0.082,0.201506 -3.641228,1.986757 -3.014398,3.025614 -3.7431,1.63049 0.0177,-0.484436 0.110836,-0.963978 0.179114,-1.443667 0.15284,-1.073759 0.317363,-2.145747 0.494316,-3.215818 0.488911,-2.929506 0.993349,-5.858917 1.282568,-8.816808 0.20271,-2.272665 0.258739,-4.546491 0.346459,-6.82521 0.109579,-1.301075 0.276645,-2.59429 0.716184,-3.831373 0,0 3.590049,-1.64973 3.590049,-1.64973 z"
       inkscape:connector-curvature="0"
       style="stroke-width:0.26458332" />
    <path
       id="path3731"
       d="m 57.915129,93.039524 c 0.806797,0.122296 1.640478,-0.12609 2.437498,-0.253743 1.723697,-0.292526 3.447817,-0.584986 5.170069,-0.888079 2.853532,-0.482354 5.723075,-0.806974 8.60973,-0.997834 3.928261,-0.19259 7.865226,-0.05081 11.795784,0.0078 5.196215,0.0074 10.389949,-0.22049 15.57945,-0.463965 5.51503,-0.241512 11.0358,-0.191802 16.54977,0.03404 5.28845,0.26538 10.56671,0.689867 15.85334,0.983557 4.60376,0.197869 9.21111,0.311944 13.81762,0.429403 3.3122,0.112705 6.62534,0.250621 9.92206,0.599628 1.66435,0.129627 3.29093,0.554593 4.96232,0.58579 0.39364,-0.05247 0.79696,-0.101219 1.14581,-0.302035 0.0576,-0.03318 0.22691,-0.138859 0.16912,-0.105918 -1.08982,0.621255 -2.17691,1.247293 -3.26536,1.870937 1.17789,-0.673944 2.35577,-1.347888 3.53366,-2.021832 0.0745,0.01974 0.13855,-0.09449 0.21357,-0.08128 0.11095,0.01953 0.26542,0.137703 0.36514,0.195969 0.002,5.3e-4 0.17132,0.0476 0.17154,0.04753 0.0301,-0.0094 0.0359,-0.05438 0.0629,-0.07078 0.1238,-0.07533 0.25465,-0.08194 0.38056,-0.167659 0.24858,-0.175405 0.5502,-0.219453 0.84299,-0.269248 0.20745,-0.01286 0.41468,-0.008 0.62228,-0.0076 0.13802,-1.390867 0.038,-0.09751 -3.3255,1.869077 -0.0212,0.01238 0.0376,-0.03252 0.0511,-0.05304 0.064,-0.09752 0.0531,-0.147852 0.0317,-0.25836 -0.0385,-0.195361 -0.14374,-0.369565 -0.34215,-0.21032 -2.24823,1.143394 4.29183,-2.614613 2.44141,-1.415156 -0.29098,0.238927 -0.51563,0.530659 -0.70987,0.850746 -0.43513,0.809366 -0.34184,1.525363 -0.0111,2.349765 0.8005,1.189172 2.00891,1.401739 3.3513,1.459169 0.70309,-0.0462 0.90199,-0.01341 1.5823,-0.246372 0.26448,-0.09056 1.0082,-0.480711 0.7667,-0.339889 -0.82411,0.480563 -1.62519,1.023938 -2.51768,1.360935 -0.29945,0.113072 0.4811,-0.425678 0.68788,-0.67001 0.22435,-0.265102 0.4,-0.567851 0.6,-0.851776 1.02009,-1.907048 1.26084,-4.112074 0.80534,-6.223143 -0.0886,-0.410498 -0.23783,-0.805513 -0.35675,-1.20827 -0.53285,-1.221105 -1.27855,-2.513946 -2.71092,-2.781149 -0.72557,-0.135353 -1.11142,0.02648 -1.81855,0.180232 -0.31576,0.141689 -1.23815,0.612624 -0.94728,0.425074 5.78778,-3.731905 1.52865,-0.758526 1.31488,-0.588105 -0.87958,0.701254 -1.66771,1.517454 -2.44975,2.322451 -0.53417,0.586087 -1.07998,1.163786 -1.58673,1.77432 -0.16999,0.204803 -0.37021,0.432149 -0.46363,0.688388 0.0128,-0.02799 0.0112,-0.06947 0.0384,-0.08398 0.17916,-0.09571 0.67567,-0.133895 0.8739,-0.171011 0,0 -3.13104,2.352926 -3.13104,2.352926 v 0 c -0.50732,0.07084 -0.99321,0.178948 -1.31881,-0.308777 -0.008,-0.09404 -0.0447,-0.190399 -0.0226,-0.282122 0.0474,-0.197054 0.37611,-0.584134 0.47416,-0.699334 0.53496,-0.628544 1.12118,-1.213503 1.67142,-1.828183 2.5196,-2.621582 4.9125,-4.663892 8.56131,-5.872446 0.80753,-0.10963 1.15586,-0.244649 1.95633,-0.01714 1.48135,0.421 2.24632,1.801728 2.80855,3.115226 0.12128,0.42069 0.27107,0.834186 0.36383,1.26207 0.46819,2.159775 0.31756,4.424442 -0.61978,6.434508 -0.18536,0.301493 -0.34757,0.618511 -0.55609,0.904481 -1.1688,1.602933 -2.7039,2.040114 -4.6486,3.117709 -0.74078,0.410486 -1.64391,0.451673 -2.46458,0.459939 -1.48879,-0.133194 -2.76801,-0.463791 -3.62755,-1.788192 -0.37489,-0.856705 -0.55937,-1.725747 -0.20808,-2.627799 0.1617,-0.350197 0.34806,-0.710084 0.64623,-0.962938 0.11672,-0.152183 0.1159,-0.182036 0.28515,-0.279879 0.31189,-0.1803 2.70101,-2.118876 4.15767,-2.151708 0.32551,0.11938 0.54695,0.302284 0.62013,0.65486 0.49273,1.576012 -1.35756,3.387455 -3.47876,2.684306 -0.19069,0.0028 -0.38364,0.01503 -0.56769,0.06834 -0.27779,0.07281 -0.52634,0.206772 -0.78833,0.320407 -0.29627,0.06627 -0.54328,0.102272 -0.81847,-0.05787 -0.15654,-0.03304 -0.21031,0.109955 -0.36011,0.15989 1.09154,-0.63001 2.18308,-1.260022 3.27462,-1.890032 -1.82393,1.047559 -2.96413,2.267188 -4.92048,2.236732 -1.61471,-0.149982 -3.19022,-0.566582 -4.80516,-0.723792 -3.24372,-0.376436 -6.50686,-0.537316 -9.76839,-0.673867 -4.57346,-0.155583 -9.14826,-0.286295 -13.71883,-0.512226 -5.27866,-0.311486 -10.55052,-0.730146 -15.83228,-0.991901 -5.50289,-0.224817 -11.01276,-0.284335 -16.516225,-0.02186 -5.226772,0.247923 -10.456746,0.499065 -15.690249,0.520248 -3.962884,-0.0279 -7.932825,-0.138814 -11.891129,0.09809 -2.912647,0.223856 -5.807929,0.585732 -8.684003,1.103021 -1.758683,0.330478 -3.519742,0.6468 -5.280501,0.965531 -0.856557,0.153111 -1.733468,0.369821 -2.603731,0.19735 0,0 3.257357,-2.269747 3.257357,-2.269747 z"
       inkscape:connector-curvature="0"
       style="stroke-width:0.26458332" />
    <path
       id="path3735"
       d="m 177.00831,100.91987 c -0.57837,-0.0889 -1.21886,-0.2932 -1.78393,-0.038 -0.1209,0.0546 -0.22576,0.13941 -0.33864,0.20911 0.99522,-0.54342 1.95367,-1.160399 2.98566,-1.630252 0.16847,-0.0767 -0.24991,0.275307 -0.35068,0.430573 -0.55769,0.859229 -0.67005,1.861709 -0.76833,2.853889 -0.0152,0.77657 -0.0322,2.32737 0.91726,2.64818 0.15255,0.0515 0.32023,0.0343 0.48034,0.0514 0.19394,-0.0437 0.39383,-0.0664 0.58183,-0.1311 0.63326,-0.21779 1.9175,-1.00244 1.38113,-0.73666 -0.84128,0.41687 -1.60863,0.99285 -2.48968,1.31732 -0.31035,0.11429 0.50144,-0.43267 0.73183,-0.66995 0.22333,-0.23001 0.41793,-0.48627 0.6269,-0.72941 0.70997,-0.96177 1.32588,-2.19577 0.73382,-3.37177 -0.0931,-0.18493 -0.22812,-0.3456 -0.34219,-0.5184 -0.61612,-0.57124 -1.5115,-1.273243 -2.42484,-1.047611 -0.13897,0.03433 -0.26217,0.11503 -0.39325,0.172545 1.00614,-0.562065 2.01228,-1.12413 3.01842,-1.686192 -0.10783,0.08264 -0.22587,0.153448 -0.3235,0.247933 -0.24638,0.238442 -0.29818,0.382378 -0.46115,0.676045 0,0 -3.55856,1.61416 -3.55856,1.61416 v 0 c 0.85357,-1.986275 1.9613,-1.90544 4.4167,-3.234241 0.15293,-0.02469 0.3039,-0.07095 0.45877,-0.07402 1.02452,-0.02027 1.91804,0.703284 2.59155,1.387626 0.304,0.46931 0.51484,0.705181 0.64231,1.266301 0.25264,1.112114 -0.26845,2.202564 -0.88282,3.089254 -1.72281,2.16932 -2.1377,2.02959 -5.30186,3.95247 -0.68178,0.41433 -1.38035,0.72511 -2.19271,0.68716 -0.19372,-0.061 -0.40235,-0.0868 -0.58116,-0.18307 -1.034,-0.55691 -1.04669,-2.02949 -1.04514,-3.026 0.0841,-1.03031 0.16647,-2.06801 0.63099,-3.01226 0.0851,-0.17295 0.14305,-0.38333 0.30108,-0.49368 1.18363,-0.82652 2.45255,-1.523625 3.67882,-2.28544 0.13312,-0.04496 0.26205,-0.105026 0.39935,-0.134869 0.62144,-0.13508 1.24522,0.08488 1.86804,0.06933 0,0 -3.20636,2.329559 -3.20636,2.329559 z"
       inkscape:connector-curvature="0"
       style="stroke-width:0.26458332" />
    <path
       id="path3737"
       d="m 186.77019,98.78589 c 0.40514,1.45194 0.76556,2.91761 1.25311,4.34471 0.17324,0.32487 0.30906,0.95551 0.72027,1.11456 0.21832,0.0844 0.44838,-0.23296 0.39631,-0.20546 -1.0397,0.5492 -2.05527,1.14291 -3.0829,1.71435 0.85922,-0.81527 1.23603,-2.01401 1.64963,-3.09754 0.24927,-0.65587 0.46447,-1.33136 0.84256,-1.92769 4.4112,-2.017513 3.72965,-2.400897 3.37254,0.34462 -0.14681,1.11958 -0.12123,2.25157 0.0258,3.36892 0.0852,0.27362 0.0671,0.65213 0.2522,0.89234 0,0 -3.46036,1.97765 -3.46036,1.97765 v 0 c -0.14172,-0.3354 -0.1721,-0.70441 -0.23398,-1.06008 -0.14506,-1.1441 -0.17154,-2.30383 -0.0676,-3.45299 0.0516,-0.53292 0.13567,-1.05308 0.21053,-1.58168 0.008,-0.0582 -0.0401,-0.14738 0.0113,-0.1759 1.16833,-0.64856 2.38304,-1.209793 3.57457,-1.814688 -0.5904,0.275881 -0.76454,1.279238 -1.02858,1.802228 -0.41439,1.12081 -0.82305,2.28775 -1.50605,3.27377 -1.22356,0.72015 -2.42085,1.48691 -3.67066,2.16047 -0.0968,0.0521 -0.2233,0.023 -0.32972,-0.005 -0.62503,-0.16161 -0.82302,-0.98229 -1.03517,-1.48005 -0.45068,-1.42488 -0.7771,-2.88988 -1.34143,-4.2776 0,0 3.44754,-1.915382 3.44754,-1.915382 z"
       inkscape:connector-curvature="0"
       style="stroke-width:0.26458332" />
    <path
       id="path3739"
       d="m 198.43899,86.543387 c -0.45561,1.268603 -0.76364,2.58777 -1.10253,3.891502 -0.53146,2.092002 -0.9434,4.215014 -1.33657,6.337057 -0.16865,1.495792 -0.4421,3.181305 0.21221,4.609804 0.10058,0.21957 0.24929,0.41371 0.37393,0.62057 0.80147,1.03272 1.84262,1.46086 3.11318,1.54773 0.13565,-0.0156 0.27517,-0.0111 0.40695,-0.0468 0.12302,-0.0334 0.23215,-0.10536 0.34823,-0.15804 -0.99763,0.55364 -1.97476,1.14596 -2.9929,1.66092 -0.15271,0.0772 0.26609,-0.2168 0.38362,-0.3412 0.2934,-0.31057 0.56206,-0.72093 0.80516,-1.06569 0.39777,-0.59768 0.75774,-1.21897 1.13206,-1.8313 0,0 3.5222,-1.55184 3.5222,-1.55184 v 0 c -0.39405,0.60685 -0.75757,1.22996 -1.13615,1.84655 -0.17356,0.26813 -0.81175,1.35799 -1.07243,1.52261 -1.72951,1.09212 -2.76437,2.28828 -4.57471,2.21843 -1.30107,-0.2096 -2.46306,-0.79136 -3.24742,-1.8851 -0.13423,-0.23242 -0.29396,-0.45188 -0.4027,-0.69726 -0.66483,-1.50019 -0.41811,-3.242408 -0.23582,-4.811265 0.38558,-2.119906 0.79935,-4.238382 1.28233,-6.337811 0.31036,-1.281975 0.60592,-2.56862 0.93624,-3.845139 0,0 3.58512,-1.683708 3.58512,-1.683708 z"
       inkscape:connector-curvature="0"
       style="stroke-width:0.26458332" />
    <path
       id="path3741"
       d="m 192.81711,92.050305 c 0.93195,-0.146947 1.77895,0.18252 2.62324,0.54124 1.38872,0.62003 2.76705,0.850199 4.27822,0.785458 0.6151,-0.04344 1.19526,-0.242192 1.77714,-0.428025 0,0 -3.07386,2.369812 -3.07386,2.369812 v 0 c -0.59031,0.156835 -1.18179,0.307806 -1.79792,0.315812 -1.52184,-0.0052 -2.98763,-0.28784 -4.39225,-0.889928 -0.82206,-0.293984 -1.67843,-0.591746 -2.53367,-0.241623 0,0 3.1191,-2.452746 3.1191,-2.452746 z"
       inkscape:connector-curvature="0"
       style="stroke-width:0.26458332" />
    <path
       id="path3743"
       d="m 136.7079,8.2104885 c -0.34867,0.8758269 -0.28461,1.8672915 -0.30087,2.7948015 0.0411,1.711923 0.17866,3.419452 0.33199,5.124369 0.29784,2.768702 0.5518,5.541463 0.73066,8.320433 0.14861,2.457765 0.238,4.918171 0.18036,7.379981 -0.0266,1.300414 -0.14986,2.599359 -0.0485,3.898477 0.0793,0.53173 0.15435,1.0513 0.0772,1.585764 -0.0393,0.224525 -0.11863,0.438539 -0.18784,0.654823 0,0 -3.58425,1.681816 -3.58425,1.681816 v 0 c 0.0705,-0.198911 0.13152,-0.40127 0.21505,-0.595281 0.0333,-0.186172 0.0982,-0.392922 0.099,-0.58274 0.001,-0.316505 -0.0898,-0.632674 -0.0833,-0.94988 -0.0763,-1.333693 0.0733,-2.661092 0.14466,-3.992753 0.12688,-2.466777 0.0731,-4.93522 -0.0564,-7.401535 -0.16943,-2.762484 -0.4383,-5.51599 -0.82133,-8.257556 -0.19013,-1.702404 -0.34684,-3.407932 -0.43051,-5.119237 -0.005,-0.95224 -0.0761,-1.943802 0.13268,-2.8758608 0,0 3.60146,-1.6656217 3.60146,-1.6656217 z"
       inkscape:connector-curvature="0"
       style="stroke-width:0.26458332" />
    <path
       id="path3745"
       d="m 135.60616,38.186674 c -1.28866,1.183844 -2.87434,2.910536 -4.67723,2.586638 -0.67563,-0.12946 -1.34694,-0.285916 -2.0138,-0.456205 -0.96735,-0.243596 -1.95174,-0.4373 -2.89821,-0.754679 -1.4237,-0.502891 -2.80058,-1.123275 -4.17927,-1.735748 -1.31949,-0.528897 -2.60931,-1.100082 -4.05099,-1.09655 -0.46862,0.04966 -0.91205,0.192664 -1.3285,0.411078 -0.12875,0.06752 -0.50139,0.294513 -0.37488,0.222887 2.98207,-1.688351 3.95896,-2.342329 2.6641,-1.488818 -1.39147,1.013727 -2.85041,1.751187 -4.39705,2.619827 -0.54483,0.305991 0.0774,-0.137885 -0.3581,0.188146 -1.86242,0.901083 1.81527,-0.251878 2.86944,-1.932551 0.33904,0.223623 0.75161,0.28726 1.14706,0.337378 0.49805,-0.01741 0.74687,0.221747 1.0182,0.611857 0.66508,1.068972 0.8951,2.329153 1.12172,3.548078 0.3871,2.560553 0.22419,5.155671 -0.0118,7.721116 -0.34102,3.062263 -0.6225,6.127006 -0.77308,9.204708 -0.10528,2.440744 -0.11673,4.884164 -0.0786,7.32649 0.1117,0.684911 -0.0535,1.564796 0.37127,2.171755 0.0347,-0.08635 0.0223,-0.02937 -0.0171,-0.174095 -1.08707,0.828685 -3.30879,1.119983 -3.26119,2.486059 0.0526,1.508315 4.48646,-2.911568 3.02784,-1.684647 -0.60552,0.525997 -4.07376,3.580051 -3.99726,1.364393 0.0574,-0.620882 0.15739,-1.242923 0.0754,-1.86503 0,0 3.49667,-1.837864 3.49667,-1.837864 v 0 c 0.0798,0.644951 0.009,1.282562 -0.0366,1.928529 -0.006,0.06331 0.0105,0.133218 -0.0183,0.189929 -0.0206,0.04061 -0.0956,-0.05607 -0.0916,-0.101439 0.002,-0.02545 0.0594,-0.0796 0.0372,-0.06704 -4.43964,2.508044 -4.37447,2.471571 -3.16162,1.837661 0.047,-0.02471 0.094,-0.04941 0.14098,-0.07411 0.0382,-0.03698 0.0688,-0.08379 0.11445,-0.110934 2.70673,-1.608627 6.44654,-3.93713 0.47756,0.335632 -0.027,0.01931 -0.219,-0.225436 -0.22742,-0.235625 -0.39128,-0.745032 -0.25929,-1.630622 -0.31434,-2.440702 0.0587,-2.470211 0.0968,-4.941194 0.20532,-7.409915 0.16037,-3.078041 0.4278,-6.145723 0.75238,-9.210659 0.22455,-2.515103 0.38209,-5.063485 -0.0558,-7.566512 -0.24046,-1.147871 -0.48069,-2.343695 -1.173,-3.31814 -0.27742,-0.330536 -0.44371,-0.302458 -0.8606,-0.357338 -0.44788,-0.09268 -0.89558,-0.213167 -1.27432,-0.481248 -1.17176,-1.284779 2.38956,-1.923018 3.58026,-2.689545 1.2094,-0.501444 2.88549,-1.632159 -2.79148,1.670196 -0.0821,0.04774 0.16637,-0.09194 0.24547,-0.144444 0.19603,-0.13012 0.37153,-0.289627 0.57114,-0.414764 1.47513,-0.976394 0.70877,-0.477837 4.02626,-2.38257 0.54818,-0.314738 1.1807,-0.449615 1.80716,-0.452856 1.43272,0.129927 2.75309,0.704612 4.06915,1.256911 1.38447,0.605465 2.77723,1.195994 4.21745,1.658499 0.95899,0.279101 1.93807,0.485454 2.91026,0.712906 0.66114,0.144688 1.32235,0.331587 2.00123,0.360236 1.19295,-0.241687 3.96033,-2.157791 -2.78237,1.741254 -0.3728,0.21558 0.95699,-0.592251 0.59255,-0.490447 0,0 3.66401,-1.517685 3.66401,-1.517685 z"
       inkscape:connector-curvature="0"
       style="stroke-width:0.26458332" />
    <path
       id="path3747"
       d="m 117.26856,63.969735 c 0.70664,0.225068 1.44471,0.319119 2.16895,0.473382 1.06199,0.374721 2.13065,0.689134 3.23605,0.912858 2.05328,0.287326 4.11535,-0.05993 6.13604,-0.418039 2.20296,-0.426157 4.39968,-0.888135 6.6188,-1.223156 1.71618,-0.22638 3.46583,-0.32013 5.15887,0.08715 0.63684,0.17576 1.16693,0.582229 1.78536,0.797213 0.0438,0.01281 0.0876,0.02561 0.13138,0.03843 0,0 -3.29595,2.223135 -3.29595,2.223135 v 0 c -0.0439,-0.01913 -0.0879,-0.03826 -0.13186,-0.05739 -0.55904,-0.263912 -1.0584,-0.648433 -1.66761,-0.802439 -1.63833,-0.376828 -3.3304,-0.265266 -4.98433,-0.03318 -2.21065,0.341079 -4.3995,0.805021 -6.59774,1.216718 -2.07285,0.350726 -4.1872,0.685361 -6.28667,0.355052 -1.12642,-0.223118 -2.22141,-0.532394 -3.31962,-0.861496 -0.75034,-0.16315 -1.51713,-0.256958 -2.24822,-0.49974 0,0 3.29655,-2.208509 3.29655,-2.208509 z"
       inkscape:connector-curvature="0"
       style="stroke-width:0.26458332" />
    <path
       id="path3753"
       d="m 111.91118,38.544719 c 0.28544,0.967626 0.33927,1.98152 0.39058,2.982979 0.0537,1.556104 0.20457,3.104494 0.20631,4.66231 -0.0673,2.193367 -0.001,4.388183 0.0244,6.581812 0.0398,2.23969 -0.24991,4.459383 -0.71807,6.644214 -0.31208,1.24029 -0.65749,2.4711 -1.0115,3.699833 -0.10698,0.388003 -0.0598,0.205012 -0.14373,0.548436 0,0 -3.56249,1.701683 -3.56249,1.701683 v 0 c 0.10126,-0.363828 0.0461,-0.170278 0.16645,-0.580368 0.41952,-1.232628 0.79449,-2.477882 1.14862,-3.730969 0.52309,-2.158156 0.83715,-4.360389 0.80372,-6.586786 -0.0366,-2.183615 -0.11191,-4.367515 -0.0939,-6.551377 -0.006,-1.544344 -0.16997,-3.077814 -0.2445,-4.619258 -0.0593,-0.946089 -0.10054,-1.919396 -0.43034,-2.817897 0,0 3.46439,-1.934612 3.46439,-1.934612 z"
       inkscape:connector-curvature="0"
       style="stroke-width:0.26458332" />
    <path
       id="path3755"
       d="m 103.29446,49.402309 c -0.50546,0.102179 -1.01858,-0.07335 -1.52174,0.01913 -1.15986,0.23739 -4.323071,2.292922 2.45216,-1.525561 0.0911,-0.05136 -0.18035,0.10659 -0.26533,0.167582 -0.0951,0.06828 -0.18278,0.146412 -0.27418,0.219617 -0.64697,0.596152 -0.91542,1.350431 -0.96029,2.208591 0.17209,1.396304 0.78331,2.049338 1.99958,2.673665 0.47597,0.137033 0.67024,0.260858 1.1676,0.150529 0.17899,-0.03971 0.66523,-0.306665 0.50578,-0.216156 -0.95104,0.539845 -1.88439,1.120013 -2.88307,1.565592 -0.17979,0.08022 0.27818,-0.283032 0.38257,-0.44995 0.12147,-0.194236 0.19256,-0.415758 0.28883,-0.623639 0.43445,-1.54264 0.23671,-3.147478 -0.28057,-4.640945 -0.0783,-0.153837 -0.14169,-0.316225 -0.2349,-0.461513 -0.0873,-0.136099 -0.2582,-0.384865 -0.47518,-0.354015 -0.0792,0.01127 -0.27249,0.167418 -0.20191,0.129744 3.2254,-1.721821 3.98564,-2.540995 2.80074,-1.362416 -0.44889,0.614545 -0.23868,0.292854 -0.62831,0.966573 0,0 -3.52747,1.582737 -3.52747,1.582737 v 0 c 0.35773,-0.711255 0.16613,-0.370448 0.57168,-1.024178 1.0324,-1.531895 0.38854,-0.704384 3.94963,-2.515574 0.17319,-0.08809 0.54388,0.203174 0.62709,0.292415 0.25062,0.268814 0.34273,0.55866 0.492,0.89036 0.49179,1.578626 0.71938,3.245035 0.39158,4.883372 -0.0693,0.208058 -0.31414,1.095124 -0.55362,1.257959 -0.96013,0.652841 -3.19656,2.701279 -4.98114,2.267093 -0.21917,-0.05332 -0.42366,-0.154974 -0.63549,-0.23246 -0.20117,-0.115102 -0.41317,-0.213064 -0.60351,-0.345303 -0.903639,-0.627792 -1.471033,-1.595424 -1.637017,-2.672694 -0.02714,-0.964734 0.164119,-1.728499 0.794257,-2.481415 1.27108,-1.361242 3.03969,-2.47127 4.89911,-2.697798 0.50394,0.0094 1.01304,0.07643 1.50635,-0.06789 0,0 -3.16523,2.39654 -3.16523,2.39654 z"
       inkscape:connector-curvature="0"
       style="stroke-width:0.26458332" />
    <path
       id="path3757"
       d="m 134.88278,61.828531 c 0.0732,0.723651 0.0676,1.452229 0.1161,2.179463 0.0834,0.821663 0.30025,1.619806 0.49242,2.420728 0.30134,1.240296 0.51915,2.499241 0.71476,3.760095 0.36342,2.425409 0.60457,4.861541 0.68862,7.312062 0.006,2.224087 -0.10605,4.446045 -0.1607,6.669058 -0.0305,1.230439 -0.0348,2.461141 -0.0231,3.691821 0.0155,0.536086 -0.044,1.07827 0.12252,1.595647 0.16687,0.171841 0.17367,0.0073 0.3257,0.22222 -0.0262,-0.07146 0.13876,0.270307 0.0966,0.206934 -0.0583,-0.08755 -0.0705,-0.318609 -0.16364,-0.269732 -3.49097,1.832424 -3.01725,3.412497 -3.40275,1.956183 -0.0758,-0.317505 -0.0956,-0.642689 -0.17048,-0.960249 0,0 3.47649,-1.879749 3.47649,-1.879749 v 0 c 0.0806,0.309507 0.10182,0.625351 0.18083,0.935345 0.48276,1.441505 -2.94683,3.662246 -3.43855,2.077209 0.0837,0.180308 -0.42229,-0.323043 -0.3888,-0.383021 -0.16003,-0.568791 -0.14414,-1.143731 -0.11748,-1.730563 0.0269,-1.250574 0.0582,-2.501207 0.11453,-3.75085 0.10367,-2.230093 0.25144,-4.459488 0.26441,-6.692593 -0.0824,-2.422988 -0.31586,-4.833614 -0.75867,-7.219553 -0.22415,-1.235908 -0.49387,-2.462868 -0.79744,-3.681521 -0.21252,-0.81802 -0.41322,-1.642168 -0.52344,-2.480995 -0.0537,-0.702366 -0.0713,-1.410859 -0.14906,-2.106054 0,0 3.50117,-1.871885 3.50117,-1.871885 z"
       inkscape:connector-curvature="0"
       style="stroke-width:0.26458332" />
    <path
       id="path3763"
       d="m 103.59195,92.666493 c -0.0208,0.565881 -0.1801,1.125713 -0.18087,1.69236 -5.985291,2.452058 -3.678238,2.814458 -3.38552,1.352719 0.22661,-1.372261 -0.32256,-0.127267 3.5778,-1.754288 0.0551,-0.02296 0.006,0.119245 0.0111,0.178668 0.022,0.240178 0.0499,0.479785 0.073,0.719857 0.14382,1.798736 -0.002,3.603432 -0.0794,5.401791 -0.2199,3.47829 -0.33214,6.96114 -0.37149,10.44577 -0.007,1.8589 -0.11603,3.71185 -0.3084,5.5599 0.008,0.28206 -0.10462,0.56694 -0.0886,0.84926 0.006,0.0153 0.0283,0.0573 0.0169,0.0458 -0.0194,-0.0197 -0.0154,-0.0644 -0.0422,-0.0714 -0.0174,-0.005 -0.0171,0.37105 -0.0178,0.4016 -5.3e-4,0.18314 0.004,0.36631 0.0128,0.54921 0.0301,0.15265 -0.24344,-0.19237 -0.0138,-0.20537 0.0263,-0.0245 0.0469,-0.0571 0.0789,-0.0737 0.0934,-0.0483 0.20618,-0.0477 0.30214,-0.0907 0.14698,-0.0659 0.28999,-0.1708 0.42769,-0.25483 -1.10128,0.63381 -2.20257,1.26762 -3.30385,1.90143 0.11576,-0.002 0.19327,0.2711 0.11724,0.0476 -0.21123,-0.10323 -0.609974,-0.17214 -0.894642,-0.21215 -0.686718,-0.0846 -1.38556,0.0191 -2.061988,0.14429 -1.258215,0.1759 -2.515169,0.35895 -3.776742,0.51076 -1.97662,0.28723 -3.964204,0.48141 -5.947775,0.71024 -1.463741,0.16778 -2.929953,0.31503 -4.400169,0.41243 -0.400092,0.0127 -0.825632,0.0852 -1.166664,0.30977 3.186533,-2.28459 2.255552,-2.91023 3.698518,-2.00669 0.315785,0.19773 0.579141,0.39288 0.845793,0.65417 0.586378,0.57827 0.848344,1.32915 0.999284,2.11815 0.05428,0.86391 -0.07917,1.72832 -0.134329,2.59055 -0.116589,2.13439 0.05498,4.2717 0.173204,6.40243 0.209658,2.4889 0.01587,4.97499 -0.268766,7.44785 -0.363551,2.4144 -0.695847,4.83065 -0.898475,7.26417 -0.14745,1.89267 -0.199446,3.78865 -0.02582,5.68008 0.251534,1.84546 0.713602,0.51023 -3.384307,2.3076 -0.06787,0.0298 0.06774,-0.13263 0.08995,-0.20334 0.03046,-0.097 0.04489,-0.19827 0.06733,-0.2974 0.06813,-0.50867 0.02154,-1.0242 -0.05952,-1.5285 -0.10555,-0.33454 -0.08949,-0.0999 3.523843,-1.85537 0.04333,-0.0211 0.0325,0.091 0.05448,0.13387 0.03053,0.0595 0.07839,0.10516 0.122749,0.15368 0.216336,-0.16474 0.477681,-0.25406 0.745378,-0.3044 0.903537,-0.0822 1.8057,-0.17871 2.710678,-0.24914 1.480158,-0.1157 2.965492,-0.087 4.447132,-0.161 1.747295,-0.0676 3.469188,-0.38932 5.204828,-0.57946 1.26945,-0.12222 2.37035,0.037 3.4757,0.66767 0.49978,0.34925 0.8783,0.83085 1.1936,1.34648 0.0743,0.12196 0.13736,0.24978 0.19354,0.38082 -3.33018,1.85097 -3.5838,3.02055 -3.54903,1.35079 0.0625,-0.36037 0.0474,-0.7213 0.032,-1.08467 -0.0168,-0.29103 -0.0277,-0.58248 -0.0299,-0.874 -0.0452,-0.25013 0.0515,-0.43345 0.14837,-0.64917 0.0237,-0.0541 0.0454,-0.10919 0.0698,-0.16286 0.009,-7.9e-4 0.0137,0.0195 0.0165,0.0247 0,0 3.60606,-1.75141 3.60606,-1.75141 v 0 c 0.006,0.0147 0.0137,0.0237 0.0117,0.039 -0.0206,0.0647 -0.051,0.12587 -0.0769,0.18855 -0.0354,0.0816 -0.0635,0.1963 -0.11343,0.26849 -0.0186,0.0269 -0.11005,0.0706 -0.12116,0.10512 -0.0132,0.041 -5.2e-4,0.0861 -7.9e-4,0.12916 0.004,0.28863 0.005,0.57731 0.0171,0.86578 0.0161,0.35944 0.072,0.74643 -0.0164,1.09388 0.0529,1.66549 -0.0364,0.61105 -3.53074,2.33771 0.006,-0.0662 -0.0529,-0.20395 -0.0937,-0.28084 -0.2458,-0.47182 -0.58157,-0.89689 -1.02779,-1.19415 -1.019375,-0.54126 -2.119525,-0.65941 -3.264412,-0.52582 -1.737458,0.19554 -3.465433,0.49325 -5.215345,0.55748 -1.492895,0.0683 -2.989685,0.0654 -4.478961,0.20428 -0.916583,0.0928 -1.843485,0.16572 -2.745031,0.35604 -0.366951,0.12339 -0.709692,0.25959 -1.021975,-0.0519 -0.02479,-0.0323 -0.27237,-0.35081 -0.228113,-0.38017 0.808435,-0.53635 3.108587,-3.41968 3.460986,-1.94874 0.05125,0.54968 0.07619,1.10176 0.07586,1.65385 -0.01392,0.10448 -0.02949,0.20876 -0.04172,0.31345 -0.01042,0.0893 0.05082,0.22215 -0.02627,0.26837 -3.592266,2.1536 -3.57588,3.15264 -3.675824,1.11269 -0.07078,-1.93544 -0.0089,-3.86779 0.139515,-5.79917 0.191098,-2.43402 0.50697,-4.85342 0.872204,-7.26723 0.306858,-2.45571 0.544713,-4.92869 0.328927,-7.40446 -0.127547,-2.11879 -0.345979,-4.23602 -0.339196,-6.36017 0.01693,-0.83236 0.07566,-1.66023 0.124212,-2.49025 -0.114533,-0.71443 -0.324186,-1.39167 -0.873657,-1.89826 -1.833705,-1.6111 -2.457749,0.0467 1.919544,-3.1862 0.387927,-0.0982 0.782667,-0.15199 1.184262,-0.14359 1.428485,-0.0639 2.853647,-0.1815 4.274172,-0.34612 1.997278,-0.21896 3.99352,-0.4448 5.980961,-0.74307 1.284698,-0.17905 2.566874,-0.37671 3.847931,-0.57978 0.7184,-0.10226 1.44844,-0.20067 2.16949,-0.0616 0.42042,0.084 0.89989,0.16666 1.16039,0.54352 0.58238,1.59882 -0.74405,1.06194 -3.40416,2.47756 -0.2901,0.14 -0.619556,0.28018 -0.943654,0.27051 -0.167384,-0.009 -0.344504,-0.13042 -0.320085,-0.32275 0.0083,-0.18667 0.01159,-0.37357 0.0099,-0.56042 -0.0051,-0.18541 -0.01519,-0.33108 -0.0609,-0.50612 -0.0035,-0.0134 0.01577,0.0227 0.02365,0.0341 0.149413,-0.23857 0.121351,-0.57828 0.212913,-0.83895 0.335745,-1.86415 0.523652,-3.74761 0.574406,-5.64196 0.10501,-3.47416 0.21332,-6.9482 0.3206,-10.42229 0.0163,-1.74841 0.0886,-3.504338 -0.10733,-5.245913 -0.0374,-0.2823 -0.0488,-0.413792 -0.10438,-0.681659 -0.0154,-0.07441 -0.119136,-0.181801 -0.0543,-0.221411 2.99335,-1.828406 3.7079,-3.256225 3.55006,-1.811168 -0.01,0.06911 -0.0277,0.425563 -0.0746,0.451985 -3.596826,2.027459 -3.03679,3.132444 -3.661702,1.776267 -0.04899,-0.568466 0.217802,-1.149477 0.192862,-1.724367 0,0 3.52452,-1.79583 3.52452,-1.79583 z"
       inkscape:connector-curvature="0"
       style="stroke-width:0.26458332" />
    <path
       id="path3765"
       d="m 97.452867,151.16726 c 1.273296,-1.30235 2.925173,-2.50567 4.775013,-2.59204 0.5792,-0.10775 1.16272,-0.18817 1.74844,-0.24973 0.5806,0.0989 0.50761,0.71901 0.42064,1.15897 -0.20286,0.86849 -0.24009,1.76251 -0.28354,2.64977 -0.12764,1.97459 -0.35795,3.94039 -0.54878,5.90941 -0.33932,2.9673 -0.11572,5.94336 0.21235,8.89843 0.34109,2.93625 0.93999,5.83255 1.38351,8.75321 0.25425,1.71931 0.39869,3.4513 0.53475,5.18303 0.0462,1.87272 -0.56621,1.20093 -3.62339,2.55797 -0.0771,0.0342 -0.11226,-0.1261 -0.17088,-0.18681 -0.0464,-0.0481 -0.096,-0.0929 -0.14407,-0.13934 -0.19163,-0.23687 -0.10087,-0.12035 -0.27303,-0.34896 0,0 3.4078,-2.02189 3.4078,-2.02189 v 0 c 0.14622,0.19674 0.0681,0.10152 0.23461,0.2854 1.12066,0.96597 2.08448,-1.09819 -3.14418,2.06247 -0.0399,0.0241 0.0958,0.0622 0.1349,0.0368 0.13347,-0.0868 2.6e-4,-0.40007 0.11472,-0.46375 -0.002,-1.75265 -0.11666,-3.50368 -0.33434,-5.24297 -0.40124,-2.93637 -0.98559,-5.84398 -1.34363,-8.78692 -0.34053,-2.96418 -0.583864,-5.95042 -0.30663,-8.93237 0.14877,-1.93917 0.33699,-3.87598 0.41846,-5.81965 0.008,-0.8937 0.0239,-1.79233 0.18034,-2.6749 0.0311,-0.14315 0.0743,-0.28357 0.10296,-0.42723 0.008,-0.0398 0.0627,-0.1259 0.0225,-0.11977 -0.0114,0.002 -0.0205,0.0105 -0.0307,0.0157 -0.0472,0.004 -0.0943,0.008 -0.1415,0.0124 -0.57918,0.0597 -1.152523,0.15926 -1.729288,0.23723 -0.101203,0.0174 -0.203687,0.0285 -0.303604,0.0521 -0.08516,0.0202 -0.325131,0.12456 -0.250373,0.079 1.041996,-0.63427 2.110025,-1.22485 3.158105,-1.84901 0.0655,-0.039 -0.14659,0.049 -0.20899,0.0927 -0.0179,0.0126 -0.32856,0.33278 -0.34817,0.35291 0,0 -3.664014,1.51768 -3.664014,1.51768 z"
       inkscape:connector-curvature="0"
       style="stroke-width:0.26458332" />
    <path
       id="path3767"
       d="m 100.37755,179.88991 c -0.0715,0.0278 -0.143,0.0556 -0.21451,0.0834 0,0 3.10683,-2.44308 3.10683,-2.44308 v 0 c 0.0756,-0.031 0.15119,-0.0621 0.22679,-0.0931 0,0 -3.11911,2.45275 -3.11911,2.45275 z"
       inkscape:connector-curvature="0"
       style="stroke-width:0.26458332" />
    <path
       id="path3773"
       d="m 101.07462,182.52048 c -0.66441,-0.3514 -1.412057,-0.51621 -2.124516,-0.74676 -0.952008,-0.31562 -1.814187,-0.83681 -2.731402,-1.23308 -1.104741,-0.56809 -2.302449,-0.60597 -3.514386,-0.62233 -1.522066,0.16842 -3.019751,0.14685 -4.52323,-0.14052 -1.278972,-0.29634 -2.486633,-0.81434 -3.761287,-1.12656 -0.711703,-0.18371 -1.404393,-0.23712 -2.120659,-0.0836 -2.014416,0.8506 1.813734,-2.88776 3.009132,-2.09689 0.395145,0.0987 0.794959,0.20436 1.194351,0.30478 0.214555,0.0519 0.429193,0.10385 0.645392,0.14855 0.295892,0.26982 0.293897,0.7033 0.321469,1.0812 0.06053,1.30957 -0.184518,2.6161 -0.423476,3.89856 -0.419383,1.93951 -0.62965,3.90695 -0.822293,5.87865 -0.224867,2.36254 -0.425654,4.72575 -0.525135,7.09715 0.0056,1.12866 -0.121499,2.27339 1.67e-4,3.3998 0.14641,0.40731 0.03471,0.76069 -0.100663,1.15268 -0.175152,0.49454 -0.361405,1.00279 -0.335622,1.53403 0.03715,0.2653 0.219155,0.46996 0.306671,0.72294 0.02837,0.45084 -0.03059,0.89142 0.0069,1.34598 0.07643,0.50868 0.07193,1.00192 -0.0118,1.50731 -0.159997,0.84014 -0.121812,1.68775 -0.03002,2.53239 0.08997,0.83504 0.266001,1.65184 0.51081,2.45413 0.515421,1.23978 2.64011,-1.03955 -3.421687,1.93976 -0.03091,0.0152 0.0036,-0.0696 -0.0039,-0.10325 -0.01479,-0.0663 -0.06839,-0.12927 -0.105373,-0.18175 0.0033,-0.0137 -0.09092,-0.024 -0.08979,0.006 0.04856,1.28138 2.276496,-1.1828 3.387164,-1.82367 0.02958,-0.0171 -0.04251,0.0549 -0.05404,0.087 -0.01781,0.0496 -0.02177,0.1032 -0.03266,0.15479 -0.04033,0.33546 -0.04077,0.67442 -0.03126,1.01172 0.0019,0.0697 0.0065,0.13951 0.01,0.20915 -1.189839,0.55833 -2.364356,1.15054 -3.569515,1.67499 -0.04502,0.0196 0.0019,-0.1151 0.0437,-0.14067 1.787636,-1.09037 2.740226,-1.76567 4.358024,-2.38977 0.898649,-0.28413 1.817478,-0.50381 2.726047,-0.7557 0.796411,-0.20034 1.55708,-0.54235 2.368438,-0.68741 0.540597,-0.0966 0.705081,-0.0703 1.250987,-0.0662 1.250757,0.12367 2.438387,0.5738 3.642395,0.91072 0.971044,0.2808 1.975554,0.41905 2.955202,0.65688 0.577535,0.12841 1.173765,0.3049 1.767965,0.21982 1.22946,-0.5194 3.07615,-1.62122 -2.65965,1.55214 -0.08366,0.0463 0.158062,-0.10815 0.231256,-0.16965 0.192591,-0.16183 0.209532,-0.20572 0.359381,-0.4016 0.251209,-0.37399 0.246211,-0.73249 0.05381,-1.12409 -0.121886,-0.21224 -0.230592,-0.38636 -0.475118,-0.43706 -0.01773,-0.002 -0.05151,-0.0225 -0.05322,-0.005 -0.0047,0.0485 -0.0029,0.16341 0.04006,0.14051 1.136446,-0.6053 2.222731,-1.30046 3.339841,-1.94074 0.0344,-0.0197 -0.0653,0.0467 -0.0897,0.0779 -0.0677,0.0865 -0.12068,0.24467 -0.15814,0.33787 -0.10446,0.0499 -0.18381,0.85986 -0.17157,0.53169 -2.7e-4,-0.0468 -0.0148,-0.0956 -10e-4,-0.14028 0.0216,-0.0704 0.25021,-0.15495 0.18653,-0.11807 -5.307667,3.07415 -4.203859,2.46693 -3.041352,1.71042 2.636782,-1.53841 2.529912,-2.38845 4.372542,-1.89236 0.20382,0.052 0.32073,0.27022 0.39837,0.454 0.10017,0.2598 -0.0291,0.534 -0.1099,0.77986 -0.20843,0.62867 -0.41928,1.25526 -0.55423,1.90439 -0.12425,0.38314 0.10416,0.70602 -0.11952,0.23998 -5.77644,3.63277 -3.715868,0.82386 -3.235083,2.16906 0.0204,0.0571 0.01191,0.19781 0.06559,0.16966 1.142273,-0.59901 2.226093,-1.30341 3.339133,-1.95511 -0.12687,0.0773 -0.15206,0.1563 -0.16268,0.30737 -0.0996,0.4341 -0.19356,0.86548 -0.23593,1.31446 -0.0576,0.80509 -0.0638,1.61262 -0.0713,2.41936 -0.0153,1.04084 -0.0195,2.07898 0.0628,3.11696 0.0997,0.95729 0.45443,1.86078 0.56705,2.81525 0.0553,0.80786 -0.11686,1.61067 -0.30015,2.39311 -0.10837,0.37469 -0.15865,0.76027 -0.091,1.14591 0.02,0.12772 0.14175,0.29258 -0.005,0.36194 0,0 -3.708311,1.47682 -3.708311,1.47682 v 0 c 0.122412,-0.14058 0.213344,0.22209 0.19195,0.0299 -0.07071,-0.4385 -0.06093,-0.89646 0.07972,-1.32001 0.190574,-0.74494 0.373271,-1.50701 0.366114,-2.28015 -0.0643,-0.96541 -0.431088,-1.8727 -0.543337,-2.83215 -0.09084,-1.04593 -0.103267,-2.09068 -0.0901,-3.14053 -0.0024,-0.80916 -0.01508,-1.61924 0.02413,-2.42771 0.02352,-0.39709 -0.01902,-0.92742 0.194707,-1.27198 -0.0019,-0.18098 -0.03162,-0.39787 0.04669,-0.56067 1.152707,-0.69639 2.274917,-1.44596 3.458127,-2.08916 0.0311,-0.0169 0.231,0.21182 0.25016,0.24209 0.73315,1.15889 -2.73023,3.59986 -3.355984,2.37961 -0.271989,-0.28636 -0.392985,-0.58918 -0.275127,-0.989 0.142817,-0.65745 0.338521,-1.29581 0.526238,-1.94036 0.06198,-0.18213 0.116793,-0.36177 0.180513,-0.53288 -0.0211,-0.11011 -0.0595,-0.0977 -0.165852,-0.11667 -0.128151,-0.0256 -0.267748,-0.0599 -0.399156,-0.0341 -0.05743,0.0112 -0.222851,0.0975 -0.264449,0.11791 1.089897,-0.62981 2.179787,-1.25962 3.269677,-1.88943 -1.25997,0.7337 -2.523049,1.46442 -3.785045,2.19268 -0.05777,0.0333 -0.15762,0.0939 -0.233188,0.0728 -0.06407,-0.0179 -0.116525,-0.0642 -0.174789,-0.0963 -0.298635,-0.3242 -0.21649,-0.66443 -0.08083,-1.06123 0.04982,-0.11576 0.123423,-0.50539 0.166399,-0.5328 6.107603,-3.89583 2.212353,-2.7124 3.670693,-1.94556 0.27195,0.16551 0.4438,0.40855 0.5924,0.6874 0.24982,0.48057 0.35218,0.98286 0.11579,1.49503 -0.12607,0.24048 -0.28275,0.57503 -0.52765,0.72293 -1.1076,0.66894 -2.629789,2.04437 -4.192059,2.2177 -0.615174,-0.028 -1.214157,-0.16374 -1.807569,-0.32411 -0.976472,-0.22329 -1.95543,-0.43544 -2.921574,-0.70231 -1.171544,-0.343 -2.344148,-0.77219 -3.575143,-0.81572 -1.240398,0.0667 -2.391529,0.47435 -3.571968,0.83677 -0.918236,0.24986 -1.845923,0.48284 -2.736188,0.82126 -0.397587,0.16849 -0.255685,0.0988 -0.603176,0.27871 -0.07167,0.0371 -0.283877,0.15361 -0.214307,0.11269 1.080704,-0.63563 2.17924,-1.24134 3.247935,-1.89696 0.032,-0.0196 -0.07258,-0.0192 -0.108866,-0.0288 -1.211347,0.59933 -2.422691,1.19866 -3.634038,1.79798 -7.94e-4,-0.0785 0.0024,-0.15708 0.0047,-0.23559 0.0094,-0.35276 0.01307,-0.70559 0.02379,-1.05831 0.0021,-0.0625 0.0046,-0.12491 0.0062,-0.18738 0.0013,-0.0573 -0.04468,-0.13978 0.0028,-0.17187 1.813332,-1.22573 2.648185,-3.11563 3.765026,-1.83692 0.02929,0.0452 0.298042,0.44638 0.231468,0.48871 -1.89824,1.20711 -3.161025,3.32275 -3.598648,1.75118 -0.196612,-0.83825 -0.380982,-1.67813 -0.473747,-2.53559 -0.119833,-0.85994 -0.203743,-1.72996 -0.08004,-2.59517 0.06243,-0.47936 0.158909,-0.9363 0.05255,-1.4222 -0.04298,-0.42135 -0.110213,-0.84113 0.01167,-1.25659 -0.08366,-0.28714 -0.322927,-0.50586 -0.338233,-0.81493 -0.05226,-0.58317 0.08349,-1.13525 0.276564,-1.68625 0.121041,-0.3321 0.288525,-0.63749 0.178522,-0.99309 -0.125177,-1.12162 0.180689,-2.41104 0.139412,-3.5411 0.144549,-2.376 0.341339,-4.74729 0.536093,-7.11953 0.169714,-1.96818 0.330777,-3.93691 0.737759,-5.87437 0.220472,-1.23485 0.458827,-2.49636 0.370978,-3.755 -0.006,-0.0554 -0.04979,-0.71866 -0.134824,-0.62637 -0.200128,-0.0639 -0.402648,-0.12008 -0.604877,-0.17685 -0.422156,-0.11404 -0.86287,-0.17486 -1.264013,-0.35111 -1.493784,-0.30503 2.202577,-2.40754 3.479316,-2.46937 0.731046,-0.0661 1.445707,0.0677 2.151724,0.25832 1.244669,0.35208 2.438035,0.87294 3.711003,1.12418 1.532761,0.26024 2.943154,0.20197 4.48682,0.0896 1.262454,0.0221 2.493275,0.13977 3.638812,0.72427 0.902288,0.40795 1.773848,0.89572 2.725428,1.18454 0.75244,0.22921 1.52589,0.42465 2.22638,0.79062 0,0 -3.3286,2.15367 -3.3286,2.15367 z"
       inkscape:connector-curvature="0"
       style="stroke-width:0.26458332" />
    <path
       id="path3775"
       d="m 76.939351,118.60769 c 0.348189,0.36838 0.856747,0.52206 1.22696,0.85494 0.415353,0.79898 0.261681,1.86247 0.255003,2.73682 -0.02183,2.18294 -0.02856,4.36604 -0.100751,6.54798 -0.135247,3.10899 -0.324056,6.21448 -0.414949,9.32549 -0.02416,2.40198 -0.123695,4.80005 -0.470032,7.17821 -0.310563,1.74554 -0.665377,3.48266 -1.008356,5.22201 -0.141936,0.7395 -0.260744,1.48442 -0.330425,2.23446 0.152056,1.46027 -2.617065,2.96529 -3.688196,1.94976 0,0 3.368614,-2.15171 3.368614,-2.15171 v 0 c 1.276233,-0.64236 -4.717608,1.62095 -3.245924,1.95761 0.138996,-0.77537 0.293383,-1.54791 0.445021,-2.32088 0.387588,-1.73953 0.738161,-3.48671 1.08345,-5.23512 0.380053,-2.3786 0.537612,-4.77934 0.585806,-7.18733 0.122198,-3.10348 0.308549,-6.20437 0.390692,-9.30915 0.03364,-2.15614 -0.0043,-4.31238 -0.02808,-6.46856 -0.01947,-0.77064 0.05079,-1.64381 -0.209655,-2.37725 -0.39006,-0.30208 -0.832763,-0.53377 -1.212705,-0.85084 0,0 3.353528,-2.10644 3.353527,-2.10644 z"
       inkscape:connector-curvature="0"
       style="stroke-width:0.26458332" />
    <path
       id="path3777"
       d="m 76.623994,176.96215 c 0.334674,-0.008 0.669134,-0.0219 1.001599,-0.0624 0.0451,-0.005 0.0897,-0.013 0.13345,-0.0251 0,0 -3.209904,2.39125 -3.209904,2.39125 v 0 c -0.04394,-10e-4 -0.08786,-2.7e-4 -0.131799,0.001 -0.350237,0.008 -0.703623,0.0213 -1.0507,-0.0352 0,0 3.257354,-2.26975 3.257354,-2.26975 z"
       inkscape:connector-curvature="0"
       style="stroke-width:0.26458332" />
    <path
       id="path3779"
       d="m 76.898875,177.2576 c 0.271632,1.04565 0.334121,2.12921 0.388104,3.20355 0.100319,1.81277 -0.01066,3.62442 -0.09607,5.43493 -0.158639,2.74975 0.0085,5.50242 0.124905,8.25007 0.08554,2.84655 0.179512,5.69103 0.354962,8.53359 0.168468,1.61751 0.118734,3.23746 0.05192,4.85793 -0.08322,1.26019 -0.06574,2.52477 0.09877,3.77732 0.101063,0.47363 0.04682,0.25641 0.156459,0.65319 0,0 -3.46682,1.86956 -3.46682,1.86956 v 0 c -0.08906,-0.43906 -0.04529,-0.20028 -0.126349,-0.71725 -0.153294,-1.27692 -0.171995,-2.56878 -0.09831,-3.85227 0.08591,-1.62613 0.179824,-3.25238 0.07189,-4.88071 -0.09773,-2.85698 -0.185373,-5.71398 -0.284726,-8.57083 -0.132496,-2.74232 -0.330618,-5.48705 -0.224949,-8.23411 0.05574,-1.78497 0.132966,-3.57064 0.01863,-5.35537 -0.06046,-1.01809 -0.106018,-2.06041 -0.432816,-3.03499 0,0 3.464399,-1.93461 3.464399,-1.93461 z"
       inkscape:connector-curvature="0"
       style="stroke-width:0.26458332" />
    <path
       id="path3781"
       d="m 59.251476,132.06088 c 0.50877,0.10565 1.02698,0.15535 1.544736,0.19071 0.373528,0.0207 0.704656,0.21157 1.073994,0.30426 1.26897,0.12987 2.533528,-0.11807 3.793008,-0.24696 1.123982,-0.11409 2.270691,-0.18051 3.38246,0.0717 0.678939,0.15404 0.916249,0.28369 1.557766,0.54834 1.384721,0.6649 2.728888,1.39668 4.183343,1.90329 0.90107,0.23001 1.832062,0.20183 2.752799,0.16826 0.605938,0.0186 0.7557,0.26552 0.892122,0.81351 0,0 -3.48171,1.84964 -3.48171,1.84964 v 0 c -0.01122,-0.40756 -0.222653,-0.3331 -0.577692,-0.35136 -0.938979,0.007 -1.885495,-0.0159 -2.783628,-0.32595 -1.424609,-0.56236 -2.760263,-1.30236 -4.153469,-1.93278 -0.619352,-0.23321 -0.855062,-0.35278 -1.506281,-0.47651 -1.096459,-0.20833 -2.221028,-0.11294 -3.321047,0.003 -1.313582,0.15326 -2.651635,0.42392 -3.972176,0.2039 -0.356889,-0.0933 -0.698093,-0.21966 -1.066919,-0.23361 -0.526172,-0.0639 -1.051624,-0.13337 -1.574663,-0.21974 0,0 3.257357,-2.26975 3.257357,-2.26975 z"
       inkscape:connector-curvature="0"
       style="stroke-width:0.26458332" />
    <path
       id="path3783"
       d="m 59.734275,190.4883 c -0.170146,0.37075 -0.390922,0.71541 -0.605293,1.06166 -0.12087,-0.036 -0.09157,-0.0157 -0.147852,-0.26769 -0.01114,-0.0499 0.06083,-0.17636 0.01564,-0.1525 -1.094586,0.57822 -4.310234,2.43696 -3.222257,1.8464 4.35487,-2.36387 2.296671,-1.59104 4.059692,-2.23219 1.345396,-0.39714 2.7451,-0.5161 4.127262,-0.71966 2.020187,-0.35615 4.040188,-0.68985 6.081546,-0.8979 1.352558,-0.15274 2.713,-0.0757 4.056637,0.10982 0.547671,0.18557 1.226568,0.18089 1.725374,0.50155 0.964263,1.52538 -2.692691,3.06824 -3.943935,2.08509 -0.100367,-0.0828 -0.186716,-0.1794 -0.270446,-0.27834 0,0 3.418927,-2.05416 3.418927,-2.05416 v 0 c 0.056,0.0677 0.113363,0.13228 0.190849,0.1768 0.119073,0.0396 0.20687,0.0645 0.331227,0.03 0.03264,-0.009 0.124711,-0.0512 0.09599,-0.0333 -3.371898,2.10621 -4.072308,0.98839 -3.166795,2.24794 -0.497491,-0.20679 -1.022226,-0.34496 -1.55235,-0.43683 -1.302483,-0.1762 -2.620005,-0.2313 -3.929997,-0.0896 -2.037524,0.20257 -4.051675,0.54812 -6.066274,0.90993 -1.401976,0.2169 -2.83265,0.3651 -4.168764,0.87004 -0.1261,0.0591 -0.497993,0.24837 -0.378304,0.17721 1.021353,-0.60731 4.129516,-2.35272 3.084819,-1.78652 -1.211482,0.65659 -2.36842,1.41134 -3.585344,2.05779 -0.05762,0.0306 -0.138624,-0.0109 -0.188363,-0.0531 -0.210502,-0.17866 -0.192635,-0.21952 -0.216738,-0.41614 0.233034,-0.31996 0.448206,-0.65213 0.65329,-0.99064 0,0 3.601456,-1.66563 3.601456,-1.66563 z"
       inkscape:connector-curvature="0"
       style="stroke-width:0.26458332" />
    <path
       id="path3785"
       d="m 40.980571,139.28526 c -0.152574,-0.76523 -0.42673,-1.50266 -0.727469,-2.22084 -0.322157,-0.62991 -0.473673,-1.28708 -0.526772,-1.98712 -0.05945,-1.46147 0.179914,-2.91298 0.384791,-4.35482 0.260321,-1.79062 0.619138,-3.5648 0.907696,-5.3507 0.176937,-1.12594 0.349038,-2.25236 0.835736,-3.29102 0.853398,-1.50037 2.946734,-3.56318 4.609735,-2.59733 0.835875,0.68511 1.29295,1.71638 1.771912,2.66034 0.887167,1.84523 1.796095,3.67911 2.718993,5.50662 0.81855,1.58927 1.430089,3.27193 2.226376,4.8711 0.368409,0.71354 0.730486,1.43987 0.904346,2.22804 0.05537,0.61931 -0.164033,1.20539 -0.487489,1.72283 0,0 -3.624345,1.5677 -3.624345,1.5677 v 0 c 0.348412,-0.41012 0.599885,-0.88301 0.627603,-1.43187 -0.121071,-0.7708 -0.432041,-1.48921 -0.763625,-2.19108 -0.742844,-1.62432 -1.337633,-3.31329 -2.143204,-4.90987 -0.910209,-1.82897 -1.834579,-3.65142 -2.780385,-5.46223 -0.457996,-0.83242 -0.896495,-1.84683 -1.738347,-2.35654 -1.142756,-0.13184 -4.832347,3.12124 2.869674,-1.83974 0.07338,-0.0434 -0.153038,0.0775 -0.220157,0.13002 -0.205243,0.16062 -0.259102,0.27988 -0.408395,0.49852 -0.578893,0.98808 -0.765779,2.0996 -0.966891,3.2155 -0.295333,1.78759 -0.707104,3.55538 -0.938345,5.35398 -0.179057,1.39996 -0.410043,2.80852 -0.311806,4.22454 0.05813,0.65464 0.177096,1.28317 0.467503,1.88037 0.305676,0.74127 0.554268,1.50355 0.81403,2.26172 0,0 -3.501165,1.87188 -3.501165,1.87188 z"
       inkscape:connector-curvature="0"
       style="stroke-width:0.26458332" />
    <path
       id="path3787"
       d="m 39.737201,130.30686 c 3.080475,-2.12984 3.275262,-1.93194 5.943966,-2.73943 0.580493,-0.17965 1.149958,-0.39696 1.691002,-0.67487 0.157641,-0.081 0.617598,-0.34794 0.46405,-0.25946 -2.301388,1.3262 -6.24074,3.56856 0.698299,-0.38839 0.07694,-0.0329 0.153881,-0.0658 0.23082,-0.0987 0,0 -3.094906,2.45813 -3.094906,2.45813 v 0 c -0.06721,0.033 -0.134413,0.0661 -0.20162,0.0991 1.019712,-0.59227 4.092998,-2.34399 3.059134,-1.7768 -1.980182,1.08636 -3.735777,2.39156 -5.904767,3.00331 -0.53207,0.16146 -1.071896,0.30281 -1.601566,0.47163 -1.335907,0.4258 -3.297819,1.87974 2.41444,-1.52147 0,0 -3.698852,1.42699 -3.698852,1.42699 z"
       inkscape:connector-curvature="0"
       style="stroke-width:0.26458332" />
    <path
       id="path3789"
       d="m 44.990662,182.79235 c -0.474609,0.47306 -0.860864,0.97821 -1.089355,1.60984 -0.304732,1.6094 -0.275202,3.27298 -0.257215,4.90527 0.05073,2.2047 0.238421,4.40469 0.50201,6.59339 0.143785,0.97021 0.214497,1.99468 0.639138,2.89448 0.104624,0.10948 0.05253,0.11581 0.146552,0.0575 0,0 -3.323354,2.1941 -3.323354,2.1941 v 0 c -0.200562,-0.18426 -0.108527,-0.0781 -0.270124,-0.32347 -0.350456,-0.98444 -0.474064,-2.02653 -0.554127,-3.06395 -0.210571,-2.21249 -0.370134,-4.43072 -0.458132,-6.65157 -0.05919,-1.63715 -0.117781,-3.28879 0.0327,-4.92181 0.144675,-0.67689 0.470136,-1.27032 0.990148,-1.73789 0,0 3.641759,-1.5559 3.641759,-1.5559 z"
       inkscape:connector-curvature="0"
       style="stroke-width:0.26458332" />
    <path
       id="path3791"
       d="m 39.957258,184.35068 c 0.263385,-0.62281 0.738603,-1.09852 1.22967,-1.54616 1.654849,-1.32397 3.482594,-2.56342 5.48382,-3.26713 0.258889,-0.0289 0.538379,-0.0864 0.798777,-0.0113 0.672769,0.19379 1.161759,0.86488 1.585108,1.36972 0.907883,1.16195 1.595591,2.46836 2.111886,3.8448 0.407897,1.22516 0.252857,2.14465 -0.46903,3.18976 -0.83059,0.96075 -1.894464,1.68495 -2.904614,2.44328 -0.06621,-0.008 -1.145543,0.99929 -1.169744,0.99969 -0.04396,7.9e-4 -0.06438,-0.19037 -0.112009,-0.47508 -5.509342,3.37147 -3.568126,2.15774 -2.453359,1.25079 0.128272,-0.10436 0.51322,-0.42583 0.663995,-0.51445 1.207932,-0.71004 2.429777,-1.39614 3.644667,-2.09421 0.100545,-0.008 0.202317,-0.0421 0.301639,-0.0245 0.538834,0.0958 0.895114,0.80145 1.181089,1.19651 0.476181,0.68759 1.076026,1.27441 1.580743,1.93812 0.559612,0.779 0.866616,1.69385 0.97855,2.63962 0.06636,0.72298 -0.106854,1.09763 -0.681654,1.52085 -2.114761,1.4079 -7.489428,4.20691 -1.067911,0.65487 0.144431,-0.0799 -0.273296,0.18514 -0.410128,0.27744 -0.145275,0.098 -0.285205,0.2045 -0.436192,0.29344 -1.254233,0.73882 -2.519042,1.45955 -3.778565,2.18932 -1.15721,0.52354 -2.446932,0.54844 -3.694506,0.59707 -0.947029,0.0239 -0.48223,0.0135 -1.394389,0.0314 0,0 3.111402,-2.26851 3.111402,-2.26851 v 0 c 0.896628,-0.0123 0.438267,-0.002 1.375061,-0.0328 1.239983,-0.0744 2.511663,-0.15167 3.621908,-0.76827 -0.95277,0.55588 -1.899674,1.12195 -2.858313,1.66764 -0.291285,0.16582 0.544193,-0.39278 0.831538,-0.56533 1.232747,-0.74026 2.500246,-1.42317 3.715298,-2.19212 0.872085,-0.5519 -4.39057,2.54545 -2.678245,1.55343 0.523515,-0.3281 0.888434,-0.44319 0.87094,-1.15247 -0.03656,-0.8845 -0.331108,-1.73545 -0.857213,-2.45087 -0.513271,-0.66148 -1.124477,-1.24263 -1.601005,-1.93501 -0.182327,-0.24282 -0.44727,-0.75632 -0.783897,-0.82179 -0.127825,-0.0249 -0.291703,0.0692 -0.393102,0.11122 1.021305,-0.59842 2.039729,-1.20179 3.06392,-1.79526 0.117015,-0.0678 -0.231394,0.14045 -0.342114,0.21811 -0.30984,0.21733 -0.388922,0.3057 -0.676084,0.55268 -1.309048,1.1259 -0.902357,0.60774 -3.944485,2.39196 -0.14205,-0.09 -0.46459,-0.19237 -0.426337,-0.44923 0.03795,-0.25484 1.064694,-0.93968 1.236443,-1.12207 1.003049,-0.7336 2.02755,-1.46243 2.915846,-2.33315 0.778388,-0.89254 1.010108,-1.69293 0.678871,-2.85891 -0.474541,-1.34458 -1.141939,-2.61372 -2.061134,-3.71185 -0.643239,-0.71772 -1.135427,-1.29811 -2.152782,-0.93604 -1.413542,0.6188 -0.366038,0.17653 2.615319,-1.58123 0.126323,-0.0745 -0.261342,0.13403 -0.385061,0.21276 -0.35011,0.22279 -0.673333,0.49492 -1.002747,0.74605 -0.482897,0.38494 -0.952016,0.80958 -1.260415,1.35172 0,0 -3.601455,1.66562 -3.601455,1.66562 z"
       inkscape:connector-curvature="0"
       style="stroke-width:0.26458332" />
    <path
       id="path3793"
       d="m 80.887074,50.690967 c 0.786262,-0.234659 1.536885,-0.571521 2.300552,-0.869997 0.939094,-0.337786 1.936798,-0.343189 2.92149,-0.364845 1.472292,0.0097 2.94727,-0.04655 4.409281,-0.225316 0.879041,-0.115414 1.719146,-0.108038 2.540336,0.235685 0.756999,0.488947 1.548233,0.772427 2.444803,0.850768 0.842941,0.09607 1.696286,-0.110189 2.534875,-0.01815 0.398767,0.09317 0.52869,0.372735 0.721063,0.683625 -7.911724,3.557651 -3.937071,2.677989 -3.375239,1.486456 0,0 3.620315,-1.666856 3.620315,-1.666856 v 0 c -0.590002,1.572828 0.829291,0.235579 -3.724053,2.146289 -0.08288,-0.230926 -0.177249,-0.337899 -0.448786,-0.353356 -0.832337,-0.01852 -1.667624,0.05954 -2.498402,-0.03328 -0.909706,-0.141639 -1.728917,-0.454144 -2.532367,-0.900874 -0.774237,-0.247296 -1.569439,-0.225637 -2.372728,-0.13458 -1.473938,0.13436 -2.953067,0.17913 -4.432331,0.209171 -0.978234,0.05092 -1.962923,0.115943 -2.878892,0.497388 -0.785654,0.312351 -1.567566,0.661217 -2.396865,0.839679 0,0 3.166948,-2.381811 3.166948,-2.381811 z"
       inkscape:connector-curvature="0"
       style="stroke-width:0.26458332" />
    <path
       id="path3795"
       d="m -8.9866554,58.231888 c -1.1334776,1.142805 -1.9272566,1.345282 -3.8942806,2.408465 -0.05623,0.0304 -0.131472,-0.01579 -0.184888,-0.05091 -0.161316,-0.106043 -0.252822,-0.27636 -0.355211,-0.430787 -0.399606,-0.898861 -0.246247,-1.873237 -0.09533,-2.809666 0.451302,-2.120519 1.432662,-4.073951 2.3131,-6.039937 1.108881,-2.484567 1.9211627,-5.071846 2.5104803,-7.72377 0.3645606,-1.732531 0.6044882,-3.506933 1.3148272,-5.140923 0.8586158,-1.375097 2.8599117,-3.225104 4.3915076,-2.575636 0.2650834,0.112408 0.39153,0.273687 0.594635,0.470122 0.8395962,0.96819 1.2209618,2.197978 1.60490077,3.395337 0.61258889,2.164612 1.02148843,4.37579 1.68014693,6.527752 0.4876042,1.830332 1.4522149,3.430553 2.4751935,4.999244 0.7489121,1.121212 1.2624093,2.336819 1.567185,3.64472 0.1428731,0.925057 0.3522766,1.922799 0.087954,2.845268 -2.9209601,2.015813 -2.8652143,3.041359 -4.27223531,1.378945 0,0 3.35778501,-2.033947 3.35778501,-2.033947 v 0 c 0.055561,0.05736 0.2837926,0.327628 0.4094607,0.35425 0.03801,0.008 0.067121,-0.03916 0.1006806,-0.05873 -1.0696985,0.656728 -2.139397,1.313455 -3.2090955,1.970183 0.049902,-0.04651 0.1176346,-0.07932 0.1497062,-0.139525 C 1.8686533,58.642675 1.61332,57.354959 1.5374825,56.733085 1.2624647,55.461741 0.75928809,54.291094 0.06477852,53.188184 -0.9462763,51.569662 -1.8943995,49.918828 -2.3770009,48.051995 c -0.6508518,-2.143199 -1.0770278,-4.342871 -1.7447512,-6.481244 -0.3865044,-1.116857 -0.769969,-2.282479 -1.6021013,-3.157056 -0.1656439,-0.123521 -0.2495756,-0.23373 -0.4646141,-0.238009 -0.073722,-0.0016 -0.2784163,0.08752 -0.215814,0.04856 1.0270297,-0.639196 2.0788653,-1.237644 3.1189392,-1.855388 0.094406,-0.05607 -0.1980808,0.09947 -0.2819281,0.170368 -0.1051231,0.08889 -0.1862227,0.202798 -0.2793338,0.304194 -0.8678778,1.580928 -1.1329633,3.390665 -1.5092011,5.133451 -0.6051798,2.665442 -1.4014825,5.273755 -2.4799527,7.789704 -0.841584,1.919578 -1.7961573,3.823853 -2.223542,5.889397 -0.130033,0.821243 -0.285916,1.694029 0.04897,2.488912 0.028782,0.03472 0.047155,0.08185 0.086348,0.104172 0.033268,0.01894 0.1399545,-0.09455 0.1354187,-0.09191 -6.1691657,3.584117 -3.7935267,2.528454 -2.8621047,1.592432 0,0 3.6640121,-1.517685 3.664012,-1.517685 z"
       inkscape:connector-curvature="0"
       style="stroke-width:0.26458332" />
    <path
       id="path3797"
       d="m -8.9535973,47.374553 c 0.946045,-0.485349 1.9679994,-0.754304 3.012739,-0.91879 1.6418361,-0.165589 3.2917423,-0.203975 4.9340254,-0.372298 1.17741769,-0.134106 2.3377436,-0.418279 3.4224203,-0.896429 0,0 -3.05742237,2.402811 -3.05742237,2.402811 v 0 c -1.10445033,0.389168 -2.24767003,0.647314 -3.41550143,0.75542 -1.6517059,0.151857 -3.3141324,0.19232 -4.9565705,0.429339 -1.0565791,0.220663 -2.0830951,0.54315 -3.0304171,1.072237 0,0 3.0907267,-2.47229 3.0907267,-2.47229 z"
       inkscape:connector-curvature="0"
       style="stroke-width:0.26458332" />
    <path
       id="path3799"
       d="m 68.524463,40.064613 c -0.714065,1.182179 -0.711404,2.566831 -0.68889,3.903387 0.09836,2.40887 0.39951,4.802891 0.617881,7.202474 0.202533,1.927027 0.217501,3.861774 0.182309,5.796434 -0.0031,0.170971 -0.0062,0.341942 -0.0092,0.512913 -0.0021,0.126188 -0.0052,0.252365 -0.0066,0.378563 -7.94e-4,0.07803 -0.0035,0.156141 -2.25e-4,0.234106 0.0011,0.02803 0.03875,0.07059 0.01363,0.08305 -3.664532,1.817238 -3.599066,2.987345 -3.561958,1.370706 0.03326,-1.668394 -0.09569,-3.335668 -0.160404,-5.00213 -0.06928,-1.926852 -0.04645,-3.857228 0.10432,-5.779614 0.08687,-0.787294 0.205613,-1.574274 0.114303,-2.365952 -0.287211,-1.643917 1.265145,-1.216128 3.521509,-2.382173 0.05868,-0.03033 0.131328,0.01484 0.197246,0.01916 0.09712,0.0063 0.194472,0.0086 0.291709,0.01283 1.026824,0.05175 2.048888,0.0291 3.073561,-0.04301 0.832967,0.0159 1.845382,-0.158697 2.521254,0.460632 0.109496,0.100335 0.188072,0.229899 0.282107,0.34485 0.573231,1.1954 0.224645,2.58605 -0.01082,3.831216 -0.179044,0.977747 -0.437354,1.950562 -0.924547,2.822147 -0.933908,1.312492 -2.811783,1.863992 -4.072144,2.552231 -0.226309,0.123579 -0.535858,0.112652 -0.779264,0.08347 -0.318569,-0.04669 -0.551783,-0.350777 -0.413126,-0.680437 0.06433,-0.152953 0.339239,-0.372298 0.448371,-0.469911 1.438976,-1.119716 3.150833,-1.975366 4.704096,-2.843411 0.247883,-0.13853 0.355976,-0.11054 0.622033,-0.117112 0.891807,0.205256 1.083241,1.185243 1.237123,1.959806 0.208642,1.255159 0.159329,2.519246 0.08259,3.781893 -0.119314,1.229812 -0.258699,2.456066 -0.565861,3.654401 -0.623478,1.92614 -2.864372,3.61913 -4.927823,3.405947 -0.201665,-0.02082 -0.397174,-0.08164 -0.595759,-0.122457 -1.554359,-0.588505 -3.081078,-1.222026 -4.688292,-1.655405 -1.029748,-0.253572 -2.091952,-0.196626 -3.137657,-0.291185 0,0 3.185985,-2.269006 3.185985,-2.269006 v 0 c 1.033137,0.103108 2.078784,0.132821 3.086801,0.411065 1.593602,0.465791 3.118618,1.119473 4.714354,1.570831 0.184576,0.01 0.36956,0.04568 0.553728,0.02989 0.156332,-0.01341 0.586751,-0.203346 0.456078,-0.116485 -0.951256,0.632322 -1.957927,1.17703 -2.936891,1.765546 0.110662,-0.07964 0.237154,-0.140965 0.331986,-0.238922 0.23758,-0.245409 0.326623,-0.522465 0.462272,-0.827061 0.353769,-1.169971 0.470509,-2.377046 0.612987,-3.587456 0.07979,-1.227693 0.159335,-2.459294 -0.05927,-3.67959 -0.11299,-0.547867 -0.22171,-1.491236 -0.967253,-1.425543 -1.183577,0.37592 -3.307892,1.80576 2.490666,-1.534882 0.119255,-0.0687 -0.233974,0.145005 -0.35096,0.217506 -0.116977,0.06995 -0.236786,0.135366 -0.35093,0.209849 -0.109312,0.07133 -0.212598,0.1515 -0.318899,0.227251 -0.05145,0.0417 -0.363744,0.306874 -0.45752,0.343683 -0.136851,0.05371 -0.345382,-0.10278 -0.0185,-0.04752 0.346234,-0.06021 0.800817,-0.285425 0.662086,-0.201819 -1.024732,0.617569 -2.06733,1.205087 -3.094474,1.81864 -0.0862,0.05149 0.188372,-0.07461 0.270803,-0.131951 0.08319,-0.05787 0.146807,-0.139729 0.22021,-0.209592 0.575046,-0.80568 0.862971,-1.767441 1.062935,-2.72887 0.222805,-1.071319 0.581094,-2.453892 0.108185,-3.488042 -0.07208,-0.08145 -0.131302,-0.176421 -0.216252,-0.244345 -0.62943,-0.503285 -1.610169,-0.251034 -2.338747,-0.289571 -1.049504,0.06684 -2.098069,0.0679 -3.149357,0.0702 -0.100666,0.0059 -0.201887,0.0057 -0.302,0.01778 -0.0593,0.0072 -0.226097,0.07027 -0.174715,0.03982 1.10114,-0.652663 2.244981,-1.233159 3.331038,-1.910625 0.117298,-0.07317 -0.166889,-0.113667 -0.176932,-0.07672 -0.01156,0.04257 0.0097,0.08771 0.01455,0.131561 0.05096,0.839473 -0.06665,1.664616 -0.20215,2.491912 -0.233526,1.91203 -0.273669,3.844044 -0.199887,5.767927 0.07241,1.643412 0.2237,3.281551 0.33229,4.922531 0.11611,1.606524 0.10197,0.270542 -3.531362,2.176335 -0.02238,0.01175 0.03337,-0.04031 0.03919,-0.06491 0.08925,-0.377561 0.04996,-0.780008 0.11199,-1.160418 0.121089,-1.938403 0.167976,-3.880305 -0.03648,-5.816293 -0.208396,-2.398535 -0.514638,-4.787754 -0.685072,-7.189573 -0.07574,-1.337103 -0.154334,-2.757797 0.442026,-3.999103 0,0 3.605985,-1.63146 3.605985,-1.63146 z"
       inkscape:connector-curvature="0"
       style="stroke-width:0.26458332" />
    <path
       id="path3801"
       d="m 83.859872,223.79691 c 1.126069,0.47074 2.367428,0.60144 3.563789,0.79613 2.317051,0.43883 4.652589,0.75426 6.991612,1.04749 3.013059,0.41253 6.051977,0.36787 9.082237,0.25831 2.79051,-0.10082 5.55223,-0.5121 8.27967,-1.09123 1.6495,-0.35197 3.30906,-0.69088 4.99994,-0.71418 0.50186,0.0196 1.03339,-0.0618 1.41104,0.32321 0.24638,0.32059 0.14076,0.39051 0.001,0.71957 -0.17804,0.41154 -0.0889,0.19609 -0.26583,0.64707 0,0 -3.5495,1.66019 -3.5495,1.66019 v 0 c 0.1432,-0.46068 0.0659,-0.24672 0.22579,-0.64409 0.077,-0.21487 0.0354,-0.4398 0.19666,-0.28371 -0.3158,-0.21237 -0.81575,-0.0576 -1.16095,-0.13455 -1.63167,0.0137 -3.23325,0.36094 -4.82802,0.6766 -2.72079,0.53243 -5.47138,0.89922 -8.24557,0.98901 -3.054223,0.097 -6.114997,0.12282 -9.152313,-0.27755 -2.36973,-0.27741 -4.732795,-0.5971 -7.08561,-0.9953 -1.265772,-0.18105 -2.552473,-0.32926 -3.760949,-0.76846 0,0 3.296555,-2.20851 3.296555,-2.20851 z"
       inkscape:connector-curvature="0"
       style="stroke-width:0.26458332" />
    <path
       id="path3803"
       d="m 95.2868,232.96142 c 0.830799,0.0438 1.666184,0.0883 2.496627,0.0275 1.169704,-0.102 2.310573,-0.41071 3.463763,-0.62423 1.56177,-0.29874 3.13827,-0.22857 4.71089,-0.0961 1.2991,0.19049 2.60656,0.31134 3.89922,0.54221 0.43473,0.079 0.87014,0.15429 1.30584,0.22781 1.48314,0.27545 -1.97295,2.24003 -3.31804,2.45562 0,0 3.13661,-2.44647 3.13661,-2.44647 v 0 c 1.35655,-0.78626 -1.86883,2.60573 -3.09626,2.26988 -0.40457,-0.10424 -0.81332,-0.19157 -1.22237,-0.27614 -1.25992,-0.25246 -2.54167,-0.38 -3.81427,-0.5513 -1.56045,-0.11626 -3.12494,-0.14297 -4.665056,0.19105 -1.172339,0.23728 -2.33898,0.55194 -3.538132,0.61238 -0.840709,0.0266 -1.689762,-0.0511 -2.524056,0.0643 0,0 3.165234,-2.39654 3.165234,-2.39654 z"
       inkscape:connector-curvature="0"
       style="stroke-width:0.26458332" />
    <path
       id="path3805"
       d="m 97.489821,241.73759 c 1.277602,-1.08397 3.115059,-1.89842 4.431559,-2.57757 0.13791,-0.0711 0.30032,-0.0853 0.45489,-0.0991 0.36987,-0.0331 0.5496,0.0361 0.90275,0.11612 0.77702,0.28109 1.43234,0.79053 2.19327,1.10752 0.53384,0.0868 1.06113,0.021 1.59507,0.10863 0.47721,0.10888 0.93835,0.25988 1.42706,0.32854 0.0404,-0.006 0.37742,-0.0497 0.41691,-0.0672 0.051,-0.0225 0.17496,-0.1367 0.12634,-0.10947 -1.09667,0.62711 -2.19335,1.25422 -3.29002,1.88133 0.10505,-0.0848 0.0615,-0.0418 0.13484,-0.12488 0,0 3.55414,-1.782 3.55414,-1.782 v 0 c 0.24014,1.72146 -2.58923,2.64909 -4.17388,2.46942 -0.47931,-0.0922 -0.94121,-0.25445 -1.42622,-0.31482 -0.54889,-0.059 -1.11673,0.0179 -1.63554,-0.21901 -0.70764,-0.34513 -1.34826,-0.83972 -2.12169,-1.03249 -0.361933,-0.0348 -0.431217,-0.07 -0.796554,0.0132 -0.146238,0.0333 -0.554257,0.22009 -0.427741,0.13955 5.176275,-3.2953 3.457145,-2.03198 2.288865,-1.35129 0,0 -3.654049,1.51356 -3.654049,1.51356 z"
       inkscape:connector-curvature="0"
       style="stroke-width:0.26458332" />
    <path
       id="path3807"
       d="m 129.63047,231.60432 c -0.64093,-0.49437 -1.39108,-0.96602 -2.23431,-0.95067 -0.16365,0.003 -0.3237,0.0489 -0.48555,0.0733 -1.77638,0.90837 1.54676,-0.94625 2.3636,-1.33584 0.21286,-0.10151 -0.36768,0.29764 -0.52958,0.46911 -0.69451,0.73548 -1.14772,1.63391 -1.61891,2.51652 -0.84194,1.85885 -1.65026,3.93175 -1.35592,6.01966 0.0537,0.38111 0.18979,0.74601 0.28469,1.11901 0.17659,0.33735 0.31581,0.69708 0.52977,1.01206 0.92529,1.36206 2.47478,2.10883 4.07457,2.32805 0.42349,0.058 0.85411,0.0367 1.28116,0.0551 1.0488,-0.13666 1.49736,-0.11682 2.47614,-0.55505 0.37362,-0.16727 1.44207,-0.76484 1.05772,-0.62397 -0.79396,0.29101 -1.45352,1.01008 -2.2964,1.07798 -0.38259,0.0308 0.48159,-0.6043 0.65666,-0.94588 0.18133,-0.3538 0.26892,-0.74827 0.40337,-1.12241 0.49083,-2.62902 -0.22644,-5.19328 -1.27388,-7.58937 -0.32121,-0.4978 -0.60148,-1.32681 -1.25692,-1.51978 -0.41355,-0.12175 -0.71108,0.2731 -0.66252,0.24775 1.0094,-0.52683 1.99768,-1.09317 2.99652,-1.63976 -0.35961,0.34143 -0.62777,0.75689 -0.84851,1.19779 -0.0469,0.0936 -0.0871,0.19056 -0.12482,0.28821 -0.0155,0.0399 -0.007,0.1562 -0.0345,0.12376 -0.0725,-0.0841 -0.0833,-0.20588 -0.125,-0.30881 -4.55932,2.77396 -3.66317,2.33329 -2.45711,0.60825 0,0 3.55273,-1.55025 3.55273,-1.55025 v 0 c -1.37593,2.07564 -0.60108,1.21362 -4.34113,3.27829 -0.0699,-0.10418 -0.17114,-0.19313 -0.20959,-0.31253 -0.023,-0.0715 0.16196,-0.4841 0.18334,-0.52939 0.22012,-0.46612 0.4835,-0.91484 0.79255,-1.32741 1.23054,-0.74918 2.43438,-1.54409 3.69161,-2.24756 0.12811,-0.0717 0.28995,-0.0766 0.43603,-0.062 0.92749,0.0929 1.30931,1.25433 1.66795,1.92568 1.00019,2.49206 1.75328,5.12369 1.37662,7.83461 -0.17451,0.59419 -0.42074,1.80388 -0.97281,2.24157 -1.38821,1.10061 -4.21309,3.17015 -6.38756,3.55168 -0.43047,0.0755 -0.87082,0.0756 -1.30623,0.11338 -0.43956,-0.0367 -0.88398,-0.0353 -1.31867,-0.11012 -1.69591,-0.29193 -3.29147,-1.12403 -4.26616,-2.57796 -0.22779,-0.33979 -0.37944,-0.72484 -0.56916,-1.08726 -0.10543,-0.39734 -0.25363,-0.78573 -0.3163,-1.19201 -0.32842,-2.12922 0.45312,-4.25817 1.25768,-6.18409 1.41148,-2.91512 2.62283,-4.54677 6.31773,-5.49417 0.17706,5.3e-4 0.35504,-0.0168 0.53117,0.001 0.90175,0.0925 1.67329,0.60203 2.40854,1.08918 0,0 -3.34863,2.09403 -3.34863,2.09403 z"
       inkscape:connector-curvature="0"
       style="stroke-width:0.26458332" />
    <path
       id="path3809"
       d="m 142.67519,229.20169 c 0.9024,0.56164 1.26962,1.54644 1.64403,2.49146 0.51857,1.57208 1.03802,3.14453 1.53728,4.72296 0.21701,0.70513 0.53959,1.37609 0.69879,2.09826 0.0591,0.59382 0.15227,1.17542 0.4407,1.70313 0.0496,0.0713 0.0892,0.1507 0.14895,0.21376 0.0399,0.0421 0.087,0.0932 0.14492,0.0966 0.12518,0.007 0.36276,-0.33771 0.25159,-0.27969 -3.14252,1.64023 -3.82232,2.82858 -2.97358,1.47885 0.33301,-0.75611 0.43768,-1.58293 0.68071,-2.36818 0.20804,-0.67223 0.31963,-0.90651 0.58801,-1.57119 0.89318,-1.92106 2.06876,-3.69056 3.07821,-5.55019 0.45061,-0.963 0.90872,-1.73894 0.2382,-2.6916 0,0 3.39565,-1.98692 3.39565,-1.98692 v 0 c 0.7431,1.19513 0.4035,1.92755 -0.1883,3.13574 -1.02034,1.83468 -2.16929,3.60031 -3.0717,5.49803 -0.29436,0.72683 -0.58165,1.44234 -0.76663,2.20646 -0.0228,0.0943 -0.22303,1.09395 -0.25378,1.22005 -0.0394,0.16176 -0.0914,0.32019 -0.13718,0.48029 -0.5504,1.70492 -0.0713,0.51033 -3.67214,2.62481 -0.36863,0.21646 -0.73474,-0.30507 -0.87383,-0.55097 -0.2973,-0.55895 -0.46747,-1.16477 -0.51943,-1.79681 -0.11622,-0.72481 -0.38911,-1.41154 -0.5851,-2.11647 -0.43399,-1.58472 -0.94492,-3.14985 -1.50785,-4.69318 -0.3725,-0.86411 -0.73302,-1.77318 -1.62612,-2.21153 0,0 3.3286,-2.15367 3.3286,-2.15367 z"
       inkscape:connector-curvature="0"
       style="stroke-width:0.26458332" />
    <path
       id="path3811"
       d="m 153.76234,237.69999 c -0.54721,0.0602 -1.07725,-0.03 -1.61667,-0.10561 -0.40772,-0.0344 -0.86719,-0.2105 -1.20611,0.079 1.07452,-0.60865 2.1385,-1.23632 3.22358,-1.82594 0.0681,-0.037 -0.11779,0.10237 -0.16493,0.16389 -0.0551,0.072 -0.10425,0.14992 -0.13952,0.23342 -0.14786,0.35016 -0.11615,0.70505 -0.0793,1.07097 0.14272,0.69417 0.51958,1.43987 1.28168,1.59869 0.12534,0.0261 0.25566,0.0144 0.38349,0.0215 0.12525,-0.0367 0.25705,-0.0559 0.37575,-0.11022 0.12774,-0.0584 0.47955,-0.29246 0.3565,-0.22469 -1.0069,0.55459 -1.98724,1.1581 -3.00867,1.68547 -0.11811,0.061 0.19964,-0.17708 0.28482,-0.27914 0.19426,-0.23276 0.24115,-0.37737 0.36641,-0.64594 0.11659,-0.42667 0.25047,-0.83264 -0.25051,-1.00527 -0.52793,0.034 -0.36409,0.37908 -0.6709,-0.15559 0,0 3.53599,-1.87859 3.53599,-1.87859 v 0 c -0.0413,-0.0621 -0.17591,-0.25827 -0.16981,-0.26937 0.0126,-0.023 0.57198,0.0829 0.61924,0.13738 0.55126,0.37418 0.6495,0.89413 0.49327,1.52944 -0.71503,1.99424 -1.90325,1.97823 -4.25721,3.31237 -0.13046,0.0739 -0.28016,0.11323 -0.42792,0.13885 -0.14642,0.0254 -0.29709,0.008 -0.44563,0.0126 -0.14772,-0.0369 -0.30137,-0.0553 -0.44318,-0.11079 -0.8187,-0.32032 -1.26777,-1.12673 -1.47559,-1.93407 -0.47198,-2.54354 1.17333,-2.43625 3.72761,-3.91966 0.4394,-0.0505 0.87655,0.042 1.31148,0.10228 0.55152,0.0741 1.1002,0.0665 1.65349,0.10925 0,0 -3.25735,2.26975 -3.25735,2.26975 z"
       inkscape:connector-curvature="0"
       style="stroke-width:0.26458332" />
    <path
       id="path3813"
       d="m 164.3155,227.2571 c 0.35497,1.55684 0.20009,3.17818 0.21818,4.7629 -0.0283,1.96032 0.27793,3.89746 0.45706,5.84254 0.12967,1.13308 0.035,2.26461 -0.008,3.39707 -0.002,0.28674 -0.022,0.57479 0.0904,0.84334 0,0 -3.46922,1.93662 -3.46922,1.93662 v 0 c -0.12883,-0.33431 -0.14744,-0.66145 -0.11842,-1.01963 0.0679,-1.13178 0.22705,-2.25819 0.11292,-3.39691 -0.11526,-1.96483 -0.41033,-3.91946 -0.4054,-5.89255 -0.0442,-1.50088 0.0763,-3.05386 -0.31748,-4.51502 0,0 3.43942,-1.95836 3.43942,-1.95836 z"
       inkscape:connector-curvature="0"
       style="stroke-width:0.26458332" />
    <path
       id="path3815"
       d="m 172.85115,226.47909 c 0.13488,0.84329 0.16161,1.70044 0.19907,2.55258 0.0449,0.81642 0.0212,1.63202 -0.0357,2.4469 -0.24527,2.49251 -0.25474,4.99608 -0.14563,7.49564 -0.0342,1.49085 0.36292,2.94145 0.49069,4.41485 -4.11954,2.0768 -3.22457,2.73913 -4.2797,0.15548 0,0 3.35003,-1.88292 3.35003,-1.88292 v 0 c 1.107,2.42049 1.32449,1.07715 -2.67934,3.39759 0.23184,-0.11357 0.12701,-0.0185 0.11088,-0.45152 -0.0492,-1.31936 -0.25543,-2.62976 -0.25849,-3.95232 -0.0975,-2.47994 -0.12515,-4.9612 -0.037,-7.44209 0.026,-0.7977 -0.004,-1.59497 -6e-5,-2.39313 -0.0129,-0.81185 -0.0245,-1.63146 -0.18419,-2.4303 0,0 3.46943,-1.91076 3.46943,-1.91076 z"
       inkscape:connector-curvature="0"
       style="stroke-width:0.26458332" />
    <path
       id="path3817"
       d="m 167.10339,239.30215 c -1.24097,-1.73716 1.72378,-3.28914 3.57497,-3.03189 1.1896,0.17173 2.35536,-0.0311 3.49495,-0.36772 1.47089,-0.68044 1.21128,-0.57923 -2.27853,1.3499 -0.1274,0.0704 0.2471,-0.15449 0.36452,-0.24054 0.23713,-0.17376 0.4229,-0.37896 0.6108,-0.60146 0,0 3.64265,-1.53384 3.64265,-1.53384 v 0 c -0.21413,0.22906 -0.38778,0.49552 -0.62452,0.70361 -1.36622,1.2009 -3.05496,2.06095 -4.76806,2.66638 -1.1913,0.29379 -2.38741,0.4143 -3.61509,0.3531 -1.47807,0.41833 -0.21325,0.0875 2.89449,-1.89972 0.0333,-0.0213 -0.0978,-0.009 -0.11563,0.0262 -0.0856,0.16957 0.19163,0.46459 0.24953,0.58788 0,0 -3.43008,1.98806 -3.43008,1.98806 z"
       inkscape:connector-curvature="0"
       style="stroke-width:0.26458332" />
    <path
       id="path3819"
       d="m 179.13446,235.40859 c -1.08911,0.059 -1.80985,0.12439 -2.74006,0.74099 6.09355,-3.39429 2.01036,-1.9478 2.50585,-0.24747 0.0279,0.0958 0.0898,0.17821 0.1347,0.26732 0.26743,0.40307 0.67922,0.6694 1.01529,1.00577 0.24343,0.24365 0.31906,0.37387 0.52105,0.65523 0.36717,0.70502 0.76242,1.39895 1.07354,2.13136 0.55472,1.87107 -2.34978,2.436 -3.93743,2.96723 0,0 3.08263,-2.42224 3.08263,-2.42224 v 0 c 1.50188,-0.68717 -0.0656,0.0145 -2.77845,1.72135 -0.0474,0.0298 0.11989,0.0111 0.167,-0.0192 0.0379,-0.0244 0.0509,-0.0787 0.0548,-0.12364 0.006,-0.0681 -0.0176,-0.13566 -0.0264,-0.20349 -0.26835,-0.71587 -0.63614,-1.38817 -1.00075,-2.05858 -0.47367,-0.62719 -1.1168,-1.07639 -1.58021,-1.71184 -0.0628,-0.12516 -0.1436,-0.2428 -0.18835,-0.37549 -0.75089,-2.22653 2.85589,-3.43361 3.97782,-4.03138 0.96085,-0.47315 1.84059,-0.53657 2.8854,-0.6658 0,0 -3.16644,2.36992 -3.16644,2.36992 z"
       inkscape:connector-curvature="0"
       style="stroke-width:0.26458332" />
    <path
       id="path3821"
       d="m 41.608089,11.906464 c 4.290705,-2.4921716 2.86345,-2.1799302 6.322914,-1.742221 2.082467,0.168992 4.164976,-0.05117 6.243992,-0.153627 2.478022,-0.2143095 4.906804,0.226169 7.311065,0.768935 1.623507,0.390684 3.25424,0.798428 4.925454,0.919757 1.023379,0.0743 1.324861,0.03614 2.342409,-5.3e-4 2.047893,-0.174552 4.009977,-0.76886 5.861121,-1.642068 0.564711,-0.2310297 1.204934,-0.8555143 1.854301,-0.6053667 0.231431,-1.3804029 0.05812,-0.14732 -3.288673,1.7718357 0,0 3.679989,-1.5095759 3.679989,-1.5095759 v 0 c -3.548803,2.1053909 -2.229501,2.5492929 -3.65375,2.0220199 -0.567431,0.09293 -1.04869,0.521613 -1.586003,0.695834 -1.87175,0.798217 -3.840104,1.346875 -5.880528,1.468302 -1.045483,0.01463 -1.311905,0.04585 -2.36143,-0.0515 -1.673969,-0.155265 -3.305162,-0.575813 -4.937493,-0.956829 -2.394029,-0.523556 -4.814448,-0.894732 -7.273708,-0.671802 -2.117775,0.117419 -4.240736,0.330295 -6.362306,0.159756 -0.628549,-0.06921 -1.280075,-0.193659 -1.914287,-0.196657 -1.390993,-0.0066 -3.576203,1.845907 2.415781,-1.703268 0,0 -3.698848,1.426999 -3.698848,1.426999 z"
       inkscape:connector-curvature="0"
       style="stroke-width:0.26458332" />
    <path
       id="path3823"
       d="m 120.63906,9.3215657 c -0.48929,0.4844071 -0.70955,0.9174423 -0.41588,1.5772653 0.72327,0.943499 2.05771,0.962401 3.14328,1.019721 2.97458,-0.0159 5.92496,-0.459939 8.87979,-0.756378 2.84693,-0.315533 5.7098,-0.290217 8.56865,-0.253901 1.86158,0.04842 3.72266,-0.06349 5.58116,-0.158369 0.46243,0.07098 1.49627,-0.236773 1.89801,-0.01789 1.12057,0.663588 -2.31509,3.0655 -3.43932,2.104972 0,0 3.35198,-2.129669 3.35198,-2.129669 v 0 c 1.31712,0.753614 -2.22253,2.897855 -3.20128,2.274146 -0.12895,0.04138 -0.29558,0.01842 -0.42753,0.01954 -0.42945,0.0036 -0.85885,0.01198 -1.28813,0.02451 -1.82653,0.05013 -3.65425,0.131574 -5.48146,0.05994 -2.82653,-0.05325 -5.65734,-0.08236 -8.47216,0.23573 -3.01209,0.301227 -6.01699,0.75806 -9.04775,0.80789 -1.27089,-0.07287 -2.67394,-0.170563 -3.47761,-1.298034 -0.37616,-0.768704 -0.34681,-1.293497 0.16424,-1.991784 0,0 3.66401,-1.5176833 3.66401,-1.5176833 z"
       inkscape:connector-curvature="0"
       style="stroke-width:0.26458332" />
    <path
       id="path3825"
       d="m 44.545371,-12.967557 c 0.133377,1.4961 0.114954,3.0023682 0.119684,4.5031256 0.03116,2.2616433 0.01249,4.5211381 -0.05873,6.7816538 0.0048,1.00336044 -0.141467,1.99525496 -0.263768,2.9880051 -0.0099,0.094344 -0.01987,0.1886885 -0.02981,0.2830327 0,0 -3.529029,1.7514286 -3.529029,1.7514286 v 0 c 0.01048,-0.098241 0.02096,-0.196482 0.03144,-0.2947228 0.139745,-1.0064468 0.38154,-2.0007252 0.400796,-3.02134651 0.152085,-2.25938949 0.20428,-4.52067439 0.119645,-6.78477049 -0.04298,-1.4505869 -0.05205,-2.9146008 -0.290777,-4.349339 0,0 3.500556,-1.857067 3.500556,-1.857067 z"
       inkscape:connector-curvature="0"
       style="stroke-width:0.26458332" />
    <path
       id="path3827"
       d="m 51.225931,-12.662486 c 0.168333,1.507601 0.408263,3.0065261 0.6589,4.5023056 0.195172,1.4049671 0.690224,2.7437191 0.966806,4.1295706 0.135969,1.8393277 -2.366129,2.7850275 -4.062611,2.865664 0,0 3.147525,-2.369471 3.147525,-2.369471 v 0 c 1.46204,-0.456619 0.05689,-0.040235 -2.902227,1.7905687 -0.05963,0.036892 0.146283,-0.00448 0.206409,-0.040553 0.146884,-0.088127 0.132083,-0.2826464 0.152027,-0.418522 -0.139255,-1.4163325 -0.653283,-2.774652 -0.847812,-4.1837876 -0.256874,-1.4793232 -0.496877,-2.9634965 -0.817214,-4.4303703 0,0 3.498197,-1.845405 3.498197,-1.845405 z"
       inkscape:connector-curvature="0"
       style="stroke-width:0.26458332" />
    <path
       id="path3829"
       d="m 43.234906,-5.5203404 c 0.972828,0.461564 2.060734,0.4477869 3.100961,0.2831941 1.369759,-0.2780877 2.588014,-0.9946809 3.876183,-1.5077948 0.170233,-0.058879 0.340469,-0.1177578 0.510702,-0.1766369 0,0 -3.061362,2.3883776 -3.061362,2.3883776 v 0 c -0.162049,0.059455 -0.324096,0.1189109 -0.486143,0.1783665 -1.285364,0.5292595 -2.526551,1.2180313 -3.921196,1.4163241 -1.129885,0.107774 -2.249966,0.056736 -3.315703,-0.3733237 0,0 3.296558,-2.2085069 3.296558,-2.2085069 z"
       inkscape:connector-curvature="0"
       style="stroke-width:0.26458332" />
    <path
       id="path3831"
       d="m 57.40301,-4.2451276 c 0.404331,0.8120419 0.853114,1.6001501 1.291098,2.3941758 0.131807,0.2557576 0.296306,0.4953415 0.396917,0.765992 0,0 -3.53069,1.86437816 -3.53069,1.86437816 v 0 C 55.658233,0.5795741 55.321853,0.2718893 55.302297,0.08935474 54.900522,-0.7148509 54.457594,-1.4998918 53.972933,-2.2570701 c 0,0 3.430077,-1.9880575 3.430077,-1.9880575 z"
       inkscape:connector-curvature="0"
       style="stroke-width:0.26458332" />
    <path
       id="path3833"
       d="M 62.868275,-0.97315336 C 62.455366,-1.7500528 62.118149,-2.5822674 61.492537,-3.2150801 c 0.183483,-0.5332976 -0.894527,0.343386 -0.683924,0.2332101 1.038317,-0.5431959 2.018773,-1.1947125 3.068761,-1.7149977 0.124077,-0.061482 -0.18252,0.2091547 -0.260606,0.3235116 -0.0891,0.1304833 -0.159719,0.2726674 -0.239578,0.4090011 -0.367194,0.7577651 -0.6072,1.4243341 -0.205388,2.2117701 0.727734,0.6130749 1.74674,0.076892 2.444057,-0.3274178 -5.035637,2.98769145 -2.740636,1.68851478 -1.7912,0.6495743 0.353605,-0.3869416 0.615603,-0.8076699 0.864354,-1.2648531 0.700452,-1.7238419 -1.653601,-0.2682053 3.731432,-2.0454718 0.106182,-0.035044 -0.02482,0.222409 -0.02999,0.3341052 -0.007,0.1520357 -0.0044,0.3043653 -0.0066,0.4565478 -0.0099,1.3393213 0.206698,2.6624849 0.433168,3.9777808 0.132482,0.7179562 0.260535,1.4538335 -0.08684,2.1224765 -0.536157,0.6882951 -1.13289,1.3261938 -1.678109,2.0094189 -0.570473,0.7266623 -0.974005,1.5619045 -1.595377,2.2488033 -2.325631,2.1283115 -3.09386,2.8648408 -4.804312,1.4802762 -0.566398,-0.5710348 -0.443121,-1.0693505 -0.03207,-1.6834471 0.634153,-0.7253835 1.367951,-1.3661215 2.082323,-2.0133164 1.33526,-1.102614 3.021785,-1.805089 4.495528,-2.6191412 0,0 -3.064875,2.4164754 -3.064875,2.4164754 v 0 c 5.414369,-3.19845029 3.30283,-2.0234544 2.173647,-1.2636212 -0.717709,0.6142961 -1.387179,1.2857144 -2.086443,1.9192002 -0.287385,0.3715194 -0.708687,0.7308127 -0.231984,1.1387777 0.187692,0.1348362 0.403481,0.3088826 0.638667,0.3519329 0.05779,0.010578 0.226211,-0.038676 0.176069,-0.00806 -2.909107,1.7764091 -4.415919,2.2768547 -2.983013,1.784858 0.709764,-0.629317 1.138092,-1.4484836 1.668608,-2.2243287 0.512154,-0.6777059 1.049666,-1.3333312 1.622859,-1.9571028 0.530352,-0.594546 0.37668,-1.141366 0.286533,-1.8935933 -0.18946,-1.33177344 -0.401687,-2.66196827 -0.482459,-4.0062204 -0.01215,-0.1558957 -0.02867,-0.3115118 -0.03643,-0.4676872 -0.0051,-0.1033702 -0.09129,-0.2577686 -0.0021,-0.3104848 1.163833,-0.6888461 2.425615,-1.1976909 3.620523,-1.8311037 0.02524,-0.013383 -0.04832,-0.072536 -0.06817,-0.051978 -0.130797,0.1354902 0.0026,0.4329078 -0.180509,0.5353531 -1.321948,2.5311902 -2.882061,3.084683 -5.641978,4.62596235 -0.938813,0.42101246 -2.075362,0.77459575 -2.843485,-0.13931662 -0.47458,-0.92967218 -0.342143,-1.62307873 0.06148,-2.56018893 0.909434,-1.878491 1.007573,-1.2893116 4.04609,-3.0834106 0.345038,-0.2037284 0.698929,-0.00653 0.966463,0.2080416 0.590004,0.6946696 0.962996,1.5237822 1.460867,2.2825315 0,0 -3.430079,1.98805746 -3.430079,1.98805746 z"
       inkscape:connector-curvature="0"
       style="stroke-width:0.26458332" />
    <path
       id="path3835"
       d="m 73.713831,-16.716188 c 0.530328,1.351431 0.768594,2.760361 0.875999,4.200201 0.124589,2.311996 -0.146955,4.6198309 -0.287311,6.9252494 -0.02828,1.2034359 -0.211043,2.4242411 0.0011,3.6200573 0.183433,0.5313345 0.109987,0.019263 -3.462716,1.78788665 -0.04385,0.0217075 0.07674,-0.0642436 0.100417,-0.10706416 0.100804,-0.18233152 0.153109,-0.3875347 0.229802,-0.58124693 0.261403,-0.61717816 0.587422,-1.19848706 1.060587,-1.67632226 1.212466,-0.8638194 3.202697,-3.2259905 4.346644,-1.800169 0.187634,0.2338681 0.260046,0.4325263 0.390123,0.7057779 0.366593,1.2666518 0.804703,2.503821 1.315339,3.71975157 0.354944,0.80833729 0.842396,1.54297703 1.158581,2.36830193 0.0578,0.2677014 0.04658,0.1299476 0.02949,0.413581 0,0 -3.601236,1.6786301 -3.601236,1.6786301 v 0 c 0.122894,-0.089097 0.0845,-0.028606 0.108096,-0.1857777 C 75.744875,3.5050335 75.263085,2.767044 74.93289,1.9559848 74.43201,0.75245401 73.97888,-0.4675143 73.571871,-1.7055786 c -0.08995,-0.1659516 -0.197122,-0.4077217 -0.344604,-0.5467539 -0.03542,-0.033394 -0.08133,-0.06206 -0.129765,-0.067014 -0.05177,-0.0053 -0.196043,0.064931 -0.15136,0.038259 2.916521,-1.7408677 4.337825,-2.3624464 2.939463,-1.7403951 -0.545717,0.3662846 -0.868196,0.9168553 -1.147006,1.5025717 -0.08244,0.1981076 -0.156734,0.3472497 -0.200478,0.5563037 -0.01545,0.073813 0.04066,0.1865714 -0.02426,0.2249303 -0.564099,0.3332696 -3.374564,3.2611658 -3.702934,1.60775141 -0.132913,-1.26287491 0.0894,-2.52366631 0.146789,-3.78516451 0.17259,-2.2791417 0.428111,-4.568649 0.274169,-6.855533 -0.121298,-1.380946 -0.330446,-2.757823 -0.962827,-4.010842 0,0 3.444838,-1.934723 3.444838,-1.934723 z"
       inkscape:connector-curvature="0"
       style="stroke-width:0.26458332" />
    <path
       id="path3837"
       d="m 83.015589,-16.145903 c -0.08148,0.780983 0.0019,1.516052 0.329586,2.228685 0.375108,0.615506 0.813599,1.192533 1.124119,1.846799 0.372179,0.784174 0.451501,1.135914 0.728504,1.992822 0.79887,2.9999405 1.107207,6.105861 1.425887,9.18646516 0.113753,1.01542692 0.17027,2.03571334 0.31332,3.04781014 0.04103,0.2902715 0.06137,0.7762366 0.245414,1.0356863 C 86.030193,3.7354761 84.899316,4.3264044 83.725741,4.8216989 83.615592,4.8681856 83.8999,4.653934 83.961742,4.5516154 84.09711,4.3276467 84.58709,3.1976959 84.642454,3.070243 c 0.49336,-1.1357442 0.582773,-1.3681257 1.081714,-2.57385139 1.388184,-3.34878751 2.840345,-6.66953321 4.066876,-10.08235651 0.318241,-1.0134971 0.640813,-2.0478591 0.690277,-3.1180441 0.01844,-0.398882 0.0053,-0.723781 -0.293852,-0.991466 -0.05486,-0.0058 -0.110492,-0.02815 -0.164576,-0.01731 -0.07091,0.01422 -0.235595,0.141225 -0.290597,0.18058 1.104805,-0.623188 2.208369,-1.248582 3.314414,-1.869564 0.01902,-0.01068 -0.03799,0.05431 -0.05296,0.03845 -0.04604,-0.04878 -0.05569,-0.12204 -0.08353,-0.18306 -0.100422,-0.212397 -0.130738,-0.135945 -0.07597,-0.23474 0,0 -3.23501,2.349848 -3.23501,2.349848 v 0 c -0.15117,-0.07333 -0.05479,-0.01331 -0.232029,-0.249391 -0.02965,-0.07435 -0.08191,-0.143321 -0.08894,-0.223058 -0.0024,-0.02599 0.04284,-0.02989 0.06548,-0.04286 1.174019,-0.672692 2.335067,-1.368744 3.524358,-2.01405 0.09949,-0.05398 0.377497,0.02649 0.450509,0.06193 0.09081,0.04407 0.166571,0.114087 0.249856,0.17113 0.194117,0.27447 0.28873,0.347856 0.335635,0.722544 0.156247,1.248191 -0.504222,2.726402 -0.825998,3.888458 -1.288118,3.3841946 -2.727515,6.7068249 -4.042579,10.0800905 -0.424812,1.12490398 -0.86292,2.2455012 -1.282438,3.3723536 -0.07533,0.2023445 -0.147725,0.4058214 -0.216368,0.6105311 -0.04396,0.1310817 -0.0019,0.3272888 -0.121351,0.3966149 C 86.232713,4.0284349 84.961314,4.547775 83.734292,5.1501553 83.584954,4.7598996 83.583829,4.3372225 83.552484,3.9223492 83.473932,2.8826595 83.45816,1.840462 83.377864,0.80077058 83.126132,-2.250141 82.835035,-5.3352615 81.927702,-8.2723269 c -0.305057,-0.8314309 -0.377757,-1.1310647 -0.779413,-1.8785681 -0.348747,-0.649037 -0.834625,-1.20915 -1.213403,-1.838836 -0.347749,-0.752642 -0.473781,-1.527953 -0.450606,-2.35688 0,0 3.531309,-1.799292 3.531309,-1.799292 z"
       inkscape:connector-curvature="0"
       style="stroke-width:0.26458332" />
    <path
       id="path3839"
       d="m 120.1555,-8.8023747 c -0.51487,0.1801559 -1.01214,0.3355338 -1.54706,0.1631278 -0.48534,-0.2928175 -0.44768,-0.8643961 -0.43137,-1.3636571 0.061,-0.0246 -0.0335,-0.508391 -0.005,-0.522474 3.63814,-1.786173 3.57436,-3.011766 3.59139,-1.528028 0.0187,0.6708 -0.10361,1.332999 -0.17567,1.997579 -0.18843,1.7661074 -0.30802,3.535582 -0.38435,5.3099707 -0.0545,2.6795451 -0.16549,5.35744342 -0.2312,8.0367117 -0.0185,0.8565513 -0.0313,1.7133507 -0.0298,2.5701308 5.3e-4,0.3655975 -0.007,0.7064785 0.0845,1.0600401 0,0 -3.49305,1.8637771 -3.49305,1.8637771 v 0 c -0.17706,-1.2465058 0.15488,-2.5602488 0.10856,-3.8126384 0.12997,-2.6792584 0.25493,-5.35916487 0.24727,-8.0423767 0.032,-1.7503352 0.0863,-3.499322 0.20918,-5.245641 0.0414,-0.6421946 0.16151,-1.2796361 0.13022,-1.9226193 -0.0823,-1.477506 -0.0466,-0.08582 3.56873,-1.982916 0.011,-0.0058 -0.0283,-0.02246 -0.0354,-0.01216 -0.0452,0.06607 -0.0323,0.157105 -0.0408,0.236728 -0.008,0.07117 -0.0109,0.142739 -0.0163,0.214109 -0.007,0.133608 -0.1143,0.752365 0.0294,0.839696 0.0367,0.02231 0.0817,0.02646 0.12261,0.03968 0.49804,0.01821 0.96174,-0.166767 1.41709,-0.351785 0,0 -3.11911,2.4527448 -3.11911,2.4527448 z"
       inkscape:connector-curvature="0"
       style="stroke-width:0.26458332" />
    <path
       id="path3841"
       d="m 129.25322,-9.464165 c -0.0739,1.3333539 0.24837,2.6462614 0.55486,3.9329232 0.51253,2.0918622 1.12761,4.1289325 1.34757,6.27790723 0.0574,0.78991637 -0.092,1.54388317 -0.28358,2.30190337 0,0 -3.47961,1.6503642 -3.47961,1.6503642 v 0 c 0.23939,-0.7206533 0.4331,-1.4365171 0.41012,-2.2073343 -0.022,-0.3160776 -0.0295,-0.6335029 -0.0661,-0.9482329 -0.20904,-1.80062321 -0.83845,-3.520745 -1.24972,-5.2781325 -0.34002,-1.2888627 -0.70603,-2.5910106 -0.7649,-3.9301068 0,0 3.53131,-1.7992915 3.53131,-1.7992915 z"
       inkscape:connector-curvature="0"
       style="stroke-width:0.26458332" />
    <path
       id="path3843"
       d="m 120.52054,-3.4338103 c 1.08348,1.0468051 2.36892,0.9828634 3.77025,0.8173989 0.32994,-0.074739 0.6652,-0.1290304 0.98983,-0.2242182 0.65745,-0.1927725 1.33494,-0.4875787 1.94139,-0.8039187 0.29746,-0.1551623 1.16592,-0.6644061 0.8721,-0.5024692 -2.51264,1.38479 -3.28801,1.948857 -1.86487,0.9649929 0,0 3.56304,-1.4029047 3.56304,-1.4029047 v 0 c -1.84007,1.2960635 -0.75664,0.5583213 -4.63175,2.8051642 -1.20891,0.7009385 -2.51726,1.2176344 -3.90604,1.41532889 -1.67029,0.13411533 -2.80516,0.0992031 -4.12,-1.03639379 0,0 3.38605,-2.0329803 3.38605,-2.0329803 z"
       inkscape:connector-curvature="0"
       style="stroke-width:0.26458332" />
    <path
       id="path3845"
       d="m 135.10996,-2.2357634 c 0.34415,-0.00674 0.75369,-0.2794982 1.07332,-0.1228696 0.52411,0.5528098 0.67272,1.38043678 0.90934,2.08393311 0.25005,0.46477626 0.4134,1.54574669 0.9609,1.76848609 0,0 -3.36173,2.1263006 -3.36173,2.1263006 v 0 c -0.53832,-0.5423781 -0.6905,-1.3422983 -0.99583,-2.0179015 -0.0764,-0.2112983 -0.50353,-1.67695692 -0.77225,-1.66505885 -0.24199,0.19818117 -0.70393,0.07902862 -0.97899,0.22365031 0,0 3.16524,-2.39654016 3.16524,-2.39654016 z"
       inkscape:connector-curvature="0"
       style="stroke-width:0.26458332" />
    <path
       id="path3847"
       d="m 136.75336,-9.7603224 c 0.0366,0.2970345 0.0533,0.5986925 0.14288,0.8864158 0.0193,0.062048 0.0389,0.1256882 0.074,0.1803463 0.008,0.012128 0.0561,-0.00444 0.0432,0.00198 -1.1522,0.5731796 -2.31061,1.133793 -3.46592,1.7006895 0.21141,-0.087472 0.24171,-0.2995676 0.30529,-0.4970959 0,0 3.56032,-1.7042575 3.56032,-1.7042575 v 0 c -0.0482,0.2498508 -0.10739,0.496343 -0.15823,0.7456189 -3.66063,1.8313093 -3.54499,2.9770953 -4.00216,0.5433642 0,0 3.50056,-1.857067 3.50056,-1.857067 z"
       inkscape:connector-curvature="0"
       style="stroke-width:0.26458332" />
    <path
       id="path3849"
       d="m 145.81246,-1.1772528 c -0.0891,0.4840013 -0.24848,0.95023536 -0.3718,1.42544735 -0.13167,1.58635555 6.57982,-2.29175625 -3.58836,1.95020885 -0.0776,0.032374 -0.0948,-0.1391771 -0.14788,-0.2043559 -0.18388,-0.2256245 -0.25568,-0.2746178 -0.48037,-0.4801462 -0.71863,-0.60868907 -1.52144,-1.06595349 -2.47589,-1.08627923 -0.11612,0.025164 -0.23939,0.0281464 -0.34837,0.0754917 -0.10074,0.0437644 -0.36422,0.2445123 -0.26768,0.19214544 1.04639,-0.56756861 2.05933,-1.1970665 3.11929,-1.73887451 0.0834,-0.042656 -0.12342,0.14387155 -0.1641,0.22830436 -0.10131,0.21027217 -0.0663,0.30485034 -0.0526,0.52789306 0.30417,0.71170545 1.08591,0.30495754 1.62951,0.116715 0.81988,-0.4364126 1.57234,-1.02314912 2.49315,-1.22195052 1.01272,-0.00761 1.33423,0.75544532 1.43185,1.63655905 -0.009,1.28587045 -0.72693,2.35306195 -1.34812,3.42560295 -0.94663,1.5535182 -1.61062,3.2513526 -2.228,4.9558341 -0.50642,1.6453963 -1.87266,5.3021243 -4.56076,3.5038243 -0.56076,-0.517083 -1.12265,-1.056522 -1.8566,-1.311059 -0.19152,0.01917 -0.16007,-0.03585 -0.14106,0.127473 1.10719,-0.769464 2.19228,-1.5717384 3.32156,-2.3083939 0.0514,-0.033553 0.12162,0.026738 0.18288,0.022373 0.25658,-0.01828 0.45721,-0.112083 0.6996,-0.1978244 0.16467,-0.07506 0.33308,-0.1423959 0.49401,-0.2251792 0.18627,-0.095819 0.72892,-0.4131792 0.54656,-0.3101073 -4.19695,2.3722288 -3.2807,1.9627593 -2.14993,1.1463417 0.17146,-0.1237951 0.33764,-0.2547493 0.50591,-0.3828521 0.14898,-0.1134187 0.29722,-0.2278057 0.44583,-0.3417083 0.56055,-0.4072236 0.28331,-0.2154809 0.83034,-0.5772354 0,0 3.63039,-1.4084387 3.63039,-1.4084387 v 0 c -0.57309,0.3393572 -0.28509,0.1559023 -0.8621,0.5533634 -0.50469,0.3749457 -0.989,0.8243146 -1.52695,1.1498185 -1.57728,0.9543936 -3.22765,2.1138177 -5.00911,2.7727427 -0.40326,0.08139 -0.4598,0.128898 -0.8511,0.08346 -0.0836,-0.0097 -0.30864,-0.0086 -0.24441,-0.06293 4.8744,-4.1240456 1.88509,-2.8497697 3.40978,-2.2223104 0.6771,0.3629695 1.24831,0.8633958 1.86567,1.310648 1.41869,0.1844024 0.25408,-0.00484 -3.037,1.9505674 -0.0678,0.0403 0.1456,-0.07183 0.19627,-0.132305 0.35423,-0.422789 0.44279,-1.046898 0.65681,-1.532201 0.64337,-1.7024472 1.27686,-3.4222962 2.18493,-5.0054216 0.56897,-1.0080866 1.28027,-1.9947289 1.37699,-3.1825456 -0.0295,-0.7301299 -0.24392,-1.23122163 -1.07189,-1.0449776 -0.86716,0.3185188 -1.60712,0.8852703 -2.4711,1.2107295 -0.89712,0.2297746 -1.59735,0.302458 -2.02437,-0.6681672 -0.0545,-0.3012598 -0.10518,-0.4246796 -0.0479,-0.73270623 0.32587,-1.7513875 2.75397,-2.57715767 4.42793,-2.65016887 0.98898,0.1690276 1.84834,0.6510264 2.61694,1.29024743 0.0606,0.0535875 0.7383,0.65738308 0.69684,0.68489847 -1.09572,0.72725404 -2.27891,1.3135191 -3.40617,1.9908598 -0.0356,0.021397 0.38266,0.093066 0.0361,-0.1192849 0.0239,-0.4983981 0.35782,-0.9430401 0.36208,-1.45188435 0,0 3.57232,-1.73223755 3.57232,-1.73223755 z"
       inkscape:connector-curvature="0"
       style="stroke-width:0.26458332" />
    <path
       id="path3851"
       d="m 154.11851,-15.493889 c 0.084,2.125054 0.0371,4.25028 -0.002,6.3756119 -0.0255,2.0507028 -0.15346,4.0998087 -0.30583,6.1446163 -0.14895,2.24850608 -0.41976,4.486724 -0.70711,6.7210479 -0.0334,0.2640348 -0.0677,0.5279625 -0.10025,0.7921051 -0.024,0.1951887 -0.0467,0.3905522 -0.0696,0.585878 -0.0138,0.1171667 -0.0307,0.23403 -0.0404,0.3515981 -0.003,0.036238 0.0349,0.092971 0.002,0.1090637 -3.67438,1.8133925 -3.7309,2.9251684 -3.50569,1.3015661 0.21086,-1.2280051 0.25719,-2.4738386 0.37907,-3.7112358 0.3231,-1.7778001 1.5599,-1.6503722 3.81873,-2.73706052 0.0741,-0.0356599 1.24053,0.50690337 1.34531,0.55415751 0.828,0.49038851 1.82419,0.67968731 2.58433,1.27830681 0.59719,0.5688278 0.73832,1.4374649 0.97537,2.1989016 0.69576,2.4767288 0.719,1.1785946 -3.16475,3.435237 -0.2881,-0.1454039 -0.50895,-0.3720108 -0.69571,-0.6292538 0,0 3.40795,-2.0216233 3.40795,-2.0216233 v 0 c 0.13411,0.1721837 0.28104,0.3355634 0.51654,0.3330009 -1.08162,0.6897508 -2.15392,1.3943301 -3.24485,2.0692523 -0.0249,0.015372 0.0325,-0.05238 0.032,-0.081596 -10e-4,-0.070653 -0.0239,-0.1392989 -0.0371,-0.2087142 -0.0654,-0.3433641 -0.14257,-0.6845689 -0.23758,-1.0210469 -0.20482,-0.6721213 -0.3476,-1.4821456 -0.87523,-1.9741481 -0.75149,-0.5404432 -1.67274,-0.7934182 -2.48539,-1.2250007 -0.20261,-0.077761 -0.68673,-0.2826244 -0.93006,-0.3120075 -0.10162,-0.012271 -0.39104,0.084491 -0.30584,0.02774 1.01438,-0.6756904 2.08127,-1.2690295 3.12191,-1.90354427 -0.071,0.0502227 -0.16403,0.078845 -0.21312,0.15066787 -0.0696,0.1018009 -0.0849,0.2315619 -0.12732,0.3473428 -0.19678,1.2135672 -0.22172,2.4495593 -0.35077,3.6715173 0.001,1.6622135 0.0962,0.4154987 -3.57457,2.2173144 -0.0477,0.023418 0.0232,-0.1037445 0.0365,-0.1551961 0.15135,-0.5850258 0.26303,-1.1770662 0.3468,-1.7762352 0.35746,-2.2205405 0.62642,-4.45576048 0.73462,-6.7036121 0.13473,-2.0487698 0.27603,-4.0986051 0.3566,-6.1498718 0.0511,-2.0785888 0.11458,-4.1684833 -0.17053,-6.2346783 0,0 3.48582,-1.820101 3.48582,-1.820101 z"
       inkscape:connector-curvature="0"
       style="stroke-width:0.26458332" />
    <path
       id="path3853"
       d="m 164.2884,-11.997398 c 1.0935,0.599118 1.32443,1.979696 1.59574,3.0842061 0.46447,2.1420306 0.8691,4.2977336 1.18834,6.4662423 0.21111,1.4302221 0.30369,2.8729471 0.36364,4.316132 0.0624,0.3422068 -0.0896,1.1126516 0.31018,1.314398 0.0183,0.00395 0.22031,0.064843 0.23434,0.0316 0.0162,-0.038399 0.0234,-0.1444107 -0.0131,-0.1243478 -3.2408,1.7797576 -4.07792,3.0513699 -3.28385,1.8737429 0.14576,-0.8389549 0.39993,-1.6308782 0.75046,-2.4053828 0.84527,-1.58984201 1.80662,-3.11630888 2.73724,-4.6572294 1.05053,-1.8344833 2.17435,-3.7060506 2.63804,-5.7956419 0.0693,-0.3122033 0.0927,-0.632842 0.13904,-0.9492628 0.006,-1.0044784 0.0453,-0.5338222 -0.0896,-1.4139406 0,0 3.40776,-1.795581 3.40776,-1.795581 v 0 c 0.12062,0.971799 0.0899,0.456606 0.0684,1.546816 -0.0513,0.336866 -0.08,0.6779535 -0.15383,1.0105969 -0.46883,2.1113559 -1.57302,4.0167647 -2.60882,5.8879694 -0.88337,1.5109981 -1.77055,3.02108522 -2.60944,4.55715372 -0.34765,0.73193718 -0.63388,1.46390758 -0.7069,2.27892998 0.0483,1.6169127 -2.65511,3.1158844 -3.88524,2.0530854 -0.41107,-0.4470394 -0.41127,-1.0620994 -0.39169,-1.6415903 -0.006,-1.4467637 -0.0645,-2.89390109 -0.23876,-4.33126988 -0.28171,-2.15751642 -0.65621,-4.30500492 -1.18704,-6.41619942 -0.2515,-0.8994725 -0.47335,-2.3129478 -1.52221,-2.620682 0,0 3.25736,-2.2697448 3.25736,-2.2697448 z"
       inkscape:connector-curvature="0"
       style="stroke-width:0.26458332" />
  </g>
</svg>
