<?xml version="1.0" encoding="UTF-8" standalone="no"?>
<!-- Created with Inkscape (http://www.inkscape.org/) -->

<svg
   xmlns:dc="http://purl.org/dc/elements/1.1/"
   xmlns:cc="http://creativecommons.org/ns#"
   xmlns:rdf="http://www.w3.org/1999/02/22-rdf-syntax-ns#"
   xmlns:svg="http://www.w3.org/2000/svg"
   xmlns="http://www.w3.org/2000/svg"
   xmlns:sodipodi="http://sodipodi.sourceforge.net/DTD/sodipodi-0.dtd"
   xmlns:inkscape="http://www.inkscape.org/namespaces/inkscape"
   width="210mm"
   height="297mm"
   viewBox="0 0 210 297"
   version="1.1"
   id="svg8"
   inkscape:export-filename="/home/edward/Desktop/CAT125Project/resources/OS.png"
   inkscape:export-xdpi="96"
   inkscape:export-ydpi="96"
   inkscape:version="0.92.4 (5da689c313, 2019-01-14)"
   sodipodi:docname="os.svg">
  <defs
     id="defs2" />
  <sodipodi:namedview
     id="base"
     pagecolor="#ffffff"
     bordercolor="#666666"
     borderopacity="1.0"
     inkscape:pageopacity="0.0"
     inkscape:pageshadow="2"
     inkscape:zoom="0.98994949"
     inkscape:cx="232.79144"
     inkscape:cy="452.54061"
     inkscape:document-units="mm"
     inkscape:current-layer="layer1"
     showgrid="false"
     inkscape:window-width="1850"
     inkscape:window-height="1016"
     inkscape:window-x="70"
     inkscape:window-y="27"
     inkscape:window-maximized="1" />
  <metadata
     id="metadata5">
    <rdf:RDF>
      <cc:Work
         rdf:about="">
        <dc:format>image/svg+xml</dc:format>
        <dc:type
           rdf:resource="http://purl.org/dc/dcmitype/StillImage" />
        <dc:title></dc:title>
      </cc:Work>
    </rdf:RDF>
  </metadata>
  <g
     inkscape:label="Layer 1"
     inkscape:groupmode="layer"
     id="layer1">
    <path
       id="path16"
       d="m 22.419122,90.925943 c 0.480603,0.636121 0.797637,1.322652 0.994024,2.047737 0.262826,1.408215 -0.03278,2.846311 -0.25405,4.246826 -0.466326,2.600376 -0.378461,5.228954 -0.20641,7.843374 0.387188,3.74052 0.785113,7.47807 1.077117,11.22461 0.327962,4.48064 0.457171,8.9691 0.455387,13.457 -0.06311,4.72921 -0.144721,9.45815 -0.188424,14.18752 0.06882,4.7769 0.110649,9.55268 0.07454,14.32987 -0.06118,4.64596 -0.08857,9.29138 -0.01733,13.93726 0.191648,4.61385 0.275061,9.22774 0.27833,13.84392 -0.0586,3.66259 -0.169858,7.32438 -0.22884,10.98698 -0.06008,2.99494 -0.05257,5.98908 0.102483,8.98193 0.139251,2.48847 0.380123,4.97252 0.652585,7.45348 0.165289,1.4454 0.230309,2.9033 0.59722,4.32747 0.07692,0.3782 0.245842,0.72597 0.447987,1.06876 0,0 -3.426229,1.56565 -3.426229,1.56565 v 0 c -0.207009,-0.37095 -0.378437,-0.74626 -0.449783,-1.1529 -0.347814,-1.4505 -0.392762,-2.92989 -0.521684,-4.40046 -0.231829,-2.49781 -0.430362,-4.99808 -0.573414,-7.50024 -0.152456,-3.00233 -0.174375,-6.00607 -0.08014,-9.0102 0.08481,-3.67747 0.245967,-7.35312 0.34473,-11.0303 0.03311,-4.61927 -0.04104,-9.23618 -0.244552,-13.85292 -0.07696,-4.64634 -0.0613,-9.29235 0.0056,-13.93883 0.05068,-4.78084 0.03571,-9.5606 -0.04611,-14.34123 0.03043,-4.72401 0.09003,-9.44776 0.153675,-14.17154 0.0091,-4.47779 -0.123052,-8.9569 -0.47787,-13.4262 -0.07765,-0.90302 -0.269664,-3.18164 -0.364143,-4.10304 -0.242127,-2.36133 -0.61338,-4.71281 -0.826569,-7.07627 -0.21238,-2.61136 -0.336686,-5.23773 0.05749,-7.843414 0.193154,-1.35725 0.450351,-2.749582 0.211225,-4.111652 -0.182766,-0.685119 -0.472309,-1.341024 -0.969801,-1.922166 0,0 3.422978,-1.621025 3.422978,-1.621025 z"
       inkscape:connector-curvature="0"
       style="stroke-width:0.23785818" />
    <path
       id="path18"
       d="m 21.278685,91.354404 c 0.03979,0.546188 0.101802,1.181095 0.59452,1.579322 0.638771,0.319544 1.412777,0.244145 2.121528,0.197974 1.285585,-0.179727 2.535334,-0.517532 3.769075,-0.863396 1.743308,-0.512638 3.505348,-0.978872 5.249773,-1.488697 1.083244,-0.250037 2.179812,-0.659791 3.320211,-0.668817 0.454626,0.08444 0.653508,0.349236 0.730869,0.711067 0.05341,0.138478 0.129818,0.271662 0.192672,0.40831 0.64425,1.258381 -2.76148,2.843058 -3.709887,1.727867 -0.07117,-0.09599 -0.09268,-0.201165 -0.101187,-0.311013 0.668949,1.056712 -0.01185,0.254076 3.556357,-1.305494 0.03984,-0.01741 -0.06625,0.0536 -0.08453,0.088 -0.04331,0.08147 -0.109652,0.398653 -0.122492,0.453454 -0.202991,0.781094 -0.347019,1.569565 -0.492913,2.359037 -0.159875,1.04747 -0.117049,2.104166 -0.05074,3.155333 0.16827,1.667735 0.475708,3.323319 0.79252,4.975039 0.483836,2.23998 0.948044,4.48096 1.290145,6.73958 0.353433,2.44201 0.422206,4.90272 0.470541,7.35947 0.07156,2.47401 -0.09,4.94413 -0.394587,7.40378 -0.358211,2.33804 -0.81661,4.66358 -1.120164,7.00749 -0.322064,2.43549 -0.524076,4.88139 -0.685577,7.32768 -0.163052,2.70886 -0.184608,5.4217 -0.196189,8.13339 0.0079,2.47956 -0.03339,4.95978 0.03428,7.43884 0.104815,2.3723 0.171524,4.74533 0.209507,7.11898 0.0258,2.39371 -0.107685,4.78425 -0.08503,7.17812 0.01778,2.34188 0.205296,4.68023 0.44128,7.01287 0.220819,2.23792 0.39977,4.47892 0.56651,6.72016 0.150347,2.14284 -0.09244,4.28054 -0.34639,6.41031 -0.31098,2.27159 -0.438724,4.5529 -0.336237,6.83724 0.123356,1.69323 0.463502,3.36555 0.764481,5.04053 0.236445,1.49825 0.500968,2.99314 0.763937,4.48824 0.277307,1.26197 0.345662,2.5324 0.312304,3.81147 -0.05321,0.89292 -0.08612,1.787 0.160398,2.66159 0.265705,0.72568 0.432213,1.46377 0.454822,2.22242 -0.02958,0.76081 -0.104905,1.51955 -0.140727,2.28025 -0.07304,0.64359 -0.189259,1.28217 -0.243448,1.92743 -0.0047,0.31017 -0.102886,0.63771 0.04553,0.93317 0.08741,0.10277 0.110013,0.15422 0.181993,0.29445 0,0 -3.675382,1.33356 -3.675382,1.33356 v 0 c 0.291359,0.38954 0.05891,0.093 0.01328,0.005 -0.172964,-0.35599 -0.15009,-0.70931 -0.09758,-1.08703 0.06694,-0.64319 0.143851,-1.28491 0.26533,-1.92283 0.0391,-0.7568 0.09949,-1.51235 0.156347,-2.26832 0.0074,-0.73513 -0.164674,-1.45129 -0.415507,-2.15463 -0.268295,-0.90565 -0.251007,-1.82816 -0.170921,-2.75507 0.05044,-1.26538 0.01662,-2.52402 -0.252296,-3.77483 -0.254635,-1.4966 -0.524518,-2.99122 -0.755483,-4.49048 -0.298453,-1.6925 -0.621424,-3.38433 -0.733621,-5.09502 -0.08562,-2.29984 0.04007,-4.59512 0.3345,-6.88333 0.24266,-2.11354 0.474644,-4.23339 0.357415,-6.35934 -0.15076,-2.24212 -0.325681,-4.48368 -0.541055,-6.72203 -0.239731,-2.34015 -0.436996,-4.68591 -0.451204,-7.03571 -0.02601,-2.39381 0.106336,-4.7834 0.08594,-7.1769 -0.03593,-2.37296 -0.104396,-4.74525 -0.20629,-7.11689 -0.06781,-2.48473 -0.01744,-4.97044 -0.01841,-7.45562 0.02421,-2.71639 0.05404,-5.4334 0.190926,-8.14778 0.148109,-2.44604 0.317987,-4.89379 0.641996,-7.32846 0.298979,-2.34752 0.76082,-4.67541 1.138166,-7.0144 0.315939,-2.44726 0.482343,-4.90634 0.41294,-7.36901 -0.04189,-2.44613 -0.108741,-4.89634 -0.450535,-7.32849 -0.348117,-2.24945 -0.818544,-4.48074 -1.330841,-6.70775 -0.34477,-1.6518 -0.661545,-3.30907 -0.874792,-4.976776 -0.09041,-1.066224 -0.16012,-2.136493 -0.02617,-3.203075 0.152821,-0.784446 0.266364,-1.573986 0.454133,-2.353469 0.03205,-0.149957 0.06452,-0.649449 0.09718,-0.666636 3.553052,-1.870041 2.881714,-2.590059 3.740192,-1.431339 -0.0413,0.0049 -0.07185,0.0316 -0.105053,-0.0031 -0.01849,-0.02981 0.0057,-0.113924 -0.02943,-0.09775 -1.589492,0.731599 -4.289488,0.857068 -3.173912,1.755599 0.01106,0.0089 -0.0085,-0.02467 -0.01283,-0.03701 -0.06141,-0.164212 -0.14723,-0.318274 -0.22376,-0.477499 -0.01008,-0.232566 -0.08129,-0.312143 -0.386969,-0.298528 -1.087732,0.106832 -2.13405,0.408359 -3.172127,0.686651 -1.751351,0.499111 -3.511619,0.976147 -5.257559,1.488656 -1.267987,0.346998 -2.55027,0.713112 -3.88308,0.83061 -0.815898,0.03229 -1.681817,0.04148 -2.340064,-0.425972 -0.538007,-0.522442 -0.631758,-1.125704 -0.752661,-1.790388 0,0 3.53602,-1.510156 3.53602,-1.510156 z"
       inkscape:connector-curvature="0"
       style="stroke-width:0.24223284" />
    <path
       id="path20"
       d="m 24.677248,216.2083 c 0.945106,-0.0851 1.904022,-0.0132 2.834924,0.16267 1.250217,0.23206 2.482818,0.54339 3.739401,0.74184 1.419897,0.16536 2.829626,0.40411 4.248746,0.57498 1.12537,0.18877 2.050486,0.30881 3.149856,-0.0306 0,0 -3.133717,2.39622 -3.133717,2.39622 v 0 c -1.061328,0.20491 -2.123043,0.0444 -3.180982,-0.12559 -1.422471,-0.18259 -2.840305,-0.40042 -4.262855,-0.58311 -1.259885,-0.21227 -2.500814,-0.51866 -3.761181,-0.72835 -0.929016,-0.13443 -1.8807,-0.18678 -2.811081,-0.0304 0,0 3.176889,-2.37774 3.176889,-2.37774 z"
       inkscape:connector-curvature="0"
       style="stroke-width:0.26458332" />
    <path
       id="path22"
       d="m 21.89677,107.43088 c 0.596494,0.64612 1.328664,0.95802 2.170285,1.14459 1.532476,0.18893 3.086476,0.0348 4.62811,0.0549 1.66596,-0.0288 3.193709,0.54096 4.728747,1.10208 0.898975,0.37292 1.819918,0.67779 2.78002,0.84003 0.316296,0.0677 0.480872,0.19929 0.615487,0.48324 0,0 -3.487449,1.94132 -3.487449,1.94132 v 0 c -1.43e-4,-0.1299 -0.313045,-0.12217 -0.370422,-0.16559 -0.948743,-0.2209 -1.858076,-0.56089 -2.75902,-0.92914 -1.493035,-0.56283 -2.992953,-1.05932 -4.6154,-1.01669 -1.578488,0.002 -3.179132,0.18431 -4.742396,-0.0863 -0.89279,-0.24215 -1.667762,-0.63749 -2.331373,-1.29508 0,0 3.383411,-2.07336 3.383411,-2.07336 z"
       inkscape:connector-curvature="0"
       style="stroke-width:0.26458332" />
    <path
       id="path24"
       d="m 23.711493,123.33715 c 1.037376,-0.37523 2.08992,-0.69416 3.172004,-0.91054 1.480839,-0.26156 2.980468,-0.2672 4.476771,-0.20152 1.222574,0.0833 2.428127,0.26778 3.594275,0.64436 0.37552,0.15239 0.673092,0.35526 0.804172,0.74174 0,0 -3.581175,1.77618 -3.581175,1.77618 v 0 c 0.254209,0.19228 -0.338257,-0.3685 -0.479132,-0.30507 -1.124235,-0.36771 -2.295366,-0.52898 -3.474828,-0.59629 -1.485413,-0.0468 -2.976455,-0.008 -4.437619,0.29379 -1.094315,0.25618 -2.156296,0.61026 -3.217671,0.97747 0,0 3.143203,-2.42012 3.143203,-2.42012 z"
       inkscape:connector-curvature="0"
       style="stroke-width:0.26458332" />
    <path
       id="path26"
       d="m 25.94046,138.51757 c 1.160861,0.23817 2.341085,0.39321 3.518118,0.53273 1.224764,0.13972 2.460726,0.0305 3.687863,-0.0258 0.810684,-0.071 1.623732,-0.0245 2.416861,0.15631 0.642985,0.12645 1.233847,0.3729 1.760018,0.76012 0.05171,0.0685 0.103413,0.13696 0.15512,0.20545 0,0 -3.415,2.03056 -3.415,2.03056 v 0 c -0.02872,-0.0369 -0.05743,-0.0737 -0.08615,-0.11059 -0.490371,-0.34438 -1.065469,-0.51493 -1.649799,-0.629 -0.774488,-0.12571 -1.552725,-0.16313 -2.336262,-0.0997 -1.234433,0.0492 -2.476762,0.12266 -3.70621,-0.0406 -1.204491,-0.15429 -2.412247,-0.30415 -3.605444,-0.53025 0,0 3.260884,-2.24923 3.260884,-2.24923 z"
       inkscape:connector-curvature="0"
       style="stroke-width:0.26458332" />
    <path
       id="path28"
       d="m 24.29597,152.89945 c 1.117127,0.19357 2.249448,0.0597 3.368331,-0.042 1.356567,-0.16469 2.702028,-0.39734 4.052483,-0.60217 0.872299,-0.13849 1.742678,-0.21477 2.619952,-0.10926 0.09707,0.0142 0.194148,0.0283 0.291221,0.0425 0,0 -3.233399,2.2817 -3.233399,2.2817 v 0 c -0.09147,-0.012 -0.182938,-0.024 -0.274404,-0.036 -0.84614,-0.0671 -1.689021,0.0446 -2.52666,0.16315 -1.346084,0.20557 -2.692064,0.41095 -4.045071,0.5671 -1.163381,0.10455 -2.333081,0.1955 -3.495532,0.0217 0,0 3.243079,-2.28664 3.243079,-2.28664 z"
       inkscape:connector-curvature="0"
       style="stroke-width:0.26458332" />
    <path
       id="path30"
       d="m 20.795158,170.37462 c 1.647106,-0.96884 3.589518,-2.77521 5.730686,-2.25701 0.192582,0.0466 0.376441,0.12382 0.564661,0.18573 1.254458,0.51727 2.335291,1.34809 3.518251,1.99724 0.890874,0.45092 1.866236,0.64062 2.852566,0.71953 0.381505,-0.0119 0.779603,0.0661 1.160507,0.0153 0.14935,-0.02 0.291502,-0.0764 0.437793,-0.11252 0.07283,-0.0329 0.146328,-0.0644 0.218496,-0.0988 0.270796,-0.12892 0.706003,-0.3635 0.572934,-0.28691 -3.542451,2.03899 -3.939635,2.36151 -2.684947,1.47945 0.120888,-0.085 0.241512,-0.17035 0.362268,-0.25552 1.514911,-0.94424 2.939507,-2.34701 4.692269,-2.71172 0,0 -3.141496,2.44574 -3.141496,2.44574 v 0 c -1.376884,0.72366 4.960823,-3.03845 2.473677,-1.40809 -0.122068,0.08 -0.243756,0.16062 -0.365633,0.24093 -0.122653,0.0784 -0.249772,0.1502 -0.367964,0.23518 -0.116404,0.0837 -0.211842,0.19624 -0.334748,0.27005 -1.120291,0.67278 -2.9669,2.05964 -4.586695,2.48466 -0.546206,0.0875 -1.10063,0.0325 -1.648931,-0.0153 -1.010169,-0.1333 -2.001203,-0.38646 -2.901609,-0.87909 -1.145759,-0.66214 -2.219412,-1.47297 -3.479618,-1.91347 -0.531055,-0.12857 -1.003961,-0.21499 -1.550679,-0.10928 -1.339538,0.25901 -3.670338,2.07517 2.172817,-1.47174 0,0 -3.694605,1.4456 -3.694605,1.4456 z"
       inkscape:connector-curvature="0"
       style="stroke-width:0.26458332" />
    <path
       id="path34"
       d="m 31.676202,89.064734 c 1.007848,-0.38761 2.085941,-0.459862 3.152145,-0.527966 2.267429,-0.167354 4.550169,-0.105185 6.820871,-0.02992 4.356127,0.26075 8.707506,0.601276 13.057957,0.943856 6.730172,0.500989 13.467152,0.861394 20.211958,1.083334 8.505404,0.289425 17.015285,0.02357 25.517187,-0.247293 8.54696,-0.345662 17.09945,-0.422116 25.65101,-0.261588 6.07405,0.153051 12.14585,0.500668 18.22387,0.466968 1.0233,-0.0057 2.04619,-0.04219 3.06928,-0.06328 4.36434,-0.11789 8.70198,-0.617714 13.04049,-1.065699 2.11097,-0.2868 4.22751,-0.27849 6.34485,-0.108032 0.58973,-0.009 2.04011,0.330414 2.57104,0.02207 0.0598,-0.03474 0.0951,-0.100457 0.14271,-0.150685 -1.09887,0.643427 -2.19583,1.290113 -3.29659,1.930283 -0.0219,0.01273 0.0479,-0.0249 0.0593,-0.04756 0.0132,-0.02643 0.01,-0.05868 0.008,-0.0882 -0.003,-0.07614 -0.033,-0.148693 -0.0625,-0.217469 -0.86097,-1.457864 2.20687,-2.36929 3.68962,-2.297326 0.14611,0.006 0.0714,0.0029 0.22418,0.0095 0,0 -3.22974,2.339474 -3.22974,2.339474 v 0 c -0.14776,0.0024 -0.0768,-1.45e-4 -0.21279,0.0067 -1.71183,0.222951 3.98609,-0.644962 2.95979,-2.119725 -0.0228,-0.0327 0.0937,0.159871 0.0537,0.106751 0.72208,1.729497 -1.17404,1.828647 -3.2865,2.870496 -0.90908,0.184148 -1.84739,-0.08256 -2.7577,-0.123856 -2.07101,-0.169929 -4.14211,-0.142897 -6.20922,0.09269 -4.27029,0.385096 -8.54233,0.792417 -12.83225,0.876475 -7.05535,0.07306 -14.10047,-0.272254 -21.14982,-0.52233 -8.53078,-0.172416 -17.06291,-0.106664 -25.589446,0.237381 -8.534696,0.272675 -17.076263,0.553924 -25.615248,0.293373 C 65.430658,92.280853 58.635524,91.94775 51.84531,91.497943 47.440532,91.194635 43.034693,90.883882 38.623454,90.693829 c -2.304521,-0.03739 -4.618916,-0.0671 -6.916161,0.147502 -1.068856,0.09692 -2.159899,0.209818 -3.131473,0.703416 0,0 3.10039,-2.480021 3.10039,-2.480021 z"
       inkscape:connector-curvature="0"
       style="stroke-width:0.26458332" />
    <path
       id="path36"
       d="m 33.678598,95.811622 c 0.74681,0.396153 1.54713,0.471691 2.374984,0.401947 0.834121,-0.10369 1.668847,-0.201038 2.507568,-0.258085 0.721429,0.08848 1.442328,0.161025 2.168472,0.198609 1.421124,0.08081 2.838098,-0.07196 4.259614,-0.0655 2.390899,0.165616 4.765051,0.537501 7.142364,0.840232 4.633431,0.512503 9.288954,0.785482 13.937768,1.116923 7.241799,0.488585 14.476801,1.065254 21.712941,1.629566 5.438084,0.402936 10.879849,0.803606 16.328981,1.028736 3.15664,0.13041 4.94087,0.14549 8.09429,0.20375 7.26281,0.0689 14.52209,-0.19571 21.78134,-0.37666 5.12849,-0.17644 10.25751,-0.16142 15.38526,0.007 2.44446,0.0851 4.89522,0.16137 7.33868,0.009 1.3788,-0.0862 2.11244,-0.17721 3.48842,-0.32074 2.44919,-0.276675 4.88703,-0.661001 7.34585,-0.85061 1.71301,-0.132095 2.04644,-0.110963 3.75589,-0.136943 3.04061,-0.03655 6.04125,0.457796 9.0431,0.863943 1.63278,0.26786 3.27037,0.31977 4.91808,0.23993 0.80613,-0.15821 1.66115,-0.16913 2.44603,-0.422309 0.0707,-0.02739 0.14137,-0.05478 0.21206,-0.08218 0,0 -3.13646,2.430499 -3.13646,2.430499 v 0 c -0.0736,0.0187 -0.14715,0.0374 -0.22072,0.0562 -0.80776,0.14547 -1.62459,0.25541 -2.4427,0.31898 -1.63656,0.0465 -3.26121,-0.0743 -4.87634,-0.35528 -2.95365,-0.44455 -5.91185,-0.93237 -8.91082,-0.88549 -1.74717,0.0353 -1.98104,0.0133 -3.73364,0.15741 -2.464,0.20261 -4.90664,0.59489 -7.36305,0.86502 -1.38549,0.13947 -2.11699,0.22919 -3.50547,0.30515 -2.43326,0.13313 -4.8717,0.032 -7.30402,-0.0687 -5.06636,-0.19968 -10.13506,-0.2598 -15.20447,-0.11311 -7.22433,0.14124 -14.44873,0.37377 -21.67536,0.28233 -3.15483,-0.065 -4.93231,-0.0844 -8.09097,-0.21894 -5.453611,-0.23226 -10.899609,-0.63522 -16.343255,-1.02856 -7.288067,-0.54414 -14.575824,-1.0893 -21.87226,-1.51169 -4.718232,-0.296075 -9.443394,-0.519677 -14.148543,-0.98987 -2.401435,-0.269486 -4.800343,-0.627539 -7.215571,-0.728909 -1.445202,0.02651 -2.888385,0.172082 -4.334433,0.09154 -0.720466,-0.03715 -1.436241,-0.138531 -2.156902,-0.147098 -0.833305,0.06277 -1.661922,0.16972 -2.494804,0.236122 -0.879113,0.0085 -1.711899,-0.140644 -2.511372,-0.523428 0,0 3.299468,-2.198819 3.299468,-2.198819 z"
       inkscape:connector-curvature="0"
       style="stroke-width:0.26458332" />
    <path
       id="path38"
       d="m 163.97462,88.262925 c 1.18324,-0.359596 2.4213,-0.522822 3.63347,-0.767353 2.15282,-0.3556 4.30571,-0.709268 6.46526,-1.021924 1.66757,-0.236606 3.36104,-0.366567 5.04148,-0.206793 0.60296,0.05307 1.18205,0.2555 1.7241,0.518395 1.46123,0.724525 -2.06903,2.206853 -3.45195,2.124729 -1.60176,-0.186343 -0.64478,0.0476 3.12874,-2.418837 0.022,-0.01439 0.70032,-0.06282 0.70868,-0.06346 1.12208,-0.07903 2.24171,-0.112106 3.3633,-0.02426 0.67002,0.123222 1.20407,0.33923 0.98355,1.113409 -0.0513,0.271653 -0.38189,0.634344 -0.288,0.926137 0.031,-1.563037 -2.25305,1.807848 -3.59805,2.018366 -1.68111,-0.866571 3.01881,-2.227646 4.1181,-2.702698 0.65642,-0.280416 1.12048,-0.347657 1.78589,-0.07152 0.5686,0.296677 1.03941,0.716196 1.44546,1.20599 0.46805,0.574421 0.50576,1.206534 0.43713,1.914215 -0.19378,1.335302 -0.46367,2.657353 -0.65012,3.993938 -0.19844,1.451917 -0.42193,2.899164 -0.69616,4.338691 -0.11735,0.584573 -0.28952,1.16174 -0.68917,1.61412 0,0 -3.68938,1.46353 -3.68938,1.46353 v 0 c 0.55061,-0.23572 0.72035,-0.83919 0.87185,-1.37752 0.30226,-1.433589 0.54317,-2.876865 0.73351,-4.329729 0.17507,-1.322906 0.41737,-2.634496 0.59536,-3.956574 0.0772,-0.600609 0.1057,-1.130421 -0.30491,-1.621922 -0.36764,-0.429728 -0.79089,-0.814218 -1.32643,-1.022196 -0.57552,-0.131191 -1.0931,0.06835 -1.62496,0.290914 -1.94051,0.673534 -1.43472,0.644004 2.21094,-2.061144 0.012,-0.0089 0.0283,0.0098 0.0425,0.01476 1.7812,0.581147 -2.25735,3.666117 -3.13552,2.248702 -0.1959,-0.414626 -0.0161,-0.821076 0.1573,-1.218621 0.354,-0.629891 -0.10638,0.135308 0.17657,-0.219009 0.1566,-0.196088 -0.94997,-0.263837 -0.74614,-0.280506 -1.10976,-0.0819 -2.22285,-0.02397 -3.32895,0.0897 -0.13989,0.02011 -0.2804,0.03628 -0.41966,0.06034 -0.1,0.01728 -0.3763,0.127714 -0.29764,0.06363 2.01081,-1.638409 1.933,-2.717105 3.33805,-2.221087 1.49281,0.804179 -1.92386,3.074617 -3.17672,2.302057 -0.49559,-0.241893 -1.0252,-0.401651 -1.57727,-0.445164 -1.6399,-0.136623 -3.28523,-0.01884 -4.91084,0.222734 -2.16766,0.315032 -4.33041,0.664401 -6.48423,1.063726 -1.22888,0.253912 -2.51393,0.404402 -3.6655,0.922237 0,0 3.10039,-2.480022 3.10039,-2.480022 z"
       inkscape:connector-curvature="0"
       style="stroke-width:0.26458332" />
    <path
       id="path48"
       d="m 155.71526,95.603527 c 0.0346,0.784122 0.17466,1.034045 0.95558,1.139497 1.13339,-0.01625 2.20021,-0.457327 3.26754,-0.790911 1.11621,-0.375565 2.24191,-0.72544 3.40229,-0.933939 0.86473,-0.121659 1.68141,0.101409 2.50311,0.331896 0.90552,0.28562 1.75538,-0.04608 2.55659,-0.465363 -5.26165,3.069849 -2.88714,1.728674 -1.81417,0.890389 0.36168,-0.282575 0.70076,-0.590981 1.05914,-0.877496 0.41662,-0.267491 2.93311,-2.941111 4.20923,-1.790454 0.26953,0.243033 0.50269,0.563775 0.74438,0.83429 0.71645,0.72045 1.64446,0.73847 2.59886,0.695126 1.44719,-0.105193 2.87931,-0.390951 4.30386,-0.661619 1.16986,-0.255405 2.36603,-0.273704 3.53869,-0.0443 0.82181,0.195659 1.42033,0.380429 2.23545,0.07245 1.30803,-0.623448 1.22829,-0.594532 -2.74022,1.568596 -0.10577,0.05765 0.19794,-0.137599 0.29274,-0.211926 0.2094,-0.164174 0.38888,-0.346684 0.55891,-0.549786 0.0182,-0.0296 0.0222,-0.101563 0.0545,-0.08881 0.0457,0.01805 0.0405,0.08954 0.0608,0.134311 1.1597,-0.541224 2.29795,-1.131033 3.47912,-1.623672 0.0678,-0.02829 -0.0574,0.135554 -0.0793,0.20569 -0.0716,0.229127 -0.0613,0.248264 -0.0839,0.483561 -0.10831,0.207597 0.24095,0.884155 0.10122,0.37729 0,0 -3.1472,2.465819 -3.1472,2.465819 v 0 c -0.35528,-0.279101 -0.49468,-0.592262 -0.48686,-1.054328 -0.003,-0.08995 0.004,-0.770387 0.0849,-0.819224 1.18004,-0.713658 2.39159,-1.378566 3.63251,-1.980152 0.0592,-0.0287 0.0741,0.115499 0.0784,0.181155 0.003,0.04385 -0.0394,0.07854 -0.0591,0.117814 -0.17345,0.349493 -0.47885,0.71947 -0.81814,0.922771 -3.55545,2.130383 -2.36826,1.699419 -4.05817,2.274845 -0.79297,0.142306 -1.54401,-0.04337 -2.31823,-0.225383 -1.14356,-0.171211 -2.28923,-0.124534 -3.4206,0.128813 -1.44394,0.256677 -2.88933,0.56071 -4.3578,0.623562 -1.11125,-0.0033 -2.00628,-0.119997 -2.81709,-0.951394 -0.20358,-0.220078 -0.43109,-0.549783 -0.69627,-0.704189 -0.14327,-0.08342 -0.19242,-0.03587 -0.33483,0.0073 1.03699,-0.6115 2.07397,-1.223002 3.11096,-1.834502 -0.4064,0.253582 -0.73253,0.573127 -1.10249,0.877036 -1.48195,1.217398 -3.13698,2.08907 -4.86297,2.987661 -0.89889,0.380548 -1.79691,0.59548 -2.75046,0.26265 -0.78209,-0.212212 -1.56825,-0.357569 -2.37876,-0.198306 -1.14018,0.238692 -2.25044,0.589714 -3.35607,0.95412 -1.10778,0.351046 -2.24863,0.798359 -3.43029,0.652314 -0.88723,-0.27423 -1.13366,-0.674648 -1.25171,-1.58152 0,0 3.53602,-1.801694 3.53602,-1.801694 z"
       inkscape:connector-curvature="0"
       style="stroke-width:0.26458332" />
    <path
       id="path50"
       d="m 98.305299,94.955626 c 0.266345,0.543833 0.481351,1.109827 0.696579,1.67513 0.207065,0.538218 0.587324,0.711338 1.121942,0.814798 0.81651,0.01601 1.60973,-0.197702 2.41437,-0.308121 0.693,-0.123671 1.37028,-0.125259 2.05988,2.17e-4 0.18149,0.03264 0.29786,0.05055 0.42448,0.189653 0.0978,0.107453 0.12703,0.204547 0.13315,0.199446 0.0294,-0.02447 -0.0196,-0.07391 -0.0294,-0.110871 0.0497,-0.197599 -0.002,-0.10777 0.17407,-0.256691 -1.06212,0.61046 -2.11918,1.22982 -3.18636,1.831385 -0.0854,0.04814 0.1606,-0.112511 0.23973,-0.170392 0.60507,-0.442603 -0.0896,0.05295 0.47109,-0.344511 1.21358,-0.772337 2.84158,-2.90163 4.13892,-1.98483 0.19592,0.170331 0.0976,0.09421 0.29291,0.230992 0.56794,0.319675 1.1448,-0.02029 1.65875,-0.285105 0.14089,-0.07648 0.56146,-0.309737 0.42269,-0.229459 -0.97459,0.563782 -1.95139,1.123767 -2.93028,1.680048 -0.23774,0.135104 0.46437,-0.289047 0.70102,-0.426048 1.21545,-0.703643 2.42054,-1.425757 3.65037,-2.103937 0.081,-0.04464 0.18071,-0.03901 0.27107,-0.05851 0.45925,-0.0752 0.7859,0.303686 1.18322,0.469469 0.42698,0.130723 0.86412,-0.08609 1.26866,-0.218474 0.4819,-0.174181 0.8149,-0.121553 1.28928,0.03997 0.65678,0.227873 1.33411,0.263134 2.01949,0.208055 0.3854,-0.0328 0.76955,-0.07969 1.15107,-0.143261 0,0 -3.19384,2.386108 -3.19384,2.386108 v 0 c -0.3785,0.03791 -0.75747,0.07238 -1.13749,0.09113 -0.71448,0.01196 -1.41771,-0.08927 -2.1032,-0.295201 -0.41223,-0.07102 -0.77158,-0.0067 -1.16531,0.136975 -0.48821,0.132395 -0.9687,0.230248 -1.44276,-0.01434 -0.33946,-0.177515 -0.60424,-0.411277 -0.99619,-0.227039 -1.28968,0.643969 -0.23276,0.121801 2.88175,-1.685092 0.1132,-0.06567 -0.22942,0.126127 -0.34148,0.193733 -0.12762,0.077 -0.24847,0.165061 -0.37734,0.23997 -3.67821,2.138071 -2.50975,1.547317 -4.22799,2.399273 -0.64829,0.260043 -1.3182,0.411533 -1.9344,-0.0177 -0.0624,-0.04195 -0.15461,-0.118636 -0.23852,-0.134239 -0.0662,-0.0123 -0.25217,0.0901 -0.19404,0.05613 3.46732,-2.025978 4.27385,-2.546553 3.03889,-1.755492 -0.0761,0.05019 -0.41754,0.273725 -0.48286,0.323268 -0.0778,0.05903 -0.13985,0.139079 -0.22351,0.189492 -1.19101,0.717675 -2.39135,1.419945 -3.59703,2.11268 -0.0598,0.03437 -0.12697,0.06604 -0.19596,0.06661 -0.069,5.29e-4 -0.1313,-0.04224 -0.19695,-0.06336 -0.16904,-0.192704 -0.18958,-0.209502 -0.46364,-0.24031 -0.6547,-0.09598 -1.30635,-0.02273 -1.957711,0.07683 -0.832999,0.131075 -1.677207,0.344215 -2.522183,0.193263 -0.619903,-0.192252 -1.082493,-0.508757 -1.328113,-1.133946 -0.205394,-0.553461 -0.399696,-1.115531 -0.687004,-1.633207 0,0 3.45018,-1.964478 3.45018,-1.964478 z"
       inkscape:connector-curvature="0"
       style="stroke-width:0.26458332" />
  </g>
</svg>
