<?xml version="1.0" encoding="UTF-8" standalone="no"?>
<!-- Created with Inkscape (http://www.inkscape.org/) -->

<svg
   xmlns:dc="http://purl.org/dc/elements/1.1/"
   xmlns:cc="http://creativecommons.org/ns#"
   xmlns:rdf="http://www.w3.org/1999/02/22-rdf-syntax-ns#"
   xmlns:svg="http://www.w3.org/2000/svg"
   xmlns="http://www.w3.org/2000/svg"
   xmlns:sodipodi="http://sodipodi.sourceforge.net/DTD/sodipodi-0.dtd"
   xmlns:inkscape="http://www.inkscape.org/namespaces/inkscape"
   width="210mm"
   height="297mm"
   viewBox="0 0 210 297"
   version="1.1"
   id="svg262"
   inkscape:export-filename="/home/edward/Desktop/CAT125Project/resources/process.png"
   inkscape:export-xdpi="96"
   inkscape:export-ydpi="96"
   inkscape:version="0.92.4 (5da689c313, 2019-01-14)"
   sodipodi:docname="process.svg">
  <defs
     id="defs256" />
  <sodipodi:namedview
     id="base"
     pagecolor="#ffffff"
     bordercolor="#666666"
     borderopacity="1.0"
     inkscape:pageopacity="0.0"
     inkscape:pageshadow="2"
     inkscape:zoom="0.7"
     inkscape:cx="384.50633"
     inkscape:cy="668.24214"
     inkscape:document-units="mm"
     inkscape:current-layer="layer1"
     showgrid="false"
     inkscape:window-width="1267"
     inkscape:window-height="877"
     inkscape:window-x="165"
     inkscape:window-y="122"
     inkscape:window-maximized="0" />
  <metadata
     id="metadata259">
    <rdf:RDF>
      <cc:Work
         rdf:about="">
        <dc:format>image/svg+xml</dc:format>
        <dc:type
           rdf:resource="http://purl.org/dc/dcmitype/StillImage" />
        <dc:title></dc:title>
      </cc:Work>
    </rdf:RDF>
  </metadata>
  <g
     inkscape:label="Layer 1"
     inkscape:groupmode="layer"
     id="layer1">
    <path
       id="path264"
       d="m 58.330243,82.599443 c -1.053965,2.816747 -1.325475,5.869897 -1.635135,8.839903 -0.552183,6.79591 -0.787977,13.611084 -1.135317,20.419124 -0.533683,9.82337 -0.924737,19.65155 -1.022477,29.48916 0.02135,10.01451 0.538522,20.01886 0.998046,30.02025 0.51885,9.87277 0.30861,19.75998 0.09987,29.63765 -0.188939,6.87039 -0.505211,13.73951 -0.316335,20.61266 0.180318,2.03247 0.142745,4.25931 1.200131,6.07784 0.272018,0.45623 0.604179,0.86741 0.893334,1.31237 0,0 -4.812165,2.81759 -4.812165,2.81759 v 0 c -0.30634,-0.45483 -0.62606,-0.90607 -0.867995,-1.39907 -0.927116,-2.05348 -0.769556,-4.37831 -0.788027,-6.58068 0.210397,-6.99416 0.694383,-13.97464 0.986251,-20.96554 0.322251,-9.88025 0.536664,-19.77404 -0.0063,-29.6518 -0.462148,-10.01562 -0.973201,-20.03357 -0.963153,-30.06319 0.08444,-9.79075 0.425281,-19.57467 0.738241,-29.36028 0.214143,-6.72086 0.276265,-13.44561 0.583803,-20.163435 0.175384,-2.922654 0.394316,-5.850099 0.996453,-8.721559 0,0 5.050811,-2.320993 5.050811,-2.320993 z"
       inkscape:connector-curvature="0"
       style="stroke-width:0.26458332" />
    <path
       id="path266"
       d="m 51.253187,85.853814 c 2.587291,-1.695849 5.302713,-3.237448 8.074231,-4.621448 2.046084,-0.872924 4.221086,-1.512617 6.425576,-1.834972 0.627962,-0.09182 1.262091,-0.134908 1.893136,-0.202362 5.498356,-0.326533 11.004258,0.172878 16.504038,0.29395 7.588158,0.218365 15.160784,-0.419081 22.702332,-1.17903 7.63019,-0.847183 15.27838,-1.538724 22.94318,-1.975632 6.04989,-0.348317 12.10932,-0.251899 18.16472,-0.178587 2.99729,0.0042 6.02226,0.04579 9.00412,-0.310865 0.83484,-0.119051 1.70825,-0.261377 2.55286,-0.133133 2.66026,3.429428 -3.92196,3.325622 -5.71889,3.311585 -0.4479,-0.02814 -0.88661,0.04162 -1.30847,0.193868 -0.15555,0.05614 -0.59836,0.280012 -0.45527,0.197107 5.20296,-3.014575 5.54196,-3.25839 3.80987,-2.099363 -0.79215,0.571514 -1.13479,1.409991 -1.33536,2.329869 -0.11615,0.701445 -0.30871,1.321661 -0.85478,1.796252 -0.78876,0.551256 -1.02508,0.561291 -1.13018,1.58788 0.13789,3.457953 0.22762,6.916388 0.25081,10.378538 -0.12228,8.261859 -0.6108,16.517449 -1.15787,24.760889 -0.88108,11.49748 -1.65538,23.00075 -2.21598,34.5184 -0.55374,11.63385 -0.44468,23.28437 -0.23134,34.92495 0.20273,9.50544 0.1051,19.00903 -0.33254,28.50572 -0.36798,5.62957 -0.74792,11.25744 -0.92519,16.89674 -0.0223,3.02386 -0.20754,6.04244 -0.54225,9.04706 -0.26436,1.74711 -0.30088,3.52053 -0.56822,5.26605 -0.0466,0.69297 -0.35529,1.27058 -0.68322,1.86032 -0.15201,0.34522 -0.0871,0.17316 -0.19736,0.5152 0,0 -5.04267,2.38945 -5.04267,2.38945 v 0 c 0.10524,-0.38744 0.0499,-0.18831 0.16652,-0.59727 0.24705,-0.60717 0.72792,-1.09108 0.81692,-1.76716 0.40288,-1.75866 0.52664,-3.56043 0.80595,-5.34152 0.39408,-3.02702 0.61634,-6.07247 0.77116,-9.1206 0.38292,-5.74214 0.99797,-11.46324 1.50829,-17.19474 0.67619,-9.54635 0.87903,-19.11086 0.74379,-28.68063 -0.10937,-11.67819 -0.11623,-23.36233 0.39216,-35.03263 0.52396,-11.46245 1.22336,-22.91398 1.90778,-34.36766 0.3872,-8.12237 0.71747,-16.2624 0.52063,-24.394447 -0.17735,-3.369945 -0.39892,-6.735103 -0.8764,-10.077646 -0.084,-1.024611 -0.11477,-1.509179 0.84735,-2.022946 0.69161,-0.430028 0.86237,-0.583658 1.03829,-1.428698 0.17488,-0.995876 0.4746,-2.002034 1.22335,-2.721871 2.14339,-1.806114 4.6761,-3.599192 7.53759,-3.585007 0.31966,-0.0084 0.65219,-0.0012 0.96964,-0.04884 0.0548,-0.0082 0.20665,-0.07176 0.16151,-0.03959 -4.57286,3.259768 -5.70776,1.711309 -4.49207,3.291445 -0.75868,-0.07176 -1.52088,0.0014 -2.27626,0.0798 -2.88224,0.163472 -5.77735,0.09366 -8.6601,-0.012 -5.93372,-0.206205 -11.873,-0.364338 -17.80664,-0.03695 -7.63745,0.405551 -15.25557,1.102217 -22.85764,1.937244 -7.604872,0.757557 -15.236609,1.390458 -22.887298,1.249188 -5.608545,-0.07354 -11.239584,-0.490303 -16.835469,0.03407 -2.916923,0.413511 -5.821156,1.049677 -8.470894,2.387198 -0.993516,0.527585 -0.563002,0.291299 -1.496992,0.815736 -0.2135,0.119881 -0.851757,0.483455 -0.640194,0.36019 7.450088,-4.340693 5.042001,-2.974239 3.464306,-1.991295 0,0 -5.200562,2.068188 -5.200562,2.068188 z"
       inkscape:connector-curvature="0"
       style="stroke-width:0.26458332" />
    <path
       id="path268"
       d="m 57.677881,225.65206 c -0.05623,0.75145 -0.03116,0.3413 -0.06854,1.23083 0,0 -4.84963,2.47101 -4.84963,2.47101 v 0 c -0.03714,-0.84577 -0.01167,-0.45894 -0.06854,-1.16098 0,0 4.986716,-2.54086 4.986716,-2.54086 z"
       inkscape:connector-curvature="0"
       style="stroke-width:0.26458332" />
    <path
       id="path270"
       d="m 56.921927,246.06277 c -0.0683,0.71994 -0.07845,1.44318 -0.09352,2.16556 0,0 -4.799679,2.44556 -4.799679,2.44556 v 0 c -0.01471,-0.6906 -0.02299,-1.38236 -0.09352,-2.07026 0,0 4.986713,-2.54086 4.986713,-2.54086 z"
       inkscape:connector-curvature="0"
       style="stroke-width:0.26458332" />
    <path
       id="path272"
       d="m 54.623354,222.3204 c -0.550185,0.99455 -0.632539,2.15398 -0.675852,3.26643 -0.01452,2.00673 0.256964,3.99736 0.457491,5.98961 0.313463,3.17838 0.734015,6.342 1.177454,9.50435 0.307766,2.46912 0.662125,4.93144 0.962499,7.4015 0,0 -4.681582,2.44312 -4.681582,2.44312 v 0 c -0.185426,-2.49673 -0.486905,-4.98084 -0.793745,-7.46522 -0.443701,-3.14554 -0.940266,-6.28339 -1.333624,-9.43603 -0.264682,-1.98781 -0.580676,-3.97432 -0.61345,-5.98403 -0.02379,-1.14349 0.02381,-2.31646 0.394676,-3.40955 0,0 5.106133,-2.31018 5.106133,-2.31018 z"
       inkscape:connector-curvature="0"
       style="stroke-width:0.26458332" />
    <path
       id="path274"
       d="m 54.282592,242.61247 c 0.02537,0.67131 0.312388,1.29565 0.561467,1.90839 0.394176,1.18614 1.001493,1.52592 2.168115,1.82219 0.28608,0.0256 0.571016,0.0758 0.858239,0.0769 1.297779,0.005 2.622074,-0.26524 3.89558,-0.47278 1.514409,-0.2468 2.113428,-0.35289 3.65647,-0.61733 4.944872,-0.8707 9.945769,-1.35506 14.943068,-1.80355 6.193835,-0.63002 12.395049,-1.1452 18.619381,-1.31662 5.989278,-0.12594 11.976598,0.25134 17.944408,0.72097 4.97673,0.38915 9.89243,1.29193 14.8162,2.08192 3.41346,0.53162 6.86189,0.87071 10.31802,0.84709 1.97382,-0.13656 3.99179,-0.0395 5.94694,-0.37841 0,0 -4.39058,3.27261 -4.39058,3.27261 v 0 c -1.92054,0.13584 -3.85128,0.12035 -5.77509,0.1658 -3.41529,-0.0778 -6.81623,-0.46614 -10.18243,-1.0435 -4.84022,-0.85663 -9.67645,-1.80284 -14.58292,-2.19495 -5.94333,-0.47993 -11.90647,-0.84185 -17.872116,-0.71121 -6.231922,0.16812 -12.439168,0.69921 -18.636435,1.36859 -5.075563,0.50914 -10.153055,1.06831 -15.168033,2.02112 -0.325009,0.0598 -3.362137,0.61963 -3.765333,0.69036 -1.354836,0.23765 -2.764914,0.53364 -4.150043,0.48281 -0.319746,-0.0118 -0.635023,-0.0791 -0.952534,-0.11859 -1.363951,-0.4066 -1.992421,-0.84851 -2.523998,-2.18963 -0.278101,-0.67612 -0.57663,-1.34553 -0.728086,-2.0647 0,0 4.99971,-2.54747 4.99971,-2.54747 z"
       inkscape:connector-curvature="0"
       style="stroke-width:0.26458332" />
    <path
       id="path276"
       d="m 47.030598,214.87612 c 0.209759,-0.68245 0.528976,-1.32094 0.817092,-1.97163 0.857226,-2.00449 0.563496,-0.77807 4.979397,-3.30415 0.06118,-0.035 0.118203,0.0771 0.179951,0.11103 0.171842,0.0946 0.151114,0.0724 0.356045,0.10723 1.364078,0.17255 2.736659,-0.0575 4.095731,-0.17974 3.664831,-0.48234 7.350263,-0.75181 11.035279,-1.02298 6.278562,-0.52181 12.557945,-1.02498 18.849104,-1.36817 6.493378,-0.39773 12.996973,-0.30117 19.494503,-0.10516 5.27716,0.19834 10.54373,0.57978 15.80959,0.9654 3.76871,0.22415 7.53951,0.41457 11.31036,0.60192 2.233,0.10484 4.46864,0.15374 6.70399,0.12971 0.49452,-0.0283 0.99608,0.003 1.48898,-0.0577 0.43422,0.51015 0.16402,1.01444 -0.002,1.62134 -0.0473,0.17896 -0.0945,0.35793 -0.1418,0.53691 0,0 -4.94908,2.38034 -4.94908,2.38034 v 0 c 0.0363,-0.17904 0.0726,-0.35808 0.10892,-0.53711 0.035,-0.14144 0.07,-0.28289 0.10503,-0.42433 0.0164,-0.11117 0.0243,-0.22394 0.0492,-0.33352 0.0167,-0.0731 0.0274,-0.26675 0.0778,-0.2112 0.0821,0.0905 0.13751,0.20194 0.20626,0.30291 -0.008,-0.002 -0.0153,-0.004 -0.023,-0.006 -0.44254,-0.05 -0.89076,-0.0403 -1.33426,-0.0757 -2.15988,-0.0963 -4.32055,-0.17816 -6.47815,-0.31963 -3.71095,-0.24286 -7.42362,-0.45938 -11.13164,-0.74339 -5.19461,-0.44418 -10.39217,-0.8631 -15.60194,-1.08727 -6.460398,-0.23411 -12.927042,-0.32933 -19.384259,0.0762 -6.358758,0.3699 -12.705363,0.90082 -19.04392,1.52765 -3.820538,0.35659 -7.634935,0.75774 -11.430227,1.32899 -1.455809,0.17366 -2.92589,0.38179 -4.393399,0.22037 -0.111773,-0.016 -0.26938,-0.0998 -0.338579,-0.0105 -0.02283,0.0294 -0.03667,0.1308 -0.0046,0.11173 5.593622,-3.32953 5.445501,-4.44936 4.486373,-2.54661 -0.306663,0.6091 -0.629465,1.20959 -0.83769,1.85939 0,0 -5.058989,2.42347 -5.058989,2.42347 z"
       inkscape:connector-curvature="0"
       style="stroke-width:0.26458332" />
    <path
       id="path278"
       d="m 75.02624,214.79775 c -0.315103,0.29424 -0.606169,0.61264 -0.913297,0.91484 -0.04956,0.0533 -0.08618,0.12269 -0.148698,0.16001 -2.741457,1.63673 -10.02437,5.79908 -0.580734,0.36327 0.102729,-0.0591 -0.203772,0.12115 -0.304927,0.18294 -0.349594,0.21355 -0.268267,0.16375 -0.589899,0.38284 -2.983209,2.32085 -3.607681,3.35038 -6.265574,2.9446 -0.237572,-0.0278 -0.475954,-0.10245 -0.707586,0.007 -0.103468,0.0491 -0.382511,0.25134 -0.282406,0.1957 4.307411,-2.39415 5.685015,-3.46798 3.861885,-2.09046 -1.501071,1.35585 -2.661862,3.03305 -3.831135,4.67013 -1.268997,1.80676 -2.364835,3.53823 -2.916312,5.69113 -0.182028,1.98016 0.386898,2.64689 2.154735,3.41308 2.284132,0.62277 4.517769,-0.17532 6.656941,-0.94365 0.343897,-0.14519 0.687797,-0.29038 1.031695,-0.43557 0,0 -4.173935,3.28506 -4.173935,3.28506 v 0 c -0.341918,0.13249 -0.683839,0.26498 -1.025757,0.39747 -2.25965,0.76191 -4.604258,1.43619 -6.962654,0.6623 -0.299508,-0.14365 -0.615793,-0.25658 -0.898525,-0.43095 -1.308594,-0.80705 -1.798396,-2.14051 -1.632786,-3.6219 0.182534,-0.77298 0.229307,-1.11041 0.545661,-1.8574 0.612286,-1.44575 1.540478,-2.74792 2.387185,-4.05899 1.122198,-1.62085 2.225786,-3.27578 3.589589,-4.70702 1.778314,-1.80936 4.172349,-3.78508 6.765017,-3.41269 0.195421,0.0143 0.414234,0.0468 0.601623,-0.0358 0.06522,-0.0288 0.244067,-0.1473 0.182351,-0.11165 -4.748033,2.7429 -6.073164,3.43378 -4.25354,2.47831 1.869091,-1.35508 3.950507,-2.45266 5.957734,-3.54671 1.532311,-0.83518 -3.018446,1.7525 -4.52111,2.63992 -0.05445,0.0322 0.116665,-0.0488 0.174995,-0.0733 0.303335,-0.30848 0.623078,-0.6007 0.918565,-0.91702 0,0 5.180899,-2.146 5.180899,-2.146 z"
       inkscape:connector-curvature="0"
       style="stroke-width:0.26458332" />
    <path
       id="path280"
       d="m 79.886482,230.49558 c -0.148299,-0.71988 -0.549158,-1.29003 -1.047353,-1.80904 -0.598932,-0.5325 -1.188508,-0.88771 -2.002338,-0.74 -1.682149,0.83572 -4.137279,2.05759 3.665625,-2.10285 0.159012,-0.0848 -0.28126,0.22663 -0.407699,0.35503 -0.413554,0.41996 -0.447339,0.53948 -0.766334,1.05002 -0.589949,1.17978 -0.737531,2.56196 -0.058,3.75104 0.128278,0.22447 0.315497,0.40967 0.473247,0.6145 0.220834,0.13829 0.422949,0.31237 0.662498,0.41487 1.330949,0.56951 2.926831,0.1876 4.191386,-0.3697 0.38563,-0.16995 0.740309,-0.40288 1.110462,-0.60433 -6.656293,3.82757 -3.055046,1.97386 -1.982108,0.36089 0.510236,-0.76705 0.631087,-1.50515 0.683948,-2.39811 -0.138576,-1.4061 -0.958945,-2.48175 -1.910951,-3.4584 -0.08829,-0.0762 -0.17658,-0.1524 -0.264871,-0.2286 0,0 4.741362,-2.89661 4.741362,-2.89661 v 0 c 0.07528,0.0919 0.150551,0.18379 0.225827,0.27568 0.959729,1.13913 1.836349,2.35048 2.026351,3.8738 -0.0091,0.77102 0.04483,1.05554 -0.200887,1.80822 -1.023951,3.13657 -5.082241,4.52013 -7.425177,5.94929 -1.771674,0.81956 -3.849158,1.58495 -5.739474,0.58894 -0.278894,-0.14694 -0.507288,-0.37438 -0.760933,-0.56157 -0.178361,-0.24445 -0.386054,-0.47 -0.535086,-0.73336 -0.729501,-1.28916 -0.748144,-2.80941 -0.204025,-4.15883 1.225796,-2.6295 4.088259,-4.37647 6.953819,-4.80434 0.897133,0.0862 1.607947,0.50671 2.249508,1.13518 0.557374,0.59329 0.978567,1.25063 1.255435,2.01994 0,0 -4.934228,2.66834 -4.934228,2.66834 z"
       inkscape:connector-curvature="0"
       style="stroke-width:0.26458332" />
    <path
       id="path282"
       d="m 101.4924,226.10016 c -1.36521,2.43942 -4.157918,3.77302 -6.768958,4.59788 -1.091636,0.23865 -1.99462,0.10635 -2.959375,0.74715 1.440183,-0.80779 2.850137,-1.67201 4.320545,-2.42338 0.15066,-0.077 -0.24201,0.24089 -0.331023,0.38477 -0.449995,0.72742 -0.355914,1.38596 -0.0013,2.10727 0.451813,0.42227 0.955413,0.4622 1.541403,0.27271 0.24978,-0.0808 0.94249,-0.46094 0.71542,-0.32921 -4.616094,2.678 -4.853361,2.92854 -2.966107,1.4711 1.805047,-1.63119 3.094647,-3.71622 4.226637,-5.84608 1.251878,-2.35461 1.622838,-4.45964 1.507188,-7.09755 -0.245,-1.37226 -0.6133,-3.44086 -1.829528,-4.32145 -1.80717,1.03225 2.433308,-1.39239 4.506968,-2.37654 0.1235,-0.0586 -0.16779,0.22269 -0.20835,0.35324 -0.25946,0.83529 -0.0899,1.86964 -0.0512,2.71548 0.28817,3.24457 0.67898,6.48206 1.12049,9.70945 0.40466,2.46844 0.53061,4.97262 0.94153,7.43896 0.14656,0.74616 0.0576,0.40955 0.24697,1.01492 0,0 -4.8519,2.63216 -4.8519,2.63216 v 0 c -0.15633,-0.69962 -0.0924,-0.32266 -0.17441,-1.13368 -0.23884,-2.52243 -0.34173,-5.05685 -0.692808,-7.56861 -0.40833,-3.22013 -0.82232,-6.43895 -1.29318,-9.65061 -0.21679,-1.96685 -1.31921,-10.02229 5.170188,-6.04357 1.14255,1.31485 1.50799,3.15084 1.79632,4.81719 0.13756,2.72382 -0.11077,4.87477 -1.37139,7.34113 -1.10871,2.16718 -2.39696,4.27112 -4.106818,6.02158 -2.23187,2.02564 -1.11011,1.10982 -6.230186,3.847 -0.972368,0.51982 -2.070582,0.22562 -2.758057,-0.56169 -0.09943,-0.20304 -0.225668,-0.39501 -0.298278,-0.60911 -0.157853,-0.46545 -0.172347,-0.87208 -0.113249,-1.35478 0.310168,-2.53337 3.588131,-3.15304 5.48289,-4.25626 0.97104,-0.37246 2.0117,-0.34915 2.99065,-0.69849 1.916718,-0.88931 0.92749,-0.44864 -3.788717,2.29372 -0.137861,0.0802 0.2706,-0.1698 0.396685,-0.26744 0.342772,-0.26545 0.347462,-0.29361 0.568262,-0.64649 0.0553,-0.0883 0.10433,-0.18039 0.1565,-0.27059 0,0 5.106128,-2.31018 5.106128,-2.31018 z"
       inkscape:connector-curvature="0"
       style="stroke-width:0.26458332" />
    <path
       id="path284"
       d="m 113.2956,227.87673 c 1.17946,0.64672 2.55117,0.61823 3.84653,0.45389 1.43295,-0.28389 2.70001,-1.02827 3.94596,-1.75505 -7.60641,4.31305 -4.095,2.57739 -2.67772,1.27743 0.64594,-0.59247 1.13138,-1.25639 1.58771,-1.99735 0.66176,-1.33884 0.60405,-1.9745 -0.373,-3.04553 -0.41223,-0.31461 -0.96856,-0.81361 -1.54469,-0.72619 -0.26317,0.0399 -0.53141,0.28352 -0.72588,0.42703 7.13458,-4.40943 4.34198,-2.73672 2.93379,-0.98133 -0.797,0.99352 -1.53985,2.02986 -2.28683,3.06088 -1.46197,1.95592 -2.82647,3.96313 -3.88983,6.16428 -0.50226,1.25701 -0.96431,2.18615 -0.0652,3.34807 1.11022,0.97862 2.49408,1.38622 3.91267,1.67089 1.85589,0.40032 3.66841,0.16723 5.48412,-0.28104 0.88989,-0.22207 1.72657,-0.59439 2.56276,-0.96137 0,0 -4.23028,3.33804 -4.23028,3.33804 v 0 c -0.84808,0.3397 -1.69985,0.67133 -2.59497,0.87033 -1.87227,0.40228 -3.7547,0.53788 -5.64177,0.10522 -1.53631,-0.3485 -3.0553,-0.82878 -4.22981,-1.9332 -1.01409,-1.40626 -0.7005,-2.41797 -0.0711,-3.94692 1.10569,-2.23295 2.46216,-4.29846 3.95757,-6.29056 0.71936,-1.01755 1.44953,-2.02623 2.17937,-3.0362 0.10546,-0.14593 0.87019,-1.26797 1.09707,-1.41758 1.6884,-1.1134 3.45676,-2.10055 5.18514,-3.15082 0.16914,-0.0542 0.33166,-0.137 0.50742,-0.16251 0.83591,-0.12132 1.59534,0.5536 2.16168,1.05976 1.07479,1.23574 1.28924,2.13497 0.61027,3.69243 -1.9098,3.45315 -4.43797,4.22615 -8.0758,6.33665 -1.2749,0.71506 -2.58984,1.39635 -4.06626,1.55764 -1.41743,0.0954 -2.81646,-0.0157 -4.14395,-0.56498 0,0 4.64504,-3.11191 4.64504,-3.11191 z"
       inkscape:connector-curvature="0"
       style="stroke-width:0.26458332" />
    <path
       id="path288"
       d="m 56.581789,177.9345 c 0.598276,1.08807 1.827864,1.32648 2.94721,1.54869 2.766502,0.17294 5.544682,0.0778 8.315274,0.0605 4.878568,-0.0605 9.754132,0.15255 14.630493,0.26666 6.686359,0.20916 13.372846,-0.1222 20.050364,-0.43397 4.27005,-0.20468 8.5541,-0.3493 12.82674,-0.11427 2.60538,0.14332 3.11322,0.25159 5.66386,0.57264 4.44082,0.60658 8.68821,2.05256 12.96736,3.31889 1.44122,0.32173 2.91457,0.91858 4.42143,0.85969 0.52419,-0.0205 0.69992,-0.13958 1.15994,-0.33278 -4.41301,2.46411 -5.56227,3.33238 -3.80524,2.04751 0,0 5.08652,-2.05891 5.08652,-2.05891 v 0 c -1.84109,1.80148 -0.24618,0.30972 -5.62143,3.36476 -1.87597,0.37137 -3.70146,-0.48011 -5.47265,-0.99977 -4.14082,-1.39772 -8.29437,-2.82668 -12.64212,-3.43726 -0.89827,-0.11882 -1.79367,-0.26188 -2.69482,-0.35645 -5.16829,-0.54242 -10.38307,-0.38965 -15.563998,-0.1687 -6.727549,0.30109 -13.45965,0.64385 -20.196476,0.50412 -4.973206,-0.0594 -9.948026,-0.18374 -14.920836,-0.0362 -2.873708,0.066 -5.762714,0.25308 -8.631147,0.0223 -1.33413,-0.29226 -2.620214,-0.69284 -3.402015,-1.90152 0,0 4.881541,-2.72598 4.881541,-2.72598 z"
       inkscape:connector-curvature="0"
       style="stroke-width:0.26458332" />
    <path
       id="path290"
       d="m 64.07276,188.68052 c -0.436576,0.76681 -0.394576,1.6853 -0.408951,2.54104 -0.03729,1.34193 -0.373967,2.63985 -0.731485,3.92523 -0.153681,0.86623 -0.785453,1.9211 -0.402024,2.79948 0.644342,0.4199 1.763083,0.31528 2.510366,0.3348 1.594022,0.0372 3.182615,0.19778 4.775327,0.27991 0,0 -4.409294,3.16527 -4.409294,3.16527 v 0 c -1.591569,-0.0997 -3.180778,-0.28012 -4.777536,-0.25668 -1.013325,-0.0237 -2.277301,0.10502 -2.954203,-0.79979 -0.441542,-1.06632 0.06365,-2.13603 0.338545,-3.19179 0.382238,-1.22588 0.688999,-2.47776 0.748938,-3.76569 0.0043,-0.90273 -0.06321,-1.8513 0.204184,-2.7216 0,0 5.106133,-2.31018 5.106133,-2.31018 z"
       inkscape:connector-curvature="0"
       style="stroke-width:0.26458332" />
    <path
       id="path292"
       d="m 82.657291,197.3968 c 0.596435,0.98338 0.57158,2.19549 0.632135,3.30965 0.03322,0.79366 0.0163,0.41299 0.05034,1.14205 0,0 -4.895612,2.50605 -4.895612,2.50605 v 0 c 0.0064,-0.73571 0.0079,-0.35368 -0.0068,-1.14608 -0.0402,-0.93913 0.02016,-2.09566 -0.561477,-2.88162 0,0 4.781404,-2.93005 4.781404,-2.93005 z"
       inkscape:connector-curvature="0"
       style="stroke-width:0.26458332" />
    <path
       id="path294"
       d="m 78.400045,194.80834 c 0.191183,-1.33449 0.267393,-2.68016 0.444638,-4.01608 -0.01384,-0.17992 0.0749,-0.46343 0.0047,-0.65333 0,0 5.011462,-2.59603 5.011462,-2.59603 v 0 c -0.0079,0.28359 -0.06327,0.5625 -0.09755,0.84364 -0.253121,1.28291 -0.338579,2.58192 -0.389559,3.88757 0,0 -4.973717,2.53423 -4.973717,2.53423 z"
       inkscape:connector-curvature="0"
       style="stroke-width:0.26458332" />
    <path
       id="path296"
       d="m 94.37941,182.47021 c 0.569722,1.43239 0.560591,2.96753 0.512474,4.48174 -0.162253,2.24486 -0.865299,4.40187 -1.366211,6.58512 -0.448251,1.867 -0.710244,3.76708 -0.915334,5.67339 0,0 -4.695571,2.32229 -4.695571,2.32229 v 0 c 0.252995,-1.91408 0.499566,-3.83121 0.904344,-5.72076 0.422304,-2.1457 1.051411,-4.25584 1.275585,-6.43646 0.05234,-1.4143 0.123952,-2.90453 -0.596829,-4.17934 0,0 4.881542,-2.72598 4.881542,-2.72598 z"
       inkscape:connector-curvature="0"
       style="stroke-width:0.26458332" />
    <path
       id="path298"
       d="m 90.492016,193.50595 c 1.221187,-0.49626 2.397416,-1.09328 3.602146,-1.6266 0.726276,-0.36002 1.462408,-0.7022 2.22527,-0.9768 0,0 -4.345402,3.40535 -4.345402,3.40535 v 0 c -0.71918,0.29016 -1.425496,0.60928 -2.126938,0.94005 -1.250376,0.57052 -2.483273,1.17986 -3.75008,1.71406 0,0 4.395004,-3.45606 4.395004,-3.45606 z"
       inkscape:connector-curvature="0"
       style="stroke-width:0.26458332" />
    <path
       id="path300"
       d="m 95.441019,199.28557 c 0.740123,-0.68331 1.463823,-1.37009 2.087853,-2.16282 0.48032,-0.70865 0.79349,-0.9822 0.21555,-1.69608 -0.62681,-0.46453 -1.36132,-0.90046 -2.182296,-0.73747 -0.206002,0.0409 -0.393721,0.14636 -0.590581,0.21954 -2.52294,1.33747 2.105017,-1.27136 3.210637,-1.80528 0.29982,-0.14479 -0.52564,0.41133 -0.76182,0.64602 -0.76053,0.75574 -1.18659,1.59033 -1.583191,2.5681 -0.289065,1.08646 -0.432456,2.7443 0.778261,3.37775 0.17714,0.0927 0.38318,0.11425 0.57477,0.17137 0.56887,0.0194 0.82438,0.0659 1.39487,-0.0764 1.424138,-0.35522 6.309528,-3.40864 -2.6683,1.69386 0,0 5.073508,-1.95337 5.073508,-1.95337 v 0 c -0.95767,0.54935 -4.501658,3.20043 -6.766485,3.48208 -0.727546,0.0905 -0.856747,0.0135 -1.562148,-0.11258 -0.228412,-0.11112 -0.478284,-0.18608 -0.685236,-0.33336 -1.268775,-0.90291 -1.286386,-2.64072 -0.982514,-3.99679 0.315436,-0.90715 0.333668,-1.12275 0.852175,-1.94842 1.62791,-2.59228 4.71647,-3.91078 7.45864,-5.02563 0.23486,-0.0343 0.46731,-0.0972 0.704588,-0.10281 0.94918,-0.0224 1.80109,0.49241 2.4953,1.08521 0.68819,0.85303 0.73268,1.46036 0.0636,2.37004 -0.56976,0.81053 -1.22521,1.51654 -1.94631,2.19108 0,0 -5.180901,2.14599 -5.180901,2.14599 z"
       inkscape:connector-curvature="0"
       style="stroke-width:0.26458332" />
    <path
       id="path302"
       d="m 107.57073,195.79194 c 0.0164,1.07807 0.18476,2.16564 0.50795,3.19453 0.0465,0.0925 0.0743,0.19704 0.13938,0.27752 0.11713,0.14478 0.44831,-0.57168 -0.0138,-0.33873 -1.60867,0.81101 -3.07253,1.8858 -4.65979,2.73793 -0.0865,0.0464 0.0649,-0.18589 0.0851,-0.28197 0.0282,-0.13437 0.0399,-0.2717 0.0599,-0.40755 0.0546,-0.77541 0.016,-1.56473 0.34155,-2.28609 1.39316,-1.71495 0.3079,-0.43579 5.24026,-3.07165 0.095,-0.0508 0.21442,-0.0218 0.32191,-0.0292 0.4245,-0.0293 0.62758,-0.0677 0.98666,-0.30748 -6.90703,3.97868 -4.60004,3.33712 -3.29344,1.04858 0,0 5.02976,-2.26108 5.02976,-2.26108 v 0 c -1.32059,2.67708 -2.49134,2.96152 -6.07722,4.65781 -0.6456,0.18505 -0.16013,0.065 -0.76725,0.17013 -0.20112,0.0348 -0.76498,0.26947 -0.58971,0.16486 4.39971,-2.626 6.22196,-3.12658 4.28206,-2.57015 -0.62687,0.42687 -0.4801,1.34764 -0.52282,2.01395 -0.004,0.16212 -0.0177,0.77273 -0.0302,0.7818 -1.80015,1.31237 -4.4327,4.98764 -5.37025,2.34213 -0.29458,-1.08025 -0.42736,-2.19935 -0.65679,-3.29445 0,0 4.98671,-2.54086 4.98671,-2.54086 z"
       inkscape:connector-curvature="0"
       style="stroke-width:0.26458332" />
    <path
       id="path304"
       d="m 118.78577,196.88536 c 1.66048,-0.90934 3.84458,-2.1835 -3.94419,2.28016 -0.089,0.051 0.1769,-0.10458 0.25949,-0.16541 0.224,-0.16495 0.29179,-0.25113 0.48368,-0.44902 0.37004,-0.48467 0.33448,-1.10808 -0.008,-1.59403 -0.7978,-0.52681 -1.57977,0.0385 -2.27693,0.4774 7.23004,-4.28661 4.23591,-2.78473 2.96604,-1.12603 -0.44067,0.5756 -0.79709,1.19895 -1.11718,1.84635 -0.32149,1.08771 -0.34446,1.30444 0.75101,1.05484 0.17045,-0.074 0.34251,-0.14451 0.51136,-0.22215 0.7221,-0.33207 1.4148,-0.71621 1.26747,-0.631 -7.34415,4.24789 -4.23245,2.47203 -2.65341,1.3572 0.18396,-0.15625 0.37233,-0.30748 0.5519,-0.46877 0.28224,-0.25351 0.60089,-0.57223 0.85568,-0.85801 0.17806,-0.19972 0.28552,-0.47879 0.51578,-0.61508 1.64684,-0.97484 3.33236,-1.88278 4.99853,-2.82417 0.10515,0.11407 0.23217,0.21132 0.31544,0.34221 0.35176,0.55296 0.43711,2.35505 0.50956,3.03711 0.10926,0.7726 0.23887,1.54281 0.44067,2.29688 0,0 -4.8834,2.61345 -4.8834,2.61345 v 0 c -0.117,-0.79785 -0.24031,-1.59467 -0.36847,-2.39081 -0.0384,-0.32439 -0.25553,-2.37503 -0.43991,-2.57052 -0.0206,-0.0219 -0.005,0.0599 -0.008,0.0898 1.52507,-0.90016 3.05015,-1.80033 4.57522,-2.70049 -0.0976,0.0714 -0.20708,0.12884 -0.2928,0.21411 -0.59393,0.59083 -1.05558,1.32877 -1.73486,1.84281 -2.12781,1.56484 -4.15966,2.61951 -6.61913,4.02131 -0.26375,0.15032 -1.05577,0.50388 -1.35951,0.60093 -0.20155,0.0644 -0.41227,0.0954 -0.6184,0.14312 -0.1788,-0.006 -0.36134,0.0192 -0.53641,-0.0177 -1.01546,-0.21363 -0.97882,-1.26553 -0.74424,-2.05317 0.32627,-0.73246 1.52568,-2.86491 2.14407,-3.26782 1.70276,-1.10946 3.48297,-2.09526 5.22445,-3.14289 1.05285,-0.50635 1.90558,-0.75366 2.8309,0.13938 0.42338,0.675 0.57126,1.44853 0.313,2.21827 -1.38195,2.12768 -4.11087,2.82965 -6.28599,4.02251 0,0 4.37651,-3.5008 4.37651,-3.5008 z"
       inkscape:connector-curvature="0"
       style="stroke-width:0.26458332" />
    <path
       id="path306"
       d="m 129.05628,188.35017 c -0.73555,0.97765 -0.8977,2.24061 -0.97741,3.4268 0.008,1.6557 0.40481,3.26034 0.86508,4.83881 0.47767,1.45169 0.6636,2.9627 0.79163,4.4777 0.0124,0.23031 0.0248,0.46063 0.0372,0.69094 0,0 -4.84273,2.49582 -4.84273,2.49582 v 0 c -0.009,-0.22718 -0.0176,-0.45436 -0.0265,-0.68154 -0.0846,-1.48588 -0.26216,-2.96596 -0.7084,-4.39248 -0.46728,-1.63086 -0.87312,-3.28857 -0.95225,-4.9905 0.0218,-1.24638 0.16541,-2.49785 0.6736,-3.65062 0,0 5.13979,-2.21493 5.13979,-2.21493 z"
       inkscape:connector-curvature="0"
       style="stroke-width:0.26458332" />
    <path
       id="path308"
       d="m 55.443007,150.90573 c 0.520226,0.54343 0.981022,1.14197 1.414285,1.75619 0.474438,0.79818 1.156301,1.30269 2.037284,1.55614 1.285507,0.21734 2.608987,-0.0826 3.878704,-0.29802 2.423395,-0.37533 4.880824,-0.47045 7.325857,-0.62333 3.616817,-0.23289 7.22294,-0.47705 10.848287,-0.3718 4.452871,0.13934 8.797028,1.14529 13.144397,2.02298 5.125561,1.18481 10.363789,1.46138 15.603769,1.3756 5.24622,-0.3686 10.4686,-1.03638 15.69153,-1.64656 4.16615,-0.56287 8.35801,-0.6697 12.55272,-0.52883 2.32341,-0.002 4.61742,0.46237 6.93748,0.47812 1.38449,0.003 2.75708,-0.24373 4.04711,-0.74235 0.75543,-0.37809 1.58733,-0.54878 2.36492,-0.86754 0,0 -4.35387,3.40767 -4.35387,3.40767 v 0 c -0.78621,0.26692 -1.57042,0.53754 -2.34689,0.83156 -1.32667,0.38702 -2.69748,0.58661 -4.08291,0.52541 -2.24679,-0.12922 -4.4642,-0.57653 -6.71737,-0.64226 -4.11235,-0.19647 -8.22337,-0.0825 -12.31151,0.44698 -5.21357,0.5683 -10.42109,1.24815 -15.65752,1.56224 -5.28448,0.0587 -10.559091,-0.24616 -15.73323,-1.40676 -4.372779,-0.83541 -8.745175,-1.79268 -13.21753,-1.86629 -3.657108,-0.0529 -7.293858,0.21722 -10.938737,0.49611 -2.491677,0.19522 -4.996646,0.33205 -7.458165,0.78737 -1.363416,0.23599 -2.78579,0.544 -4.148939,0.15296 -0.930497,-0.37327 -1.686867,-0.98479 -2.22853,-1.83912 -0.422624,-0.58954 -0.882819,-1.15996 -1.432549,-1.63642 0,0 4.781407,-2.93005 4.781407,-2.93005 z"
       inkscape:connector-curvature="0"
       style="stroke-width:0.26458332" />
    <path
       id="path310"
       d="m 72.783007,162.61113 c 0.637466,-0.79141 1.16132,-1.6798 1.475912,-2.64805 0.05027,-0.0361 0.05075,-0.51071 0.02347,-0.33406 -0.01011,0.0654 0.01291,0.13765 -0.01392,0.19819 -0.0337,0.076 -0.233915,0.18885 -0.291687,0.22565 1.531787,-0.87548 3.062203,-1.75337 4.595366,-2.62645 0.138575,-0.0789 -0.258705,0.18761 -0.397233,0.26661 -1.674127,0.95473 -3.342301,1.92057 -5.035528,2.841 -0.05801,0.0315 -0.542507,0.081 -0.593974,0.0869 -0.101635,0.0328 -0.206161,0.0578 -0.304903,0.0986 -0.236657,0.0976 -0.476658,0.18708 -0.712185,0.28739 -0.127232,0.0542 -0.486187,0.26372 -0.366262,0.19486 4.699614,-2.69866 5.768218,-3.4032 4.042719,-2.28047 -0.637672,0.54046 -0.491,0.89775 0.08071,1.39263 0.739931,0.52898 1.417215,1.11572 1.988847,1.82413 0.627615,0.9588 1.240859,1.92319 1.672989,2.9867 0.379712,1.13202 0.569368,2.3067 0.513779,3.49848 -0.102362,1.1128 -0.882568,1.86787 -1.674704,2.56921 -2.025685,1.62979 -4.876906,4.33485 -7.230777,4.23398 -0.480928,-0.19813 -0.655529,-0.59367 -0.860763,-1.03467 0,0 4.823512,-2.72951 4.823512,-2.72951 v 0 c 0.121243,0.25795 0.172114,0.47527 0.495115,0.44289 1.880455,-0.65592 0.331452,-0.13602 -4.08868,2.45732 -0.145018,0.0851 0.297373,-0.1578 0.438978,-0.24844 0.482814,-0.30907 0.891405,-0.70951 1.340048,-1.06288 0.723477,-0.59552 1.573832,-1.21441 1.820405,-2.16336 0.134665,-1.11827 0.01098,-2.22199 -0.350173,-3.29421 -0.411777,-1.01454 -1.017429,-1.92126 -1.643057,-2.81676 -0.561237,-0.6907 -1.255843,-1.21778 -1.964299,-1.74954 -0.651412,-0.6462 -1.074788,-1.39002 -0.501539,-2.2461 1.885969,-1.7828 4.407736,-3.03555 6.923278,-3.72323 0.180983,-0.0523 0.69483,-0.28526 0.532284,-0.19002 -1.515661,0.88805 -3.045595,1.75154 -4.563404,2.63591 -0.136983,0.0798 0.265589,-0.17344 0.402452,-0.25346 1.662407,-0.9719 3.33683,-1.9231 5.005248,-2.88465 0.719608,-0.22709 1.053671,0.3719 0.899625,1.02544 -0.273169,1.00593 -0.813413,1.91368 -1.341868,2.80509 0,0 -5.139783,2.21492 -5.139783,2.21492 z"
       inkscape:connector-curvature="0"
       style="stroke-width:0.26458332" />
    <path
       id="path312"
       d="m 130.52583,198.28614 c -0.58463,-0.33342 -1.22697,-0.2843 -1.87224,-0.25122 -0.52829,0.1 -0.81163,-0.0662 -1.04037,-0.54402 -1.77905,-1.32437 4.13011,-4.85917 4.72479,-2.77416 0.38485,0.79719 1.08641,1.41637 1.7183,2.02225 0.6067,0.48618 1.2515,0.94194 1.72267,1.5666 0.52706,0.87458 0.39191,1.90895 0.30767,2.87865 -0.13269,0.9505 -0.27169,1.93523 -0.75748,2.77783 -3.06699,2.07768 -4.25171,3.77369 -7.05576,2.40139 -0.45216,-0.27201 -0.24843,-0.11472 -0.61513,-0.46676 0,0 4.73612,-2.92811 4.73612,-2.92811 v 0 c 0.27511,0.24023 0.11849,0.12545 0.47836,0.33242 0.46888,0.17455 1.00806,0.36156 1.51627,0.23365 0.10339,-0.026 0.38549,-0.18039 0.29439,-0.12502 -1.49316,0.90758 -3.00216,1.78883 -4.50324,2.68325 0.0871,-0.0455 0.19068,-0.0683 0.26132,-0.1366 0.52644,-0.50933 0.55801,-1.66085 0.7388,-2.32271 0.0644,-0.82798 0.24185,-1.72303 -0.18594,-2.4846 -0.45713,-0.59641 -1.09647,-1.01397 -1.63646,-1.52935 -0.66624,-0.68855 -1.41097,-1.33691 -1.90421,-2.16628 -1.05491,-1.97464 4.03406,-4.75673 5.06885,-2.71825 0.0344,0.12755 0.49851,-0.0419 0.63596,0.0161 0.7147,0.0137 1.39941,0.14064 2.0492,0.45438 0,0 -4.68187,3.08051 -4.68187,3.08051 z"
       inkscape:connector-curvature="0"
       style="stroke-width:0.26458332" />
    <path
       id="path314"
       d="m 89.078335,161.7466 c 0.487555,0.32774 0.959664,0.38948 1.521637,0.29133 0.04172,0.0513 0.328623,-0.14283 0.35284,-0.11789 0.303374,0.3125 0.298582,0.54224 0.204042,0.92173 -0.205187,1.3532 -0.07226,2.74597 -0.01471,4.10931 0.05119,1.37855 0.104531,2.75734 0.119718,4.13685 0.03664,0.56854 -0.02697,1.13484 -0.08309,1.69942 0,0 -4.921025,2.438 -4.921025,2.438 v 0 c 0.06941,-0.54624 0.155009,-1.09369 0.123992,-1.64658 -0.0041,-1.38551 0.0087,-2.77143 -0.04359,-4.15636 -0.04898,-1.37653 -0.188167,-2.75091 -0.194771,-4.12668 0.0067,-0.0896 -0.01249,-0.18508 0.02008,-0.26882 0.03989,-0.10254 0.662104,0.49765 -0.07657,0.32748 -0.607037,-0.0347 -1.149745,-0.25767 -1.690431,-0.52728 0,0 4.681876,-3.08051 4.681876,-3.08051 z"
       inkscape:connector-curvature="0"
       style="stroke-width:0.26458332" />
    <path
       id="path316"
       d="m 81.869256,172.03238 c 3.576632,-2.12445 4.545722,-3.40446 8.024183,-3.4108 1.285682,-0.0354 2.54254,-0.28844 3.781708,-0.6153 1.025943,-0.25373 2.045256,-0.52563 3.077295,-0.75494 0,0 -4.31655,3.28483 -4.31655,3.28483 v 0 c -1.029354,0.23556 -2.047952,0.51099 -3.07167,0.76956 -1.276318,0.31425 -2.570477,0.53353 -3.889168,0.54308 -0.531014,0.0265 -0.682961,0.0139 -1.208858,0.12199 -2.080892,0.42768 -5.508691,2.93936 2.803626,-2.0066 0,0 -5.200566,2.06818 -5.200566,2.06818 z"
       inkscape:connector-curvature="0"
       style="stroke-width:0.26458332" />
    <path
       id="path328"
       d="m 106.46524,167.41624 c 0.12674,0.077 0.71621,0.41538 0.86909,0.27829 0.0413,-0.0371 0.0668,-0.19346 0.0188,-0.16546 -1.59828,0.93336 -3.1508,1.94297 -4.7262,2.91446 -0.16601,-0.48217 -0.55325,-0.90015 -1.03347,-1.05838 -0.0997,-0.0152 -0.19918,-0.0596 -0.29902,-0.0455 -0.15863,0.0223 -0.48129,0.25612 -0.59497,0.33037 1.4622,-0.82849 2.91574,-1.67247 4.38661,-2.48548 0.15823,-0.0875 -0.3028,0.19819 -0.44665,0.3077 -0.15655,0.11919 -0.30241,0.25179 -0.45361,0.37768 -2.17305,1.90202 -4.821868,3.15042 -7.390278,4.43802 1.47674,-0.84265 2.94827,-1.69449 4.430198,-2.52797 0.16692,-0.0939 -0.28129,0.11703 -0.47894,0.42399 -0.26179,0.40654 -0.2828,0.88382 -0.31665,1.34813 0.0122,0.50558 0.0171,1.98655 0.6721,2.17333 0.0769,0.0219 0.15928,-0.0143 0.23893,-0.0215 0.0868,-0.0456 0.18226,-0.0776 0.26034,-0.13696 0.10302,-0.0783 0.39113,-0.33312 0.27733,-0.27156 -1.46811,0.79411 -2.882998,1.68421 -4.352458,2.47583 -0.13702,0.0738 0.2351,-0.20459 0.34359,-0.31619 0.20044,-0.20616 0.46406,-0.54455 0.64287,-0.76662 0.42128,-0.61317 0.87276,-1.19995 1.36468,-1.75765 0.499088,-0.59921 0.760348,-1.3356 1.007578,-2.06351 0.22388,-0.57073 0.35637,-1.17244 0.62328,-1.72563 0.96393,-1.93829 4.18502,-4.68886 5.46246,-2.62935 0.16986,0.75863 0.17573,1.50598 0.45867,2.24263 0.40007,1.0568 0.89726,2.07283 1.32763,3.11769 0.26024,0.66117 0.44487,1.34873 0.62162,2.03594 0,0 -4.92897,2.63206 -4.92897,2.63206 v 0 c -0.0902,-0.6792 -0.23316,-1.3515 -0.47614,-1.99415 -0.41762,-1.05021 -0.93714,-2.05321 -1.35954,-3.10093 -0.28294,-0.6745 -0.45044,-1.35384 -0.49962,-2.08448 -0.80214,1.11863 6.25382,-4.11393 4.52578,-2.48531 -0.38649,0.49514 -0.53971,1.06977 -0.74389,1.65789 -0.29282,0.72875 -0.44402,1.5335 -0.89449,2.18952 -0.41592,0.64136 -1.07971,1.10191 -1.42801,1.79891 -1.90317,2.46289 -1.22498,1.48923 -6.005588,4.25381 -0.12685,0.0734 -0.27703,0.10711 -0.42303,0.1196 -0.13403,0.0115 -0.26704,-0.0328 -0.40056,-0.0491 -1.100489,-0.6004 -1.115298,-1.67582 -1.207473,-2.81185 -0.110141,-3.42942 2.003843,-3.1307 5.583581,-5.17725 1.71988,-0.80231 3.9122,-2.19116 -3.440098,2.08921 -0.16746,0.0975 0.33721,-0.19159 0.49909,-0.29809 0.1658,-0.10908 0.32554,-0.22734 0.48306,-0.34807 0.15261,-0.11696 0.29796,-0.24311 0.44693,-0.36467 1.876638,-1.75739 2.684158,-1.90917 5.945098,-3.69565 0.3724,-0.20402 0.82702,-0.0585 1.1821,0.0864 0.61302,0.38177 1.0648,0.90362 1.40085,1.54302 -4.64618,3.09054 -3.23291,3.85273 -5.85452,2.62736 0,0 4.68188,-3.08051 4.68188,-3.08051 z"
       inkscape:connector-curvature="0"
       style="stroke-width:0.26458332" />
    <path
       id="path330"
       d="m 117.30483,158.52846 c -0.90855,0.89518 -1.29362,2.10704 -1.5713,3.31703 -0.29132,1.69451 -0.34164,3.42454 -0.30107,5.14023 0.10553,1.99334 0.13642,3.99352 0.41807,5.97186 0.56084,3.13425 0.9673,1.14895 -4.66296,3.9954 0,0 4.91969,-2.70339 4.91969,-2.70339 v 0 c -5.43618,3.17768 -4.70863,4.46576 -5.05163,1.2202 -0.17544,-2.00871 -0.23179,-4.02351 -0.38664,-6.03396 -0.0917,-1.74209 -0.047,-3.49216 0.17557,-5.22412 0.23509,-1.25768 0.57798,-2.46948 1.29843,-3.54514 0,0 5.16184,-2.13811 5.16184,-2.13811 z"
       inkscape:connector-curvature="0"
       style="stroke-width:0.26458332" />
    <path
       id="path332"
       d="m 110.51007,164.47134 c 0.90341,-0.13651 1.81836,-0.17364 2.73009,-0.21418 0.57968,-0.0268 1.18458,0.0103 1.74113,-0.1931 0.1001,-0.0366 0.37324,-0.20595 0.2805,-0.15343 -1.50207,0.85063 -3.00569,1.69852 -4.50853,2.54778 0.39043,-0.2034 0.70194,-0.51443 1.01546,-0.81648 0,0 5.12368,-2.12433 5.12368,-2.12433 v 0 c -0.30626,0.32249 -0.60205,0.65869 -0.94574,0.94246 -4.25447,2.41506 -3.84843,2.99867 -7.14054,3.05235 -0.92395,0.0507 -1.85872,0.10686 -2.75211,0.36629 0,0 4.45606,-3.40736 4.45606,-3.40736 z"
       inkscape:connector-curvature="0"
       style="stroke-width:0.26458332" />
    <path
       id="path334"
       d="m 121.19685,168.09073 c 0.20465,0.77716 0.40074,1.54605 0.44827,2.35081 0.0268,0.39652 -0.18456,0.71138 -0.34446,1.04952 -0.0253,0.10794 -0.0687,0.17757 -0.0359,0.27876 0,0 -4.91454,2.74269 -4.91454,2.74269 v 0 c -0.0823,-0.19489 -0.17806,-0.38299 -0.11174,-0.59937 0.0405,-0.36967 0.2135,-0.6429 0.43292,-0.9419 0.0605,-0.77356 -0.0699,-1.50767 -0.40882,-2.21218 0,0 4.93423,-2.66833 4.93423,-2.66833 z"
       inkscape:connector-curvature="0"
       style="stroke-width:0.26458332" />
    <path
       id="path336"
       d="m 122.69628,162.85949 c -0.0752,0.78913 -0.0327,1.56615 0.12205,2.3418 -0.21101,-0.3476 0.18134,0.53282 0.11741,0.40694 -1.01693,-2.00204 1.02977,-0.83217 -4.93387,2.43164 -0.0619,0.0339 0.0322,-0.13751 0.0452,-0.2069 0.023,-0.12251 0.0418,-0.24576 0.0628,-0.36864 0.023,-0.12036 0.0459,-0.24073 0.0689,-0.36109 0,0 4.99663,-2.42406 4.99663,-2.42406 v 0 c -0.0236,0.1149 -0.0473,0.2298 -0.0709,0.3447 -0.0172,0.10271 -0.0437,0.2043 -0.0516,0.30814 -0.006,0.0831 0.0777,0.20267 0.009,0.24993 -2.15982,1.48643 -4.71058,4.96679 -5.14503,2.22494 -0.122,-0.79727 -0.22229,-1.59187 -0.22029,-2.39992 0,0 4.99971,-2.54748 4.99971,-2.54748 z"
       inkscape:connector-curvature="0"
       style="stroke-width:0.26458332" />
    <path
       id="path338"
       d="m 126.768,169.20301 c 0.0872,-0.067 -0.0447,-1.38952 -0.29511,-0.92128 11.494,-5.51842 5.30467,-3.51722 4.33968,-2.12248 -0.25007,0.36145 -0.46472,0.75578 -0.70106,1.12656 -0.67421,1.1087 -1.55281,2.06599 -2.29454,3.12713 -0.54513,0.91891 -1.36737,2.0059 -1.25359,3.1515 0.0155,0.15605 0.0825,0.3026 0.12372,0.45389 0.56768,1.17905 1.88623,1.47632 3.06278,1.71986 1.22138,0.17873 2.43637,0.38841 3.6652,0.51221 0.36037,0.0312 0.20709,0.0681 0.46966,-0.0556 0,0 -4.50023,3.34118 -4.50023,3.34118 v 0 c -0.31682,-0.056 -0.1508,-0.0267 -0.49808,-0.0878 -1.19881,-0.20778 -2.39783,-0.41422 -3.59705,-0.61965 -1.3733,-0.34072 -2.77873,-0.79891 -3.42017,-2.17617 -0.0647,-0.20252 -0.16027,-0.39766 -0.19401,-0.60756 -0.19743,-1.22831 0.6028,-2.45189 1.17359,-3.45945 0.68683,-1.07063 1.51638,-2.01717 2.2231,-3.07256 1.79845,-3.03569 0.30084,-1.51544 6.01034,-4.44411 0.5307,0.38037 0.67301,0.94787 0.68548,1.58682 0,0 -4.99971,2.54748 -4.99971,2.54748 z"
       inkscape:connector-curvature="0"
       style="stroke-width:0.26458332" />
    <path
       id="path340"
       d="m 55.820207,121.16932 c 0.214154,0.48235 0.404815,0.97487 0.604483,1.46339 0.04182,0.0994 0.08004,0.20031 0.125632,0.29801 0.0054,0.0103 0.01077,0.0206 0.01614,0.0308 -1.677146,0.79704 -3.333922,1.63843 -5.031438,2.39111 -0.06591,0.0292 0.04516,-0.13908 0.08616,-0.19838 0.126868,-0.18349 0.372946,-0.3788 0.554879,-0.4857 1.702072,-1.00016 3.419205,-1.97446 5.12881,-2.96169 1.123897,-0.51866 2.334752,-0.42921 3.527068,-0.27228 2.530977,0.39309 5.088855,0.37839 7.640119,0.27654 3.994115,-0.24968 7.941402,-0.96542 11.891274,-1.58206 4.37941,-0.7436 8.810821,-0.73544 13.225084,-0.41631 4.425654,0.40045 8.794212,1.22521 13.205502,1.74223 4.0713,0.42031 8.16625,0.49242 12.25251,0.67122 3.314,0.20522 6.61071,0.62957 9.90198,1.05846 3.17501,0.37407 6.35627,0.69366 9.54787,0.88372 2.5437,0.11661 5.05088,0.42747 7.51588,1.06434 1.765,0.44849 3.5002,1.01675 5.32879,1.11054 1.29265,0.0725 2.53113,-0.24637 3.74152,-0.65871 0,0 -4.37117,3.37968 -4.37117,3.37968 v 0 c -1.23187,0.33698 -2.49249,0.54341 -3.77486,0.42404 -1.8142,-0.2047 -3.54352,-0.76853 -5.30184,-1.2389 -2.41139,-0.60487 -4.8626,-0.92712 -7.34564,-1.06628 -3.18869,-0.23045 -6.37161,-0.54163 -9.54548,-0.9251 -3.26431,-0.41742 -6.53123,-0.84828 -9.81577,-1.06988 -4.05973,-0.21814 -8.12951,-0.31344 -12.1724,-0.77126 -4.404778,-0.5304 -8.771766,-1.34678 -13.195475,-1.71885 -4.398777,-0.28152 -8.812839,-0.2569 -13.169117,0.51335 -4.005696,0.63772 -8.008561,1.36895 -12.060626,1.63587 -2.640409,0.11737 -5.280662,0.13565 -7.911412,-0.16683 -1.19068,-0.0598 -2.357898,-0.0421 -3.412955,0.59295 10.645748,-6.20201 -0.269923,0.18675 -1.444832,0.44439 0.0019,-0.0756 -0.03332,-0.18756 -0.0545,-0.26904 -0.138075,-0.4852 -0.296071,-0.9713 -0.556474,-1.40635 0,0 4.87028,-2.77306 4.87028,-2.77306 z"
       inkscape:connector-curvature="0"
       style="stroke-width:0.26458332" />
    <path
       id="path342"
       d="m 77.763119,130.46419 c 0.969626,1.20606 1.03492,2.81729 1.02339,4.29579 -0.04166,1.69455 -0.351708,3.3662 -0.480732,5.05382 -0.107972,1.41223 -0.07661,1.48123 -0.06096,2.88992 0.14477,1.7525 0.05698,0.89575 0.259345,2.57066 0,0 -4.665337,2.44144 -4.665337,2.44144 v 0 c -0.168754,-1.72095 -0.09267,-0.83975 -0.225341,-2.64384 -0.04731,-2.64354 0.231254,-5.25527 0.41247,-7.88857 -0.0011,-1.25341 0.0074,-2.80868 -0.992852,-3.72752 0,0 4.730015,-2.9917 4.730015,-2.9917 z"
       inkscape:connector-curvature="0"
       style="stroke-width:0.26458332" />
    <path
       id="path344"
       d="m 90.594016,129.86277 c 0.719045,1.40197 0.929685,2.91749 1.038093,4.47012 0.09293,2.84541 -0.217086,5.67976 -0.583303,8.4962 -0.0622,0.38291 -0.124389,0.76581 -0.186585,1.14872 0,0 -4.75897,2.31489 -4.75897,2.31489 v 0 c 0.0814,-0.38399 0.16279,-0.76798 0.244187,-1.15196 0.433911,-2.76448 0.760563,-5.5578 0.575508,-8.3615 -0.129371,-1.45998 -0.348583,-2.90883 -1.199211,-4.14341 0,0 4.870281,-2.77306 4.870281,-2.77306 z"
       inkscape:connector-curvature="0"
       style="stroke-width:0.26458332" />
    <path
       id="path346"
       d="m 79.596787,134.43484 c 1.300943,0.23777 2.65325,0.15935 3.959032,-0.007 0.899276,-0.16092 1.790655,-0.32311 2.691342,-0.11764 0,0 -4.536329,3.18484 -4.536329,3.18484 v 0 c -0.844733,-0.0744 -1.674006,0.0635 -2.512039,0.16555 -1.401112,0.10406 -2.82611,0.17856 -4.219596,-0.0412 0,0 4.61759,-3.18504 4.61759,-3.18504 z"
       inkscape:connector-curvature="0"
       style="stroke-width:0.26458332" />
    <path
       id="path348"
       d="m 99.590552,137.73481 c 0.0522,0.001 0.508498,0.0147 0.533558,0.0112 0.23226,-0.0317 0.48093,-0.15812 0.69551,-0.24909 -1.558648,0.87943 -3.117298,1.75887 -4.675958,2.63831 0.53145,-0.18722 0.0179,-0.89795 -0.15708,-1.20728 -0.290116,-0.41033 -0.641771,-0.67509 -1.16698,-0.55563 -0.11626,0.0265 -0.437068,0.18865 -0.333142,0.13022 1.467512,-0.82509 2.951132,-1.62118 4.426702,-2.43177 -1.19098,0.96614 -1.3629,2.61229 -1.46891,4.04599 0.0614,0.7823 -0.0302,1.99687 0.74644,2.50525 0.32716,0.21414 0.70215,0.16503 1.06636,0.1757 1.709598,-0.28694 3.269888,-1.11686 4.791398,-1.9137 0.70688,-0.30578 0.36586,-0.20188 1.0134,-0.34174 0,0 -4.38869,3.37427 -4.38869,3.37427 v 0 c -0.52706,0.18822 -0.23913,0.074 -0.857888,0.35725 -1.58243,0.77339 -3.21097,1.63079 -5.008412,1.67302 -0.244711,-0.0502 -0.500912,-0.061 -0.734134,-0.15054 -1.302345,-0.49976 -1.383959,-2.09051 -1.434507,-3.26441 0.05898,-1.52309 0.2057,-3.17013 1.129172,-4.44019 0.650156,-0.36954 4.400371,-4.07663 6.433929,-2.58493 0.24199,0.17752 0.40021,0.41382 0.5815,0.64612 0.34238,0.56006 0.77699,1.25836 0.5847,1.93391 -3.323738,1.89807 -3.644718,2.94697 -6.316611,2.94624 0,0 4.539643,-3.29824 4.539643,-3.29824 z"
       inkscape:connector-curvature="0"
       style="stroke-width:0.26458332" />
    <path
       id="path350"
       d="m 107.50679,140.79279 c 0.1346,-0.54939 0.0541,-1.45938 -0.63406,-1.53471 -1.7906,1.10047 1.25372,-0.77678 4.12088,-2.23448 0.19979,-0.10158 -0.35977,0.27028 -0.51654,0.43047 -0.63222,0.64603 -1.05608,1.43421 -1.47545,2.22306 -0.32727,0.87392 -1.18603,2.45865 -0.58165,3.38429 0.0751,0.11504 0.19814,0.19041 0.2972,0.28562 1.2161,0.40795 2.51718,-0.19711 3.61632,-0.70291 2.47317,-1.38996 -2.29864,1.33159 -3.45775,1.98009 -0.16339,0.0914 0.31658,-0.20027 0.46971,-0.308 0.33592,-0.23633 0.5948,-0.47324 0.82479,-0.80999 0.13637,-0.33794 0.21401,-0.89119 -0.18236,-1.08773 -0.79467,2.09636 2.93809,-1.48002 4.5163,-2.33146 0.099,-0.0534 -0.13557,0.18005 -0.19342,0.27651 -0.21006,0.35022 -0.21162,0.42297 -0.35457,0.82486 -0.22796,0.84414 -0.33142,1.78004 0.17166,2.53888 0.52868,0.53969 1.22104,0.84905 1.87113,1.21173 0,0 -4.603,3.00418 -4.603,3.00418 v 0 c -0.74164,-0.39818 -1.50753,-0.77311 -2.06282,-1.42863 -0.53436,-0.91128 -0.58094,-1.94176 -0.35178,-2.96417 0.53646,-2.38601 3.06196,-5.79415 5.7722,-4.0881 0.43259,0.49686 0.61962,1.08054 0.46769,1.73552 -0.20942,0.67361 -0.65351,1.09992 -1.26214,1.45915 -4.9453,2.91886 -3.48021,2.19315 -5.88563,3.35117 -1.30084,0.50595 -2.79346,1.05141 -4.0628,0.19345 -0.13098,-0.15695 -0.29117,-0.29356 -0.39295,-0.47086 -0.68837,-1.19913 0.0877,-2.70063 0.50117,-3.84208 1.26376,-2.74781 3.83362,-6.24197 7.39126,-5.71545 0.7526,0.49659 1.02934,1.31272 1.0556,2.19612 0,0 -5.05899,2.42347 -5.05899,2.42347 z"
       inkscape:connector-curvature="0"
       style="stroke-width:0.26458332" />
    <path
       id="path352"
       d="m 121.57482,137.85264 c 0.21532,1.489 0.41624,2.98041 0.66934,4.46356 0.28982,1.70252 0.68519,3.38426 0.96587,5.08851 0.21394,0.49707 0.01,1.31262 0.29729,1.77003 -0.0461,-0.0122 0.0871,0.0635 0.0776,0.0366 -0.71675,-2.03184 -3.42267,1.7073 -4.83774,2.47693 -0.0887,0.0482 0.10859,-0.17228 0.14139,-0.26772 0.055,-0.1599 0.08,-0.32857 0.11998,-0.49285 0.24568,-2.03822 -0.29369,-4.05465 -0.86334,-5.9934 -0.61324,-1.91569 -1.23663,-3.82822 -1.90711,-5.72474 -1.06924,-2.88502 -0.12718,-1.54644 4.66078,-4.09386 0.77616,0.17633 1.39798,0.53283 1.97872,1.07522 0.85706,1.01816 1.20554,2.28994 1.44213,3.57118 0.13474,1.12884 0.31671,2.28655 0.0357,3.40439 -0.1926,0.3176 -0.26498,0.52467 -0.60769,0.72158 -5.26244,3.02361 -3.69587,2.4331 -7.08377,3.36176 0,0 4.32923,-3.3209 4.32923,-3.3209 v 0 c 0.29732,-0.0769 0.98349,-0.2503 1.27779,-0.34263 0.19403,-0.0609 0.74738,-0.31154 0.5752,-0.20332 -1.39081,0.87417 -2.83916,1.65369 -4.24218,2.50814 -0.12753,0.0777 0.2822,-0.10201 0.41212,-0.1756 0.11059,-0.0626 0.20272,-0.15337 0.30407,-0.23005 0.59255,-0.89892 0.23401,-2.15771 0.18096,-3.16122 -0.19523,-1.16376 -0.46896,-2.32895 -1.30585,-3.21385 -0.54458,-0.41976 -1.14827,-0.72871 -1.8557,-0.713 1.57656,-0.90085 3.18838,-1.74259 4.72966,-2.70254 0.12427,-0.0774 -0.23853,-0.19538 -0.24994,-0.0858 -0.0331,0.31781 0.23716,0.66367 0.21524,0.97789 0.4884,1.96511 1.09738,3.89725 1.73207,5.81946 0.61365,1.98346 1.18322,4.0053 1.18474,6.10004 -0.0121,0.154 -0.0687,0.88969 -0.0738,0.89322 -2.7487,1.9091 -3.92618,4.58275 -5.25154,2.56716 -0.30094,-0.62421 -0.1195,-1.34726 -0.24581,-2.01678 -0.19411,-1.72442 -0.54264,-3.42039 -0.84791,-5.12731 -0.26763,-1.43982 -0.50021,-2.88879 -0.89173,-4.30171 0,0 4.93423,-2.66833 4.93423,-2.66833 z"
       inkscape:connector-curvature="0"
       style="stroke-width:0.26458332" />
    <path
       id="path362"
       d="m 52.351734,86.270696 c 0.724376,-0.676645 0.825979,-1.639055 0.810141,-2.5757 -0.116099,-1.04005 -0.278704,-2.071416 -0.360735,-3.115257 -0.03824,-1.581867 -0.132409,-3.161921 -0.249344,-4.740047 -0.160483,-2.742543 -0.343485,-5.481668 -0.576659,-8.219088 -0.243941,-1.833397 -0.14237,-3.661262 0.08895,-5.486066 0.228063,-1.598714 -0.08638,-3.146196 -0.46437,-4.690473 -0.301133,-1.126537 -0.807898,-2.19787 -0.933998,-3.363915 -0.06493,-2.184186 3.612168,-4.941175 5.269449,-3.329455 0.09189,0.09391 0.163987,0.202715 0.223049,0.319349 0.27627,0.484382 -0.371371,-0.273107 -0.09019,-0.278737 0.156459,-0.0022 0.312695,0.0019 0.469231,-0.0012 0.191635,0.158619 0.306887,-0.193087 0.235807,-0.153858 -5.898523,3.255303 -6.412751,3.464737 -4.670586,2.743124 0.04057,0.102142 0.216744,0.246104 0.04937,0.284473 1.624906,-0.893958 3.249813,-1.787916 4.87472,-2.681875 -0.04912,0.0025 -0.04143,0.127544 -0.0721,0.142532 -1.678869,0.820349 -3.362492,1.630935 -5.043736,2.446403 0.0054,-0.177665 -0.07033,-0.348994 0.02725,-0.5081 0.344816,-0.339616 0.65495,-0.67746 0.8586,-1.121303 0.101785,0.375823 0.007,-0.206259 0.02738,-0.157139 0.02781,0.06711 0.05827,0.134461 0.07136,0.205915 0.006,0.03254 -0.04497,0.113389 -0.01569,0.098 4.926039,-2.589351 6.243804,-1.475576 4.725445,-2.702316 -0.272799,-0.100653 0.09146,-0.371881 0.173535,-0.454113 -1.526614,0.866813 -3.053228,1.733626 -4.579842,2.60044 2.093502,-1.410791 4.128457,-3.222212 6.665446,-3.598919 1.668172,-0.05161 3.323072,-0.204933 4.979742,-0.405836 4.014806,-0.707775 7.997475,-1.591742 12.002135,-2.360141 4.770474,-0.920107 9.61522,-1.269922 14.446874,-1.690897 5.213594,-0.39564 10.358912,-1.322691 15.479282,-2.345132 3.86361,-0.911244 7.76342,-1.523919 11.73482,-1.533106 3.30025,0.07111 6.59522,0.299187 9.89704,0.247863 2.04925,-0.06552 4.09472,-0.208687 6.14288,-0.29893 1.38918,0.01529 2.73431,0.362235 4.08225,0.656086 1.29023,0.317353 2.57828,0.648044 3.87669,0.930952 0.85163,0.265002 1.72629,0.441609 2.52081,0.857965 0.68425,0.420345 1.38568,0.662751 2.17654,0.785991 0.86635,0.159035 1.76178,0.01651 2.62168,0.183803 0.10463,0.02522 0.2126,0.03929 0.3139,0.07566 0.20165,0.0724 0.38198,0.196718 0.58335,0.269888 0.38001,0.138082 0.78469,0.178017 1.18242,0.229689 1.29928,0.193257 2.58361,0.0086 3.85708,-0.248668 0.90199,-0.210138 1.46578,-0.556747 1.94772,0.429568 0.18284,1.044044 0.22466,2.111172 0.33608,3.165831 0.35155,2.182083 0.0371,4.338251 -0.39237,6.479918 -0.45606,1.896113 -1.08257,3.748498 -1.5016,5.654314 -0.27534,1.252329 -0.30538,1.687314 -0.47332,2.957455 -0.27354,2.627381 0.0989,5.261434 -0.13512,7.886612 -0.35306,2.212481 -1.25451,4.276744 -1.79214,6.446855 0,0 -4.81266,2.305969 -4.81266,2.305969 v 0 c 0.5407,-2.159101 1.40588,-4.21529 1.85196,-6.394903 0.33395,-2.638846 0.0103,-5.300882 0.24125,-7.950365 0.1496,-1.228348 0.19257,-1.798594 0.44624,-3.011601 0.39495,-1.888657 0.99862,-3.726318 1.44947,-5.600828 0.39839,-2.067741 0.72581,-4.148642 0.31518,-6.246569 -0.15339,-0.976828 -0.27793,-1.95862 -0.40644,-2.938026 -0.14171,-0.371092 -1.16821,0.160641 -1.43713,0.107685 -1.32255,0.216109 -2.66104,0.31476 -3.99577,0.130434 -0.73359,-0.114138 -1.40483,-0.362337 -2.11697,-0.546966 -0.86834,-0.0684 -1.74402,-0.0661 -2.6037,-0.224383 -0.81972,-0.170041 -1.5637,-0.477223 -2.29159,-0.890085 -0.77255,-0.344441 -1.59188,-0.553589 -2.40181,-0.791545 -1.27283,-0.326744 -2.54503,-0.653944 -3.82456,-0.953864 -1.3207,-0.283275 -2.65075,-0.56611 -4.00976,-0.543312 -1.979,0.04353 -3.95733,0.12017 -5.937,0.130202 -3.28559,-0.01842 -6.56625,-0.226084 -9.85136,-0.279612 -3.88219,0.04839 -7.70302,0.608739 -11.4897,1.466555 -5.123508,0.973469 -10.268835,1.858017 -15.472528,2.277797 -4.842414,0.450849 -9.69778,0.836445 -14.477727,1.776007 -4.102383,0.805367 -8.174688,1.750904 -12.280815,2.532425 -1.724142,0.251644 -3.454665,0.388871 -5.178661,0.613001 -0.142652,0.04263 -0.288006,0.0771 -0.427955,0.127906 -0.122137,0.04434 -0.468291,0.223717 -0.356793,0.156999 7.725256,-4.622594 5.227518,-3.326337 3.723573,-2.045997 -1.677812,0.960109 -3.339179,1.949546 -5.033435,2.880324 -0.221637,0.121761 -0.540626,-0.06316 -0.678987,-0.210227 -0.157073,-0.166958 -0.152898,-0.228276 -0.202002,-0.41849 -0.309917,-2.128215 4.236553,-4.566616 5.323538,-2.612776 0.03531,0.06346 0.02857,0.332318 0.02922,0.368479 -0.06716,0.510758 -0.32049,1.004555 -0.711108,1.346538 -0.192389,0.142344 -0.182004,-0.214477 -0.196688,0.143405 -1.681549,0.879008 -3.356118,1.771495 -5.044644,2.637024 -0.0071,0.0037 0.02297,-0.3089 0.01421,-0.301463 1.646769,-0.948264 3.293541,-1.896528 4.940313,-2.844792 0.232614,0.164699 0.376113,0.395853 0.45167,0.673129 -0.815633,1.989071 -3.324735,3.202429 -5.327223,2.932288 -0.158351,-0.0027 -0.316379,0.0028 -0.474652,7.41e-4 -0.267349,-0.0068 -0.516816,-0.702144 -0.305081,-0.314806 0.0057,0.01825 0.03983,0.02348 0.01455,0.04698 -0.09558,1.813495 3.213145,-1.697253 4.769697,-2.63269 0.042,-0.02524 -0.102016,-0.03407 -0.146415,-0.01332 -0.09587,0.0448 -0.18518,0.269631 -0.220663,0.34157 -0.04485,1.157239 0.465537,2.235089 0.74027,3.341232 0.391075,1.596713 0.776089,3.192721 0.594834,4.852635 -0.267679,1.814547 -0.513012,3.63267 -0.310613,5.472379 0.171021,2.728027 0.359439,5.457246 0.634029,8.176658 0.18043,1.549748 0.354531,3.103701 0.426484,4.662373 0.06721,1.051142 0.205018,2.094128 0.338177,3.138595 0.0871,1.030994 0.02016,2.023052 -0.498535,2.94293 0,0 -5.180899,2.145999 -5.180899,2.145999 z"
       inkscape:connector-curvature="0"
       style="stroke-width:0.26458332" />
    <path
       id="path364"
       d="m 70.116616,55.654624 c 0.361801,-0.145435 0.555408,-0.916251 0.872199,-1.045766 0.03826,0.09101 0.118477,0.238428 0.06871,0.342308 -0.03673,0.07668 -1.522201,0.741022 -1.663296,0.816873 7.617331,-4.318306 3.922178,-2.478855 2.504387,-1.163617 -0.723191,0.670882 -1.255429,1.42489 -1.773438,2.256157 -0.75183,1.461969 -1.082143,2.774039 -0.49525,4.34243 0.549812,0.901187 1.542928,1.281466 2.417006,1.787803 1.250953,0.900831 1.591635,2.430978 1.851869,3.862472 0.188002,1.372913 0.346112,2.86541 -0.210606,4.182521 -0.09558,0.226134 -0.232936,0.432241 -0.349406,0.648362 -1.631347,2.023032 -4.145415,3.851753 -6.787819,3.974832 -0.359034,0.01672 -1.042906,-0.05559 -1.395995,-0.08657 -0.951158,-0.143657 -1.877208,-0.159286 -2.685214,0.404685 0,0 4.32217,-3.456717 4.32217,-3.456717 v 0 c 0.911485,-0.298319 1.842535,-0.237812 2.785983,-0.122576 0.494835,0.01338 0.839986,0.05008 1.327968,-0.04064 0.202364,-0.03762 0.766016,-0.282457 0.59363,-0.169993 -1.342573,0.875885 -2.7476,1.652103 -4.12427,2.473357 -0.177427,0.105845 0.364432,-0.19892 0.526473,-0.327088 0.16849,-0.13327 0.306007,-0.301594 0.45901,-0.452391 0.132742,-0.18467 0.28524,-0.356634 0.39823,-0.554011 0.677836,-1.184099 0.568317,-2.648453 0.392726,-3.942821 -0.247753,-1.273477 -0.546531,-2.65495 -1.725494,-3.39117 -0.989152,-0.563069 -2.008441,-1.090676 -2.56772,-2.139962 -0.207274,-0.555878 -0.340011,-0.798281 -0.387866,-1.406937 -0.09236,-1.174716 0.269275,-2.363815 0.758023,-3.412085 2.097442,-3.721047 4.369692,-4.394167 8.416185,-6.668005 0.353612,-0.167012 1.572773,-0.838865 1.985438,-0.692275 0.259861,0.09231 0.328668,0.307706 0.446074,0.520207 -0.0114,0.507253 -0.588303,0.85688 -0.778809,1.314618 0,0 -5.180898,2.145999 -5.180898,2.145999 z"
       inkscape:connector-curvature="0"
       style="stroke-width:0.26458332" />
    <path
       id="path366"
       d="m 86.373354,52.987072 c -0.670579,1.214452 -0.635379,2.645798 -0.663784,3.991273 -0.05186,3.07824 0.24775,6.145292 0.53708,9.205741 0.207161,2.050064 0.353147,4.105254 0.446355,6.163418 0,0 -4.832895,2.476594 -4.832895,2.476594 v 0 c -0.0028,-2.084856 -0.06409,-4.169396 -0.210069,-6.249502 -0.22193,-3.061071 -0.546248,-6.115756 -0.664744,-9.18361 -0.05446,-1.363479 -0.178467,-2.780872 0.281924,-4.093739 0,0 5.106133,-2.310175 5.106133,-2.310175 z"
       inkscape:connector-curvature="0"
       style="stroke-width:0.26458332" />
    <path
       id="path368"
       d="m 79.557811,61.383617 c 1.519301,0.1491 3.027702,-0.04968 4.535551,-0.215986 2.144594,-0.28596 4.262054,-0.776027 6.312734,-1.463512 1.013864,-0.343684 0.527425,-0.161681 1.461243,-0.540825 0,0 -4.279376,3.353342 -4.279376,3.353342 v 0 c -0.921739,0.326673 -0.444921,0.166135 -1.431375,0.478895 -2.067242,0.617707 -4.186777,1.065396 -6.326417,1.344734 -1.600721,0.191617 -3.198429,0.336875 -4.811998,0.341594 0,0 4.539638,-3.298242 4.539638,-3.298242 z"
       inkscape:connector-curvature="0"
       style="stroke-width:0.26458332" />
    <path
       id="path370"
       d="m 99.880062,66.474748 c -0.5261,-1.045348 -1.28479,-2.018943 -2.19259,-2.75918 -0.29362,-0.177486 -0.69909,-0.475476 -1.06961,-0.284071 -0.10275,0.05308 -0.35925,0.28741 -0.25743,0.232591 4.392858,-2.364874 5.573778,-3.724162 4.023628,-2.052093 -0.995678,1.623589 -1.280148,3.533307 -1.297428,5.405449 0.0137,0.474471 0.34861,2.662716 1.270578,2.284868 0.1193,-0.04889 0.20303,-0.158981 0.30454,-0.238472 -7.738596,4.344468 -4.689338,3.254349 -3.605838,1.518716 0.32544,-0.521308 0.52276,-1.071369 0.70783,-1.6525 0.23856,-0.853643 0.30731,-1.738963 0.31249,-2.621515 0.0208,-2.560942 -2.499699,0.800771 4.765308,-3.26636 -0.35816,0.769445 -0.062,1.810522 0.0987,2.601054 0.34981,1.384852 1.09309,2.593616 2.12579,3.567008 0.5457,0.449943 1.19225,0.721726 1.87346,0.885436 0,0 -4.62271,3.138028 -4.62271,3.138028 v 0 c -0.69019,-0.292193 -1.35361,-0.650059 -1.90166,-1.170916 -1.047108,-1.089368 -1.858338,-2.372461 -2.265268,-3.840364 -0.24165,-0.939356 -0.457,-1.887901 -0.44495,-2.862289 2.20497,-1.29473 5.362338,-4.910142 5.326018,-1.561513 -0.0376,0.935538 -0.0718,1.876318 -0.31395,2.787075 -1.07726,3.798316 -2.02127,3.343461 -6.439738,5.858457 -0.16296,-0.0021 -0.33085,0.03353 -0.488869,-0.0063 -1.198684,-0.302337 -1.370227,-2.031349 -1.460455,-2.997129 -0.0079,-1.932481 0.258395,-3.861781 1.022749,-5.652605 1.261735,-2.196627 0.29631,-0.709866 5.374573,-3.557478 0.19962,-0.111935 0.61205,-0.0091 0.79835,0.06527 0.32061,0.127964 0.54438,0.323627 0.82139,0.526993 0.89363,0.854184 1.66845,1.832738 2.3668,2.851441 0,0 -4.831698,2.800431 -4.831698,2.800431 z"
       inkscape:connector-curvature="0"
       style="stroke-width:0.26458332" />
    <path
       id="path372"
       d="m 113.96016,64.766715 c -0.914,0.145285 -1.82524,0.192351 -2.72692,-0.03305 -0.79861,-0.216425 -1.24909,-0.537431 -2.04061,-0.134918 8.43001,-4.547454 4.66771,-3.112303 3.46773,-1.629091 -0.47401,0.585881 -0.69738,1.193998 -0.89834,1.908784 -0.1968,1.498621 0.15821,2.381436 1.41607,3.198689 1.10929,0.512394 2.34797,0.530809 3.54737,0.555178 0.39165,-0.04193 0.76599,-0.05859 1.1421,-0.192885 0.18512,-0.0661 0.35286,-0.173355 0.5293,-0.260032 -1.39093,0.780834 -2.78185,1.561669 -4.17277,2.342504 0,0 5.09457,-1.983732 5.09457,-1.983732 v 0 c -2.53934,1.467502 -4.2564,3.293662 -7.0277,3.292952 -1.28503,-0.06144 -2.59813,-0.139677 -3.73178,-0.816698 -1.33293,-1.026241 -1.82764,-2.082152 -1.6829,-3.787228 0.73309,-3.772972 3.03698,-3.954922 6.70095,-6.005276 0.77191,-0.09145 1.45837,0.124967 2.19273,0.348037 0.89184,0.121256 1.77834,0.04215 2.65108,-0.180766 0,0 -4.46088,3.377529 -4.46088,3.377529 z"
       inkscape:connector-curvature="0"
       style="stroke-width:0.26458332" />
    <path
       id="path374"
       d="m 127.26333,50.9345 c 0.50845,1.682402 0.81579,3.41657 1.12411,5.144313 0.38439,2.743328 0.59126,5.508202 0.73875,8.273297 0.0946,1.985137 0.16956,3.971209 0.27618,5.955758 0,0 -4.81198,2.460227 -4.81198,2.460227 v 0 c 0.0495,-2.013306 0.0395,-4.028322 -0.0629,-6.040068 -0.16248,-2.72832 -0.41212,-5.453368 -0.81927,-8.156741 -0.31502,-1.660774 -0.62277,-3.363755 -1.3264,-4.910804 0,0 4.88154,-2.725982 4.88154,-2.725982 z"
       inkscape:connector-curvature="0"
       style="stroke-width:0.26458332" />
    <path
       id="path376"
       d="m 134.43925,61.071105 c 0.27823,0.916299 0.19319,1.871024 -0.0505,2.781826 -0.76669,2.387779 -3.7658,4.417401 -6.24376,3.853492 -0.21387,-0.02606 -0.41038,-0.142192 -0.62431,-0.16858 -0.18986,-0.02342 -0.4071,0.03773 -0.58902,0.08656 1.59786,-0.893253 3.19571,-1.786506 4.79356,-2.679759 0.0528,0.149771 -0.18324,-0.247733 -0.0906,-0.276771 0.30182,-0.09462 1.20408,0.194118 1.51115,0.249122 1.56563,0.113243 2.76611,0.64741 4.01272,1.571888 0.86991,0.759569 0.44325,0.374944 1.28033,1.153466 0,0 -4.5922,2.838239 -4.5922,2.838239 v 0 c -0.81239,-0.749786 -0.39451,-0.387246 -1.25381,-1.087418 -1.23856,-0.839463 -2.44557,-1.21626 -3.93886,-1.325522 -0.88851,-0.139802 -1.78244,-0.01436 -2.14414,-0.979714 5.2028,-2.965491 3.25597,-3.051685 6.16027,-2.619518 1.77064,-0.223202 5.15496,-2.955171 -3.94826,2.518379 -0.0865,0.05202 0.19979,-0.0558 0.27848,-0.11903 0.19954,-0.160344 0.29884,-0.44855 0.40006,-0.665561 0.2899,-0.754928 0.42591,-1.570647 0.16857,-2.358038 0,0 4.87028,-2.773061 4.87028,-2.773061 z"
       inkscape:connector-curvature="0"
       style="stroke-width:0.26458332" />
    <path
       id="path388"
       d="m 102.66354,74.791039 c 0.046,1.45188 0.22894,2.895403 0.34463,4.342818 0.13877,2.561747 0.18626,5.125331 0.44828,7.678839 0.0727,1.604733 0.51757,3.145836 0.79873,4.714603 0,0 -4.897038,2.563728 -4.897038,2.563728 v 0 c -0.0229,-0.586383 -0.14516,-1.147794 -0.23073,-1.72833 -0.16424,-1.114242 -0.10624,-0.746606 -0.21857,-1.937544 -0.0371,-0.393305 -0.0767,-0.786368 -0.11508,-1.179554 -0.23348,-2.545459 -0.3087,-5.098923 -0.51327,-7.64612 -0.15782,-1.425181 -0.32982,-2.856237 -0.61666,-4.260961 0,0 4.999708,-2.547479 4.999708,-2.547479 z"
       inkscape:connector-curvature="0"
       style="stroke-width:0.26458332" />
    <path
       id="path390"
       d="m 97.775562,87.151461 c 0.36164,0.965483 0.99109,1.79101 1.6335,2.584643 0.923008,0.888365 1.807048,1.801731 2.572118,2.831153 0.5725,0.811411 1.13001,1.627661 1.8041,2.359501 0.0952,0.02763 0.11812,0.16913 0.20841,0.207026 0.0363,0.01524 0.14513,-0.06047 0.1104,-0.04193 -4.991258,2.664833 -6.323288,3.674954 -4.711158,2.466819 0.51997,-0.83026 1.164088,-1.560259 1.829258,-2.274914 1.22559,-1.04489 2.15178,-2.309704 2.9048,-3.723629 0.58809,-1.215512 1.02274,-2.489235 1.38993,-3.78541 0,0 4.83979,-2.301997 4.83979,-2.301997 v 0 c -0.36569,1.324238 -0.81159,2.618166 -1.35578,3.881059 -0.66369,1.430735 -1.472,2.814791 -2.71911,3.81734 -0.63932,0.66662 -1.31521,1.318501 -1.75327,2.139974 -0.67038,2.054606 -4.26598,4.46125 -5.536138,2.484874 -0.57714,-0.807469 -1.11128,-1.643457 -1.69402,-2.44624 -0.78348,-1.010994 -1.6875,-1.901005 -2.595521,-2.798852 -0.664806,-0.830146 -1.280668,-1.694929 -1.797587,-2.626352 0,0 4.870278,-2.773064 4.870278,-2.773065 z"
       inkscape:connector-curvature="0"
       style="stroke-width:0.26458332" />
    <path
       id="path392"
       d="m 100.03018,107.99252 c 0.35788,1.6452 0.40026,3.33197 0.51933,5.00504 0.16552,2.72628 0.34979,5.4521 0.67346,8.16489 0.0767,1.2828 0.51954,2.53633 0.53674,3.82213 -0.005,0.17777 -0.0375,0.35211 -0.0341,0.52991 0,0 -5.246898,2.11302 -5.246898,2.11302 v 0 c 0.14885,0.0986 0.21463,-0.0225 0.27573,-0.1625 0.31663,-1.21783 -0.23021,-2.62398 -0.20495,-3.85799 -0.26048,-2.72048 -0.41402,-5.45089 -0.68301,-8.17091 -0.169963,-1.59669 -0.209349,-3.25464 -0.770528,-4.77526 0,0 4.934226,-2.66833 4.934226,-2.66833 z"
       inkscape:connector-curvature="0"
       style="stroke-width:0.26458332" />
    <path
       id="path394"
       d="m 99.980502,106.65969 c -0.3587,0.8123 -0.72284,1.61425 -1.24397,2.33744 -0.59051,0.69394 -1.37402,1.17673 -2.05864,1.7715 -0.922636,0.83488 -1.738981,1.7823 -2.527011,2.74319 -0.304943,0.38902 -0.579691,0.80003 -0.834475,1.22318 -0.119718,0.18058 0.0286,-0.0354 -0.03776,0.0467 0,0 -5.154118,2.34014 -5.154118,2.34014 v 0 c 0.01537,-0.0594 0.0044,-0.0272 0.03646,-0.0954 0.274791,-0.47967 0.625583,-0.91202 0.948063,-1.35919 0.765908,-0.98992 1.616106,-1.92484 2.487781,-2.82093 0.645097,-0.62036 1.326822,-1.1537 2.051699,-1.67356 0.558334,-0.63519 1.043426,-1.36545 1.225833,-2.20295 0,0 5.106138,-2.31018 5.106138,-2.31018 z"
       inkscape:connector-curvature="0"
       style="stroke-width:0.26458332" />
    <path
       id="path396"
       d="m 100.39568,107.29699 c 0.0318,0.39161 -0.27719,1.36764 0.2751,1.45705 0.93357,-0.23845 1.86533,-0.43098 2.83064,-0.48032 1.33513,0.0453 2.54943,0.61326 3.69467,1.25393 0.81289,0.53323 1.69465,1.02335 2.25274,1.83978 0.22656,0.35657 0.3431,0.76548 0.39653,1.18094 0,0 -4.97731,2.58982 -4.97731,2.58982 v 0 c -0.0105,-0.33237 -0.0498,-0.6614 -0.21905,-0.95579 -0.48577,-0.73962 -1.29955,-1.19632 -2.02315,-1.6713 -1.09842,-0.58435 -2.26665,-1.0641 -3.536948,-0.97743 -0.56923,0.0623 -0.53526,0.0454 -1.08857,0.15721 -0.51005,0.10305 -1.06923,0.2919 -1.59847,0.22193 -0.14429,-0.0191 -0.27849,-0.0847 -0.41773,-0.12713 -0.735616,-0.62235 -0.536647,-1.07315 -0.588153,-1.94121 0,0 4.999701,-2.54748 4.999701,-2.54748 z"
       inkscape:connector-curvature="0"
       style="stroke-width:0.26458332" />
  </g>
</svg>
